<svg width="213" height="73" viewBox="0 0 213 73" fill="none" xmlns="http://www.w3.org/2000/svg">
<path d="M204.951 0H8.04933C3.60381 0 0 3.81458 0 8.5201V64.4799C0 69.1854 3.60381 73 8.04933 73H204.951C209.396 73 213 69.1854 213 64.4799V8.5201C213 3.81458 209.396 0 204.951 0Z" fill="#000204"/>
<path d="M46.0951 37.9256C46.0951 34.4097 48.0151 31.347 50.859 29.7159C47.9065 25.2759 42.273 23.971 36.9475 25.747C36.4584 25.9101 35.9875 26.0914 35.5346 26.3089C34.8101 26.6351 33.9768 26.6351 33.2523 26.3089C32.7994 26.0914 32.3103 25.9101 31.8394 25.747C25.6806 23.6992 19.1052 25.747 16.7504 31.9994C16.7142 32.09 16.678 32.1806 16.6417 32.2894C14.0696 39.7016 16.3882 49.3067 21.2608 55.3416C22.7824 57.2263 24.9017 58.513 27.3471 58.6761C28.7056 58.7668 30.0461 58.4587 31.3322 58.0781C31.948 57.8969 33.6508 56.9907 34.3934 56.9726C35.118 56.9726 36.8388 57.8787 37.4547 58.0781C38.7408 58.4587 40.0812 58.7668 41.4398 58.6761C43.8852 58.513 46.0045 57.2263 47.5261 55.3416C49.4824 52.9131 51.0221 49.9047 52.0002 46.697C48.5404 45.2834 46.1132 41.8944 46.1132 37.9256H46.0951Z" fill="white"/>
<path d="M34.176 24.6232C42.4541 23.7714 43.5953 15.9786 43.704 15.0906L43.7583 15.0362C43.7583 15.0362 43.7583 15.0362 43.7221 15.0362C43.7221 15.0181 43.7221 15 43.7221 15L43.6677 15.0544C42.7802 15.1631 34.9911 16.3048 34.1398 24.587L34.0854 24.6413H34.1217V24.6776L34.176 24.6232Z" fill="white"/>
<path d="M78.94 49.34H73.38L72.46 52H69.52L74.54 38.02H77.8L82.82 52H79.86L78.94 49.34ZM78.18 47.1L76.16 41.26L74.14 47.1H78.18ZM87.4964 42.52C87.8564 42.0133 88.3497 41.5933 88.9764 41.26C89.6164 40.9133 90.3431 40.74 91.1564 40.74C92.1031 40.74 92.9564 40.9733 93.7164 41.44C94.4897 41.9067 95.0964 42.5733 95.5364 43.44C95.9897 44.2933 96.2164 45.2867 96.2164 46.42C96.2164 47.5533 95.9897 48.56 95.5364 49.44C95.0964 50.3067 94.4897 50.98 93.7164 51.46C92.9564 51.94 92.1031 52.18 91.1564 52.18C90.3431 52.18 89.6231 52.0133 88.9964 51.68C88.3831 51.3467 87.8831 50.9267 87.4964 50.42V57.28H84.6964V40.92H87.4964V42.52ZM93.3564 46.42C93.3564 45.7533 93.2164 45.18 92.9364 44.7C92.6697 44.2067 92.3097 43.8333 91.8564 43.58C91.4164 43.3267 90.9364 43.2 90.4164 43.2C89.9097 43.2 89.4297 43.3333 88.9764 43.6C88.5364 43.8533 88.1764 44.2267 87.8964 44.72C87.6297 45.2133 87.4964 45.7933 87.4964 46.46C87.4964 47.1267 87.6297 47.7067 87.8964 48.2C88.1764 48.6933 88.5364 49.0733 88.9764 49.34C89.4297 49.5933 89.9097 49.72 90.4164 49.72C90.9364 49.72 91.4164 49.5867 91.8564 49.32C92.3097 49.0533 92.6697 48.6733 92.9364 48.18C93.2164 47.6867 93.3564 47.1 93.3564 46.42ZM101.051 42.52C101.411 42.0133 101.904 41.5933 102.531 41.26C103.171 40.9133 103.898 40.74 104.711 40.74C105.658 40.74 106.511 40.9733 107.271 41.44C108.044 41.9067 108.651 42.5733 109.091 43.44C109.544 44.2933 109.771 45.2867 109.771 46.42C109.771 47.5533 109.544 48.56 109.091 49.44C108.651 50.3067 108.044 50.98 107.271 51.46C106.511 51.94 105.658 52.18 104.711 52.18C103.898 52.18 103.178 52.0133 102.551 51.68C101.938 51.3467 101.438 50.9267 101.051 50.42V57.28H98.2511V40.92H101.051V42.52ZM106.911 46.42C106.911 45.7533 106.771 45.18 106.491 44.7C106.224 44.2067 105.864 43.8333 105.411 43.58C104.971 43.3267 104.491 43.2 103.971 43.2C103.464 43.2 102.984 43.3333 102.531 43.6C102.091 43.8533 101.731 44.2267 101.451 44.72C101.184 45.2133 101.051 45.7933 101.051 46.46C101.051 47.1267 101.184 47.7067 101.451 48.2C101.731 48.6933 102.091 49.0733 102.531 49.34C102.984 49.5933 103.464 49.72 103.971 49.72C104.491 49.72 104.971 49.5867 105.411 49.32C105.864 49.0533 106.224 48.6733 106.491 48.18C106.771 47.6867 106.911 47.1 106.911 46.42ZM121.391 52.14C120.418 52.14 119.538 51.9733 118.751 51.64C117.978 51.3067 117.365 50.8267 116.911 50.2C116.458 49.5733 116.225 48.8333 116.211 47.98H119.211C119.251 48.5533 119.451 49.0067 119.811 49.34C120.185 49.6733 120.691 49.84 121.331 49.84C121.985 49.84 122.498 49.6867 122.871 49.38C123.245 49.06 123.431 48.6467 123.431 48.14C123.431 47.7267 123.305 47.3867 123.051 47.12C122.798 46.8533 122.478 46.6467 122.091 46.5C121.718 46.34 121.198 46.1667 120.531 45.98C119.625 45.7133 118.885 45.4533 118.311 45.2C117.751 44.9333 117.265 44.54 116.851 44.02C116.451 43.4867 116.251 42.78 116.251 41.9C116.251 41.0733 116.458 40.3533 116.871 39.74C117.285 39.1267 117.865 38.66 118.611 38.34C119.358 38.0067 120.211 37.84 121.171 37.84C122.611 37.84 123.778 38.1933 124.671 38.9C125.578 39.5933 126.078 40.5667 126.171 41.82H123.091C123.065 41.34 122.858 40.9467 122.471 40.64C122.098 40.32 121.598 40.16 120.971 40.16C120.425 40.16 119.985 40.3 119.651 40.58C119.331 40.86 119.171 41.2667 119.171 41.8C119.171 42.1733 119.291 42.4867 119.531 42.74C119.785 42.98 120.091 43.18 120.451 43.34C120.825 43.4867 121.345 43.66 122.011 43.86C122.918 44.1267 123.658 44.3933 124.231 44.66C124.805 44.9267 125.298 45.3267 125.711 45.86C126.125 46.3933 126.331 47.0933 126.331 47.96C126.331 48.7067 126.138 49.4 125.751 50.04C125.365 50.68 124.798 51.1933 124.051 51.58C123.305 51.9533 122.418 52.14 121.391 52.14ZM132.019 43.22V48.58C132.019 48.9533 132.106 49.2267 132.279 49.4C132.466 49.56 132.772 49.64 133.199 49.64H134.499V52H132.739C130.379 52 129.199 50.8533 129.199 48.56V43.22H127.879V40.92H129.199V38.18H132.019V40.92H134.499V43.22H132.019ZM141.433 52.18C140.366 52.18 139.406 51.9467 138.553 51.48C137.699 51 137.026 50.3267 136.533 49.46C136.053 48.5933 135.813 47.5933 135.813 46.46C135.813 45.3267 136.059 44.3267 136.553 43.46C137.059 42.5933 137.746 41.9267 138.613 41.46C139.479 40.98 140.446 40.74 141.513 40.74C142.579 40.74 143.546 40.98 144.413 41.46C145.279 41.9267 145.959 42.5933 146.453 43.46C146.959 44.3267 147.213 45.3267 147.213 46.46C147.213 47.5933 146.953 48.5933 146.433 49.46C145.926 50.3267 145.233 51 144.353 51.48C143.486 51.9467 142.513 52.18 141.433 52.18ZM141.433 49.74C141.939 49.74 142.413 49.62 142.853 49.38C143.306 49.1267 143.666 48.7533 143.933 48.26C144.199 47.7667 144.333 47.1667 144.333 46.46C144.333 45.4067 144.053 44.6 143.493 44.04C142.946 43.4667 142.273 43.18 141.473 43.18C140.673 43.18 139.999 43.4667 139.453 44.04C138.919 44.6 138.653 45.4067 138.653 46.46C138.653 47.5133 138.913 48.3267 139.433 48.9C139.966 49.46 140.633 49.74 141.433 49.74ZM152.067 42.64C152.427 42.0533 152.893 41.5933 153.467 41.26C154.053 40.9267 154.72 40.76 155.467 40.76V43.7H154.727C153.847 43.7 153.18 43.9067 152.727 44.32C152.287 44.7333 152.067 45.4533 152.067 46.48V52H149.267V40.92H152.067V42.64ZM167.653 46.22C167.653 46.62 167.626 46.98 167.573 47.3H159.473C159.539 48.1 159.819 48.7267 160.313 49.18C160.806 49.6333 161.413 49.86 162.133 49.86C163.173 49.86 163.913 49.4133 164.353 48.52H167.373C167.053 49.5867 166.439 50.4667 165.533 51.16C164.626 51.84 163.513 52.18 162.193 52.18C161.126 52.18 160.166 51.9467 159.313 51.48C158.473 51 157.813 50.3267 157.333 49.46C156.866 48.5933 156.633 47.5933 156.633 46.46C156.633 45.3133 156.866 44.3067 157.333 43.44C157.799 42.5733 158.453 41.9067 159.293 41.44C160.133 40.9733 161.099 40.74 162.193 40.74C163.246 40.74 164.186 40.9667 165.013 41.42C165.853 41.8733 166.499 42.52 166.953 43.36C167.419 44.1867 167.653 45.14 167.653 46.22ZM164.753 45.42C164.739 44.7 164.479 44.1267 163.973 43.7C163.466 43.26 162.846 43.04 162.113 43.04C161.419 43.04 160.833 43.2533 160.353 43.68C159.886 44.0933 159.599 44.6733 159.493 45.42H164.753Z" fill="white"/>
<path d="M77.47 20.07C77.1993 19.5007 76.8073 19.062 76.294 18.754C75.7807 18.4367 75.1833 18.278 74.502 18.278C73.8207 18.278 73.2047 18.4367 72.654 18.754C72.1127 19.062 71.6833 19.51 71.366 20.098C71.058 20.6767 70.904 21.3487 70.904 22.114C70.904 22.8793 71.058 23.5513 71.366 24.13C71.6833 24.7087 72.1127 25.1567 72.654 25.474C73.2047 25.782 73.8207 25.936 74.502 25.936C75.454 25.936 76.238 25.6513 76.854 25.082C77.47 24.5127 77.8293 23.7427 77.932 22.772H74.04V21.736H79.29V22.716C79.2153 23.5187 78.9633 24.256 78.534 24.928C78.1047 25.5907 77.54 26.118 76.84 26.51C76.14 26.8927 75.3607 27.084 74.502 27.084C73.5967 27.084 72.7707 26.874 72.024 26.454C71.2773 26.0247 70.6847 25.432 70.246 24.676C69.8167 23.92 69.602 23.066 69.602 22.114C69.602 21.162 69.8167 20.308 70.246 19.552C70.6847 18.7867 71.2773 18.194 72.024 17.774C72.7707 17.3447 73.5967 17.13 74.502 17.13C75.538 17.13 76.4527 17.3867 77.246 17.9C78.0487 18.4133 78.632 19.1367 78.996 20.07H77.47ZM87.9745 22.87C87.9745 23.1127 87.9605 23.3693 87.9325 23.64H81.8005C81.8472 24.396 82.1038 24.9887 82.5705 25.418C83.0465 25.838 83.6205 26.048 84.2925 26.048C84.8432 26.048 85.3005 25.922 85.6645 25.67C86.0378 25.4087 86.2992 25.0633 86.4485 24.634H87.8205C87.6152 25.3713 87.2045 25.9733 86.5885 26.44C85.9725 26.8973 85.2072 27.126 84.2925 27.126C83.5645 27.126 82.9112 26.9627 82.3325 26.636C81.7632 26.3093 81.3152 25.8473 80.9885 25.25C80.6618 24.6433 80.4985 23.9433 80.4985 23.15C80.4985 22.3567 80.6572 21.6613 80.9745 21.064C81.2918 20.4667 81.7352 20.0093 82.3045 19.692C82.8832 19.3653 83.5458 19.202 84.2925 19.202C85.0205 19.202 85.6645 19.3607 86.2245 19.678C86.7845 19.9953 87.2138 20.434 87.5125 20.994C87.8205 21.5447 87.9745 22.17 87.9745 22.87ZM86.6585 22.604C86.6585 22.1187 86.5512 21.7033 86.3365 21.358C86.1218 21.0033 85.8278 20.7373 85.4545 20.56C85.0905 20.3733 84.6845 20.28 84.2365 20.28C83.5925 20.28 83.0418 20.4853 82.5845 20.896C82.1365 21.3067 81.8798 21.876 81.8145 22.604H86.6585ZM91.2101 20.378V24.9C91.2101 25.2733 91.2895 25.5393 91.4481 25.698C91.6068 25.8473 91.8821 25.922 92.2741 25.922H93.2121V27H92.0641C91.3548 27 90.8228 26.8367 90.4681 26.51C90.1135 26.1833 89.9361 25.6467 89.9361 24.9V20.378H88.9421V19.328H89.9361V17.396H91.2101V19.328H93.2121V20.378H91.2101ZM99.1462 18.082C98.9035 18.082 98.6982 17.998 98.5302 17.83C98.3622 17.662 98.2782 17.4567 98.2782 17.214C98.2782 16.9713 98.3622 16.766 98.5302 16.598C98.6982 16.43 98.9035 16.346 99.1462 16.346C99.3795 16.346 99.5755 16.43 99.7342 16.598C99.9022 16.766 99.9862 16.9713 99.9862 17.214C99.9862 17.4567 99.9022 17.662 99.7342 17.83C99.5755 17.998 99.3795 18.082 99.1462 18.082ZM99.7622 19.328V27H98.4882V19.328H99.7622ZM103.487 20.378V24.9C103.487 25.2733 103.567 25.5393 103.725 25.698C103.884 25.8473 104.159 25.922 104.551 25.922H105.489V27H104.341C103.632 27 103.1 26.8367 102.745 26.51C102.391 26.1833 102.213 25.6467 102.213 24.9V20.378H101.219V19.328H102.213V17.396H103.487V19.328H105.489V20.378H103.487ZM114.112 27.126C113.393 27.126 112.74 26.9627 112.152 26.636C111.573 26.3093 111.116 25.8473 110.78 25.25C110.453 24.6433 110.29 23.9433 110.29 23.15C110.29 22.366 110.458 21.6753 110.794 21.078C111.139 20.4713 111.606 20.0093 112.194 19.692C112.782 19.3653 113.44 19.202 114.168 19.202C114.896 19.202 115.554 19.3653 116.142 19.692C116.73 20.0093 117.192 20.4667 117.528 21.064C117.873 21.6613 118.046 22.3567 118.046 23.15C118.046 23.9433 117.868 24.6433 117.514 25.25C117.168 25.8473 116.697 26.3093 116.1 26.636C115.502 26.9627 114.84 27.126 114.112 27.126ZM114.112 26.006C114.569 26.006 114.998 25.8987 115.4 25.684C115.801 25.4693 116.123 25.1473 116.366 24.718C116.618 24.2887 116.744 23.766 116.744 23.15C116.744 22.534 116.622 22.0113 116.38 21.582C116.137 21.1527 115.82 20.8353 115.428 20.63C115.036 20.4153 114.611 20.308 114.154 20.308C113.687 20.308 113.258 20.4153 112.866 20.63C112.483 20.8353 112.175 21.1527 111.942 21.582C111.708 22.0113 111.592 22.534 111.592 23.15C111.592 23.7753 111.704 24.3027 111.928 24.732C112.161 25.1613 112.469 25.4833 112.852 25.698C113.234 25.9033 113.654 26.006 114.112 26.006ZM123.459 19.188C124.392 19.188 125.148 19.4727 125.727 20.042C126.305 20.602 126.595 21.414 126.595 22.478V27H125.335V22.66C125.335 21.8947 125.143 21.3113 124.761 20.91C124.378 20.4993 123.855 20.294 123.193 20.294C122.521 20.294 121.984 20.504 121.583 20.924C121.191 21.344 120.995 21.9553 120.995 22.758V27H119.721V19.328H120.995V20.42C121.247 20.028 121.587 19.7247 122.017 19.51C122.455 19.2953 122.936 19.188 123.459 19.188Z" fill="white"/>
</svg>
