<svg width="78" height="78" viewBox="0 0 78 78" fill="none" xmlns="http://www.w3.org/2000/svg">
<rect x="0.5" y="0.5" width="77" height="77" stroke="black"/>
<path d="M77.7223 26.2045C77.5656 26.9226 76.612 26.9357 76.2462 26.7529C75.5931 26.4526 75.6323 25.7998 75.5409 24.8466L69.7149 30.5523C70.7077 32.328 70.4595 34.2474 69.1924 35.5922C67.9254 36.937 65.8615 37.2895 63.9805 36.245L50.9048 49.171C51.3228 50.9989 50.931 52.644 49.4941 53.7669C48.3185 54.6939 46.5289 54.9159 45.0789 54.1325C43.629 53.3491 42.7146 51.7431 42.9759 49.8108L27.9408 38.4255C26.3472 40.0445 24.1527 40.2664 22.3109 39.0261L8.21636 53.2838L8.25555 61.2614L23.6171 61.2222C23.7086 60.5824 23.6955 60.0079 24.1527 59.6946C24.5054 59.4465 24.9626 59.4073 25.3675 59.6162C25.89 59.8904 25.9292 60.491 26.0337 61.2222H45.7974C45.9411 60.5824 45.8888 59.9949 46.3199 59.6946C46.6856 59.4465 47.1559 59.3943 47.5347 59.6032C48.0833 59.8904 48.1356 60.4649 48.1486 61.2091L60.2576 61.2483C60.963 61.2483 61.4202 61.7967 61.4072 62.3712C61.4072 62.9065 61.0414 63.5593 60.2446 63.5593H7.13216C6.58354 63.5593 6.00878 63.1415 5.99572 62.6584L5.86509 55.7123L2.28595 59.2507V67.8288C3.37014 67.2674 4.2584 66.8496 5.59078 66.8496L63.0922 66.8235C64.307 66.8235 65.0908 65.9748 65.0908 64.8519V39.9008C65.0908 39.1566 65.5741 38.7388 66.175 38.7127C66.7367 38.6866 67.4029 39.0913 67.4029 39.9008L67.3637 65.1C67.3637 67.6069 65.2867 69.0953 62.9355 69.0953H5.56466C3.57915 69.0953 2.2337 70.8318 2.28595 72.5161C2.35126 74.331 3.8404 75.728 5.76059 75.728L20.6389 75.6889L20.7303 71.8633C20.7434 71.2105 21.292 70.7927 21.8406 70.7927C23.4212 70.7796 23.0816 73.3909 23.0163 75.3363C22.9509 76.9292 21.7622 78.0129 20.1817 77.9999L5.53853 77.9607C2.49495 77.9477 0 75.5452 0 72.4117V21.9611C0.0130626 18.7623 2.76927 16.5818 5.72141 16.5688L11.0248 16.5427L11.0901 2.45463C11.1032 1.05758 12.3703 0 13.7418 0H35.8829C37.372 0 38.5085 1.18815 38.5085 2.66354V21.9089C38.5346 26.1001 33.2965 24.3374 30.6317 24.7813L26.1905 29.7298C25.4851 30.5132 24.2703 30.6568 23.5257 29.8473L18.8624 24.7552H13.9378C12.2788 24.7552 11.064 23.6193 11.0379 21.935C11.0248 20.9035 11.0901 19.9243 10.9987 18.8537H5.72141C3.86652 18.8406 2.24676 20.2246 2.24676 22.1961V55.9082L5.90428 52.3307L5.93041 23.9457C5.93041 23.2537 6.45291 22.862 6.97541 22.8229C7.52404 22.7837 8.13798 23.1884 8.13798 23.9457L8.2033 32.7067C8.88255 32.9548 9.62712 33.1114 9.62712 33.8687C9.62712 34.5868 9.1438 35.1091 8.16411 35.1221L8.19023 49.9674L20.8609 37.1981C20.456 35.4486 20.8087 33.8165 22.0104 32.7328C23.2906 31.5708 25.1193 31.3227 26.6738 32.1061C28.2282 32.8895 28.9858 34.4432 28.8944 36.2842L43.9947 47.6826C45.6014 46.168 47.6915 46.0244 49.5202 47.2517L62.4652 34.4693C61.5508 32.1191 62.5958 29.6514 65.0516 28.8289L65.0777 20.8122C65.0777 19.7285 64.307 18.8145 63.1445 18.8145H41.2124C40.4548 18.8145 40.089 18.3575 40.0368 17.7961C39.9715 17.1302 40.4025 16.5427 41.2255 16.5427H63.1445C65.4827 16.5427 67.3376 18.2531 67.3506 20.5771L67.3898 28.5416C67.3898 28.7767 67.7686 29.1814 68.0038 28.9594L73.8166 23.2407C73.3855 23.0187 72.9545 23.1754 72.5103 22.9926C71.9225 22.7445 71.7919 22.17 71.9095 21.6478C72.014 21.1647 72.5234 20.8252 73.1373 20.8122L76.8471 20.7077C77.4872 20.6946 78.0489 21.243 77.9966 21.922C77.9052 23.3321 78.0227 24.7291 77.7223 26.1915V26.2045ZM29.7043 22.5095L36.2225 22.4181V2.27184H13.3761V22.4051L19.9465 22.5487L24.7928 27.8235L29.7043 22.4964V22.5095ZM68.0038 32.772C68.0038 31.7927 67.2069 30.9832 66.2142 30.9832C65.2214 30.9832 64.4246 31.7797 64.4246 32.772C64.4246 33.7643 65.2214 34.5607 66.2142 34.5607C67.2069 34.5607 68.0038 33.7643 68.0038 32.772ZM26.5823 35.7358C26.5823 34.7566 25.7855 33.9601 24.8058 33.9601C23.8261 33.9601 23.0293 34.7566 23.0293 35.7358C23.0293 36.715 23.8261 37.5115 24.8058 37.5115C25.7855 37.5115 26.5823 36.715 26.5823 35.7358ZM48.7756 50.5289C48.7756 49.5366 47.9788 48.7401 46.9861 48.7401C45.9933 48.7401 45.1965 49.5366 45.1965 50.5289C45.1965 51.5212 45.9933 52.3176 46.9861 52.3176C47.9788 52.3176 48.7756 51.5212 48.7756 50.5289Z" fill="#0DB14B"/>
<path d="M58.7155 24.7809H44.1116C43.3931 24.7809 43.0013 24.3239 42.949 23.8016C42.8706 23.0966 43.2756 22.5352 44.0985 22.5352H58.7286C59.4732 22.5352 59.865 22.9791 59.9042 23.5927C59.9434 24.2456 59.5124 24.7809 58.7155 24.7809Z" fill="#0DB14B"/>
<path d="M58.8483 28.8812H52.9701C52.2778 28.8812 51.8337 28.3981 51.8206 27.8236C51.8076 27.21 52.1994 26.6094 52.9832 26.6094H58.7307C59.41 26.6094 59.8672 27.0664 59.9325 27.68C59.9847 28.137 59.619 28.8812 58.8483 28.8812Z" fill="#0DB14B"/>
<path d="M24.8585 18.7892C22.9906 18.9329 21.0965 21.6095 19.3592 20.1732C17.9353 18.9981 19.6204 16.2954 19.2677 14.7286C18.2488 12.966 15.7016 12.2348 16.2241 10.1458C16.6552 8.44845 19.947 8.97071 21.3839 8.33094C22.6901 6.90777 22.7685 3.87865 24.8977 3.9831C26.6611 4.06144 27.0138 6.8686 28.1372 8.42233L32.0037 9.00988C32.7091 9.11433 33.2186 9.67576 33.3622 10.1589C33.9239 12.0782 31.2853 13.0966 30.2664 14.7286C30.0966 16.4391 31.4812 18.8806 30.3578 20.0427C28.7381 21.7139 26.8571 19.1809 24.8585 18.7892ZM28.3462 17.7839C27.5755 13.1357 27.6278 14.1933 30.4754 11.1381C25.9819 10.2372 27.0138 11.0598 24.8063 6.98611C22.6379 10.8117 23.7351 10.3416 19.111 11.0989C22.0892 14.4153 21.9586 12.9921 21.2794 17.7578C25.59 15.8385 24.0225 15.8385 28.3332 17.7969L28.3462 17.7839Z" fill="#0DB14B"/>
</svg>
