<svg width="81" height="82" viewBox="0 0 81 82" fill="none" xmlns="http://www.w3.org/2000/svg">
<path d="M35.249 70.463C34.9957 71.1089 34.4764 71.4002 33.8178 71.2609C30.1955 70.4883 26.8264 69.1585 23.6981 67.2206C23.1788 66.904 22.9635 66.3467 23.1915 65.7641L25.0153 61.0906C23.2168 59.672 21.6716 58.2282 20.2531 56.417L15.6048 58.3802C15.2755 58.5195 14.5916 58.5321 14.351 58.1648C12.1472 54.9225 10.5893 51.3382 9.7914 47.5132C9.69008 47.0319 10.2854 46.6013 10.6273 46.4493L15.0856 44.5115C14.8323 42.2444 14.7309 40.1166 15.0222 37.7988L10.374 35.937C9.96872 35.7723 9.55076 35.3037 9.65208 34.7464C10.3487 31.0481 11.7672 27.6158 13.705 24.4241C13.9583 24.0061 14.465 23.6768 14.9716 23.8668L19.8224 25.7413C21.2283 23.9428 22.6975 22.3976 24.496 20.9791L22.4949 16.1662C22.2795 15.6596 22.5962 15.1403 23.0015 14.8743C26.1172 12.8478 29.4609 11.3913 33.1212 10.5554C33.7038 10.4161 34.2104 10.758 34.4257 11.2393L36.4142 15.8116C38.6813 15.5582 40.8091 15.4696 43.1269 15.7482L44.9127 11.2647C45.1534 10.6567 45.6347 10.2388 46.3692 10.3907C49.9916 11.138 53.3479 12.5059 56.5016 14.431C56.9196 14.6843 57.2489 15.1909 57.0589 15.6976L55.1844 20.5611C56.9702 21.9543 58.5154 23.4235 59.934 25.2093L64.7468 23.2208C65.2534 23.0182 65.7601 23.3222 66.026 23.7275C68.0652 26.8432 69.509 30.1868 70.3576 33.8472C70.459 34.3158 70.2436 34.8731 69.8257 35.0504L65.1015 37.1275C65.3548 39.3946 65.4434 41.5224 65.1648 43.8402L69.6484 45.626C70.269 45.8794 70.6743 46.348 70.5223 47.1079C69.7877 50.6669 68.4325 53.9599 66.5833 57.063C66.1907 57.7342 65.5954 57.9622 64.8608 57.6709L60.3646 55.8851C58.9461 57.6836 57.5022 59.2287 55.691 60.6473L57.6922 65.4601C57.8948 65.9668 57.5908 66.4734 57.1856 66.7394C54.0699 68.7785 50.7262 70.235 47.0658 71.0709C46.4832 71.1976 45.9766 70.8683 45.774 70.387L43.7855 65.8274C41.5184 66.0808 39.3906 66.1694 37.0728 65.8908L35.249 70.4377V70.463ZM33.4758 68.8545L35.287 64.3329C35.4643 63.7883 36.0216 63.497 36.6295 63.5857C39.1119 63.9276 41.531 63.9403 43.9881 63.497C44.6721 63.3703 45.242 63.573 45.5333 64.2189C46.2173 65.7261 46.7365 67.2206 47.5218 68.7025C50.2829 67.9299 52.7653 66.8913 55.1971 65.3842L53.2846 60.8499C53.0693 60.356 53.1579 59.7987 53.6012 59.4567C55.691 57.8989 57.4895 56.1004 58.984 53.9472C59.326 53.4533 59.8833 53.3013 60.4279 53.5166L64.9875 55.3151C66.4313 52.8454 67.4952 50.2489 68.1158 47.4752L63.6196 45.664C63.075 45.4487 62.733 44.9674 62.8217 44.3088C63.1763 41.8137 63.1763 39.382 62.7457 36.9249C62.619 36.2409 62.8343 35.6837 63.4676 35.3924C64.9621 34.7084 66.4693 34.2018 67.9385 33.4039C67.1913 30.6301 66.1147 28.1604 64.6328 25.7286L60.0859 27.6411C59.6047 27.8437 59.0474 27.7677 58.7054 27.3118C57.1476 25.222 55.3491 23.4235 53.1833 21.929C52.6893 21.587 52.5373 21.0297 52.7526 20.4851L54.5638 15.9255C52.1067 14.469 49.5103 13.4304 46.7365 12.7972L44.9254 17.2934C44.7101 17.8254 44.2288 18.1927 43.5702 18.0913C41.0878 17.724 38.656 17.7367 36.1862 18.1673C35.5023 18.2813 34.945 18.0913 34.6537 17.4454C33.9698 15.9509 33.4505 14.4564 32.6652 12.9745C29.8915 13.7218 27.4217 14.7857 24.99 16.2802L26.9024 20.8271C27.1051 21.3084 27.0291 21.8656 26.5731 22.2076C24.4833 23.7655 22.6848 25.564 21.1903 27.7044C20.8483 28.1984 20.2911 28.3757 19.7465 28.1604L15.1869 26.3365C13.7304 28.8063 12.6791 31.4027 12.0585 34.1638L16.7574 36.0763C17.2134 36.2663 17.4287 36.8109 17.3527 37.3428C17.0107 39.8379 16.998 42.2444 17.4287 44.7141C17.5553 45.4107 17.3527 45.968 16.7067 46.2593C15.2122 46.9432 13.7177 47.4625 12.2358 48.2478C12.9831 51.0215 14.0597 53.4913 15.5542 55.9357L20.0758 54.0106C20.6584 53.7573 21.203 53.9346 21.5829 54.4539C23.1028 56.5057 24.8886 58.2408 26.9784 59.71C27.4344 60.0267 27.6497 60.5713 27.4344 61.0906L25.6106 65.7135C28.0803 67.1447 30.6767 68.2339 33.4758 68.8165V68.8545Z" fill="#0DB14B"/>
<path d="M65.7453 73.9718C66.6572 73.9718 67.0752 74.4911 67.0245 75.2004L67.1385 78.2021L77.2709 70.2355L67.1512 62.2689C66.6825 63.4722 67.8224 66.5372 65.8846 66.5372H58.9313C58.7413 65.7899 58.7413 65.068 58.9059 64.2954L64.8334 64.2448L64.8714 59.8625C64.8714 59.4192 65.1753 59.0266 65.492 58.9126C65.7453 58.8239 66.2266 58.71 66.5812 58.9886L79.6773 69.2729C80.0319 69.5516 80.1966 69.8809 80.1966 70.2102C80.1966 70.5395 80.0699 70.9068 79.728 71.1854L66.6065 81.4951C66.2899 81.7484 65.8973 81.6851 65.606 81.6218C65.3147 81.5584 64.9094 81.2418 64.8967 80.7732L64.808 76.2389L41.5163 76.1883C38.7552 76.1883 36.4501 74.5418 35.1582 72.2367C35.7408 71.6794 36.3614 71.4261 37.1087 71.1854C38.1473 72.8953 39.7304 73.9718 41.7822 73.9718H65.7579H65.7453Z" fill="#0DB14B"/>
<path d="M2.93839 11.4058L13.0454 19.4104C13.4887 18.5111 12.4881 15.1675 14.122 15.1675H21.126C21.24 15.9401 21.2146 16.5733 21.164 17.3713L15.4265 17.4346C15.0592 18.7771 15.9331 22.3361 14.7046 22.7794C14.464 22.8681 13.97 22.9821 13.6154 22.7034L0.531949 12.3937C0.177316 12.1151 0 11.7985 0 11.4565C0 11.1145 0.126655 10.7599 0.481287 10.4812L13.6027 0.184231C13.97 -0.107075 14.464 0.0069146 14.7679 0.120904C15.1099 0.247558 15.3379 0.652853 15.3379 1.12147L15.3885 5.45306H38.2117C41.0108 5.46573 43.4805 6.80827 44.8231 9.13871C44.1011 9.62 43.6198 9.99996 42.9106 10.2153C41.8467 8.67009 40.3268 7.73284 38.427 7.73284H14.3373C13.6914 7.72018 13.2227 7.30222 13.1974 6.71961L13.0834 3.45192L2.93839 11.4058Z" fill="#0DB14B"/>
<path d="M56.6524 40.8389C56.6524 49.9834 49.2431 57.3927 40.0987 57.3927C30.9542 57.3927 23.5449 49.9834 23.5449 40.8389C23.5449 31.6944 30.9542 24.2852 40.0987 24.2852C49.2431 24.2852 56.6524 31.6944 56.6524 40.8389ZM54.4106 40.8389C54.4106 32.9357 48.0019 26.5269 40.0987 26.5269C32.1954 26.5269 25.7867 32.9357 25.7867 40.8389C25.7867 48.7422 32.1954 55.1509 40.0987 55.1509C48.0019 55.1509 54.4106 48.7422 54.4106 40.8389Z" fill="#0DB14B"/>
<path d="M40.9848 50.1716C40.9595 49.7916 39.7563 49.931 39.4523 50.0829L39.3763 52.8567C38.667 52.9327 38.0338 52.9453 37.2992 52.8567L37.1599 50.0069L32.6889 49.9056C32.537 49.1584 32.5496 48.5124 32.6763 47.7905L34.6774 47.6765V33.9725L32.6889 33.8458C32.5496 33.1239 32.537 32.478 32.6889 31.7307L37.0965 31.6674L37.2865 28.7923C38.0084 28.7036 38.6544 28.7163 39.3636 28.7923L39.427 31.566C39.8069 31.7434 40.7442 31.8447 40.9848 31.5154L41.1115 28.805C41.8334 28.7036 42.53 28.729 43.3026 28.805V31.68C45.3544 32.022 46.9629 33.3392 47.5835 35.1124C48.3181 37.1895 47.6722 39.2793 45.9877 40.8245C47.6215 42.3317 48.2801 44.3581 47.6342 46.372C47.0516 48.1958 45.4684 49.6523 43.3406 49.9436L43.2899 52.844C42.5173 52.92 41.8081 52.9327 41.0988 52.844L40.9468 50.1589L40.9848 50.1716ZM43.2266 39.6213C44.8731 39.5959 45.747 37.9494 45.6457 36.5816C45.5444 35.2137 44.4298 33.9725 42.8973 33.9598C40.8455 33.9471 38.9077 33.8965 36.9319 33.9978L36.9825 39.6973L43.2393 39.6213H43.2266ZM43.0746 47.7145C44.6071 47.5878 45.6204 46.296 45.6457 44.8901C45.6584 43.6616 44.8098 42.205 43.3533 42.0784C41.1748 41.8757 39.0977 42.053 36.9192 42.015L36.9825 47.7778C39.1357 47.7272 41.0735 47.8791 43.0746 47.7145Z" fill="#0DB14B"/>
</svg>
