<svg width="105" height="79" viewBox="0 0 105 79" fill="none" xmlns="http://www.w3.org/2000/svg">
<path d="M104.157 15.0363L89.9099 0.823388C88.8931 -0.20086 87.3101 -0.154827 86.2009 0.340035C85.265 0.765846 84.306 1.8016 84.2944 3.1711L84.2598 10.0531L26.5338 10.0992C24.0958 10.0992 22.1084 11.8369 21.1378 13.31C19.6589 15.5887 19.5549 18.2816 20.8721 20.6984C22.0044 22.8044 24.246 24.2085 26.7302 24.3696C27.4581 24.4156 28.1861 24.4041 28.8793 24.3811C29.5495 24.3696 30.2427 24.3466 30.9245 24.3811C24.5002 33.5418 24.5002 45.4185 30.9129 54.5446L20.7103 54.5792L20.6872 48.0079C20.6872 46.6269 19.9593 45.4185 18.7692 44.8776C17.4173 44.2561 15.9152 44.4863 14.9447 45.453L0.836689 59.5623C-0.307201 60.7016 -0.272537 62.8997 0.906016 64.0736L14.9562 78.0908C15.5455 78.6893 16.3428 79 17.1978 79C17.66 79 18.1452 78.9079 18.619 78.7123C19.6011 78.3095 20.6641 77.2392 20.6757 75.8352L20.7103 68.9302L77.9973 68.9071C81.7756 68.9071 84.9877 65.6618 85.0108 61.8295C85.0224 57.9741 82.0067 54.7978 78.1475 54.6137C77.408 54.5792 76.6685 54.5907 75.9406 54.6022C75.2935 54.6022 74.6696 54.6252 74.0456 54.6022C80.4584 45.476 80.4815 33.6108 74.0919 24.4502L84.2713 24.3926L84.3176 31.2977C84.3176 32.7822 85.4614 33.8525 86.5013 34.2208C87.8417 34.6926 89.182 34.3934 90.1641 33.4152L104.168 19.4325C105.277 18.3277 105.277 16.1526 104.168 15.0478L104.157 15.0363ZM87.7492 22.6318C87.7492 21.8147 87.1368 20.9401 86.1431 20.9401H71.1686L70.9837 20.756C69.8514 19.7547 68.7884 18.7995 67.5174 17.9249C64.0857 15.5657 60.2612 14.1041 56.3673 13.5287H85.9005C87.0097 13.5287 87.7608 12.8036 87.7608 11.7103V3.59691L101.407 17.1768C101.43 17.1999 101.441 17.2114 101.453 17.2229L87.7723 30.8488V22.6318H87.7492ZM67.7138 60.9088C67.7947 60.8512 67.8871 60.7822 67.968 60.7131C68.1529 60.5635 68.3146 60.4369 68.5111 60.3794L68.6728 60.3334L68.7768 60.1953C68.927 59.9996 69.135 59.827 69.3545 59.6544C69.4932 59.5393 69.6319 59.4242 69.7589 59.3091L71.0646 58.0892H77.7662C79.7766 58.0892 81.4174 59.6544 81.5098 61.6453C81.556 62.612 81.1516 63.6363 80.4353 64.3843C79.7651 65.0863 78.887 65.4776 77.9857 65.4776H56.3789C60.3421 64.8907 64.2244 63.3831 67.7023 60.9318L67.7138 60.9088ZM52.4851 62.2553C39.8792 62.2553 29.6304 52.0473 29.6304 39.4916C29.6304 26.936 39.8792 16.728 52.4851 16.728C65.091 16.728 75.3397 26.936 75.3397 39.4916C75.3397 52.0473 65.091 62.2553 52.4851 62.2553ZM33.8824 20.9056C32.9927 20.8941 32.1146 20.9056 31.2364 20.9171C29.7344 20.9401 28.1861 20.9631 26.6493 20.8365C24.9277 20.6869 23.5412 19.1448 23.4718 17.3264C23.4372 16.3482 23.8416 15.324 24.5464 14.599C25.1819 13.943 26.0023 13.5747 26.8573 13.5747L48.6836 13.5172C43.2415 14.3112 38.0304 16.7971 33.894 20.9056H33.8824ZM17.2324 67.1694V75.3979L3.52887 61.7604C3.54043 61.7489 3.55198 61.7259 3.57509 61.7144L17.2209 48.1345V56.1098C17.2209 56.6277 17.3364 57.0765 17.5675 57.4908L17.66 57.6519L17.8333 57.721C18.307 57.9281 18.7461 58.0662 19.2429 58.0777L33.8708 58.0432C37.9958 62.1632 43.1837 64.6605 48.5912 65.4661H18.9656C17.9373 65.4776 17.244 66.1566 17.244 67.1579L17.2324 67.1694Z" fill="#0DB14B"/>
<path d="M61.2202 39.4913L65.8189 33.1847C66.4775 32.2871 66.5122 31.4584 65.9113 30.6644C65.5531 30.2961 64.9523 30.0774 64.4093 30.112C63.9586 30.1465 63.5773 30.3421 63.3347 30.6759L59.0595 36.5106L54.9346 30.8255C54.6342 30.4342 54.1836 30.1695 53.6867 30.1235C53.2014 30.0774 52.7277 30.2155 52.3695 30.5378C51.6647 31.1477 51.5723 32.1374 52.15 32.9315L56.8989 39.4798L52.0576 46.1892C51.7918 46.546 51.7109 47.0063 51.8034 47.4666C51.9073 47.9615 52.2078 48.3873 52.6122 48.629C52.901 48.8016 53.2014 48.8707 53.5134 48.8707C54.0911 48.8707 54.6342 48.583 54.9808 48.0766L56.9797 45.3606C57.2455 44.9923 57.5113 44.6241 57.7655 44.2558C58.1699 43.6689 58.5974 43.0704 59.0711 42.472L63.1267 48.0536C63.7275 48.8822 64.7212 49.1008 65.5531 48.5945C65.946 48.3528 66.2349 47.9385 66.3388 47.4666C66.4313 46.9948 66.3388 46.5114 66.0384 46.1202L61.2318 39.4913H61.2202Z" fill="#0DB14B"/>
<path d="M49.9316 33.565C50.7982 33.3579 51.3297 32.7019 51.3181 31.8503C51.3181 31.0332 50.7404 30.1585 49.8276 30.147L40.2952 30.124C39.8561 30.124 39.4633 30.2851 39.1629 30.5844C38.8278 30.9181 38.6313 31.4015 38.6313 31.9193V47.0529C38.6313 48.0311 39.29 48.7907 40.2028 48.8597C40.249 48.8597 40.2952 48.8597 40.3414 48.8597C40.8151 48.8597 41.2773 48.6871 41.6008 48.3879C41.9128 48.1002 42.0746 47.7204 42.0746 47.2946L42.1092 41.7936L49.8623 41.736C50.2205 41.736 50.544 41.5979 50.7982 41.3332C51.1795 40.9419 51.3066 40.3665 51.3066 39.9522C51.295 39.1351 50.7173 38.4791 49.8738 38.3295L42.1208 38.3065L42.0977 33.5765H49.8045L49.9316 33.5535V33.565Z" fill="#0DB14B"/>
</svg>
