<svg width="93" height="68" viewBox="0 0 93 68" fill="none" xmlns="http://www.w3.org/2000/svg">
<path d="M46.6208 44.0885L52.7508 57.8178L76.2453 57.8558C76.8785 55.8293 75.156 51.4978 78.1324 51.4091C79.6903 51.3711 81.1848 51.4851 82.7933 51.3458V41.8593C80.7035 41.3274 76.3973 42.9359 76.3973 40.1748L76.3593 27.598C76.3593 24.495 80.3362 26.1795 82.7933 25.6349V16.1485C81.1848 16.0091 79.6903 16.1231 78.1324 16.0851C75.1687 15.9965 76.8785 11.6902 76.2453 9.65108L52.7382 9.67641L46.7601 23.1525C46.4688 23.8111 45.8735 24.077 45.1389 24.115H40.6047C39.5788 24.1024 39.0215 23.2918 39.0215 22.5065C39.0215 19.8721 42.0359 21.2906 44.2523 20.86L50.1924 7.49795C50.4331 6.94067 50.9397 6.44672 51.5983 6.44672L76.3339 6.42139L76.3846 1.60851C76.3846 0.607942 77.1445 0 78.1198 0H90.6839C91.6085 0 92.4064 0.607942 92.4064 1.60851L92.4317 14.1853C92.4317 17.377 88.5181 15.5785 85.9977 16.1611V25.6349C87.9482 26.1415 92.3937 24.6343 92.4064 27.3067L92.4317 39.8962C92.4317 40.6688 92.0138 41.7327 91.1905 41.758L85.9977 41.872V51.3458C87.9355 51.8651 92.4064 50.3452 92.4064 53.0303V65.8857C92.4064 67.1016 91.4058 67.5576 90.3926 67.5576H78.3731C77.2965 67.5576 76.3846 67.1143 76.3719 65.8857L76.3213 61.0855H52.1429C51.3196 61.0982 50.6357 61.0095 50.2684 60.1736L44.2397 46.6595L40.6047 46.5962C39.6041 46.5962 39.0215 45.849 39.0215 45.0004C39.0215 44.1518 39.6041 43.4172 40.6047 43.4172H45.1642C45.6075 43.4172 46.3801 43.5438 46.6334 44.1011L46.6208 44.0885ZM89.2147 3.22969H79.5763V12.8554H89.2147V3.22969ZM89.2147 28.9406H79.5763V38.5663H89.2147V28.9406ZM89.2147 54.6515H79.5763V64.2772H89.2147V54.6515Z" fill="#0DB14B"/>
<path d="M69.09 35.3743L63.4412 42.4922C62.846 43.2395 61.4781 43.8348 60.7435 42.8975L53.1822 29.8141L48.192 34.7536C47.4954 35.4376 46.4948 35.6022 45.8236 34.9436C45.2156 34.361 45.0383 33.2845 45.7476 32.5752L52.169 26.1665C52.9669 25.3685 54.0815 25.6219 54.7401 26.4704L61.9214 39.0979C63.9858 36.7928 65.417 34.4497 67.4688 32.4359C68.2288 31.6759 69.85 32.3345 70.7999 32.0939C71.8384 32.0432 72.7123 32.2459 72.991 33.0945C73.2696 33.9431 72.991 35.0829 71.9271 35.2856C71.0785 35.4502 70.2679 35.2856 69.1154 35.3616L69.09 35.3743Z" fill="#0DB14B"/>
<path d="M38.579 33.7426C38.579 44.3943 29.9411 53.0321 19.2895 53.0321C8.63784 53.0321 0 44.4069 0 33.7426C0 23.0783 8.63784 14.4531 19.2895 14.4531C29.9411 14.4531 38.579 23.091 38.579 33.7426ZM35.3366 33.7426C35.3366 24.8768 28.1553 17.6955 19.2895 17.6955C10.4237 17.6955 3.24236 24.8768 3.24236 33.7426C3.24236 42.6084 10.4237 49.7898 19.2895 49.7898C28.1553 49.7898 35.3366 42.6084 35.3366 33.7426Z" fill="#0DB14B"/>
<path d="M21.1903 43.3053C20.443 43.9639 21.6969 46.7123 19.3918 46.9403C18.4799 47.0289 17.682 46.231 17.682 45.1544C17.682 44.4452 17.7833 43.7992 17.492 43.1153H13.1477C12.0712 43.1153 11.3112 42.52 11.2859 41.5068C11.2606 40.6962 11.8812 39.835 12.9324 39.835L21.9502 39.8096C23.3181 39.8096 24.2173 38.6444 24.0907 37.4412C23.774 34.3635 19.8857 35.6807 16.1241 35.3007C12.9704 34.9841 10.9946 32.2357 11.3239 29.31C11.6532 26.3842 14.123 24.3704 17.302 24.3071C18.2392 24.2818 16.808 20.6975 19.2018 20.5835C20.1137 20.5455 20.9117 21.2674 20.9117 22.382C20.9117 23.0912 20.8103 23.7245 21.089 24.4211H25.4459C26.5224 24.4211 27.2824 25.0037 27.3077 26.0169C27.333 26.8402 26.6998 27.6761 25.6612 27.6888L16.3648 27.7648C15.0855 27.7648 14.4396 29.0313 14.5283 30.0952C14.6043 31.0958 15.4402 32.1344 16.6561 32.1344H21.6589C24.7746 32.1344 27.2064 34.4521 27.3457 37.4159C27.485 40.3796 25.1419 42.862 22.0895 43.1153C21.7096 43.1406 21.3676 43.166 21.1903 43.318V43.3053Z" fill="#0DB14B"/>
</svg>
