<svg width="80" height="68" viewBox="0 0 80 68" fill="none" xmlns="http://www.w3.org/2000/svg">
<path d="M2.65975 17.1364L2.63442 62.0861H48.7494C49.5599 62.0861 50.0792 62.5927 50.1932 63.2006C50.2819 63.6439 50.0412 64.7078 49.2306 64.7078H1.22855C0.531949 64.7205 0 64.1505 0 63.4286V1.29188C0 0.55728 0.531949 0 1.24121 0H68.6848C69.5334 0 70.0653 0.55728 70.0653 1.34254V38.845C70.0653 39.7062 69.5207 40.2002 68.8494 40.2508C68.1782 40.3015 67.4309 39.8835 67.4309 39.0476L67.3929 17.1237H2.65975V17.1364ZM67.4182 2.64708H2.63442V14.4893H67.4056V2.64708H67.4182Z" fill="#0DB14B"/>
<path d="M59.2613 65.999C59.2613 66.9109 58.628 67.3416 58.0327 67.3669C57.2855 67.3922 56.6775 66.9996 56.6649 66.151L56.5889 60.5022C55.3983 60.1856 52.4473 61.1102 52.4473 59.1344V47.9254C52.4473 45.9116 55.3857 46.9755 56.5889 46.5702L56.6649 40.8961C56.6649 40.1362 57.1715 39.7435 57.7921 39.6929C58.4127 39.6422 59.198 39.9462 59.2106 40.7441L59.3373 46.6082C60.5532 46.8869 63.4156 45.9749 63.4282 47.8874L63.4535 58.9317C63.4535 61.1355 60.8445 60.2109 59.3373 60.4769L59.2613 65.999ZM60.8065 49.2806H55.0943V57.7792H60.8065V49.2806Z" fill="#0DB14B"/>
<path d="M75.1304 65.999C75.1304 66.9109 74.4971 67.3416 73.9019 67.3669C73.1546 67.3922 72.5467 66.9996 72.534 66.151L72.458 60.5022C71.2675 60.1856 68.3164 61.1102 68.3164 59.1344V47.9254C68.3164 45.9116 71.2548 46.9755 72.458 46.5702L72.534 40.8961C72.534 40.1362 73.0406 39.7435 73.6612 39.6929C74.2818 39.6422 75.0671 39.9462 75.0798 40.7441L75.2064 46.6082C76.4223 46.8869 79.2847 45.9749 79.2974 47.8874L79.3227 58.9317C79.3227 61.1355 76.7009 60.2109 75.2064 60.4769L75.1304 65.999ZM76.6756 49.2806H70.9635V57.7792H76.6756V49.2806Z" fill="#0DB14B"/>
<path d="M51.7136 36.4766C50.9917 37.1352 50.1937 37.1478 49.6491 36.5146C48.5472 35.248 50.3077 34.3868 50.5484 33.7788L38.2249 33.7408C37.351 33.7408 36.743 33.1836 36.7683 32.3603C36.7937 31.651 37.3636 31.0938 38.2502 31.0938H54.082C54.7153 31.0938 55.1839 31.4104 55.3866 31.8283C55.6145 32.3096 55.5639 32.9429 55.1333 33.3482L51.7262 36.4639L51.7136 36.4766Z" fill="#0DB14B"/>
<path d="M52.2706 24.5722C53.2078 24.5722 53.8031 24.9649 53.8791 25.6615C53.9551 26.2694 53.7271 27.194 52.8532 27.194L36.5401 27.2193C35.9068 27.2193 35.4635 26.8647 35.2735 26.3961C35.1089 25.9781 35.1215 25.3828 35.5522 24.9902L39.1998 21.6845C39.7698 21.1652 40.6057 21.2919 41.049 21.7985C42.2015 23.0904 40.327 23.939 40.2131 24.5469L52.2579 24.5722H52.2706Z" fill="#0DB14B"/>
<path d="M24.9753 10.576H7.94025C7.117 10.5633 6.63571 9.86674 6.62305 9.28413C6.62305 8.57486 7.079 7.92892 7.94025 7.94159L25.4439 7.97959C26.2165 7.97959 26.4318 8.98016 26.3685 9.47411C26.2798 10.0947 25.7479 10.5887 24.9753 10.5887V10.576Z" fill="#0DB14B"/>
<path d="M33.0439 38.9712C33.0439 46.6338 26.8252 52.8525 19.1626 52.8525C11.5 52.8525 5.28125 46.6338 5.28125 38.9712C5.28125 31.3086 11.5 25.0898 19.1626 25.0898C26.8252 25.0898 33.0439 31.3086 33.0439 38.9712ZM30.3969 38.9712C30.3969 32.7651 25.3687 27.7369 19.1626 27.7369C12.9565 27.7369 7.92833 32.7651 7.92833 38.9712C7.92833 45.1773 12.9565 50.2054 19.1626 50.2054C25.3687 50.2054 30.3969 45.1773 30.3969 38.9712Z" fill="#0DB14B"/>
<path d="M19.1107 48.4942C17.5909 48.4308 17.8822 46.7843 17.7428 45.8091L14.1965 45.6824C13.4619 45.6571 13.2593 44.7452 13.3353 44.2386C13.4493 43.4533 14.0572 43.0987 14.8805 43.0987H20.8965C21.8085 43.0987 22.4037 42.5034 22.3784 41.7308C22.3404 39.6537 19.6173 40.4643 16.9956 40.2616C14.9691 40.1096 13.4366 38.5898 13.3353 36.5886C13.1959 33.8656 15.0451 32.0671 17.7049 32.1811C17.9708 31.1932 17.4389 29.9013 18.7687 29.534C19.3387 29.382 20.3139 29.5593 20.3773 30.3446L20.5166 32.1557L24.0376 32.2571C24.7468 32.2824 25.0382 32.9917 25.0255 33.5616C25.0128 34.1315 24.5062 34.8028 23.7589 34.8028L17.5402 34.8281C16.6789 34.8281 16.0583 35.2334 15.9697 36.006C15.881 36.7786 16.375 37.6019 17.2996 37.6145L21.1879 37.6399C23.5563 37.6652 25.1775 39.6917 25.0128 41.9335C24.8482 44.1753 22.9737 45.9611 20.5292 45.7204L20.3899 47.5569C20.3393 48.1902 19.6553 48.4688 19.1234 48.4562L19.1107 48.4942Z" fill="#0DB14B"/>
</svg>
