<svg width="88" height="72" viewBox="0 0 88 72" fill="none" xmlns="http://www.w3.org/2000/svg">
<path d="M62.033 8.33387C62.033 12.9314 58.3093 16.6677 53.6991 16.6677C49.0889 16.6677 45.3652 12.9441 45.3652 8.33387C45.3652 3.72364 49.0889 0 53.6991 0C58.3093 0 62.033 3.72364 62.033 8.33387ZM60.1838 8.33387C60.1838 4.74955 57.2834 1.84916 53.6991 1.84916C50.1148 1.84916 47.2144 4.74955 47.2144 8.33387C47.2144 11.9182 50.1148 14.8186 53.6991 14.8186C57.2834 14.8186 60.1838 11.9182 60.1838 8.33387Z" fill="#0DB14B"/>
<path d="M53.6609 13.3636C52.4957 13.4016 53.3696 12.4011 52.2677 11.9324C51.3558 11.5398 50.8745 10.5899 51.0771 9.74132C51.1531 9.39935 51.6091 9.28537 51.8751 9.32336C52.6857 9.41202 52.3437 10.5139 52.901 10.8179C53.5342 11.1599 54.5855 10.8179 54.8008 10.3619C55.4467 8.95606 51.6471 8.95606 51.1278 7.28422C50.8238 6.29632 51.4951 5.20709 52.521 4.75113C53.5469 4.29517 52.6477 3.42126 53.6736 3.3326C54.1422 3.2946 54.4841 3.49725 54.4841 3.9912C54.4841 4.99177 56.5866 4.78913 56.346 6.82827C56.308 7.20823 55.9913 7.38555 55.6114 7.38555C54.5728 7.36022 55.2694 6.14433 54.2942 5.80236C53.8255 5.63771 53.3569 5.70104 52.9896 5.95435C52.6223 6.20766 52.331 6.82827 52.7743 7.17023C53.5722 7.77818 56.46 8.12014 56.2953 10.2606C56.232 11.0712 55.586 11.7298 54.5601 12.0718C54.1675 12.1984 54.6361 13.3383 53.6482 13.3763L53.6609 13.3636Z" fill="#0DB14B"/>
<path d="M45.2384 53.46L45.1877 66.3661C46.2516 65.9735 47.3662 62.6172 49.038 64.0863C49.4053 64.4157 49.646 65.2896 49.228 65.8215L45.0104 71.217C44.7064 71.6096 44.3138 71.8249 43.9338 71.8629C43.4525 71.9009 42.9839 71.673 42.6293 71.217L38.4117 65.8215C37.9937 65.2896 38.2344 64.4157 38.6017 64.0863C39.083 63.6684 39.8556 63.7317 40.4002 64.0863L42.3887 66.3408L42.4646 53.4727C36.4865 53.1181 31.281 50.8763 26.7721 47.0006L17.8177 55.9551C18.3623 56.7531 21.7566 54.8659 22.0099 57.1077C22.1112 58.0323 21.4906 58.5135 20.5661 58.6275L13.9294 59.4001C13.1188 59.4888 12.3588 58.8429 12.4475 58.0449L13.2074 51.2562C13.2961 50.4457 13.7267 49.939 14.398 49.8504C15.1832 49.7491 15.8798 50.3063 15.8798 51.2182C15.9812 52.1935 15.4492 53.0294 15.7405 54.1566L24.8723 45.0755C20.9714 40.6299 18.8182 35.4244 18.3496 29.4337L5.58283 29.4083C5.97546 30.6242 8.98983 31.3335 7.87527 33.1066C7.59663 33.5373 6.64673 33.9426 6.05145 33.4613L0.364658 28.9904C-0.306611 28.4584 0.0480215 27.3692 0.630633 26.9006L6.05145 22.645C6.60873 22.2017 7.41932 22.4677 7.74862 22.8476C9.24314 24.5321 5.91213 25.596 5.58283 26.6726L19.5782 26.7233C20.4267 26.7233 21.022 27.2932 21.0347 28.1798C21.136 40.7566 31.319 50.7496 43.6679 50.8256C56.0167 50.9016 66.3264 40.9972 66.567 28.4331C66.567 27.8758 66.6683 27.4198 67.0103 27.0905C67.2763 26.8372 67.7576 26.7106 68.2895 26.7106L82.0189 26.6726C81.5882 25.4567 78.6119 24.7348 79.7391 22.9869C80.0304 22.531 80.9296 22.1637 81.5502 22.645L86.8317 26.7612C87.4777 27.2552 87.9843 28.3444 87.237 28.9777C85.3752 30.5482 83.4881 31.9921 81.5502 33.4739C80.993 33.9046 80.1697 33.6386 79.8404 33.2713C79.3591 32.7267 79.4224 31.8908 79.9671 31.3715C80.5243 30.7002 81.2843 30.6622 81.9555 29.5097L69.2521 29.4463C68.7708 35.4498 66.6303 40.6426 62.7294 45.1008L71.8612 54.182C72.1525 53.0421 71.6205 52.2188 71.7219 51.2436C71.7219 50.5216 72.1525 50.015 72.7224 49.901C73.2924 49.7871 74.141 50.0784 74.2803 50.8129C74.5209 52.1048 75.4582 58.2349 74.8882 58.9442C74.4576 59.4761 73.8117 59.4888 73.1024 59.3875C70.7466 59.0328 68.4415 59.0835 66.1997 58.3996C65.6298 58.2222 65.5411 57.3483 65.6424 56.9557C65.7818 56.4491 66.2377 55.9931 66.871 56.0058C67.8082 55.8285 68.4035 56.4617 69.7714 56.0438L60.8676 47.0133C56.3966 50.7876 51.3431 53.1561 45.2257 53.46H45.2384Z" fill="#0DB14B"/>
<path d="M71.6456 12.6263C71.101 11.6511 70.2018 10.9418 69.1252 10.6378C68.036 10.3339 66.8961 10.4732 65.9082 11.0305C64.9203 11.5877 64.1983 12.525 63.907 13.6016C63.6411 14.6275 63.7804 15.704 64.2997 16.6539L56.941 24.4052C55.5985 23.6453 54.142 23.7339 52.8881 24.6458L45.6561 18.7057C45.8841 17.1479 45.3141 15.78 44.0983 15.0201C42.8317 14.2222 41.1852 14.3235 40.0073 15.2607C38.9181 16.1346 38.4621 17.5278 38.8041 18.8577L31.6101 24.8358C29.9636 24.0506 28.1144 24.5572 27.0885 26.077C26.126 27.5082 26.3666 29.408 27.6458 30.5986C28.3298 31.2319 29.191 31.5485 30.0396 31.5485C30.8375 31.5485 31.6481 31.2699 32.3194 30.6999C33.6113 29.598 33.9406 27.8755 33.1806 26.267L39.9566 20.7069C41.4132 21.8721 43.3257 21.8088 44.7315 20.5549L51.7609 26.381C51.3049 27.9768 51.8242 29.522 53.1541 30.4339C54.4713 31.3332 56.2318 31.2319 57.435 30.1806C58.6255 29.1547 58.9802 27.5842 58.3722 26.0644L65.7689 18.1864C67.0987 19.035 68.6186 19.111 69.9738 18.3638C70.9744 17.8191 71.6963 16.9199 72.0129 15.8307C72.3296 14.7541 72.1902 13.6142 71.6456 12.6136V12.6263ZM70.1004 14.8428C70.1004 16.008 69.1505 16.9706 67.9726 16.9706C66.7948 16.9706 65.8448 16.0207 65.8448 14.8428C65.8448 13.6649 66.7948 12.715 67.9726 12.715C69.1505 12.715 70.1004 13.6649 70.1004 14.8428ZM56.5991 27.5842C56.5991 28.3821 55.9531 29.0281 55.1552 29.0281C54.3573 29.0281 53.7113 28.3821 53.7113 27.5842C53.7113 26.7863 54.3573 26.1404 55.1552 26.1404C55.9531 26.1404 56.5991 26.7863 56.5991 27.5842ZM43.693 18.0091C43.693 18.8071 43.047 19.453 42.2364 19.453C41.4258 19.453 40.7799 18.8071 40.7799 18.0091C40.7799 17.2112 41.4258 16.5653 42.2364 16.5653C43.047 16.5653 43.693 17.2112 43.693 18.0091ZM30.0776 29.446C29.2797 29.446 28.6337 28.8001 28.6337 28.0022C28.6337 27.2043 29.2797 26.5583 30.0776 26.5583C30.8755 26.5583 31.5215 27.2043 31.5215 28.0022C31.5215 28.8001 30.8755 29.446 30.0776 29.446Z" fill="#0DB14B"/>
</svg>
