<svg width="141" height="36" viewBox="0 0 141 36" fill="none" xmlns="http://www.w3.org/2000/svg">
<g clip-path="url(#clip0_56140_7775)">
<path d="M82.2897 24.8937C82.2897 26.1403 83.2411 26.8432 84.74 26.8432C86.4544 26.8432 88.2585 25.6248 88.2585 23.5815V22.813C88.2585 22.813 82.2897 21.9601 82.2897 24.8937ZM78.5378 18.0142C78.816 15.7929 80.7189 12.7188 85.7184 12.7188C90.7179 12.7188 92.2617 14.8557 92.4771 17.8268C92.54 18.6891 92.5669 19.4857 92.5669 20.4511V30.0392H88.8779L88.3932 27.7805H88.1688C87.5494 29.1676 85.6825 30.4891 83.3308 30.4891C80.3599 30.4891 78.0352 28.7271 78.0352 25.4373C78.0352 21.2197 81.1228 19.6826 87.3699 19.6826H88.2585V19.0733C88.2585 17.4144 87.7379 16.3553 85.5389 16.3553C83.6091 16.3553 82.909 17.1051 82.6756 18.0049" fill="#FDFDFF"/>
<path d="M78.0351 12.9919L77.1734 17.3876C75.6655 16.7597 73.8973 17.0877 72.9638 18.0625C71.7072 19.384 71.7521 21.6428 71.7521 22.73V30.05H67.3809V13.17H71.6264L71.0699 15.8224H71.2943C72.4611 13.4512 75.0731 12.692 78.0351 12.9919Z" fill="#FDFDFF"/>
<path d="M141 12.9919L140.138 17.3876C138.63 16.7597 136.862 17.0877 135.929 18.0625C134.672 19.384 134.717 21.6428 134.717 22.73V30.05H130.346V13.17H134.591L134.035 15.8224H134.259C135.426 13.4512 138.038 12.692 141 12.9919Z" fill="#FDFDFF"/>
<path d="M70.2085 6.04688L69.3379 10.1427H63.0639V30.0406H58.4952V10.1427H51.8711V6.04688H70.2175H70.2085Z" fill="#FDFDFF"/>
<path d="M98.9301 21.2459C98.9301 24.217 100.034 26.3258 102.664 26.3258C104.836 26.3258 106.371 25.0512 106.371 21.3115V20.7023C106.371 17.0282 104.54 15.941 102.763 15.941C100.16 15.941 98.939 17.8905 98.939 21.2459H98.9301ZM110.706 6.38102L110.688 30.0467H106.82L106.335 27.7598H106.111C105.536 29.1751 103.849 30.4966 101.434 30.4966C96.5694 30.4966 94.4512 26.2883 94.4512 21.2178C94.4512 15.6224 97.2426 12.4263 101.73 12.4263C103.759 12.4263 105.437 13.476 106.254 15.0319H106.371L106.389 5.5L110.715 6.38102H110.706Z" fill="#FDFDFF"/>
<path d="M117.233 19.7872H123.902C123.66 17.3316 122.43 16.3662 120.599 16.3662C118.669 16.3662 117.511 17.2566 117.233 19.7872ZM120.788 12.7203C126.083 12.7203 128.309 16.3287 128.309 21.3149C128.309 21.7929 128.282 22.4303 128.246 22.9739H117.197C117.476 25.8138 118.696 26.8073 120.716 26.8073C122.403 26.8073 123.346 26.1324 123.776 24.8953H128.031C127.448 28.4381 124.818 30.4813 120.626 30.4813C115.429 30.4813 112.736 27.5102 112.736 21.6898C112.736 16.1975 115.276 12.7109 120.788 12.7109V12.7203Z" fill="#FDFDFF"/>
<path d="M48.379 12.7188C53.5221 12.7188 55.4159 15.3056 55.7211 19.0452H51.3769C51.2243 17.2832 50.0574 16.3928 48.3161 16.3928C46.0812 16.3928 44.8605 18.0236 44.8605 21.5383C44.8605 25.053 45.9645 26.7776 48.2892 26.7776C49.9407 26.7776 51.1704 25.7279 51.3769 24.1533H55.7211C55.2903 27.9866 52.8758 30.4797 48.1007 30.4797C42.7153 30.4797 40.3008 27.2556 40.3008 21.6321C40.3008 16.0085 42.7153 12.7188 48.379 12.7188Z" fill="#FDFDFF"/>
<path d="M17.2334 2.89612C24.9526 2.89612 31.2895 9.25072 31.6754 17.2174C31.6844 17.4798 31.6934 17.7423 31.6934 18.0047C31.6934 25.737 25.9938 28.5957 22.933 29.0081C18.1041 29.6548 14.0291 26.9367 14.0291 21.6037C14.0291 16.5519 19.3786 12.175 26.1553 14.3306L27.0349 10.2067C24.5756 8.96017 21.9367 8.39781 19.3607 8.39781C9.44249 8.39781 3.23127 16.1021 3.80572 23.094C3.75186 23.1221 3.68006 23.169 3.60825 23.2065C3.15049 21.6412 2.90814 19.9073 2.90814 18.0047C2.92609 9.67248 9.26297 2.89612 17.2334 2.89612ZM17.2334 0C7.72812 0 0 8.06977 0 17.9953C0 27.9209 7.72812 35.9906 17.2334 35.9906C26.7388 35.9906 34.4669 27.9209 34.4669 17.9953C34.4669 8.06977 26.7388 0 17.2334 0Z" fill="#FF0000"/>
</g>
<defs>
<clipPath id="clip0_56140_7775">
<rect width="141" height="36" fill="white"/>
</clipPath>
</defs>
</svg>
