<svg width="80" height="75" viewBox="0 0 80 75" fill="none" xmlns="http://www.w3.org/2000/svg">
<path d="M5.16591 38.7566L15.0093 38.7329L15.0924 34.4227C15.2349 33.7696 15.793 33.3659 16.4698 33.3659L26.325 33.3303L26.3607 23.7007C26.3607 22.9051 26.9187 22.442 27.6786 22.3352L38.9944 22.3589C39.7543 22.3589 40.3005 22.9764 40.3124 23.6888L40.348 28.557H48.9328L48.9565 14.5103C48.9565 13.6792 49.6452 13.1211 50.4407 13.1211H61.5665C62.3502 13.1805 62.9438 13.7623 62.9438 14.6172V47.4245C70.2819 48.8137 76.4919 53.4208 79.8165 60.0939C80.0421 60.5569 80.0421 60.9369 79.9115 61.4C75.542 70.4716 66.0548 75.6604 55.9977 74.4612C48.3391 73.5469 41.7847 68.9992 38.1632 62.1599H1.44941C0.475762 62.1599 -0.0229375 61.5543 0.000810136 60.7351C0.072053 58.8827 2.60117 59.7614 3.70544 59.3696L3.74106 40.0628C3.74106 39.3147 4.3585 38.7448 5.17779 38.7448L5.16591 38.7566ZM60.2722 47.1039V15.8283H51.6162V48.2319C54.4541 47.3058 57.1851 46.9733 60.2722 47.1039ZM37.6526 25.0186H29.0323V59.512H37.6526V25.0186ZM48.9684 49.2293L48.9328 31.2643H40.3124L40.3599 56.0805C42.8771 53.029 45.6437 50.9392 48.9684 49.2293ZM26.3488 36.0375H17.7165V59.512H26.3488V36.0375ZM15.0568 41.4045H6.38892V59.5239H15.0568V41.4045ZM77.2162 60.8063C73.3572 53.7889 66.2448 49.6568 58.5743 49.7518C50.9038 49.8468 44.0764 54.0738 40.4786 60.8538C44.0645 67.8118 51.165 71.9795 58.8118 71.9914C66.4466 71.9914 73.6184 67.8356 77.2043 60.8182L77.2162 60.8063Z" fill="#0DB14B"/>
<path d="M32.843 9.7009L11.482 31.0262C10.9714 31.5368 10.0215 31.1925 9.72469 30.8363C9.29723 30.3376 9.22599 29.5302 9.83156 28.9365L31.7506 7.01742C32.3324 6.53059 32.9499 6.60184 33.5317 6.96992L42.6151 12.7643L52.5891 2.77847C51.6867 2.39851 48.9439 3.25342 48.9795 1.28237C48.9795 0.676807 49.4782 0 50.2381 0H55.9969C56.745 0 57.3149 0.641185 57.303 1.38924V6.9818C57.2793 7.82484 56.6143 8.26417 55.9257 8.26417C53.9784 8.24042 54.9639 5.74692 54.4771 4.70203L43.9094 15.246C43.4463 15.7684 42.6745 15.9821 42.0452 15.5784L32.843 9.7009Z" fill="#0DB14B"/>
<path d="M67.2307 60.8634C67.2307 65.4942 63.4785 69.2463 58.8478 69.2463C54.217 69.2463 50.4648 65.4942 50.4648 60.8634C50.4648 56.2326 54.217 52.4805 58.8478 52.4805C63.4785 52.4805 67.2307 56.2326 67.2307 60.8634ZM64.559 60.8634C64.559 57.7049 62.0062 55.1521 58.8478 55.1521C55.6893 55.1521 53.1364 57.7049 53.1364 60.8634C53.1364 64.0218 55.6893 66.5747 58.8478 66.5747C62.0062 66.5747 64.559 64.0218 64.559 60.8634Z" fill="#0DB14B"/>
</svg>
