<svg width="74" height="71" viewBox="0 0 74 71" fill="none" xmlns="http://www.w3.org/2000/svg">
<path d="M45.2663 67.3422C46.2669 67.7095 47.2168 67.3802 48.1921 67.5069C49.028 67.6209 49.5093 68.2668 49.4459 69.0141C49.3953 69.6854 48.838 70.306 47.9768 70.306H25.4956C24.7103 70.2933 24.2544 69.5587 24.2037 69.0267C24.1404 68.2668 24.6343 67.6082 25.4829 67.5069C26.4581 67.3929 27.3701 67.6209 28.396 67.3929V56.26L4.19227 56.2346C1.87449 56.2346 0 54.3981 0 52.0044V4.24293C0 1.84916 1.84916 0 4.2176 0H69.4447C71.8258 0 73.6623 1.84916 73.6623 4.24293L73.7003 51.4978C73.7003 53.9295 72.2818 56.222 69.66 56.222L31.043 56.108V67.3169L42.4419 67.4816V60.4776C42.5433 59.629 43.1259 59.1097 43.8605 59.1097C44.5444 59.1097 45.241 59.629 45.241 60.4776V67.3549L45.2663 67.3422ZM9.34711 46.1909C8.33387 46.1909 7.87791 45.6843 7.87791 44.9244C7.87791 44.1645 8.33387 43.6832 9.34711 43.6832H71.3065V3.87563C71.3065 2.92572 70.6479 2.4571 69.7107 2.4191H3.69831C2.79907 2.59642 2.4571 3.02704 2.35578 3.8883V52.1817C2.4571 53.0429 2.79907 53.4862 3.69831 53.6509H69.6853C70.6479 53.6509 71.2685 53.0936 71.2685 52.2323V46.1909H9.33444H9.34711Z" fill="#0DB14B"/>
<path d="M56.3739 34.5144C56.0446 35.7936 56.9058 38.2 55.0313 38.4407C54.3094 38.5293 53.5495 38.0734 53.4735 37.1868C53.3848 36.2495 53.5495 35.3756 53.3722 34.489L51.5863 34.451C50.7504 34.4384 50.1171 33.8811 50.1171 33.0198L50.0918 17.302C50.0918 16.2001 50.7757 15.5415 51.9156 15.5922C52.2829 15.6048 53.0808 15.7695 53.3088 15.4275C53.7648 14.4903 52.7769 11.9445 54.588 11.6532C55.386 11.5266 56.2219 11.9952 56.2472 12.9071L56.3105 15.4528C56.9565 15.8455 59.5909 15.0349 59.5909 17.036V33.0578C59.5909 33.8304 59.0336 34.4004 58.3243 34.4257L56.3612 34.5144H56.3739ZM57.1211 18.0493H52.5996V32.0446H57.1211V18.0493Z" fill="#0DB14B"/>
<path d="M38.3758 30.5105C38.0465 31.7897 38.9078 34.1961 37.0333 34.4367C36.3113 34.5254 35.5514 34.0694 35.4754 33.1829C35.3868 32.2456 35.5514 31.3717 35.3741 30.4851L33.5883 30.4471C32.7524 30.4345 32.1191 29.8772 32.1191 29.0159L32.0938 13.2981C32.0938 12.1962 32.7777 11.5376 33.9176 11.5883C34.2849 11.6009 35.0828 11.7656 35.3108 11.4236C35.7667 10.4864 34.7788 7.94061 36.59 7.6493C37.3879 7.52265 38.2238 7.99127 38.2492 8.90318L38.3125 11.4489C38.9584 11.8416 41.5928 11.031 41.5928 13.0321V29.0539C41.5928 29.8265 41.0356 30.3965 40.3263 30.4218L38.3632 30.5105H38.3758ZM39.1231 14.0454H34.6015V28.0407H39.1231V14.0454Z" fill="#0DB14B"/>
<path d="M36.8307 51.4856C37.6001 51.4856 38.2239 50.8619 38.2239 50.0924C38.2239 49.323 37.6001 48.6992 36.8307 48.6992C36.0613 48.6992 35.4375 49.323 35.4375 50.0924C35.4375 50.8619 36.0613 51.4856 36.8307 51.4856Z" fill="#0DB14B"/>
<path d="M20.3524 34.5144C20.0231 35.7936 20.8843 38.2 19.0098 38.4407C18.2879 38.5293 17.528 38.0734 17.452 37.1868C17.3633 36.2495 17.528 35.3756 17.3507 34.489L15.5648 34.451C14.7289 34.4384 14.0956 33.8811 14.0956 33.0198L14.0703 17.302C14.0703 16.2001 14.7542 15.5415 15.8941 15.5922C16.2614 15.6048 17.0594 15.7695 17.2873 15.4275C17.7433 14.4903 16.7554 11.9445 18.5666 11.6532C19.3645 11.5266 20.2004 11.9952 20.2257 12.9071L20.2891 15.4528C20.935 15.8455 23.5694 15.0349 23.5694 17.036V33.0578C23.5694 33.8304 23.0121 34.4004 22.3029 34.4257L20.3397 34.5144H20.3524ZM21.0996 18.0493H16.5781V32.0446H21.0996V18.0493Z" fill="#0DB14B"/>
</svg>
