<svg width="150" height="150" viewBox="0 0 150 150" fill="none" xmlns="http://www.w3.org/2000/svg">
<rect width="150" height="150" rx="10" fill="#041614"/>
<path d="M103.472 102.547C89.2326 119.157 63.7408 119.145 49.5133 102.547C43.1874 102.37 37.7198 98.1372 35.7797 92.2734C33.7103 86.0432 35.8503 79.2218 41.1297 75.2969C42.5054 62.659 50.5363 51.5935 62.224 46.4509C64.2229 40.2206 69.9609 36.0237 76.4632 36.0001C82.9655 35.9765 88.774 40.1497 90.7847 46.4509C102.367 51.5226 110.48 62.5408 111.867 75.2969C117.1 79.1627 119.287 85.9131 117.241 92.1907C115.324 98.0781 109.821 102.358 103.472 102.547ZM88.3037 51.0851C88.3037 44.5357 83.0125 39.2157 76.4984 39.2157C69.9844 39.2157 64.6932 44.5357 64.6932 51.0851C64.6932 57.6346 69.9844 62.9546 76.4984 62.9546C83.0125 62.9546 88.3037 57.6346 88.3037 51.0851ZM61.6713 53.4732C61.495 52.3501 61.5067 51.4043 61.4597 50.3758C52.594 55.0455 46.4092 63.5575 44.6454 73.358C45.7272 72.9915 46.6326 72.7196 47.6555 72.5659C49.5016 64.5387 54.5341 57.6464 61.6713 53.4732ZM105.341 72.5778C106.458 72.7196 107.364 73.027 108.34 73.3462C106.541 63.4865 100.309 54.9983 91.5137 50.3758C91.5372 51.4871 91.4549 52.4447 91.3373 53.485C98.451 57.6582 103.484 64.5269 105.341 72.5896V72.5778ZM102.002 72.3886C100.168 65.7091 96.0759 60.2828 90.4319 56.6888C88.092 62.4935 82.5657 66.182 76.4397 66.1702C70.3136 66.1583 64.8696 62.458 62.5532 56.6888C56.874 60.2946 52.7704 65.8037 50.9831 72.4004C57.0974 72.8142 62.2945 76.9283 64.1993 82.5793C66.2688 88.7031 64.3052 95.3117 59.2962 99.3194C69.126 107.914 83.9532 107.855 93.7007 99.3194C88.6447 95.2763 86.7163 88.6322 88.8211 82.5202C90.7494 76.8928 95.9113 72.8379 102.002 72.4004V72.3886ZM61.8242 87.4618C61.8242 80.9005 56.533 75.5806 50.0072 75.5806C43.4814 75.5806 38.1902 80.9005 38.1902 87.4618C38.1902 94.0231 43.4814 99.3431 50.0072 99.3431C56.533 99.3431 61.8242 94.0231 61.8242 87.4618ZM114.795 87.4618C114.795 80.9005 109.504 75.5924 102.99 75.5924C96.4757 75.5924 91.1845 80.9124 91.1845 87.4618C91.1845 94.0113 96.4757 99.3312 102.99 99.3312C109.504 99.3312 114.795 94.0113 114.795 87.4618ZM53.5346 102.169C66.1982 115.043 86.9515 114.948 99.4858 102.121C98.357 101.897 97.4869 101.518 96.5345 101.093C85.2818 111.567 67.7621 111.603 56.4624 101.105C55.463 101.542 54.5458 101.861 53.5346 102.157V102.169Z" fill="#0DB14B"/>
<path d="M78.0977 59.2889C78.18 60.3293 77.4745 61.1095 76.5456 61.1332C75.6167 61.1568 74.8289 60.3411 74.8994 59.3244C74.9112 59.1116 74.9582 58.7096 74.8406 58.5559C73.8765 58.1658 73.0651 57.5747 72.5007 56.688C72.0187 55.9196 72.2421 54.9502 72.9476 54.4773C73.7001 53.969 74.7113 54.1936 75.2169 54.9738C75.4756 55.364 75.9106 55.5531 76.3457 55.5295C76.7807 55.5058 77.1805 55.2103 77.4039 54.7847C77.6626 54.2763 77.5921 53.7562 77.3216 53.2715C77.0512 52.7867 76.5456 52.704 75.9577 52.6094C73.947 52.2666 72.536 50.576 72.2773 48.6608C72.0069 46.6156 73.0299 44.6649 74.8759 43.7901C74.9229 43.4118 74.9112 43.0926 74.8994 42.7379C74.8524 41.7567 75.6284 40.9764 76.5573 41.0119C77.4862 41.0474 78.1917 41.8513 78.1094 42.8443C78.0977 43.0571 78.0506 43.4473 78.1682 43.601C79.1912 44.0029 80.073 44.6295 80.5904 45.6107C81.0019 46.391 80.6845 47.3013 79.9672 47.7151C79.25 48.1288 78.3093 47.9633 77.839 47.2185C77.5215 46.7338 77.0041 46.5328 76.3927 46.6865C75.6755 46.852 75.358 47.7151 75.4873 48.3771C75.6519 49.1928 76.3104 49.4174 77.0865 49.5357C79.0618 49.843 80.4611 51.5572 80.7197 53.4133C81.0137 55.4704 80.0142 57.421 78.1564 58.3195C78.0741 58.6151 78.0741 58.9106 78.1094 59.2653L78.0977 59.2889Z" fill="#0DB14B"/>
<path d="M104.612 93.4082L104.565 95.1224C104.542 95.9854 103.684 96.541 102.907 96.4937C102.037 96.4464 101.379 95.7489 101.391 94.8386C101.391 94.3658 101.414 93.9165 101.391 93.4554C101.179 93.3727 100.967 93.3609 100.732 93.3845C99.7445 93.4909 98.9214 92.7698 98.8979 91.8122C98.8744 90.8546 99.6975 90.0861 100.744 90.1689C100.909 90.1807 101.367 90.228 101.391 90.0389C101.438 89.7433 101.014 89.8379 100.838 89.8142C99.8268 89.9797 98.945 89.2822 98.8979 88.3365C98.8391 87.3079 99.6505 86.5513 100.791 86.6104L97.628 83.0402C97.0284 82.3663 97.0166 81.4442 97.6163 80.8058C98.2159 80.1674 99.2507 80.0728 99.8739 80.7585L103.002 84.1987L106.023 80.8294C106.635 80.1556 107.599 80.1319 108.246 80.6757C108.892 81.2195 109.034 82.2481 108.422 82.9338L105.165 86.5986C106.223 86.5277 107.035 87.1897 107.082 88.1473C107.129 89.1049 106.329 89.9325 105.294 89.8261C105.106 89.8733 104.659 89.7315 104.601 89.9206C104.53 90.2398 104.989 90.1925 105.189 90.1689C106.129 90.0743 106.952 90.6536 107.07 91.5521C107.187 92.4506 106.611 93.2545 105.682 93.3727C105.353 93.4082 105.036 93.3727 104.601 93.3963L104.612 93.4082Z" fill="#0DB14B"/>
<path d="M51.0066 91.5407L48.5021 91.588C49.4075 92.6875 50.7479 93.3259 52.1707 93.3495C53.1231 93.3613 53.8639 94.047 53.8639 94.981C53.8639 95.9149 53.1348 96.6006 52.1707 96.577C48.9254 96.5179 46.0917 94.579 44.7748 91.6117C44.6572 91.4816 44.2927 91.5407 44.1281 91.5526C43.1521 91.588 42.3996 90.8787 42.3878 89.9566C42.3761 89.0344 43.1051 88.3015 44.0928 88.3251C44.1398 87.7222 44.1281 87.1666 44.1045 86.5636C43.1168 86.6346 42.3996 85.8543 42.3878 84.9558C42.3761 83.9864 43.2932 83.2653 44.1986 83.3598C44.3515 83.3717 44.716 83.4308 44.7748 83.3007C46.0799 80.3334 48.9136 78.4064 52.1707 78.3472C53.1466 78.3236 53.8403 79.0448 53.8521 79.9551C53.8639 80.8654 53.1113 81.5629 52.1589 81.5865C50.7127 81.6102 49.3957 82.2367 48.4904 83.348C49.2664 83.3953 49.9719 83.3835 50.7362 83.3717C51.6651 83.348 52.3823 84.01 52.4411 84.8849C52.4999 85.7597 51.8062 86.5873 50.842 86.5873L47.338 86.6109V88.3488L50.9478 88.3724C51.7827 88.3724 52.4058 89.1172 52.4411 89.8856C52.4764 90.6541 51.912 91.5407 50.9949 91.5526L51.0066 91.5407Z" fill="#0DB14B"/>
</svg>
