<svg width="150" height="150" viewBox="0 0 150 150" fill="none" xmlns="http://www.w3.org/2000/svg">
<rect width="150" height="150" rx="10" fill="#041614"/>
<g clip-path="url(#clip0_56140_8473)">
<path d="M83.5289 79.9805C83.5289 80.8808 84.2172 81.3885 85.3015 81.3885C86.5417 81.3885 87.8468 80.5085 87.8468 79.0329V78.4778C87.8468 78.4778 83.5289 77.8618 83.5289 79.9805ZM80.8148 75.012C81.0161 73.4078 82.3926 71.1875 86.0093 71.1875C89.6259 71.1875 90.7427 72.7308 90.8986 74.8766C90.944 75.4994 90.9635 76.0748 90.9635 76.772V83.6967H88.2948L87.9442 82.0654H87.7819C87.3339 83.0672 85.9833 84.0217 84.2821 84.0217C82.1329 84.0217 80.4512 82.7491 80.4512 80.3731C80.4512 77.327 82.6848 76.2169 87.204 76.2169H87.8468V75.7769C87.8468 74.5788 87.4702 73.8139 85.8794 73.8139C84.4834 73.8139 83.9769 74.3554 83.8081 75.0053" fill="#FDFDFF"/>
<path d="M80.4514 71.3809L79.8281 74.5556C78.7373 74.102 77.4581 74.339 76.7828 75.0429C75.8738 75.9974 75.9063 77.6287 75.9063 78.4139V83.7006H72.7441V71.5095H75.8154L75.4128 73.4251H75.5751C76.4192 71.7126 78.3087 71.1643 80.4514 71.3809Z" fill="#FDFDFF"/>
<path d="M126 71.3809L125.377 74.5556C124.286 74.102 123.007 74.339 122.332 75.0429C121.423 75.9974 121.455 77.6287 121.455 78.4139V83.7006H118.293V71.5095H121.364L120.962 73.4251H121.124C121.968 71.7126 123.858 71.1643 126 71.3809Z" fill="#FDFDFF"/>
<path d="M74.7888 66.3672L74.159 69.3253H69.6203V83.696H66.3153V69.3253H61.5234V66.3672H74.7953H74.7888Z" fill="#FDFDFF"/>
<path d="M95.5662 77.3447C95.5662 79.4905 96.3649 81.0135 98.2673 81.0135C99.8387 81.0135 100.949 80.0929 100.949 77.3921V76.9521C100.949 74.2986 99.6244 73.5134 98.3388 73.5134C96.4558 73.5134 95.5727 74.9214 95.5727 77.3447H95.5662ZM104.085 66.6089L104.072 83.7009H101.274L100.923 82.0492H100.761C100.345 83.0713 99.1244 84.0258 97.3778 84.0258C93.8585 84.0258 92.3262 80.9865 92.3262 77.3244C92.3262 73.2833 94.3455 70.975 97.5921 70.975C99.0595 70.975 100.274 71.7331 100.865 72.8568H100.949L100.962 65.9727L104.092 66.6089H104.085Z" fill="#FDFDFF"/>
<path d="M108.806 76.2903H113.63C113.455 74.5168 112.565 73.8196 111.241 73.8196C109.845 73.8196 109.007 74.4627 108.806 76.2903ZM111.377 71.1865C115.208 71.1865 116.818 73.7925 116.818 77.3937C116.818 77.7389 116.799 78.1992 116.773 78.5918H108.78C108.981 80.6428 109.864 81.3604 111.325 81.3604C112.546 81.3604 113.228 80.873 113.539 79.9795H116.617C116.195 82.5382 114.292 84.0138 111.26 84.0138C107.501 84.0138 105.553 81.868 105.553 77.6645C105.553 73.6978 107.39 71.1797 111.377 71.1797V71.1865Z" fill="#FDFDFF"/>
<path d="M58.9981 71.1875C62.7186 71.1875 64.0887 73.0558 64.3094 75.7566H61.1668C61.0564 74.484 60.2123 73.841 58.9526 73.841C57.3358 73.841 56.4528 75.0188 56.4528 77.5572C56.4528 80.0956 57.2514 81.3411 58.9331 81.3411C60.1279 81.3411 61.0174 80.583 61.1668 79.4458H64.3094C63.9978 82.2143 62.2511 84.0149 58.7968 84.0149C54.9009 84.0149 53.1543 81.6863 53.1543 77.6249C53.1543 73.5634 54.9009 71.1875 58.9981 71.1875Z" fill="#FDFDFF"/>
<path d="M36.4667 64.0916C42.0508 64.0916 46.6349 68.6811 46.9141 74.4348C46.9206 74.6243 46.9271 74.8139 46.9271 75.0034C46.9271 80.5879 42.804 82.6524 40.5899 82.9503C37.0966 83.4173 34.1487 81.4543 34.1487 77.6027C34.1487 73.9542 38.0186 70.793 42.9209 72.3499L43.5572 69.3715C41.7781 68.4712 39.8691 68.0651 38.0056 68.0651C30.8307 68.0651 26.3375 73.6293 26.7531 78.679C26.7141 78.6993 26.6622 78.7331 26.6102 78.7602C26.2791 77.6298 26.1038 76.3775 26.1038 75.0034C26.1167 68.9857 30.7009 64.0916 36.4667 64.0916ZM36.4667 62C29.5906 62 24 67.8282 24 74.9966C24 82.1651 29.5906 87.9932 36.4667 87.9932C43.3429 87.9932 48.9335 82.1651 48.9335 74.9966C48.9335 67.8282 43.3429 62 36.4667 62Z" fill="#FF0000"/>
</g>
<defs>
<clipPath id="clip0_56140_8473">
<rect width="102" height="26" fill="white" transform="translate(24 62)"/>
</clipPath>
</defs>
</svg>
