<svg width="150" height="150" viewBox="0 0 150 150" fill="none" xmlns="http://www.w3.org/2000/svg">
<rect width="150" height="150" rx="10" fill="#041614"/>
<path d="M40.1659 76.7566L50.0093 76.7329L50.0924 72.4227C50.2349 71.7696 50.793 71.3659 51.4698 71.3659L61.325 71.3303L61.3607 61.7007C61.3607 60.9051 61.9187 60.442 62.6786 60.3352L73.9944 60.3589C74.7543 60.3589 75.3005 60.9764 75.3124 61.6888L75.348 66.557H83.9328L83.9565 52.5103C83.9565 51.6792 84.6452 51.1211 85.4407 51.1211H96.5665C97.3502 51.1805 97.9438 51.7623 97.9438 52.6172V85.4245C105.282 86.8137 111.492 91.4208 114.817 98.0939C115.042 98.5569 115.042 98.9369 114.912 99.4C110.542 108.472 101.055 113.66 90.9977 112.461C83.3391 111.547 76.7847 106.999 73.1632 100.16H36.4494C35.4758 100.16 34.9771 99.5543 35.0008 98.7351C35.0721 96.8827 37.6012 97.7614 38.7054 97.3696L38.7411 78.0628C38.7411 77.3147 39.3585 76.7448 40.1778 76.7448L40.1659 76.7566ZM95.2722 85.1039V53.8283H86.6162V86.2319C89.4541 85.3058 92.1851 84.9733 95.2722 85.1039ZM72.6526 63.0186H64.0323V97.512H72.6526V63.0186ZM83.9684 87.2293L83.9328 69.2643H75.3124L75.3599 94.0805C77.8771 91.029 80.6437 88.9392 83.9684 87.2293ZM61.3488 74.0375H52.7165V97.512H61.3488V74.0375ZM50.0568 79.4045H41.3889V97.5239H50.0568V79.4045ZM112.216 98.8063C108.357 91.7889 101.245 87.6568 93.5743 87.7518C85.9038 87.8468 79.0764 92.0738 75.4786 98.8538C79.0645 105.812 86.165 109.98 93.8118 109.991C101.447 109.991 108.618 105.836 112.204 98.8182L112.216 98.8063Z" fill="#0DB14B"/>
<path d="M67.843 47.7009L46.482 69.0262C45.9714 69.5368 45.0215 69.1925 44.7247 68.8363C44.2972 68.3376 44.226 67.5302 44.8316 66.9365L66.7506 45.0174C67.3324 44.5306 67.9499 44.6018 68.5317 44.9699L77.6151 50.7643L87.5891 40.7785C86.6867 40.3985 83.9439 41.2534 83.9795 39.2824C83.9795 38.6768 84.4782 38 85.2381 38H90.9969C91.745 38 92.3149 38.6412 92.303 39.3892V44.9818C92.2793 45.8248 91.6143 46.2642 90.9257 46.2642C88.9784 46.2404 89.9639 43.7469 89.4771 42.702L78.9094 53.246C78.4463 53.7684 77.6745 53.9821 77.0452 53.5784L67.843 47.7009Z" fill="#0DB14B"/>
<path d="M102.231 98.8634C102.231 103.494 98.4785 107.246 93.8478 107.246C89.217 107.246 85.4648 103.494 85.4648 98.8634C85.4648 94.2326 89.217 90.4805 93.8478 90.4805C98.4785 90.4805 102.231 94.2326 102.231 98.8634ZM99.559 98.8634C99.559 95.7049 97.0062 93.1521 93.8478 93.1521C90.6893 93.1521 88.1364 95.7049 88.1364 98.8634C88.1364 102.022 90.6893 104.575 93.8478 104.575C97.0062 104.575 99.559 102.022 99.559 98.8634Z" fill="#0DB14B"/>
</svg>
