<svg width="60" height="73" viewBox="0 0 60 73" fill="none" xmlns="http://www.w3.org/2000/svg">
<path d="M48.6435 67.6157C43.766 71.3257 36.5728 74.0357 31.0801 70.2857C26.0683 73.7457 19.4569 71.6657 14.9038 68.6557C12.0064 66.7457 9.63478 64.4857 7.54283 61.8457C1.4236 54.1257 -0.981582 44.8157 0.360845 35.4357C0.853068 31.9857 1.62496 28.7657 3.4708 25.7357C6.23396 20.8157 11.4918 17.8557 17.5998 17.4457C22.4326 17.1257 27.1535 17.9857 31.0689 20.8257C34.7941 18.0857 39.3919 17.1757 44.1575 17.4157C50.7466 17.7457 56.3289 21.0257 59.0249 26.4657C59.3158 26.8057 59.3717 27.1957 59.271 27.6357C59.1927 27.9857 58.8459 28.2857 58.2978 28.4857C53.0735 30.4157 49.7957 34.9757 49.9412 39.9457C50.0866 44.9157 53.6776 49.3157 59.0697 50.9557C59.9646 51.2257 60.1772 51.9757 59.8639 52.7257C57.5147 58.4357 53.9237 63.5957 48.6323 67.6157H48.6435ZM57.0448 52.8357C51.1941 50.5957 47.536 45.6057 47.3458 40.1457C47.1556 34.6857 50.5676 29.3857 56.2841 26.7757C52.9392 20.6157 45.3881 18.6757 38.2956 20.1557C32.6798 21.3257 31.8408 24.5557 30.1851 23.2057C26.1019 19.8657 20.5308 19.0557 15.273 20.1157C8.29235 21.5157 4.73492 26.8957 3.4708 32.8157C2.64297 36.7057 2.3633 40.5257 2.85552 44.5057C3.82878 52.2057 7.58758 59.3557 13.8075 64.7057C17.8348 68.1657 25.2741 72.1557 30.118 67.9157C31.9862 66.2757 32.993 71.1257 39.7723 69.4857C47.5919 67.6557 54.2257 59.3557 57.0448 52.8357Z" fill="#0DB14B"/>
<path d="M46.8425 0.6762C48.0619 8.4462 41.0589 16.0962 31.4717 15.7262C30.8788 15.7062 30.3754 15.6062 30.051 15.3462C29.693 15.0562 29.5252 14.5362 29.4916 13.9762C29.1001 6.3462 35.9241 0.0562 44.5156 0.0162C45.1533 0.0162 46.7194 -0.1638 46.8425 0.6762ZM44.2024 3.3062C44.2471 2.9062 44.4038 2.7062 44.2471 2.5062C44.1465 2.3662 43.878 2.4462 43.6095 2.4562C37.1323 2.8162 31.9416 7.4762 31.9527 13.4162C38.3964 13.5162 43.6095 9.0962 44.2024 3.3062Z" fill="#0DB14B"/>
</svg>
