<svg width="61" height="78" viewBox="0 0 61 78" fill="none" xmlns="http://www.w3.org/2000/svg">
<path d="M2.59633 71.0178C2.59633 73.6757 4.52977 75.4384 7.02943 75.4384H41.1408C43.4057 75.4384 45.1734 73.8272 45.4082 71.6651C45.4911 70.8526 45.4082 70.0814 45.422 69.2827C45.4496 68.2912 46.1816 67.7816 46.9549 67.8642C48.0322 67.9744 47.9217 68.8558 48.0321 69.7784C48.5569 73.9373 45.8225 77.9998 41.3618 77.9998H6.79466C2.96921 78.0274 0 74.9426 0 71.1555V6.89935C0 2.94703 3.12112 0 7.02943 0H41.1684C44.7453 0 47.9907 2.74046 48.0045 6.40359L48.0736 36.163C48.0736 36.9755 47.6178 37.4989 46.9688 37.609C46.3611 37.7054 45.4773 37.251 45.4773 36.3972L45.3944 6.43113C45.3944 4.2002 43.2952 2.61652 41.1546 2.61652H7.02943C4.54358 2.61652 2.61014 4.393 2.61014 6.92689V71.0316L2.59633 71.0178Z" fill="#0DB14B"/>
<path d="M57.9898 33.409C57.6031 34.5933 58.6112 37.5128 56.6916 37.6092C54.6339 37.7194 55.4901 34.8137 55.2553 33.4641C54.5786 33.1887 52.1895 33.8084 52.1895 32.0594V15.2173C52.1895 13.4271 54.4129 14.0055 55.2415 13.7851C55.5453 12.3391 54.6339 9.80525 56.4706 9.65377C57.1473 9.59868 57.8655 9.9705 57.8793 10.7692L57.9483 13.7438C58.5422 14.0468 61.0004 13.3582 61.0004 15.1622V31.8942C61.0004 32.7205 60.4756 33.2713 59.6746 33.3402C59.1222 33.3815 58.6112 33.3126 58.0036 33.3952L57.9898 33.409ZM58.3903 16.4705H54.7996V30.7649H58.3903V16.4705Z" fill="#0DB14B"/>
<path d="M18.2021 53.7636C17.9673 55.0581 18.8098 57.9225 16.8625 57.9363C14.9153 57.9501 15.7577 55.127 15.5367 53.7912C14.5286 53.5433 12.457 54.1492 12.457 52.2626V35.4893C12.457 33.823 14.57 34.2912 15.4677 34.1397C15.8544 32.8453 14.8186 29.9809 16.8487 29.9533C18.8788 29.9258 17.8707 32.9417 18.2435 34.126C19.086 34.2637 21.2542 33.8505 21.2542 35.4893V52.2488C21.2542 54.0391 19.1412 53.6122 18.1883 53.7499L18.2021 53.7636ZM18.6717 36.7976H15.081V51.1058H18.6717V36.7976Z" fill="#0DB14B"/>
<path d="M44.8141 62.2752C44.3446 63.2529 45.4356 66.3377 43.3779 66.3652C41.4582 66.3927 42.2868 63.611 42.0521 62.2339C41.2925 61.9171 39 62.6608 39 60.7879V44.0009C39 42.1693 41.1268 42.789 42.0383 42.5549C42.3283 41.0814 41.4444 38.6026 43.2398 38.3822C43.8336 38.3134 44.6208 38.7403 44.6484 39.5252L44.7451 42.5273C45.6151 42.7614 47.7557 42.1968 47.7557 44.0009V60.54C47.7695 61.5315 47.1204 62.165 46.1261 62.1375C45.7808 62.1375 45.0213 61.986 44.8141 62.2752ZM45.1594 45.2265H41.5825V59.5209H45.1594V45.2265Z" fill="#0DB14B"/>
<path d="M31.4464 46.9752C31.1149 48.3386 32.0264 50.8312 30.3416 51.1341C29.651 51.2581 28.8639 50.8587 28.8362 50.1013L28.712 46.9752C28.1181 46.8513 27.5519 46.9477 26.9442 46.8926C26.157 46.81 25.6875 46.2041 25.6875 45.4053V28.8662C25.6875 26.9244 27.8833 27.6268 28.7396 27.3376C29.002 25.988 28.1733 23.4403 29.9134 23.1925C30.6316 23.0961 31.3083 23.5505 31.3773 24.3905C31.4464 25.3958 31.2945 26.3598 31.4602 27.3651C32.0402 27.4753 32.5512 27.4064 33.1036 27.4202C33.9599 27.4477 34.4846 28.0124 34.4846 28.8662V45.6257C34.4846 46.3142 33.9875 46.8238 33.3522 46.8513L31.4464 46.9615V46.9752ZM31.8745 30.0229H28.3115V44.3036H31.8745V30.0229Z" fill="#0DB14B"/>
<path d="M27.897 8.759H20.0666C19.1827 8.759 18.6855 8.20815 18.6855 7.45074C18.6855 6.76218 19.1965 6.15625 20.0666 6.15625H28.1318C28.9604 6.15625 29.4023 6.83104 29.4023 7.45074C29.4161 8.30455 28.8085 8.759 27.897 8.759Z" fill="#0DB14B"/>
<path d="M28.1177 70.4403H20.0663C19.3344 70.4541 18.782 69.9584 18.6853 69.3524C18.6162 68.8567 18.851 67.9064 19.6106 67.9064L28.3525 67.8789C29.0982 67.8789 29.3883 68.6225 29.3883 69.1596C29.3883 69.7656 28.9049 70.4266 28.1177 70.4266V70.4403Z" fill="#0DB14B"/>
</svg>
