<svg width="213" height="73" viewBox="0 0 213 73" fill="none" xmlns="http://www.w3.org/2000/svg">
<path d="M204.951 0H8.04933C3.60381 0 0 3.81458 0 8.5201V64.4799C0 69.1854 3.60381 73 8.04933 73H204.951C209.396 73 213 69.1854 213 64.4799V8.5201C213 3.81458 209.396 0 204.951 0Z" fill="#000204"/>
<path d="M18 19.5203V53.469C18 56.1235 20.8021 57.8209 23.1371 56.593L55.1275 39.6186C57.6242 38.3004 57.6242 34.7069 55.1275 33.3887L23.1371 16.4144C20.8021 15.1684 18 16.8839 18 19.5384V19.5203Z" fill="white"/>
<path d="M85.996 42.24C85.676 41.6533 85.236 41.2067 84.676 40.9C84.116 40.5933 83.4627 40.44 82.716 40.44C81.8893 40.44 81.156 40.6267 80.516 41C79.876 41.3733 79.376 41.9067 79.016 42.6C78.656 43.2933 78.476 44.0933 78.476 45C78.476 45.9333 78.656 46.7467 79.016 47.44C79.3893 48.1333 79.9027 48.6667 80.556 49.04C81.2093 49.4133 81.9693 49.6 82.836 49.6C83.9027 49.6 84.776 49.32 85.456 48.76C86.136 48.1867 86.5827 47.3933 86.796 46.38H81.996V44.24H89.556V46.68C89.3693 47.6533 88.9693 48.5533 88.356 49.38C87.7427 50.2067 86.9493 50.8733 85.976 51.38C85.016 51.8733 83.936 52.12 82.736 52.12C81.3893 52.12 80.1693 51.82 79.076 51.22C77.996 50.6067 77.1427 49.76 76.516 48.68C75.9027 47.6 75.596 46.3733 75.596 45C75.596 43.6267 75.9027 42.4 76.516 41.32C77.1427 40.2267 77.996 39.38 79.076 38.78C80.1693 38.1667 81.3827 37.86 82.716 37.86C84.2893 37.86 85.656 38.2467 86.816 39.02C87.976 39.78 88.776 40.8533 89.216 42.24H85.996ZM96.5476 52.18C95.4809 52.18 94.5209 51.9467 93.6676 51.48C92.8142 51 92.1409 50.3267 91.6476 49.46C91.1676 48.5933 90.9276 47.5933 90.9276 46.46C90.9276 45.3267 91.1742 44.3267 91.6676 43.46C92.1742 42.5933 92.8609 41.9267 93.7276 41.46C94.5942 40.98 95.5609 40.74 96.6276 40.74C97.6942 40.74 98.6609 40.98 99.5276 41.46C100.394 41.9267 101.074 42.5933 101.568 43.46C102.074 44.3267 102.328 45.3267 102.328 46.46C102.328 47.5933 102.068 48.5933 101.548 49.46C101.041 50.3267 100.348 51 99.4676 51.48C98.6009 51.9467 97.6276 52.18 96.5476 52.18ZM96.5476 49.74C97.0542 49.74 97.5276 49.62 97.9676 49.38C98.4209 49.1267 98.7809 48.7533 99.0476 48.26C99.3142 47.7667 99.4476 47.1667 99.4476 46.46C99.4476 45.4067 99.1676 44.6 98.6076 44.04C98.0609 43.4667 97.3876 43.18 96.5876 43.18C95.7876 43.18 95.1142 43.4667 94.5676 44.04C94.0342 44.6 93.7676 45.4067 93.7676 46.46C93.7676 47.5133 94.0276 48.3267 94.5476 48.9C95.0809 49.46 95.7476 49.74 96.5476 49.74ZM109.301 52.18C108.235 52.18 107.275 51.9467 106.421 51.48C105.568 51 104.895 50.3267 104.401 49.46C103.921 48.5933 103.681 47.5933 103.681 46.46C103.681 45.3267 103.928 44.3267 104.421 43.46C104.928 42.5933 105.615 41.9267 106.481 41.46C107.348 40.98 108.315 40.74 109.381 40.74C110.448 40.74 111.415 40.98 112.281 41.46C113.148 41.9267 113.828 42.5933 114.321 43.46C114.828 44.3267 115.081 45.3267 115.081 46.46C115.081 47.5933 114.821 48.5933 114.301 49.46C113.795 50.3267 113.101 51 112.221 51.48C111.355 51.9467 110.381 52.18 109.301 52.18ZM109.301 49.74C109.808 49.74 110.281 49.62 110.721 49.38C111.175 49.1267 111.535 48.7533 111.801 48.26C112.068 47.7667 112.201 47.1667 112.201 46.46C112.201 45.4067 111.921 44.6 111.361 44.04C110.815 43.4667 110.141 43.18 109.341 43.18C108.541 43.18 107.868 43.4667 107.321 44.04C106.788 44.6 106.521 45.4067 106.521 46.46C106.521 47.5133 106.781 48.3267 107.301 48.9C107.835 49.46 108.501 49.74 109.301 49.74ZM121.475 40.74C122.302 40.74 123.029 40.9067 123.655 41.24C124.282 41.56 124.775 41.98 125.135 42.5V40.92H127.955V52.08C127.955 53.1067 127.749 54.02 127.335 54.82C126.922 55.6333 126.302 56.2733 125.475 56.74C124.649 57.22 123.649 57.46 122.475 57.46C120.902 57.46 119.609 57.0933 118.595 56.36C117.595 55.6267 117.029 54.6267 116.895 53.36H119.675C119.822 53.8667 120.135 54.2667 120.615 54.56C121.109 54.8667 121.702 55.02 122.395 55.02C123.209 55.02 123.869 54.7733 124.375 54.28C124.882 53.8 125.135 53.0667 125.135 52.08V50.36C124.775 50.88 124.275 51.3133 123.635 51.66C123.009 52.0067 122.289 52.18 121.475 52.18C120.542 52.18 119.689 51.94 118.915 51.46C118.142 50.98 117.529 50.3067 117.075 49.44C116.635 48.56 116.415 47.5533 116.415 46.42C116.415 45.3 116.635 44.3067 117.075 43.44C117.529 42.5733 118.135 41.9067 118.895 41.44C119.669 40.9733 120.529 40.74 121.475 40.74ZM125.135 46.46C125.135 45.78 125.002 45.2 124.735 44.72C124.469 44.2267 124.109 43.8533 123.655 43.6C123.202 43.3333 122.715 43.2 122.195 43.2C121.675 43.2 121.195 43.3267 120.755 43.58C120.315 43.8333 119.955 44.2067 119.675 44.7C119.409 45.18 119.275 45.7533 119.275 46.42C119.275 47.0867 119.409 47.6733 119.675 48.18C119.955 48.6733 120.315 49.0533 120.755 49.32C121.209 49.5867 121.689 49.72 122.195 49.72C122.715 49.72 123.202 49.5933 123.655 49.34C124.109 49.0733 124.469 48.7 124.735 48.22C125.002 47.7267 125.135 47.14 125.135 46.46ZM133.49 37.2V52H130.69V37.2H133.49ZM146.556 46.22C146.556 46.62 146.53 46.98 146.476 47.3H138.376C138.443 48.1 138.723 48.7267 139.216 49.18C139.71 49.6333 140.316 49.86 141.036 49.86C142.076 49.86 142.816 49.4133 143.256 48.52H146.276C145.956 49.5867 145.343 50.4667 144.436 51.16C143.53 51.84 142.416 52.18 141.096 52.18C140.03 52.18 139.07 51.9467 138.216 51.48C137.376 51 136.716 50.3267 136.236 49.46C135.77 48.5933 135.536 47.5933 135.536 46.46C135.536 45.3133 135.77 44.3067 136.236 43.44C136.703 42.5733 137.356 41.9067 138.196 41.44C139.036 40.9733 140.003 40.74 141.096 40.74C142.15 40.74 143.09 40.9667 143.916 41.42C144.756 41.8733 145.403 42.52 145.856 43.36C146.323 44.1867 146.556 45.14 146.556 46.22ZM143.656 45.42C143.643 44.7 143.383 44.1267 142.876 43.7C142.37 43.26 141.75 43.04 141.016 43.04C140.323 43.04 139.736 43.2533 139.256 43.68C138.79 44.0933 138.503 44.6733 138.396 45.42H143.656ZM163.546 42.36C163.546 43.1067 163.366 43.8067 163.006 44.46C162.659 45.1133 162.106 45.64 161.346 46.04C160.599 46.44 159.653 46.64 158.506 46.64H156.166V52H153.366V38.04H158.506C159.586 38.04 160.506 38.2267 161.266 38.6C162.026 38.9733 162.593 39.4867 162.966 40.14C163.353 40.7933 163.546 41.5333 163.546 42.36ZM158.386 44.38C159.159 44.38 159.733 44.2067 160.106 43.86C160.479 43.5 160.666 43 160.666 42.36C160.666 41 159.906 40.32 158.386 40.32H156.166V44.38H158.386ZM168.334 37.2V52H165.534V37.2H168.334ZM170.38 46.42C170.38 45.3 170.6 44.3067 171.04 43.44C171.494 42.5733 172.1 41.9067 172.86 41.44C173.634 40.9733 174.494 40.74 175.44 40.74C176.267 40.74 176.987 40.9067 177.6 41.24C178.227 41.5733 178.727 41.9933 179.1 42.5V40.92H181.92V52H179.1V50.38C178.74 50.9 178.24 51.3333 177.6 51.68C176.974 52.0133 176.247 52.18 175.42 52.18C174.487 52.18 173.634 51.94 172.86 51.46C172.1 50.98 171.494 50.3067 171.04 49.44C170.6 48.56 170.38 47.5533 170.38 46.42ZM179.1 46.46C179.1 45.78 178.967 45.2 178.7 44.72C178.434 44.2267 178.074 43.8533 177.62 43.6C177.167 43.3333 176.68 43.2 176.16 43.2C175.64 43.2 175.16 43.3267 174.72 43.58C174.28 43.8333 173.92 44.2067 173.64 44.7C173.374 45.18 173.24 45.7533 173.24 46.42C173.24 47.0867 173.374 47.6733 173.64 48.18C173.92 48.6733 174.28 49.0533 174.72 49.32C175.174 49.5867 175.654 49.72 176.16 49.72C176.68 49.72 177.167 49.5933 177.62 49.34C178.074 49.0733 178.434 48.7 178.7 48.22C178.967 47.7267 179.1 47.14 179.1 46.46ZM195.255 40.92L188.395 57.24H185.415L187.815 51.72L183.375 40.92H186.515L189.375 48.66L192.275 40.92H195.255Z" fill="white"/>
<path d="M79.012 17.242C80.076 17.242 80.9953 17.4427 81.77 17.844C82.554 18.236 83.1513 18.8007 83.562 19.538C83.982 20.2753 84.192 21.1433 84.192 22.142C84.192 23.1407 83.982 24.0087 83.562 24.746C83.1513 25.474 82.554 26.034 81.77 26.426C80.9953 26.8087 80.076 27 79.012 27H75.974V17.242H79.012ZM79.012 25.95C80.272 25.95 81.2333 25.6187 81.896 24.956C82.5587 24.284 82.89 23.346 82.89 22.142C82.89 20.9287 82.554 19.9813 81.882 19.3C81.2193 18.6187 80.2627 18.278 79.012 18.278H77.248V25.95H79.012ZM89.2184 27.126C88.4998 27.126 87.8464 26.9627 87.2584 26.636C86.6798 26.3093 86.2224 25.8473 85.8864 25.25C85.5598 24.6433 85.3964 23.9433 85.3964 23.15C85.3964 22.366 85.5644 21.6753 85.9004 21.078C86.2458 20.4713 86.7124 20.0093 87.3004 19.692C87.8884 19.3653 88.5464 19.202 89.2744 19.202C90.0024 19.202 90.6604 19.3653 91.2484 19.692C91.8364 20.0093 92.2984 20.4667 92.6344 21.064C92.9798 21.6613 93.1524 22.3567 93.1524 23.15C93.1524 23.9433 92.9751 24.6433 92.6204 25.25C92.2751 25.8473 91.8038 26.3093 91.2064 26.636C90.6091 26.9627 89.9464 27.126 89.2184 27.126ZM89.2184 26.006C89.6758 26.006 90.1051 25.8987 90.5064 25.684C90.9078 25.4693 91.2298 25.1473 91.4724 24.718C91.7244 24.2887 91.8504 23.766 91.8504 23.15C91.8504 22.534 91.7291 22.0113 91.4864 21.582C91.2438 21.1527 90.9264 20.8353 90.5344 20.63C90.1424 20.4153 89.7178 20.308 89.2604 20.308C88.7938 20.308 88.3644 20.4153 87.9724 20.63C87.5898 20.8353 87.2818 21.1527 87.0484 21.582C86.8151 22.0113 86.6984 22.534 86.6984 23.15C86.6984 23.7753 86.8104 24.3027 87.0344 24.732C87.2678 25.1613 87.5758 25.4833 87.9584 25.698C88.3411 25.9033 88.7611 26.006 89.2184 26.006ZM105.048 19.328L102.654 27H101.338L99.4895 20.91L97.6415 27H96.3255L93.9175 19.328H95.2195L96.9835 25.768L98.8875 19.328H100.19L102.052 25.782L103.788 19.328H105.048ZM110.05 19.188C110.983 19.188 111.739 19.4727 112.318 20.042C112.897 20.602 113.186 21.414 113.186 22.478V27H111.926V22.66C111.926 21.8947 111.735 21.3113 111.352 20.91C110.969 20.4993 110.447 20.294 109.784 20.294C109.112 20.294 108.575 20.504 108.174 20.924C107.782 21.344 107.586 21.9553 107.586 22.758V27H106.312V19.328H107.586V20.42C107.838 20.028 108.179 19.7247 108.608 19.51C109.047 19.2953 109.527 19.188 110.05 19.188ZM116.541 16.64V27H115.267V16.64H116.541ZM122.058 27.126C121.34 27.126 120.686 26.9627 120.098 26.636C119.52 26.3093 119.062 25.8473 118.726 25.25C118.4 24.6433 118.236 23.9433 118.236 23.15C118.236 22.366 118.404 21.6753 118.74 21.078C119.086 20.4713 119.552 20.0093 120.14 19.692C120.728 19.3653 121.386 19.202 122.114 19.202C122.842 19.202 123.5 19.3653 124.088 19.692C124.676 20.0093 125.138 20.4667 125.474 21.064C125.82 21.6613 125.992 22.3567 125.992 23.15C125.992 23.9433 125.815 24.6433 125.46 25.25C125.115 25.8473 124.644 26.3093 124.046 26.636C123.449 26.9627 122.786 27.126 122.058 27.126ZM122.058 26.006C122.516 26.006 122.945 25.8987 123.346 25.684C123.748 25.4693 124.07 25.1473 124.312 24.718C124.564 24.2887 124.69 23.766 124.69 23.15C124.69 22.534 124.569 22.0113 124.326 21.582C124.084 21.1527 123.766 20.8353 123.374 20.63C122.982 20.4153 122.558 20.308 122.1 20.308C121.634 20.308 121.204 20.4153 120.812 20.63C120.43 20.8353 120.122 21.1527 119.888 21.582C119.655 22.0113 119.538 22.534 119.538 23.15C119.538 23.7753 119.65 24.3027 119.874 24.732C120.108 25.1613 120.416 25.4833 120.798 25.698C121.181 25.9033 121.601 26.006 122.058 26.006ZM127.191 23.136C127.191 22.352 127.35 21.666 127.667 21.078C127.985 20.4807 128.419 20.0187 128.969 19.692C129.529 19.3653 130.15 19.202 130.831 19.202C131.503 19.202 132.087 19.3467 132.581 19.636C133.076 19.9253 133.445 20.2893 133.687 20.728V19.328H134.975V27H133.687V25.572C133.435 26.02 133.057 26.3933 132.553 26.692C132.059 26.9813 131.48 27.126 130.817 27.126C130.136 27.126 129.52 26.958 128.969 26.622C128.419 26.286 127.985 25.8147 127.667 25.208C127.35 24.6013 127.191 23.9107 127.191 23.136ZM133.687 23.15C133.687 22.5713 133.571 22.0673 133.337 21.638C133.104 21.2087 132.787 20.882 132.385 20.658C131.993 20.4247 131.559 20.308 131.083 20.308C130.607 20.308 130.173 20.42 129.781 20.644C129.389 20.868 129.077 21.1947 128.843 21.624C128.61 22.0533 128.493 22.5573 128.493 23.136C128.493 23.724 128.61 24.2373 128.843 24.676C129.077 25.1053 129.389 25.4367 129.781 25.67C130.173 25.894 130.607 26.006 131.083 26.006C131.559 26.006 131.993 25.894 132.385 25.67C132.787 25.4367 133.104 25.1053 133.337 24.676C133.571 24.2373 133.687 23.7287 133.687 23.15ZM136.652 23.136C136.652 22.352 136.811 21.666 137.128 21.078C137.446 20.4807 137.88 20.0187 138.43 19.692C138.99 19.3653 139.616 19.202 140.306 19.202C140.904 19.202 141.459 19.342 141.972 19.622C142.486 19.8927 142.878 20.252 143.148 20.7V16.64H144.436V27H143.148V25.558C142.896 26.0153 142.523 26.3933 142.028 26.692C141.534 26.9813 140.955 27.126 140.292 27.126C139.611 27.126 138.99 26.958 138.43 26.622C137.88 26.286 137.446 25.8147 137.128 25.208C136.811 24.6013 136.652 23.9107 136.652 23.136ZM143.148 23.15C143.148 22.5713 143.032 22.0673 142.798 21.638C142.565 21.2087 142.248 20.882 141.846 20.658C141.454 20.4247 141.02 20.308 140.544 20.308C140.068 20.308 139.634 20.42 139.242 20.644C138.85 20.868 138.538 21.1947 138.304 21.624C138.071 22.0533 137.954 22.5573 137.954 23.136C137.954 23.724 138.071 24.2373 138.304 24.676C138.538 25.1053 138.85 25.4367 139.242 25.67C139.634 25.894 140.068 26.006 140.544 26.006C141.02 26.006 141.454 25.894 141.846 25.67C142.248 25.4367 142.565 25.1053 142.798 24.676C143.032 24.2373 143.148 23.7287 143.148 23.15ZM153.668 27.126C152.949 27.126 152.296 26.9627 151.708 26.636C151.129 26.3093 150.672 25.8473 150.336 25.25C150.009 24.6433 149.846 23.9433 149.846 23.15C149.846 22.366 150.014 21.6753 150.35 21.078C150.695 20.4713 151.162 20.0093 151.75 19.692C152.338 19.3653 152.996 19.202 153.724 19.202C154.452 19.202 155.11 19.3653 155.698 19.692C156.286 20.0093 156.748 20.4667 157.084 21.064C157.429 21.6613 157.602 22.3567 157.602 23.15C157.602 23.9433 157.424 24.6433 157.07 25.25C156.724 25.8473 156.253 26.3093 155.656 26.636C155.058 26.9627 154.396 27.126 153.668 27.126ZM153.668 26.006C154.125 26.006 154.554 25.8987 154.956 25.684C155.357 25.4693 155.679 25.1473 155.922 24.718C156.174 24.2887 156.3 23.766 156.3 23.15C156.3 22.534 156.178 22.0113 155.936 21.582C155.693 21.1527 155.376 20.8353 154.984 20.63C154.592 20.4153 154.167 20.308 153.71 20.308C153.243 20.308 152.814 20.4153 152.422 20.63C152.039 20.8353 151.731 21.1527 151.498 21.582C151.264 22.0113 151.148 22.534 151.148 23.15C151.148 23.7753 151.26 24.3027 151.484 24.732C151.717 25.1613 152.025 25.4833 152.408 25.698C152.79 25.9033 153.21 26.006 153.668 26.006ZM163.015 19.188C163.948 19.188 164.704 19.4727 165.283 20.042C165.861 20.602 166.151 21.414 166.151 22.478V27H164.891V22.66C164.891 21.8947 164.699 21.3113 164.317 20.91C163.934 20.4993 163.411 20.294 162.749 20.294C162.077 20.294 161.54 20.504 161.139 20.924C160.747 21.344 160.551 21.9553 160.551 22.758V27H159.277V19.328H160.551V20.42C160.803 20.028 161.143 19.7247 161.573 19.51C162.011 19.2953 162.492 19.188 163.015 19.188ZM173.518 20.378V24.9C173.518 25.2733 173.598 25.5393 173.756 25.698C173.915 25.8473 174.19 25.922 174.582 25.922H175.52V27H174.372C173.663 27 173.131 26.8367 172.776 26.51C172.422 26.1833 172.244 25.6467 172.244 24.9V20.378H171.25V19.328H172.244V17.396H173.518V19.328H175.52V20.378H173.518ZM180.872 19.188C181.451 19.188 181.973 19.314 182.44 19.566C182.907 19.8087 183.271 20.1773 183.532 20.672C183.803 21.1667 183.938 21.7687 183.938 22.478V27H182.678V22.66C182.678 21.8947 182.487 21.3113 182.104 20.91C181.721 20.4993 181.199 20.294 180.536 20.294C179.864 20.294 179.327 20.504 178.926 20.924C178.534 21.344 178.338 21.9553 178.338 22.758V27H177.064V16.64H178.338V20.42C178.59 20.028 178.935 19.7247 179.374 19.51C179.822 19.2953 180.321 19.188 180.872 19.188ZM193.019 22.87C193.019 23.1127 193.005 23.3693 192.977 23.64H186.845C186.892 24.396 187.148 24.9887 187.615 25.418C188.091 25.838 188.665 26.048 189.337 26.048C189.888 26.048 190.345 25.922 190.709 25.67C191.082 25.4087 191.344 25.0633 191.493 24.634H192.865C192.66 25.3713 192.249 25.9733 191.633 26.44C191.017 26.8973 190.252 27.126 189.337 27.126C188.609 27.126 187.956 26.9627 187.377 26.636C186.808 26.3093 186.36 25.8473 186.033 25.25C185.706 24.6433 185.543 23.9433 185.543 23.15C185.543 22.3567 185.702 21.6613 186.019 21.064C186.336 20.4667 186.78 20.0093 187.349 19.692C187.928 19.3653 188.59 19.202 189.337 19.202C190.065 19.202 190.709 19.3607 191.269 19.678C191.829 19.9953 192.258 20.434 192.557 20.994C192.865 21.5447 193.019 22.17 193.019 22.87ZM191.703 22.604C191.703 22.1187 191.596 21.7033 191.381 21.358C191.166 21.0033 190.872 20.7373 190.499 20.56C190.135 20.3733 189.729 20.28 189.281 20.28C188.637 20.28 188.086 20.4853 187.629 20.896C187.181 21.3067 186.924 21.876 186.859 22.604H191.703Z" fill="white"/>
</svg>
