<svg width="91" height="85" viewBox="0 0 91 85" fill="none" xmlns="http://www.w3.org/2000/svg">
<path d="M10.1323 84.6127L10.069 83.5362C9.96767 81.6364 10.6009 78.9386 12.2348 77.2034C13.172 76.2155 14.3246 75.6836 15.5658 75.6836H55.6266C57.4378 75.6836 58.5777 76.7475 59.4516 77.7861L59.5529 77.9254C60.3889 79.2932 61.1488 80.9144 61.0855 83.4729L61.0601 84.5874H10.1323V84.6127ZM55.6266 77.9634H15.5785C14.9705 77.9634 14.4006 78.2294 13.9066 78.7613C13.058 79.6605 12.5514 81.0791 12.3994 82.3203H58.7803C58.6537 81.0791 58.2484 80.1545 57.6658 79.1793C56.8932 78.28 56.3359 77.9507 55.6393 77.9507L55.6266 77.9634Z" fill="#0DB14B"/>
<path d="M29.1179 69.121H6.87738C3.14107 69.0957 3.86349e-05 66.3346 3.86349e-05 62.459V27.8189C-0.0126268 23.9306 3.09041 21.0682 6.85205 21.0809L15.2619 21.1189C15.5406 22.0181 15.7812 22.7781 15.8825 23.6773L6.58608 23.766C4.61027 23.7786 2.71045 25.3998 2.71045 27.5276V62.7503C2.73578 64.8654 4.73692 66.4232 6.75073 66.4232H64.3532C66.557 66.4232 68.3809 64.8527 68.4315 62.7503C68.5328 58.7606 68.5455 54.5557 68.4188 50.6421C67.127 49.7555 65.8604 48.7549 65.7211 47.0451L55.3861 41.029C54.3349 41.8269 53.271 42.2575 51.8651 42.1562L46.229 53.2258C47.5462 54.7964 47.7868 56.7342 46.6596 58.4693C45.6843 59.9639 43.6452 60.7364 41.7834 60.0019C40.0229 59.3179 38.8577 57.5574 39.1616 55.2903L28.0667 48.6789C26.7622 49.5908 25.0903 49.7555 23.6085 49.2869L16.3385 56.5442C17.0477 58.5833 16.6551 60.5971 15.0086 61.7877C13.3621 62.9782 11.171 62.8136 9.71445 61.4204C8.35924 60.1285 8.0426 57.8994 9.11917 56.2149C10.1957 54.5304 12.2982 53.9224 14.4513 54.6824L21.468 47.2477C21.278 45.6772 20.9994 43.6887 22.4939 42.4349C23.7858 41.3583 25.6603 40.915 27.3321 41.8269C28.8773 42.6628 29.7005 44.398 29.4599 46.3358L40.5168 52.9345C41.5554 52.1873 42.594 51.9846 43.8099 51.9846L49.3953 40.9023C48.0021 39.2812 47.9388 37.2294 49.0154 35.6588C50.0919 34.0883 52.0804 33.4804 53.9042 34.1897C55.7281 34.8989 56.7666 36.7101 56.45 38.8505L66.1771 44.5373C67.4563 42.6755 69.4574 42.0676 71.6992 42.8275L84.9979 21.8662C83.7314 21.7902 81.0336 24.4879 80.2231 22.2841C80.0584 21.8282 80.1851 21.0049 80.8563 20.6883L88.4556 17.0026C88.8609 16.8126 89.3675 16.9773 89.6842 17.1546C89.9628 17.3066 90.2668 17.7499 90.2921 18.2818L90.6974 26.4131C90.7354 27.1857 90.2541 27.7176 89.6335 27.8189C87.1131 28.2496 88.4049 24.3106 87.6577 22.7781L73.5864 44.854C74.5489 47.2097 73.4724 49.5782 71.2053 50.5408L71.1293 62.7123C71.1039 66.4106 67.9249 69.0577 64.3026 69.0577H41.9987L29.0799 69.0703L29.1179 69.121Z" fill="#0DB14B"/>
<path d="M68.4933 40.4076V28.0588C68.4933 25.7917 66.9735 23.8032 64.5924 23.7905L55.3086 23.7146C55.3466 22.7646 55.6379 22.0554 55.9545 21.1055L64.8584 21.1308C68.4173 21.1308 71.1911 24.2465 71.1911 27.7802V40.357C70.3552 40.5216 69.6206 40.4456 68.4933 40.4076Z" fill="#0DB14B"/>
<path d="M29.0409 17.3703L28.9142 16.5597C28.5342 14.1152 30.1934 2.39969 34.1704 0.335218C34.905 -0.0447461 36.3868 -0.437375 38.084 1.19647C39.3759 2.70366 40.0345 4.3755 40.6677 6.11067C41.6557 9.34036 42.1749 12.4687 42.3523 16.3064L42.4029 17.2943L29.0409 17.3703ZM35.5382 1.89307C35.3103 1.89307 35.1583 1.98173 35.057 2.03239C32.5112 3.3496 30.7887 12.1901 30.7634 15.4704L40.4144 15.4198C40.1991 12.1901 39.7178 9.47968 38.8819 6.73127C38.3246 5.21142 37.7294 3.71689 36.7161 2.51368C36.2095 2.03239 35.8295 1.90573 35.5382 1.90573V1.89307Z" fill="#0DB14B"/>
<path d="M35.5633 35.6719C35.5633 35.6719 35.4747 35.6719 35.424 35.6719C34.3221 35.6212 33.5115 34.8866 33.0049 34.342C30.0538 30.6943 28.9393 24.159 28.8633 19.2321V18.2695H42.3393L42.314 19.2448C42.2507 21.6765 41.7441 29.9344 38.1217 34.3673L38.0711 34.4307C37.2731 35.2666 36.4372 35.6719 35.5506 35.6719H35.5633ZM30.8138 20.1693C31.0037 24.4756 32.0296 30.0991 34.4614 33.1008C34.854 33.5187 35.2213 33.7594 35.5253 33.7721C35.7913 33.7721 36.1333 33.7214 36.7032 33.1388C39.0843 30.1877 40.1609 24.6909 40.4015 20.1693H30.8264H30.8138Z" fill="#0DB14B"/>
<path d="M49.2306 17.4223C48.5847 17.4223 47.9514 17.4097 47.3181 17.397C46.3429 17.3717 45.3677 17.3464 44.3544 17.3844L43.4045 17.4097L43.3792 16.4598C43.2272 11.0643 42.2393 6.54272 40.2761 2.23646L39.3516 0.222656L41.4414 0.931922C48.1034 3.2117 52.587 8.89849 53.4356 16.1558L53.5369 17.0804L52.6123 17.207C51.4724 17.3717 50.3325 17.4097 49.2053 17.4097L49.2306 17.4223ZM45.3677 15.4719C46.0389 15.4719 46.7102 15.4845 47.3688 15.4972C48.762 15.5225 50.0919 15.5605 51.4344 15.4465C50.5478 10.165 47.4575 5.89678 42.9232 3.617C44.3038 7.25198 45.0637 11.0896 45.2663 15.4719H45.3803H45.3677Z" fill="#0DB14B"/>
<path d="M23.2915 17.4087C22.3416 17.4087 21.3917 17.3834 20.4164 17.3581C19.8592 17.3454 19.2892 17.3327 18.7066 17.3201H17.6934L17.782 16.2942C18.3773 9.23951 23.0635 3.22342 29.7255 0.943641L31.79 0.234375L30.8908 2.23552C28.839 6.82041 27.8764 11.152 27.8004 16.3195V17.1681L26.9518 17.2567C25.7106 17.3834 24.5074 17.4341 23.2788 17.4341L23.2915 17.4087ZM19.7958 15.4456C20.0238 15.4456 20.2518 15.4456 20.4671 15.4583C22.3542 15.5089 24.1527 15.5596 25.9386 15.4203C26.0779 11.2153 26.8378 7.39036 28.2817 3.60339C23.6841 5.92117 20.5558 10.2528 19.7958 15.4456Z" fill="#0DB14B"/>
<path d="M31.79 35.3191L29.7255 34.6352C23.0888 32.4567 18.4026 26.4533 17.782 19.3353L17.6934 18.3094L27.6991 18.2461L27.7371 19.158C28.003 24.8828 28.9403 29.1257 30.8781 33.3433L31.79 35.3191ZM19.7958 20.1839C20.5684 25.3388 23.7474 29.721 28.2564 31.9755C26.9265 28.4545 26.1792 24.6928 25.9006 20.1459L19.7958 20.1839Z" fill="#0DB14B"/>
<path d="M39.4658 35.3183L40.3144 33.3552C42.3282 28.7323 43.2908 24.2614 43.3288 19.2712V18.3339L53.4611 18.3086L53.3725 19.3345C52.7772 26.4018 48.1163 32.4052 41.4796 34.6344L39.4531 35.3183H39.4658ZM45.2286 20.2211C45.1019 24.3374 44.3547 28.1497 42.9361 31.9873C47.4577 29.7202 50.6241 25.3379 51.384 20.2084H45.2286V20.2211Z" fill="#0DB14B"/>
<path d="M27.0655 75.2387C26.9135 75.2387 26.7742 75.2133 26.6222 75.15C26.0396 74.9094 25.7736 74.2381 26.0142 73.6555C26.5082 72.4776 26.9008 71.7936 27.1921 71.287C27.6101 70.5651 27.8001 70.2358 27.9774 68.9566C28.066 68.336 28.636 67.9054 29.2693 67.9813C29.8899 68.07 30.3205 68.6526 30.2445 69.2732C30.0165 70.9071 29.6999 71.515 29.1679 72.4269C28.8766 72.9209 28.56 73.4908 28.1167 74.5294C27.9394 74.96 27.5088 75.226 27.0655 75.226V75.2387Z" fill="#0DB14B"/>
<path d="M44.1401 75.201C43.7221 75.201 43.3041 74.9604 43.1142 74.5551C42.8609 74.0358 42.6329 73.6558 42.4176 73.3012C41.8476 72.3766 41.3157 71.49 40.923 69.3242C40.8091 68.7036 41.227 68.1084 41.8476 68.007C42.4682 67.893 43.0635 68.311 43.1648 68.9316C43.4815 70.6794 43.8488 71.2874 44.3554 72.1233C44.6087 72.5413 44.8747 72.9846 45.166 73.5798C45.4446 74.1498 45.204 74.8337 44.634 75.0997C44.4694 75.1757 44.3047 75.2137 44.1401 75.2137V75.201Z" fill="#0DB14B"/>
</svg>
