<svg width="60" height="61" viewBox="0 0 60 61" fill="none" xmlns="http://www.w3.org/2000/svg">
<path d="M58.2081 58.2161L58.2498 48.4745C58.2498 47.9495 58.7081 47.5995 59.0998 47.5995C59.6748 47.5995 59.9915 48.0411 59.9915 48.6328V58.7078C59.9915 59.5495 59.3498 60.1745 58.4998 60.0411L51.1998 58.9411L27.6915 55.6828C27.0748 55.5995 26.6748 55.0328 26.6748 54.4161V31.9328C26.6748 31.1911 27.2331 30.6328 27.9831 30.6328H58.6415C59.5331 30.6328 59.9998 31.2578 59.9998 32.0745V44.3578C59.9831 44.8995 59.5498 45.2411 59.1081 45.2495C58.6665 45.2578 58.2748 44.8911 58.2498 44.3578L58.2331 32.4578H28.4415L28.4081 54.0161L50.3331 57.0328L58.2081 58.2161Z" fill="#0DB14B"/>
<path d="M27.9498 4.55744L39.8331 2.71577C40.3831 2.63244 40.8915 2.83244 41.0081 3.21577C41.1831 3.81577 40.8915 4.35744 40.2581 4.43244L28.4081 6.2991V27.8908L58.2248 27.6574V1.85744L44.4831 3.80744C43.9331 3.8241 43.5331 3.56577 43.4498 3.0741C43.3915 2.71577 43.6331 2.1491 44.1581 2.0741L58.4831 0.0157708C59.3665 -0.109229 59.9915 0.524104 59.9915 1.3741V28.1408C59.9831 28.9241 59.4081 29.4241 58.6498 29.4324L28.1415 29.6491C27.2915 29.6491 26.6748 29.1991 26.6748 28.2991V5.99077C26.6748 5.18244 27.1165 4.69077 27.9581 4.55744H27.9498Z" fill="#0DB14B"/>
<path d="M24.0167 55.1409L1.375 52.1242C0.516667 52.0159 0 51.5659 0 50.6826V31.7576C0 30.9742 0.541667 30.4492 1.34167 30.4492L24.3417 30.4659C25.1 30.4659 25.6583 31.0159 25.6583 31.7659V53.7492C25.6583 54.2409 25.525 54.5992 25.2167 54.8576C24.9583 55.0742 24.5833 55.2159 24.025 55.1409H24.0167ZM23.8583 32.1909L1.75 32.2076V50.3825L23.8667 53.3409V32.1909H23.8583Z" fill="#0DB14B"/>
<path d="M1.41667 29.8659C0.491667 29.8742 0 29.2825 0 28.4909V9.56585C0 8.86585 0.408333 8.29919 1.13333 8.19919L23.8083 5.16585C24.6417 4.89919 25.6333 5.39085 25.6333 6.33252L25.65 28.3159C25.65 29.2242 25.0167 29.6492 24.1667 29.6575L1.40833 29.8742L1.41667 29.8659ZM23.875 27.8909L23.8583 6.96585L1.74167 9.91585L1.75833 28.0909L23.8833 27.8909H23.875Z" fill="#0DB14B"/>
</svg>
