<svg width="70" height="66" viewBox="0 0 70 66" fill="none" xmlns="http://www.w3.org/2000/svg">
<path d="M47.6407 36.39C47.8307 35.87 47.7107 35.62 47.6007 35.39C47.4207 35.04 47.0907 34.91 46.6507 34.91L34.3707 34.89C32.4807 34.89 31.2707 33.12 31.6807 31.36C31.8407 30.68 32.0207 30.08 32.0007 29.44C28.2307 30.02 24.6207 28.93 22.0807 26.33C19.5407 23.73 18.5007 20.09 19.1907 16.36C20.7107 8.18 29.4407 2.71 37.3307 5.78L38.2307 2.03C38.5207 0.76 39.6607 0 40.9707 0H58.1907C59.2207 0.01 60.0507 0.6 60.5207 1.24C61.1207 2.06 61.3707 3.07 61.0207 4.08L54.8207 21.87L66.5007 21.91C67.7407 21.91 68.7407 22.72 69.2007 23.66C69.7207 24.74 69.7007 25.9 68.9007 26.97L40.5507 64.87C40.0607 65.52 39.3607 65.61 38.7607 65.36C38.2407 65.14 37.6507 64.46 37.9107 63.72L47.6407 36.39ZM49.6107 36.59L40.9707 61.01L67.3807 25.72C67.7207 25.27 67.5107 24.65 67.2907 24.29C67.1407 24.05 66.7107 23.88 66.2607 23.88L53.4007 23.86C52.7107 23.86 52.2807 23.15 52.5107 22.49L59.0907 3.67C59.2607 3.18 59.2307 2.81 58.9707 2.47C58.7407 2.16 58.4107 1.93 57.8907 1.93H40.9407C40.5407 1.93 40.1607 2.21 40.0807 2.57L39.1507 6.85C42.8307 9.42 44.4407 13.78 43.6007 18.21C42.6507 23.23 39.0207 27.18 34.2307 28.93C34.1307 29.88 32.7707 32.94 34.3607 32.95H47.0207C48.6607 33.13 50.2307 34.79 49.5907 36.6L49.6107 36.59ZM31.0307 27.59C36.7207 27.04 41.1907 22.51 41.8007 17C42.4107 11.49 38.3207 6.8 32.6907 6.87C26.6507 6.94 21.5107 11.75 20.9807 17.75C20.7307 20.59 21.6907 23.18 23.5607 25.04C25.4307 26.9 28.0607 27.88 31.0307 27.59Z" fill="#0DB14B"/>
<path d="M31.2302 13.6394L35.9102 13.6894C36.5402 13.6894 37.1202 13.2494 37.2602 12.7494C37.4002 12.2494 37.0702 11.7994 36.4402 11.7894L33.9702 11.7494C33.9702 11.3294 34.1702 10.9394 34.2402 10.5294C34.3402 9.96938 33.9702 9.60938 33.4002 9.60938C32.8202 9.60938 32.2702 9.98938 32.0702 10.5494C31.9302 10.9594 31.9102 11.3294 31.6902 11.7494C29.8702 11.7694 27.9102 12.9794 27.3602 14.6694C26.8202 16.3494 27.9702 17.8694 29.8002 17.8994L32.1602 17.9394C32.8802 17.9494 33.4902 18.4194 33.3102 19.1294C33.1602 19.7594 32.3302 20.2994 31.6402 20.2994L26.8202 20.2594C26.1802 20.2594 25.6002 20.7694 25.5202 21.2694C25.2802 22.6694 27.7502 21.9994 28.8502 22.2294C28.7802 22.6294 28.6502 22.9794 28.5602 23.3494C28.4302 23.9194 28.7902 24.3294 29.3402 24.3494C29.9402 24.3694 30.5102 23.9794 30.7102 23.4194C30.8602 23.0094 30.8602 22.6294 31.1102 22.2194C33.1002 22.1794 35.1902 20.7394 35.5102 18.9694C35.8102 17.3194 34.5802 16.1094 32.8102 16.0294C32.0602 15.9994 31.4302 15.9994 30.6802 15.9994C29.9302 15.9994 29.2802 15.5194 29.4802 14.7894C29.6602 14.1294 30.5102 13.6394 31.2102 13.6494L31.2302 13.6394Z" fill="#0DB14B"/>
<path d="M18.5802 11.1006H1.00017C0.410175 11.1006 -0.00982517 10.5606 0.00017483 10.1206C0.0101748 9.68062 0.420175 9.14062 1.00017 9.14062H18.5802C19.1802 9.14062 19.5702 9.66062 19.5802 10.1506C19.5802 10.5606 19.1802 11.1006 18.5802 11.1006Z" fill="#0DB14B"/>
<path d="M16.4006 18.1812L4.50062 18.2212C3.83062 18.2212 3.39062 17.8512 3.39062 17.2812C3.39062 16.7113 3.79062 16.2812 4.48062 16.2812H16.1506C16.7206 16.2812 17.0906 16.6513 17.1706 17.1213C17.2206 17.4413 17.0506 18.1812 16.4106 18.1812H16.4006Z" fill="#0DB14B"/>
<path d="M17.3305 25.3605L9.05053 25.3305C8.54053 25.3305 8.21052 24.8205 8.19052 24.4205C8.17052 24.0605 8.43053 23.4805 8.97053 23.4805L17.7405 23.5105C18.2705 23.5105 18.3805 24.2805 18.2905 24.6405C18.2005 25.0005 17.8505 25.3505 17.3205 25.3505L17.3305 25.3605Z" fill="#0DB14B"/>
</svg>
