<svg width="71" height="66" viewBox="0 0 71 66" fill="none" xmlns="http://www.w3.org/2000/svg">
<path d="M50.2333 35.1688C47.8033 41.4288 42.0933 45.4888 35.5533 45.5488C29.0133 45.6088 23.1033 41.4588 20.6633 35.2488C19.2533 31.6588 18.8633 28.1988 19.8133 24.4088C22.0033 15.6588 28.4533 6.85876 34.5633 0.34876C35.0033 -0.11124 35.8733 -0.12124 36.3133 0.34876C42.3933 6.84876 48.8833 15.6788 51.0533 24.4088C51.9833 28.1288 51.6633 31.4988 50.2433 35.1688H50.2333ZM45.7833 37.9988C48.0333 35.0888 49.0033 31.7788 49.1333 28.2688C48.4633 19.3388 41.2633 9.67876 35.4333 3.08876C29.6033 9.67876 22.3833 19.3488 21.7233 28.2688C21.8433 31.9688 22.9833 35.4988 25.3433 38.3588C30.6333 44.7788 40.6333 44.6788 45.7833 37.9988Z" fill="#0DB14B"/>
<path d="M35.1235 36.8794C34.2935 36.4794 33.4335 36.5094 32.5835 36.1894C30.5435 35.4194 28.8935 33.7694 28.8535 31.5294C28.8535 30.9694 29.6135 30.8594 29.9435 30.8694C31.6735 30.9394 30.2835 34.1894 35.0335 34.5894L35.0535 28.2494C33.8635 27.9994 32.7735 27.7494 31.7735 27.0494C29.9535 25.7794 29.0935 23.5794 29.6735 21.3994C30.6035 17.8794 34.5635 17.5594 34.8835 17.3994C35.0235 17.3294 35.0835 17.0394 35.0835 16.7494C35.0835 15.8694 35.4935 15.2794 36.3535 15.3494C38.0835 15.4794 36.8035 17.3594 38.1935 17.7794C40.4835 18.4694 42.0535 20.6194 41.7235 22.9994C41.6535 23.4794 41.1935 23.7894 40.8635 23.8494C39.0235 24.2194 40.4735 20.8794 37.5135 19.8394V26.4294C40.0035 26.9494 41.7135 28.6194 42.0035 30.9494C42.6235 35.8794 37.6335 36.6994 37.7435 36.6394C37.4735 36.7994 37.4535 37.1794 37.4335 37.5794C37.3935 38.3994 36.6535 38.7494 36.0735 38.6994C35.3035 38.6194 34.9535 37.9494 35.1135 36.8794H35.1235ZM35.0635 25.9094V19.5994C33.9635 19.5394 32.9235 20.1894 32.4035 20.8894C31.6535 21.8994 31.4535 23.0794 32.0235 24.1494C32.5935 25.2194 33.9135 25.9894 35.0635 25.9094ZM39.8735 31.1994C39.6635 29.8794 38.8735 28.8794 37.5135 28.7294L37.4935 34.5094C39.1635 34.4194 40.1535 32.9594 39.8735 31.1894V31.1994Z" fill="#0DB14B"/>
<path d="M55.7133 42.4271C54.7933 42.1771 54.3633 41.7871 54.4033 40.9871C54.4433 40.2771 55.0833 39.6771 55.9733 39.9171C60.5833 41.1671 66.1133 43.2371 69.2233 46.9571C71.4233 49.5871 71.3833 53.0171 69.1333 55.6271C65.1333 60.2771 56.8233 62.7071 50.8333 63.7571C40.5933 65.5671 30.2633 65.5671 20.0233 63.7571C14.0233 62.6971 5.74334 60.2771 1.72334 55.6271C-0.48666 53.0771 -0.58666 49.7171 1.51334 47.1071C4.58334 43.2871 10.0733 41.2871 14.6833 39.9571C15.5233 39.7171 16.2433 40.0771 16.3833 40.7471C16.5733 41.6371 16.1233 42.1671 15.2533 42.4071C11.3233 43.4871 6.15334 45.3971 3.53334 48.5671C2.16334 50.2271 2.18334 52.3671 3.58334 54.0371C7.13334 58.2571 15.3933 60.5071 20.8033 61.4071C33.1733 63.4671 50.1033 63.1871 61.6833 57.9971C63.7933 57.0571 65.6933 55.8571 67.1833 54.1771C68.6733 52.4971 68.7633 50.2971 67.3433 48.5671C64.7933 45.4571 59.7333 43.5471 55.7233 42.4371L55.7133 42.4271Z" fill="#0DB14B"/>
<path d="M55.1031 49.2885C52.2431 46.8285 49.1031 47.4485 49.4031 45.5285C49.5031 44.8585 50.2031 44.3285 50.9931 44.5585C53.9231 45.4085 58.6131 47.4085 58.3931 50.8585C58.1631 54.5485 52.3831 56.5485 49.1631 57.2785C40.1431 59.3285 30.7831 59.3285 21.7631 57.2785C18.5131 56.5385 12.7131 54.5685 12.4831 50.8585C12.2631 47.4185 16.9531 45.4085 19.8831 44.5585C20.5831 44.3585 21.2331 44.7685 21.4231 45.3085C21.6331 45.9085 21.3531 46.6385 20.6031 46.8985C19.0931 47.4285 15.0031 48.8485 15.0131 50.6285C15.0131 52.7685 20.7631 54.4985 22.7231 54.9285C31.1131 56.7685 39.7631 56.7685 48.1531 54.9285C49.9931 54.5285 58.4331 52.1385 55.1031 49.2885Z" fill="#0DB14B"/>
</svg>
