<svg width="24" height="24" viewBox="0 0 24 24" fill="none" xmlns="http://www.w3.org/2000/svg">
<g clip-path="url(#clip0_186_2253)">
<path d="M5.62659 0H18.3589C21.4622 0 23.9855 2.52326 23.9855 5.62659V18.3589C23.9855 21.4622 21.4622 23.9855 18.3589 23.9855H5.62659C2.52326 23.9855 0 21.4622 0 18.3589V5.62659C0 2.52326 2.52326 0 5.62659 0Z" fill="#0072BC"/>
<path d="M10.3396 18.5764H12.9934V11.9492H14.8351L15.0381 9.7305H12.9934V8.46887C12.9934 7.94681 13.0949 7.74379 13.6024 7.74379H15.0381V5.43805H13.2109C11.2387 5.43805 10.3541 6.30814 10.3541 7.96131V9.7305H8.97644V11.9782H10.3541V18.5909L10.3396 18.5764Z" fill="white"/>
</g>
<defs>
<clipPath id="clip0_186_2253">
<rect width="24" height="24" fill="white"/>
</clipPath>
</defs>
</svg>
