<svg width="24" height="24" viewBox="0 0 24 24" fill="none" xmlns="http://www.w3.org/2000/svg">
<g clip-path="url(#clip0_186_2252)">
<path d="M5.62659 0H18.3589C21.4622 0 23.9855 2.52326 23.9855 5.62659V18.3589C23.9855 21.4622 21.4622 23.9855 18.3589 23.9855H5.62659C2.52326 23.9855 0 21.4622 0 18.3589V5.62659C0 2.52326 2.52326 0 5.62659 0Z" fill="#0072BC"/>
<path d="M9.03445 9.32446H6.55469V17.3438H9.03445V9.32446Z" fill="white"/>
<path d="M7.78728 8.26586C8.59937 8.26586 9.25194 7.59879 9.25194 6.78671C9.25194 5.97463 8.59937 5.30756 7.78728 5.30756C6.9752 5.30756 6.32263 5.97463 6.32263 6.78671C6.32263 7.59879 6.9752 8.26586 7.78728 8.26586Z" fill="white"/>
<path d="M13.0079 13.1384C13.0079 12.0072 13.5299 11.3402 14.516 11.3402C15.4296 11.3402 15.8647 11.9782 15.8647 13.1384V17.3438H18.3299V12.2683C18.3299 10.1221 17.1118 9.07794 15.4151 9.07794C13.7184 9.07794 12.9934 10.3976 12.9934 10.3976V9.30997H10.6151V17.3293H12.9934V13.1239L13.0079 13.1384Z" fill="white"/>
</g>
<defs>
<clipPath id="clip0_186_2252">
<rect width="24" height="24" fill="white"/>
</clipPath>
</defs>
</svg>
