<svg width="24" height="24" viewBox="0 0 24 24" fill="none" xmlns="http://www.w3.org/2000/svg">
<g clip-path="url(#clip0_186_2251)">
<path d="M5.62659 0H18.3589C21.4767 0 24 2.52326 24 5.62659V18.3589C24 21.4622 21.4767 23.9855 18.3734 23.9855H5.62659C2.52326 23.9855 0 21.4622 0 18.3589V5.62659C0 2.52326 2.52326 0 5.62659 0Z" fill="#0072BC"/>
<path d="M11.9928 6.59821C13.7475 6.59821 13.9505 6.59821 14.6465 6.64171C15.2846 6.67071 15.6326 6.77222 15.8647 6.87373C16.1692 6.98975 16.3867 7.13476 16.6188 7.36679C16.8508 7.59881 16.9958 7.81633 17.1118 8.12086C17.1988 8.35289 17.3148 8.70093 17.3438 9.33899C17.3728 10.0351 17.3873 10.2381 17.3873 11.9928C17.3873 13.7475 17.3873 13.9505 17.3438 14.6465C17.3148 15.2846 17.2133 15.6326 17.1118 15.8647C16.9958 16.1692 16.8508 16.3867 16.6188 16.6188C16.3867 16.8508 16.1692 16.9958 15.8647 17.1118C15.6326 17.1988 15.2846 17.3148 14.6465 17.3438C13.9505 17.3728 13.7475 17.3873 11.9928 17.3873C10.2381 17.3873 10.0351 17.3873 9.33899 17.3438C8.70093 17.3148 8.35289 17.2133 8.12086 17.1118C7.81633 16.9958 7.59881 16.8508 7.36679 16.6188C7.13476 16.3867 6.98975 16.1692 6.87373 15.8647C6.78673 15.6326 6.67071 15.2846 6.64171 14.6465C6.61271 13.9505 6.59821 13.7475 6.59821 11.9928C6.59821 10.2381 6.59821 10.0351 6.64171 9.33899C6.67071 8.70093 6.77222 8.35289 6.87373 8.12086C6.98975 7.81633 7.13476 7.59881 7.36679 7.36679C7.59881 7.13476 7.81633 6.98975 8.12086 6.87373C8.35289 6.78673 8.70093 6.67071 9.33899 6.64171C10.0351 6.61271 10.2381 6.59821 11.9928 6.59821ZM11.9928 5.42358C10.2091 5.42358 9.97706 5.42358 9.28099 5.46709C8.58491 5.49609 8.10636 5.6121 7.68582 5.77162C7.25077 5.94564 6.88824 6.16316 6.5257 6.5257C6.16316 6.88824 5.93114 7.26528 5.77162 7.68582C5.6121 8.10636 5.49609 8.58491 5.46709 9.28099C5.43809 9.97706 5.42358 10.2091 5.42358 11.9928C5.42358 13.7765 5.42358 14.0085 5.46709 14.7046C5.49609 15.4006 5.6121 15.8792 5.77162 16.2997C5.94564 16.7348 6.16316 17.0973 6.5257 17.4598C6.88824 17.8224 7.26528 18.0544 7.68582 18.2139C8.10636 18.3734 8.58491 18.4894 9.28099 18.5184C9.97706 18.5475 10.2091 18.562 11.9928 18.562C13.7765 18.562 14.0085 18.562 14.7046 18.5184C15.4006 18.4894 15.8792 18.3734 16.2997 18.2139C16.7348 18.0399 17.0973 17.8224 17.4598 17.4598C17.8224 17.0973 18.0544 16.7203 18.2139 16.2997C18.3734 15.8792 18.4894 15.4006 18.5184 14.7046C18.5475 14.0085 18.562 13.7765 18.562 11.9928C18.562 10.2091 18.562 9.97706 18.5184 9.28099C18.4894 8.58491 18.3734 8.10636 18.2139 7.68582C18.0399 7.25077 17.8224 6.88824 17.4598 6.5257C17.0973 6.16316 16.7203 5.93114 16.2997 5.77162C15.8792 5.6121 15.4006 5.49609 14.7046 5.46709C14.0085 5.43809 13.7765 5.42358 11.9928 5.42358Z" fill="white"/>
<path d="M11.9927 8.61389C10.122 8.61389 8.61389 10.122 8.61389 11.9927C8.61389 13.8634 10.122 15.3716 11.9927 15.3716C13.8634 15.3716 15.3716 13.8634 15.3716 11.9927C15.3716 10.122 13.8634 8.61389 11.9927 8.61389ZM11.9927 14.197C10.7746 14.197 9.80302 13.2109 9.80302 12.0072C9.80302 10.8036 10.7891 9.81752 11.9927 9.81752C13.1964 9.81752 14.1825 10.8036 14.1825 12.0072C14.1825 13.2109 13.1964 14.197 11.9927 14.197Z" fill="white"/>
<path d="M16.2997 8.4834C16.2997 8.91844 15.9516 9.26648 15.5166 9.26648C15.0816 9.26648 14.7335 8.91844 14.7335 8.4834C14.7335 8.04835 15.0816 7.70032 15.5166 7.70032C15.9516 7.70032 16.2997 8.04835 16.2997 8.4834Z" fill="white"/>
</g>
<defs>
<clipPath id="clip0_186_2251">
<rect width="24" height="24" fill="white"/>
</clipPath>
</defs>
</svg>
