<svg width="24" height="24" viewBox="0 0 24 24" fill="none" xmlns="http://www.w3.org/2000/svg">
<g clip-path="url(#clip0_186_2250)">
<path d="M5.62659 0H18.3589C21.4767 0 24 2.52326 24 5.62659V18.3589C24 21.4622 21.4767 23.9855 18.3734 23.9855H5.62659C2.52326 23.9855 0 21.4622 0 18.3589V5.62659C0 2.52326 2.52326 0 5.62659 0Z" fill="#0072BC"/>
<path d="M6.74315 18.4315L11.0211 13.4574L14.5015 18.562H18.3879L13.1528 10.9632L17.8948 5.43811H16.8072L12.6598 10.2381L9.38243 5.48161H5.59753L10.5135 12.7179L5.59753 18.417C5.98907 18.446 6.35161 18.4315 6.72865 18.417L6.74315 18.4315Z" fill="white"/>
<path d="M15.0526 17.6919L11.6012 12.7759L12.5728 11.6593L16.8072 17.6774L15.0526 17.6919Z" fill="#0072BC"/>
<path d="M12.0652 10.9342L11.0936 12.0654L7.07666 6.33726L8.81684 6.32275L12.0652 10.9342Z" fill="#0072BC"/>
</g>
<defs>
<clipPath id="clip0_186_2250">
<rect width="24" height="24" fill="white"/>
</clipPath>
</defs>
</svg>
