<svg width="24" height="24" viewBox="0 0 24 24" fill="none" xmlns="http://www.w3.org/2000/svg">
<g clip-path="url(#clip0_186_2254)">
<path d="M5.62659 0H18.3589C21.4767 0 24 2.52479 24 5.62999V18.37C24 21.4752 21.4767 24 18.3734 24H5.62659C2.52326 24 0 21.4752 0 18.37V5.62999C0 2.52479 2.52326 0 5.62659 0Z" fill="#0072BC"/>
<path d="M15.7486 16.4982C13.3994 16.6288 11.0936 16.6288 8.77338 16.5417C8.19332 16.5127 7.64227 16.4837 7.07671 16.4111C6.43864 16.324 5.91659 15.9177 5.74257 15.2938C5.33653 13.9298 5.29302 9.59127 5.97459 8.34338C6.19212 7.9371 6.62716 7.6614 7.09121 7.58885C7.65677 7.5163 8.17882 7.48728 8.75888 7.47277C10.9631 7.38571 13.1528 7.38571 15.3571 7.47277C15.9371 7.50179 16.4737 7.5163 17.0392 7.60336C17.6483 7.69042 18.1269 8.12573 18.3009 8.72065C18.7214 10.1281 18.6924 13.9153 18.2429 15.3373C18.0979 15.8017 17.7353 16.2225 17.2568 16.3385C16.7782 16.4546 16.2997 16.4836 15.7776 16.5127L15.7486 16.4982ZM14.458 11.8694L10.4121 9.73637L10.3686 13.9879L14.458 11.8694Z" fill="white"/>
</g>
<defs>
<clipPath id="clip0_186_2254">
<rect width="24" height="24" fill="white"/>
</clipPath>
</defs>
</svg>
