<svg width="79" height="79" viewBox="0 0 79 79" fill="none" xmlns="http://www.w3.org/2000/svg">
<g clip-path="url(#clip0_55_3438)">
<path d="M18.3894 69.7243C33.8246 80.4929 54.6863 77.8837 67.0013 64.0685C79.3163 50.2533 79.4821 29.078 67.1219 15.0819C54.8069 1.13092 33.9151 -1.49336 18.4497 9.24508L14.3799 9.04902C30.5688 -4.35896 54.204 -2.60944 68.3127 12.4425C82.5421 27.6151 82.5873 51.1884 68.4182 66.4213C54.2492 81.6542 30.7497 83.3585 14.4553 70.0108C15.7516 69.5131 16.867 69.9807 18.4045 69.7243H18.3894Z" fill="#0DB14B"/>
<path d="M52.6662 44.7784L52.6361 48.6243C51.7467 48.7752 50.9177 48.7752 50.0284 48.6243V44.7633H42.1299C42.2203 43.8433 41.949 42.8328 42.1902 41.9581L49.4706 30.3147C50.6464 30.2694 51.5659 30.2091 52.6662 30.3599V42.0787L53.9022 42.1843C53.9927 42.9535 54.068 43.7227 53.9022 44.5673C53.8419 44.8991 53.2239 44.7181 52.6813 44.7784H52.6662ZM50.0284 42.124L49.953 34.4472L45.1898 42.0938L50.0284 42.124Z" fill="#0DB14B"/>
<path d="M40.7132 48.6847L30.4482 48.7299C29.5287 44.5069 31.8802 40.3895 35.8596 38.7757C36.8393 38.3836 37.6382 37.539 37.9698 36.619C38.5426 35.0354 37.7136 33.4668 36.2364 33.0294C34.7592 32.5921 33.1011 33.6026 32.875 35.3672C32.0761 35.6839 31.232 35.6387 30.2673 35.4275C30.3125 32.3508 33.0257 30.0432 35.9952 30.3147C38.9647 30.5862 41.1805 33.3009 40.7132 36.4078C39.839 42.1994 33.8246 40.1934 32.9504 46.0755L40.668 46.1358C40.8489 46.9804 40.8489 47.5837 40.6981 48.6997L40.7132 48.6847Z" fill="#0DB14B"/>
<path d="M2.57735 53.3903C-0.844326 44.522 -0.8594 34.5075 2.59242 25.5337V53.3903H2.57735Z" fill="#0DB14B"/>
<path d="M56.6077 46.095L56.604 48.7192L59.2268 48.7229L59.2304 46.0986L56.6077 46.095Z" fill="#0DB14B"/>
<path d="M61.8757 46.095L61.8721 48.7192L64.4948 48.7229L64.4985 46.0986L61.8757 46.095Z" fill="#0DB14B"/>
<path d="M67.1287 46.095L67.125 48.7192L69.7478 48.7229L69.7514 46.0986L67.1287 46.095Z" fill="#0DB14B"/>
<path d="M7.89817 60.4486C7.89817 62.8014 9.61655 64.5056 11.7871 64.5056L30.1315 64.5358C32.5282 64.5358 34.2466 62.7109 34.2466 60.343V51.4596C35.151 51.2786 35.9348 51.2786 36.8844 51.4596L36.8392 60.8256C36.8241 64.2945 33.93 67.145 30.4028 67.1299H11.7268C8.12427 67.1299 5.27539 64.1889 5.27539 60.5541V18.4449C5.27539 14.8252 8.12427 11.8691 11.7268 11.8691H30.6289C34.1561 11.8993 36.8392 14.9911 36.8392 18.3997V27.5545C35.9348 27.7053 35.1359 27.7204 34.2164 27.5545V18.4299C34.2014 16.1525 32.3925 14.4783 30.1165 14.4783L11.7721 14.5085C9.60147 14.5085 7.89817 16.2429 7.89817 18.46V60.4486Z" fill="#0DB14B"/>
<path d="M28.413 22.8037C24.2226 18.7164 17.8767 18.7164 13.7164 22.8037C13.023 22.1702 12.4955 21.7027 11.8774 20.9637C16.8668 15.8659 25.0667 15.7754 30.2068 20.9184C29.7696 21.6273 29.227 21.9591 28.413 22.8037Z" fill="#0DB14B"/>
<path d="M24.7655 26.529C22.5648 24.5231 19.5199 24.4929 17.3493 26.529L15.5405 24.7041C18.6004 21.567 23.65 21.6273 26.5592 24.7493L24.7806 26.5441L24.7655 26.529Z" fill="#0DB14B"/>
<path d="M22.3689 57.9448H19.7461V60.5842H22.3689V57.9448Z" fill="#0DB14B"/>
<path d="M21.0876 30.2392C20.3942 29.6962 19.8968 29.1382 19.2788 28.4293C20.2435 27.4038 21.8564 27.4038 22.8211 28.4293C22.2634 29.1231 21.781 29.5605 21.0725 30.2392H21.0876Z" fill="#0DB14B"/>
</g>
<defs>
<clipPath id="clip0_55_3438">
<rect width="79" height="79" fill="white"/>
</clipPath>
</defs>
</svg>
