<svg width="63" height="60" viewBox="0 0 63 60" fill="none" xmlns="http://www.w3.org/2000/svg">
<path d="M51.5831 49.8619C40.856 62.3075 21.6518 62.2986 10.9336 49.8619C6.16796 49.7291 2.04898 46.5579 0.587403 42.1643C-0.971611 37.4961 0.640551 32.385 4.61781 29.4442C5.6542 19.9749 11.7042 11.6838 20.5091 7.83057C22.015 3.16239 26.3377 0.017791 31.2362 7.48913e-05C36.1347 -0.0176412 40.5106 3.10924 42.0253 7.83057C50.7504 11.6307 56.8625 19.8864 57.9077 29.4442C61.8495 32.3407 63.4971 37.3987 61.9558 42.1023C60.512 46.5136 56.3664 49.7202 51.5831 49.8619ZM40.1562 11.3029C40.1562 6.39557 36.1701 2.40946 31.2628 2.40946C26.3554 2.40946 22.3693 6.39557 22.3693 11.3029C22.3693 16.2103 26.3554 20.1964 31.2628 20.1964C36.1701 20.1964 40.1562 16.2103 40.1562 11.3029ZM20.0928 13.0922C19.9599 12.2507 19.9688 11.5421 19.9333 10.7714C13.2544 14.2704 8.59506 20.6481 7.26636 27.9915C8.0813 27.7169 8.76337 27.5131 9.53401 27.398C10.9247 21.3834 14.716 16.2191 20.0928 13.0922ZM52.9915 27.4068C53.833 27.5131 54.5151 27.7434 55.2503 27.9826C53.895 20.595 49.2003 14.2349 42.5745 10.7714C42.5922 11.6041 42.5302 12.3216 42.4416 13.1011C47.8007 16.228 51.5919 21.3745 52.9915 27.4157V27.4068ZM50.4758 27.2651C49.094 22.2603 46.0114 18.1945 41.7595 15.5016C39.9968 19.8509 35.8335 22.6146 31.2185 22.6058C26.6034 22.5969 22.5022 19.8243 20.7571 15.5016C16.4787 18.2033 13.3873 22.3312 12.0408 27.274C16.647 27.584 20.5623 30.6666 21.9973 34.9007C23.5563 39.4892 22.077 44.4408 18.3035 47.4437C25.7088 53.8835 36.8788 53.8392 44.2221 47.4437C40.4131 44.4142 38.9604 39.436 40.546 34.8564C41.9987 30.64 45.8874 27.6017 50.4758 27.274V27.2651ZM20.2079 38.5591C20.2079 33.6429 16.2218 29.6568 11.3056 29.6568C6.38941 29.6568 2.4033 33.6429 2.4033 38.5591C2.4033 43.4753 6.38941 47.4614 11.3056 47.4614C16.2218 47.4614 20.2079 43.4753 20.2079 38.5591ZM60.1134 38.5591C60.1134 33.6429 56.1273 29.6656 51.2199 29.6656C46.3126 29.6656 42.3264 33.6517 42.3264 38.5591C42.3264 43.4664 46.3126 47.4525 51.2199 47.4525C56.1273 47.4525 60.1134 43.4664 60.1134 38.5591ZM13.963 49.5785C23.5031 59.2249 39.1376 59.154 48.5802 49.543C47.7298 49.3747 47.0744 49.0913 46.3569 48.7724C37.8797 56.6206 24.6812 56.6472 16.1687 48.7812C15.4157 49.109 14.7248 49.3482 13.963 49.5696V49.5785Z" fill="#0DB14B"/>
<path d="M32.4674 17.4493C32.5294 18.2288 31.9979 18.8134 31.2981 18.8311C30.5983 18.8489 30.0049 18.2377 30.058 17.4759C30.0669 17.3164 30.1023 17.0153 30.0137 16.9001C29.2874 16.6078 28.6761 16.1649 28.251 15.5005C27.8878 14.9248 28.0561 14.1984 28.5876 13.8441C29.1545 13.4632 29.9163 13.6315 30.2972 14.2161C30.492 14.5084 30.8198 14.6502 31.1475 14.6324C31.4753 14.6147 31.7765 14.3933 31.9448 14.0744C32.1396 13.6935 32.0865 13.3037 31.8828 12.9406C31.679 12.5774 31.2981 12.5154 30.8552 12.4445C29.3405 12.1876 28.2775 10.9209 28.0827 9.48592C27.8789 7.95349 28.6496 6.49191 30.0403 5.83642C30.0757 5.55296 30.0669 5.31379 30.058 5.04805C30.0226 4.31283 30.6072 3.7282 31.307 3.75478C32.0068 3.78135 32.5382 4.3837 32.4762 5.12777C32.4674 5.28722 32.432 5.57953 32.5205 5.69469C33.2912 5.99586 33.9555 6.46534 34.3453 7.20055C34.6553 7.78518 34.4162 8.46725 33.8758 8.77728C33.3355 9.08731 32.6268 8.9633 32.2725 8.40524C32.0333 8.04207 31.6436 7.89148 31.183 8.00663C30.6426 8.13065 30.4035 8.77728 30.5009 9.27333C30.6249 9.88454 31.121 10.0528 31.7056 10.1414C33.1937 10.3717 34.2478 11.6561 34.4427 13.0469C34.6642 14.5882 33.9112 16.0497 32.5117 16.7229C32.4497 16.9444 32.4497 17.1658 32.4762 17.4316L32.4674 17.4493Z" fill="#0DB14B"/>
<path d="M52.4424 43.0132L52.4069 44.2976C52.3892 44.9442 51.7426 45.3605 51.1579 45.3251C50.5024 45.2897 50.0064 44.7671 50.0153 44.085C50.0153 43.7307 50.033 43.3941 50.0153 43.0486C49.8558 42.9866 49.6964 42.9777 49.5192 42.9955C48.7751 43.0752 48.1551 42.5348 48.1374 41.8173C48.1196 41.0998 48.7397 40.5241 49.5281 40.5861C49.6521 40.5949 49.9975 40.6304 50.0153 40.4886C50.0507 40.2672 49.7318 40.338 49.5989 40.3203C48.8371 40.4443 48.1728 39.9217 48.1374 39.2131C48.0931 38.4424 48.7043 37.8755 49.5635 37.9198L47.1807 35.2447C46.7289 34.7398 46.7201 34.0488 47.1718 33.5705C47.6236 33.0922 48.4031 33.0213 48.8726 33.5351L51.2288 36.1128L53.5053 33.5882C53.9659 33.0833 54.6923 33.0656 55.1795 33.4731C55.6667 33.8805 55.773 34.6512 55.3124 35.165L52.8587 37.9109C53.6559 37.8578 54.2671 38.3538 54.3025 39.0713C54.338 39.7888 53.7356 40.4089 52.9561 40.3292C52.8144 40.3646 52.4778 40.2583 52.4335 40.4C52.3803 40.6392 52.7258 40.6038 52.8764 40.5861C53.585 40.5152 54.2051 40.9492 54.2937 41.6225C54.3823 42.2957 53.9482 42.898 53.2484 42.9866C53.0004 43.0132 52.7612 42.9866 52.4335 43.0043L52.4424 43.0132Z" fill="#0DB14B"/>
<path d="M12.0585 41.6145L10.1717 41.6499C10.8538 42.4737 11.8636 42.9521 12.9354 42.9698C13.6529 42.9786 14.211 43.4924 14.211 44.1922C14.211 44.892 13.6618 45.4057 12.9354 45.388C10.4906 45.3437 8.35582 43.891 7.36372 41.6677C7.27514 41.5702 7.00054 41.6145 6.87652 41.6234C6.14131 41.6499 5.57439 41.1185 5.56554 40.4275C5.55668 39.7366 6.10588 39.1874 6.84995 39.2051C6.88538 38.7534 6.87652 38.337 6.85881 37.8853C6.11473 37.9384 5.57439 37.3538 5.56554 36.6806C5.55668 35.9542 6.2476 35.4139 6.92967 35.4847C7.04483 35.4936 7.31943 35.5379 7.36372 35.4405C8.34696 33.2171 10.4817 31.7732 12.9354 31.7289C13.6706 31.7112 14.1933 32.2516 14.2021 32.9336C14.211 33.6157 13.6441 34.1383 12.9266 34.156C11.837 34.1738 10.8449 34.6432 10.1629 35.4759C10.7475 35.5113 11.279 35.5025 11.8547 35.4936C12.5545 35.4759 13.0949 35.9719 13.1392 36.6274C13.1834 37.2829 12.6608 37.903 11.9345 37.903L9.29477 37.9207V39.2228L12.0142 39.2405C12.6431 39.2405 13.1126 39.7986 13.1392 40.3744C13.1657 40.9502 12.7405 41.6145 12.0496 41.6234L12.0585 41.6145Z" fill="#0DB14B"/>
</svg>
