<svg width="69" height="61" viewBox="0 0 69 61" fill="none" xmlns="http://www.w3.org/2000/svg">
<g clip-path="url(#clip0_55_3264)">
<path d="M13.3347 49.2943C11.2024 49.3591 9.31915 49.3591 7.32762 49.2943C3.27962 49.1756 0.0217426 45.9498 0.0109191 41.9256V35.3875C9.5549e-05 34.7618 0.487154 34.3518 1.14739 34.3518H19.634C20.2076 34.3518 20.6406 34.8265 20.6406 35.3552V41.9256C20.6297 45.9174 17.426 49.1649 13.3347 49.2943ZM13.4862 47.2768C16.5276 47.2552 18.6707 44.558 18.6599 41.6882L18.6382 36.3154H2.07821C2.07821 38.4084 1.93751 40.3612 2.09986 42.4111C2.33798 45.3996 5.02221 47.3415 7.94457 47.32L13.497 47.2768H13.4862Z" fill="#0DB14B"/>
<path d="M45.2535 60.9893H23.8446C23.2709 60.9893 22.9246 60.6333 22.773 60.1154C22.8596 58.2274 22.6432 56.4148 22.8488 54.516C23.2276 50.9341 26.5613 48.8411 30.198 49.4776L30.2196 26.8103C27.2215 24.3073 24.8079 21.459 22.9462 17.9743H11.9603L18.6601 31.2337C18.9632 31.8271 18.5302 32.4421 18.0431 32.5823C17.5561 32.7226 17.069 32.4744 16.7768 31.9026L10.3368 19.4092L3.8968 31.9566C3.60456 32.5176 3.12833 32.6794 2.58715 32.55C2.21915 32.4636 1.73209 31.8487 2.0135 31.2877L8.74574 17.9743L1.1368 17.9311C0.509032 17.9311 0.0219727 17.4996 0.0219727 16.863L0.0436197 11.3391C0.0436197 10.7242 0.584796 10.4113 1.16927 10.4113L20.2944 10.3897C19.8182 7.61699 19.5152 4.96294 20.0239 2.22258C29.5161 -0.765925 39.5387 -0.765925 49.0093 2.22258C49.518 4.97373 49.2149 7.62778 48.7387 10.4005L67.8639 10.4221C68.5782 10.4221 69.022 10.8536 69.022 11.5657V16.8738C69.022 17.3485 68.6756 17.8987 68.1344 17.8987L60.2982 18.0174L66.9439 31.115C67.2144 31.6437 66.9872 32.2371 66.5975 32.4636C66.1213 32.7334 65.461 32.5931 65.158 31.9997L58.7072 19.4092L52.1589 32.0752C51.8667 32.6471 51.2064 32.6686 50.8601 32.5068C50.3297 32.2371 50.1566 31.6221 50.4488 31.0503L57.062 17.9635H46.0761C44.2253 21.4483 41.8116 24.2965 38.8135 26.7995V49.456C40.9241 49.2295 42.7208 49.4668 44.2253 50.7615C45.5133 51.8619 46.2709 53.5558 46.2601 55.4978L46.2384 59.8888C46.2384 60.3528 45.9679 60.9785 45.2643 60.9893H45.2535ZM34.5274 27.339C42.829 22.279 47.6996 13.389 47.1801 3.76538C38.8676 1.41342 30.1439 1.40263 21.8097 3.76538C21.3119 13.4106 26.269 22.4193 34.5274 27.3282V27.339ZM21.8747 15.9028L20.6733 12.4288L2.11091 12.4504C1.97021 13.6479 2.04597 14.5974 2.06762 15.8812L21.8747 15.9136V15.9028ZM66.9006 15.9244C67.0088 14.5866 67.0196 13.6587 66.8897 12.4504H48.2408L47.1152 15.9352H66.9006V15.9244ZM36.757 28.3963C35.7504 28.7091 35.3067 29.4536 34.4949 29.432C33.6832 29.4104 33.142 28.6336 32.2328 28.3639V49.3913C33.8671 49.4129 35.285 49.5316 36.7787 49.3266L36.7462 28.3963H36.757ZM44.2469 58.9934V55.0015C44.0521 53.0919 42.6017 51.4412 40.5994 51.4412H28.4121C26.4422 51.4412 24.9053 53.0919 24.7754 55.0015C24.6888 56.3393 24.7321 57.5369 24.7754 59.0042L44.2469 58.9826V58.9934Z" fill="#0DB14B"/>
<path d="M31.1504 16.5826L27.9574 11.5334C27.6652 11.0803 27.8384 10.5085 28.1739 10.2495C28.4337 10.0445 29.148 9.86113 29.4402 10.2927L32.2868 14.5758L40.3179 7.19629C40.7508 6.79711 41.4111 6.96973 41.6925 7.34734C41.9522 7.69258 42.0388 8.30754 41.5951 8.71752L32.7631 16.8847C32.2327 17.3702 31.4751 17.122 31.1287 16.5826H31.1504Z" fill="#0DB14B"/>
<path d="M61.7917 49.2835C59.5945 49.3698 57.6463 49.3698 55.5898 49.2835C51.5851 49.1325 48.3922 45.9174 48.3813 41.9256V35.3444C48.3813 34.8049 48.7926 34.3518 49.3663 34.3518H67.8529C68.5023 34.3518 69.0002 34.751 69.0002 35.3767V41.9148C68.9785 45.8419 65.8505 49.1109 61.7917 49.2727V49.2835ZM61.6943 47.2876C64.5517 47.2013 66.8355 44.9141 66.9437 42.1845C67.0195 40.1778 66.987 38.3437 66.9329 36.3154H50.3621L50.3512 41.6882C50.3512 44.6659 52.635 47.1905 55.6656 47.2876C57.6679 47.3523 59.5188 47.3523 61.7051 47.2876H61.6943Z" fill="#0DB14B"/>
</g>
<defs>
<clipPath id="clip0_55_3264">
<rect width="69" height="61" fill="white"/>
</clipPath>
</defs>
</svg>
