<svg width="67" height="59" viewBox="0 0 67 59" fill="none" xmlns="http://www.w3.org/2000/svg">
<g clip-path="url(#clip0_55_3272)">
<path d="M51.9577 58.9785H15.1506C10.8172 58.9893 7.51553 55.5631 7.52639 51.318L7.54812 40.6407C7.54812 39.9835 8.17804 39.6064 8.65591 39.6387C9.30756 39.6818 9.66596 40.1235 9.67682 40.8239L9.73113 51.6736C9.74199 54.5934 12.1965 56.7698 15.1181 56.8452H32.3649L32.3867 49.9066L24.2302 49.8743C23.2528 49.7557 23.1659 48.9692 23.1333 48.1611C22.9378 43.6575 25.2294 39.6387 29.3674 37.7747C27.6514 35.4583 28.0532 32.6031 29.9213 30.8361C31.8871 28.9829 34.9498 28.929 36.9808 30.7283C39.0117 32.5277 39.4136 35.4044 37.6541 37.764C41.7921 39.6387 44.0837 43.6575 43.8991 48.1611C43.8665 48.9584 43.7796 49.745 42.813 49.8635L34.6457 49.8958V56.8237H51.9034C54.8358 56.8237 57.2795 54.5503 57.2904 51.6736L57.3555 41.438C57.3555 40.77 57.8008 40.4252 58.3656 40.3929C58.9304 40.3606 59.4734 40.7592 59.4842 41.4488V51.318C59.506 55.4446 56.3455 58.9678 51.9686 58.9678L51.9577 58.9785ZM36.5463 34.6071C36.5463 32.9371 35.1887 31.5903 33.5053 31.5903C31.8219 31.5903 30.4643 32.9371 30.4643 34.6071C30.4643 36.2771 31.8219 37.6239 33.5053 37.6239C35.1887 37.6239 36.5463 36.2771 36.5463 34.6071ZM35.4711 39.3155C34.1027 40.4468 32.7233 39.3478 31.4961 39.5202C27.6731 40.0589 25.0991 44.0346 25.3815 47.7086L41.6509 47.7302C41.8572 43.7221 39.2832 40.3498 35.4711 39.3155Z" fill="#0DB14B"/>
<path d="M19.6255 32.2475H1.37947C0.901598 32.2475 0.510611 32.129 0.315117 31.9135C0.0218768 31.601 0.0870413 31.2024 0.0435983 30.7606C-0.336528 26.2354 1.96595 22.0981 6.20165 20.1803C4.60512 17.9716 4.85491 15.0841 6.69038 13.3063C8.6779 11.3777 11.7189 11.3131 13.7716 13.08C15.8243 14.847 16.237 17.8207 14.5101 20.1587C18.6915 22.0766 21.0483 26.2031 20.7008 30.7606C20.6465 31.461 20.6356 32.1505 19.6364 32.2475H19.6255ZM13.3915 16.9803C13.3915 15.3103 12.0339 13.9635 10.3505 13.9635C8.66704 13.9635 7.30944 15.3103 7.30944 16.9803C7.30944 18.6503 8.66704 19.9971 10.3505 19.9971C12.0339 19.9971 13.3915 18.6503 13.3915 16.9803ZM18.4743 30.1034C18.7132 26.0631 16.0849 22.7446 12.4466 21.7749C10.9804 22.4106 9.5902 22.2705 8.14572 21.7857C4.42048 22.8523 2.0094 26.257 2.18317 30.125L18.4743 30.1034Z" fill="#0DB14B"/>
<path d="M65.6313 32.2582H47.4721C46.4838 32.2582 46.3643 31.5471 46.31 30.7606C45.9733 26.2461 48.2541 22.0873 52.5006 20.1694C50.8389 17.9068 51.1539 14.9547 53.1306 13.1769C55.1072 11.3992 58.1699 11.3345 60.2118 13.1985C62.2536 15.0624 62.4491 17.9176 60.82 20.1802C65.0557 22.098 67.3473 26.2354 66.978 30.7713C66.9454 31.2023 67.0106 31.601 66.7065 31.9242C66.5001 32.1397 66.12 32.269 65.6421 32.269L65.6313 32.2582ZM59.6905 16.9803C59.6905 15.3102 58.3329 13.9635 56.6494 13.9635C54.966 13.9635 53.6084 15.3102 53.6084 16.9803C53.6084 18.6503 54.966 19.9971 56.6494 19.9971C58.3329 19.9971 59.6905 18.6503 59.6905 16.9803ZM64.8384 30.0818C64.9362 26.0522 62.4165 22.723 58.7564 21.7748C57.3337 22.3351 55.9761 22.3566 54.5425 21.7748C50.8389 22.7661 48.2215 26.2138 48.5473 30.1357L64.8384 30.0926V30.0818Z" fill="#0DB14B"/>
<path d="M47.4615 13.845C47.4615 21.4947 41.2165 27.6899 33.5054 27.6899C25.7943 27.6899 19.5493 21.4947 19.5493 13.845C19.5493 6.19522 25.7943 0 33.5054 0C41.2165 0 47.4615 6.19522 47.4615 13.845ZM45.2784 13.845C45.2784 7.39116 40.011 2.16563 33.5054 2.16563C26.9998 2.16563 21.7323 7.39116 21.7323 13.845C21.7323 20.2988 26.9998 25.5243 33.5054 25.5243C40.011 25.5243 45.2784 20.2988 45.2784 13.845Z" fill="#0DB14B"/>
<path d="M43.7797 13.8449C43.7797 19.4798 39.1748 24.0481 33.4946 24.0481C27.8144 24.0481 23.2095 19.4798 23.2095 13.8449C23.2095 8.2099 27.8253 3.6416 33.5055 3.6416C39.1856 3.6416 43.7906 8.2099 43.7906 13.8449H43.7797ZM41.5967 13.8449C41.5967 9.40585 37.9692 5.81801 33.5055 5.81801C29.0417 5.81801 25.4142 9.41662 25.4142 13.8449C25.4142 18.2731 29.0417 21.8717 33.5055 21.8717C37.9692 21.8717 41.5967 18.2731 41.5967 13.8449Z" fill="#0DB14B"/>
<path d="M34.8193 19.6308C34.298 19.954 34.3306 20.8159 33.5921 20.8483C32.7341 20.8806 32.7449 20.0725 32.2236 19.6739C31.1375 18.8227 29.856 18.1224 29.8668 16.4739C29.8668 15.7843 30.1275 15.2133 30.8552 15.1918C32.6255 15.1163 31.3439 17.4328 33.4074 17.5406C34.0482 17.5729 34.8193 17.2281 34.9605 16.4847C35.1452 15.4827 34.2437 14.9547 33.364 14.9332C31.5503 14.8793 30.1492 13.5325 29.8886 12.0133C29.5627 10.0524 30.8117 8.975 32.3105 7.99454C32.8101 7.67131 32.7449 6.90633 33.6355 7.0033C34.3089 7.07872 34.298 7.73595 34.7976 8.06996C35.9597 8.86725 37.1653 9.63223 37.1544 11.2807C37.1544 11.9379 36.8612 12.4982 36.1552 12.5413C34.4284 12.6383 35.6882 10.1925 33.516 10.1925C32.7232 10.1925 32.0824 10.6666 32.039 11.3992C31.9955 12.1319 32.6798 12.746 33.516 12.7675C35.2646 12.7999 36.7091 13.9527 37.0784 15.4072C37.5562 17.3251 36.4919 18.6395 34.8411 19.6523L34.8193 19.6308Z" fill="#0DB14B"/>
</g>
<defs>
<clipPath id="clip0_55_3272">
<rect width="67" height="59" fill="white"/>
</clipPath>
</defs>
</svg>
