<svg width="59" height="63" viewBox="0 0 59 63" fill="none" xmlns="http://www.w3.org/2000/svg">
<g clip-path="url(#clip0_55_3284)">
<path d="M59 62.9891H0V50.3934H6.32143V22.6983C6.6708 20.5645 8.48316 18.9207 10.8196 18.9207H47.8092C50.6151 18.9207 52.5912 21.2286 52.6567 23.8413V50.3934H58.9891V62.9891H59ZM14.6299 20.9891C12.763 21.0435 8.74519 20.4012 8.48316 22.9051C8.36306 24.0046 8.47224 25.0062 8.43949 26.171C11.4419 25.8445 14.2478 24.1135 14.6299 20.9891ZM42.6778 60.8227L50.5714 60.8662V29.3063C46.0624 28.762 42.7324 25.311 42.1974 20.9673H16.7807C16.4532 23.8196 14.75 26.0622 12.2717 27.2597C11.0489 27.902 9.74963 28.0762 8.42857 28.3592V60.8662L16.3222 60.8118C10.7213 53.7356 11.6821 43.8833 18.1236 37.9829C24.587 32.0715 34.5659 32.1151 40.9746 38.07C47.3834 44.0249 48.2459 53.7682 42.6778 60.8118V60.8227ZM50.5387 23.7325C50.364 20.4556 46.641 20.9564 44.3592 21C44.8286 24.2115 47.3288 26.7045 50.5496 27.1726C50.5823 25.9751 50.6042 24.93 50.5496 23.7325H50.5387ZM39.8174 60.8662C45.7785 54.944 45.6147 45.636 39.8719 39.9424C34.0964 34.227 24.7507 34.2815 19.0298 40.0404C13.3088 45.7993 13.287 55.1182 19.2154 60.8771H39.8174V60.8662ZM6.32143 52.4836H2.10714V60.888H6.32143V52.4836ZM56.8929 52.4836H52.6786V60.888H56.8929V52.4836Z" fill="#0DB14B"/>
<path d="M24.2706 0.0108865H32.7756C33.4307 0 33.8237 0.500778 33.8237 1.13219V6.24883C34.8172 6.49922 37.3829 5.92224 37.8415 6.71695C38.0161 7.02177 38.169 7.65319 37.8524 7.95801L29.4675 16.3515C28.8998 16.9176 28.2119 16.8849 27.666 16.3406L19.3685 8.0451C19.0409 7.71851 19.0191 7.26128 19.172 6.91291C19.3248 6.56454 19.6742 6.30327 20.1436 6.29238L23.2661 6.27061L23.3207 1.00156C23.3207 0.566096 23.7029 0 24.2815 0L24.2706 0.0108865ZM25.417 2.11198L25.3733 7.45723C25.3624 8.8507 23.2552 8.18663 22.8076 8.52411L28.5722 14.2504L34.3259 8.51322C33.649 8.23017 31.7493 8.82893 31.7384 7.33748L31.6838 2.10109H25.406L25.417 2.11198Z" fill="#0DB14B"/>
<path d="M39.1185 51.5256C38.7583 54.3016 36.4109 55.9999 33.7142 56.1523C32.9609 56.1959 32.3932 55.7931 32.3932 55.0855C32.415 53.1477 35.9415 55.1181 36.9677 51.482L30.2533 51.4603C29.2816 54.0295 28.3426 56.1959 25.2747 56.1632C22.5234 56.1306 20.3617 54.269 19.8922 51.5691C19.2699 51.1881 17.5121 51.9175 17.4139 50.4696C17.3702 49.7838 17.8506 49.3047 18.6258 49.3156C18.9533 49.3156 19.5865 49.4245 19.8813 49.185C20.4054 46.2674 22.9929 44.199 25.9844 44.7324C26.5412 44.8304 26.6722 45.6251 26.5303 45.9953C25.9516 47.552 23.113 45.6251 22.054 49.283L28.7357 49.3047C29.6964 46.6593 30.8756 44.297 34.0854 44.6453C36.6402 44.9284 38.7583 46.6267 39.1295 49.1959C39.6863 49.566 41.4877 48.8584 41.586 50.2845C41.6296 50.9704 41.1383 51.4494 40.385 51.4385C40.0138 51.4385 39.6754 51.3732 39.1295 51.5147L39.1185 51.5256ZM37.0005 49.2394C36.4 47.1601 34.3365 46.4089 32.546 46.9097C31.7818 47.5629 31.2795 48.3359 31.083 49.3483L37.0005 49.2503V49.2394ZM27.8623 51.4712L22.0649 51.5038C22.4798 53.4852 24.7507 54.6609 26.5303 53.7355C27.3273 53.3219 27.7531 52.2114 27.8623 51.4712Z" fill="#0DB14B"/>
</g>
<defs>
<clipPath id="clip0_55_3284">
<rect width="59" height="63" fill="white"/>
</clipPath>
</defs>
</svg>
