<svg width="66" height="56" viewBox="0 0 66 56" fill="none" xmlns="http://www.w3.org/2000/svg">
<g clip-path="url(#clip0_55_3290)">
<path d="M8.98767 40.219C10.0566 39.9891 11.1037 40.0329 12.1072 40.1861C12.6743 40.2737 12.9579 41.2039 12.6198 41.6745L8.01692 48.0767C7.60244 48.6567 6.72986 48.5801 6.3481 48.0329L1.81067 41.7292C1.58162 41.4118 1.61434 41.0288 1.7016 40.788C2.07245 39.7921 4.31935 40.0001 5.26828 40.1533C5.83546 40.2518 5.99907 40.799 5.97726 41.2477C5.95544 41.773 5.54096 42.0904 4.87562 42.2764L7.19887 45.5049L9.53303 42.3311C8.91132 42.0466 8.51865 41.8387 8.45321 41.4118C8.39867 41.0616 8.4314 40.3393 8.99858 40.219H8.98767Z" fill="#0DB14B"/>
<path d="M8.26788 38.1396C8.26788 38.9275 7.83158 39.3762 7.24259 39.4091C6.6536 39.4419 6.11914 38.9823 6.11914 38.249V29.472C6.13005 28.8373 6.58815 28.4214 7.07898 28.3776C7.67888 28.3229 8.24606 28.7388 8.24606 29.4611V38.1396H8.26788Z" fill="#0DB14B"/>
<path d="M47.8613 14.7525C47.8613 13.8989 48.1885 13.5158 48.7884 13.4283C49.3338 13.3517 49.9992 13.7238 49.9992 14.5008V54.8838C49.9992 55.5842 49.4647 55.9892 48.8103 55.9892H17.1791C16.5138 55.9892 15.9902 55.5842 15.9902 54.8838V14.654C15.9902 13.877 16.4702 13.4283 17.0482 13.4283C17.7027 13.4283 18.1281 13.877 18.1281 14.6431V44.6075C23.1127 45.1875 26.7994 48.9851 27.3774 53.877H38.6119C39.19 48.9851 42.8876 45.1875 47.8504 44.6075V14.7525H47.8613ZM25.2069 53.7785C24.5525 49.8715 21.7166 47.3216 18.1608 46.7635L18.139 53.8442L25.2178 53.7785H25.2069ZM47.8722 53.8004L47.8286 46.7744C44.1856 47.3325 41.3279 50.0466 40.7934 53.8442L47.8722 53.8113V53.8004Z" fill="#0DB14B"/>
<path d="M57.6668 2.14501H8.44224C5.01735 2.12312 2.30144 5.02326 2.17055 8.31737C2.06148 11.0752 2.07238 13.5814 2.17055 16.2845C2.30144 19.7975 5.20278 22.4679 8.60585 22.4897L12.3907 22.5116C13.056 22.5116 13.5141 22.9056 13.5469 23.5404C13.5687 23.9672 13.1978 24.6129 12.5652 24.6129L7.99504 24.591C3.4358 24.5581 0 20.4213 0 15.8796V8.7223C0 4.09302 3.63213 0 8.43133 0H57.5687C62.3679 0 66 4.09302 66 8.73324V15.8796C66 20.4323 62.5642 24.5472 58.0159 24.58L53.413 24.6129C52.7258 24.6129 52.2786 24.197 52.2241 23.6826C52.1477 22.9713 52.6713 22.5007 53.413 22.5007H57.3942C60.7972 22.4788 63.6986 19.7975 63.8295 16.2845C63.9276 13.5705 63.9385 11.0752 63.8295 8.30643C63.6986 5.14364 61.1244 2.14501 57.6668 2.14501Z" fill="#0DB14B"/>
<path d="M42.9639 34.7688C37.423 40.0218 27.6828 39.7592 22.5673 34.2982C20.4404 32.0328 19.426 29.0123 20.1132 25.9589C20.7021 23.3324 22.2946 21.1983 24.5306 19.6771C29.5916 16.2407 36.4086 16.2298 41.4696 19.6771C43.8038 21.264 45.4617 23.5403 45.9525 26.3091C46.5197 29.461 45.3417 32.5143 42.9639 34.7688ZM41.3169 33.3898C44.6546 30.4678 44.7745 25.8823 41.8732 22.818C37.5321 18.2434 29.3189 18.0902 24.6397 22.2927C22.949 23.8139 21.9783 25.8604 22.0547 28.0273C22.131 30.1942 23.0799 32.0875 24.8251 33.543C29.4825 37.4281 36.6813 37.45 41.3169 33.4008V33.3898Z" fill="#0DB14B"/>
<path d="M49.9227 8.58011H16.1756C14.6376 8.56916 13.4706 9.80583 13.0343 10.7908C11.6163 13.9645 14.9103 14.9276 13.7323 16.2737C13.3833 16.6677 12.718 16.8428 12.238 16.3722C10.591 14.7087 10.1329 12.2354 11.0273 10.0466C11.8672 8.00008 13.8741 6.44604 16.3501 6.44604L49.8573 6.46793C52.3114 6.46793 54.2747 8.19707 55.0273 10.1998C55.889 12.4871 55.3109 14.9714 53.5439 16.5911C53.0858 17.0069 52.3769 16.8099 52.1042 16.4926C50.8607 15.0151 54.3511 14.2162 53.0204 10.944C52.6386 9.99187 51.5479 8.59105 49.9118 8.59105L49.9227 8.58011Z" fill="#0DB14B"/>
<path d="M60.8301 40.0875C61.8772 39.9343 63.8514 39.8248 64.255 40.6019C64.4077 40.8973 64.4295 41.357 64.1677 41.7072L59.7176 47.9014C59.4885 48.2188 59.194 48.383 58.9104 48.4049C58.5396 48.4377 58.1578 48.3064 57.8961 47.9343L53.3695 41.6087C53.1405 41.2913 53.2605 40.8207 53.3477 40.5909C53.664 39.803 55.8237 39.9671 56.7508 40.0765C57.4052 40.1422 57.6016 40.7004 57.5688 41.2475C57.5361 41.7291 57.1107 42.0136 56.4781 42.2544L58.7468 45.4281C59.6958 44.4541 60.3066 43.3269 61.1355 42.2544C60.5247 42.0355 60.1648 41.8057 60.0666 41.4336C59.9248 40.8536 60.0884 40.186 60.8192 40.0765L60.8301 40.0875Z" fill="#0DB14B"/>
<path d="M59.8701 38.1175C59.8701 38.8946 59.4556 39.2885 58.943 39.3323C58.2885 39.387 57.7541 38.9821 57.7432 38.227V29.439C57.7432 28.7933 58.1904 28.3118 58.7575 28.279C59.3247 28.2461 59.8701 28.7167 59.8701 29.4281V38.0957V38.1175Z" fill="#0DB14B"/>
<path d="M34.0853 48.3722C34.0853 49.0945 33.6053 49.4994 33.0818 49.5213C32.5146 49.5541 31.9365 49.2149 31.9365 48.4816V44.0822C31.9365 43.4146 32.3837 42.9987 32.9073 42.9549C33.529 42.9002 34.0853 43.3489 34.0853 44.0822V48.3722Z" fill="#0DB14B"/>
<path d="M38.8951 29.0453C37.9353 30.1506 37.3027 31.4529 35.6339 31.4748C35.0012 31.4748 34.4232 31.234 34.3468 30.5555C34.1505 28.9468 36.1465 29.7894 36.6155 28.4105C36.8228 27.7758 36.7028 27.152 36.1901 26.6595C35.8084 26.2874 35.1867 26.2874 34.7504 26.5282C34.2814 26.7908 34.0959 27.3599 34.0632 27.9837C33.9869 29.7457 32.7325 31.1574 31.151 31.442C29.3295 31.7703 28.0751 30.5555 27.1589 29.0234C26.8862 28.5747 26.1554 28.5856 26.1445 27.8961C26.1227 27.1301 26.8426 27.1191 27.1807 26.6267C27.9988 25.4228 28.8168 24.1862 30.5293 24.1971C31.1183 24.1971 31.62 24.6349 31.6527 25.2039C31.7509 26.7361 30.0057 25.8277 29.4058 27.2286C29.1658 27.7977 29.264 28.3886 29.6567 28.8702C30.0493 29.3517 30.7583 29.3955 31.3037 29.1C31.7727 28.8483 31.9145 28.2135 31.9472 27.5788C32.0563 25.8387 33.3433 24.5254 34.794 24.2299C36.6919 23.8469 37.9026 25.1273 38.8297 26.6157C39.1133 27.0754 39.9532 26.9659 39.9859 27.6773C40.0295 28.5637 39.3751 28.4871 38.8951 29.0343V29.0453Z" fill="#0DB14B"/>
</g>
<defs>
<clipPath id="clip0_55_3290">
<rect width="66" height="56" fill="white"/>
</clipPath>
</defs>
</svg>
