<svg width="63" height="61" viewBox="0 0 63 61" fill="none" xmlns="http://www.w3.org/2000/svg">
<g clip-path="url(#clip0_55_3305)">
<path d="M59.9018 44.0357C58.1746 42.4108 56.048 41.4792 53.5759 41.295L53.5435 34.7411C53.5435 33.387 52.3776 32.1737 51.0714 32.1521L46.7534 32.0654V32.5745L46.6239 33.062C46.6023 33.062 46.5807 33.062 46.5591 33.062C46.7858 31.9896 46.9153 30.8846 46.9153 29.7472C46.9153 29.2488 46.883 28.7614 46.8398 28.2847V28.3605L46.8506 28.393L46.9153 28.9022C47.4011 28.8372 47.8545 28.848 48.3295 28.8589C48.7073 28.8589 49.0852 28.8697 49.4846 28.8589C51.0175 28.7614 52.6151 27.5806 52.6367 25.7715L52.6907 19.7051C58.0127 19.0551 61.8557 14.5703 61.5103 9.3055C61.3268 6.46728 59.9882 3.93238 57.732 2.18829C55.4219 0.390029 52.4532 -0.314108 49.5601 0.238369C44.7779 1.14833 41.3559 5.28649 41.4207 10.0638C41.4962 15.1444 45.5228 19.3151 50.6612 19.7484V25.5873C50.6612 26.324 50.0783 26.8764 49.2795 26.8764H46.6994V27.3964V27.4723C45.5875 19.8784 39.0673 14.0286 31.1977 14.0286C23.3281 14.0286 17.1641 19.5642 15.7932 26.8439C15.6312 26.8439 15.4693 26.8439 15.2858 26.8656C14.3035 26.9198 12.8245 26.9848 12.2524 26.4323C12.0797 26.259 11.9933 26.0423 11.9933 25.739L11.9717 19.7267C15.0915 19.3909 17.8119 17.7443 19.4743 15.1661C22.1191 11.0496 21.3418 5.74148 17.6283 2.52411C13.591 -0.99658 7.67528 -0.801588 3.85383 2.93576C1.14427 5.58982 0.226691 9.46799 1.45733 13.0428C2.72035 16.7152 6.03444 19.2826 9.98543 19.7051V25.4032C9.99622 27.2448 11.3672 28.7289 13.1808 28.848C13.5694 28.8697 13.9364 28.8697 14.3142 28.848C14.7461 28.848 15.1563 28.848 15.5881 28.8805C15.5773 29.173 15.5449 29.4547 15.5449 29.7472C15.5449 30.5488 15.6205 31.3288 15.7392 32.0979L11.6263 32.1521C10.2661 32.1737 9.12182 33.4412 9.11103 34.9253V41.3384C6.77929 41.5875 4.77141 42.4975 3.11977 44.0466C-0.831225 47.7623 -1.05792 53.7745 2.6124 57.7393C4.55551 59.8301 7.25428 61.0109 10.0826 61.0109C10.2553 61.0109 10.428 61.0109 10.6115 61C13.6234 60.8484 16.3869 59.3751 18.2005 56.9702C20.5862 53.7962 20.8021 49.5605 18.7618 46.1698C17.0994 43.4183 14.3142 41.685 11.0757 41.3492V34.9361C11.0757 34.3728 11.5723 34.0911 11.9825 34.0695L16.171 34.102C18.0493 40.6775 24.0946 45.509 31.2409 45.509C38.3872 45.509 44.8751 40.3092 46.5051 33.3545L46.5267 34.102C48.2755 34.0478 49.5601 34.0478 50.8447 34.102C51.2658 34.1236 51.6328 34.5136 51.6328 34.9469V41.3817C49.2579 41.7175 47.25 42.725 45.6631 44.3716C42.1331 48.0114 41.9172 53.4712 45.145 57.3602C47.0125 59.6026 49.6357 60.9025 52.5396 61.0217C52.6691 61.0217 52.8094 61.0217 52.939 61.0217C55.6809 61.0217 58.3149 59.9059 60.2365 57.9343C62.0824 56.0386 63.0648 53.5687 63.0108 50.958C62.9568 48.3256 61.8557 45.8773 59.9234 44.0574L59.9018 44.0357ZM43.5257 9.89047C43.5257 5.48149 47.0989 1.8958 51.4925 1.8958C55.886 1.8958 59.4592 5.48149 59.4592 9.89047C59.4592 14.2995 55.886 17.8851 51.4925 17.8851C47.0989 17.8851 43.5257 14.2995 43.5257 9.89047ZM18.9561 9.87964C18.9561 14.2886 15.383 17.8743 10.9894 17.8743C6.59578 17.8743 3.02261 14.2886 3.02261 9.87964C3.02261 5.47065 6.59578 1.88497 10.9894 1.88497C15.383 1.88497 18.9561 5.47065 18.9561 9.87964ZM2.11583 51.1421C2.11583 46.7331 5.68899 43.1474 10.0826 43.1474C14.4762 43.1474 18.0493 46.7331 18.0493 51.1421C18.0493 55.5511 14.4762 59.1368 10.0826 59.1368C5.68899 59.1368 2.11583 55.5511 2.11583 51.1421ZM31.2301 43.7649C23.5332 43.7649 17.2721 37.4818 17.2721 29.7472C17.2721 22.0125 23.5332 15.7294 31.2301 15.7294C38.927 15.7294 45.1881 22.0125 45.1881 29.7472C45.1881 37.4818 38.927 43.7649 31.2301 43.7649ZM52.939 59.1368C48.5454 59.1368 44.9722 55.5511 44.9722 51.1421C44.9722 46.7331 48.5454 43.1474 52.939 43.1474C57.3326 43.1474 60.9057 46.7331 60.9057 51.1421C60.9057 55.5511 57.3326 59.1368 52.939 59.1368Z" fill="#0DB14B"/>
<path d="M31.2625 24.5798C32.4931 24.5473 33.4215 25.4139 33.5186 26.6597C33.5726 27.3638 33.9936 27.6672 34.3606 27.7105C34.6305 27.743 34.9328 27.6563 35.1379 27.4613C35.343 27.2772 35.4617 27.0172 35.4617 26.7355C35.4617 24.8073 34.1879 23.1932 32.3204 22.7057C32.3204 22.5865 32.3204 22.4565 32.3204 22.3374C32.3204 21.8066 32.3312 21.2649 31.9641 20.9399C31.8238 20.8208 31.5863 20.6799 31.2085 20.7341C30.3341 20.8533 30.3557 21.7741 30.3665 22.2615C30.3665 22.4132 30.3665 22.5649 30.3665 22.6949C28.3586 23.2148 27.0524 25.0131 27.2359 27.1039C27.4194 29.2271 29.1682 30.852 31.3272 30.8845C32.5471 30.9062 33.5186 31.8595 33.5186 33.0619C33.5186 34.2536 32.5902 35.2069 31.4136 35.2502C30.1937 35.3152 29.2546 34.3727 29.1682 33.1161C29.125 32.5528 28.7904 32.1628 28.3046 32.1195C28.0239 32.087 27.7649 32.1845 27.5705 32.3578C27.3654 32.5528 27.2575 32.8345 27.2575 33.1486C27.2575 35.0335 28.5097 36.6043 30.3988 37.1351C30.3988 37.2543 30.3988 37.4168 30.3988 37.5251C30.3881 37.9909 30.3773 38.5217 30.7335 38.8575C30.8522 38.9659 31.0466 39.085 31.338 39.085C31.3812 39.085 31.4244 39.085 31.4784 39.085C32.3743 38.9767 32.3528 38.0559 32.3312 37.5576C32.3312 37.4276 32.3312 37.2651 32.3312 37.1351C34.3283 36.6151 35.656 34.7735 35.4725 32.7261C35.2674 30.527 33.5078 28.9563 31.1869 28.9129C30.6687 28.9129 30.1722 28.6746 29.8051 28.2846C29.4057 27.8622 29.1682 27.2772 29.1898 26.7355C29.2222 25.5656 30.1506 24.6231 31.284 24.5906L31.2625 24.5798Z" fill="#0DB14B"/>
<path d="M10.1258 11.6451C9.92074 11.6451 9.66166 11.6451 9.42416 11.6343C8.72249 11.6018 8.05319 11.5693 7.70775 11.9484C7.5998 12.0676 7.48105 12.2734 7.52423 12.5984C7.56741 12.9234 7.8265 13.2701 8.40943 13.2809L10.1582 13.3026C10.1582 13.4542 10.1582 13.6275 10.1582 13.7792C10.1366 14.3425 10.115 14.9275 10.4389 15.2633C10.5792 15.4041 10.7735 15.48 10.9894 15.48H11.0218C11.2377 15.48 11.432 15.3933 11.5724 15.2416C11.8854 14.9058 11.8639 14.3533 11.8423 13.7684C11.8423 13.6059 11.8315 13.4434 11.8423 13.3026L13.7206 13.2809C13.9689 13.2809 14.1956 13.1726 14.3467 12.9992C14.4978 12.8259 14.5626 12.5876 14.541 12.3493C14.4439 11.5585 13.4615 11.6018 12.5871 11.6451C12.3496 11.656 12.0905 11.6668 11.8746 11.656C11.8746 11.4935 11.8531 11.331 11.8315 11.1685C11.7883 10.8327 11.7451 10.486 11.8638 10.3127L14.3251 6.68366C14.4547 6.49951 14.4978 6.28285 14.4439 6.06619C14.4007 5.84953 14.2604 5.65454 14.0768 5.54621C13.7638 5.35122 13.2564 5.37288 12.9865 5.7412L10.9894 8.52526L9.01395 5.75204C8.75487 5.38372 8.21512 5.34039 7.89127 5.54621C7.70775 5.65454 7.589 5.8387 7.54582 6.04452C7.49185 6.27201 7.54582 6.532 7.69695 6.73783L10.1474 10.3127C10.2662 10.486 10.223 10.8327 10.1798 11.1793C10.1582 11.3418 10.1366 11.5043 10.1366 11.6668L10.1258 11.6451Z" fill="#0DB14B"/>
<path d="M9.98531 47.5996C10.8165 47.578 11.4858 48.1196 11.5398 48.9104C11.5614 49.1812 11.6909 49.4304 11.9176 49.5929C12.1335 49.7554 12.4034 49.8204 12.6625 49.7879C13.0835 49.7337 13.5261 49.3762 13.5153 48.8888C13.4937 47.4913 12.5545 46.3647 11.054 45.8989C11.054 45.823 11.054 45.7255 11.054 45.6606C11.054 45.5306 11.054 45.4114 11.054 45.3247C11.0108 45.0214 10.8597 44.7723 10.6114 44.6206C10.3847 44.4798 10.1041 44.4364 9.83418 44.5123C9.1217 44.6964 9.11091 45.3897 9.11091 45.758C9.11091 45.8014 9.11091 45.8555 9.11091 45.9097C7.47006 46.4622 6.55248 47.708 6.68202 49.2137C6.82235 50.7628 8.21492 51.9761 9.92054 52.0411C10.2984 52.052 11.5074 52.1928 11.5398 53.3627C11.5506 53.991 11.0324 54.6518 10.1256 54.6952C9.46715 54.6952 8.7007 54.2185 8.62513 53.4061C8.57115 52.8753 8.17174 52.4961 7.64278 52.4961C7.42688 52.4961 7.157 52.5828 6.98428 52.7344C6.78997 52.9078 6.68202 53.1677 6.68202 53.4602C6.68202 54.8035 7.64278 55.941 9.10011 56.3634C9.10011 56.4284 9.10011 56.4934 9.10011 56.5584C9.10011 56.9268 9.11091 57.7934 10.1256 57.8042H10.1472C11.0432 57.8042 11.0648 56.9159 11.0756 56.5368C11.0756 56.4934 11.0756 56.4393 11.0756 56.3851C12.6949 55.8651 13.688 54.5219 13.5153 53.0377C13.3318 51.4995 11.9176 50.3079 10.2336 50.2537C9.31601 50.2212 8.67911 49.7121 8.64672 48.9646C8.61434 48.2821 9.25124 47.643 9.9961 47.6105L9.98531 47.5996Z" fill="#0DB14B"/>
<path d="M55.1197 50.7627C54.9038 50.7627 54.7095 50.7952 54.5044 50.8494L57.0952 47.6645L55.681 46.5054L53.0363 49.7661C53.0902 49.5602 53.1334 49.3544 53.1334 49.1378C53.1334 47.8378 52.0755 46.7762 50.7801 46.7762C49.4847 46.7762 48.4268 47.8378 48.4268 49.1378C48.4268 50.4377 49.4847 51.4993 50.7801 51.4993C51.1687 51.4993 51.5249 51.4018 51.8488 51.2285L49.1068 54.5975L50.521 55.7567L52.788 52.9726C52.788 52.9726 52.7772 53.0701 52.7772 53.1134C52.7772 54.4134 53.8351 55.475 55.1305 55.475C56.4259 55.475 57.4838 54.4134 57.4838 53.1134C57.4838 51.8135 56.4259 50.7519 55.1305 50.7519L55.1197 50.7627ZM50.2187 49.1486C50.2187 48.8561 50.4562 48.607 50.7585 48.607C51.0608 48.607 51.2982 48.8453 51.2982 49.1486C51.2982 49.4519 51.0608 49.6902 50.7585 49.6902C50.4562 49.6902 50.2187 49.4519 50.2187 49.1486ZM54.5799 53.1351C54.5799 52.8426 54.8174 52.6043 55.1089 52.6043C55.4004 52.6043 55.6379 52.8426 55.6379 53.1351C55.6379 53.4276 55.4004 53.6659 55.1089 53.6659C54.8174 53.6659 54.5799 53.4276 54.5799 53.1351Z" fill="#0DB14B"/>
<path d="M55.5405 7.68032C55.3677 6.82452 54.774 6.15288 53.8996 5.7954C53.8996 5.71957 53.8996 5.62207 53.8996 5.53541C53.8996 5.14542 53.8996 4.71211 53.6081 4.43045C53.5002 4.33296 53.3059 4.2138 52.9928 4.23546C52.2156 4.30046 52.2156 5.09126 52.2264 5.47041C52.2264 5.52458 52.2264 5.58957 52.2264 5.64374C51.9781 5.6654 51.719 5.6654 51.4275 5.64374C51.4275 5.60041 51.4275 5.55707 51.4275 5.51374C51.4275 5.12376 51.4275 4.31129 50.6395 4.23546C50.3372 4.2138 50.1429 4.32212 50.035 4.41962C49.7327 4.69044 49.7327 5.14542 49.7219 5.51374C49.7219 5.54624 49.7219 5.58957 49.7219 5.62207L48.8583 5.64374C48.61 5.64374 48.3833 5.75207 48.2322 5.93623C48.0811 6.12038 48.0163 6.34788 48.0487 6.5862C48.1566 7.377 49.0094 7.36617 49.5168 7.35533C49.5816 7.35533 49.6571 7.35533 49.7219 7.35533L49.7003 9.00193L48.8367 9.04526C48.61 9.0561 48.3941 9.16443 48.2538 9.33775C48.1027 9.51108 48.0379 9.72774 48.0595 9.94439C48.135 10.7677 49.031 10.746 49.5168 10.746C49.5816 10.746 49.6571 10.746 49.7219 10.746V12.5985C49.6571 12.5985 49.5924 12.5985 49.5384 12.5985C49.0418 12.5985 48.1027 12.5551 48.0595 13.3893C48.0379 13.6817 48.1674 13.8767 48.2646 13.9851C48.5668 14.31 49.085 14.2992 49.5384 14.2884C49.5924 14.2884 49.6679 14.2884 49.7327 14.2884C49.7327 14.2884 49.7327 14.2884 49.7327 14.2992C49.7435 14.6459 49.7651 15.0684 50.0566 15.3283C50.1645 15.4258 50.3588 15.5342 50.6503 15.5125C51.4059 15.4583 51.4383 14.6892 51.4491 14.3209C51.4491 14.31 51.4491 14.2884 51.4491 14.2776C51.4491 14.2776 51.4707 14.2776 51.4815 14.2776C51.7082 14.2667 51.9241 14.2559 52.1292 14.2776C52.1292 14.2884 52.1292 14.31 52.1292 14.3209C52.1508 14.6459 52.1724 15.09 52.4747 15.35C52.5718 15.4367 52.7337 15.5233 52.9712 15.5233C53.0036 15.5233 53.0468 15.5233 53.09 15.5233C53.8132 15.4367 53.8348 14.7 53.8456 14.3425C53.8456 14.2884 53.8456 14.2126 53.8456 14.1584C54.72 13.7901 55.3246 13.1184 55.5189 12.2843C55.7132 11.4177 55.5081 10.5727 54.9251 9.92273C55.4757 9.27276 55.7024 8.48195 55.5405 7.68032ZM53.8888 8.1353C53.9104 8.36279 53.824 8.59028 53.6837 8.75278C53.5326 8.91527 53.3167 9.01277 53.0684 9.01277C52.8849 9.01277 52.7013 9.01277 52.5286 9.0236C52.14 9.03443 51.7946 9.04526 51.4599 9.0236V7.38783C51.5787 7.38783 51.6866 7.38783 51.8054 7.377C53.2411 7.30117 53.8564 7.39867 53.8996 8.1353H53.8888ZM51.4383 10.7677C51.5139 10.7677 51.6003 10.7677 51.6866 10.7569C53.2087 10.681 53.8564 10.7894 53.8996 11.6235C53.9212 12.0351 53.6405 12.501 53.1224 12.566C52.6474 12.631 52.2048 12.6201 51.7406 12.5985C51.6434 12.5985 51.5355 12.5985 51.4383 12.5985C51.4059 11.981 51.4167 11.396 51.4383 10.7677Z" fill="#0DB14B"/>
</g>
<defs>
<clipPath id="clip0_55_3305">
<rect width="63" height="61" fill="white"/>
</clipPath>
</defs>
</svg>
