<svg width="63" height="63" viewBox="0 0 63 63" fill="none" xmlns="http://www.w3.org/2000/svg">
<g clip-path="url(#clip0_55_3314)">
<path d="M62.9455 29.3652C62.9455 27.0404 60.8821 25.5629 58.9055 25.313C58.6232 18.4578 55.7235 12.0698 50.7495 7.3223C45.8081 2.59648 39.3246 0 32.5153 0H32.4284C25.5973 0.0217279 19.1029 2.66167 14.1615 7.42007C9.231 12.1676 6.37477 18.523 6.09241 25.3456C3.76833 25.5629 2.03069 27.3445 2.04155 29.5608L2.06327 41.4568C2.06327 44.3249 4.73488 45.6286 7.22187 45.6286C8.81832 45.6286 10.2193 45.1071 11.1533 44.1728C11.9461 43.3797 12.3587 42.3259 12.3587 41.1092L12.337 29.5716C12.337 27.3989 10.6537 25.6389 8.32961 25.3347C8.67713 18.4144 11.9461 11.9829 17.3001 7.68081L19.2658 6.21417C27.3024 0.956026 37.6847 0.956026 45.7213 6.21417L47.687 7.68081C53.0519 12.0047 56.3208 18.4361 56.6575 25.3456C54.6592 25.628 52.6718 27.1164 52.6718 29.4847L52.6501 41.3047C52.6501 43.4775 54.366 45.2809 56.6792 45.5525L56.7009 46.2043C56.7335 47.3777 56.7661 48.4966 56.6792 49.6917C56.4077 53.581 53.3777 56.6555 49.7721 56.6772L41.6161 56.7315C40.9645 54.1133 38.6078 52.4511 35.9579 52.7227C33.3406 53.0052 31.3315 55.3083 31.3858 57.9591C31.4292 60.5773 33.5144 62.7936 36.1317 63.0109C36.2729 63.0217 36.4249 63.0326 36.5661 63.0326C38.9771 63.0326 41.0405 61.403 41.6053 59.0021L49.783 58.9477C54.757 58.9152 58.8621 54.7543 58.9381 49.6808L59.0033 45.5742C61.3382 45.2809 63.0107 43.4449 62.9998 41.1635L62.9564 29.4196L62.9455 29.3652ZM60.7192 41.3156C60.7192 42.6192 59.7309 43.3037 57.7978 43.3363C57.7652 43.3363 57.7326 43.3363 57.7001 43.3363C56.7444 43.3363 55.9516 43.0755 55.4629 42.5975C55.0828 42.2281 54.8873 41.7175 54.8981 41.0983L54.9307 29.5608C54.9307 27.7139 56.929 27.5184 57.7869 27.5184C58.6666 27.5184 60.6975 27.7139 60.7083 29.4521V41.3156H60.7192ZM10.1324 41.0114C10.1324 41.6849 9.93692 42.2173 9.54595 42.5975C8.91606 43.2168 7.92778 43.358 7.22187 43.3254C6.13585 43.3145 4.31134 43.0321 4.31134 41.3808V29.4413C4.31134 27.7031 6.35305 27.5075 7.23273 27.5075C8.10154 27.5075 10.089 27.7139 10.089 29.5499L10.1215 41.0005L10.1324 41.0114ZM36.5661 60.7512C34.9588 60.7512 33.6447 59.4366 33.6447 57.8288C33.6447 56.2209 34.9588 54.9064 36.5661 54.9064C38.1734 54.9064 39.4875 56.2209 39.4875 57.8288C39.4875 59.4366 38.1734 60.7512 36.5661 60.7512Z" fill="#0DB14B"/>
<path d="M45.2654 19.0989C45.2654 16.3829 43.0716 14.1775 40.3674 14.1775H26.5967C23.849 14.1775 21.6987 16.3394 21.6987 19.1097V40.1314C21.6987 40.6312 22.0137 41.0223 22.3178 41.1635C22.4589 41.2287 22.6653 41.283 22.8825 41.283C23.0997 41.283 23.306 41.2287 23.4798 41.0983L32.1462 34.178C33.2866 33.2654 34.5138 32.8092 35.7735 32.8092H40.2371C43.0607 32.7983 45.2654 30.6255 45.2654 27.8552V19.0989ZM42.9521 27.9964C42.9521 29.2349 41.9204 30.3539 40.6932 30.4408C39.781 30.506 38.8904 30.4951 38.0325 30.4843C35.5563 30.4517 33.2105 30.4191 30.8973 32.2551L23.9794 37.7631L24.0011 18.9902C24.0011 17.6974 25.1197 16.5241 26.336 16.5241H40.6281C41.8444 16.5241 42.9521 17.6865 42.9521 18.9685V27.9964Z" fill="#0DB14B"/>
<path d="M40.791 21.7822C41.0082 21.554 41.1168 21.2172 41.095 20.8805C41.0625 20.359 40.6606 19.8267 39.9547 19.8267H26.9876C26.651 19.8267 26.336 19.957 26.1188 20.1852C25.9016 20.4133 25.793 20.7284 25.8147 21.0326C25.8582 21.6518 26.3469 22.0972 26.9876 22.0972H40.0199C40.3348 22.0972 40.5955 21.9777 40.791 21.7713V21.7822Z" fill="#0DB14B"/>
<path d="M35.3284 24.8677H26.8575C26.586 24.8785 26.3362 24.998 26.1407 25.1936C25.9235 25.4217 25.804 25.7585 25.8258 26.0736C25.8692 26.682 26.3688 27.1491 26.9878 27.1491H35.3827C35.7085 27.1491 36.0126 27.0187 36.219 26.7906C36.4362 26.5516 36.5556 26.2257 36.5231 25.9106C36.4688 25.2914 35.9909 24.8677 35.3176 24.8677H35.3284Z" fill="#0DB14B"/>
<path d="M39.9763 27.1381C40.606 27.1381 41.1166 26.6274 41.1166 25.9974C41.1166 25.3674 40.606 24.8567 39.9763 24.8567C39.3465 24.8567 38.8359 25.3674 38.8359 25.9974C38.8359 26.6274 39.3465 27.1381 39.9763 27.1381Z" fill="#0DB14B"/>
<path d="M5.79935 55.7211C6.45096 54.9064 6.78762 54.0046 6.78762 53.0378C6.78762 52.136 6.50526 51.3973 5.94053 50.8324C5.3758 50.2674 4.55042 49.9741 3.47526 49.9741C2.85623 49.9741 2.28064 50.0936 1.77021 50.3435C1.24892 50.5934 0.825375 50.9845 0.499569 51.5059C0.184623 52.0274 0.0217204 52.6792 0 53.4397V53.7222H2.62817V53.4506C2.62817 53.0703 2.70419 52.7879 2.84537 52.5923C2.97569 52.4185 3.1386 52.3425 3.37752 52.3425C3.61645 52.3425 3.77935 52.4076 3.88795 52.538C4.00741 52.6792 4.06171 52.8965 4.06171 53.179C4.06171 53.581 3.90967 53.9938 3.61645 54.4283C3.3015 54.8846 2.91053 55.3409 2.44354 55.7646C1.9657 56.21 1.31408 56.7641 0.499569 57.4376L0.586451 57.5572L0.488709 57.4485C0.488709 57.4485 0.336666 57.5789 0.108602 57.7527L0.0108602 57.8396V59.8494H6.90709V57.5463H3.98569C4.69161 56.9488 5.28892 56.3404 5.77763 55.732L5.79935 55.7211Z" fill="#0DB14B"/>
<path d="M14.3462 50.311H11.5116L7.38477 56.221V58.3286H11.6311V59.9691H14.3353V58.3286H15.3779V55.9168H14.3353V50.3219L14.3462 50.311ZM10.4365 55.906L11.7831 53.8635V55.906H10.4365Z" fill="#0DB14B"/>
<path d="M15.3887 62.3265L17.5607 62.3917L21.0794 47.4537L18.9074 47.3994L15.3887 62.3265Z" fill="#0DB14B"/>
<path d="M21.4165 50.2024V52.5925H25.2067L21.9921 59.9691H24.8049L28.0521 52.1905L28.0738 50.2024H21.4165Z" fill="#0DB14B"/>
</g>
<defs>
<clipPath id="clip0_55_3314">
<rect width="63" height="63" fill="white"/>
</clipPath>
</defs>
</svg>
