<svg width="73" height="73" viewBox="0 0 73 73" fill="none" xmlns="http://www.w3.org/2000/svg">
<g clip-path="url(#clip0_55_3328)">
<path d="M62.1484 25.4985C61.9136 28.1201 62.1223 30.4286 62.044 32.8806C61.9788 34.8631 60.4919 36.4935 58.366 36.4935H14.6208C12.4166 36.4935 10.9297 34.7718 10.9297 32.672V3.82151C10.9297 1.72164 12.4166 0 14.6208 0H58.366C60.5702 0 62.044 1.73468 62.0571 3.79543L62.0832 13.4079C64.5221 13.0166 66.7655 14.347 66.8829 16.7729C66.9742 18.5728 66.9742 20.3336 66.8829 22.1204C66.7655 24.442 64.6787 25.8898 62.1614 25.4854L62.1484 25.4985ZM53.175 25.4985C51.1403 25.4724 49.8752 23.6073 49.8752 21.7683V17.1512C49.8752 15.0904 51.4012 13.3949 53.488 13.3688L59.605 13.3296L59.5529 3.31285C59.5529 2.66071 58.7312 2.4129 58.1443 2.4129H14.6338C13.9947 2.4129 13.3948 2.86939 13.3948 3.53457V32.9198C13.3948 33.585 13.9947 34.0415 14.6338 34.0415H58.3529C59.1486 33.9893 59.605 33.4806 59.605 32.7241L59.579 25.5767L53.175 25.4854V25.4985ZM63.3744 23.1117C64.1048 22.9812 64.4308 22.4987 64.483 21.8987V17.0207C64.4308 16.3555 63.9743 15.8208 63.27 15.8208H53.5402C52.8359 15.8208 52.3794 16.3555 52.3272 17.0207V21.8987C52.3794 22.5639 52.8359 23.0986 53.5402 23.0986H63.3744V23.1117Z" fill="#0DB14B"/>
<path d="M27.9896 29.2026H25.5376V31.6416H27.9896V29.2026Z" fill="#0DB14B"/>
<path d="M32.8676 29.2026H30.4155V31.6416H32.8676V29.2026Z" fill="#0DB14B"/>
<path d="M37.7323 29.2026H35.2803V31.6416H37.7323V29.2026Z" fill="#0DB14B"/>
<path d="M42.5975 29.2026H40.1455V31.6416H42.5975V29.2026Z" fill="#0DB14B"/>
<path d="M47.4623 29.2026H45.0103V31.6416H47.4623V29.2026Z" fill="#0DB14B"/>
<path d="M52.327 29.2026H49.875V31.6416H52.327V29.2026Z" fill="#0DB14B"/>
<path d="M57.1923 29.2026H54.7402V31.6416H57.1923V29.2026Z" fill="#0DB14B"/>
<path d="M18.2596 4.86475H15.8076V7.30373H18.2596V4.86475Z" fill="#0DB14B"/>
<path d="M23.1244 4.86475H20.6724V7.30373H23.1244V4.86475Z" fill="#0DB14B"/>
<path d="M27.9896 4.86475H25.5376V7.30373H27.9896V4.86475Z" fill="#0DB14B"/>
<path d="M32.8676 4.86475H30.4155V7.30373H32.8676V4.86475Z" fill="#0DB14B"/>
<path d="M37.7323 4.86475H35.2803V7.30373H37.7323V4.86475Z" fill="#0DB14B"/>
<path d="M42.5975 4.86475H40.1455V7.30373H42.5975V4.86475Z" fill="#0DB14B"/>
<path d="M47.4623 4.86475H45.0103V7.30373H47.4623V4.86475Z" fill="#0DB14B"/>
<path d="M52.327 4.86475H49.875V7.30373H52.327V4.86475Z" fill="#0DB14B"/>
<path d="M57.1923 4.86475H54.7402V7.30373H57.1923V4.86475Z" fill="#0DB14B"/>
<path d="M18.2596 29.2026H15.8076V31.6416H18.2596V29.2026Z" fill="#0DB14B"/>
<path d="M23.1244 29.2026H20.6724V31.6416H23.1244V29.2026Z" fill="#0DB14B"/>
<path d="M60.8312 18.2466H55.9663V20.6856H60.8312V18.2466Z" fill="#0DB14B"/>
<path d="M47.4491 62.0444C47.4491 68.0962 42.5451 72.9872 36.5063 72.9872C30.4675 72.9872 25.5635 68.0832 25.5635 62.0444C25.5635 56.0056 30.4675 51.1016 36.5063 51.1016C42.5451 51.1016 47.4491 56.0056 47.4491 62.0444ZM37.6019 63.2443H34.0543C33.3761 63.2443 32.8283 62.6965 32.8543 61.9792C32.9065 60.2706 32.6978 58.5489 32.9456 56.8404C33.0891 55.8491 34.3412 55.9274 35.1499 55.9795C35.3585 55.2231 35.3585 54.4796 35.1499 53.671C31.0023 54.3492 28.0546 57.962 28.0546 62.0444C28.0546 66.1268 30.9892 69.7396 35.1368 70.4178C35.3977 69.5961 35.3194 68.8918 35.202 68.1484L32.9196 68.1092C32.7761 67.3528 32.8543 66.5963 32.8674 65.7485L37.628 65.6833C37.7584 64.8616 37.8106 64.0791 37.6019 63.2443ZM38.8409 60.8314C39.6235 60.8314 40.1713 61.3923 40.1452 62.1096C40.093 63.8182 40.3017 65.5398 40.0539 67.2484C39.9104 68.2397 38.6583 68.1614 37.8497 68.1092C37.641 68.8657 37.628 69.6092 37.8627 70.4178C42.0103 69.7526 44.9449 66.1137 44.958 62.0444C44.971 57.9751 42.0103 54.3492 37.8627 53.671C37.6149 54.4927 37.6801 55.197 37.8106 55.9404C38.6714 56.0317 39.3627 55.8491 40.1322 56.0317C40.1713 56.8143 40.1843 57.5316 40.1322 58.3403L35.3716 58.4055C35.2281 59.2272 35.2281 59.9967 35.3716 60.8184H38.8409V60.8314Z" fill="#0DB14B"/>
<path d="M37.7196 48.5711C36.9762 48.7537 36.2067 48.6755 35.3328 48.6233L35.2024 45.0235H12.2603C12.0255 46.2235 12.2603 47.3712 12.1559 48.6494H9.72998L9.75607 43.7845C9.75607 43.1193 10.2778 42.5715 10.9951 42.5715H35.2154L35.3067 38.9978C36.0501 38.8413 36.8066 38.8935 37.6805 38.9587L37.8109 42.5585H62.0312C62.7486 42.5715 63.2703 43.1063 63.2703 43.7845L63.2963 48.6494H60.8704L60.8443 45.0235H37.824L37.7457 48.5711H37.7196Z" fill="#0DB14B"/>
<path d="M72.9999 62.0571C72.9999 68.1089 68.0959 72.9999 62.0571 72.9999C56.0183 72.9999 51.1143 68.0959 51.1143 62.0571C51.1143 56.0183 56.0183 51.1143 62.0571 51.1143C68.0959 51.1143 72.9999 56.0183 72.9999 62.0571ZM70.5609 62.044C70.5609 57.3487 66.7525 53.5402 62.0571 53.5402C57.3617 53.5402 53.5532 57.3487 53.5532 62.044C53.5532 66.7394 57.3617 70.5479 62.0571 70.5479C66.7525 70.5479 70.5609 66.7394 70.5609 62.044Z" fill="#0DB14B"/>
<path d="M60.8439 65.696L60.8179 63.27H55.979V60.831H60.8179L60.8439 58.392C60.8439 57.9095 61.0917 57.5834 61.3265 57.4269C61.7048 57.166 62.3438 57.1008 62.7482 57.4008L67.5348 60.9875C67.9261 61.2745 68.1087 61.6397 68.1087 62.044C68.1087 62.4483 67.9261 62.8135 67.5348 63.1005L62.7482 66.6872C62.396 66.9481 61.8874 66.922 61.47 66.7524C61.17 66.635 60.8439 66.2438 60.8439 65.6829V65.696ZM64.8089 62.044C64.2611 61.5614 63.909 61.2354 63.322 60.9484C63.2177 61.7571 63.2177 62.3309 63.322 63.1396C63.909 62.8657 64.2611 62.5396 64.8089 62.044Z" fill="#0DB14B"/>
<path d="M21.8987 62.0571C21.8987 68.1089 16.9946 72.9999 10.9559 72.9999C4.9171 72.9999 0 68.0959 0 62.0571C0 56.0183 4.90406 51.1143 10.9428 51.1143C16.9816 51.1143 21.8857 56.0183 21.8857 62.0571H21.8987ZM19.4597 62.044C19.4597 57.3487 15.6512 53.5402 10.9559 53.5402C6.2605 53.5402 2.45203 57.3487 2.45203 62.044C2.45203 66.7394 6.2605 70.5479 10.9559 70.5479C15.6512 70.5479 19.4597 66.7394 19.4597 62.044Z" fill="#0DB14B"/>
<path d="M12.2081 63.2571C12.0124 64.3135 12.5211 66.1134 11.6472 66.6482C11.2429 66.896 10.6821 67.0003 10.2647 66.6873L5.46499 63.1005C5.07371 62.8136 4.89111 62.4354 4.89111 62.0441C4.89111 61.6528 5.07371 61.2746 5.46499 60.9876L10.2517 57.4009C10.669 57.0879 11.2429 57.14 11.6733 57.427C11.9472 57.6096 12.1559 58.053 12.1559 58.6008V60.8181H17.0078V63.244H12.195L12.2081 63.2571ZM9.6517 63.1266C9.80821 62.1615 9.76908 61.718 9.67778 60.9615C9.09086 61.2746 8.63437 61.6267 8.20396 62.0963C8.75175 62.5267 9.11695 62.9179 9.6517 63.1397V63.1266Z" fill="#0DB14B"/>
</g>
<defs>
<clipPath id="clip0_55_3328">
<rect width="73" height="73" fill="white"/>
</clipPath>
</defs>
</svg>
