<svg width="73" height="73" viewBox="0 0 73 73" fill="none" xmlns="http://www.w3.org/2000/svg">
<g clip-path="url(#clip0_55_3361)">
<path d="M72.9998 59.8614C72.9998 63.8832 69.7177 67.1549 65.6542 67.1549C61.5907 67.1549 58.3086 63.8961 58.3086 59.8614C58.3086 55.8267 61.5907 52.5679 65.6542 52.5679C69.7177 52.5679 72.9998 55.8267 72.9998 59.8614ZM70.0563 59.8614C70.0563 57.4432 68.0897 55.4905 65.6542 55.4905C63.2187 55.4905 61.252 57.4432 61.252 59.8614C61.252 62.2797 63.2187 64.2323 65.6542 64.2323C68.0897 64.2323 70.0563 62.2797 70.0563 59.8614Z" fill="#0DB14B"/>
<path d="M14.6912 59.8614C14.6912 63.8832 11.3961 67.1549 7.34558 67.1549C3.29509 67.1549 0 63.8832 0 59.8614C0 55.8396 3.29509 52.5679 7.34558 52.5679C11.3961 52.5679 14.6912 55.8396 14.6912 59.8614ZM11.7477 59.8614C11.7477 57.4432 9.78109 55.4905 7.34558 55.4905C4.91008 55.4905 2.94344 57.4432 2.94344 59.8614C2.94344 62.2797 4.91008 64.2323 7.34558 64.2323C9.78109 64.2323 11.7477 62.2797 11.7477 59.8614Z" fill="#0DB14B"/>
<path d="M44.0994 65.7066C44.0994 69.7284 40.8043 73.0002 36.7538 73.0002C32.7033 73.0002 29.4082 69.7284 29.4082 65.7066C29.4082 61.6848 32.7033 58.4131 36.7538 58.4131C40.8043 58.4131 44.0994 61.6848 44.0994 65.7066ZM41.1559 65.7066C41.1559 63.2884 39.1893 61.3357 36.7538 61.3357C34.3183 61.3357 32.3516 63.2884 32.3516 65.7066C32.3516 68.1249 34.3183 70.0776 36.7538 70.0776C39.1893 70.0776 41.1559 68.1249 41.1559 65.7066Z" fill="#0DB14B"/>
<path d="M48.6707 49.1405C47.6548 49.1405 47.0948 48.4551 47.0688 47.7697C47.0427 46.955 47.5897 46.2438 48.5144 46.2309L55.313 46.1662L55.3781 39.4158C55.3781 38.4976 56.0945 37.9545 56.928 37.9804C57.6183 38.0062 58.2955 38.5752 58.2955 39.4546V47.6146C58.2955 48.481 57.6443 49.1276 56.7717 49.1276H48.6838L48.6707 49.1405Z" fill="#0DB14B"/>
<path d="M53.6333 42.4288C54.2845 43.0625 54.2585 43.9548 53.7766 44.5109C53.2687 45.0928 52.2658 45.1962 51.6276 44.5626L47.499 40.4503C46.9259 39.8813 46.978 39.0019 47.4339 38.4717C47.9288 37.8898 48.9316 37.7734 49.5698 38.3941L53.6463 42.4288H53.6333Z" fill="#0DB14B"/>
<path d="M43.722 46.218L37.796 52.1278C37.1448 52.7873 36.181 52.6063 35.5819 51.9985L29.8513 46.2826C29.2783 45.7136 29.3173 44.8472 29.7732 44.3041C30.2681 43.7221 31.2709 43.6058 31.9091 44.2265L36.7541 49.0242L41.599 44.2265C42.1721 43.6575 43.0577 43.7092 43.5917 44.1618C44.0736 44.5627 44.3602 45.5585 43.7089 46.205L43.722 46.218Z" fill="#0DB14B"/>
<path d="M38.2126 45.2738C38.2126 46.1661 37.4963 46.6575 36.8842 46.7093C36.1548 46.761 35.3343 46.2566 35.3083 45.3773C35.2431 43.347 35.2562 41.3555 35.3083 39.3252C35.3213 38.5364 36.0246 38.0449 36.6367 37.9932C37.3791 37.9286 38.2126 38.4458 38.2126 39.3252V45.2738Z" fill="#0DB14B"/>
<path d="M24.5243 49.1146H16.1888C15.4335 49.1275 14.7041 48.5456 14.7041 47.7567V39.3252C14.7041 38.5364 15.4335 38.0449 16.0326 37.9932C16.788 37.9286 17.5954 38.4458 17.6085 39.3252L17.6736 46.1661L24.4591 46.2437C25.2927 46.2437 25.8527 46.8256 25.9309 47.5627C25.996 48.2093 25.5141 49.1275 24.5243 49.1275V49.1146Z" fill="#0DB14B"/>
<path d="M21.4376 44.5111C20.7864 45.1577 19.9008 45.1059 19.3537 44.6275C18.8067 44.149 18.6504 43.1532 19.3016 42.5196L23.5996 38.3038C24.1857 37.7348 25.1755 37.9159 25.6834 38.5883C26.0091 39.0151 26.1132 39.8686 25.5141 40.4634L21.4376 44.5111Z" fill="#0DB14B"/>
<path d="M2.93018 0H70.5903V32.1355H2.93018V0ZM67.6208 2.93552H5.88664V29.2129H67.6338V2.93552H67.6208Z" fill="#0DB14B"/>
<path d="M44.0994 16.0611C44.0994 20.0829 40.8043 23.3546 36.7538 23.3546C32.7033 23.3546 29.4082 20.0829 29.4082 16.0611C29.4082 12.0393 32.7033 8.76758 36.7538 8.76758C40.8043 8.76758 44.0994 12.0393 44.0994 16.0611ZM41.1559 16.0611C41.1559 13.6429 39.1893 11.6902 36.7538 11.6902C34.3183 11.6902 32.3516 13.6429 32.3516 16.0611C32.3516 18.4794 34.3183 20.4321 36.7538 20.4321C39.1893 20.4321 41.1559 18.4794 41.1559 16.0611Z" fill="#0DB14B"/>
<path d="M20.3825 20.1607C20.6039 20.8461 23.3259 19.7599 23.4822 21.7902C23.5473 22.6566 22.9091 23.3808 21.9453 23.3808H19.1973C18.2726 23.3808 17.6474 22.7083 17.6213 21.816C17.5432 19.3331 15.5635 17.5485 13.115 17.5097C12.3205 17.4968 11.8256 16.8114 11.7735 16.2036C11.7084 15.4665 12.2294 14.6647 13.115 14.6518C15.5635 14.6001 17.5432 12.8155 17.6213 10.3455C17.6474 9.45322 18.2726 8.78076 19.1973 8.78076H21.9453C22.9221 8.78076 23.5603 9.50494 23.4952 10.3714C23.3259 12.4017 20.6299 11.3154 20.4085 12.0008C19.8615 13.6302 19.1191 14.9492 17.6474 16.0872C19.1191 17.2252 19.8745 18.5572 20.3955 20.1737L20.3825 20.1607Z" fill="#0DB14B"/>
<path d="M55.8732 21.8031C55.8081 23.8075 53.581 23.3807 51.5622 23.3678C50.5854 23.3678 49.9473 22.6436 50.0124 21.7772C50.1687 19.6564 52.9167 21.0013 53.2033 19.9926C53.6591 18.3891 54.4927 17.1735 55.8602 16.0613C54.4015 14.9363 53.6461 13.5914 53.1121 11.9749C52.8777 11.2895 50.1817 12.3887 50.0124 10.3455C49.9473 9.47906 50.5854 8.75488 51.5622 8.75488H54.3103C55.235 8.75488 55.8602 9.4144 55.8862 10.3196C55.9644 12.6732 57.8138 14.5095 60.1842 14.5871C61.0698 14.613 61.682 15.182 61.734 15.9191C61.7992 16.7985 61.161 17.4838 60.1842 17.5097C57.8138 17.6002 55.9644 19.4107 55.8862 21.7772L55.8732 21.8031Z" fill="#0DB14B"/>
</g>
<defs>
<clipPath id="clip0_55_3361">
<rect width="73" height="73" fill="white"/>
</clipPath>
</defs>
</svg>
