<svg width="73" height="73" viewBox="0 0 73 73" fill="none" xmlns="http://www.w3.org/2000/svg">
<g clip-path="url(#clip0_55_3381)">
<path d="M43.5429 73.0004H29.444C28.8857 73.0004 28.4184 72.7537 28.2106 72.455C27.925 72.0395 27.7822 71.4422 28.0419 71.0008L30.9889 65.8848L4.84234 65.8329C2.11604 65.8329 0.103764 63.5865 -0.0130775 61.0675C-0.129919 58.5484 1.81744 55.9125 4.58269 55.8996L31.8068 55.8346C34.4941 53.0949 38.5836 53.2507 41.193 55.8476L68.3522 55.8996C71.0525 55.8996 72.9739 58.4186 72.961 60.8727C72.935 63.4956 70.8968 65.8329 68.1055 65.8458L41.959 65.8978L44.906 71.0137C45.1657 71.4682 45.0099 72.0525 44.7632 72.4421C44.5425 72.7797 44.0881 73.0134 43.5169 73.0134L43.5429 73.0004ZM40.3492 60.2624C40.3492 58.1329 38.6225 56.406 36.4934 56.406C34.3643 56.406 32.6376 58.1329 32.6376 60.2624C32.6376 62.3919 34.3643 64.1189 36.4934 64.1189C38.6225 64.1189 40.3492 62.3919 40.3492 60.2624ZM30.8461 63.0411C30.2619 61.5219 30.1191 60.1715 30.4306 58.6523H4.79041C3.47919 58.6523 2.63533 59.743 2.64831 60.8597C2.6613 61.9764 3.50515 63.0282 4.82936 63.0282H30.8461V63.0411ZM68.4431 63.0411C69.8841 63.0411 70.6111 61.7297 70.5462 60.6649C70.4813 59.6002 69.6375 58.6263 68.3912 58.6263H42.4134C42.6471 60.1196 42.5692 61.5479 41.959 63.0671L68.4431 63.0411ZM41.0762 70.2866L38.8173 66.2743C37.2334 66.8327 35.7794 66.8197 34.2085 66.2743L31.9366 70.2996H41.0762V70.2866Z" fill="#0DB14B"/>
<path d="M31.4823 35.7731C31.4823 44.4729 24.4329 51.5106 15.7476 51.5106C7.06242 51.5106 0 44.4729 0 35.7731C0 27.0734 7.04944 20.0356 15.7347 20.0356C24.4199 20.0356 31.4693 27.0863 31.4693 35.7731H31.4823ZM28.9118 35.7731C28.9118 28.5017 23.0178 22.5936 15.7347 22.5936C8.45154 22.5936 2.55753 28.5017 2.55753 35.7731C2.55753 43.0445 8.45154 48.9526 15.7347 48.9526C23.0178 48.9526 28.9118 43.0575 28.9118 35.7731Z" fill="#0DB14B"/>
<path d="M19.1882 15.7506H13.0605C12.1647 15.7506 11.4377 15.2183 11.4377 14.2834L11.3987 9.34918C10.4121 9.15441 9.00996 9.63485 8.43874 8.60906C8.15313 8.10265 8.11418 7.36252 8.56856 6.90806L14.9819 0.480632C15.605 -0.155619 16.5398 -0.142634 17.1629 0.480632L23.4594 6.7912C23.9267 7.25865 24.0695 7.86893 23.7839 8.49219C23.2516 9.66082 21.8106 9.19337 20.746 9.37515L20.7071 14.3223C20.7071 15.1274 20.0839 15.7636 19.1752 15.7766L19.1882 15.7506ZM18.0327 13.1927V8.05071C18.0068 7.20671 18.3703 6.64837 19.2401 6.24584L16.0464 3.07757L12.9306 6.24584C15.0987 6.83015 13.7615 11.3618 14.2419 13.2706C15.631 13.2706 16.7475 13.4004 18.0457 13.2056L18.0327 13.1927Z" fill="#0DB14B"/>
<path d="M17.1368 38.6558C17.1368 39.6166 16.3579 40.0581 15.6568 40.0321C14.8908 40.0062 14.3066 39.4478 14.3066 38.5778V32.9685C14.3066 32.1115 14.9168 31.5661 15.6568 31.5272C16.3449 31.4882 17.1238 31.9557 17.1238 32.7997V38.6687L17.1368 38.6558Z" fill="#0DB14B"/>
<path d="M15.7344 28.5924C16.5159 28.5924 17.1495 27.9587 17.1495 27.1771C17.1495 26.3954 16.5159 25.7617 15.7344 25.7617C14.9529 25.7617 14.3193 26.3954 14.3193 27.1771C14.3193 27.9587 14.9529 28.5924 15.7344 28.5924Z" fill="#0DB14B"/>
<path d="M21.8101 31.1246C22.5916 31.1246 23.2252 30.4909 23.2252 29.7093C23.2252 28.9276 22.5916 28.2939 21.8101 28.2939C21.0286 28.2939 20.395 28.9276 20.395 29.7093C20.395 30.4909 21.0286 31.1246 21.8101 31.1246Z" fill="#0DB14B"/>
<path d="M21.8101 43.2652C22.5916 43.2652 23.2252 42.6316 23.2252 41.8499C23.2252 41.0682 22.5916 40.4346 21.8101 40.4346C21.0286 40.4346 20.395 41.0682 20.395 41.8499C20.395 42.6316 21.0286 43.2652 21.8101 43.2652Z" fill="#0DB14B"/>
<path d="M15.7344 45.7843C16.5159 45.7843 17.1495 45.1506 17.1495 44.3689C17.1495 43.5873 16.5159 42.9536 15.7344 42.9536C14.9529 42.9536 14.3193 43.5873 14.3193 44.3689C14.3193 45.1506 14.9529 45.7843 15.7344 45.7843Z" fill="#0DB14B"/>
<path d="M9.67192 43.2652C10.4534 43.2652 11.087 42.6316 11.087 41.8499C11.087 41.0682 10.4534 40.4346 9.67192 40.4346C8.89039 40.4346 8.25684 41.0682 8.25684 41.8499C8.25684 42.6316 8.89039 43.2652 9.67192 43.2652Z" fill="#0DB14B"/>
<path d="M9.67192 31.1246C10.4534 31.1246 11.087 30.4909 11.087 29.7093C11.087 28.9276 10.4534 28.2939 9.67192 28.2939C8.89039 28.2939 8.25684 28.9276 8.25684 29.7093C8.25684 30.4909 8.89039 31.1246 9.67192 31.1246Z" fill="#0DB14B"/>
<path d="M7.14018 37.2013C7.92171 37.2013 8.55526 36.5676 8.55526 35.7859C8.55526 35.0043 7.92171 34.3706 7.14018 34.3706C6.35865 34.3706 5.7251 35.0043 5.7251 35.7859C5.7251 36.5676 6.35865 37.2013 7.14018 37.2013Z" fill="#0DB14B"/>
<path d="M24.3287 37.1881C25.1102 37.1881 25.7437 36.5544 25.7437 35.7728C25.7437 34.9911 25.1102 34.3574 24.3287 34.3574C23.5471 34.3574 22.9136 34.9911 22.9136 35.7728C22.9136 36.5544 23.5471 37.1881 24.3287 37.1881Z" fill="#0DB14B"/>
<path d="M58.3301 15.2572C57.694 15.8935 56.8112 15.8805 56.227 15.2962L49.8007 8.86875C49.3723 8.44026 49.3204 7.81699 49.5151 7.31059C49.9954 6.03809 51.5533 6.63538 52.6049 6.40166L52.6309 1.41553C52.6309 0.701373 53.1502 0.0131836 53.9291 0.0131836H60.5501C61.3421 0.0131836 61.8873 0.675403 61.8873 1.41553V6.37569C62.7701 6.66135 64.3799 6.06405 64.9252 7.14179C65.1589 7.62222 65.2108 8.36235 64.7954 8.79084L58.3431 15.2572H58.3301ZM60.3684 9.47903C59.4596 8.98561 59.174 8.46622 59.174 7.67416V2.58415L55.3831 2.55819L55.3572 7.66117C55.3572 8.50518 54.9807 9.07651 54.1628 9.46605L57.2656 12.5694L60.3814 9.47903H60.3684Z" fill="#0DB14B"/>
<path d="M73.0001 35.7731C73.0001 44.4729 65.9506 51.5106 57.2654 51.5106C48.5802 51.5106 41.5308 44.4599 41.5308 35.7731C41.5308 27.0863 48.5802 20.0356 57.2654 20.0356C65.9506 20.0356 73.0001 27.0863 73.0001 35.7731ZM70.5464 35.7731C70.5464 28.4367 64.6005 22.4898 57.2654 22.4898C49.9304 22.4898 43.9844 28.4367 43.9844 35.7731C43.9844 43.1095 49.9304 49.0565 57.2654 49.0565C64.6005 49.0565 70.5464 43.1095 70.5464 35.7731Z" fill="#0DB14B"/>
<path d="M58.6285 43.512C58.5895 44.4209 57.8885 44.9663 57.1485 44.9403C56.3046 44.9013 55.7204 44.2911 55.7853 43.46C55.8113 43.2133 55.8373 42.7848 55.6815 42.616C54.8246 42.4602 54.0457 42.1616 53.2927 41.7331C52.5397 41.3046 52.358 40.5255 52.6955 39.9542C53.9289 37.9026 55.7464 41.1747 58.2909 39.7075C58.953 39.3309 59.1348 38.6687 59.1088 38.0584C59.0309 36.5911 55.8503 36.7989 53.8639 34.981C52.8513 34.0591 52.6696 32.7606 53.098 31.4752C53.9159 29.021 55.9671 29.6443 55.7853 28.3069C55.6685 27.385 56.1748 26.6838 57.1355 26.6448C57.9404 26.6189 58.6544 27.2292 58.6025 28.1251C58.5246 29.4755 59.4204 28.7094 60.6537 29.904C61.186 30.4104 61.186 31.0856 60.8744 31.5401C59.5632 33.4099 58.1092 30.2676 56.1099 31.8257C55.7464 32.0984 55.6036 32.9294 56.032 33.2281C57.8885 34.5266 60.9004 34.3448 61.7832 37.0326C62.5362 39.3309 61.1341 41.5513 58.7713 42.4472C58.4727 42.5641 58.6415 43.2133 58.6285 43.512Z" fill="#0DB14B"/>
</g>
<defs>
<clipPath id="clip0_55_3381">
<rect width="73" height="73" fill="white"/>
</clipPath>
</defs>
</svg>
