<svg width="71" height="71" viewBox="0 0 71 71" fill="none" xmlns="http://www.w3.org/2000/svg">
<path d="M46.4254 68.7486L35.4584 70.9752C34.9684 71.0732 34.4784 70.8683 34.1933 70.61C33.8547 70.2983 33.632 69.7907 33.7389 69.2296L35.9305 58.3282L59.2189 35.0381C61.0274 33.2301 63.8248 33.3014 65.5888 35.0648L69.6246 39.0994C71.4777 40.9519 71.451 43.7396 69.589 45.601L46.4254 68.7486ZM67.6023 43.3923C68.2705 42.7243 68.1547 41.8336 67.629 41.3082L63.5041 37.1667C62.8716 36.5344 61.9718 36.4809 61.2858 37.1667L38.6389 59.8066L37.0798 67.6353L44.902 66.0945L67.6023 43.4012V43.3923Z" fill="#0DB14B"/>
<path d="M11.7956 13.0301C11.7956 12.5848 11.8936 12.0415 11.6709 11.8544C10.2365 11.7832 8.89125 11.8099 7.41235 11.8277C5.06926 11.8455 2.93999 13.6535 2.93999 16.1562L2.92217 54.6494C2.92217 57.2234 4.9089 59.1828 7.44798 59.1828H28.0012C28.9277 59.1828 29.5425 59.8329 29.5514 60.6345C29.5603 61.4361 28.9545 62.1486 28.019 62.1486L7.23416 62.1218C3.27854 62.0951 0 58.8621 0 54.8543V16.1473C0 11.9168 3.55472 8.79957 7.62616 8.86191C9.10507 8.87972 10.388 8.89754 11.7867 8.83519C11.8402 8.32753 11.8045 7.92674 11.8134 7.4458C11.8669 4.88968 15.9294 6.33251 17.8894 5.85157C18.7001 2.32465 21.7114 0.0179103 25.1147 9.75806e-05C28.5179 -0.0177151 31.6183 2.40481 32.4023 5.91391H36.9103C37.8903 5.91391 38.5317 6.67095 38.4605 7.65955C38.4337 8.06925 38.407 8.43441 38.5406 8.87082H42.7903C46.8439 8.87082 50.2739 11.9969 50.2828 16.1473L50.3184 33.8887C50.3184 34.8061 49.677 35.4384 48.9108 35.4741C48.0377 35.5275 47.3339 34.8684 47.3339 33.8887L47.3161 16.1829C47.3161 13.8673 45.4808 11.9969 43.1823 11.8544C41.6588 11.7654 40.2334 11.8277 38.701 11.8455C38.407 11.8455 38.4159 12.4779 38.4426 12.7184C38.701 15.3546 36.8123 17.7326 34.0861 17.7326L16.3392 17.7504C13.7289 17.7504 11.76 15.702 11.8045 13.039L11.7956 13.0301ZM33.9792 14.7846C34.9146 14.7846 35.4759 14.0454 35.4759 13.3062L35.4937 8.87082L31.0481 8.853C30.3176 8.853 29.5959 8.26519 29.587 7.47252C29.5692 4.92531 27.5647 2.92138 25.0879 2.9481C22.6112 2.97482 20.7225 4.93421 20.669 7.41018C20.6512 8.283 19.983 8.853 19.1456 8.86191L14.7801 8.90644V13.2795C14.7801 14.1167 15.4216 14.7935 16.3214 14.7935H33.9703L33.9792 14.7846Z" fill="#0DB14B"/>
<path d="M39.9842 26.6035L10.4952 26.6213C9.57758 26.6213 8.96285 26.0602 8.89158 25.2854C8.8203 24.5105 9.35485 23.6733 10.3259 23.6733H39.8862C40.7415 23.6733 41.2939 24.2433 41.3919 24.9291C41.4899 25.6149 41.0355 26.6035 39.9842 26.6035Z" fill="#0DB14B"/>
<path d="M39.9842 35.4829L10.4952 35.5007C9.57758 35.5007 8.96285 34.9396 8.89158 34.1648C8.8203 33.3899 9.35485 32.5527 10.3259 32.5527H39.8862C40.7415 32.5527 41.2939 33.1227 41.3919 33.8085C41.4899 34.4943 41.0355 35.4829 39.9931 35.4829H39.9842Z" fill="#0DB14B"/>
<path d="M39.9842 44.3535L10.4952 44.3713C9.57758 44.3713 8.96285 43.8102 8.89158 43.0354C8.8203 42.2605 9.35485 41.4233 10.3259 41.4233H39.8862C40.7415 41.4233 41.2939 41.9933 41.3919 42.6791C41.4899 43.3649 41.0355 44.3535 39.9931 44.3535H39.9842Z" fill="#0DB14B"/>
</svg>
