<svg width="67" height="60" viewBox="0 0 67 60" fill="none" xmlns="http://www.w3.org/2000/svg">
<g clip-path="url(#clip0_55_3404)">
<path d="M52.6726 38.5092C51.7765 39.0048 51.1348 38.9598 50.3161 38.5092C46.632 36.4818 43.3019 34.0151 40.5693 30.7713C38.423 28.2145 37.1064 25.4099 36.5643 22.076C35.7678 17.1539 35.7567 12.2656 36.2545 7.29841C36.3099 6.73524 36.7081 6.27344 37.2392 6.1946C42.0407 5.47374 46.5767 3.60402 50.3161 0.495328C51.1016 -0.157948 51.7544 -0.157948 52.5509 0.495328C56.2351 3.5477 60.6936 5.43995 65.4288 6.13828C66.0594 6.22839 66.5793 6.56629 66.6568 7.28714C67.1436 12.3219 67.1436 17.3003 66.3138 22.29C65.0526 29.8364 58.9677 34.9838 52.6505 38.498L52.6726 38.5092ZM51.4667 36.2228C54.8853 34.3305 57.795 32.1792 60.2179 29.3634C62.1208 27.167 63.371 24.7454 63.8356 21.8394C64.6211 17.4354 64.5769 13.0427 64.2671 8.5599C59.4877 7.6701 55.2283 5.76659 51.4335 2.90569C47.5835 5.83417 43.3351 7.6701 38.6221 8.57117C38.3123 13.0427 38.2681 17.4354 39.0536 21.8507C39.5183 24.7566 40.7684 27.167 42.6603 29.3634C45.1053 32.2017 48.0371 34.3756 51.4667 36.234V36.2228Z" fill="#0DB14B"/>
<path d="M49.1545 25.1735L43.1802 19.0913C42.7266 18.6295 42.8594 17.8411 43.1802 17.4469C43.5674 16.9851 44.4083 16.7936 44.9172 17.3117L49.9731 22.414L57.8724 14.4058C58.4145 13.8539 59.2554 14.0566 59.6315 14.4846C60.1183 15.0478 60.0519 15.7686 59.5098 16.3205L50.8472 25.1285C50.4378 25.5452 49.6302 25.6691 49.1323 25.1623L49.1545 25.1735Z" fill="#0DB14B"/>
<path d="M57.7067 55.4835L57.7399 39.5796C57.7399 38.7799 58.3484 38.3069 58.979 38.3069C59.6096 38.3069 60.2292 38.7799 60.2292 39.5796V55.6074C60.2071 58.0178 58.3152 60.0114 55.8702 60.0114H4.34792C1.92503 60.0114 0 58.0403 0 55.5849V18.4383C0 15.9716 1.9361 14.023 4.32579 14.023L31.9069 14.0005C32.7145 14.0005 33.2345 14.6312 33.2345 15.2845C33.2345 15.9378 32.7145 16.5573 31.9069 16.5573H4.56919C3.30796 16.5573 2.48927 17.3795 2.48927 18.6748V55.3258C2.48927 56.6211 3.28583 57.4433 4.58025 57.4433H55.8481C56.9212 57.4321 57.7067 56.576 57.7067 55.461V55.4835Z" fill="#0DB14B"/>
<path d="M28.3996 52.3408H12.1032C9.17138 52.3858 7.42336 50.0543 7.46762 47.2159C7.55612 42.6768 10.1671 38.8022 14.5925 37.4055C11.1407 34.0941 11.0411 28.8679 14.161 25.5114C17.2809 22.1549 22.6245 22.0423 25.855 25.3875C29.0855 28.7327 29.0634 34.0265 25.5452 37.3943C30.037 38.8247 32.6922 42.8007 32.6479 47.4525C32.6258 49.998 31.1212 52.138 28.3885 52.3295L28.3996 52.3408ZM25.7112 31.2557C25.7112 28.0795 23.1887 25.5114 20.0688 25.5114C16.949 25.5114 14.4265 28.0795 14.4265 31.2557C14.4265 34.432 16.949 37.0001 20.0688 37.0001C23.1887 37.0001 25.7112 34.432 25.7112 31.2557ZM28.1562 49.784C29.5834 49.784 30.1033 48.6689 30.1255 47.475C30.225 43.1724 27.083 39.5794 22.8126 39.5794H17.3251C12.9551 39.5794 9.77987 43.3188 10.0122 47.7115C10.0786 48.9392 10.8088 49.7953 12.0921 49.7953H28.1562V49.784Z" fill="#0DB14B"/>
<path d="M51.4447 52.3297H39.0094C38.1796 52.3522 37.6597 51.7552 37.6597 51.0682C37.6597 50.3811 38.1796 49.7954 39.0094 49.7954H51.334C52.0753 49.7954 52.5731 50.2572 52.6616 50.8654C52.7502 51.4962 52.3851 52.3297 51.4447 52.3297Z" fill="#0DB14B"/>
<path d="M46.4331 44.6592L39.0096 44.6818C38.1909 44.6818 37.6709 44.0961 37.6709 43.409C37.6709 42.7219 38.1909 42.1362 39.0096 42.1362H46.3225C47.0527 42.1362 47.5616 42.598 47.6501 43.2063C47.7497 43.8595 47.3624 44.6705 46.4442 44.6705L46.4331 44.6592Z" fill="#0DB14B"/>
</g>
<defs>
<clipPath id="clip0_55_3404">
<rect width="67" height="60" fill="white"/>
</clipPath>
</defs>
</svg>
