<svg width="71" height="57" viewBox="0 0 71 57" fill="none" xmlns="http://www.w3.org/2000/svg">
<g clip-path="url(#clip0_55_3415)">
<path d="M6.63103 54.2112L30.8393 54.2896C31.6188 54.2896 32.1348 54.7599 32.2007 55.4318C32.2556 56.0701 31.8384 56.854 30.993 56.854H7.1141C4.80855 56.8652 2.8104 55.8686 1.52588 54.1888C0.13157 52.3635 -0.417371 49.9446 0.340168 47.6713C2.88725 40.0676 8.79386 34.4012 16.4351 32.0943C11.5825 29.1939 8.9256 24.009 9.51846 18.533C10.3089 11.2092 16.0289 6.03556 23.253 6.23714C29.1047 6.30433 34.089 9.98861 35.8127 15.655C37.7669 22.0717 35.2748 28.7124 29.4779 32.0831C30.9162 32.7438 35.4394 33.5277 34.4843 35.6218C34.2428 36.1369 33.4742 36.5513 32.8155 36.2153C21.1011 30.101 6.79571 35.9354 2.66768 48.7464C1.86622 51.2436 3.82045 54.2224 6.62005 54.2336L6.63103 54.2112ZM33.9683 19.9328C33.9683 13.7401 29.0388 8.71199 22.9675 8.71199C16.8962 8.71199 11.9667 13.7401 11.9667 19.9328C11.9667 26.1255 16.8962 31.1536 22.9675 31.1536C29.0388 31.1536 33.9683 26.1255 33.9683 19.9328Z" fill="#0DB14B"/>
<path d="M47.9222 57.0001L39.4027 56.9777C36.8666 56.9777 35.0331 55.3651 34.1438 53.383C33.035 50.9193 34.3524 48.6349 35.604 46.8207C34.4512 45.1074 33.1008 42.8565 34.1328 40.4376C34.9453 38.5339 36.6689 36.7197 39.1831 36.7085L47.6917 36.6749C49.5032 36.6749 51.0402 37.3357 52.2808 38.6459C52.4894 38.8698 53.203 38.1083 53.0164 37.9068C51.3806 36.171 50.612 33.9649 51.4684 31.5797C52.1491 29.6983 53.9715 27.8954 56.2991 27.8842L65.4664 27.8506C67.9037 27.8506 69.9128 29.4856 70.6594 31.5685C71.5047 33.9201 70.7691 36.3166 68.9576 38.0076C71.7133 40.4376 71.6365 44.4355 68.9576 46.8319C70.835 48.5453 71.4279 51.0425 70.5825 53.3046C69.7371 55.5667 67.6951 56.9777 65.2468 56.9665H56.4747C54.8828 56.9665 53.5104 55.925 52.4455 54.9732C51.1939 55.9698 49.7776 56.9889 47.9332 56.9889L47.9222 57.0001ZM65.3676 36.6749C67.234 36.6749 68.4197 35.1856 68.4087 33.5282C68.4087 31.9716 67.1791 30.4486 65.4444 30.4598H56.5077C54.762 30.4822 53.5544 32.1844 53.6641 33.7522C53.7849 35.4879 55.1353 36.7085 56.9139 36.6973L65.3676 36.6749ZM48.1638 45.4993C50.0082 45.4993 51.128 43.8419 51.0622 42.2854C50.9963 40.6056 49.6898 39.273 47.9332 39.273H39.3807C37.6021 39.273 36.2737 40.7624 36.3066 42.4533C36.3286 44.0099 37.5472 45.5105 39.2599 45.4993H48.1747H48.1638ZM65.4774 45.5105C67.3218 45.5105 68.4855 43.8979 68.4197 42.2742C68.3538 40.6504 67.1681 39.3066 65.4774 39.3066H56.7163C54.9487 39.3066 53.6751 40.8296 53.7081 42.4757C53.741 44.1219 55.0475 45.5441 56.8041 45.5441L65.4883 45.5217L65.4774 45.5105ZM52.3796 46.0144L51.5892 46.8319L52.3906 47.6494L53.1811 46.8319L52.3796 46.0144ZM47.8344 48.1309L39.3807 48.1533C37.5912 48.1533 36.2737 49.6651 36.3506 51.4009C36.4164 52.9575 37.679 54.3797 39.3917 54.3797H47.9442C49.7996 54.3797 51.128 52.9127 51.0841 51.1769C51.0402 49.4412 49.7557 48.1309 47.8454 48.1309H47.8344ZM65.137 48.1197H56.9249C55.1243 48.1197 53.763 49.4076 53.6971 51.1769C53.6422 52.7895 54.9048 54.3685 56.6833 54.3685H65.4664C67.2669 54.3685 68.4965 52.7895 68.4416 51.1769C68.3867 49.4076 67.0473 48.1197 65.126 48.1197H65.137Z" fill="#0DB14B"/>
<path d="M58.8242 21.5008C58.8242 22.6206 58.3521 23.1582 57.5177 23.1358C56.7601 23.1134 56.2771 22.5758 56.2661 21.6128C56.2661 21.2096 56.4088 20.4145 56.1563 20.0786C54.6412 19.3059 53.4775 18.0405 53.4445 16.2263C53.4336 15.4536 53.8837 14.9049 54.5314 14.8265C56.6394 14.5466 55.256 17.5925 57.5067 17.6821C58.2972 17.7157 59.0876 17.111 59.1425 16.1255C59.1865 15.364 58.5716 14.4794 57.5945 14.4458C55.5744 14.3898 53.9496 12.99 53.5543 11.0862C53.1371 9.02574 54.235 7.11081 56.1563 6.24853C56.5296 5.49823 55.7501 3.14656 57.5177 3.12417C58.3521 3.11297 58.8461 3.76248 58.8351 4.70314C58.8351 5.13988 58.7144 5.86778 58.923 6.23733C60.5698 6.94283 61.7335 8.42102 61.6567 10.2912C61.6237 11.0079 61.0419 11.467 60.471 11.5006C58.5167 11.6126 59.7683 8.53301 57.5067 8.62259C56.6613 8.65619 56.0026 9.33929 55.9916 10.224C55.9806 11.1086 56.6174 11.7806 57.5835 11.8365C59.6585 11.9485 61.2834 13.3595 61.6128 15.364C61.9421 17.3686 60.9101 19.1715 59.0218 20.0226C58.6595 20.1794 58.8242 21.0528 58.8242 21.512V21.5008Z" fill="#0DB14B"/>
<path d="M63.2817 22.0158C63.8856 21.6238 64.709 22.1501 64.9066 22.5869C65.1372 23.1132 64.9944 23.9755 64.3906 24.3562C59.2964 27.5702 52.7092 26.7751 48.5043 22.5757C41.5547 15.6327 45.6607 4.56861 48.1639 5.59887C48.7787 5.85643 49.2398 6.72991 48.8007 7.45781C46.2097 11.7468 46.8794 17.2452 50.3377 20.7055C53.807 24.1771 59.1098 24.737 63.2927 22.027L63.2817 22.0158Z" fill="#0DB14B"/>
<path d="M66.202 18.9588C69.0565 14.6922 68.3428 9.35056 64.8735 5.77827C61.4042 2.20597 56.1783 1.44447 52.0173 4.19929C51.3806 4.62483 50.634 4.37846 50.2607 3.82974C48.7127 1.55646 56.1344 -1.27674 61.6238 0.615791C66.5643 2.30675 69.8799 6.88691 70.4069 12.1166C70.7033 15.0282 70.0006 17.7942 68.4526 20.1906C68.0793 20.773 67.3547 20.8737 66.8387 20.6386C66.2898 20.381 66.0263 19.7763 66.202 18.9476V18.9588Z" fill="#0DB14B"/>
</g>
<defs>
<clipPath id="clip0_55_3415">
<rect width="71" height="57" fill="white"/>
</clipPath>
</defs>
</svg>
