<svg width="66" height="60" viewBox="0 0 66 60" fill="none" xmlns="http://www.w3.org/2000/svg">
<g clip-path="url(#clip0_55_3425)">
<path d="M5.98584 59.8858C4.93999 59.8858 4.18341 59.6001 3.31558 59.2572C2.29198 58.8458 0 59.7944 0 58.023V46.8572C0 45.143 2.44774 46.2172 3.25995 45.6915C4.29467 45.0172 4.63958 41.5887 8.28894 41.4172L11.8715 41.0972C13.9633 40.9144 14.5307 42.5144 14.7643 44.7315L21.8405 44.7544C23.3871 44.7544 24.5887 45.9544 24.6554 47.4287C24.7222 48.9029 23.5651 50.3315 22.0297 50.3429L17.5013 50.3772C18.0577 51.5658 16.945 52.4229 16.7893 53.3029C16.5779 54.4915 16.9562 55.9201 15.4541 56.6287C15.8769 58.3887 14.6086 59.863 12.9508 59.863H5.96359L5.98584 59.8858ZM13.9521 52.6515C14.119 51.5887 15.5654 52.1601 15.6099 51.0972C15.6544 50.0344 14.0745 50.5601 14.2859 49.1087C14.3415 48.7315 14.6864 48.3201 15.1982 48.3201L22.0185 48.2858C22.4525 48.2858 22.7195 47.7829 22.6639 47.4401C22.6194 47.2115 22.3857 46.8115 21.9963 46.8115L10.0691 46.7887C9.4238 46.7887 9.14565 46.2629 9.15678 45.7258C9.15678 45.2572 9.51281 44.7772 10.1025 44.7658L12.6726 44.7087C12.6726 43.8401 11.8827 43.1658 10.9815 43.2344L8.30007 43.4515C5.06237 43.7144 6.44201 48.4572 2.0472 47.8515L2.01382 57.0858C3.15981 56.7544 4.03877 57.4858 5.05125 57.6458C7.67701 58.0572 10.325 57.6458 12.9842 57.8287C13.2957 57.8515 13.5293 57.5887 13.5516 57.4287C13.6517 56.6058 12.7505 56.6058 13.0509 55.6229C13.3847 54.5372 14.6976 55.2801 14.7866 54.4458C14.8756 53.5429 13.7741 53.863 13.9744 52.6401L13.9521 52.6515Z" fill="#0DB14B"/>
<path d="M58.3677 49.6002C58.3677 55.3488 53.8282 60.0002 48.2429 60.0002C42.6576 60.0002 38.1182 55.3373 38.1182 49.6002C38.1182 43.8631 42.6576 39.2002 48.2429 39.2002C53.8282 39.2002 58.3677 43.8631 58.3677 49.6002ZM56.1869 49.6002C56.1869 45.0859 52.6266 41.4288 48.2318 41.4288C43.837 41.4288 40.2766 45.0859 40.2766 49.6002C40.2766 54.1145 43.837 57.7716 48.2318 57.7716C52.6266 57.7716 56.1869 54.1145 56.1869 49.6002Z" fill="#0DB14B"/>
<path d="M49.4002 53.8743C49.1554 54.6743 49.7896 56.7429 48.2653 56.7429C47.5532 56.7429 47.1304 56.2057 47.1527 55.4057C47.1749 54.8914 47.2195 54.3886 47.0859 53.8857C46.2404 53.8857 45.6284 53.4514 45.6284 52.5714V46.48C45.6284 45.6229 46.3294 45.3029 47.1304 45.28C47.3196 44.2971 46.7633 42.6286 48.0873 42.4343C48.6881 42.3429 49.2221 42.7429 49.3334 43.4514C49.4335 44.0114 49.1443 44.7314 49.4669 45.2C49.6561 45.4857 50.9022 45.2 50.8911 46.6972L50.8354 52.9029C50.8354 53.6114 50.0344 53.8972 49.4224 53.8743H49.4002ZM48.6992 47.5772H47.798V51.6343H48.6992V47.5772Z" fill="#0DB14B"/>
<path d="M1.96937 28.7655C1.5132 29.3369 0.945769 29.3141 0.522977 29.0626C0.0779336 28.7998 -0.233597 28.0341 0.200321 27.4855L14.3416 9.65693C14.6865 9.22265 15.087 9.17693 15.5432 9.25693C15.9215 9.32551 16.2108 9.67979 16.322 10.1826L19.0257 22.1826L23.3982 16.9141C23.7098 16.5369 24.1437 16.4684 24.5665 16.5941C24.9336 16.7084 25.1673 17.0169 25.3119 17.5312L30.6191 36.9369L37.6619 23.2912C37.9289 22.7769 38.3517 22.5826 38.819 22.6284C39.2863 22.6741 39.609 23.0626 39.7536 23.5884C40.2543 25.4169 40.5435 27.1769 41.2 29.1426L46.4849 19.3712C46.763 18.8569 47.1747 18.6169 47.7088 18.7198C48.1983 18.8112 48.5543 19.2912 48.5988 19.9084C48.7324 21.8855 48.8992 23.7255 49.144 25.7712L62.1282 9.37122C61.4161 9.07408 59.2576 10.3312 58.9795 8.77693C58.8348 7.95408 59.2576 7.48551 60.0253 7.34836L64.7206 6.54836C65.3881 6.43408 65.9778 6.95979 65.9667 7.66836L65.8665 12.5484C65.8554 13.1312 65.555 13.6226 65.1322 13.7484C64.6538 13.8969 64.053 13.7941 63.8193 13.2798C63.5189 12.5941 63.8972 11.9084 63.6079 11.0626L49.0439 29.4512C48.699 29.8855 48.1983 29.8969 47.8089 29.7484C47.4195 29.5998 47.197 29.1655 47.1525 28.6741L46.6518 23.7026L41.7674 32.7541C41.5004 33.2455 41.111 33.4626 40.6437 33.4169C40.1764 33.3712 39.8537 33.0398 39.698 32.5141C39.1639 30.6626 38.8858 28.7998 38.2182 26.9369L31.2755 40.3769C31.0196 40.8684 30.6524 41.0969 30.1518 41.0626C29.7846 41.0284 29.3507 40.7998 29.2061 40.2512L23.6875 20.0226L19.2037 25.3941C18.881 25.7826 18.4249 25.8512 18.0021 25.7026C17.6238 25.5655 17.4124 25.2112 17.29 24.6969L14.6086 12.8112L1.96937 28.7655Z" fill="#0DB14B"/>
<path d="M44.983 8.30857C44.983 12.9029 41.3559 16.6171 36.8943 16.6171C32.4328 16.6171 28.8057 12.8914 28.8057 8.30857C28.8057 3.72571 32.4328 0 36.8943 0C41.3559 0 44.983 3.72571 44.983 8.30857ZM42.8134 8.30857C42.8134 4.94857 40.1654 2.22857 36.8943 2.22857C33.6233 2.22857 30.9753 4.94857 30.9753 8.30857C30.9753 11.6686 33.6233 14.3886 36.8943 14.3886C40.1654 14.3886 42.8134 11.6686 42.8134 8.30857Z" fill="#0DB14B"/>
<path d="M38.1629 12.9027C37.6734 13.1885 37.6622 13.9656 37.0503 14.0113C36.2047 14.0685 36.1713 13.4399 35.6929 12.9599C34.9586 12.2285 33.8237 11.8856 33.6235 10.6285C33.5233 9.99989 33.6902 9.37132 34.2688 9.22275C35.9711 8.76561 35.2145 10.6742 36.8167 10.7085C37.1838 10.7085 38.0517 10.6513 38.0071 10.1142C37.7067 8.99418 34.1909 9.79418 33.8015 6.89132C33.6012 5.43989 34.5136 4.53704 35.6484 3.77132C36.0823 3.48561 36.0601 2.66275 36.7388 2.61704C37.4842 2.57132 37.6511 3.09704 38.0962 3.66846C38.6302 4.34275 39.6093 4.59418 39.9097 5.57704C40.0989 6.18275 39.9876 6.81132 39.4869 7.08561C38.0517 7.83989 38.2519 5.95418 36.85 5.89703C36.5608 5.89703 35.8153 6.15989 36.0267 6.60561C36.4829 7.58846 39.9653 6.91418 40.2324 10.0113C40.3548 11.417 39.3868 12.1942 38.1629 12.9027Z" fill="#0DB14B"/>
</g>
<defs>
<clipPath id="clip0_55_3425">
<rect width="66" height="60" fill="white"/>
</clipPath>
</defs>
</svg>
