<svg width="55" height="61" viewBox="0 0 55 61" fill="none" xmlns="http://www.w3.org/2000/svg">
<path d="M52.0894 54.4958H2.91057C1.30931 54.4958 0 55.8052 0 57.4064C0 59.0077 1.30931 60.317 2.91057 60.317H52.0894C53.6907 60.317 55 59.0077 55 57.4064C55 55.8052 53.6907 54.4958 52.0894 54.4958ZM52.7087 57.3799C52.7087 57.778 52.3371 58.0965 51.886 58.0965H3.1052C2.65401 58.0965 2.28245 57.778 2.28245 57.3799C2.28245 56.9818 2.65401 56.6633 3.1052 56.6633H51.886C52.3371 56.6633 52.7087 56.9818 52.7087 57.3799Z" fill="#0DB14B"/>
<path d="M6.36961 39.8811C5.54686 39.8811 4.87451 40.5535 4.87451 41.3762V51.2049C4.87451 52.0276 5.54686 52.7 6.36961 52.7H13.4116C14.2343 52.7 14.9067 52.0276 14.9067 51.2049V41.3762C14.9067 40.5535 14.2343 39.8811 13.4116 39.8811H6.36961ZM12.8012 42.4024V50.1964C12.8012 50.4706 12.5711 50.7006 12.2969 50.7006H7.48429C7.2012 50.7006 6.98003 50.4706 6.98003 50.1964V42.4024C6.98003 42.1282 7.21004 41.8982 7.48429 41.8982H12.2969C12.5711 41.8982 12.8012 42.1282 12.8012 42.4024Z" fill="#0DB14B"/>
<path d="M9.89062 37.5896C13.9424 37.5896 17.2334 34.2986 17.2334 30.2468C17.2334 26.195 13.9424 22.9041 9.89062 22.9041C5.83883 22.9041 2.54785 26.195 2.54785 30.2468C2.54785 34.2986 5.83883 37.5896 9.89062 37.5896ZM4.55605 30.2468C4.55605 27.3097 6.94467 24.9123 9.89062 24.9123C12.8366 24.9123 15.2252 27.3009 15.2252 30.2468C15.2252 33.1928 12.8366 35.5814 9.89062 35.5814C6.94467 35.5814 4.55605 33.1928 4.55605 30.2468Z" fill="#0DB14B"/>
<path d="M23.665 27.3718C22.8423 27.3718 22.1699 28.0442 22.1699 28.8669V51.2049C22.1699 52.0276 22.8423 52.7 23.665 52.7H30.707C31.5297 52.7 32.2021 52.0276 32.2021 51.2049V28.8669C32.2021 28.0442 31.5297 27.3718 30.707 27.3718H23.665ZM24.2843 50.5325V29.557C24.2843 29.4596 24.3639 29.3889 24.4524 29.3889H29.9373C30.0346 29.3889 30.1054 29.4685 30.1054 29.557V50.5325C30.1054 50.621 30.0258 50.7006 29.9373 50.7006H24.4524C24.3639 50.7006 24.2843 50.621 24.2843 50.5325Z" fill="#0DB14B"/>
<path d="M27.1948 24.9126C31.2466 24.9126 34.5376 21.6216 34.5376 17.5698C34.5376 13.518 31.2466 10.2271 27.1948 10.2271C23.143 10.2271 19.8521 13.518 19.8521 17.5698C19.8521 21.6216 23.143 24.9126 27.1948 24.9126ZM27.1948 12.2353C30.1319 12.2353 32.5294 14.6239 32.5294 17.5698C32.5294 20.5158 30.1408 22.9044 27.1948 22.9044C24.2489 22.9044 21.8603 20.5158 21.8603 17.5698C21.8603 14.6239 24.2489 12.2353 27.1948 12.2353Z" fill="#0DB14B"/>
<path d="M40.9692 17.1538C40.1465 17.1538 39.4741 17.8262 39.4741 18.6489V51.2136C39.4741 52.0364 40.1465 52.7087 40.9692 52.7087H48.0112C48.8339 52.7087 49.5063 52.0364 49.5063 51.2136V18.6489C49.5063 17.8262 48.8339 17.1538 48.0112 17.1538H40.9692ZM47.4096 19.737V50.1255C47.4096 50.444 47.1531 50.7005 46.8346 50.7005H42.1547C41.8362 50.7005 41.5796 50.444 41.5796 50.1255V19.737C41.5796 19.4186 41.8362 19.162 42.1547 19.162H46.8346C47.1531 19.162 47.4096 19.4186 47.4096 19.737Z" fill="#0DB14B"/>
<path d="M44.49 14.6855C48.5418 14.6855 51.8328 11.3946 51.8328 7.34277C51.8328 3.29098 48.5418 0 44.49 0C40.4382 0 37.1472 3.29098 37.1472 7.34277C37.1472 11.3946 40.4382 14.6855 44.49 14.6855ZM39.1643 7.34277C39.1643 4.40566 41.5529 2.0082 44.4988 2.0082C47.4448 2.0082 49.8334 4.39682 49.8334 7.34277C49.8334 10.2887 47.4448 12.6773 44.4988 12.6773C41.5529 12.6773 39.1643 10.2887 39.1643 7.34277Z" fill="#0DB14B"/>
<path d="M29.2913 19.7724C29.2471 19.5777 29.0878 19.2593 28.7428 19.2593C28.672 19.2593 28.5924 19.277 28.5216 19.3035H28.5039C28.212 19.4539 27.8935 19.5335 27.5662 19.5335C26.8496 19.5335 26.2746 19.2327 25.9295 18.7373H28.1235V17.9323H25.6199C25.6022 17.8172 25.5934 17.6934 25.5934 17.5607C25.5934 17.5253 25.5934 17.4988 25.5934 17.4634H28.1147V16.6583H25.7791C26.0799 16.0302 26.708 15.6587 27.5573 15.6587C27.8847 15.6587 28.1943 15.7294 28.4862 15.871H28.4951L28.5128 15.8798C28.5305 15.8798 28.5924 15.9064 28.672 15.9064C28.7782 15.9064 29.1409 15.8621 29.2471 15.3579C29.2736 15.2871 29.3267 15.1013 29.2294 14.8978C29.1497 14.7121 28.9728 14.5794 28.7162 14.4909C28.3447 14.3493 27.9466 14.2786 27.5485 14.2786C26.0534 14.2786 24.7883 15.2871 24.3991 16.6583H23.7798V17.4634H24.2752C24.2752 17.4634 24.2752 17.5253 24.2752 17.5607C24.2752 17.6845 24.2752 17.8084 24.2929 17.9323H23.7798V18.7373H24.4875C24.9564 19.967 26.1507 20.8428 27.5396 20.8428C27.9554 20.8428 28.3535 20.7632 28.7428 20.6128C28.8136 20.5951 29.0878 20.4978 29.2205 20.2589C29.3001 20.1174 29.3178 19.9493 29.2736 19.7724H29.2913Z" fill="#0DB14B"/>
<path d="M45.1712 7.95319L46.7548 4.60913H45.4809L44.49 6.58195L43.4815 4.60913H42.2341L43.9327 7.95319V8.28936H43.2869V8.81132H43.9327V9.17403H43.2869V9.69599H43.9327V10.6249L45.1712 10.6072V9.69599H45.8347V9.17403H45.1712V8.81132H45.8347V8.28936H45.1712V7.95319Z" fill="#0DB14B"/>
<path d="M11.2531 29.9551V29.9374C11.9431 29.6809 12.2616 29.1766 12.2616 28.6281C12.2616 28.0796 11.952 27.655 11.5273 27.4338C11.1734 27.2215 10.7665 27.1242 10.1826 27.0977V26.6111H9.76682V27.0888H9.72258C9.03254 27.0888 8.29826 27.1419 7.93555 27.2127V33.2196C8.24518 33.2638 8.74944 33.308 9.43064 33.308C9.54565 33.308 9.66066 33.308 9.76682 33.308V33.7858H10.1826V33.2815C10.97 33.2107 11.4919 33.0338 11.8369 32.7595C12.2174 32.4499 12.4739 32.0164 12.4739 31.4591C12.4739 30.6717 11.9608 30.1409 11.2619 29.9551H11.2531ZM10.8727 28.8051C10.8727 29.1589 10.6338 29.4243 10.1738 29.5217V28.1239C10.6249 28.1858 10.8727 28.4247 10.8727 28.8139V28.8051ZM9.29794 28.1327C9.39525 28.115 9.5368 28.1062 9.75797 28.0973V29.557H9.29794V28.1327ZM9.29794 32.273V30.5479H9.75797V32.2907C9.56334 32.2907 9.42179 32.2907 9.29794 32.273ZM10.1738 32.2641V30.5833C10.6603 30.6717 11.0142 30.9194 11.0142 31.4148C11.0142 31.9368 10.6515 32.1934 10.1738 32.273V32.2641Z" fill="#0DB14B"/>
</svg>
