<svg width="24" height="24" viewBox="0 0 24 24" fill="none" xmlns="http://www.w3.org/2000/svg">
<g clip-path="url(#clip0_56084_1762)">
<path d="M5.62659 0H18.3589C21.4622 0 23.9855 2.52326 23.9855 5.62659V18.3589C23.9855 21.4622 21.4622 23.9855 18.3589 23.9855H5.62659C2.52326 23.9855 0 21.4622 0 18.3589V5.62659C0 2.52326 2.52326 0 5.62659 0Z" fill="#0072BC"/>
<path d="M10.3395 18.5768H12.9932V11.9497H14.8349L15.038 9.73092H12.9932V8.46929C12.9932 7.94724 13.0947 7.74422 13.6023 7.74422H15.038V5.43848H13.2108C11.2386 5.43848 10.354 6.30857 10.354 7.96174V9.73092H8.97632V11.9787H10.354V18.5913L10.3395 18.5768Z" fill="white"/>
</g>
<defs>
<clipPath id="clip0_56084_1762">
<rect width="24" height="24" fill="white"/>
</clipPath>
</defs>
</svg>
