<svg width="105" height="79" viewBox="0 0 105 79" fill="none" xmlns="http://www.w3.org/2000/svg">
<path d="M104.157 15.0363L89.9099 0.823388C88.8931 -0.20086 87.3101 -0.154827 86.2009 0.340035C85.265 0.765846 84.306 1.8016 84.2944 3.1711L84.2598 10.0531L26.5338 10.0992C24.0958 10.0992 22.1084 11.8369 21.1378 13.31C19.6589 15.5887 19.5549 18.2816 20.8721 20.6984C22.0044 22.8044 24.246 24.2085 26.7302 24.3696C27.4581 24.4156 28.1861 24.4041 28.8793 24.3811C29.5495 24.3696 30.2427 24.3466 30.9245 24.3811C24.5002 33.5418 24.5002 45.4185 30.9129 54.5446L20.7103 54.5792L20.6872 48.0079C20.6872 46.6269 19.9593 45.4185 18.7692 44.8776C17.4173 44.2561 15.9152 44.4863 14.9447 45.453L0.836689 59.5623C-0.307201 60.7016 -0.272537 62.8997 0.906016 64.0736L14.9562 78.0908C15.5455 78.6893 16.3428 79 17.1978 79C17.66 79 18.1452 78.9079 18.619 78.7123C19.6011 78.3095 20.6641 77.2392 20.6757 75.8352L20.7103 68.9302L77.9973 68.9071C81.7756 68.9071 84.9877 65.6618 85.0108 61.8295C85.0224 57.9741 82.0067 54.7978 78.1475 54.6137C77.408 54.5792 76.6685 54.5907 75.9406 54.6022C75.2935 54.6022 74.6696 54.6252 74.0456 54.6022C80.4584 45.476 80.4815 33.6108 74.0919 24.4502L84.2713 24.3926L84.3175 31.2977C84.3175 32.7822 85.4614 33.8525 86.5013 34.2208C87.8417 34.6926 89.182 34.3934 90.1641 33.4152L104.168 19.4325C105.277 18.3277 105.277 16.1526 104.168 15.0478L104.157 15.0363ZM87.7492 22.6318C87.7492 21.8147 87.1368 20.9401 86.1431 20.9401H71.1686L70.9837 20.756C69.8514 19.7547 68.7884 18.7995 67.5174 17.9249C64.0857 15.5657 60.2612 14.1041 56.3673 13.5287H85.9005C87.0097 13.5287 87.7608 12.8036 87.7608 11.7103V3.59691L101.407 17.1768C101.43 17.1999 101.441 17.2114 101.453 17.2229L87.7723 30.8488V22.6318H87.7492ZM67.7138 60.9088C67.7947 60.8512 67.8871 60.7822 67.968 60.7131C68.1529 60.5635 68.3146 60.4369 68.5111 60.3794L68.6728 60.3334L68.7768 60.1953C68.927 59.9996 69.135 59.827 69.3545 59.6544C69.4932 59.5393 69.6319 59.4242 69.7589 59.3091L71.0646 58.0892H77.7662C79.7766 58.0892 81.4174 59.6544 81.5098 61.6453C81.556 62.612 81.1516 63.6363 80.4353 64.3843C79.7651 65.0863 78.887 65.4776 77.9857 65.4776H56.3789C60.3421 64.8907 64.2244 63.3831 67.7023 60.9318L67.7138 60.9088ZM52.4851 62.2553C39.8792 62.2553 29.6304 52.0473 29.6304 39.4916C29.6304 26.936 39.8792 16.728 52.4851 16.728C65.091 16.728 75.3397 26.936 75.3397 39.4916C75.3397 52.0473 65.091 62.2553 52.4851 62.2553ZM33.8824 20.9056C32.9927 20.8941 32.1146 20.9056 31.2364 20.9171C29.7344 20.9401 28.1861 20.9631 26.6493 20.8365C24.9277 20.6869 23.5412 19.1448 23.4718 17.3264C23.4372 16.3482 23.8416 15.324 24.5464 14.599C25.1819 13.943 26.0023 13.5747 26.8573 13.5747L48.6836 13.5172C43.2415 14.3112 38.0304 16.7971 33.894 20.9056H33.8824ZM17.2324 67.1694V75.3979L3.52887 61.7604C3.54043 61.7489 3.55198 61.7259 3.57509 61.7144L17.2209 48.1345V56.1098C17.2209 56.6277 17.3364 57.0765 17.5675 57.4908L17.66 57.6519L17.8333 57.721C18.307 57.9281 18.7461 58.0662 19.2429 58.0777L33.8708 58.0432C37.9958 62.1632 43.1837 64.6605 48.5912 65.4661H18.9656C17.9373 65.4776 17.244 66.1566 17.244 67.1579L17.2324 67.1694Z" fill="#0DB14B"/>
<path d="M61.2202 39.4923L65.8189 33.1857C66.4775 32.288 66.5122 31.4594 65.9113 30.6653C65.5531 30.2971 64.9523 30.0784 64.4093 30.1129C63.9586 30.1475 63.5773 30.3431 63.3347 30.6769L59.0595 36.5116L54.9346 30.8265C54.6342 30.4352 54.1836 30.1705 53.6867 30.1244C53.2014 30.0784 52.7277 30.2165 52.3695 30.5388C51.6647 31.1487 51.5723 32.1384 52.15 32.9325L56.8989 39.4808L52.0576 46.1902C51.7918 46.5469 51.7109 47.0073 51.8034 47.4676C51.9073 47.9625 52.2078 48.3883 52.6122 48.63C52.901 48.8026 53.2014 48.8716 53.5134 48.8716C54.0911 48.8716 54.6342 48.5839 54.9808 48.0776L56.9797 45.3616C57.2455 44.9933 57.5113 44.625 57.7655 44.2568C58.1699 43.6698 58.5974 43.0714 59.0711 42.473L63.1267 48.0545C63.7275 48.8832 64.7212 49.1018 65.5531 48.5954C65.946 48.3538 66.2349 47.9395 66.3388 47.4676C66.4313 46.9958 66.3388 46.5124 66.0384 46.1211L61.2318 39.4923H61.2202Z" fill="#0DB14B"/>
<path d="M49.9321 33.566C50.7987 33.3589 51.3302 32.7029 51.3186 31.8513C51.3186 31.0342 50.7409 30.1595 49.8281 30.148L40.2957 30.125C39.8566 30.125 39.4638 30.2861 39.1633 30.5853C38.8283 30.9191 38.6318 31.4024 38.6318 31.9203V47.0539C38.6318 48.0321 39.2904 48.7916 40.2032 48.8607C40.2495 48.8607 40.2957 48.8607 40.3419 48.8607C40.8156 48.8607 41.2778 48.6881 41.6013 48.3888C41.9133 48.1011 42.0751 47.7214 42.0751 47.2955L42.1097 41.7945L49.8628 41.737C50.2209 41.737 50.5445 41.5989 50.7987 41.3342C51.18 40.9429 51.3071 40.3675 51.3071 39.9532C51.2955 39.1361 50.7178 38.4801 49.8743 38.3305L42.1213 38.3075L42.0982 33.5775H49.805L49.9321 33.5545V33.566Z" fill="#0DB14B"/>
</svg>
