<svg width="88" height="84" viewBox="0 0 88 84" fill="none" xmlns="http://www.w3.org/2000/svg">
<path d="M0 49.0136V43.5168L0.249851 41.9914C1.44651 34.6143 4.11597 27.6579 8.94204 22.0296C9.38914 21.5036 10.2833 21.7009 10.6515 22.0033C10.9934 22.2926 11.3353 23.1606 10.9014 23.6734C0.499702 35.9293 -0.249851 53.5766 9.19189 66.5689C18.4495 79.3244 35.229 84.4267 50.1543 78.4697C65.0796 72.5127 73.6272 57.9951 71.773 42.3596L69.2745 42.8067C70.1556 51.4069 67.6176 59.9413 62.1472 66.6083C61.6475 67.2132 60.7533 67.1738 60.2536 66.6741C59.8459 66.2796 59.7013 65.5432 60.201 64.9251C65.1717 58.7841 67.5387 51.0124 66.6839 42.9777C53.2577 42.9777 43.0927 31.0637 45.3414 17.7822C31.5733 13.9292 17.3581 20.3859 11.0066 32.7338C4.56307 45.2526 7.89003 60.4673 18.7388 69.2384C29.5876 78.0094 45.3282 77.97 56.2296 68.9622C56.7293 68.5414 57.6236 68.8965 57.8997 69.2647C58.1759 69.6329 58.3731 70.5139 57.8734 70.9347C45.9726 80.8367 28.7986 80.8499 16.911 71.0662C5.02332 61.2826 1.68321 44.7661 8.91574 31.1689C16.1483 17.5718 31.2708 11.1677 45.9332 15.2574C46.2093 14.3369 46.617 13.6662 46.7353 12.7983C35.6235 9.72119 23.8542 12.246 15.07 19.5574C14.4125 20.1097 13.6366 20.1492 13.1106 19.5311C12.6504 18.992 12.703 18.1767 13.3605 17.6244C23.0389 9.52394 36.0443 6.93338 48.0766 10.4839C53.0999 2.14676 62.7389 -1.70621 72.036 0.713405C80.7545 2.97521 87.3032 10.7732 87.9476 19.9125C88.5919 29.0518 83.253 37.9938 74.2978 41.4917C76.941 62.111 62.1603 80.9025 41.6199 83.2826C21.1453 85.6496 2.47221 70.9742 0.184101 50.1576C0.144651 49.7631 0.420802 49.2766 0 49.0004V49.0136ZM68.6565 20.1886L68.6301 2.65961C57.8997 1.56816 48.5106 9.35299 47.6427 20.1492L68.6433 20.1886H68.6565ZM75.0342 4.67157C73.8639 3.98777 72.6672 3.48807 71.3259 3.26452C71.2076 3.82997 71.2207 4.21132 71.3259 4.67157H75.0342ZM83.0163 12.3512C81.8986 10.142 80.5573 8.69549 79.0055 7.30158L71.247 7.36733L71.2865 12.4433L83.0163 12.3512ZM85.357 20.1097C85.1729 17.9794 84.8968 16.5724 84.2393 15.0207H71.2865V20.1755L85.357 20.1097ZM84.2919 27.9077C84.9099 26.1588 85.3307 24.5413 85.3044 22.7661H47.7347C47.7347 24.5282 48.1687 26.1062 48.7604 27.9077H84.305H84.2919ZM79.0055 35.6531C80.7151 34.0751 82.0827 32.5365 83.0558 30.4983L49.9702 30.5246C51.0617 32.6417 52.403 34.2066 54.073 35.6531H78.9924H79.0055ZM75.0868 38.2831L58.1364 38.3357C63.5805 41.1893 69.84 40.992 75.0868 38.2831Z" fill="#0DB14B"/>
<path d="M38.4113 62.8589C38.4113 63.6873 37.8984 64.1476 37.3461 64.2133C36.6623 64.3054 36.0048 63.9503 35.8865 63.1613C35.755 62.2671 35.9785 61.4518 35.755 60.4393C33.9929 60.6102 27.694 58.7823 29.18 56.5863C30.4161 54.7716 32.5727 58.2695 35.8207 57.8092V45.9084C34.1638 44.9616 32.3491 44.3699 31.0867 42.8708C29.4561 40.9377 29.3641 38.2946 30.3766 35.9144C31.2708 33.8104 33.2959 32.2324 35.8207 31.8379L35.847 29.5366C35.847 28.7213 36.4388 28.1953 37.1226 28.1953C39.0688 28.1953 38.0957 30.7859 38.5559 31.7195C40.0814 31.9299 44.8022 33.3896 43.553 35.4147C42.4089 37.2557 40.6468 34.1917 38.4376 34.4021V44.028C39.3581 44.5277 40.3312 44.7512 41.278 45.1983C44.2499 46.5791 45.9463 49.4984 45.5781 52.7728C45.1441 56.7046 42.2906 59.7423 38.4244 60.3735V62.8457L38.4113 62.8589ZM35.8207 42.8445L35.7944 34.5073C32.9672 35.1254 31.3892 38.4524 32.862 40.8851C33.4932 41.9371 34.7819 42.5683 35.8339 42.8445H35.8207ZM42.9481 50.9712C42.5273 48.6831 40.6468 47.4338 38.4507 46.9736V57.7172C41.4884 57.0465 43.5267 54.0746 42.9481 50.9712Z" fill="#0DB14B"/>
<path d="M37.2935 22.6729C38.2376 22.6729 39.003 21.9075 39.003 20.9634C39.003 20.0193 38.2376 19.2539 37.2935 19.2539C36.3494 19.2539 35.584 20.0193 35.584 20.9634C35.584 21.9075 36.3494 22.6729 37.2935 22.6729Z" fill="#0DB14B"/>
<path d="M62.5679 47.9346C63.512 47.9346 64.2774 47.1693 64.2774 46.2251C64.2774 45.281 63.512 44.5156 62.5679 44.5156C61.6238 44.5156 60.8584 45.281 60.8584 46.2251C60.8584 47.1693 61.6238 47.9346 62.5679 47.9346Z" fill="#0DB14B"/>
<path d="M12.0327 47.9464C12.9769 47.9464 13.7423 47.181 13.7423 46.2369C13.7423 45.2927 12.9769 44.5273 12.0327 44.5273C11.0886 44.5273 10.3232 45.2927 10.3232 46.2369C10.3232 47.181 11.0886 47.9464 12.0327 47.9464Z" fill="#0DB14B"/>
<path d="M37.2935 73.2081C38.2376 73.2081 39.003 72.4427 39.003 71.4986C39.003 70.5544 38.2376 69.7891 37.2935 69.7891C36.3494 69.7891 35.584 70.5544 35.584 71.4986C35.584 72.4427 36.3494 73.2081 37.2935 73.2081Z" fill="#0DB14B"/>
<path d="M19.4493 65.7794C20.3862 65.7794 21.1456 65.0199 21.1456 64.0831C21.1456 63.1462 20.3862 62.3867 19.4493 62.3867C18.5124 62.3867 17.7529 63.1462 17.7529 64.0831C17.7529 65.0199 18.5124 65.7794 19.4493 65.7794Z" fill="#0DB14B"/>
<path d="M19.4493 30.0529C20.3862 30.0529 21.1456 29.2934 21.1456 28.3565C21.1456 27.4196 20.3862 26.6602 19.4493 26.6602C18.5124 26.6602 17.7529 27.4196 17.7529 28.3565C17.7529 29.2934 18.5124 30.0529 19.4493 30.0529Z" fill="#0DB14B"/>
<path d="M55.1778 65.7794C56.1147 65.7794 56.8742 65.0199 56.8742 64.0831C56.8742 63.1462 56.1147 62.3867 55.1778 62.3867C54.2409 62.3867 53.4814 63.1462 53.4814 64.0831C53.4814 65.0199 54.2409 65.7794 55.1778 65.7794Z" fill="#0DB14B"/>
<path d="M64.3302 16.4691C62.5418 18.0997 61.687 14.8122 59.4515 16.4691C58.8072 16.9556 57.8472 17.0214 57.2686 16.6137C56.6374 16.1666 56.4007 15.2461 56.69 14.4571C57.6368 11.906 54.4282 12.2216 55.0989 9.99924C55.7301 7.90838 58.176 9.85458 58.9518 7.40867C59.2148 6.58022 59.8592 5.94902 60.635 5.92272C61.4635 5.89642 62.1473 6.48817 62.4103 7.32977C63.2256 9.88089 65.7241 7.88208 66.3159 10.0387C66.5 10.7093 66.1975 11.5641 65.5269 12.0375C63.3702 13.5498 65.7636 15.1541 64.3171 16.4691H64.3302ZM61.7791 13.2341C61.9632 12.6818 61.8843 11.7876 62.6075 11.209C61.6476 11.1696 61.2268 10.3411 60.6745 10.0124C60.1353 10.5121 59.6751 11.1038 58.8861 11.1959C59.4515 11.9717 59.6093 12.5503 59.6488 13.4577C60.2274 12.9054 61.0427 13.2999 61.7791 13.2341Z" fill="#0DB14B"/>
</svg>
