<svg width="84" height="81" viewBox="0 0 84 81" fill="none" xmlns="http://www.w3.org/2000/svg">
<path d="M83.9647 35.8575C83.9647 32.6684 79.2457 30.0206 77.1039 29.3027L76.9274 29.2439L76.4449 29.8323C75.9624 30.4207 75.5152 30.9738 74.9739 31.5387L74.715 31.8446L75.0916 31.9976C76.9038 32.7272 78.6102 33.4216 79.9518 34.7513C80.8932 35.681 80.9756 36.7872 80.1636 37.6934C77.9512 40.1764 72.938 41.3886 70.8786 41.8004C64.3473 43.0949 57.6983 43.1185 51.1082 41.8475C48.9899 41.4356 43.8002 40.2235 41.5407 37.7051C40.7522 36.8225 40.8229 35.7046 41.7172 34.7984C43.0706 33.4451 44.8711 32.7155 46.6245 32.0094L46.9776 31.8682L46.7304 31.574C46.5539 31.3621 46.3892 31.1738 46.2244 30.9738C45.8008 30.4913 45.4006 30.0323 44.9888 29.4439L44.8593 29.2674L44.6593 29.338C39.9049 31.0915 37.4925 33.7511 37.7043 37.0579C37.7043 37.1873 37.7161 37.305 37.7161 37.4227L26.6894 20.5237C25.8891 19.2998 24.6417 18.5938 23.2766 18.5938C21.8056 18.5938 20.5229 19.2645 19.7697 20.4296L3.60037 45.3309C-1.58936 53.3096 -1.1304 63.9127 4.73011 71.7267C8.87248 77.2459 15.1684 80.5999 22.0174 80.9529C22.4176 80.9764 22.8059 80.9882 23.206 80.9882C29.7608 80.9882 35.9509 78.2345 40.3874 73.3154C43.6943 75.8573 48.6957 77.0223 51.4141 77.4813C58.2161 78.6463 65.0181 78.564 71.6317 77.2342C74.4443 76.6693 79.5634 75.3042 82.2466 72.5152C83.4234 71.2913 84 70.0674 84 68.7611L83.9765 35.8693L83.9647 35.8575ZM80.6932 58.1346C80.6343 58.8642 80.0342 59.3937 79.3987 59.9351C79.2692 60.041 79.1516 60.1469 79.0339 60.2528C76.9509 61.5591 74.7738 62.4181 71.973 63.0536C64.512 64.7365 56.6509 64.6894 49.2253 62.9242C46.8599 62.3593 44.824 61.5355 42.847 60.3587C42.7175 60.2528 42.5881 60.1469 42.4586 60.0292C41.7996 59.4879 41.1053 58.923 41.0465 58.1228C40.9405 56.793 40.9641 55.5103 40.9876 54.1452C40.9876 53.5215 41.0111 52.886 40.9994 52.2387C43.1176 53.5921 45.2477 54.4982 47.8366 55.1572C56.2979 57.3108 65.2652 57.3226 73.7853 55.1925C76.339 54.5571 78.5749 53.6038 80.752 52.2387C80.752 52.9448 80.752 53.6274 80.752 54.2982C80.7638 55.6044 80.7873 56.8401 80.6932 58.111V58.1346ZM79.0221 49.4615C78.8573 49.5791 78.6926 49.7086 78.5396 49.8263C76.2919 51.0855 74.0089 51.9092 71.161 52.4859C63.8883 53.9686 56.2979 53.8627 49.2253 52.1799C46.754 51.5915 44.6946 50.7442 42.7528 49.5556C42.6234 49.4497 42.4939 49.332 42.3645 49.2261C41.7408 48.6965 41.0935 48.1552 41.0347 47.3903C40.9405 46.0605 40.9523 44.766 40.9758 43.4009C40.9758 42.7772 40.9876 42.1417 40.9876 41.5062C43.1176 42.8596 45.3418 43.801 47.9543 44.46C56.3097 46.5665 65.1946 46.5783 73.6558 44.4953C76.2566 43.8599 78.5161 42.9066 80.7402 41.5062C80.7285 42.2594 80.7402 42.989 80.752 43.7069C80.7755 45.0131 80.8108 46.2488 80.6461 47.4962C80.5402 48.3317 79.7635 48.9084 79.0221 49.4615ZM40.9758 64.9012C40.9758 64.2775 40.9876 63.642 40.9876 63.0065C43.0941 64.3599 45.2241 65.2778 47.8249 65.9368C56.2861 68.0904 65.2652 68.1021 73.7735 65.9721C76.3037 65.3366 78.5278 64.3952 80.7285 63.0183C80.7285 63.7244 80.7285 64.4187 80.7285 65.0895C80.7402 66.3958 80.7638 67.6196 80.6696 68.8906C80.6108 69.632 80.0106 70.1498 79.3751 70.7029C79.2575 70.8088 79.128 70.9147 79.0103 71.0206C76.9627 72.2798 74.8444 73.1389 72.3496 73.7273C64.7003 75.516 56.6509 75.4925 49.0723 73.6567C46.6951 73.08 44.6593 72.2445 42.7293 71.0677C42.5998 70.95 42.4704 70.8441 42.3409 70.7264C41.7172 70.1969 41.07 69.6555 41.0229 68.8906C40.9288 67.5608 40.9405 66.2663 40.9641 64.9012H40.9758ZM38.2692 70.7853C34.0209 75.7514 27.6073 78.3168 21.076 77.6108C14.7918 76.94 9.14315 73.2566 5.9893 67.7491C2.27058 61.2531 2.37649 53.1802 6.27173 47.1902L22.4646 22.2536C22.6647 21.9477 22.9942 21.8888 23.1707 21.877C23.1943 21.877 23.206 21.877 23.2296 21.877C23.5591 21.877 23.8062 22.0065 23.9827 22.2654L37.7396 43.3421V68.9024C37.7396 69.5378 37.9279 69.9497 38.1868 70.5734L38.2809 70.7853H38.2692Z" fill="#0DB14B"/>
<path d="M23.4416 72.5982L23.4063 72.3628H23.1709C15.098 72.2804 8.75498 65.9021 8.71967 57.8527V57.5703H5.47168V57.8527C5.48345 67.6203 13.4504 75.5873 23.2297 75.6108H23.5239V75.3166C23.5122 74.9753 23.5239 74.6458 23.5239 74.3281C23.5357 73.775 23.5475 73.1983 23.4651 72.5982H23.4416Z" fill="#0DB14B"/>
<path d="M8.57874 55.5786L8.83764 55.6021L8.88471 55.3432C9.0377 54.4253 9.17892 53.8604 9.42605 53.0014L9.49665 52.766L9.28483 52.6601C8.53167 52.3071 7.73144 52.0364 6.70762 51.801L6.46049 51.7422L6.37811 51.9775C6.0133 52.9896 5.84854 53.8722 5.68379 54.8254L5.63672 55.0726L5.88385 55.1432C6.67231 55.355 7.48431 55.4844 8.59051 55.5668L8.57874 55.5786Z" fill="#0DB14B"/>
<path d="M60.8644 35.0219C70.5261 35.0219 78.3754 27.1608 78.3754 17.5109C78.3754 7.86109 70.5261 0 60.8644 0C51.2028 0 43.3535 7.86109 43.3535 17.5109C43.3535 27.1608 51.2146 35.0219 60.8644 35.0219ZM47.0487 17.5109C47.0487 9.89697 53.2505 3.69518 60.8644 3.69518C68.4784 3.69518 74.6802 9.89697 74.6802 17.5109C74.6802 25.1249 68.4784 31.3267 60.8644 31.3267C53.2505 31.3267 47.0487 25.1249 47.0487 17.5109Z" fill="#0DB14B"/>
<path d="M60.7931 21.9131C60.1458 21.8896 59.6634 21.3953 59.5574 20.6186L59.5221 20.3833H59.2868C58.9926 20.3833 58.7101 20.3833 58.4277 20.3715C57.6275 20.348 56.8743 20.3362 56.1212 20.4421L55.874 20.4774V20.7246C55.9682 22.7604 57.0861 24.3727 59.0279 25.267V28.7622L62.7231 28.7504L62.7701 25.2317C64.9825 24.3021 66.2299 21.972 65.7475 19.6419C65.2767 17.3471 63.2762 15.7231 60.8872 15.676C60.5224 15.676 60.1811 15.5231 59.9458 15.2759C59.7104 15.0288 59.581 14.6758 59.6045 14.3227C59.6398 13.6284 60.2047 13.1224 60.9108 13.1224C60.9225 13.1224 60.9343 13.1224 60.9461 13.1224C61.5698 13.1341 62.064 13.6637 62.1817 14.4169L62.217 14.6522L65.8534 14.6758V14.3933C65.8063 12.3574 64.6295 10.6275 62.7584 9.8273L62.7113 6.29688H59.0396L58.9808 9.8273C56.7684 10.7805 55.521 13.0988 56.0035 15.4289C56.4742 17.7119 58.4748 19.3477 60.8637 19.3948C61.2285 19.3948 61.5698 19.5478 61.8051 19.7949C62.0405 20.042 62.1582 20.3951 62.1464 20.7363C62.1111 21.4424 61.5227 21.9602 60.8049 21.9367L60.7931 21.9131Z" fill="#0DB14B"/>
</svg>
