<svg width="84" height="79" viewBox="0 0 84 79" fill="none" xmlns="http://www.w3.org/2000/svg">
<path d="M69.2968 66.5469C54.886 83.157 29.087 83.1451 14.6882 66.5469C8.28605 66.3695 2.7526 62.1372 0.789118 56.2734C-1.30526 50.0432 0.860517 43.2218 6.20357 39.2969C7.59585 26.659 15.7235 15.5935 27.552 10.4509C29.5749 4.2206 35.3821 0.0237442 41.9627 9.99516e-05C48.5434 -0.0235443 54.4219 4.14967 56.4568 10.4509C68.1782 15.5226 76.3891 26.5408 77.7933 39.2969C83.0887 43.1627 85.3021 49.9131 83.2315 56.1907C81.2918 62.0781 75.7227 66.3577 69.2968 66.5469ZM53.9459 15.0851C53.9459 8.53568 48.591 3.21572 41.9984 3.21572C35.4059 3.21572 30.0509 8.53568 30.0509 15.0851C30.0509 21.6346 35.4059 26.9546 41.9984 26.9546C48.591 26.9546 53.9459 21.6346 53.9459 15.0851ZM26.9927 17.4732C26.8142 16.3501 26.8261 15.4043 26.7785 14.3758C17.806 19.0455 11.5466 27.5575 9.76163 37.358C10.8564 36.9915 11.7727 36.7196 12.808 36.5659C14.6763 28.5387 19.7694 21.6464 26.9927 17.4732ZM71.1888 36.5778C72.3193 36.7196 73.2356 37.027 74.2233 37.3462C72.4026 27.4865 66.0957 18.9983 57.1946 14.3758C57.2184 15.4871 57.1351 16.4447 57.0161 17.485C64.2155 21.6582 69.3087 28.5269 71.1888 36.5896V36.5778ZM67.8093 36.3886C65.9529 29.7091 61.8117 24.2828 56.0998 20.6888C53.7317 26.4935 48.1388 30.182 41.9389 30.1702C35.7391 30.1583 30.2294 26.458 27.8852 20.6888C22.1375 24.2946 17.9845 29.8037 16.1757 36.4004C22.3636 36.8142 27.6234 40.9283 29.5511 46.5793C31.6455 52.7031 29.6582 59.3117 24.5889 63.3194C34.5372 71.9141 49.543 71.855 59.408 63.3194C54.291 59.2763 52.3394 52.6322 54.4695 46.5202C56.4211 40.8928 61.6451 36.8379 67.8093 36.4004V36.3886ZM27.1474 51.4618C27.1474 44.9005 21.7924 39.5806 15.188 39.5806C8.58354 39.5806 3.22859 44.9005 3.22859 51.4618C3.22859 58.0231 8.58354 63.3431 15.188 63.3431C21.7924 63.3431 27.1474 58.0231 27.1474 51.4618ZM80.7564 51.4618C80.7564 44.9005 75.4014 39.5924 68.8089 39.5924C62.2163 39.5924 56.8614 44.9124 56.8614 51.4618C56.8614 58.0113 62.2163 63.3312 68.8089 63.3312C75.4014 63.3312 80.7564 58.0113 80.7564 51.4618ZM18.7579 66.1686C31.5741 79.0429 52.5774 78.9483 65.2627 66.1213C64.1203 65.8966 63.2397 65.5183 62.2758 65.0927C50.8876 75.5671 33.1568 75.6026 21.721 65.1046C20.7095 65.542 19.7813 65.8612 18.7579 66.1567V66.1686Z" fill="#0DB14B"/>
<path d="M43.6165 23.2899C43.6998 24.3302 42.9858 25.1105 42.0458 25.1341C41.1057 25.1578 40.3084 24.3421 40.3798 23.3254C40.3917 23.1126 40.4393 22.7106 40.3203 22.5569C39.3445 22.1668 38.5234 21.5757 37.9522 20.689C37.4643 19.9206 37.6904 18.9512 38.4044 18.4783C39.166 17.9699 40.1894 18.1946 40.7011 18.9748C40.9629 19.3649 41.4032 19.5541 41.8435 19.5305C42.2838 19.5068 42.6884 19.2113 42.9144 18.7857C43.1762 18.2773 43.1048 17.7571 42.8311 17.2724C42.5575 16.7877 42.0458 16.705 41.4508 16.6104C39.4159 16.2675 37.9879 14.577 37.7261 12.6618C37.4524 10.6166 38.4877 8.66592 40.356 7.79108C40.4036 7.41277 40.3917 7.09358 40.3798 6.73891C40.3322 5.75768 41.1176 4.97742 42.0577 5.01288C42.9977 5.04835 43.7117 5.85225 43.6284 6.84531C43.6165 7.05811 43.5689 7.44824 43.6879 7.60193C44.7232 8.00388 45.6157 8.63045 46.1393 9.61169C46.5558 10.392 46.2345 11.3023 45.5086 11.716C44.7827 12.1298 43.8307 11.9643 43.3547 11.2195C43.0334 10.7348 42.5099 10.5338 41.8911 10.6875C41.1652 10.853 40.8439 11.716 40.9748 12.3781C41.1414 13.1938 41.8078 13.4184 42.5932 13.5366C44.5923 13.844 46.0084 15.5582 46.2702 17.4143C46.5677 19.4713 45.5562 21.422 43.676 22.3205C43.5927 22.616 43.5927 22.9116 43.6284 23.2662L43.6165 23.2899Z" fill="#0DB14B"/>
<path d="M70.4506 57.4091L70.403 59.1233C70.3792 59.9864 69.5105 60.542 68.7251 60.4947C67.8445 60.4474 67.1781 59.7499 67.19 58.8396C67.19 58.3667 67.2138 57.9175 67.19 57.4564C66.9758 57.3737 66.7616 57.3619 66.5236 57.3855C65.524 57.4919 64.6911 56.7707 64.6673 55.8131C64.6435 54.8556 65.4764 54.0871 66.5355 54.1699C66.7021 54.1817 67.1662 54.229 67.19 54.0398C67.2376 53.7443 66.8092 53.8389 66.6307 53.8152C65.6073 53.9807 64.7149 53.2832 64.6673 52.3374C64.6078 51.3089 65.4288 50.5523 66.5831 50.6114L63.3821 47.0411C62.7752 46.3673 62.7633 45.4451 63.3702 44.8068C63.9771 44.1684 65.0242 44.0738 65.6549 44.7595L68.8203 48.1997L71.8786 44.8304C72.4974 44.1565 73.4732 44.1329 74.1277 44.6767C74.7822 45.2205 74.925 46.249 74.3062 46.9347L71.0099 50.5996C72.0809 50.5287 72.902 51.1907 72.9496 52.1483C72.9972 53.1059 72.188 53.9334 71.1408 53.827C70.9504 53.8743 70.4982 53.7325 70.4387 53.9216C70.3673 54.2408 70.8314 54.1935 71.0337 54.1699C71.9857 54.0753 72.8187 54.6546 72.9377 55.5531C73.0567 56.4515 72.4736 57.2554 71.5335 57.3737C71.2003 57.4091 70.879 57.3737 70.4387 57.3973L70.4506 57.4091Z" fill="#0DB14B"/>
<path d="M16.1993 55.5417L13.6646 55.589C14.5809 56.6885 15.9375 57.3269 17.3774 57.3505C18.3413 57.3623 19.091 58.048 19.091 58.982C19.091 59.9159 18.3532 60.6016 17.3774 60.5779C14.093 60.5188 11.2252 58.58 9.89238 55.6127C9.77338 55.4826 9.40449 55.5417 9.23789 55.5535C8.2502 55.589 7.4886 54.8797 7.4767 53.9576C7.4648 53.0354 8.2026 52.3025 9.20219 52.3261C9.24979 51.7232 9.23789 51.1675 9.21409 50.5646C8.2145 50.6355 7.4886 49.8553 7.4767 48.9568C7.4648 47.9874 8.393 47.2662 9.30929 47.3608C9.46399 47.3726 9.83288 47.4317 9.89238 47.3017C11.2133 44.3343 14.0811 42.4073 17.3774 42.3482C18.3651 42.3246 19.0672 43.0457 19.0791 43.956C19.091 44.8663 18.3294 45.5638 17.3655 45.5875C15.9018 45.6111 14.569 46.2377 13.6527 47.349C14.4381 47.3963 15.1521 47.3844 15.9256 47.3726C16.8657 47.349 17.5916 48.011 17.6511 48.8859C17.7106 49.7607 17.0085 50.5882 16.0327 50.5882L12.4866 50.6119V52.3497L16.1398 52.3734C16.9847 52.3734 17.6154 53.1182 17.6511 53.8866C17.6868 54.6551 17.1156 55.5417 16.1874 55.5535L16.1993 55.5417Z" fill="#0DB14B"/>
</svg>
