<svg width="24" height="24" viewBox="0 0 24 24" fill="none" xmlns="http://www.w3.org/2000/svg">
<g clip-path="url(#clip0_56084_1763)">
<path d="M5.62659 0H18.3589C21.4767 0 24 2.52326 24 5.62659V18.3589C24 21.4622 21.4767 23.9855 18.3734 23.9855H5.62659C2.52326 23.9855 0 21.4622 0 18.3589V5.62659C0 2.52326 2.52326 0 5.62659 0Z" fill="#0072BC"/>
<path d="M11.9928 6.59845C13.7475 6.59845 13.9505 6.59845 14.6465 6.64195C15.2846 6.67096 15.6326 6.77247 15.8647 6.87398C16.1692 6.98999 16.3867 7.13501 16.6188 7.36703C16.8508 7.59905 16.9958 7.81658 17.1118 8.12111C17.1988 8.35313 17.3148 8.70117 17.3438 9.33924C17.3728 10.0353 17.3873 10.2383 17.3873 11.993C17.3873 13.7477 17.3873 13.9507 17.3438 14.6468C17.3148 15.2849 17.2133 15.6329 17.1118 15.8649C16.9958 16.1694 16.8508 16.387 16.6188 16.619C16.3867 16.851 16.1692 16.996 15.8647 17.112C15.6326 17.1991 15.2846 17.3151 14.6465 17.3441C13.9505 17.3731 13.7475 17.3876 11.9928 17.3876C10.2381 17.3876 10.0351 17.3876 9.33899 17.3441C8.70093 17.3151 8.35289 17.2136 8.12086 17.112C7.81633 16.996 7.59881 16.851 7.36679 16.619C7.13476 16.387 6.98975 16.1694 6.87373 15.8649C6.78673 15.6329 6.67071 15.2849 6.64171 14.6468C6.61271 13.9507 6.59821 13.7477 6.59821 11.993C6.59821 10.2383 6.59821 10.0353 6.64171 9.33924C6.67071 8.70117 6.77222 8.35313 6.87373 8.12111C6.98975 7.81658 7.13476 7.59905 7.36679 7.36703C7.59881 7.13501 7.81633 6.98999 8.12086 6.87398C8.35289 6.78697 8.70093 6.67096 9.33899 6.64195C10.0351 6.61295 10.2381 6.59845 11.9928 6.59845ZM11.9928 5.42383C10.2091 5.42383 9.97706 5.42383 9.28099 5.46733C8.58491 5.49634 8.10636 5.61235 7.68582 5.77186C7.25077 5.94588 6.88824 6.16341 6.5257 6.52594C6.16316 6.88848 5.93114 7.26552 5.77162 7.68606C5.6121 8.10661 5.49609 8.58516 5.46709 9.28123C5.43809 9.9773 5.42358 10.2093 5.42358 11.993C5.42358 13.7767 5.42358 14.0087 5.46709 14.7048C5.49609 15.4009 5.6121 15.8794 5.77162 16.3C5.94564 16.735 6.16316 17.0975 6.5257 17.4601C6.88824 17.8226 7.26528 18.0546 7.68582 18.2142C8.10636 18.3737 8.58491 18.4897 9.28099 18.5187C9.97706 18.5477 10.2091 18.5622 11.9928 18.5622C13.7765 18.5622 14.0085 18.5622 14.7046 18.5187C15.4006 18.4897 15.8792 18.3737 16.2997 18.2142C16.7348 18.0401 17.0973 17.8226 17.4598 17.4601C17.8224 17.0975 18.0544 16.7205 18.2139 16.3C18.3734 15.8794 18.4894 15.4009 18.5184 14.7048C18.5475 14.0087 18.562 13.7767 18.562 11.993C18.562 10.2093 18.562 9.9773 18.5184 9.28123C18.4894 8.58516 18.3734 8.10661 18.2139 7.68606C18.0399 7.25102 17.8224 6.88848 17.4598 6.52594C17.0973 6.16341 16.7203 5.93138 16.2997 5.77186C15.8792 5.61235 15.4006 5.49634 14.7046 5.46733C14.0085 5.43833 13.7765 5.42383 11.9928 5.42383Z" fill="white"/>
<path d="M11.9929 8.61426C10.1222 8.61426 8.61401 10.1224 8.61401 11.9931C8.61401 13.8638 10.1222 15.372 11.9929 15.372C13.8636 15.372 15.3717 13.8638 15.3717 11.9931C15.3717 10.1224 13.8636 8.61426 11.9929 8.61426ZM11.9929 14.1973C10.7747 14.1973 9.80314 13.2112 9.80314 12.0076C9.80314 10.804 10.7892 9.81788 11.9929 9.81788C13.1965 9.81788 14.1826 10.804 14.1826 12.0076C14.1826 13.2112 13.1965 14.1973 11.9929 14.1973Z" fill="white"/>
<path d="M16.2998 8.48328C16.2998 8.91832 15.9518 9.26636 15.5167 9.26636C15.0817 9.26636 14.7336 8.91832 14.7336 8.48328C14.7336 8.04823 15.0817 7.7002 15.5167 7.7002C15.9518 7.7002 16.2998 8.04823 16.2998 8.48328Z" fill="white"/>
</g>
<defs>
<clipPath id="clip0_56084_1763">
<rect width="24" height="24" fill="white"/>
</clipPath>
</defs>
</svg>
