<svg width="24" height="24" viewBox="0 0 24 24" fill="none" xmlns="http://www.w3.org/2000/svg">
<g clip-path="url(#clip0_56084_1761)">
<path d="M5.62659 0H18.3589C21.4622 0 23.9855 2.52326 23.9855 5.62659V18.3589C23.9855 21.4622 21.4622 23.9855 18.3589 23.9855H5.62659C2.52326 23.9855 0 21.4622 0 18.3589V5.62659C0 2.52326 2.52326 0 5.62659 0Z" fill="#0072BC"/>
<path d="M9.03445 9.32422H6.55469V17.3436H9.03445V9.32422Z" fill="white"/>
<path d="M7.78741 8.26593C8.59949 8.26593 9.25206 7.59886 9.25206 6.78677C9.25206 5.97469 8.59949 5.30762 7.78741 5.30762C6.97532 5.30762 6.32275 5.97469 6.32275 6.78677C6.32275 7.59886 6.97532 8.26593 7.78741 8.26593Z" fill="white"/>
<path d="M13.0077 13.1385C13.0077 12.0074 13.5298 11.3404 14.5159 11.3404C15.4295 11.3404 15.8645 11.9784 15.8645 13.1385V17.344H18.3298V12.2685C18.3298 10.1222 17.1117 9.07812 15.415 9.07812C13.7183 9.07812 12.9932 10.3978 12.9932 10.3978V9.31015H10.615V17.3295H12.9932V13.124L13.0077 13.1385Z" fill="white"/>
</g>
<defs>
<clipPath id="clip0_56084_1761">
<rect width="24" height="24" fill="white"/>
</clipPath>
</defs>
</svg>
