<svg width="83" height="79" viewBox="0 0 83 79" fill="none" xmlns="http://www.w3.org/2000/svg">
<path d="M68.4718 66.547C54.2326 83.1571 28.7408 83.1453 14.5133 66.547C8.1874 66.3697 2.71983 62.1373 0.779723 56.2736C-1.28972 50.0433 0.850273 43.2219 6.12971 39.297C7.50543 26.6591 15.5363 15.5936 27.224 10.451C29.2229 4.22072 34.9609 0.0238663 41.4632 0.000222022C47.9655 -0.0234222 53.774 4.14979 55.7847 10.451C67.3665 15.5227 75.4797 26.5409 76.8672 39.297C82.0996 43.1628 84.2866 49.9132 82.2407 56.1908C80.3241 62.0782 74.8212 66.3578 68.4718 66.547ZM53.3037 15.0853C53.3037 8.5358 48.0125 3.21584 41.4984 3.21584C34.9844 3.21584 29.6932 8.5358 29.6932 15.0853C29.6932 21.6347 34.9844 26.9547 41.4984 26.9547C48.0125 26.9547 53.3037 21.6347 53.3037 15.0853ZM26.6713 17.4733C26.495 16.3502 26.5067 15.4045 26.4597 14.3759C17.594 19.0457 11.4092 27.5576 9.64542 37.3581C10.7272 36.9917 11.6326 36.7198 12.6555 36.5661C14.5016 28.5388 19.5341 21.6465 26.6713 17.4733ZM70.3414 36.5779C71.4584 36.7198 72.3638 37.0271 73.3397 37.3463C71.5407 27.4867 65.3088 18.9984 56.5137 14.3759C56.5372 15.4872 56.4549 16.4448 56.3373 17.4852C63.451 21.6584 68.4836 28.527 70.3414 36.5897V36.5779ZM67.002 36.3887C65.1677 29.7092 61.0759 24.2829 55.4319 20.6889C53.092 26.4936 47.5657 30.1821 41.4397 30.1703C35.3136 30.1585 29.8696 26.4581 27.5532 20.6889C21.874 24.2947 17.7704 29.8038 15.9831 36.4006C22.0974 36.8143 27.2945 40.9284 29.1993 46.5794C31.2688 52.7033 29.3052 59.3118 24.2962 63.3195C34.126 71.9142 48.9532 71.8551 58.7007 63.3195C53.6447 59.2764 51.7163 52.6323 53.8211 46.5203C55.7494 40.893 60.9113 36.838 67.002 36.4006V36.3887ZM26.8242 51.4619C26.8242 44.9007 21.533 39.5807 15.0072 39.5807C8.48136 39.5807 3.19016 44.9007 3.19016 51.4619C3.19016 58.0232 8.48136 63.3432 15.0072 63.3432C21.533 63.3432 26.8242 58.0232 26.8242 51.4619ZM79.795 51.4619C79.795 44.9007 74.5038 39.5925 67.9897 39.5925C61.4757 39.5925 56.1845 44.9125 56.1845 51.4619C56.1845 58.0114 61.4757 63.3314 67.9897 63.3314C74.5038 63.3314 79.795 58.0114 79.795 51.4619ZM18.5346 66.1687C31.1982 79.043 51.9515 78.9484 64.4858 66.1214C63.357 65.8968 62.4869 65.5185 61.5345 65.0929C50.2818 75.5673 32.7621 75.6027 21.4624 65.1047C20.463 65.5421 19.5458 65.8613 18.5346 66.1569V66.1687Z" fill="#0DB14B"/>
<path d="M43.0977 23.2893C43.18 24.3296 42.4745 25.1099 41.5456 25.1335C40.6167 25.1572 39.8289 24.3415 39.8994 23.3247C39.9112 23.112 39.9582 22.71 39.8406 22.5563C38.8765 22.1662 38.0651 21.5751 37.5007 20.6884C37.0187 19.92 37.2421 18.9506 37.9476 18.4777C38.7001 17.9693 39.7113 18.1939 40.2169 18.9742C40.4756 19.3643 40.9106 19.5535 41.3457 19.5298C41.7807 19.5062 42.1805 19.2106 42.4039 18.7851C42.6626 18.2767 42.5921 17.7565 42.3216 17.2718C42.0512 16.7871 41.5456 16.7044 40.9577 16.6098C38.947 16.2669 37.536 14.5764 37.2773 12.6612C37.0069 10.616 38.0299 8.66531 39.8759 7.79047C39.9229 7.41216 39.9112 7.09297 39.8994 6.7383C39.8524 5.75707 40.6284 4.9768 41.5573 5.01227C42.4862 5.04774 43.1917 5.85164 43.1094 6.8447C43.0977 7.0575 43.0506 7.44763 43.1682 7.60132C44.1912 8.00327 45.073 8.62984 45.5904 9.61108C46.0019 10.3913 45.6845 11.3016 44.9672 11.7154C44.25 12.1292 43.3093 11.9637 42.839 11.2189C42.5215 10.7342 42.0041 10.5332 41.3927 10.6869C40.6755 10.8524 40.358 11.7154 40.4873 12.3775C40.6519 13.1932 41.3104 13.4178 42.0865 13.536C44.0618 13.8434 45.4611 15.5576 45.7197 17.4137C46.0137 19.4707 45.0142 21.4214 43.1564 22.3199C43.0741 22.6154 43.0741 22.911 43.1094 23.2656L43.0977 23.2893Z" fill="#0DB14B"/>
<path d="M69.6124 57.4079L69.5654 59.1221C69.5419 59.9851 68.6835 60.5408 67.9075 60.4935C67.0374 60.4462 66.3789 59.7487 66.3907 58.8384C66.3907 58.3655 66.4142 57.9163 66.3907 57.4552C66.179 57.3724 65.9674 57.3606 65.7322 57.3843C64.7445 57.4907 63.9214 56.7695 63.8979 55.8119C63.8744 54.8543 64.6975 54.0859 65.744 54.1687C65.9086 54.1805 66.3672 54.2278 66.3907 54.0386C66.4377 53.7431 66.0144 53.8376 65.838 53.814C64.8268 53.9795 63.945 53.282 63.8979 52.3362C63.8391 51.3077 64.6505 50.5511 65.791 50.6102L62.628 47.0399C62.0284 46.3661 62.0166 45.4439 62.6163 44.8055C63.2159 44.1671 64.2507 44.0726 64.8739 44.7582L68.0015 48.1985L71.0234 44.8292C71.6348 44.1553 72.599 44.1317 73.2457 44.6755C73.8924 45.2193 74.0335 46.2478 73.4221 46.9335L70.1651 50.5984C71.2233 50.5274 72.0346 51.1895 72.0816 52.1471C72.1287 53.1047 71.3291 53.9322 70.2944 53.8258C70.1063 53.8731 69.6595 53.7312 69.6007 53.9204C69.5301 54.2396 69.9887 54.1923 70.1886 54.1687C71.1292 54.0741 71.9523 54.6534 72.0699 55.5518C72.1875 56.4503 71.6113 57.2542 70.6824 57.3724C70.3532 57.4079 70.0357 57.3725 69.6007 57.3961L69.6124 57.4079Z" fill="#0DB14B"/>
<path d="M16.0066 55.5403L13.5021 55.5875C14.4075 56.687 15.7479 57.3254 17.1707 57.349C18.1231 57.3609 18.8639 58.0465 18.8639 58.9805C18.8639 59.9144 18.1348 60.6001 17.1707 60.5765C13.9254 60.5174 11.0917 58.5785 9.77475 55.6112C9.65717 55.4811 9.29267 55.5403 9.12805 55.5521C8.15212 55.5875 7.39959 54.8782 7.38784 53.9561C7.37608 53.034 8.10509 52.301 9.09278 52.3246C9.13981 51.7217 9.12805 51.1661 9.10453 50.5631C8.11684 50.6341 7.39959 49.8538 7.38784 48.9553C7.37608 47.9859 8.29322 47.2648 9.1986 47.3593C9.35146 47.3712 9.71596 47.4303 9.77475 47.3002C11.0799 44.3329 13.9136 42.4059 17.1707 42.3468C18.1466 42.3231 18.8403 43.0443 18.8521 43.9546C18.8639 44.8649 18.1113 45.5624 17.1589 45.586C15.7127 45.6097 14.3957 46.2362 13.4904 47.3475C14.2664 47.3948 14.9719 47.383 15.7362 47.3712C16.6651 47.3475 17.3823 48.0096 17.4411 48.8844C17.4999 49.7592 16.8062 50.5868 15.842 50.5868L12.338 50.6104V52.3483L15.9478 52.3719C16.7827 52.3719 17.4058 53.1167 17.4411 53.8852C17.4764 54.6536 16.912 55.5403 15.9949 55.5521L16.0066 55.5403Z" fill="#0DB14B"/>
</svg>
