<svg width="82" height="79" viewBox="0 0 82 79" fill="none" xmlns="http://www.w3.org/2000/svg">
<path d="M81.9655 34.9772C81.9655 31.8664 77.3589 29.2835 75.2681 28.5833L75.0958 28.5259L74.6248 29.0999C74.1538 29.6738 73.7172 30.2134 73.1888 30.7644L72.9361 31.0628L73.3037 31.2121C75.0728 31.9238 76.7386 32.601 78.0482 33.8982C78.9672 34.8051 79.0476 35.8841 78.255 36.768C76.0952 39.1901 71.2014 40.3725 69.191 40.7743C62.8152 42.037 56.3245 42.0599 49.8913 40.8202C47.8235 40.4184 42.7573 39.236 40.5517 36.7795C39.782 35.9185 39.8509 34.828 40.724 33.9441C42.0451 32.624 43.8027 31.9123 45.5144 31.2235L45.8591 31.0858L45.6178 30.7988C45.4455 30.5922 45.2847 30.4085 45.1238 30.2134C44.7103 29.7427 44.3197 29.295 43.9176 28.7211L43.7912 28.5489L43.5959 28.6178C38.9548 30.3282 36.5998 32.9225 36.8066 36.1481C36.8066 36.2744 36.8181 36.3892 36.8181 36.504L26.0539 20.0198C25.2727 18.826 24.055 18.1372 22.7224 18.1372C21.2864 18.1372 20.0343 18.7915 19.299 19.928L3.51465 44.218C-1.55151 52.001 -1.10349 62.3438 4.61749 69.966C8.66123 75.3497 14.8073 78.6213 21.4932 78.9657C21.8838 78.9886 22.2629 79.0001 22.6535 79.0001C29.0523 79.0001 35.0949 76.314 39.4258 71.5157C42.6539 73.9952 47.5363 75.1316 50.19 75.5793C56.83 76.7158 63.47 76.6354 69.9262 75.3382C72.6718 74.7872 77.6691 73.4557 80.2883 70.7351C81.4371 69.5412 82 68.3474 82 67.0732L81.977 34.9887L81.9655 34.9772ZM78.7719 56.7074C78.7145 57.4192 78.1286 57.9357 77.5082 58.4638C77.3819 58.5671 77.267 58.6704 77.1521 58.7737C75.1188 60.0479 72.9935 60.8859 70.2594 61.5058C62.976 63.1473 55.3021 63.1014 48.0533 61.3795C45.7442 60.8285 43.7568 60.0249 41.8268 58.877C41.7004 58.7737 41.5741 58.6704 41.4477 58.5556C40.8044 58.0276 40.1266 57.4766 40.0692 56.696C39.9658 55.3988 39.9887 54.1476 40.0117 52.816C40.0117 52.2076 40.0347 51.5877 40.0232 50.9563C42.091 52.2765 44.1703 53.1604 46.6977 53.8032C54.9575 55.9039 63.7113 55.9154 72.0285 53.8376C74.5214 53.2178 76.7041 52.2879 78.8293 50.9563C78.8293 51.6451 78.8293 52.3109 78.8293 52.9652C78.8408 54.2394 78.8638 55.4447 78.7719 56.6845V56.7074ZM77.1406 48.2472C76.9798 48.362 76.819 48.4883 76.6696 48.6031C74.4754 49.8314 72.2468 50.6349 69.4667 51.1974C62.3672 52.6438 54.9575 52.5405 48.0533 50.899C45.6408 50.325 43.6304 49.4985 41.7349 48.3391C41.6085 48.2358 41.4822 48.121 41.3558 48.0177C40.7469 47.5011 40.1151 46.9731 40.0577 46.2269C39.9658 44.9297 39.9773 43.667 40.0002 42.3354C40.0002 41.727 40.0117 41.1072 40.0117 40.4873C42.091 41.8074 44.2622 42.7257 46.8126 43.3686C54.969 45.4234 63.6423 45.4348 71.9021 43.403C74.441 42.7831 76.6466 41.8533 78.8179 40.4873C78.8064 41.222 78.8179 41.9337 78.8293 42.6339C78.8523 43.9081 78.8868 45.1134 78.726 46.3302C78.6226 47.1452 77.8644 47.7077 77.1406 48.2472ZM40.0002 63.308C40.0002 62.6996 40.0117 62.0797 40.0117 61.4598C42.0681 62.78 44.1474 63.6753 46.6862 64.3182C54.946 66.4189 63.7113 66.4304 72.017 64.3526C74.4869 63.7327 76.6581 62.8144 78.8064 61.4713C78.8064 62.1601 78.8064 62.8374 78.8064 63.4917C78.8179 64.7659 78.8408 65.9597 78.7489 67.1995C78.6915 67.9227 78.1056 68.4277 77.4853 68.9673C77.3704 69.0706 77.244 69.1739 77.1291 69.2772C75.1302 70.5055 73.0624 71.3435 70.627 71.9174C63.1598 73.6623 55.3021 73.6393 47.9039 71.8486C45.5834 71.2861 43.5959 70.471 41.7119 69.3231C41.5856 69.2083 41.4592 69.105 41.3328 68.9902C40.724 68.4737 40.0921 67.9456 40.0462 67.1995C39.9543 65.9023 39.9658 64.6396 39.9887 63.308H40.0002ZM37.358 69.0476C33.2109 73.8919 26.95 76.3943 20.5742 75.7056C14.4396 75.0513 8.92545 71.4583 5.8467 66.086C2.21652 59.7494 2.31991 51.8747 6.1224 46.0318L21.9298 21.7072C22.1251 21.4088 22.4467 21.3514 22.619 21.3399C22.642 21.3399 22.6535 21.3399 22.6765 21.3399C22.9981 21.3399 23.2394 21.4662 23.4117 21.7187L36.8411 42.278V67.2109C36.8411 67.8308 37.0249 68.2326 37.2776 68.841L37.3695 69.0476H37.358Z" fill="#0DB14B"/>
<path d="M22.8831 70.8154L22.8486 70.5858H22.6189C14.7382 70.5054 8.54619 64.2837 8.51173 56.4319V56.1564H5.34106V56.4319C5.35255 65.9596 13.1299 73.7311 22.6763 73.754H22.9635V73.4671C22.952 73.1342 22.9635 72.8127 22.9635 72.5028C22.975 71.9633 22.9865 71.4008 22.9061 70.8154H22.8831Z" fill="#0DB14B"/>
<path d="M8.37393 54.2165L8.62666 54.2394L8.67261 53.9869C8.82196 53.0915 8.95981 52.5405 9.20106 51.7025L9.26998 51.4729L9.0632 51.3696C8.32798 51.0252 7.5468 50.7612 6.54735 50.5316L6.30611 50.4742L6.22569 50.7038C5.86957 51.691 5.70874 52.552 5.5479 53.4818L5.50195 53.7229L5.7432 53.7917C6.51289 53.9984 7.30555 54.1246 8.38542 54.205L8.37393 54.2165Z" fill="#0DB14B"/>
<path d="M59.4148 34.1622C68.8464 34.1622 76.5088 26.4941 76.5088 17.0811C76.5088 7.66813 68.8464 0 59.4148 0C49.9832 0 42.3208 7.66813 42.3208 17.0811C42.3208 26.4941 49.9947 34.1622 59.4148 34.1622ZM45.928 17.0811C45.928 9.65404 51.9821 3.60448 59.4148 3.60448C66.8475 3.60448 72.9016 9.65404 72.9016 17.0811C72.9016 24.5082 66.8475 30.5577 59.4148 30.5577C51.9821 30.5577 45.928 24.5082 45.928 17.0811Z" fill="#0DB14B"/>
<path d="M59.3459 21.3745C58.7141 21.3516 58.2431 20.8695 58.1397 20.1118L58.1052 19.8822H57.8754C57.5882 19.8822 57.3125 19.8822 57.0368 19.8708C56.2556 19.8478 55.5204 19.8363 54.7852 19.9396L54.5439 19.9741V20.2151C54.6358 22.2011 55.7272 23.7737 57.6227 24.6461V28.0555L61.2299 28.044L61.2759 24.6117C63.4356 23.7048 64.6533 21.4319 64.1823 19.1591C63.7228 16.9206 61.7698 15.3365 59.4378 15.2906C59.0817 15.2906 58.7485 15.1413 58.5188 14.9003C58.289 14.6592 58.1626 14.3148 58.1856 13.9704C58.2201 13.2932 58.7715 12.7996 59.4608 12.7996C59.4723 12.7996 59.4837 12.7996 59.4952 12.7996C60.1041 12.811 60.5866 13.3276 60.7015 14.0623L60.7359 14.2919L64.2857 14.3148V14.0393C64.2397 12.0534 63.0909 10.366 61.2644 9.58537L61.2184 6.1416H57.6342L57.5768 9.58537C55.417 10.5152 54.1993 12.7766 54.6703 15.0495C55.1298 17.2765 57.0828 18.8721 59.4148 18.918C59.7709 18.918 60.1041 19.0672 60.3338 19.3083C60.5636 19.5493 60.6785 19.8937 60.667 20.2266C60.6325 20.9154 60.0581 21.4205 59.3574 21.3975L59.3459 21.3745Z" fill="#0DB14B"/>
</svg>
