<svg width="71" height="79" viewBox="0 0 71 79" fill="none" xmlns="http://www.w3.org/2000/svg">
<path d="M60.139 71.5662C54.0431 76.0361 46.1292 76.2034 40.0214 72.1279C33.9136 68.0524 31.1092 60.9412 32.654 53.6865L27.0572 53.7105C25.9164 53.7105 25.1797 52.9575 25.1797 51.9297C25.1797 50.9018 25.9164 50.2086 27.0572 50.2086H33.8423C38.2627 40.731 49.7059 37.2411 58.523 42.4879C67.34 47.7346 69.8711 59.5309 63.6088 68.0643L71 75.558L67.5896 79.0001L60.1628 71.5662H60.139ZM62.8721 57.5469C62.8721 50.1967 56.9544 44.2448 49.6465 44.2448C42.3385 44.2448 36.4209 50.1967 36.4209 57.5469C36.4209 64.8972 42.3385 70.8491 49.6465 70.8491C56.9544 70.8491 62.8721 64.8972 62.8721 57.5469Z" fill="#0DB14B"/>
<path d="M3.50544 4.74479L3.54109 63.6304C3.54109 64.5507 4.94327 64.5387 5.50176 64.5387L27.0573 64.5029C28.1742 64.5029 28.8991 65.3036 28.8872 66.2836C28.8753 67.2039 28.1861 68.0047 27.0454 67.9927L4.2303 67.921C1.60418 67.921 0 65.4948 0 62.985L0.0712971 4.29063C0.0712971 1.42224 2.74494 0 5.27599 0L53.5322 0.0956129C55.992 0.0956129 57.6794 2.46203 57.6794 4.78065V34.8031C57.6912 35.9624 56.9189 36.6317 55.992 36.6556C54.9701 36.6915 54.2096 35.9624 54.2096 34.8031L54.1858 4.69698C54.1858 3.89623 53.4847 3.50182 52.7361 3.50182H4.77691C4.17088 3.50182 3.50544 3.90818 3.50544 4.75674V4.74479Z" fill="#0DB14B"/>
<path d="M22.9456 34.0143C22.9456 37.7791 19.9155 40.8267 16.1724 40.8267C12.4293 40.8267 9.39917 37.7791 9.39917 34.0143C9.39917 30.2496 12.4293 27.2019 16.1724 27.2019C19.9155 27.2019 22.9456 30.2496 22.9456 34.0143ZM19.4639 34.0143C19.4639 32.1857 17.9905 30.7037 16.1724 30.7037C14.3543 30.7037 12.8808 32.1857 12.8808 34.0143C12.8808 35.8429 14.3543 37.3249 16.1724 37.3249C17.9905 37.3249 19.4639 35.8429 19.4639 34.0143Z" fill="#0DB14B"/>
<path d="M22.9578 51.9418C22.9578 55.7066 19.9277 58.7542 16.1846 58.7542C12.4415 58.7542 9.41138 55.7066 9.41138 51.9418C9.41138 48.1771 12.4415 45.1294 16.1846 45.1294C19.9277 45.1294 22.9578 48.1771 22.9578 51.9418ZM19.4643 51.9299C19.4643 50.1013 17.9908 48.6193 16.1727 48.6193C14.3546 48.6193 12.8812 50.1013 12.8812 51.9299C12.8812 53.7585 14.3546 55.2405 16.1727 55.2405C17.9908 55.2405 19.4643 53.7585 19.4643 51.9299Z" fill="#0DB14B"/>
<path d="M22.9578 16.0754C22.9578 19.8401 19.9277 22.8878 16.1846 22.8878C12.4415 22.8878 9.41138 19.8401 9.41138 16.0754C9.41138 12.3106 12.4415 9.26294 16.1846 9.26294C19.9277 9.26294 22.9578 12.3106 22.9578 16.0754ZM19.4643 16.0754C19.4643 14.2468 17.9908 12.7648 16.1727 12.7648C14.3546 12.7648 12.8812 14.2468 12.8812 16.0754C12.8812 17.904 14.3546 19.386 16.1727 19.386C17.9908 19.386 19.4643 17.904 19.4643 16.0754Z" fill="#0DB14B"/>
<path d="M47.6621 35.7598H27.081C25.9758 35.7598 25.2391 35.1145 25.1678 34.1344C25.1084 33.2739 25.7144 32.2461 26.8195 32.2461L47.567 32.2222C48.684 32.2222 49.3969 32.9273 49.4564 33.9073C49.5158 34.8874 48.8979 35.7598 47.6502 35.7598H47.6621Z" fill="#0DB14B"/>
<path d="M47.6859 17.8085H27.0692C25.9284 17.8204 25.1798 17.0914 25.1561 16.1114C25.1323 15.0477 25.8928 14.3306 27.0573 14.3306H47.5552C48.6485 14.3306 49.3614 14.8803 49.4684 15.8723C49.5634 16.8046 48.9931 17.8204 47.6859 17.8204V17.8085Z" fill="#0DB14B"/>
</svg>
