<svg width="22" height="22" viewBox="0 0 22 22" fill="none" xmlns="http://www.w3.org/2000/svg">
<path fill-rule="evenodd" clip-rule="evenodd" d="M1.375 4.125C1.375 2.60622 2.60622 1.375 4.125 1.375H5.38232C6.171 1.375 6.85847 1.91176 7.04976 2.67689L8.0634 6.73148C8.23112 7.40236 7.98044 8.10842 7.42722 8.52334L6.2414 9.4127C6.11827 9.50505 6.09149 9.64029 6.12608 9.73471C7.16697 12.5762 9.4238 14.833 12.2653 15.8739C12.3597 15.9085 12.4949 15.8817 12.5873 15.7586L13.4767 14.5728C13.8916 14.0196 14.5976 13.7689 15.2685 13.9366L19.3231 14.9502C20.0882 15.1415 20.625 15.829 20.625 16.6177V17.875C20.625 19.3938 19.3938 20.625 17.875 20.625H15.8125C7.83889 20.625 1.375 14.1611 1.375 6.1875V4.125Z" fill="#0DB14B"/>
</svg>
