<svg width="37" height="42" viewBox="0 0 37 42" fill="none" xmlns="http://www.w3.org/2000/svg">
<path d="M20.7516 17.5741H6.29585C5.80297 17.5741 5.47238 17.2435 5.43632 16.8528C5.40025 16.39 5.72483 15.9512 6.2718 15.9512H20.8117C21.2745 15.9512 21.575 16.3779 21.5871 16.7326C21.5991 17.1413 21.3166 17.5741 20.7516 17.5741Z" fill="#0DB14B"/>
<path d="M20.8699 25.2199H6.17377C5.6809 25.2199 5.41643 24.7631 5.43446 24.3845C5.4585 23.9757 5.76505 23.6211 6.26995 23.6211H20.7016C21.1765 23.6211 21.489 23.8796 21.5612 24.2642C21.6273 24.6249 21.4469 25.2139 20.8699 25.2139V25.2199Z" fill="#0DB14B"/>
<path d="M20.8814 21.3857L6.27546 21.3977C5.75854 21.3977 5.45199 21.0611 5.43396 20.6103C5.42194 20.2617 5.70444 19.7988 6.19732 19.7988H20.7793C21.2361 19.7988 21.5426 20.1354 21.5847 20.5502C21.6148 20.8387 21.4164 21.3917 20.8875 21.3917L20.8814 21.3857Z" fill="#0DB14B"/>
<path d="M20.8208 29.0677H6.26886C5.79402 29.0677 5.48747 28.7432 5.43939 28.3585C5.3913 27.9738 5.64375 27.4749 6.15466 27.4749L20.7005 27.4629C21.2054 27.4629 21.524 27.7274 21.5781 28.1782C21.6202 28.5508 21.3377 29.0617 20.8208 29.0617V29.0677Z" fill="#0DB14B"/>
<path d="M30.8892 38.4556L30.9132 27.2577C30.9132 26.7167 31.2618 26.4282 31.7066 26.4282C32.1514 26.4282 32.5241 26.7287 32.5241 27.2637V38.4135C32.512 40.0845 31.1957 41.3588 29.5247 41.3588L8.39714 41.3468C6.75021 41.3468 5.56611 39.9883 5.52403 38.4376C5.51201 37.9387 5.54807 37.524 5.506 37.0551L2.8673 37.0191C1.18431 36.989 0.000202145 35.6186 0.000202145 33.9296V4.82577C-0.0178299 3.19087 1.17229 1.75431 2.8673 1.75431L23.3097 1.73628C27.2467 -1.24503 32.8246 -0.277305 35.5294 3.79795C38.2342 7.8732 36.9239 13.4932 32.5241 15.9335L32.506 19.8585C32.506 20.3634 32.1394 20.706 31.6946 20.706C31.2498 20.706 30.9072 20.3815 30.9012 19.8645L30.8832 16.6428C29.6209 16.9794 28.3707 17.0395 27.0183 16.8772L26.9942 34.158C26.9942 35.6486 25.768 36.989 24.2293 36.995L7.14692 37.0431C7.06277 38.0048 6.96059 39.7299 8.38512 39.7299H29.6209C30.2941 39.7299 30.8771 39.1889 30.8771 38.4616L30.8892 38.4556ZM35.3311 8.48028C35.3311 4.68753 32.2596 1.61606 28.4669 1.61606C24.6741 1.61606 21.6026 4.68753 21.6026 8.48028C21.6026 12.273 24.6741 15.3445 28.4669 15.3445C32.2596 15.3445 35.3311 12.273 35.3311 8.48028ZM20.6289 13.1446H6.27537C5.78249 13.1446 5.42786 12.802 5.42786 12.3331V8.92507C5.42786 8.45022 5.79451 8.13767 6.27537 8.11362H19.9737C20.0759 6.3585 20.6349 4.81976 21.6748 3.37119H2.98151C2.21214 3.38922 1.62309 3.90013 1.62309 4.71157V34.0438C1.62309 34.8312 2.21214 35.3781 2.9755 35.3781H24.1031C24.8544 35.3781 25.3834 34.7771 25.3834 34.0558V16.3904C23.6463 15.6991 22.2939 14.5451 21.3081 13.0484L20.6289 13.1446ZM19.9737 9.72449H7.03271V11.5337H19.9737V9.72449Z" fill="#0DB14B"/>
<path d="M31.7057 24.343C32.1472 24.343 32.5051 23.9851 32.5051 23.5436C32.5051 23.1021 32.1472 22.7441 31.7057 22.7441C31.2642 22.7441 30.9062 23.1021 30.9062 23.5436C30.9062 23.9851 31.2642 24.343 31.7057 24.343Z" fill="#0DB14B"/>
<path d="M29.271 12.8622C29.271 13.3911 28.9344 13.7217 28.5257 13.7517C28.0929 13.7818 27.6602 13.4272 27.6602 12.9223V7.40444C27.6602 6.91156 28.123 6.593 28.5197 6.62305C28.9825 6.6531 29.277 7.01375 29.277 7.51864V12.8682L29.271 12.8622Z" fill="#0DB14B"/>
<path d="M28.4596 5.61838C28.9011 5.61838 29.259 5.26046 29.259 4.81895C29.259 4.37745 28.9011 4.01953 28.4596 4.01953C28.0181 4.01953 27.6602 4.37745 27.6602 4.81895C27.6602 5.26046 28.0181 5.61838 28.4596 5.61838Z" fill="#0DB14B"/>
</svg>
