<svg width="33" height="41" viewBox="0 0 33 41" fill="none" xmlns="http://www.w3.org/2000/svg">
<path d="M0.0772437 36.2873C-0.0730237 34.2738 0.0411795 32.4225 0.0471902 30.493C0.0471902 29.7417 0.636238 29.0865 1.08103 28.774C1.77827 28.2751 2.52961 28.3592 3.32302 28.5396C3.77382 27.1451 5.1082 26.4238 6.49066 26.9648C6.83327 25.5102 8.13759 24.6807 9.68233 25.1736L9.70638 19.7579C9.70638 18.4356 10.6861 17.3897 11.9844 17.3657C13.1806 17.3416 14.3166 18.3033 14.3226 19.6377V35.7824C14.3226 38.319 12.3932 40.4708 9.85063 40.5429C8.01737 40.597 6.32837 40.603 4.48308 40.5429C2.20503 40.4648 0.263575 38.6315 0.0892651 36.2873H0.0772437ZM3.90606 31.3586C2.88424 31.3345 3.61754 29.7718 2.33125 29.7838C1.87444 29.7838 1.41763 30.1384 1.41763 30.6974L1.43566 36.0469C1.43566 37.8141 2.99844 39.1905 4.73553 39.1905H9.58616C11.3112 39.1905 12.9041 37.8381 12.9041 36.0349L12.9341 19.6918C12.9341 19.1148 12.4653 18.7421 11.9844 18.7421C11.4495 18.7421 11.1009 19.1989 11.1009 19.7639V27.3074C11.1009 27.7341 10.7582 28.0166 10.4036 28.0046C9.29765 27.9685 10.0971 26.3517 8.73866 26.4178C8.28184 26.4418 7.87312 26.7904 7.8671 27.3134L7.84306 29.1346C7.84306 29.5373 7.49444 29.7657 7.15784 29.7778C6.16608 29.8078 6.83326 28.215 5.60107 28.1669C5.15628 28.1489 4.71149 28.4915 4.64537 29.0264C4.51314 30.1444 4.95793 31.3766 3.90606 31.3466V31.3586Z" fill="#0DB14B"/>
<path d="M31.5169 8.39093L25.3439 8.32481C24.9472 8.32481 24.6767 8.01226 24.6347 7.62757L24.6166 1.36443L7.35992 1.37645C6.57252 1.37645 5.72501 2.00156 5.72501 2.83705L5.70698 24.2952C5.70698 24.7701 5.4365 25.0285 5.06384 25.0706C4.64309 25.1187 4.3125 24.8001 4.3125 24.2952V2.9813C4.39064 1.33437 5.58076 0.102182 7.22769 0L25.6565 0.0120214L32.9174 7.30299V34.9702C32.7431 36.5991 31.5349 37.8313 29.876 37.8313L16.8688 37.8433C16.406 37.8433 16.1175 37.5067 16.1175 37.1521C16.1175 36.7614 16.394 36.4549 16.8628 36.4489L29.9842 36.4308C30.7956 36.4308 31.3726 35.7696 31.5169 34.9822V8.39093ZM30.4771 6.82214L26.1013 2.46438L26.0532 6.95437C27.6039 6.87624 29.0225 7.11666 30.4831 6.82815L30.4771 6.82214Z" fill="#0DB14B"/>
<path d="M22.2363 17.3229L27.7722 17.383C29.5273 17.401 27.3695 23.3937 22.1822 23.1653C19.1829 23.0331 16.7125 20.6468 16.448 17.6775C16.0153 12.7428 21.0823 10.657 21.9538 11.3242C22.074 11.4144 22.2123 11.6127 22.2123 11.8592L22.2303 17.3289L22.2363 17.3229ZM22.2724 18.7294C21.5872 18.7174 20.896 18.0502 20.8839 17.401L20.8118 12.7848C18.7021 13.5903 17.542 15.7 17.8666 17.8278C18.1731 19.8414 19.814 21.4763 21.8817 21.7468C23.9494 22.0173 26.0772 20.8331 26.7864 18.7895L22.2664 18.7294H22.2724Z" fill="#0DB14B"/>
<path d="M24.7258 15.8495C24.293 15.8495 23.9805 15.555 23.9805 15.1823V10.8065C23.9805 10.2716 24.4673 10.0552 24.9241 10.1574C27.3765 10.6984 29.2579 12.6037 29.6606 15.0922C29.7267 15.4949 29.36 15.8435 28.9693 15.8435H24.7198L24.7258 15.8495ZM28.0317 14.3288C27.4486 13.0365 26.5711 12.2191 25.411 11.7622C25.2968 12.724 25.3389 13.5114 25.381 14.455C26.3487 14.3889 27.1902 14.6113 28.0377 14.3288H28.0317Z" fill="#0DB14B"/>
<path d="M19.2509 9.77894H12.4468C12.0501 9.77894 11.7676 9.44836 11.7436 9.1358C11.7195 8.77516 12.014 8.39648 12.4468 8.39648H19.1968C19.6176 8.39648 19.882 8.685 19.9121 9.03963C19.9361 9.35218 19.7258 9.77894 19.2509 9.77894Z" fill="#0DB14B"/>
<path d="M27.6865 27.6017L21.0327 27.6197C20.63 27.6197 20.3415 27.4093 20.2693 27.1088C20.1852 26.7542 20.3234 26.2372 20.7862 26.2312L27.6565 26.2012C28.0952 26.2012 28.3717 26.5077 28.3838 26.8684C28.3958 27.229 28.1734 27.5957 27.6865 27.6017Z" fill="#0DB14B"/>
<path d="M27.7251 31.0329L20.7888 31.0208C20.368 31.0208 20.2238 30.564 20.2538 30.2575C20.2839 29.9509 20.5483 29.6504 20.9511 29.6504H27.7371C28.1098 29.6624 28.3683 30.005 28.3863 30.2635C28.4163 30.6121 28.224 31.0389 27.7251 31.0389V31.0329Z" fill="#0DB14B"/>
<path d="M19.2538 6.3416L12.4256 6.32957C12.0109 6.32957 11.7344 5.96893 11.7344 5.63834C11.7344 5.28972 11.9988 4.95312 12.4196 4.95312L19.3199 4.96515C19.7046 4.96515 19.9029 5.35584 19.9029 5.63233C19.9029 5.96292 19.6985 6.24542 19.2477 6.33558L19.2538 6.3416Z" fill="#0DB14B"/>
<path d="M9.11342 8.37312C9.64837 8.36711 10.015 8.71573 9.97896 9.13648C9.9429 9.59329 9.50412 9.8217 9.03528 9.79766C8.68065 9.77963 8.38012 9.79165 8.15171 9.53319C7.93532 9.29276 7.90527 8.9802 8.0916 8.70972C8.314 8.39116 8.62054 8.37913 9.1014 8.37312H9.11342Z" fill="#0DB14B"/>
<path d="M18.049 29.7404C18.4698 29.9327 18.4818 30.4016 18.3796 30.648C18.2113 31.0567 17.7846 31.0688 17.3819 31.0567C16.907 31.0387 16.5464 30.9485 16.4923 30.4977C16.4442 30.1191 16.6125 29.7404 17.0813 29.6683C17.3758 29.6262 17.7245 29.5841 18.049 29.7344V29.7404Z" fill="#0DB14B"/>
<path d="M9.56707 5.0242C9.96979 5.13841 10.0359 5.59522 9.96378 5.82363C9.83155 6.22634 9.46489 6.34055 9.04414 6.35257C8.6234 6.36459 8.22068 6.27443 8.04637 5.90778C7.92616 5.66134 7.97424 5.20453 8.36494 5.03623C8.69552 4.89798 9.17037 4.91 9.56707 5.0242Z" fill="#0DB14B"/>
<path d="M18.0171 26.2736C18.4498 26.4059 18.4799 26.8807 18.3957 27.1332C18.1613 27.8364 16.851 27.7282 16.5865 27.2774C16.4062 26.9709 16.4483 26.478 16.845 26.3037C17.1695 26.1594 17.6264 26.1594 18.0171 26.2736Z" fill="#0DB14B"/>
</svg>
