<svg width="40" height="40" viewBox="0 0 40 40" fill="none" xmlns="http://www.w3.org/2000/svg">
<path d="M33.2331 26.6033C34.7839 25.2089 37.1521 25.1908 38.6127 26.7476C40.0733 28.3044 39.9471 30.7687 38.4144 32.1873C37.068 33.4255 35.0424 33.4375 33.6419 32.4277C32.2414 31.4179 31.7365 29.5305 32.3856 27.7634L28.9535 25.3231C28.7672 25.1908 28.2623 25.5575 28.2563 25.8219L28.2382 37.3444C28.2382 38.793 27.1142 39.9411 25.6536 39.9411H7.00847C5.58995 39.9351 4.496 38.8351 4.47797 37.4887L4.43589 35.0063L2.19991 34.9462C0.883572 34.9041 0 33.6298 0 32.2714V2.62066C0.00601069 1.05788 1.22017 0 2.72886 0L21.2418 0.0180321C22.7204 0.0180321 23.7603 1.18411 23.7783 2.59061C23.7903 3.39604 23.7422 4.14738 23.8084 4.95281L25.9241 5.0009C27.3006 5.03095 28.2443 6.28719 28.2443 7.66364V19.0599C28.2443 19.3424 28.7431 19.7451 28.9716 19.5828L32.3856 17.1485C31.6163 15.2551 32.2895 13.2476 33.9484 12.2799C35.6074 11.3121 37.7231 11.7629 38.8471 13.2295C40.0553 14.8043 39.8629 16.9502 38.5045 18.2725C37.08 19.661 34.832 19.7211 33.2572 18.3446L29.6868 20.8691C30.1016 21.933 30.1376 22.9609 29.6868 24.0428L33.2211 26.6093L33.2331 26.6033ZM4.92877 10.9395L8.64338 5.93256C9.05812 5.37356 9.76137 4.99489 10.4887 4.98888L22.3057 4.97085C22.2756 3.92498 22.7865 1.44257 21.2839 1.44257L2.62066 1.43055C1.94145 1.43055 1.44858 1.92342 1.44858 2.61465V32.3976C1.44858 33.8823 3.38402 33.5457 4.45994 33.4796V12.4722C4.45994 11.8952 4.56813 11.4203 4.92877 10.9395ZM25.6717 38.5165C26.3749 38.4264 26.7957 37.9876 26.7957 37.3444V26.2006C24.4395 26.5072 22.486 24.7881 22.4499 22.504C22.4139 20.22 24.3373 18.4408 26.7776 18.6873L26.7957 7.53741C26.7957 6.89427 26.2848 6.43745 25.6597 6.41341H11.3843L11.3302 11.4083C11.3181 12.2378 10.5668 13.0733 9.76137 13.0913L5.89649 13.1694V37.3324C5.89649 37.9275 6.33527 38.4985 6.95437 38.4985L25.6657 38.5165H25.6717ZM9.40073 11.7088C9.67722 11.6487 9.9477 11.4384 9.93568 11.1558C9.88759 9.74935 10.0499 8.41497 9.84552 6.87022L6.20905 11.6427L9.40073 11.7028V11.7088ZM38.198 15.5557C38.198 14.2634 37.1521 13.2175 35.8598 13.2175C34.5675 13.2175 33.5216 14.2634 33.5216 15.5557C33.5216 16.848 34.5675 17.8938 35.8598 17.8938C37.1521 17.8938 38.198 16.848 38.198 15.5557ZM28.5748 22.456C28.5748 21.1637 27.529 20.1178 26.2367 20.1178C24.9444 20.1178 23.8985 21.1637 23.8985 22.456C23.8985 23.7483 24.9444 24.7941 26.2367 24.7941C27.529 24.7941 28.5748 23.7483 28.5748 22.456ZM38.198 29.3622C38.198 28.0699 37.1521 27.0241 35.8598 27.0241C34.5675 27.0241 33.5216 28.0699 33.5216 29.3622C33.5216 30.6545 34.5675 31.7004 35.8598 31.7004C37.1521 31.7004 38.198 30.6545 38.198 29.3622Z" fill="#0DB14B"/>
<path d="M13.5173 30.9615C12.8741 30.9615 12.3031 30.3965 12.237 29.8315C12.1649 29.1704 12.1469 28.5272 12.237 27.8781C12.3692 27.0005 13.2468 26.6699 14.1244 26.7541L14.0883 20.9417C13.2468 21.074 12.4173 20.8455 12.2671 20.0702C12.1168 19.2948 12.1709 18.4473 12.249 17.6479C12.2971 17.1189 12.8681 16.7222 13.367 16.7042C14.503 16.6741 15.579 16.6741 16.703 16.7042C17.6406 16.7282 18.3439 17.4856 18.3439 18.4112L18.3619 26.7541C19.2635 26.6759 20.123 27.0185 20.2493 27.9021C20.3394 28.5272 20.3274 29.1824 20.2493 29.8135C20.1651 30.5107 19.4739 30.9796 18.7947 30.9736L13.5113 30.9615H13.5173ZM13.7878 29.4469L18.7766 29.519C18.9029 29.0562 18.987 28.4491 18.6925 28.2086C17.7308 28.2688 16.9193 27.7038 16.9193 26.706L16.8893 18.1708L13.7217 18.1528C13.6195 18.5194 13.4512 19.3188 13.8419 19.4691C13.9921 19.5292 15.5729 19.4451 15.5669 20.8035V26.7841C15.5549 27.7518 14.7315 28.2327 13.8419 28.2327C13.5413 28.2327 13.4993 29.3687 13.7938 29.4469H13.7878Z" fill="#0DB14B"/>
<path d="M18.3405 12.6468C18.3405 14.1074 17.1564 15.2975 15.6898 15.2975C14.2232 15.2975 13.0391 14.1134 13.0391 12.6468C13.0391 11.1802 14.2232 9.99609 15.6898 9.99609C17.1564 9.99609 18.3405 11.1802 18.3405 12.6468ZM16.9039 12.6408C16.9039 11.9676 16.363 11.4266 15.6898 11.4266C15.0166 11.4266 14.4756 11.9676 14.4756 12.6408C14.4756 13.314 15.0166 13.855 15.6898 13.855C16.363 13.855 16.9039 13.314 16.9039 12.6408Z" fill="#0DB14B"/>
<path d="M23.1366 34.9403L16.9756 34.9644C16.5369 34.9644 16.2183 34.79 16.1041 34.3993C16.026 34.1289 16.2003 33.5458 16.621 33.5458L23.0765 33.5098C23.5153 33.5098 23.8278 33.7983 23.8579 34.189C23.8819 34.5196 23.6175 34.9403 23.1366 34.9403Z" fill="#0DB14B"/>
<path d="M13.9367 34.958L9.58496 34.946C9.15219 34.946 8.8757 34.6515 8.84565 34.2848C8.82161 33.9603 9.02597 33.5215 9.45874 33.5215H14.111C14.5318 33.5215 14.7662 33.9603 14.7361 34.2848C14.7001 34.6395 14.4116 34.958 13.9307 34.958H13.9367Z" fill="#0DB14B"/>
</svg>
