<svg width="41" height="39" viewBox="0 0 41 39" fill="none" xmlns="http://www.w3.org/2000/svg">
<path d="M18.1965 19.7983L9.99189 19.7802C10.064 24.5107 11.3443 30.5815 14.5781 34.2179C15.5398 35.2999 16.7058 36.1474 18.1845 36.4239L18.2085 30.1186C18.2085 29.6738 18.5211 29.3433 18.9178 29.3192C19.3145 29.2952 19.7292 29.6137 19.7292 30.0946L19.7473 36.4539C20.5707 36.4659 21.3641 36.3337 22.1876 36.2195C22.6023 36.1594 22.9329 36.508 22.981 36.8206C23.0471 37.2593 22.8067 37.638 22.3859 37.7162C13.8988 39.2729 5.556 34.9152 1.86543 27.3357C-1.82513 19.7562 0.0682361 10.1812 6.58984 4.5792C13.1896 -1.08288 22.8488 -1.55772 29.9775 3.50929C30.3261 3.75573 30.3561 4.24861 30.1397 4.56116C29.8933 4.9218 29.4125 4.9759 29.0097 4.6934C26.2929 2.78801 23.1433 1.68805 19.7473 1.5498V18.2175L23.0892 18.2535C23.516 18.2535 23.7925 18.6082 23.8165 18.9508C23.8405 19.3535 23.552 19.7562 23.0892 19.7622L19.7533 19.7983L19.7352 24.9735C19.7352 25.4303 19.3806 25.7128 19.02 25.7368C18.5812 25.7669 18.2145 25.4363 18.2145 24.9494L18.2025 19.7923L18.1965 19.7983ZM9.98588 18.2415H18.2025L18.1965 1.59188C16.6277 1.90444 15.4075 2.82407 14.4158 3.99015C11.3263 7.63263 10.0881 13.457 9.98588 18.2415ZM8.45316 18.2175C8.56736 14.5209 9.1504 11.1248 10.4247 7.85502C11.2662 5.76931 12.324 3.89999 13.8928 2.29513C6.83628 4.41691 1.82336 10.8243 1.5108 18.2355L8.45316 18.2175ZM10.4126 30.1307C9.10832 26.7947 8.56736 23.3807 8.44715 19.7923H1.50479C1.82336 27.1193 6.7341 33.5327 13.8027 35.7026C12.312 34.0015 11.2241 32.2524 10.4126 30.1307Z" fill="#0DB14B"/>
<path d="M27.0512 16.336C26.8047 16.336 27.2856 17.442 26.408 17.8928C25.9873 18.1092 25.4523 18.0551 25.1097 17.6884L22.1224 14.4667C21.5213 13.8175 21.5634 12.8258 22.1585 12.1886L25.0917 9.02101C25.4223 8.66637 25.9091 8.61228 26.2938 8.75052C27.2676 9.08712 26.8228 10.3614 27.0391 10.3614L34.9733 10.3794C35.5202 10.3794 35.7667 10.8062 35.8388 11.3231L38.0327 8.95489L35.8388 6.56864C35.7486 7.00742 35.5924 7.49429 35.0754 7.49429H25.5365C25.1217 7.49429 24.8813 7.1637 24.8392 6.84513C24.7972 6.52657 24.9835 6.00965 25.4283 6.00364L34.2219 5.97358C34.3181 5.3064 34.1438 4.69932 34.8951 4.35671C35.3399 4.15234 35.8088 4.26654 36.1454 4.62719L39.0605 7.76477C39.6796 8.43196 39.6917 9.42973 39.0726 10.1029L36.1454 13.2585C35.8628 13.5651 35.4962 13.6673 35.0514 13.5771C34.7629 13.517 34.3301 13.2225 34.2941 12.7957L34.2219 11.9121L26.2217 11.9001C25.7288 11.9001 25.4764 11.5515 25.3862 11.0045L23.1803 13.3547L25.3802 15.7049C25.4643 15.1579 25.7228 14.7913 26.2397 14.7913H35.9891C36.4218 14.7913 36.6923 15.1579 36.7164 15.5005C36.7404 15.8732 36.4519 16.306 35.9891 16.306L27.0512 16.33V16.336Z" fill="#0DB14B"/>
<path d="M40.4978 28.1356C40.4978 33.5994 36.074 38.0232 30.6103 38.0232C25.1465 38.0232 20.7227 33.5994 20.7227 28.1356C20.7227 22.6719 25.1465 18.248 30.6103 18.248C36.074 18.248 40.4978 22.6719 40.4978 28.1356ZM38.9711 28.1356C38.9711 23.5194 35.2325 19.7808 30.6163 19.7808C26 19.7808 22.2614 23.5194 22.2614 28.1356C22.2614 32.7519 26 36.4905 30.6163 36.4905C35.2325 36.4905 38.9711 32.7519 38.9711 28.1356Z" fill="#0DB14B"/>
<path d="M31.4875 33.3054C31.205 33.4376 31.7039 34.8261 30.64 34.8682C30.1832 34.8862 29.8646 34.5436 29.8466 34.0507C29.8345 33.8043 29.8826 33.5639 29.7744 33.2934C28.981 33.3775 28.2597 33.1551 27.7308 32.6442C26.8713 31.8208 26.7871 30.1257 27.3281 29.7351C27.6226 29.5247 27.9652 29.5427 28.2477 29.7351C28.8668 30.1618 28.0674 31.7967 29.4498 31.7967H31.8661C32.359 31.7907 32.6956 31.37 32.6956 30.8951V29.7351C32.6836 29.2662 32.347 28.9296 31.8722 28.9236L29.3356 28.9116C28.0614 28.9056 27.0275 27.9018 27.0215 26.6275V25.4675C27.0095 23.9107 28.2477 22.8047 29.7864 22.973C29.8826 22.7025 29.8526 22.4922 29.8526 22.2698C29.8526 21.7348 30.1952 21.4042 30.658 21.4102C31.7279 21.4223 31.205 22.943 31.5115 22.943C32.317 22.943 33.0142 23.1413 33.5251 23.6462C34.3546 24.4757 34.4688 26.1887 33.8497 26.5794C33.6213 26.7237 33.2787 26.7417 33.0262 26.5614C32.365 26.0926 33.0743 24.5298 31.9864 24.5178L29.4498 24.4937C28.993 24.4937 28.6023 24.7943 28.5603 25.2511C28.4821 26.0505 28.3679 27.3668 29.3837 27.3728L31.8782 27.3849C33.1404 27.3849 34.1442 28.3406 34.2103 29.6088C34.2344 30.0777 34.2284 30.5345 34.2103 30.9973C34.1743 32.4639 32.9541 33.4436 31.4935 33.3174L31.4875 33.3054Z" fill="#0DB14B"/>
</svg>
