<svg width="43" height="41" viewBox="0 0 43 41" fill="none" xmlns="http://www.w3.org/2000/svg">
<path d="M34.2436 31.0032C34.5021 30.6906 34.9709 30.7146 35.2173 30.937C35.4518 31.1474 35.4938 31.5622 35.2654 31.8567C34.5682 32.7342 33.907 33.5637 33.1076 34.3631L27.6739 39.8028C26.8865 40.5962 25.6243 40.6203 24.8248 39.8269L19.3852 34.3872C17.8645 32.8665 16.6082 31.2556 15.4482 29.4284H8.049L8.03697 33.4796C9.98444 33.8943 11.1685 35.5833 11.0063 37.4466C10.844 39.3099 9.24512 40.7765 7.35777 40.7765C5.47041 40.7765 3.92566 39.37 3.71529 37.5488C3.50491 35.7276 4.70104 33.9003 6.67856 33.4796L6.7026 28.7492C6.69659 28.3224 7.02117 28.082 7.42989 28.082L14.6608 28.0639C13.5187 25.8941 12.6772 23.7543 12.1242 21.3981L7.30367 21.3861C6.925 23.2614 5.24801 24.5056 3.45683 24.3854C1.49133 24.2592 0.0367396 22.6603 0.000675405 20.791C-0.0353888 18.9217 1.37712 17.3048 3.20438 17.0824C5.13381 16.842 6.85888 18.0742 7.29165 20.0397H11.8117C11.2767 17.1726 11.397 15.2431 11.3489 12.382H7.39984C7.04521 12.37 6.7026 12.1476 6.69659 11.7689L6.66654 7.29698C4.73109 6.88826 3.52895 5.19925 3.69124 3.33594C3.85353 1.47262 5.45238 0 7.35176 0C9.19704 0 10.7718 1.40049 10.9882 3.22173C11.2046 5.04297 10.0145 6.87022 8.03697 7.29698L8.01894 11.0416H11.8478L25.7445 3.20971C26.1232 2.99333 26.3996 3.02338 26.7723 3.22774L40.669 11.0597C40.9576 11.222 41.1198 11.4564 41.1198 11.775L41.0958 15.9223C41.0718 20.1298 39.8756 24.187 37.8981 27.8956C37.7238 28.2202 37.303 28.2262 37.0506 28.1361C36.7501 28.0219 36.5637 27.5831 36.7561 27.2164C38.6374 23.616 39.6653 19.697 39.7614 15.6158V12.0875L26.2494 4.46595L13.1461 11.8471C12.9116 11.9793 12.8155 12.1897 12.7073 12.388V15.2612C12.7133 22.1254 15.4842 28.6049 20.3288 33.4495L25.7084 38.8351C25.9909 39.1176 26.4357 39.1537 26.7302 38.8591L32.218 33.3654C32.9633 32.62 33.5524 31.8447 34.2376 31.0092L34.2436 31.0032ZM9.68391 3.67854C9.68391 2.38625 8.63804 1.34038 7.34574 1.34038C6.05345 1.34038 5.00758 2.38625 5.00758 3.67854C5.00758 4.97084 6.05345 6.01671 7.34574 6.01671C8.63804 6.01671 9.68391 4.97084 9.68391 3.67854ZM6.00536 20.7249C6.00536 19.4326 4.9595 18.3927 3.67321 18.3927C2.38692 18.3927 1.34106 19.4386 1.34106 20.7249C1.34106 22.0112 2.38692 23.057 3.67321 23.057C4.9595 23.057 6.00536 22.0112 6.00536 20.7249ZM9.68391 37.098C9.68391 35.8057 8.63804 34.7598 7.34574 34.7598C6.05345 34.7598 5.00758 35.8057 5.00758 37.098C5.00758 38.3903 6.05345 39.4362 7.34574 39.4362C8.63804 39.4362 9.68391 38.3903 9.68391 37.098Z" fill="#0DB14B"/>
<path d="M41.8908 34.2675C42.2213 34.5981 42.1192 35.0369 41.8727 35.2592C41.6083 35.4937 41.2296 35.4937 40.929 35.1931L32.9468 27.2169C28.7213 30.9015 22.4582 30.4807 18.7376 26.4596C15.0169 22.4384 15.1492 16.2114 19.0321 12.3345C22.915 8.45756 29.1841 8.35538 33.1873 12.1121C37.1483 15.8267 37.5691 22.0417 33.8905 26.2673L41.8847 34.2675H41.8908ZM35.0626 19.5473C35.0626 14.6606 31.1016 10.7056 26.2209 10.7056C21.3402 10.7056 17.3791 14.6666 17.3791 19.5473C17.3791 24.428 21.3402 28.389 26.2209 28.389C31.1016 28.389 35.0626 24.428 35.0626 19.5473Z" fill="#0DB14B"/>
<path d="M30.8607 25.058H21.6583C21.3036 25.058 20.967 24.8116 20.961 24.4389C20.943 21.4636 23.3533 19.1074 26.2565 19.1074C29.1476 19.1074 31.5759 21.4696 31.5459 24.4329C31.5459 24.8236 31.2273 25.058 30.8607 25.058ZM30.1634 23.6816C29.7066 21.6079 28.0116 20.4178 26.1783 20.4478C24.327 20.4839 22.6861 21.8122 22.3736 23.7176L30.1634 23.6816Z" fill="#0DB14B"/>
<path d="M29.0732 15.7124C29.0732 17.3713 27.7268 18.7177 26.0678 18.7177C24.4089 18.7177 23.0625 17.3713 23.0625 15.7124C23.0625 14.0534 24.4089 12.707 26.0678 12.707C27.7268 12.707 29.0732 14.0534 29.0732 15.7124ZM27.7328 15.7124C27.7328 14.7927 26.9875 14.0414 26.0618 14.0414C25.1362 14.0414 24.3909 14.7867 24.3909 15.7124C24.3909 16.638 25.1362 17.3834 26.0618 17.3834C26.9875 17.3834 27.7328 16.638 27.7328 15.7124Z" fill="#0DB14B"/>
</svg>
