<svg width="52" height="41" viewBox="0 0 52 41" fill="none" xmlns="http://www.w3.org/2000/svg">
<path d="M29.038 23.9955C29.038 24.5124 28.6593 24.8189 28.2686 24.8129C27.8779 24.8069 27.5173 24.5124 27.5173 24.0616L27.4873 20.2328C27.4692 17.8405 25.3895 16.0493 23.0333 15.9952C21.8973 15.9712 22.1017 14.0417 21.3503 13.056C21.0919 12.7134 20.4728 12.6533 20.6651 12.0402C20.7793 11.6735 21.17 11.373 21.699 11.4271C24.001 11.6615 26.0206 10.1228 26.237 7.81466C26.2851 7.31577 25.9185 6.9371 25.3895 6.9371L19.0482 6.92508C17.9363 6.92508 17.1909 7.53216 16.7401 8.48185C14.8648 12.4429 15.526 17.005 18.5253 20.2027C20.3646 22.1682 21.4585 24.6807 21.4645 27.4035L21.4946 39.5331C21.4946 40.014 21.0979 40.3085 20.7432 40.3085C20.2624 40.3085 19.9619 39.9899 19.9558 39.4429L19.9198 27.1992C19.9138 24.8129 18.8138 22.7272 17.227 21.0322C14.4921 18.0749 13.4643 14.0297 14.5041 10.0687H8.17489L12.2742 21.0562L13.0916 21.2065C13.5484 21.2906 13.6266 21.7475 13.5725 22.0841C13.5004 22.5409 13.0736 22.7032 12.5146 22.6731C12.0698 25.3959 9.82182 27.3554 7.14105 27.3915C4.38214 27.4276 2.04398 25.4621 1.61121 22.6671C1.0462 22.7152 0.607422 22.5409 0.51125 22.03C0.433111 21.6092 0.76971 21.1584 1.34073 21.1464C1.50903 21.1464 1.80956 21.1344 1.8877 20.936L5.95093 10.0687L0.733646 10.0506C0.312898 10.0506 0.000341408 9.7441 0.000341408 9.31734V6.20981C-0.01168 5.76502 0.294865 5.39836 0.745668 5.39836H5.40396C5.86678 5.39836 6.13125 5.76502 6.13726 6.14369C6.14928 6.49832 5.8788 6.89503 5.428 6.90104L1.52706 6.94311C1.46094 7.50812 1.45493 7.98897 1.52706 8.55398H15.009L15.7964 6.9371L8.84808 6.91907C8.38526 6.91907 8.02462 6.67263 7.96451 6.2639C7.90441 5.85518 8.19292 5.40437 8.71585 5.39836L16.2292 5.37432C15.9948 3.79351 16.4155 2.41105 17.6177 1.61163C18.8198 0.812203 20.2924 0.746085 21.5727 1.68976C22.2339 0.601829 23.2978 0.024802 24.4338 0.00075919C25.5698 -0.0232836 26.7299 0.52369 27.3791 1.64769C29.2183 0.343369 31.3702 0.78816 32.5483 2.76568C33.6182 2.21269 34.8263 1.88211 36.0465 2.53126C36.9962 3.03616 37.8256 3.99787 37.8737 5.36831L43.2353 5.39836C43.6981 5.39836 43.9866 5.76502 43.9926 6.13167C43.9926 6.52837 43.6981 6.90705 43.2353 6.90705L37.8978 6.93109C37.8317 7.45402 37.8437 7.9469 37.8918 8.54797H50.4181C50.4902 7.98897 50.4842 7.50812 50.4181 6.94311L46.5231 6.90104C46.0723 6.90104 45.8018 6.49832 45.8139 6.14369C45.8259 5.76502 46.0904 5.40437 46.5472 5.40437L51.0792 5.38634C51.5841 5.38634 51.9688 5.69289 51.9628 6.22183L51.9508 9.31734C51.9508 9.73809 51.6382 10.0446 51.2175 10.0506L46.0002 10.0687L50.0694 20.936C50.1596 21.1824 50.5503 21.1284 50.7426 21.1584C51.2656 21.2305 51.512 21.6753 51.4399 22.03C51.3377 22.5409 50.8989 22.7152 50.3399 22.6611C49.9132 25.432 47.6351 27.3614 44.9423 27.3975C42.2315 27.4336 39.9114 25.45 39.4485 22.7452C39.0939 22.607 38.595 22.6611 38.4568 22.3185C38.3065 21.9578 38.3125 21.4589 38.7513 21.2546C39.0398 21.1163 39.3464 21.1704 39.6769 21.0622L43.7762 10.0687L37.8677 10.0807L37.8256 16.1275C37.8136 18.0328 37.0082 19.818 35.9263 21.3628C34.7902 22.9857 34.099 24.7227 34.081 26.7544L34.0629 29.1045C34.0629 29.5373 33.7143 29.7838 33.4138 29.8258C32.9991 29.8799 32.5963 29.5974 32.5843 29.1166C32.5182 25.6244 32.4881 23.5747 34.6159 20.6054C35.5957 19.241 36.2989 17.6782 36.3049 15.9832L36.323 11.6555C34.8323 12.4189 33.2094 12.1544 32.0794 10.9823C31.3161 11.7817 30.3724 12.1965 29.3205 12.1183C28.3768 12.0522 27.4452 11.5954 26.784 10.6758C25.8283 11.8719 24.6201 12.6653 23.0754 12.9298C23.1595 13.4767 23.3399 13.9275 23.5683 14.4986C26.7299 14.8532 29.05 17.4618 29.05 20.6896V24.0135L29.038 23.9955ZM26.225 5.47049L26.243 3.25255C26.2551 2.19466 25.4196 1.4313 24.4398 1.4854C23.4601 1.5395 22.7809 2.23073 22.7749 3.27659C22.7749 3.97984 22.7208 4.69511 22.823 5.39235C24.0371 5.43443 25.107 5.33826 26.225 5.4765V5.47049ZM31.298 8.81244V4.14814C31.292 3.10829 30.4084 2.39903 29.4588 2.42908C28.5091 2.45913 27.7577 3.25255 27.7577 4.2924L27.7698 8.87856C27.7698 9.89436 28.6593 10.6517 29.585 10.6217C30.5106 10.5916 31.298 9.8583 31.292 8.81244H31.298ZM21.2301 5.23607C21.3143 5.04974 21.5367 2.71158 19.7034 2.50722C18.7237 2.39903 17.8221 3.06621 17.7379 4.14814C17.7018 4.63501 17.6898 5.08581 17.7499 5.54262C18.5854 5.23006 21.0738 5.57868 21.2301 5.23607ZM36.335 8.66217C36.2869 7.41796 36.3951 6.31199 36.2929 5.17597C36.2028 4.16016 35.2651 3.58914 34.3334 3.70335C33.504 3.80553 32.8247 4.5208 32.8247 5.4765V8.83648C32.8308 9.85229 33.6843 10.6036 34.6099 10.5796C35.5957 10.5555 36.3771 9.76814 36.335 8.65616V8.66217ZM10.6573 21.0743L7.0569 11.5413L3.43846 21.1284L10.6633 21.0743H10.6573ZM48.5187 21.1043L44.8942 11.5413L41.2758 21.1223L48.5187 21.0983V21.1043ZM10.9338 22.6791L3.16798 22.6911C3.58272 24.6506 5.27172 25.9069 7.13504 25.8648C8.99835 25.8227 10.5431 24.6085 10.9338 22.6791ZM48.7831 22.6911H41.0113C41.4261 24.6626 43.1151 25.8948 44.9543 25.8708C46.7936 25.8467 48.3804 24.6146 48.7831 22.6911Z" fill="#0DB14B"/>
<path d="M34.0769 39.5033C34.0769 40.0804 33.6381 40.3088 33.2895 40.2968C32.8146 40.2847 32.5742 39.9361 32.5742 39.4372V32.4949C32.5742 31.99 32.8327 31.6594 33.2895 31.6414C33.7463 31.6233 34.0829 31.9419 34.0829 32.4949V39.5033H34.0769Z" fill="#0DB14B"/>
</svg>
