<svg width="45" height="36" viewBox="0 0 45 36" fill="none" xmlns="http://www.w3.org/2000/svg">
<path d="M42.7963 7.68807H1.23892L1.2276 27.4485C1.2276 29.1739 2.44389 30.4581 4.15235 30.5316H9.60584C9.99053 30.5316 10.2564 30.8484 10.2677 31.137C10.279 31.4764 10.0132 31.8158 9.62281 31.8158L4.11841 31.8045C2.07052 31.7988 0 30.1017 0 27.8898L0.0113143 3.83555C0.0113143 1.77635 1.99697 0 4.03355 0H39.9961C42.1288 0 44.0522 1.84989 44.0522 3.97698L44.0635 27.7483C44.0635 30.0338 42.0666 31.7988 39.8999 31.8045L34.8254 31.8215C34.3785 31.8215 34.0843 31.533 34.09 31.1426C34.0956 30.7523 34.3898 30.5316 34.8367 30.5316H39.8773C41.5122 30.4638 42.7681 29.2701 42.7963 27.5899V7.68807ZM42.7511 6.40389C42.8755 5.61189 42.7737 5.09144 42.8077 4.37298C42.8755 2.8512 41.7102 1.2672 39.9904 1.2672H4.04486C2.32509 1.2672 1.17103 2.86252 1.2276 4.37298C1.25589 5.12538 1.16537 5.69675 1.27852 6.40389H42.7398H42.7511Z" fill="#0DB14B"/>
<path d="M30.7975 14.0863C30.7975 15.3478 29.7736 16.3718 28.5121 16.3718C27.2505 16.3718 26.2266 15.3478 26.2266 14.0863C26.2266 12.8247 27.2505 11.8008 28.5121 11.8008C29.7736 11.8008 30.7975 12.8247 30.7975 14.0863ZM29.519 14.0863C29.519 13.5319 29.0665 13.0793 28.5121 13.0793C27.9577 13.0793 27.5051 13.5319 27.5051 14.0863C27.5051 14.6407 27.9577 15.0932 28.5121 15.0932C29.0665 15.0932 29.519 14.6407 29.519 14.0863Z" fill="#0DB14B"/>
<path d="M6.27479 4.41245C6.26913 4.77451 6.05982 5.03474 5.77696 5.08565C5.4941 5.13657 5.10942 5.05737 5.05285 4.684C4.9397 3.95988 4.78696 2.53428 5.65816 2.55691C6.45016 2.57954 6.2861 3.69399 6.27479 4.4068V4.41245Z" fill="#0DB14B"/>
<path d="M9.17006 4.73547C9.07389 5.10318 8.68355 5.14278 8.44029 5.08621C8.23097 5.04095 7.99337 4.81467 7.9764 4.50918C7.94812 3.73981 7.7784 2.62535 8.55909 2.56312C9.50383 2.48392 9.29452 4.25461 9.17006 4.73547Z" fill="#0DB14B"/>
<path d="M25.2518 15.891C26.4172 16.0098 25.0029 17.4976 26.2475 18.697C27.4921 19.8963 28.4198 18.7535 28.9856 19.1382C29.5117 19.5003 28.8724 20.9881 30.3942 21.9215C31.9952 22.9059 32.855 21.5878 33.5339 21.9102C33.7149 21.9951 33.8507 22.2157 33.8846 22.4929C34.6653 29.3833 29.3363 35.4025 22.5194 35.691C15.6064 35.9795 9.85873 30.3111 10.068 23.3698C10.2774 16.4284 16.24 11.1447 23.17 11.8575C23.4302 11.8857 23.6509 12.0385 23.747 12.2195C24.1091 12.8814 22.8928 13.515 23.6565 14.9123C23.9394 15.4271 24.5107 15.8118 25.2518 15.891ZM24.4146 16.7962C22.6948 16.2927 21.784 14.7143 22.3384 13.0851C16.2117 12.8757 11.3126 17.8371 11.3352 23.7884C11.3579 29.7397 16.2683 34.5483 22.2253 34.4295C28.1822 34.3107 32.9625 29.3381 32.6627 23.3019C30.5243 24.043 28.533 22.6004 28.1992 20.4507C27.113 20.6883 26.1117 20.3149 25.4046 19.6587C24.6182 18.9232 24.3127 17.9332 24.4033 16.8018L24.4146 16.7962Z" fill="#0DB14B"/>
<path d="M33.9676 18.0228C33.9676 19.0864 33.102 19.9519 32.0385 19.9519C30.9749 19.9519 30.1094 19.0864 30.1094 18.0228C30.1094 16.9593 30.9749 16.0938 32.0385 16.0938C33.102 16.0938 33.9676 16.9593 33.9676 18.0228ZM32.6834 18.0228C32.6834 17.6608 32.3892 17.3723 32.0328 17.3723C31.6764 17.3723 31.3822 17.6664 31.3822 18.0228C31.3822 18.3792 31.6764 18.6734 32.0328 18.6734C32.3892 18.6734 32.6834 18.3792 32.6834 18.0228Z" fill="#0DB14B"/>
<path d="M19.5273 26.1015C19.5273 27.793 18.1583 29.1621 16.4668 29.1621C14.7753 29.1621 13.4062 27.793 13.4062 26.1015C13.4062 24.41 14.7753 23.041 16.4668 23.041C18.1583 23.041 19.5273 24.41 19.5273 26.1015ZM18.2544 26.1015C18.2544 25.1115 17.4511 24.3139 16.4668 24.3139C15.4824 24.3139 14.6791 25.1172 14.6791 26.1015C14.6791 27.0859 15.4824 27.8892 16.4668 27.8892C17.4511 27.8892 18.2544 27.0859 18.2544 26.1015Z" fill="#0DB14B"/>
<path d="M22.9492 19.4316C22.9492 21.1231 21.5801 22.4921 19.8886 22.4921C18.1972 22.4921 16.8281 21.1231 16.8281 19.4316C16.8281 17.7401 18.1972 16.3711 19.8886 16.3711C21.5801 16.3711 22.9492 17.7401 22.9492 19.4316ZM21.6763 19.4316C21.6763 18.4416 20.8786 17.644 19.8886 17.644C18.8986 17.644 18.101 18.4416 18.101 19.4316C18.101 20.4216 18.8986 21.2193 19.8886 21.2193C20.8786 21.2193 21.6763 20.4216 21.6763 19.4316Z" fill="#0DB14B"/>
<path d="M29.6926 25.6217C29.6926 27.1208 28.4763 28.3371 26.9772 28.3371C25.478 28.3371 24.2617 27.1208 24.2617 25.6217C24.2617 24.1225 25.478 22.9062 26.9772 22.9062C28.4763 22.9062 29.6926 24.1225 29.6926 25.6217ZM28.4141 25.6217C28.4141 24.8297 27.7692 24.1848 26.9772 24.1848C26.1851 24.1848 25.5402 24.8297 25.5402 25.6217C25.5402 26.4137 26.1851 27.0586 26.9772 27.0586C27.7692 27.0586 28.4141 26.4137 28.4141 25.6217Z" fill="#0DB14B"/>
<path d="M24.9195 30.1687C24.9195 31.3341 23.9747 32.2788 22.8093 32.2788C21.644 32.2788 20.6992 31.3341 20.6992 30.1687C20.6992 29.0033 21.644 28.0586 22.8093 28.0586C23.9747 28.0586 24.9195 29.0033 24.9195 30.1687ZM23.6409 30.1631C23.6409 29.7048 23.2676 29.3315 22.8093 29.3315C22.3511 29.3315 21.9777 29.7048 21.9777 30.1631C21.9777 30.6213 22.3511 30.9947 22.8093 30.9947C23.2676 30.9947 23.6409 30.6213 23.6409 30.1631Z" fill="#0DB14B"/>
</svg>
