<svg width="43" height="43" viewBox="0 0 43 43" fill="none" xmlns="http://www.w3.org/2000/svg">
<path d="M37.795 14.9622L36.3224 14.1447L34.8738 14.9502C34.6935 15.0524 34.4831 14.9742 34.3448 14.854C33.9301 14.4813 34.6394 13.189 34.4651 12.8524C34.1645 12.2694 33.1307 11.9629 33.2028 11.3017C33.2749 10.6405 34.7776 10.9951 35.1743 10.6645C35.6131 10.2979 35.6612 9.00559 36.3043 9.02362C36.9475 9.04166 36.9956 10.2558 37.4163 10.6706C37.5546 10.935 39.1113 10.7427 39.3157 11.1093C39.7304 11.8667 38.4922 12.2153 38.1376 12.8524C38.0114 13.2371 38.6305 14.4453 38.3059 14.8119C38.2217 14.9021 38.0114 15.0944 37.789 14.9682L37.795 14.9622ZM37.1458 13.3814C36.8753 12.0831 37.0857 12.63 37.6327 11.7645C36.8152 11.9508 36.5508 11.3498 36.2983 10.8449C36.0759 11.4099 35.7393 11.9268 34.988 11.7765C35.6492 12.7142 35.6371 12.017 35.5049 13.3814C35.8355 13.2552 36.1 12.9186 36.3765 13.0388L37.1338 13.3694L37.1458 13.3814Z" fill="#0DB14B"/>
<path d="M13.4436 7.92445C12.8606 8.38727 12.0131 7.20316 11.4841 7.26928C10.8891 7.30535 10.0957 8.38126 9.54269 7.91844C9.08587 7.53375 9.83721 6.37369 9.63886 5.90485C9.37439 5.28575 8.17225 4.96118 8.43071 4.25191C8.61103 3.74701 10.1738 4.02351 10.3782 3.72297C10.829 3.33829 10.847 2.08806 11.4962 2.08205C12.1453 2.07604 12.1814 3.37435 12.6322 3.71696C12.8305 4.01149 14.4174 3.74701 14.5676 4.2459C14.796 5.00325 13.6119 5.29777 13.3655 5.90485C13.1671 6.36167 13.9245 7.54577 13.4496 7.91844L13.4436 7.92445ZM12.2776 6.41576C12.1213 5.55623 12.3076 5.33384 12.8666 4.87101C12.0612 4.88304 11.7005 4.60654 11.5322 3.85521C10.853 5.06336 11.3759 4.51638 10.1678 4.95516C10.8109 5.31581 10.865 5.76661 10.6667 6.49991C11.2738 5.98299 11.7246 6.07315 12.2776 6.41576Z" fill="#0DB14B"/>
<path d="M32.3309 7.83435C31.7959 8.51356 30.8523 7.22727 30.2933 7.26333C29.7283 7.31142 28.8868 8.34526 28.3819 7.94254C27.877 7.53983 28.6163 6.45189 28.454 5.89891C28.1835 5.3339 26.9934 4.94321 27.2459 4.25198C27.4322 3.74107 28.7365 4.02958 29.1452 3.73506C29.6742 3.35037 29.59 2.07009 30.3474 2.08212C30.9424 2.09414 31.0326 3.41048 31.4413 3.73506C31.8741 4.01756 33.1484 3.73506 33.3888 4.27001C33.6713 4.88911 32.403 5.33991 32.1746 5.90492C31.9883 6.36173 32.6495 7.43764 32.3369 7.83435H32.3309ZM31.1167 6.46992C30.9364 5.68252 31.0626 5.2798 31.6457 4.9372C30.2993 4.55852 30.9545 4.92517 30.2692 3.90937C30.1009 4.55251 29.7283 4.93118 29.013 4.84102C29.59 5.82077 29.59 4.86507 29.5179 6.49998C30.0829 5.97705 30.5638 6.0612 31.1167 6.46992Z" fill="#0DB14B"/>
<path d="M13.9728 39.215C13.4739 39.8822 12.4581 38.6019 11.9352 38.6259C11.3461 38.7161 10.5407 39.7199 10.0178 39.3172C9.89154 39.221 9.82542 39.0287 9.86149 38.8243L10.168 37.2735L8.96589 36.1676C8.80961 36.0233 8.83366 35.7949 8.89376 35.6086C9.04403 35.1337 10.6008 35.4343 10.8412 35.0917C11.2199 34.7791 11.3221 33.5229 11.863 33.4688C12.6685 33.3846 12.5843 34.6769 13.0832 35.1037C13.504 35.4583 14.8323 35.1037 15.0187 35.6386C15.2651 36.3359 14.099 36.6845 13.7925 37.2976C13.6482 37.6402 14.2673 38.8303 13.9728 39.221V39.215ZM12.7707 37.7784C12.7346 37.3938 12.5423 37.0211 12.7466 36.8107L13.2575 36.2698C12.3379 36.0053 12.4461 36.3779 11.9833 35.302L11.5024 36.0534C11.3341 36.3178 10.9013 36.1195 10.5467 36.2878C10.7931 36.4921 11.0756 36.6424 11.1718 36.8528C11.3161 37.1774 11.1538 37.4659 11.1177 37.8205C12.2598 37.3156 11.6707 37.3998 12.7707 37.7844V37.7784Z" fill="#0DB14B"/>
<path d="M32.1307 39.2589C31.6498 39.8119 30.7002 38.6699 30.1532 38.6218C29.5822 38.6819 28.8008 39.6917 28.2298 39.3311C27.7669 39.0426 28.4161 37.7623 28.3019 37.3476C28.1396 36.7345 26.8233 36.3438 27.0697 35.6525C27.2681 35.0996 28.5423 35.4662 29.0112 35.1056C29.4379 34.781 29.504 33.5007 30.0991 33.4586C30.8144 33.4045 30.8144 34.7389 31.2892 35.1116C31.734 35.4602 32.8941 35.1056 33.1946 35.5984C33.5733 36.2296 32.2509 36.7224 32.0225 37.2814C31.8362 37.7382 32.4913 38.8502 32.1307 39.265V39.2589ZM30.9887 37.7923C30.7302 36.6744 30.9105 36.9208 31.4876 36.2776C30.5379 36.0192 30.6761 36.3918 30.1772 35.3039L29.7024 36.0492C29.5521 36.2897 29.1193 36.1394 28.8308 36.2897C29.5221 36.9869 29.498 36.7585 29.3177 37.8104C29.6964 37.7202 29.9248 37.3656 30.2013 37.4798L30.9827 37.7863L30.9887 37.7923Z" fill="#0DB14B"/>
<path d="M23.0148 5.81428C22.5339 6.36125 21.5542 5.17714 21.0373 5.17113C20.5023 5.20119 19.6488 6.24705 19.1259 5.87438C18.6029 5.50172 19.3663 4.1974 19.18 3.82474C19.0297 3.3559 17.7194 2.81494 17.9538 2.22589C18.2062 1.60078 19.3843 2.02153 19.8952 1.64886C20.322 1.33631 20.3881 0.0500195 20.9772 0.00193392C21.7045 -0.058173 21.7045 1.30024 22.1733 1.64886C22.6782 2.02153 23.8683 1.60679 24.1147 2.22589C24.3492 2.80292 23.1049 3.33186 22.8886 3.81272C22.7142 4.1974 23.3814 5.39353 23.0088 5.81428H23.0148ZM21.8427 4.38974C21.8427 3.95697 21.6203 3.59032 21.8307 3.36191L22.3656 2.7909C21.6564 2.82095 21.2537 2.56249 21.0493 1.79913C20.8149 2.49637 20.4723 2.83297 19.7029 2.7909C20.4783 3.6925 20.3641 3.17558 20.2138 4.43182C20.7668 3.93293 21.2717 3.95697 21.8367 4.38974H21.8427Z" fill="#0DB14B"/>
<path d="M22.4598 42.0579L21.0353 41.2705L19.5687 42.0759C19.4184 42.1601 19.202 42.0639 19.1058 42.0098C18.649 41.7453 19.3162 40.3809 19.19 40.0263C19.1179 39.5214 17.6933 39.0105 17.9638 38.3553C18.1922 37.7903 19.4244 38.1449 19.8752 37.8324C20.3801 37.4777 20.344 36.1073 21.0954 36.1494C21.6964 36.1854 21.7626 37.5499 22.2074 37.8324C22.7123 38.157 23.9865 37.7482 24.1428 38.4334C24.281 39.0285 23.0489 39.4733 22.8926 40.0263C22.7784 40.435 23.3614 41.5891 23.0308 41.9557C22.9467 42.0519 22.6882 42.1841 22.4658 42.0579H22.4598ZM21.8647 40.5011C21.8046 40.0684 21.6183 39.7197 21.8467 39.4853L22.3636 38.9624C21.2156 38.74 21.5943 38.9504 21.0353 38.0187C20.5424 38.7941 20.867 38.8061 19.8151 38.9263C19.4785 39.2749 20.6927 39.0586 20.1878 40.5372C21.3418 40.0022 20.7948 40.0984 21.8647 40.5071V40.5011Z" fill="#0DB14B"/>
<path d="M7.47122 14.8424C6.97234 15.3774 6.01062 14.1872 5.48168 14.1993C4.91067 14.2474 4.06917 15.3052 3.56427 14.8785C3.43805 14.7703 3.35991 14.584 3.40198 14.3676L3.70252 12.8228L2.50639 11.7349C2.35011 11.5906 2.38017 11.3562 2.43426 11.1819C2.58453 10.7071 4.05114 10.9234 4.33965 10.695C4.82051 10.3344 4.80248 8.98799 5.52977 9.01204C6.1068 9.03007 6.23302 10.3524 6.61771 10.677C6.90021 10.9475 8.34277 10.665 8.56517 11.1999C8.84166 11.8611 7.56739 12.2879 7.345 12.8469C7.14665 13.1534 7.8499 14.4337 7.46521 14.8424H7.47122ZM6.35323 13.3698C6.03467 12.6185 6.28111 12.2578 6.85813 11.819C6.07073 11.819 5.69807 11.5485 5.50573 10.7972C5.24727 11.4884 4.9287 11.8671 4.1413 11.789C4.83253 12.5944 4.83854 12.1737 4.65822 13.3818C5.78222 12.8589 5.25929 12.9911 6.34722 13.3638L6.35323 13.3698Z" fill="#0DB14B"/>
<path d="M30.904 18.618C30.333 25.2117 27.6041 30.5792 21.0404 32.8032C17.0734 31.5409 14.056 28.6498 12.5413 24.809C11.1829 21.3588 10.7982 16.947 11.1769 13.2744C11.2069 12.9919 11.3572 12.7876 11.6517 12.7455C14.5489 12.3368 18.1673 11.3931 20.4935 9.58388C20.8721 9.28936 21.1907 9.29537 21.5694 9.58388C23.9616 11.4111 27.4539 12.3248 30.4111 12.7455C30.7056 12.7876 30.8559 12.998 30.886 13.2744C31.0723 15.0777 31.0543 16.8147 30.898 18.618H30.904ZM21.0585 31.7453C24.4786 30.5251 27.0571 28.0908 28.4396 24.827C29.9423 21.3769 30.1647 17.3798 29.9243 13.7012C26.7085 13.1723 23.6611 12.3187 21.0404 10.4554C18.3957 12.3248 15.3784 13.1723 12.1506 13.7012C11.9102 17.4098 12.1326 21.443 13.6713 24.9112C15.0718 28.1509 17.6865 30.5973 21.0645 31.7453H21.0585Z" fill="#0DB14B"/>
<path d="M28.6789 15.0955C28.8351 21.3406 27.4407 27.6338 21.0393 30.1463C14.6439 27.6398 13.2314 21.3406 13.3997 15.0955C13.4057 14.825 13.592 14.6387 13.8565 14.5786C16.1406 14.1097 18.3886 13.4546 20.3901 12.2645C20.895 11.9639 21.1835 11.9639 21.6884 12.2645C23.69 13.4546 25.938 14.1037 28.2221 14.5786C28.4865 14.6327 28.6729 14.819 28.6789 15.0955ZM23.6599 21.3767C24.7779 21.7433 25.7457 22.2482 26.5932 23.0957C27.5128 20.5773 27.7172 18.0828 27.6691 15.4982C25.3069 14.9993 23.131 14.278 21.0333 13.0759C18.9355 14.278 16.7597 14.9933 14.3975 15.4982C14.3434 18.0828 14.5477 20.5712 15.4674 23.0957C16.3149 22.2422 17.2826 21.7493 18.4006 21.3767C16.958 19.8019 17.0963 17.5539 18.5448 16.1955C19.9513 14.8731 22.2054 14.9032 23.5758 16.2556C24.9462 17.608 25.0785 19.8319 23.6599 21.3767ZM23.666 18.8522C23.666 17.3976 22.4879 16.2195 21.0333 16.2195C19.5787 16.2195 18.4006 17.3976 18.4006 18.8522C18.4006 20.3068 19.5787 21.4849 21.0333 21.4849C22.4879 21.4849 23.666 20.3068 23.666 18.8522ZM26.1123 24.1115C25.1025 22.8613 23.8102 22.3925 22.4338 22.1761C21.4961 22.7772 20.5765 22.3504 19.6268 22.2903C18.2082 22.1941 16.7597 23.0537 15.9602 24.1717C17.0241 26.4557 18.7913 28.1087 21.0393 29.0704C23.2813 28.0966 25.1386 26.3776 26.1123 24.1115Z" fill="#0DB14B"/>
<path d="M7.42956 32.3098C6.95471 32.8868 5.93289 31.6847 5.44603 31.7027C4.91709 31.6607 4.03952 32.8267 3.46851 32.3459C3.01771 31.9672 3.75101 30.8372 3.55867 30.3443C3.37835 29.7973 2.11009 29.3946 2.35052 28.7094C2.55488 28.1324 3.86521 28.5351 4.29197 28.1504C4.68267 27.8018 4.70671 27.1827 4.99523 26.7559C5.17555 26.4915 5.57826 26.4073 5.80667 26.6778C6.1613 27.1046 6.1613 27.8499 6.58806 28.1805C7.09897 28.499 8.28308 28.1624 8.49946 28.6854C8.78196 29.3706 7.48966 29.7913 7.27929 30.3443C7.11099 30.7591 7.77818 31.8831 7.42956 32.3098ZM6.26348 30.9213C6.08917 30.2722 6.09518 29.7493 6.74434 29.4067C6.47987 29.1422 6.05311 29.3706 5.89082 29.1242L5.36789 28.3488C5.23565 29.0881 4.82693 29.2924 4.04554 29.3105C4.67065 29.7553 4.83895 30.1279 4.5865 30.8853C5.21161 30.5126 5.63236 30.4285 6.26949 30.9213H6.26348Z" fill="#0DB14B"/>
<path d="M3.10041 23.2878C2.45726 23.2878 1.71795 24.3577 1.16496 23.9309C0.696127 23.5703 1.35129 22.4403 1.26714 21.9233C0.98464 21.3163 -0.151381 21.0157 0.0169186 20.2884C0.149154 19.7174 1.63981 20.0179 1.97039 19.7415C2.34907 19.4349 2.46327 18.0585 3.08237 18.0645C3.70147 18.0705 3.83371 19.4049 4.21238 19.7595C4.52494 19.9819 5.94346 19.7775 6.1298 20.2103C6.45437 20.9736 5.22819 21.2742 4.92766 21.9293C4.80143 22.4282 5.49266 23.5462 5.01782 23.9429C4.50691 24.3697 3.69546 23.2938 3.10041 23.2938V23.2878ZM3.88781 22.4282C3.70749 21.6288 3.85775 21.3042 4.46483 20.9256C3.28073 20.631 3.56323 20.8715 3.09439 19.8196C2.65561 20.8354 2.80588 20.6851 1.80811 20.8955L2.32503 21.4906C2.54141 21.737 2.23487 22.0315 2.31901 22.4883C2.89003 21.9654 3.28073 22.0736 3.88781 22.4282Z" fill="#0DB14B"/>
<path d="M38.6728 32.3103C38.1919 32.8933 37.1821 31.6792 36.6953 31.7092C36.1784 31.6431 35.3188 32.8092 34.7238 32.3584C34.2609 32.0098 35.0003 30.8617 34.8139 30.3448C34.6036 29.7798 33.3473 29.3771 33.5998 28.7099C33.8101 28.1449 35.1205 28.5356 35.5532 28.1569C36.0161 27.7482 36.0101 26.5521 36.6712 26.522C37.3324 26.492 37.3444 27.7542 37.8012 28.1509C38.1919 28.4935 39.4903 28.217 39.7006 28.6017C40.1214 29.3771 38.787 29.7377 38.5406 30.3448C38.3783 30.8497 39.0455 31.8715 38.6848 32.3103H38.6728ZM37.5127 30.9218C37.3384 30.2727 37.3444 29.7498 37.9936 29.4071C37.7291 29.1367 37.3024 29.3771 37.1401 29.1307L36.6652 28.4034C36.4609 28.6318 36.4669 29.0645 36.2024 29.1367L35.3369 29.3711C35.9019 29.7137 36.0702 30.1164 35.8418 30.8617C36.4549 30.5191 36.8816 30.423 37.5067 30.9158L37.5127 30.9218Z" fill="#0DB14B"/>
<path d="M39.0411 23.2877C38.41 23.2216 37.5986 24.3757 37.0636 23.9369C36.5828 23.5462 37.28 22.4162 37.1478 21.9233C36.8893 21.3223 35.7292 20.9977 35.9096 20.2944C36.0538 19.7234 37.4844 20.0059 37.8691 19.7595C38.2477 19.3988 38.3739 18.0645 38.9991 18.0645C39.6242 18.0645 39.7324 19.4409 40.111 19.7474C40.4657 20.0299 41.9082 19.7174 42.0645 20.2944C42.2388 20.9376 41.217 21.3223 40.7662 21.9113L41.0848 23.3959C41.1329 23.6243 41.0667 23.8107 40.9225 23.9369C40.4176 24.3577 39.6662 23.3599 39.0471 23.2938L39.0411 23.2877ZM39.7865 22.4402C39.5821 21.6168 39.7624 21.3042 40.3334 20.9255C39.1614 20.625 39.4799 20.8714 38.969 19.8196C38.5242 20.9917 38.6384 20.613 37.6106 20.9316C38.2658 21.3102 38.386 21.7009 38.1395 22.4763C38.8067 22.0195 39.1193 22.0195 39.7805 22.4342L39.7865 22.4402Z" fill="#0DB14B"/>
</svg>
