<svg width="42" height="45" viewBox="0 0 42 45" fill="none" xmlns="http://www.w3.org/2000/svg">
<path d="M13.5178 44.4611C10.248 44.4551 7.7836 41.9726 7.1645 38.9793C6.93008 37.8553 7.00221 36.8215 7.06833 35.7155C7.09237 35.2587 7.64535 35.0663 8.04206 35.0543L13.7703 35.0423L13.8845 24.9564C6.96615 25.7077 0.901354 20.7489 0.0899102 14.0169C-0.721534 7.28491 4.04495 0.991712 10.9332 0.102129C16.9379 -0.67325 22.624 3.03535 24.4753 8.88375L40.9747 8.9078C41.5517 8.9078 41.8582 9.38264 41.8642 9.92361L41.7981 37.9695C41.7921 41.7683 38.5944 44.5212 34.8918 44.5091L13.5178 44.4611ZM23.2672 12.5202C23.2672 6.56363 18.4406 1.73704 12.484 1.73704C6.52737 1.73704 1.70078 6.56964 1.70078 12.5202C1.70078 18.4708 6.52737 23.3034 12.484 23.3034C18.4406 23.3034 23.2672 18.4768 23.2672 12.5202ZM18.2723 23.5799C17.4368 24.0728 16.5833 24.3613 15.6095 24.6678L15.5374 35.0363L29.368 35.0543C31.3395 35.0543 29.8188 37.0379 30.8466 39.5684C31.7182 41.7082 33.84 43.0786 36.1721 42.6038C38.3179 42.171 40.0791 40.2536 40.0851 37.9034L40.1452 10.6569H24.872C25.1725 12.5443 24.9742 14.3174 24.4873 16.1387L30.4439 16.1807C31.027 16.1928 31.3876 16.5955 31.3515 17.1244C31.3215 17.5512 30.9789 17.9118 30.4439 17.9178L23.754 17.9599C23.0327 19.4866 22.035 20.6587 20.7727 21.8969L36.088 21.927C36.653 21.927 37.0136 22.3177 37.0196 22.7925C37.0256 23.2673 36.671 23.646 36.094 23.646H19.1017C18.7892 23.646 18.5548 23.4837 18.2783 23.5739L18.2723 23.5799ZM30.8767 42.73C29.2598 41.0049 28.5626 39.0274 28.7309 36.7794H8.7934C8.43877 39.917 10.5425 42.766 13.8784 42.76L30.8767 42.73Z" fill="#0DB14B"/>
<path d="M36.0024 28.334C36.6696 28.334 37.0242 28.7307 37.0122 29.2176C37.0062 29.6383 36.6575 30.0771 36.0865 30.0771H19.0943C18.5533 30.0771 18.2288 29.6083 18.2227 29.2055C18.2167 28.8028 18.5353 28.346 19.0883 28.346L35.9964 28.334H36.0024Z" fill="#0DB14B"/>
<path d="M15.7733 19.4442C15.581 19.4442 15.3946 19.4262 15.2023 19.3961C13.9881 19.1858 12.816 18.741 11.7101 18.0738C9.3058 16.6192 7.40642 14.4493 6.36056 11.9609C6.06603 11.2637 5.8797 10.5785 5.77752 9.85717C5.62124 8.71514 6.05401 7.60917 6.93758 6.90592C7.31025 6.6114 7.67089 6.37698 8.04956 6.19065C9.08941 5.68575 10.3577 6.02836 11.0008 7.00209C11.3494 7.52502 11.674 8.0179 11.9866 8.56487C12.4975 9.46047 12.221 10.5965 11.3554 11.1615L10.9648 11.4139C11.7341 12.5199 12.6718 13.4636 13.7778 14.2269L14.0062 13.8723C14.5952 12.9527 15.7913 12.6822 16.717 13.2532L16.8071 13.3073C17.288 13.6018 17.7448 13.8843 18.2377 14.2209C19.0732 14.804 19.4398 15.8679 19.1213 16.8115C18.953 17.3164 18.6825 17.7913 18.2918 18.2541C17.6547 19.0175 16.741 19.4382 15.7793 19.4382L15.7733 19.4442ZM9.05936 7.71136C8.97521 7.71136 8.89707 7.72939 8.81292 7.77146C8.54845 7.89769 8.296 8.05998 8.02552 8.28237C7.6228 8.60695 7.43647 9.08179 7.51461 9.62276C7.59275 10.1998 7.74302 10.7287 7.97744 11.2877C8.87904 13.4335 10.532 15.3149 12.6177 16.5771C13.5493 17.1361 14.493 17.4968 15.5028 17.6711C16.0558 17.7672 16.5787 17.5749 16.9394 17.1361C17.1858 16.8476 17.3481 16.5591 17.4503 16.2646C17.5224 16.0542 17.4323 15.8138 17.2279 15.6695C16.7771 15.357 16.3443 15.0925 15.8815 14.804L15.7913 14.7499C15.6771 14.6778 15.5449 14.7138 15.4728 14.822L14.8296 15.8198C14.5291 16.2826 13.934 16.4088 13.4351 16.1083C11.6379 15.0143 10.1773 13.5477 9.07739 11.7505C8.77686 11.2517 8.89707 10.6566 9.35989 10.3561L10.3937 9.68887C10.4719 9.63478 10.5019 9.52658 10.4538 9.44244C10.1653 8.94355 9.85878 8.47471 9.52819 7.98184C9.41399 7.81354 9.23367 7.71737 9.05335 7.71737L9.05936 7.71136Z" fill="#0DB14B"/>
</svg>
