<svg width="41" height="39" viewBox="0 0 41 39" fill="none" xmlns="http://www.w3.org/2000/svg">
<path d="M4.18536 38.5254C2.62625 38.5254 1.29336 37.4676 0.657487 36.416C-0.174041 35.0342 -0.21684 33.4445 0.529089 32.0505L16.4565 2.4579C17.2819 0.92324 18.7004 0.0244567 20.3451 0C20.3696 0 20.394 0 20.4124 0C22.0938 0 23.5367 0.892669 24.3805 2.4579L40.3018 32.0444C41.0294 33.4017 41.0049 34.9608 40.2284 36.3182C39.6476 37.3331 38.3819 38.5132 36.7066 38.5132H4.18536V38.5193V38.5254ZM20.4185 1.3818C20.4185 1.3818 20.3879 1.3818 20.3696 1.3818C19.2262 1.40015 18.2663 2.01156 17.6732 3.11211L1.75192 32.6986C1.23222 33.6707 1.26279 34.7346 1.84364 35.7006C2.2594 36.3977 3.17041 37.1436 4.18536 37.1436H36.7066C37.8622 37.1375 38.7121 36.1898 39.03 35.6334C39.5742 34.6857 39.5925 33.6402 39.0851 32.6986L23.1699 3.11211C22.5707 1.99322 21.5924 1.3818 20.4185 1.3818Z" fill="#0DB14B"/>
<path d="M21.7723 24.0479V14.5404C21.7784 13.7761 21.1547 13.2259 20.4638 13.2075C19.7729 13.1892 19.082 13.6966 19.082 14.4609V24.0907C19.082 24.855 19.7913 25.3625 20.4638 25.3441C21.1364 25.3258 21.7723 24.8367 21.7723 24.0541V24.0479Z" fill="#0DB14B"/>
<path d="M20.4198 29.8748C21.1695 29.8748 21.7772 29.2671 21.7772 28.5175C21.7772 27.7679 21.1695 27.1602 20.4198 27.1602C19.6702 27.1602 19.0625 27.7679 19.0625 28.5175C19.0625 29.2671 19.6702 29.8748 20.4198 29.8748Z" fill="#0DB14B"/>
</svg>
