<svg width="36" height="41" viewBox="0 0 36 41" fill="none" xmlns="http://www.w3.org/2000/svg">
<path d="M5.22212 11.345C5.20989 12.3783 5.01424 13.4605 4.0482 13.9252C2.99656 14.4327 1.8471 14.1698 1.18677 13.2954C0.526435 12.4211 0.618148 11.235 1.27236 10.4952C2.04886 9.6086 3.2289 9.45575 4.29277 10.1161L10.4986 5.82393C10.1929 4.38098 11.1284 3.11535 12.4858 2.99918C13.8431 2.88301 15.072 4.03247 14.9192 5.57325L20.8744 8.74039C21.6448 8.32462 22.5925 7.89663 23.5096 8.52639L29.9967 3.03587C29.6482 1.86194 30.0946 0.779736 31.0667 0.260032C31.9777 -0.229102 33.1517 -0.0151062 33.8242 0.791964C34.4968 1.59904 34.5396 2.79741 33.8303 3.6534C33.17 4.45435 32.045 4.71115 30.9872 4.1731L24.5062 9.64528C24.7997 10.5869 24.5612 11.504 23.9131 12.0971C23.2039 12.7452 22.2807 12.8369 21.4063 12.4578C20.532 12.0787 20.2141 11.1249 20.1224 10.1222L14.2222 6.94282C13.3295 7.37081 12.3329 7.77435 11.3669 7.0223L5.22212 11.3328V11.345ZM32.8521 2.23491C32.8521 1.82526 32.5219 1.49509 32.1122 1.49509C31.7026 1.49509 31.3724 1.82526 31.3724 2.23491C31.3724 2.64456 31.7026 2.97472 32.1122 2.97472C32.5219 2.97472 32.8521 2.64456 32.8521 2.23491ZM13.4273 5.22474C13.4273 4.81509 13.0972 4.48492 12.6875 4.48492C12.2779 4.48492 11.9477 4.81509 11.9477 5.22474C11.9477 5.63439 12.2779 5.96455 12.6875 5.96455C13.0972 5.96455 13.4273 5.63439 13.4273 5.22474ZM23.1366 10.4524C23.1366 10.0427 22.8065 9.71254 22.3968 9.71254C21.9872 9.71254 21.657 10.0427 21.657 10.4524C21.657 10.862 21.9872 11.1922 22.3968 11.1922C22.8065 11.1922 23.1366 10.862 23.1366 10.4524ZM3.71192 11.9503C3.71192 11.5407 3.38175 11.2105 2.9721 11.2105C2.56245 11.2105 2.23229 11.5407 2.23229 11.9503C2.23229 12.36 2.56245 12.6901 2.9721 12.6901C3.38175 12.6901 3.71192 12.36 3.71192 11.9503Z" fill="#0DB14B"/>
<path d="M3.79079 37.2991C3.47285 38.1123 4.20655 40.1544 3.09377 40.3134C1.65694 40.5152 2.48235 38.0634 2.15219 37.2991C1.18004 37.5315 0 37.0546 0 35.9968V22.2583C0 21.2005 1.18004 20.7236 2.15219 20.9559C2.47624 20.1244 1.68751 17.9355 2.97149 17.9355C4.25546 17.9355 3.46062 20.1366 3.79079 20.9559C4.75071 20.7175 5.93686 21.1944 5.93686 22.2399V36.009C5.93686 37.0607 4.75071 37.5254 3.79079 37.293V37.2991ZM4.46946 22.4111H1.48574V35.8623H4.47557V22.4111H4.46946Z" fill="#0DB14B"/>
<path d="M23.2205 35.8086C22.9025 36.6218 23.6362 38.664 22.5235 38.8229C21.0866 39.0247 21.912 36.5729 21.5819 35.8086C20.6097 36.041 19.4297 35.5641 19.4297 34.5063V20.7739C19.4297 19.7161 20.6097 19.2392 21.5819 19.4716C21.9059 18.64 21.1172 16.4512 22.4012 16.4512C23.6852 16.4512 22.8903 18.6523 23.2205 19.4716C24.1804 19.2331 25.3665 19.71 25.3665 20.7555V34.5247C25.3665 35.5763 24.1804 36.041 23.2205 35.8086ZM23.8991 20.9145H20.9093V34.3657H23.8991V20.9145Z" fill="#0DB14B"/>
<path d="M32.9292 27.6327C32.6296 28.6049 33.3389 30.543 32.171 30.6164C31.8287 30.6409 31.4068 30.4391 31.3884 30.0295L31.2845 27.6266C30.3979 27.7733 29.1445 27.4004 29.1445 26.3365V12.5001C29.1445 11.4301 30.3857 11.0633 31.2784 11.2162C31.5841 10.2134 30.8687 8.31192 32.0365 8.22632C33.3694 8.12238 32.6174 10.2562 32.9231 11.2162C33.8158 11.0694 35.0569 11.4301 35.0569 12.5062V26.3426C35.0569 27.4126 33.8096 27.7794 32.9231 27.6327H32.9292ZM33.6079 12.6958H30.618V26.1408H33.6079V12.6958Z" fill="#0DB14B"/>
<path d="M13.5073 30.6171C13.2077 31.5892 13.917 33.5274 12.7492 33.6008C12.4068 33.6252 11.9849 33.4235 11.9666 33.0138L11.8626 30.611C10.9761 30.7577 9.72266 30.3847 9.72266 29.3209V15.4845C9.72266 14.4145 10.9638 14.0477 11.8565 14.2005C12.1622 13.1978 11.4469 11.2963 12.6147 11.2107C13.9475 11.1067 13.1955 13.2467 13.5012 14.2005C14.3939 14.0538 15.6351 14.4145 15.6351 15.4906V29.327C15.6351 30.397 14.3878 30.7638 13.5012 30.6171H13.5073ZM14.1799 15.6863H11.1901V29.1313H14.1799V15.6863Z" fill="#0DB14B"/>
</svg>
