<svg width="51" height="38" viewBox="0 0 51 38" fill="none" xmlns="http://www.w3.org/2000/svg">
<path d="M42.8298 37.0852H0.739815C0.324051 37.0852 0 36.7367 0 36.3515V13.9859C0.0122283 13.4784 0.360736 13.1543 0.868212 13.1543L16.6795 13.136L36.9296 0.143384C37.3698 -0.137868 37.8284 0.0149867 38.0974 0.424636L50.069 19.079C50.4175 19.6537 50.124 20.0817 49.6348 20.3935L43.6552 24.2332L43.643 36.2231C43.643 36.6756 43.4045 37.0302 42.8237 37.0913L42.8298 37.0852ZM41.8821 13.0993C42.145 13.2277 42.5913 13.1238 42.7809 13.1482C43.3189 13.2033 43.6613 13.5701 43.643 14.1143L43.6674 22.3195L48.357 19.3419L37.1497 1.86758L19.6693 13.0871C20.9961 13.2033 22.1272 13.1482 23.3989 13.1177L32.8698 7.04017C33.1877 6.8384 33.6952 6.8384 33.9153 7.17468C34.7774 8.477 36.361 8.84996 37.7367 8.04289C38.024 7.8717 38.5254 7.94507 38.7088 8.23243L41.8821 13.1054V13.0993ZM39.9622 13.1299L37.8223 9.76709C36.1042 10.3541 34.4167 9.9872 33.1388 8.7338L26.3215 13.1299H39.9561H39.9622ZM42.0227 14.7868H1.56523V35.52H42.0166V14.7868H42.0227Z" fill="#0DB14B"/>
<path d="M35.6752 33.4592H7.91076C7.44609 33.4592 7.14038 33.0679 7.12815 32.6521C7.09758 31.1908 5.9848 30.0658 4.5174 30.0108C4.08941 29.9924 3.67976 29.7173 3.67976 29.2282V21.1024C3.67364 20.5583 4.07106 20.2648 4.5602 20.2465C6.05206 20.1853 7.10981 18.9992 7.14038 17.5562C7.15261 17.0793 7.53169 16.8164 8.00248 16.8164H35.6446C36.1154 16.8164 36.4578 17.1221 36.4701 17.5684C36.5067 19.042 37.5951 20.222 39.1114 20.2587C39.5761 20.2709 39.949 20.6133 39.949 21.1208V29.0998C39.9551 29.6256 39.6127 29.9924 39.1175 30.0108C37.6501 30.0658 36.5251 31.1847 36.4823 32.646C36.4701 33.0373 36.2133 33.4653 35.6752 33.4653V33.4592ZM34.9843 31.8756C35.3878 30.0169 36.6779 28.8858 38.3777 28.4884V21.7505C36.5862 21.3837 35.3817 20.1058 34.9599 18.3816H8.63835C8.24704 20.1792 6.95084 21.3837 5.24498 21.7689L5.26333 28.5006C7.02421 28.8919 8.25927 30.1453 8.65669 31.8878L34.9904 31.8756H34.9843Z" fill="#0DB14B"/>
<path d="M25.8912 25.1311C25.8912 27.3873 24.0631 29.2154 21.8069 29.2154C19.5508 29.2154 17.7227 27.3873 17.7227 25.1311C17.7227 22.875 19.5508 21.0469 21.8069 21.0469C24.0631 21.0469 25.8912 22.875 25.8912 25.1311ZM24.3198 25.1311C24.3198 23.7432 23.1948 22.6182 21.8069 22.6182C20.419 22.6182 19.294 23.7432 19.294 25.1311C19.294 26.5191 20.419 27.6441 21.8069 27.6441C23.1948 27.6441 24.3198 26.5191 24.3198 25.1311Z" fill="#0DB14B"/>
<path d="M31.5732 26.6484C32.414 26.6484 33.0956 25.9668 33.0956 25.1259C33.0956 24.2851 32.414 23.6035 31.5732 23.6035C30.7324 23.6035 30.0508 24.2851 30.0508 25.1259C30.0508 25.9668 30.7324 26.6484 31.5732 26.6484Z" fill="#0DB14B"/>
<path d="M12.0459 26.6484C12.8867 26.6484 13.5683 25.9668 13.5683 25.1259C13.5683 24.2851 12.8867 23.6035 12.0459 23.6035C11.2051 23.6035 10.5234 24.2851 10.5234 25.1259C10.5234 25.9668 11.2051 26.6484 12.0459 26.6484Z" fill="#0DB14B"/>
</svg>
