<svg width="44" height="44" viewBox="0 0 44 44" fill="none" xmlns="http://www.w3.org/2000/svg">
<path d="M34.3494 40.3864C34.3494 41.8477 33.255 43.1194 31.757 43.1133L12.1183 43.095C10.5897 43.095 9.64816 41.6643 9.64816 40.3069V28.9712L2.06048 28.9529C0.825413 28.959 0 27.9807 0 26.7824L0.0305709 16.6023C0.0305709 15.6118 0.904898 14.7069 1.93208 14.7069L17.8045 14.6641C16.9057 13.0683 14.9308 11.9005 15.5911 10.4086C15.799 9.94394 16.2637 9.42424 16.924 9.40589L18.1285 9.3631C18.3486 6.26932 19.9995 3.52406 22.3228 1.88546C25.0559 -0.0527289 28.3331 -0.480721 31.3718 0.528117C31.7387 0.650401 31.916 0.858283 31.9282 1.15176C31.9404 1.47581 31.8059 1.73261 31.4574 1.86101C28.2352 3.0227 25.9975 5.93916 25.7162 9.34475C26.774 9.39978 27.6177 9.33864 28.1068 10.323C28.8772 11.876 26.8596 13.0316 25.9363 14.6702L41.9493 14.6947C43.0193 14.6947 43.9854 15.5262 43.9854 16.6145V27.0514C43.9854 28.3048 42.8359 28.9957 41.6864 28.9957L34.3616 28.9835L34.3494 40.3925V40.3864ZM24.3833 9.34475C24.634 5.97584 26.3765 3.27338 29.1829 1.43301C24.2671 0.772684 19.8649 4.48399 19.4675 9.36921L24.3833 9.34475ZM22.2128 17.1342L26.8962 11.2279C26.9757 11.1301 26.8962 10.9283 26.8657 10.8672C26.8351 10.806 26.7067 10.7449 26.5538 10.7449H17.1931C17.0402 10.7449 16.9057 10.7999 16.8751 10.8672C16.8445 10.9344 16.7651 11.1362 16.8445 11.234L21.5647 17.1831C21.7237 17.3788 22.0232 17.3727 22.2128 17.1403V17.1342ZM34.3494 21.8238L34.38 27.6261H41.9554C42.3773 27.6261 42.6158 27.3143 42.683 26.9108V16.7429C42.6769 16.3333 42.359 16.0337 41.9432 16.0337H24.8235L23.1849 18.0513C22.812 18.5038 22.2739 18.7239 21.742 18.6872C20.5192 18.5894 19.8894 16.9508 18.9295 16.0337H2.06659C1.65083 16.0337 1.33289 16.3333 1.33289 16.7429V26.9108C1.3818 27.3143 1.62637 27.62 2.04825 27.62H9.64205V21.7993L5.00139 21.781C4.5734 21.781 4.23101 21.5792 4.20044 21.194C4.16987 20.8088 4.37163 20.4664 4.88522 20.4664L39.4425 20.4787C39.7666 20.6499 39.8338 21.1023 39.7666 21.3102C39.6871 21.567 39.4486 21.7688 39.1062 21.7688L34.3372 21.8177L34.3494 21.8238ZM29.134 35.4584C27.7645 35.5195 26.7617 36.5712 26.6884 37.8979C26.6639 38.3748 26.3949 38.6928 25.8874 38.6928H18.1285C17.621 38.6928 17.352 38.3748 17.3214 37.8979C17.2481 36.51 16.1659 35.4828 14.8085 35.4523C14.3622 35.44 14.1054 35.116 14.1054 34.6819V21.8238L10.9811 21.836V40.4292C10.9811 41.2363 11.6047 41.7865 12.3812 41.7865L31.757 41.7743C32.4785 41.7743 33.0226 41.1384 33.0226 40.4292V21.8299L29.8983 21.8177V34.6758C29.8983 35.1282 29.6537 35.4339 29.1279 35.4584H29.134ZM28.6021 34.1255L28.5899 21.8421C27.8623 21.7871 27.2631 21.7993 26.5538 21.8421C26.1014 24.1349 24.1877 25.6635 21.9376 25.6329C19.6876 25.6023 17.8901 24.0921 17.4498 21.8421C16.7406 21.8054 16.1475 21.7871 15.4138 21.8421V34.1438C17.0891 34.4985 18.2569 35.6601 18.6115 37.3293L25.3738 37.3477C25.7345 35.6968 26.8657 34.529 28.596 34.1255H28.6021ZM25.1292 21.836L18.8316 21.8482C19.2168 23.3584 20.5558 24.3245 22.0416 24.3061C23.5273 24.2878 24.8847 23.3156 25.1292 21.8299V21.836Z" fill="#0DB14B"/>
<path d="M24.6033 32.0595C24.6033 33.4963 23.4416 34.658 22.0048 34.658C20.5679 34.658 19.4062 33.4963 19.4062 32.0595C19.4062 30.6226 20.5679 29.4609 22.0048 29.4609C23.4416 29.4609 24.6033 30.6226 24.6033 32.0595ZM23.2643 32.0533C23.2643 31.3563 22.7018 30.7938 22.0048 30.7938C21.3078 30.7938 20.7453 31.3563 20.7453 32.0533C20.7453 32.7504 21.3078 33.3129 22.0048 33.3129C22.7018 33.3129 23.2643 32.7504 23.2643 32.0533Z" fill="#0DB14B"/>
</svg>
