<svg width="40" height="40" viewBox="0 0 40 40" fill="none" xmlns="http://www.w3.org/2000/svg">
<path d="M25.254 28.8648L15.1013 28.8464C13.7166 28.8464 12.8281 27.7129 12.8281 26.3955L12.8404 12.6952C12.8404 11.4147 13.8023 10.373 15.0952 10.373H25.0947C26.3936 10.373 27.3495 11.4085 27.3495 12.6891V26.5119C27.3495 27.7496 26.5345 28.6564 25.2601 28.8586L25.254 28.8648ZM25.0334 27.6516C25.7319 27.6516 26.1669 27.1369 26.1669 26.5058V12.7075C26.1669 12.0029 25.6522 11.5556 24.966 11.5617L14.9726 11.5862C14.4151 11.5862 14.0168 12.1622 14.0168 12.7014V26.5119C14.0168 27.2104 14.5437 27.6638 15.2055 27.6577H25.0395L25.0334 27.6516Z" fill="#0DB14B"/>
<path d="M32.7516 14.65C32.3472 15.661 31.4404 16.2676 30.4662 16.1328C29.443 15.9918 28.7138 15.134 28.6526 14.2088C28.5852 13.1427 29.3511 12.2604 30.2518 12.0705C31.3301 11.8499 32.3105 12.3768 32.6965 13.4429L35.4108 13.4675L35.4231 4.05617C34.3876 3.68241 33.8545 2.7756 33.9893 1.74624C34.1241 0.716876 35.0003 0 36.0297 0C37.059 0 37.8678 0.716876 38.0577 1.65433C38.2722 2.70207 37.6717 3.68854 36.624 4.0623L36.6117 14.0434C36.6117 14.4355 36.3421 14.6684 35.9745 14.6684L32.7578 14.65H32.7516ZM36.8936 2.06485C36.8936 1.5808 36.5014 1.19479 36.0235 1.19479C35.5456 1.19479 35.1535 1.58693 35.1535 2.06485C35.1535 2.54276 35.5456 2.9349 36.0235 2.9349C36.5014 2.9349 36.8936 2.54276 36.8936 2.06485ZM31.5997 14.0679C31.5997 13.5839 31.2076 13.1979 30.7297 13.1979C30.2518 13.1979 29.8596 13.59 29.8596 14.0679C29.8596 14.5458 30.2518 14.938 30.7297 14.938C31.2076 14.938 31.5997 14.5458 31.5997 14.0679Z" fill="#0DB14B"/>
<path d="M29.7438 21.6529C29.3149 21.6529 29.0698 21.4507 29.0392 21.1444C29.0024 20.7522 29.2169 20.4827 29.658 20.4827H35.4972C35.8403 19.4839 36.7717 18.8835 37.7459 19.006C38.7814 19.1408 39.4982 19.9802 39.5534 20.9238C39.6147 21.9961 38.91 22.86 37.9787 23.0622C36.9187 23.295 35.92 22.7742 35.534 21.6774L29.7438 21.6529ZM38.377 21.0647C38.377 20.5807 37.9848 20.1947 37.5069 20.1947C37.029 20.1947 36.6369 20.5868 36.6369 21.0647C36.6369 21.5427 37.029 21.9348 37.5069 21.9348C37.9848 21.9348 38.377 21.5427 38.377 21.0647Z" fill="#0DB14B"/>
<path d="M27.5324 35.6656L27.5569 30.5985C27.5569 30.384 27.6856 30.0225 27.9552 30.0225L34.9279 29.9858C35.2771 28.9442 36.2636 28.3621 37.25 28.5336C38.2365 28.7052 38.9779 29.5691 38.9779 30.5556C38.9779 31.5972 38.2488 32.4489 37.2562 32.6082C36.2636 32.7675 35.2894 32.2099 34.9156 31.1683H28.7456L28.7394 35.6595C29.7443 36.0088 30.3386 36.9401 30.1916 37.9572C30.0506 38.913 29.2357 39.6728 28.237 39.7157C27.2383 39.7586 26.3621 39.0968 26.1477 38.1533C25.9148 37.1178 26.3866 36.0762 27.5385 35.6718L27.5324 35.6656ZM37.7892 30.5679C37.7892 30.0838 37.3971 29.6978 36.9192 29.6978C36.4413 29.6978 36.0491 30.0899 36.0491 30.5679C36.0491 31.0458 36.4413 31.4379 36.9192 31.4379C37.3971 31.4379 37.7892 31.0458 37.7892 30.5679ZM29.0029 37.6508C29.0029 37.1668 28.6108 36.7808 28.1329 36.7808C27.6549 36.7808 27.2628 37.1729 27.2628 37.6508C27.2628 38.1288 27.6549 38.5209 28.1329 38.5209C28.6108 38.5209 29.0029 38.1288 29.0029 37.6508Z" fill="#0DB14B"/>
<path d="M8.65859 35.6726L8.68923 32.0821C8.68923 31.7451 8.91593 31.4449 9.28356 31.4388L14.9941 31.4204C15.3801 30.3543 16.3236 29.8457 17.3591 30.0111C18.315 30.1643 19.0502 31.0528 19.0564 32.027C19.0625 33.0012 18.2966 33.9019 17.3591 34.0734C16.3175 34.2634 15.3739 33.6629 14.9879 32.6458L9.89628 32.6336L9.88402 35.6604C10.8889 36.0157 11.4342 36.9348 11.3178 37.9029C11.1952 38.9323 10.3374 39.6859 9.32645 39.7104C8.31547 39.7349 7.47606 39.0487 7.26161 38.1112C7.02877 37.1064 7.54958 36.0648 8.65859 35.6726ZM17.8493 32.0392C17.8493 31.5552 17.4572 31.1692 16.9793 31.1692C16.5013 31.1692 16.1092 31.5613 16.1092 32.0392C16.1092 32.5171 16.5013 32.9093 16.9793 32.9093C17.4572 32.9093 17.8493 32.5171 17.8493 32.0392ZM10.1475 37.6517C10.1475 37.1676 9.75535 36.7816 9.27744 36.7816C8.79952 36.7816 8.40738 37.1738 8.40738 37.6517C8.40738 38.1296 8.79952 38.5217 9.27744 38.5217C9.75535 38.5217 10.1475 38.1296 10.1475 37.6517Z" fill="#0DB14B"/>
<path d="M10.5468 9.42297L2.00561 9.43522C1.69312 9.43522 1.46642 9.14725 1.46642 8.85927L1.44804 4.79698C0.424805 4.41097 -0.114383 3.51028 0.0204136 2.49317C0.155211 1.47607 1.03752 0.734681 2.05462 0.728554C3.07173 0.722427 3.89277 1.45156 4.08271 2.39514C4.29716 3.43675 3.67832 4.40484 2.65508 4.79698L2.66734 8.26494L10.5897 8.28945C10.8777 8.28945 10.988 8.62644 11.0003 8.80413C11.0125 9.0002 10.9267 9.4291 10.5407 9.4291L10.5468 9.42297ZM2.92468 2.79953C2.92468 2.31548 2.53254 1.92947 2.05462 1.92947C1.57671 1.92947 1.18457 2.32161 1.18457 2.79953C1.18457 3.27745 1.57671 3.66958 2.05462 3.66958C2.53254 3.66958 2.92468 3.27745 2.92468 2.79953Z" fill="#0DB14B"/>
<path d="M20.6878 8.79762C20.6878 9.23877 20.3692 9.43484 20.0873 9.42871C19.8055 9.42259 19.5175 9.22039 19.5114 8.85276L19.4807 4.47798H15.7493C15.3755 5.50121 14.4503 6.06491 13.4087 5.89948C12.4284 5.74017 11.6931 4.8885 11.6993 3.85914C11.7054 2.82978 12.4161 1.99649 13.4332 1.83106C14.4503 1.66562 15.3939 2.23545 15.7432 3.26481L20.026 3.28319C20.3998 3.28319 20.6939 3.52215 20.6939 3.92041V8.80374L20.6878 8.79762ZM14.6342 3.8714C14.6342 3.38735 14.242 3.00134 13.7641 3.00134C13.2862 3.00134 12.894 3.39348 12.894 3.8714C12.894 4.34931 13.2862 4.74145 13.7641 4.74145C14.242 4.74145 14.6342 4.34931 14.6342 3.8714Z" fill="#0DB14B"/>
<path d="M10.3813 15.4346C10.7611 15.4346 10.9817 15.6796 11.0062 15.9799C11.0307 16.3291 10.8102 16.6416 10.3813 16.6416L4.44406 16.6539C4.05805 17.6342 3.16961 18.2224 2.18314 18.0937C1.19667 17.9651 0.400145 17.1011 0.375636 16.0963C0.351127 15.0914 1.03737 14.2275 2.01771 14.0192C2.99805 13.8109 4.01516 14.3072 4.41955 15.4039L10.3813 15.4407V15.4346ZM3.32279 16.0289C3.32279 15.5449 2.93065 15.1588 2.45274 15.1588C1.97482 15.1588 1.58268 15.551 1.58268 16.0289C1.58268 16.5068 1.97482 16.8989 2.45274 16.8989C2.93065 16.8989 3.32279 16.5068 3.32279 16.0289Z" fill="#0DB14B"/>
<path d="M8.53165 21.6053C9.49361 21.8014 11.0499 21.2071 11.007 22.2732C10.9948 22.5979 10.7619 22.8063 10.3882 22.8124L8.53777 22.8308C8.17014 23.7989 7.26945 24.4177 6.2646 24.2768C5.25975 24.1358 4.49386 23.2964 4.46935 22.2732C4.44484 21.25 5.17397 20.3554 6.21559 20.19C7.1898 20.0368 8.15789 20.5698 8.53165 21.6053ZM7.42263 22.2181C7.42263 21.734 7.03049 21.348 6.55258 21.348C6.07466 21.348 5.68252 21.7401 5.68252 22.2181C5.68252 22.696 6.07466 23.0881 6.55258 23.0881C7.03049 23.0881 7.42263 22.696 7.42263 22.2181Z" fill="#0DB14B"/>
</svg>
