<svg width="36" height="38" viewBox="0 0 36 38" fill="none" xmlns="http://www.w3.org/2000/svg">
<path d="M27.9174 11.2362L24.145 11.1751C21.4975 11.1323 19.2842 8.90061 19.2598 6.22872L19.217 1.53303C18.8318 1.42909 18.4955 1.37407 18.1042 1.37407L5.9064 1.38629C3.35068 1.38629 1.38191 3.459 1.34523 5.95358C1.33911 6.38769 1.00895 6.62614 0.703239 6.64448C0.244676 6.66894 -0.00600491 6.33266 0.000109264 5.88021C0.0795935 2.35845 3.02051 0.0350629 6.46279 0.0289487L13.8365 0.00449204C15.7502 0.00449204 17.5967 -0.0505355 19.486 0.224602C20.7272 0.408027 21.8155 1.16618 22.6409 2.08331L27.8012 7.87343C28.7551 8.94341 29.2564 10.2824 29.2564 11.7254V19.417C29.2625 19.8389 29.0424 20.1262 28.6756 20.169C28.3393 20.2057 27.9296 19.9734 27.9296 19.5209L27.9113 11.2362H27.9174ZM27.4161 9.81162C27.2571 9.22466 27.0125 9.09015 26.8046 8.75387L21.5159 2.84147C21.2469 2.53576 20.9717 2.30342 20.5988 2.15057L20.5865 5.99027C20.5865 8.14245 22.3291 9.84831 24.469 9.84219C25.4901 9.84219 26.4378 9.88499 27.4161 9.80551V9.81162Z" fill="#0DB14B"/>
<path d="M20.9655 36.2918C21.4852 36.2918 21.742 36.5853 21.742 36.9583C21.742 37.3007 21.4669 37.6309 21.0328 37.6309L5.90629 37.6186C2.58629 37.6125 0 34.9284 0 31.6267V8.81476C0 8.35008 0.201768 8.07495 0.580846 8.03215C0.92324 7.98935 1.339 8.23391 1.339 8.71082V31.6329C1.34512 34.1213 3.24663 36.249 5.78401 36.2552L20.9655 36.2918Z" fill="#0DB14B"/>
<path d="M25.4451 15.4677L3.95986 15.4799C3.49518 15.4799 3.2445 15.1742 3.23839 14.8318C3.23227 14.4466 3.48907 14.1348 3.95375 14.1348H25.2983C25.7263 14.1348 25.977 14.3977 26.0198 14.734C26.0443 14.9663 25.9281 15.4677 25.4451 15.4677Z" fill="#0DB14B"/>
<path d="M23.672 20.8351H3.97821C3.51353 20.8412 3.2445 20.5661 3.23839 20.2053C3.23228 19.8263 3.48296 19.4961 3.95375 19.4961H23.5925C24.0205 19.4961 24.2711 19.7651 24.3017 20.1014C24.3323 20.4132 24.1305 20.8351 23.672 20.8351Z" fill="#0DB14B"/>
<path d="M15.1939 31.9757C14.8087 32.2509 14.3257 32.2325 13.9038 32.0185C13.6287 31.8779 13.3841 31.5294 13.2496 31.0953C12.5831 31.5783 12.3447 32.0858 11.4826 31.884C11.1647 31.8106 10.8161 31.511 10.6144 31.0525C9.99685 31.4621 9.57497 32.2447 8.60893 31.8106C8.22985 31.6394 7.93026 31.2053 7.86912 30.5817L4.21284 32.6299C3.88879 32.8073 3.51583 32.6727 3.35075 32.4098C3.18566 32.1469 3.20401 31.6884 3.55251 31.4866L7.42278 29.2671C7.82632 29.0348 8.29711 29.0898 8.66396 29.2916C9.03081 29.4934 9.20201 29.8663 9.29984 30.3432C9.7156 30.007 9.98462 29.6279 10.4615 29.5117C11.1035 29.3527 11.6721 29.7685 11.9289 30.3799C12.5098 29.9703 12.9317 29.1999 13.8732 29.5973C14.2829 29.7746 14.5641 30.1659 14.6681 30.6856C15.5241 30.2699 16.4779 28.9614 17.1199 29.6585C17.395 29.958 17.3705 30.4166 17.0159 30.6673L15.2 31.9696L15.1939 31.9757Z" fill="#0DB14B"/>
<path d="M18.0599 26.2101H3.86892C3.45927 26.2101 3.25139 25.8555 3.23916 25.5865C3.22082 25.189 3.48984 24.8711 3.94841 24.8711H17.9743C18.3962 24.8711 18.653 25.134 18.6836 25.4764C18.7141 25.7943 18.5062 26.2101 18.0538 26.2101H18.0599Z" fill="#0DB14B"/>
<path d="M14.7184 10.0865L3.95132 10.1049C3.5111 10.1049 3.26653 9.79306 3.25431 9.4629C3.24208 9.08382 3.5111 8.75977 3.95132 8.75977H14.5655C14.9691 8.75977 15.232 9.01656 15.2748 9.35895C15.3053 9.59129 15.1647 10.0865 14.7184 10.0927V10.0865Z" fill="#0DB14B"/>
<path d="M35.9797 29.5719C35.9797 34.0169 32.3724 37.6243 27.9274 37.6243C23.4824 37.6243 19.875 34.0169 19.875 29.5719C19.875 25.1269 23.4824 21.5195 27.9274 21.5195C32.3724 21.5195 35.9797 25.1269 35.9797 29.5719ZM34.6407 29.5719C34.6407 25.8667 31.6387 22.8646 27.9335 22.8646C24.2283 22.8646 21.2262 25.8667 21.2262 29.5719C21.2262 33.2771 24.2283 36.2791 27.9335 36.2791C31.6387 36.2791 34.6407 33.2771 34.6407 29.5719Z" fill="#0DB14B"/>
<path d="M31.7622 32.4641C32.0495 32.7576 31.9578 33.2345 31.7255 33.4302C31.4259 33.687 31.0162 33.6136 30.7228 33.3201L27.9286 30.532L25.0794 33.369C24.8104 33.638 24.3824 33.6564 24.1256 33.4118C23.8688 33.1673 23.8382 32.7209 24.1439 32.4152L26.9625 29.5782L24.0828 26.6679C23.8199 26.3989 23.8932 26.0137 24.0644 25.7997C24.2356 25.5857 24.7064 25.4451 24.9571 25.6896L27.9225 28.6122L30.79 25.763C31.0529 25.5001 31.4565 25.5184 31.6949 25.708C31.9762 25.9342 32.019 26.4233 31.7377 26.7046L28.8946 29.5721L31.756 32.4702L31.7622 32.4641Z" fill="#0DB14B"/>
</svg>
