<svg width="44" height="44" viewBox="0 0 44 44" fill="none" xmlns="http://www.w3.org/2000/svg">
<path d="M28.4994 38.9412C25.5707 40.6287 22.9722 39.9623 19.9335 39.2469C18.3743 38.8801 15.0849 37.9385 13.6909 38.4949C13.1834 38.6967 12.7249 38.9412 12.2418 39.1919C12.6576 40.537 12.0584 41.8393 10.8233 42.3835C9.91234 42.787 9.14806 43.2456 8.18814 43.6125C7.22821 43.9793 5.76693 43.643 5.27168 42.6342L0.306972 32.5214C-0.322787 31.2374 0.0257205 29.8128 1.2669 29.0607L3.71868 27.8562C4.85592 27.2999 6.15212 27.471 6.99588 28.4677L14.0333 24.5974C15.3234 23.8881 17.5061 23.4601 18.7901 23.7964L24.3479 25.2516C25.4362 25.539 26.4145 26.1259 27.1115 26.9636C28.047 28.0825 28.1815 29.5071 27.4294 30.791C29.4288 30.4425 31.8439 28.6939 33.403 27.5322C34.8154 26.4805 36.1482 25.4717 37.6156 24.4996C39.1748 23.4663 41.1741 23.4051 42.6354 24.6035C43.6993 25.4717 44.0661 26.8841 43.4914 28.1436C43.2713 28.6266 42.9839 29.1219 42.5742 29.4704C39.1258 32.4419 32.5225 36.624 28.4994 38.9351V38.9412ZM38.49 25.7041C35.8303 27.4282 33.7026 29.3481 31.1224 30.8705C29.7895 31.6531 28.4199 32.234 26.8853 32.4358C24.7942 32.7109 20.4104 31.2618 18.2398 30.6382C17.8057 30.5098 17.4878 30.1919 17.5184 29.825C17.5428 29.5193 17.8852 29.0791 18.2704 29.1463C19.0958 29.2808 19.8479 29.5865 20.6733 29.8128C22.0918 30.198 23.4613 30.6626 24.9165 30.8155C25.5463 30.8828 26.0843 30.2224 26.2739 29.8067C26.9403 28.3331 25.3628 27.0675 24.1156 26.7251L20.1841 25.6551C19.3893 25.4411 18.6311 25.221 17.7996 25.1477C16.6135 25.166 15.5007 25.4595 14.4613 26.0342L7.69901 29.7944L11.6121 37.8162C12.3213 37.4983 12.9511 37.1681 13.6603 36.9358C15.8186 36.5995 18.5578 37.3882 20.7161 37.9079C23.3329 38.5438 25.5035 38.9657 27.9675 37.535C32.1496 35.1138 37.151 31.9222 40.9234 28.9323C41.4003 28.5594 41.8222 28.1925 42.1035 27.6606C42.4275 27.0492 42.348 26.3583 41.8467 25.8691C40.9173 24.9642 39.5966 24.9826 38.5022 25.6979L38.49 25.7041ZM7.56449 42.2551C8.55499 41.8883 9.4232 41.3869 10.3403 40.9528C10.7683 40.751 11.0557 40.1518 10.8417 39.7055L6.02372 29.7211C5.72413 29.0974 5.13105 28.8101 4.48907 29.1219L2.10454 30.2836C1.56038 30.5526 1.29747 31.1457 1.57261 31.7082L6.28052 41.4358C6.50674 41.9005 6.94085 42.4813 7.56449 42.249V42.2551Z" fill="#0DB14B"/>
<path d="M6.45077 32.032C6.45077 33.1326 5.55811 34.0191 4.46367 34.0191C3.36923 34.0191 2.47656 33.1265 2.47656 32.032C2.47656 30.9376 3.36923 30.0449 4.46367 30.0449C5.55811 30.0449 6.45077 30.9376 6.45077 32.032ZM4.95892 32.032C4.95892 31.7569 4.73269 31.5307 4.45755 31.5307C4.18242 31.5307 3.95619 31.7569 3.95619 32.032C3.95619 32.3072 4.18242 32.5334 4.45755 32.5334C4.73269 32.5334 4.95892 32.3072 4.95892 32.032Z" fill="#0DB14B"/>
<path d="M34.6248 16.6926C34.2151 21.0703 30.5833 24.2864 26.2912 24.2864C22.0235 24.2864 18.3978 21.052 17.9881 16.6987H12.9623L14.2524 18.0805C14.5153 18.4046 14.3563 18.8203 14.0873 19.0465C13.7632 19.3217 13.3414 19.2361 13.0295 18.9243L10.6389 16.5336C10.321 16.2157 10.2537 15.7449 10.59 15.4086L13.0662 12.9201C13.3658 12.6144 13.7632 12.5839 14.0812 12.8407C15.0839 13.6294 13.3475 14.4793 12.9562 15.1885H17.9698C18.1471 13.4765 18.7707 11.9296 19.8835 10.5784L16.3373 7.0322C16.105 7.71698 16.7347 9.56346 15.4997 9.48398C15.1206 9.45952 14.8026 9.15381 14.8026 8.71971V5.24686C14.8026 4.84332 15.0839 4.46424 15.5119 4.45813L18.9725 4.43367C19.4616 4.43367 19.8346 4.68435 19.8591 5.12457C19.9324 6.35964 18.1226 5.71153 17.3828 5.9561L20.9474 9.49621C22.3108 8.39566 23.8516 7.7659 25.5575 7.58859L25.5391 2.56885L24.194 3.85283C23.8822 4.10962 23.4848 4.01791 23.2463 3.77334C22.9712 3.49209 22.959 3.02741 23.2585 2.72782L25.7409 0.251579C26.065 -0.0724719 26.5113 -0.0908145 26.8415 0.239351L29.3238 2.70948C29.6479 3.02741 29.6479 3.46152 29.3788 3.755C29.1098 4.04848 28.6696 4.12185 28.3394 3.81003L27.0677 2.60554V7.60693C28.7796 7.8087 30.3326 8.40788 31.6594 9.52678L35.2056 5.97444C34.6003 5.83382 34.0439 5.96222 33.457 5.90719C33.0657 5.90719 32.7661 5.61371 32.7233 5.27743C32.6805 4.94115 32.9556 4.47647 33.3714 4.47647L36.9849 4.4459C37.3884 4.4459 37.7858 4.69658 37.7797 5.14292V8.82365C37.7797 9.28833 37.3089 9.54512 36.9054 9.47786C36.5018 9.41061 36.2022 8.9765 36.3612 8.4996C36.2267 8.02881 36.3918 7.57636 36.2756 7.01997L32.7049 10.5601C33.7872 11.9052 34.4536 13.4337 34.6187 15.1763L39.614 15.164L38.3789 13.8495C38.1343 13.501 38.2138 13.0547 38.5256 12.8101C38.8375 12.5655 39.2471 12.6389 39.5528 12.9446L42.0352 15.4208C42.2981 15.6837 42.3348 16.1179 42.0596 16.3869L39.4428 19.0099C39.1554 19.2972 38.7396 19.2361 38.4889 19.0221C38.171 18.7531 38.1404 18.3128 38.4034 17.9827L39.6384 16.6865H34.6064L34.6248 16.6926ZM33.1757 15.9344C33.1757 12.1436 30.1003 9.06821 26.3095 9.06821C22.5187 9.06821 19.4433 12.1436 19.4433 15.9344C19.4433 19.7252 22.5187 22.8006 26.3095 22.8006C30.1003 22.8006 33.1757 19.7252 33.1757 15.9344Z" fill="#0DB14B"/>
<path d="M25.6128 21.0208L25.5334 20.0364C24.4695 19.743 23.6502 18.9175 23.5401 17.8231C23.4912 17.3279 23.8153 16.9732 24.2127 16.9427C24.7874 16.8999 24.9525 17.3095 25.0626 17.8109C25.246 18.6302 26.3099 18.8503 26.9824 18.4957C27.3065 18.3245 27.5021 18.1288 27.551 17.8537C27.6183 17.4807 27.4838 17.1872 27.1903 16.961C26.9274 16.7592 26.6645 16.692 26.3221 16.6859C25.4172 16.6675 24.5367 16.2946 23.9987 15.5792C23.3567 14.7232 23.3934 13.6227 24.0354 12.7973C24.4145 12.3142 24.9342 12.0391 25.5028 11.8312C25.6067 11.7334 25.57 11.4216 25.5578 11.2626C25.5089 10.7551 25.8024 10.3822 26.2854 10.3455C26.6767 10.3149 27.0619 10.694 27.068 11.1709C27.068 11.3543 26.9824 11.7273 27.1292 11.8435C28.1319 12.1736 28.9145 12.9134 29.0551 13.9834C29.1163 14.4664 28.8839 14.8761 28.4376 14.9372C27.9913 14.9984 27.6244 14.7171 27.5816 14.228C27.5449 13.7633 27.2331 13.4698 26.7868 13.3231C26.1325 13.0969 25.1971 13.3414 25.0381 14.1118C24.9158 14.6927 25.5762 15.1879 26.1448 15.1879C27.4104 15.2001 28.6455 15.8482 28.9817 17.1139C29.3425 18.4651 28.3948 19.6757 27.1108 20.0303C26.9518 20.3299 27.2759 21.3143 26.5422 21.4916C26.1509 21.5894 25.6373 21.4916 25.6006 21.0331L25.6128 21.0208Z" fill="#0DB14B"/>
</svg>
