<svg width="41" height="41" viewBox="0 0 41 41" fill="none" xmlns="http://www.w3.org/2000/svg">
<path d="M28.389 8.95788L8.93374 28.4132C8.60969 28.7372 8.12667 28.6455 7.90045 28.3154C3.93846 22.458 4.74554 14.6746 9.66744 9.72216C14.5894 4.76968 22.4338 3.91981 28.3157 7.90013C28.6275 8.10801 28.7559 8.58492 28.389 8.95177V8.95788ZM26.9155 8.56658C21.4495 5.33829 14.7667 6.41439 10.5418 10.7065C6.29854 15.0109 5.43032 21.7059 8.56689 26.9213L26.9155 8.56658Z" fill="#0DB14B"/>
<path d="M11.9065 32.3148C11.4847 32.0336 11.4663 31.5567 11.8148 31.2082L31.2029 11.8201C31.5453 11.4777 32.0344 11.5083 32.279 11.869C36.2409 17.7203 35.4278 25.5159 30.5058 30.4622C25.5839 35.4086 17.8067 36.2768 11.9004 32.321L11.9065 32.3148ZM13.2578 31.6178C18.571 34.7972 25.3027 33.8434 29.5887 29.5329C33.8748 25.2224 34.7735 18.5518 31.6125 13.2631L13.2578 31.6178Z" fill="#0DB14B"/>
<path d="M26.4081 37.7812C26.8239 37.6345 27.1846 37.8424 27.3008 38.1481C27.3864 38.3743 27.3436 38.8268 26.9706 38.9613C24.1092 40.0129 21.0826 40.3736 18.0561 40.0802C9.11721 39.2181 1.87803 32.3702 0.325032 23.737C-1.31357 14.6391 3.35766 5.6696 11.7585 1.81767C12.0887 1.66481 12.4494 1.86047 12.5839 2.10503C12.7613 2.4352 12.6329 2.84485 12.2599 3.02216C4.33593 6.69678 -0.0112477 15.1894 1.66404 23.7798C3.25372 31.9116 10.2544 38.2643 18.7348 38.8268C21.3394 38.998 23.8768 38.6739 26.402 37.7812H26.4081Z" fill="#0DB14B"/>
<path d="M28.9434 36.6615C37.4543 32.0759 41.08 21.8897 37.491 13.0425C33.9081 4.2075 24.2966 -0.5799 14.9847 2.01862C14.6423 2.11645 14.2571 1.93914 14.1593 1.6212C14.0554 1.28492 14.1899 0.881387 14.5323 0.78356C24.5106 -2.05953 34.8374 3.05803 38.6894 12.5105C42.5657 22.0181 38.6282 33.0052 29.4508 37.8477C29.1941 37.9822 28.7966 37.7376 28.711 37.5358C28.6071 37.2791 28.5826 36.8449 28.9373 36.6554L28.9434 36.6615Z" fill="#0DB14B"/>
</svg>
