<svg width="40" height="40" viewBox="0 0 40 40" fill="none" xmlns="http://www.w3.org/2000/svg">
<path d="M20.676 39.3591H0.927247C0.584853 39.3591 0.383086 39.2674 0.218003 39.0962C0.0223495 38.9005 0.040692 38.6499 0.0162353 38.3564C-0.118276 36.73 0.584853 35.232 2.05837 34.425C1.46529 33.5139 1.37358 32.4501 1.8994 31.5024C2.34573 30.7014 3.2384 30.1328 4.29616 30.1328H17.2827C18.3282 30.1328 19.1964 30.7075 19.655 31.533C20.1685 32.4562 20.0952 33.5078 19.4838 34.4188C20.9573 35.2198 21.6421 36.7178 21.5442 38.3503C21.5076 38.9067 21.3486 39.3591 20.6821 39.3591H20.676ZM17.3744 33.9725C18.1142 33.9725 18.4871 33.2572 18.4443 32.7252C18.4015 32.1933 17.9674 31.6675 17.3255 31.6675H4.2717C3.57468 31.6675 3.09778 32.2177 3.09166 32.823C3.09166 33.3244 3.50131 33.9786 4.16776 33.9786H17.3744V33.9725ZM17.7351 35.5316L3.93542 35.5194C2.62699 35.5194 1.56923 36.4671 1.56312 37.8122H19.9851C19.9545 36.5894 19.0497 35.5316 17.7351 35.5316Z" fill="#0DB14B"/>
<path d="M31.3206 37.8239L17.1786 21.6152C16.5733 22.1105 15.8885 22.355 15.1242 22.1961C14.5128 22.0677 13.8953 21.6397 13.5039 20.9732C13.1616 21.2239 12.9231 21.5174 12.5929 21.8415C12.917 23.2661 12.3239 24.6601 11.0827 25.3388C9.85378 26.0174 8.38027 25.779 7.34697 24.7457L0.884294 18.2586C-0.100088 17.2742 -0.240714 15.8068 0.389046 14.6573C1.05549 13.4467 2.39449 12.8108 3.86801 13.1593L13.1432 3.89636C12.8436 2.4473 13.3878 1.07773 14.6534 0.386827C15.919 -0.304075 17.3559 -0.0472794 18.3831 0.979901L24.7968 7.4059C25.8057 8.41473 25.9952 9.88214 25.341 11.0805C24.6868 12.2789 23.2622 12.9148 21.8376 12.5907C21.5135 12.9209 21.22 13.1593 20.9632 13.5078C21.6358 13.8747 22.0516 14.4861 22.1922 15.1098C22.3634 15.8863 22.0821 16.5833 21.6297 17.1763L37.9484 31.4652C39.7765 33.0671 39.7949 35.8307 38.3214 37.6405C36.5483 39.811 33.2221 40.0005 31.3206 37.8239ZM23.6779 8.45753L17.2519 2.02542C16.6283 1.40178 15.6867 1.40178 15.0875 1.95817C14.4883 2.51456 14.3966 3.50505 15.0203 4.1287L21.5441 10.6647C22.1983 11.319 23.1643 11.2639 23.7391 10.6831C24.3566 10.0472 24.3566 9.13009 23.684 8.45753H23.6779ZM13.9564 5.24759L5.25593 13.9481L11.7797 20.4719L20.4802 11.7714L13.9564 5.24759ZM10.6425 21.5052L4.19206 15.0608C3.57453 14.4433 2.6146 14.4494 2.01542 15.0303C1.45291 15.5744 1.3612 16.5649 1.97873 17.1825L8.50255 23.7124C9.16288 24.3727 10.1411 24.3299 10.7403 23.6696C11.2784 23.0765 11.3028 22.1716 10.6364 21.5052H10.6425ZM16.1636 20.4413L20.4741 16.1247C20.7798 15.819 20.7492 15.3727 20.523 15.0975C20.309 14.8346 19.7587 14.6879 19.4653 14.9875L14.9958 19.4569C14.6962 19.7565 14.8429 20.3007 15.1059 20.5147C15.3871 20.747 15.8273 20.7776 16.1697 20.4413H16.1636ZM26.5516 30.0222L30.0122 26.5494L20.5108 18.2708L18.273 20.5086L26.5516 30.0222ZM31.2473 27.5032L27.4932 31.2573L28.5815 32.3456L32.3356 28.5915L31.2473 27.5032ZM32.464 36.8089C33.6624 38.1724 35.6617 38.1174 36.8845 36.9312C38.0646 35.7879 38.2297 33.7641 36.9273 32.6207L33.5034 29.6003L29.5964 33.5256L32.4701 36.8089H32.464Z" fill="#0DB14B"/>
<path d="M11.2529 12.304C10.9289 12.6341 10.452 12.573 10.1952 12.3529C9.88945 12.09 9.83443 11.5641 10.1462 11.2462L13.3745 8.00569C13.6741 7.70609 14.0899 7.68775 14.3773 7.87729C14.7013 8.08517 14.8603 8.67213 14.5485 8.98396L11.2468 12.304H11.2529Z" fill="#0DB14B"/>
<path d="M8.52208 14.7121C8.94418 14.7121 9.28636 14.37 9.28636 13.9479C9.28636 13.5258 8.94418 13.1836 8.52208 13.1836C8.09999 13.1836 7.75781 13.5258 7.75781 13.9479C7.75781 14.37 8.09999 14.7121 8.52208 14.7121Z" fill="#0DB14B"/>
</svg>
