<svg width="63" height="60" viewBox="0 0 63 60" fill="none" xmlns="http://www.w3.org/2000/svg">
<path d="M51.5831 49.8619C40.856 62.3075 21.6518 62.2986 10.9336 49.8619C6.16796 49.7291 2.04898 46.5579 0.587403 42.1643C-0.971611 37.4961 0.640551 32.385 4.61781 29.4442C5.6542 19.9749 11.7042 11.6838 20.5091 7.83057C22.015 3.16239 26.3377 0.017791 31.2362 7.48913e-05C36.1347 -0.0176412 40.5106 3.10924 42.0253 7.83057C50.7504 11.6307 56.8625 19.8864 57.9077 29.4442C61.8495 32.3407 63.4971 37.3987 61.9558 42.1023C60.512 46.5136 56.3664 49.7202 51.5831 49.8619ZM40.1562 11.3029C40.1562 6.39557 36.1701 2.40946 31.2628 2.40946C26.3554 2.40946 22.3693 6.39557 22.3693 11.3029C22.3693 16.2103 26.3554 20.1964 31.2628 20.1964C36.1701 20.1964 40.1562 16.2103 40.1562 11.3029ZM20.0928 13.0922C19.9599 12.2507 19.9688 11.5421 19.9333 10.7714C13.2544 14.2704 8.59506 20.6481 7.26636 27.9915C8.0813 27.7169 8.76337 27.5131 9.53401 27.398C10.9247 21.3834 14.716 16.2191 20.0928 13.0922ZM52.9915 27.4068C53.833 27.5131 54.5151 27.7434 55.2503 27.9826C53.895 20.595 49.2003 14.2349 42.5745 10.7714C42.5922 11.6041 42.5302 12.3216 42.4416 13.1011C47.8007 16.228 51.5919 21.3745 52.9915 27.4157V27.4068ZM50.4758 27.2651C49.094 22.2603 46.0114 18.1945 41.7595 15.5016C39.9968 19.8509 35.8335 22.6146 31.2185 22.6058C26.6034 22.5969 22.5022 19.8243 20.7571 15.5016C16.4787 18.2033 13.3873 22.3312 12.0408 27.274C16.647 27.584 20.5623 30.6666 21.9973 34.9007C23.5563 39.4892 22.077 44.4408 18.3035 47.4437C25.7088 53.8835 36.8788 53.8392 44.2221 47.4437C40.4131 44.4142 38.9604 39.436 40.546 34.8564C41.9987 30.64 45.8874 27.6017 50.4758 27.274V27.2651ZM20.2079 38.5591C20.2079 33.6429 16.2218 29.6568 11.3056 29.6568C6.38941 29.6568 2.4033 33.6429 2.4033 38.5591C2.4033 43.4753 6.38941 47.4614 11.3056 47.4614C16.2218 47.4614 20.2079 43.4753 20.2079 38.5591ZM60.1134 38.5591C60.1134 33.6429 56.1273 29.6656 51.2199 29.6656C46.3126 29.6656 42.3264 33.6517 42.3264 38.5591C42.3264 43.4664 46.3126 47.4525 51.2199 47.4525C56.1273 47.4525 60.1134 43.4664 60.1134 38.5591ZM13.963 49.5785C23.5031 59.2249 39.1376 59.154 48.5802 49.543C47.7298 49.3747 47.0744 49.0913 46.3569 48.7724C37.8797 56.6206 24.6812 56.6472 16.1687 48.7812C15.4157 49.109 14.7248 49.3482 13.963 49.5696V49.5785Z" fill="#0DB14B"/>
<path d="M32.4674 17.4503C32.5294 18.2298 31.9979 18.8144 31.2981 18.8321C30.5983 18.8498 30.0049 18.2386 30.058 17.4768C30.0669 17.3174 30.1023 17.0162 30.0137 16.9011C29.2874 16.6088 28.6761 16.1659 28.251 15.5015C27.8878 14.9257 28.0561 14.1994 28.5876 13.8451C29.1545 13.4642 29.9163 13.6325 30.2972 14.2171C30.492 14.5094 30.8198 14.6511 31.1475 14.6334C31.4753 14.6157 31.7765 14.3942 31.9448 14.0754C32.1396 13.6945 32.0865 13.3047 31.8828 12.9415C31.679 12.5784 31.2981 12.5163 30.8552 12.4455C29.3405 12.1886 28.2775 10.9219 28.0827 9.4869C27.8789 7.95446 28.6496 6.49289 30.0403 5.83739C30.0757 5.55393 30.0669 5.31477 30.058 5.04903C30.0226 4.31381 30.6072 3.72918 31.307 3.75575C32.0068 3.78233 32.5382 4.38467 32.4762 5.12875C32.4674 5.28819 32.432 5.58051 32.5205 5.69566C33.2912 5.99684 33.9555 6.46631 34.3453 7.20153C34.6553 7.78616 34.4162 8.46823 33.8758 8.77826C33.3355 9.08829 32.6268 8.96428 32.2725 8.40622C32.0333 8.04304 31.6436 7.89246 31.183 8.00761C30.6426 8.13162 30.4035 8.77826 30.5009 9.27431C30.6249 9.88551 31.121 10.0538 31.7056 10.1424C33.1937 10.3727 34.2478 11.6571 34.4427 13.0478C34.6642 14.5891 33.9112 16.0507 32.5117 16.7239C32.4497 16.9454 32.4497 17.1668 32.4762 17.4326L32.4674 17.4503Z" fill="#0DB14B"/>
<path d="M52.4421 43.0146L52.4067 44.299C52.389 44.9457 51.7423 45.362 51.1577 45.3266C50.5022 45.2911 50.0062 44.7685 50.015 44.0865C50.015 43.7321 50.0327 43.3955 50.015 43.0501C49.8556 42.9881 49.6961 42.9792 49.519 42.9969C48.7749 43.0766 48.1548 42.5363 48.1371 41.8188C48.1194 41.1013 48.7395 40.5255 49.5278 40.5875C49.6518 40.5964 49.9973 40.6318 50.015 40.4901C50.0504 40.2686 49.7316 40.3395 49.5987 40.3218C48.8369 40.4458 48.1725 39.9232 48.1371 39.2145C48.0928 38.4439 48.704 37.877 49.5633 37.9213L47.1804 35.2461C46.7287 34.7412 46.7198 34.0503 47.1716 33.572C47.6233 33.0936 48.4028 33.0228 48.8723 33.5365L51.2286 36.1142L53.5051 33.5897C53.9657 33.0848 54.6921 33.0671 55.1792 33.4745C55.6664 33.882 55.7727 34.6526 55.3121 35.1664L52.8584 37.9124C53.6557 37.8593 54.2669 38.3553 54.3023 39.0728C54.3377 39.7903 53.7354 40.4104 52.9559 40.3306C52.8141 40.3661 52.4775 40.2598 52.4333 40.4015C52.3801 40.6407 52.7256 40.6052 52.8762 40.5875C53.5848 40.5167 54.2049 40.9507 54.2934 41.6239C54.382 42.2971 53.948 42.8995 53.2482 42.9881C53.0002 43.0146 52.761 42.9881 52.4333 43.0058L52.4421 43.0146Z" fill="#0DB14B"/>
<path d="M12.0585 41.615L10.1717 41.6504C10.8538 42.4742 11.8636 42.9526 12.9354 42.9703C13.6529 42.9791 14.211 43.4929 14.211 44.1927C14.211 44.8925 13.6618 45.4062 12.9354 45.3885C10.4906 45.3442 8.35582 43.8915 7.36372 41.6681C7.27514 41.5707 7.00054 41.615 6.87652 41.6238C6.14131 41.6504 5.57439 41.1189 5.56554 40.428C5.55668 39.7371 6.10588 39.1879 6.84995 39.2056C6.88538 38.7538 6.87652 38.3375 6.85881 37.8858C6.11473 37.9389 5.57439 37.3543 5.56554 36.6811C5.55668 35.9547 6.2476 35.4144 6.92967 35.4852C7.04483 35.4941 7.31943 35.5384 7.36372 35.4409C8.34696 33.2176 10.4817 31.7737 12.9354 31.7294C13.6706 31.7117 14.1933 32.2521 14.2021 32.9341C14.211 33.6162 13.6441 34.1388 12.9266 34.1565C11.837 34.1742 10.8449 34.6437 10.1629 35.4764C10.7475 35.5118 11.279 35.5029 11.8547 35.4941C12.5545 35.4764 13.0949 35.9724 13.1392 36.6279C13.1834 37.2834 12.6608 37.9035 11.9345 37.9035L9.29477 37.9212V39.2233L12.0142 39.241C12.6431 39.241 13.1126 39.7991 13.1392 40.3749C13.1657 40.9506 12.7405 41.615 12.0496 41.6238L12.0585 41.615Z" fill="#0DB14B"/>
</svg>
