<svg width="65" height="58" viewBox="0 0 65 58" fill="none" xmlns="http://www.w3.org/2000/svg">
<path d="M56.1802 39.4939L56.2102 55.4439C56.9402 55.7539 58.4702 55.1239 58.6202 56.4039C58.6902 57.0139 58.3302 57.5839 57.5102 57.5839H1.39016C0.640163 57.5839 0.260163 57.1239 0.250163 56.5639C0.240163 56.0039 0.690163 55.5239 1.35016 55.5439C1.75016 55.5439 2.09016 55.6039 2.56016 55.4539V43.0639C2.56016 42.4939 2.90016 41.9739 3.51016 41.9739H10.6602C11.1302 41.9739 11.6302 42.3939 11.6302 42.8939L11.6602 55.5239H17.3402V33.5539C17.3402 32.8939 17.8302 32.5039 18.4502 32.5039H25.4502C26.0302 32.5139 26.4002 32.9739 26.4002 33.5539V55.5339H32.4502V42.0939C32.4502 41.4039 32.9602 41.0439 33.6102 41.0439H40.4202C41.1602 41.0439 41.5202 41.5839 41.5302 42.2939V55.5339L47.1402 55.5539L47.1802 39.5839C47.1802 39.1339 47.6002 38.7839 48.0102 38.7839H55.4002C55.6702 38.7839 56.1802 39.0539 56.1802 39.5039V39.4939ZM24.4302 34.5039H19.3902V55.5439H24.4302V34.5039ZM54.2002 40.7539H49.1902V55.5539H54.2002V40.7539ZM39.5202 43.0639H34.4602V55.5439H39.5202V43.0639ZM9.69016 43.9939H4.68016V55.5439H9.69016V43.9939Z" fill="#0DB14B"/>
<path d="M57.51 57.8322H1.39C0.45 57.8322 0.01 57.1922 0 56.5622C0 56.2222 0.12 55.9022 0.36 55.6622C0.61 55.4122 0.98 55.2822 1.36 55.2822H1.57C1.82 55.3022 2.05 55.3122 2.31 55.2522V43.0522C2.31 42.2722 2.82 41.7122 3.51 41.7122H10.66C11.23 41.7122 11.88 42.2122 11.88 42.8822L11.91 55.2622H17.09V33.5422C17.09 33.1622 17.23 32.8222 17.5 32.5822C17.74 32.3622 18.08 32.2422 18.45 32.2422H25.46C26.15 32.2522 26.66 32.8022 26.66 33.5422V55.2722H32.21V42.0822C32.21 41.7222 32.33 41.4022 32.57 41.1722C32.82 40.9222 33.2 40.7822 33.63 40.7822H40.44C41.26 40.7822 41.79 41.3722 41.8 42.2822V55.2722L46.91 55.2822L46.95 39.5622C46.95 38.9422 47.52 38.5122 48.03 38.5122H55.42C55.84 38.5122 56.45 38.8922 56.45 39.4822L56.48 55.2522C56.66 55.2922 56.89 55.2922 57.13 55.2922C57.82 55.2922 58.76 55.2922 58.88 56.3722C58.93 56.7722 58.82 57.1322 58.58 57.4022C58.41 57.5922 58.08 57.8322 57.52 57.8322H57.51ZM1.32 55.7922C1.08 55.7922 0.86 55.8722 0.71 56.0222C0.57 56.1622 0.5 56.3522 0.5 56.5522C0.51 57.0322 0.84 57.3222 1.39 57.3222H57.5C57.8 57.3222 58.04 57.2322 58.19 57.0622C58.33 56.9022 58.4 56.6722 58.37 56.4222C58.3 55.8422 57.94 55.7822 57.11 55.7822C56.76 55.7822 56.4 55.7822 56.11 55.6622L55.96 55.6022L55.93 39.4822C55.93 39.2022 55.56 39.0222 55.4 39.0222H48.01C47.74 39.0222 47.43 39.2522 47.43 39.5622L47.39 55.7822L41.29 55.7622V42.2722C41.29 41.9722 41.2 41.2822 40.43 41.2822H33.62C33.32 41.2822 33.08 41.3722 32.92 41.5322C32.78 41.6722 32.71 41.8522 32.71 42.0822V55.7722H26.16V33.5422C26.16 33.1522 25.94 32.7522 25.46 32.7522H18.46V32.7422C18.22 32.7422 18 32.8222 17.85 32.9522C17.69 33.0922 17.61 33.3022 17.61 33.5422V55.7722L11.42 55.7622L11.39 42.8822C11.39 42.5222 10.99 42.2022 10.67 42.2022H3.51C3.03 42.2022 2.82 42.6322 2.82 43.0522V55.6222L2.64 55.6822C2.21 55.8222 1.87 55.8122 1.55 55.7922H1.35H1.33H1.32ZM54.45 55.7922H48.94V40.4922H54.45V55.7922ZM49.44 55.2922H53.95V40.9922H49.44V55.2922ZM39.77 55.7922H34.21V42.8122H39.77V55.7922ZM34.71 55.2922H39.27V43.3122H34.71V55.2922ZM24.68 55.7922H19.14V34.2522H24.68V55.7922ZM19.63 55.2922H24.17V34.7522H19.63V55.2922ZM9.94 55.7922H4.43V43.7422H9.94V55.7922ZM4.93 55.2922H9.44V44.2422H4.93V55.2922Z" fill="#0DB14B"/>
<path d="M10.6692 30.4354C11.6492 32.3254 11.2892 34.3954 9.78918 35.6754C8.20918 37.0154 5.95918 36.9354 4.46918 35.5554C2.97918 34.1754 2.75918 32.0154 3.82918 30.4254C5.00918 28.6754 7.15918 28.0754 9.11918 29.0854L18.0592 21.6554C17.5592 19.9954 18.1892 18.3654 19.3792 17.4054C20.7492 16.3054 22.6092 16.2454 24.0292 17.1354C25.4492 18.0254 26.0792 19.6854 25.7692 21.4854L34.7692 28.8754C36.2692 27.6954 38.0492 27.5554 39.7092 28.5854L48.8692 18.9354C47.4192 16.5054 48.3292 13.6154 50.6192 12.3254C52.9092 11.0354 55.9292 11.8554 57.2092 14.1654C58.4892 16.4754 57.6992 19.4454 55.2992 20.7654C53.6992 21.6454 51.8792 21.5254 50.3092 20.4454L41.1192 30.2354C41.9092 32.0554 41.4692 33.9054 40.1192 35.0754C38.7692 36.2454 36.7292 36.3654 35.2492 35.3554C33.7692 34.3454 33.0992 32.5154 33.7192 30.5854L24.9292 23.3054C23.2292 24.9554 20.8892 24.9954 19.1692 23.4954L10.6692 30.4654V30.4354ZM55.8092 16.7054C55.8092 15.1554 54.5492 13.8954 52.9992 13.8954C51.4492 13.8954 50.1892 15.1554 50.1892 16.7054C50.1892 18.2554 51.4492 19.5154 52.9992 19.5154C54.5492 19.5154 55.8092 18.2554 55.8092 16.7054ZM23.8892 20.5254C23.8892 19.4154 22.9892 18.5254 21.8892 18.5254C20.7892 18.5254 19.8892 19.4254 19.8892 20.5254C19.8892 21.6254 20.7892 22.5254 21.8892 22.5254C22.9892 22.5254 23.8892 21.6254 23.8892 20.5254ZM39.4992 32.1054C39.4992 30.9954 38.5992 30.1054 37.4992 30.1054C36.3992 30.1054 35.4992 31.0054 35.4992 32.1054C35.4992 33.2054 36.3992 34.1054 37.4992 34.1054C38.5992 34.1054 39.4992 33.2054 39.4992 32.1054ZM9.18918 32.6054C9.18918 31.5054 8.29918 30.6054 7.18918 30.6054C6.07918 30.6054 5.18918 31.4954 5.18918 32.6054C5.18918 33.7154 6.07918 34.6054 7.18918 34.6054C8.29918 34.6054 9.18918 33.7154 9.18918 32.6054Z" fill="#0DB14B"/>
<path d="M7.18966 36.8854C6.14966 36.8854 5.11966 36.4954 4.28966 35.7354C2.73966 34.2954 2.45966 32.0054 3.60966 30.2754C4.84966 28.4354 7.06966 27.8354 9.06966 28.7754L17.7597 21.5454C17.3397 19.9354 17.8997 18.2454 19.2097 17.1954C20.6197 16.0654 22.6097 15.9454 24.1497 16.9054C25.6097 17.8254 26.3097 19.4854 26.0297 21.3654L34.7697 28.5454C36.2797 27.4454 38.0397 27.3354 39.6597 28.2554L48.5497 18.8854C47.9197 17.7354 47.7497 16.4354 48.0697 15.1954C48.4097 13.8954 49.2897 12.7654 50.4897 12.0954C51.6797 11.4254 53.0597 11.2554 54.3697 11.6254C55.6797 11.9954 56.7597 12.8454 57.4197 14.0354C58.0797 15.2354 58.2397 16.6154 57.8697 17.9154C57.4897 19.2254 56.6197 20.3054 55.4097 20.9654C53.7797 21.8654 51.9397 21.7754 50.3297 20.7454L41.3997 30.2654C42.1297 32.1054 41.7097 33.9954 40.2697 35.2354C38.8097 36.4954 36.6797 36.6254 35.0997 35.5354C33.4997 34.4454 32.8697 32.5754 33.4197 30.6454L24.9297 23.6054C23.2297 25.1254 20.9097 25.1954 19.1597 23.7854L10.9797 30.4954C11.8997 32.4454 11.5097 34.5354 9.94966 35.8554C9.13966 36.5454 8.16966 36.8854 7.19966 36.8854H7.18966ZM7.16966 28.8354C5.93966 28.8354 4.77966 29.4354 4.03966 30.5554C3.01966 32.0754 3.26966 34.0954 4.63966 35.3654C6.05966 36.6854 8.15966 36.7254 9.62966 35.4754C11.0597 34.2654 11.3797 32.3254 10.4497 30.5454L10.3597 30.3654L19.1797 23.1354L19.3397 23.2754C20.9897 24.7154 23.1697 24.6454 24.7597 23.0954L24.9197 22.9354L34.0097 30.4654L33.9597 30.6254C33.3897 32.4054 33.9397 34.1254 35.3897 35.1154C36.7897 36.0754 38.6697 35.9654 39.9497 34.8454C41.2497 33.7154 41.6097 31.9754 40.8897 30.2954L40.8197 30.1454L40.9297 30.0254L50.2697 20.0754L50.4497 20.1954C51.9397 21.2254 53.6597 21.3354 55.1797 20.5054C56.2697 19.9054 57.0597 18.9254 57.3997 17.7554C57.7397 16.5754 57.5997 15.3354 56.9997 14.2554C56.4097 13.1954 55.4297 12.4254 54.2497 12.0854C53.0697 11.7554 51.8197 11.9054 50.7497 12.5154C49.6697 13.1254 48.8797 14.1454 48.5697 15.3154C48.2597 16.4754 48.4497 17.7054 49.0897 18.7854L49.1897 18.9454L39.7597 28.8854L39.5897 28.7754C38.0297 27.8154 36.3797 27.9154 34.9297 29.0554L34.7697 29.1754L25.4997 21.5654L25.5197 21.4254C25.8197 19.6954 25.2097 18.1654 23.8897 17.3354C22.5297 16.4854 20.7797 16.5854 19.5297 17.5854C18.3397 18.5454 17.8497 20.1054 18.2897 21.5654L18.3397 21.7254L9.14966 29.3754L8.99966 29.2954C8.39966 28.9854 7.77966 28.8354 7.16966 28.8354ZM7.18966 34.8554C5.94966 34.8554 4.93966 33.8454 4.93966 32.6054C4.93966 31.3654 5.94966 30.3554 7.18966 30.3554C8.42966 30.3554 9.43966 31.3654 9.43966 32.6054C9.43966 33.8454 8.42966 34.8554 7.18966 34.8554ZM7.18966 30.8654C6.22966 30.8654 5.43966 31.6454 5.43966 32.6154C5.43966 33.5854 6.21966 34.3654 7.18966 34.3654C8.15966 34.3654 8.93966 33.5854 8.93966 32.6154C8.93966 31.6454 8.15966 30.8654 7.18966 30.8654ZM37.4997 34.3554C36.2597 34.3554 35.2497 33.3454 35.2497 32.1054C35.2497 30.8654 36.2597 29.8554 37.4997 29.8554C38.7397 29.8554 39.7497 30.8654 39.7497 32.1054C39.7497 33.3454 38.7397 34.3554 37.4997 34.3554ZM37.4997 30.3454C36.5297 30.3454 35.7497 31.1354 35.7497 32.0954C35.7497 33.0554 36.5397 33.8454 37.4997 33.8454C38.4597 33.8454 39.2497 33.0554 39.2497 32.0954C39.2497 31.1354 38.4597 30.3454 37.4997 30.3454ZM21.8897 22.7754C20.6497 22.7754 19.6397 21.7654 19.6397 20.5254C19.6397 19.2854 20.6497 18.2754 21.8897 18.2754C23.1297 18.2754 24.1397 19.2854 24.1397 20.5254C24.1397 21.7654 23.1297 22.7754 21.8897 22.7754ZM21.8897 18.7754C20.9197 18.7754 20.1397 19.5654 20.1397 20.5254C20.1397 21.4854 20.9297 22.2754 21.8897 22.2754C22.8497 22.2754 23.6397 21.4854 23.6397 20.5254C23.6397 19.5654 22.8497 18.7754 21.8897 18.7754ZM52.9997 19.7654C51.3097 19.7654 49.9397 18.3854 49.9397 16.7054C49.9397 15.0254 51.3197 13.6354 52.9997 13.6354C54.6797 13.6354 56.0597 15.0154 56.0597 16.7054C56.0597 18.3954 54.6797 19.7654 52.9997 19.7654ZM52.9997 14.1354C51.5897 14.1354 50.4397 15.2854 50.4397 16.7054C50.4397 18.1254 51.5897 19.2654 52.9997 19.2654C54.4097 19.2654 55.5597 18.1154 55.5597 16.7054C55.5597 15.2954 54.4097 14.1354 52.9997 14.1354Z" fill="#0DB14B"/>
<path d="M54.6387 29.3757L56.5287 28.6857C56.4887 28.0257 56.1687 27.4357 55.9187 26.6957C53.2187 27.1757 50.5187 26.8657 48.2287 25.3657C47.7087 25.0257 47.5787 24.3857 47.8887 23.9457C48.1987 23.5057 48.7887 23.3357 49.3387 23.6657C51.9387 25.2357 55.0587 25.3357 57.8187 23.8257C60.1787 22.5357 61.9187 19.9757 62.0587 16.9757C62.1987 13.9757 60.5387 11.0257 58.0687 9.51572C55.3487 7.84572 52.0087 7.84572 49.3187 9.49572C45.9187 11.5857 44.6587 15.7157 45.9587 19.4157C46.1687 20.0057 45.7687 20.5657 45.2687 20.7257C44.7287 20.9057 44.1887 20.4957 43.9587 19.8557C42.1087 14.5857 44.9287 8.91572 49.9987 6.93572C55.0687 4.95572 61.0687 7.45572 63.2287 12.5757C65.3887 17.6957 63.0787 23.6657 57.8787 26.0357C58.0787 26.8157 58.2887 27.3757 58.5687 28.0257C59.4687 27.8757 61.2387 26.6657 61.6787 28.0557L64.4587 36.8657C65.0687 38.7957 63.8087 40.7157 62.0487 41.4157C60.2887 42.1157 57.9987 41.3457 57.3087 39.3757L54.1787 30.4757C54.0287 30.0657 54.2187 29.5257 54.6587 29.3657L54.6387 29.3757ZM62.5587 37.3157L60.0687 29.7557C58.7687 30.0257 57.6987 30.4957 56.4487 30.8957L58.9887 38.2957C59.3387 39.3257 60.3387 39.8557 61.3287 39.5457C62.1187 39.2957 62.9187 38.3957 62.5587 37.3157Z" fill="#0DB14B"/>
<path d="M60.6892 41.9346C60.1092 41.9346 59.5292 41.8146 58.9992 41.5646C58.0792 41.1446 57.3892 40.4046 57.0692 39.4746L53.9392 30.5746C53.7592 30.0646 53.9692 29.3646 54.5692 29.1446L56.2792 28.5246C56.2292 28.1646 56.0892 27.8146 55.9392 27.4246C55.8892 27.2846 55.8292 27.1346 55.7692 26.9846C52.8292 27.4546 50.2492 26.9846 48.0992 25.5846C47.7792 25.3746 47.5692 25.0646 47.4992 24.7046C47.4392 24.3846 47.4992 24.0646 47.6892 23.8046C48.1092 23.2246 48.8392 23.0746 49.4692 23.4546C52.0392 25.0046 55.0392 25.0646 57.6992 23.6146C60.0992 22.3046 61.6792 19.7546 61.8092 16.9746C61.9492 14.0546 60.4592 11.2846 57.9392 9.73457C55.3092 8.11457 52.0592 8.11457 49.4492 9.71457C46.2392 11.6946 44.8992 15.6546 46.1892 19.3346C46.2992 19.6446 46.2792 19.9746 46.1292 20.2746C45.9692 20.5946 45.6792 20.8546 45.3392 20.9646C44.6992 21.1846 43.9992 20.7446 43.7192 19.9446C41.8492 14.6046 44.5592 8.79457 49.9092 6.71457C55.2592 4.63457 61.2092 7.16457 63.4592 12.4846C65.6692 17.7346 63.3492 23.7046 58.1692 26.1746C58.3292 26.7746 58.5092 27.2446 58.7192 27.7446C58.8992 27.6946 59.0992 27.6146 59.3192 27.5346C59.9992 27.2746 60.7692 26.9846 61.3392 27.2646C61.6092 27.3946 61.7992 27.6346 61.9092 27.9846L64.6892 36.7946C65.3692 38.9346 63.9192 40.9446 62.1292 41.6446C61.6692 41.8246 61.1792 41.9146 60.6892 41.9146V41.9346ZM54.7292 29.6146C54.4192 29.7246 54.2992 30.1246 54.3992 30.4046L57.5292 39.3046C57.8092 40.1046 58.3992 40.7446 59.1992 41.1046C60.0592 41.4946 61.0892 41.5346 61.9492 41.1946C63.5192 40.5746 64.7992 38.8146 64.2092 36.9546L61.4292 28.1446C61.3592 27.9346 61.2592 27.7946 61.1092 27.7246C60.7292 27.5446 60.0692 27.7946 59.4792 28.0146C59.1592 28.1346 58.8492 28.2546 58.5892 28.2946L58.3992 28.3246L58.3192 28.1446C58.0392 27.4946 57.8192 26.9246 57.6092 26.1146L57.5592 25.9146L57.7492 25.8246C62.8192 23.5246 65.1092 17.7546 62.9792 12.6946C60.8392 7.62457 55.1692 5.20457 50.0792 7.19457C44.9892 9.17457 42.3992 14.7146 44.1792 19.7946C44.3392 20.2446 44.7392 20.6546 45.1692 20.5046C45.3892 20.4346 45.5692 20.2646 45.6692 20.0646C45.7292 19.9446 45.7892 19.7446 45.6992 19.5046C44.3292 15.5946 45.7592 11.3946 49.1692 9.29457C51.9392 7.58457 55.3892 7.59457 58.1792 9.31457C60.8592 10.9546 62.4292 13.9046 62.2892 17.0046C62.1492 19.9646 60.4792 22.6646 57.9192 24.0646C55.0992 25.6046 51.9192 25.5446 49.1892 23.8946C48.7192 23.6146 48.2892 23.7946 48.0692 24.1046C47.9692 24.2546 47.9292 24.4346 47.9592 24.6146C47.9992 24.8346 48.1392 25.0346 48.3392 25.1646C50.4292 26.5346 52.9592 26.9646 55.8492 26.4546L56.0592 26.4146L56.1292 26.6146C56.1992 26.8346 56.2792 27.0346 56.3592 27.2346C56.5492 27.7146 56.7292 28.1746 56.7592 28.6746V28.8646L54.6992 29.6146H54.7292ZM60.7692 39.8846C59.8792 39.8846 59.0792 39.3146 58.7592 38.3846L56.1392 30.7446L56.3792 30.6646C56.7592 30.5446 57.1292 30.4046 57.4792 30.2846C58.3092 29.9846 59.0992 29.7046 60.0192 29.5146L60.2392 29.4746L62.7992 37.2446C62.9692 37.7446 62.9292 38.2546 62.6892 38.7146C62.4292 39.2146 61.9392 39.6346 61.4092 39.7946C61.1992 39.8646 60.9792 39.8946 60.7692 39.8946V39.8846ZM56.7692 31.0546L59.2292 38.2146C59.5392 39.1146 60.3892 39.5746 61.2592 39.3046C61.6692 39.1746 62.0492 38.8546 62.2492 38.4746C62.4192 38.1346 62.4492 37.7646 62.3292 37.3946L59.9092 30.0446C59.1092 30.2246 58.3992 30.4746 57.6592 30.7446C57.3692 30.8446 57.0792 30.9546 56.7792 31.0546H56.7692Z" fill="#0DB14B"/>
<path d="M17.6098 14.923C17.6698 15.393 17.3398 15.803 16.9098 15.703L13.8598 15.013C10.2498 16.223 6.35982 14.613 4.65982 11.293C2.95982 7.973 3.95982 3.783 7.04982 1.613C10.1398 -0.557 14.3798 -0.127 16.9498 2.633C19.5198 5.393 19.7298 9.643 17.2998 12.623L17.6098 14.923ZM15.9798 12.133C17.3198 10.553 17.8898 8.623 17.5098 6.633C16.8198 3.013 13.2198 0.893 9.72982 1.853C6.23982 2.813 4.41982 6.413 5.51982 9.773C6.61982 13.133 10.3098 14.903 13.7198 13.613L16.1398 14.073L15.9898 12.133H15.9798Z" fill="#0DB14B"/>
<path d="M17.0401 15.9733C16.9801 15.9733 16.9201 15.9733 16.8601 15.9533L13.8801 15.2833C10.1701 16.4933 6.21006 14.8733 4.45006 11.4133C2.68006 7.94329 3.74006 3.63329 6.92006 1.41329C10.1101 -0.816707 14.5101 -0.366707 17.1501 2.47329C19.7901 5.31329 19.9701 9.69329 17.5701 12.7033L17.8701 14.9033C17.9201 15.2333 17.8101 15.5633 17.5801 15.7733C17.4301 15.9133 17.2401 15.9833 17.0501 15.9833L17.0401 15.9733ZM13.8501 14.7633H13.9201L16.9701 15.4633C17.0701 15.4833 17.1601 15.4633 17.2301 15.3933C17.3401 15.2933 17.3901 15.1333 17.3701 14.9633L17.0501 12.5533L17.1201 12.4733C19.4301 9.65329 19.2901 5.49329 16.7901 2.81329C14.3001 0.153292 10.1801 -0.276707 7.20006 1.81329C4.22006 3.89329 3.23006 7.92329 4.89006 11.1833C6.55006 14.4433 10.2901 15.9533 13.7801 14.7833L13.8501 14.7633ZM16.4101 14.3733L13.7401 13.8633C12.0401 14.4933 10.2201 14.4133 8.62006 13.6533C7.02006 12.8933 5.84006 11.5433 5.28006 9.85329C4.73006 8.18329 4.89006 6.32329 5.73006 4.76329C6.57006 3.19329 7.97006 2.08329 9.66006 1.61329C11.4401 1.12329 13.3301 1.39329 14.8701 2.35329C16.3901 3.30329 17.4101 4.80329 17.7501 6.58329C18.1301 8.58329 17.5901 10.5733 16.2301 12.2133L16.4001 14.3733H16.4101ZM11.4201 1.87329C10.8801 1.87329 10.3301 1.94329 9.79006 2.09329C8.23006 2.52329 6.94006 3.55329 6.17006 4.99329C5.39006 6.45329 5.24006 8.12329 5.75006 9.69329C6.26006 11.2533 7.35006 12.4933 8.83006 13.2033C10.3301 13.9133 12.0301 13.9833 13.6201 13.3733L13.6901 13.3433L15.8601 13.7533L15.7201 12.0433L15.7901 11.9633C17.1001 10.4233 17.6201 8.54329 17.2601 6.67329C16.9501 5.03329 16.0101 3.65329 14.6001 2.77329C13.6401 2.17329 12.5401 1.87329 11.4101 1.87329H11.4201Z" fill="#0DB14B"/>
<path d="M12.1904 11.7033C11.9904 11.8133 12.1704 12.4433 11.8604 12.5333C11.6004 12.6133 11.3904 12.6933 11.1204 12.6033C10.7404 12.4733 10.8204 11.9733 10.6904 11.7433C9.81041 11.3033 9.09041 10.5833 9.08041 9.52333C9.08041 9.11333 9.33041 8.86334 9.65041 8.82334C10.9204 8.65334 10.0004 10.4133 11.3804 10.4533C11.8704 10.4633 12.3104 10.0833 12.3704 9.58334C12.4304 9.04334 11.9904 8.55333 11.3904 8.52333C10.1804 8.47333 9.29041 7.62334 9.09041 6.49334C8.89041 5.36334 9.69041 4.35334 10.7004 3.91334C10.7804 3.56334 10.7504 3.07334 11.1404 2.98334C11.5004 2.90334 11.9504 2.93334 12.0804 3.41334C12.1304 3.59334 12.0804 3.97334 12.2704 4.06334C13.2104 4.48334 13.8804 5.35334 13.7204 6.43334C13.6704 6.79334 13.2904 6.94333 13.0004 6.92333C12.0804 6.86333 12.7104 5.63334 11.7204 5.33334C11.3204 5.21334 10.8304 5.31334 10.5704 5.70334C10.3904 5.97334 10.4504 6.38334 10.6304 6.64334C10.7704 6.84334 11.0904 7.05334 11.4704 7.07334C12.6204 7.11334 13.5004 7.94334 13.7004 8.94334C13.9504 10.1833 13.2804 11.0733 12.1804 11.6933L12.1904 11.7033Z" fill="#0DB14B"/>
<path d="M11.3401 12.8934C11.2401 12.8934 11.1401 12.8834 11.0301 12.8434C10.6401 12.7134 10.5701 12.3434 10.5201 12.0934C10.5101 12.0334 10.5001 11.9734 10.4801 11.9234C9.41011 11.3634 8.82011 10.5134 8.82011 9.52341C8.82011 9.02341 9.13011 8.63341 9.61011 8.57341C10.4701 8.46341 10.6101 9.07341 10.7101 9.48341C10.8201 9.94341 10.9001 10.1834 11.3901 10.2034C11.7501 10.1834 12.0801 9.92341 12.1301 9.55341C12.1501 9.37341 12.0901 9.19341 11.9701 9.04341C11.8301 8.87341 11.6201 8.78341 11.3901 8.77341C10.1101 8.72341 9.09012 7.82341 8.85012 6.53341C8.62012 5.26341 9.51011 4.21341 10.4801 3.74341C10.4801 3.70341 10.4901 3.67341 10.5001 3.63341C10.5501 3.32341 10.6201 2.85341 11.0901 2.74341C11.7201 2.60341 12.1801 2.83341 12.3201 3.35341C12.3401 3.41341 12.3501 3.50341 12.3501 3.60341C12.3501 3.68341 12.3701 3.82341 12.3901 3.86341C13.5001 4.35341 14.1201 5.39341 13.9601 6.48341C13.8901 6.97341 13.4001 7.22341 12.9701 7.18341C12.3301 7.14341 12.2201 6.64341 12.1301 6.29341C12.0401 5.92341 11.9701 5.68341 11.6301 5.58341C11.3501 5.49341 10.9701 5.54341 10.7701 5.85341C10.6501 6.03341 10.7101 6.33341 10.8301 6.52341C10.9301 6.67341 11.1901 6.83341 11.4701 6.84341C12.6801 6.88341 13.7001 7.74341 13.9401 8.91341C14.1901 10.1234 13.6301 11.1634 12.3301 11.9134C12.3201 11.9534 12.3101 12.0334 12.3101 12.0934C12.2901 12.3134 12.2501 12.6934 11.9101 12.7934L11.8201 12.8234C11.6601 12.8734 11.5101 12.9134 11.3301 12.9134L11.3401 12.8934ZM9.83012 9.05341C9.83012 9.05341 9.74011 9.05341 9.69011 9.06341C9.46011 9.09341 9.33012 9.26341 9.33012 9.51341C9.33012 10.5634 10.1301 11.1834 10.8001 11.5134L10.8701 11.5434L10.9101 11.6034C10.9801 11.7234 11.0101 11.8534 11.0301 11.9834C11.0701 12.2034 11.1101 12.3134 11.2101 12.3534C11.3601 12.4034 11.4801 12.3734 11.7001 12.3034L11.7901 12.2734C11.7901 12.2734 11.8201 12.0934 11.8301 12.0134C11.8501 11.8134 11.8701 11.5834 12.0701 11.4634C13.2201 10.8134 13.6801 10.0034 13.4701 8.98341C13.2801 8.03341 12.4501 7.34341 11.4701 7.31341C10.9901 7.29341 10.6101 7.03341 10.4301 6.77341C10.2101 6.45341 10.1201 5.92341 10.3601 5.55341C10.6601 5.10341 11.2301 4.91341 11.7901 5.08341C12.4301 5.28341 12.5501 5.79341 12.6301 6.16341C12.7201 6.55341 12.7701 6.65341 13.0101 6.67341C13.1701 6.67341 13.4301 6.62341 13.4701 6.40341C13.6301 5.35341 12.9001 4.62341 12.1601 4.29341C11.8901 4.17341 11.8601 3.85341 11.8501 3.63341C11.8501 3.57341 11.8501 3.52341 11.8301 3.47341C11.8101 3.38341 11.7201 3.10341 11.1801 3.22341C11.0701 3.24341 11.0301 3.37341 10.9801 3.69341C10.9701 3.78341 10.9501 3.87341 10.9301 3.96341L10.9001 4.08341L10.7901 4.13341C9.95012 4.50341 9.14012 5.37341 9.33012 6.43341C9.52012 7.48341 10.3501 8.21341 11.3901 8.25341C11.7601 8.26341 12.1001 8.43341 12.3301 8.70341C12.5501 8.95341 12.6401 9.27341 12.6101 9.59341C12.5401 10.2134 12.0101 10.6834 11.4001 10.6834H11.3701C10.4801 10.6534 10.3201 10.0134 10.2201 9.58341C10.1301 9.19341 10.0801 9.04341 9.82011 9.04341L9.83012 9.05341Z" fill="#0DB14B"/>
</svg>
