<svg width="66" height="52" viewBox="0 0 66 52" fill="none" xmlns="http://www.w3.org/2000/svg">
<path d="M65.06 42.47C65.06 46.12 62.36 49.16 58.75 49.17L40.9 49.25L34.89 51.39C33.32 51.95 31.71 51.94 30.13 51.39L24.13 49.25L6.25003 49.17C2.91003 49.16 2.81037e-05 46.31 2.81037e-05 42.92V6.32C-0.0099719 3.1 2.65003 0.11 5.88003 0.1L23.44 0.02C24.28 0.02 25.03 0.19 25.78 0.46L31.4 2.44C32.08 2.68 32.93 2.68 33.61 2.44L39.3 0.42C40.04 0.15 40.77 0 41.59 0L58.97 0.06C62.28 0.07 65.02 3 65.02 6.32L65.05 42.47H65.06ZM25.58 46.98L31.18 48.96V5.12L24.02 2.6L6.45003 2.58C4.14003 2.72 2.57003 4.4 2.57003 6.71V42.53C2.57003 44.9 4.32003 46.58 6.64003 46.58H23.07C23.93 46.58 24.73 46.67 25.58 46.97V46.98ZM58.48 46.57C60.82 46.57 62.45 44.8 62.45 42.53V6.71C62.45 4.41 60.86 2.71 58.57 2.6L40.86 2.63L33.81 5.13V48.98L38.95 47.14C40 46.76 40.99 46.58 42.14 46.58H58.48V46.57Z" fill="#0DB14B"/>
<path d="M56.4402 21.8378H40.6502C39.8802 21.8578 39.3702 21.2278 39.3302 20.6378C39.2902 19.9578 39.8402 19.2578 40.6502 19.2578H56.3302C57.1102 19.2578 57.6002 19.8278 57.6402 20.4578C57.6702 21.0278 57.3202 21.8278 56.4302 21.8278L56.4402 21.8378Z" fill="#0DB14B"/>
<path d="M56.4402 38.1073H40.6502C39.8802 38.1273 39.3702 37.4973 39.3302 36.9073C39.2902 36.2273 39.8402 35.5273 40.6502 35.5273H56.3302C57.1102 35.5273 57.6002 36.0973 57.6402 36.7273C57.6702 37.2973 57.3202 38.0973 56.4302 38.0973L56.4402 38.1073Z" fill="#0DB14B"/>
<path d="M56.3505 30.0592H40.6605C39.8805 30.0592 39.3605 29.4392 39.3405 28.7792C39.3205 28.2492 39.7905 27.4692 40.5505 27.4692L56.3105 27.4492C57.1005 27.4492 57.6005 28.0392 57.6505 28.6192C57.7105 29.3592 57.2205 30.0592 56.3505 30.0592Z" fill="#0DB14B"/>
<path d="M47.3506 13.6286L40.6906 13.6486C39.9406 13.6486 39.4006 13.0886 39.3506 12.4886C39.2806 11.7486 39.8406 11.0586 40.6506 11.0586H47.3206C48.0606 11.0686 48.5506 11.6886 48.5806 12.3186C48.6006 12.8986 48.1706 13.6186 47.3606 13.6186L47.3506 13.6286Z" fill="#0DB14B"/>
<path d="M17.3896 24.0813L12.3296 20.1213L7.39955 24.8213C6.81955 25.3813 6.00955 25.3313 5.48955 24.7413C5.04955 24.2313 5.05955 23.4613 5.64955 22.8913L11.3096 17.4713C11.8296 17.0313 12.5296 16.9713 13.0696 17.3913L18.2596 21.4513L23.6996 17.2113C22.6396 16.8513 20.3596 17.4113 20.3996 15.6313C20.4196 14.8313 21.0796 14.3113 21.9596 14.3813L27.3196 14.7813C28.2296 14.8513 28.6896 15.6413 28.6196 16.4913L28.1896 21.4513C28.1296 22.1913 27.4296 22.5913 26.8696 22.5613C24.9396 22.4813 25.9596 20.0713 25.6896 19.0013L19.0596 24.1313C18.5596 24.5213 17.9496 24.5313 17.3896 24.0913V24.0813Z" fill="#0DB14B"/>
<path d="M27.15 35.91C27.15 37.87 24.78 37.37 22.52 37.37C21.68 37.37 21.04 36.76 21.04 35.91V25.93C21.05 25.12 21.76 24.58 22.51 24.59L25.86 24.61C26.59 24.61 27.14 25.18 27.14 25.92V35.91H27.15ZM25 35.16L25.05 26.82C24.61 26.67 23.22 26.6 23.22 26.88L23.18 35.24C23.44 35.43 24.99 35.5 24.99 35.15L25 35.16Z" fill="#0DB14B"/>
<path d="M18.6495 37.4914H15.1595C14.3795 37.4914 13.7695 36.9014 13.7695 36.0914V27.7714C13.7695 26.9914 14.3795 26.4514 15.1195 26.4414H18.4695C19.2795 26.4414 19.8795 26.9814 19.8795 27.8114V36.1914C19.7795 36.8614 19.3895 37.3814 18.6495 37.4914ZM17.9895 28.6114H15.7895V35.2814H17.9895V28.6114Z" fill="#0DB14B"/>
<path d="M11.4391 37.4925H7.94914C7.15914 37.4825 6.61914 36.8625 6.61914 36.0725V30.1725C6.61914 29.3725 7.13914 28.8025 7.95914 28.7725C9.09914 28.7325 10.2191 28.7425 11.3591 28.7725C12.1591 28.7925 12.7291 29.3625 12.7291 30.1725V36.0925C12.7291 36.8325 12.2191 37.3925 11.4391 37.4925ZM10.8991 30.6725H8.37914V35.5825H10.8991V30.6725Z" fill="#0DB14B"/>
</svg>
