<svg width="62" height="54" viewBox="0 0 62 54" fill="none" xmlns="http://www.w3.org/2000/svg">
<path d="M61.06 10.7408C61.06 7.8908 58.88 5.5908 55.98 5.3908C55.46 5.3508 54.96 5.3608 54.48 5.3708C53.92 5.3708 53.4 5.3908 52.85 5.3408C52.85 5.1608 52.85 4.9908 52.85 4.8308C52.85 4.3508 52.85 3.9308 52.77 3.4808C52.32 1.1608 50.16 -0.329198 47.85 0.0708018C45.64 0.460802 44.1 2.6108 44.41 4.8708C44.43 5.0208 44.41 5.2508 44.38 5.3608H34.74C34.71 5.2508 34.7 5.0308 34.72 4.9108C34.89 3.6408 34.5 2.3708 33.66 1.4308C32.84 0.520802 31.67 0.0108018 30.43 0.0208018C29.23 0.0408018 28.1 0.580802 27.31 1.4808C26.51 2.4108 26.14 3.6508 26.31 4.8908C26.33 5.0108 26.31 5.2308 26.29 5.3408H16.67L16.61 3.6408C16.56 1.4208 14.34 -0.0391982 12.38 0.000801763C10.13 0.0508018 8.31 1.7308 8.24 3.8208L8.19 5.3208L4.96 5.3908C2.18 5.4608 0 7.8108 0 10.7408V48.4008C0 49.8208 0.53 51.1708 1.5 52.1808C2.49 53.2208 3.82 53.7908 5.26 53.7908H55.8C57.23 53.7908 58.56 53.2208 59.55 52.1808C60.52 51.1608 61.05 49.8208 61.05 48.3908V10.7408H61.06ZM48.66 10.7508C48.19 10.7808 47.68 10.5808 47.32 10.2408C47.1 10.0308 46.83 9.6808 46.82 9.1608C46.77 7.5908 46.77 5.9508 46.82 4.0108C46.83 3.4808 47.11 3.1208 47.33 2.9008C47.68 2.5708 48.15 2.3808 48.61 2.3808C48.63 2.3808 48.65 2.3808 48.67 2.3808C49.52 2.4108 50.44 3.1008 50.44 4.1608V8.9208C50.44 10.0608 49.52 10.7108 48.66 10.7408V10.7508ZM12.05 13.1308C14.29 13.3308 16.3 11.7708 16.63 9.5508C16.68 9.2208 16.67 8.9108 16.66 8.6108C16.66 8.3208 16.65 8.0508 16.68 7.7708H26.28C26.34 8.0008 26.34 8.2108 26.31 8.4708C26.2 9.6908 26.58 10.8508 27.38 11.7408C28.17 12.6208 29.27 13.1108 30.46 13.1308C31.65 13.1308 32.81 12.6608 33.62 11.7908C34.45 10.9008 34.85 9.7208 34.74 8.4708C34.72 8.2308 34.72 8.0108 34.77 7.7808H44.36C44.42 8.0608 44.41 8.3508 44.4 8.6508C44.4 8.9408 44.38 9.2408 44.43 9.5508C44.73 11.6108 46.52 13.1508 48.6 13.1508C48.63 13.1508 48.65 13.1508 48.68 13.1508C50.91 13.1108 52.73 11.4408 52.82 9.3608L52.89 7.7908L55.78 7.7708C57.41 7.8608 58.64 9.0608 58.64 10.5608L58.66 17.4408H2.4V10.7208C2.4 9.1708 3.56 7.9308 5.13 7.7808H8.19C8.22 8.0208 8.22 8.2408 8.21 8.4808C8.21 8.6008 8.21 8.7208 8.21 8.8408C8.23 11.1208 9.85 12.9208 12.06 13.1408L12.05 13.1308ZM32.33 9.1008C32.3 10.0908 31.42 10.7108 30.58 10.7308C29.7 10.7808 28.78 10.1308 28.74 9.1608C28.66 7.2708 28.69 5.4908 28.74 4.0008C28.77 3.0808 29.65 2.4308 30.47 2.4008C30.49 2.4008 30.51 2.4008 30.53 2.4008C30.99 2.4008 31.47 2.5908 31.82 2.9108C32.05 3.1208 32.32 3.4808 32.34 4.0008C32.4 5.5708 32.4 7.1408 32.34 9.0908L32.33 9.1008ZM13.77 10.2208C13.42 10.5608 12.89 10.7708 12.4 10.7508C11.55 10.7208 10.62 10.0508 10.62 9.0008V4.1708C10.62 3.1108 11.54 2.4208 12.39 2.3908C12.41 2.3908 12.43 2.3908 12.44 2.3908C12.91 2.3908 13.41 2.5908 13.76 2.9308C13.98 3.1408 14.24 3.5008 14.24 4.0108V9.1008C14.24 9.6408 13.98 10.0108 13.76 10.2208H13.77ZM58.67 48.3908C58.67 50.0108 57.57 51.2008 55.86 51.4308H5.29C3.56 51.2808 2.39 50.0608 2.39 48.4008V19.8508H58.65L58.67 48.4008V48.3908Z" fill="#0DB14B"/>
<path d="M15.3799 44.9323L18.8299 44.9723L18.8999 48.5923C18.8999 48.8623 19.0199 49.1123 19.2199 49.3023C19.4499 49.5123 19.7599 49.6423 20.0799 49.6423C20.0999 49.6423 20.1099 49.6423 20.1299 49.6423C20.6499 49.6223 21.2199 49.1923 21.2299 48.5323L21.2699 44.9623L45.6599 44.9423C46.0099 44.9423 46.3199 44.8223 46.5399 44.5923C46.7599 44.3623 46.8899 44.0523 46.8799 43.7223C46.8799 43.4023 46.7699 43.1523 46.5599 42.9523C46.0299 42.4523 44.9499 42.5023 43.9199 42.5523C43.3799 42.5723 42.8599 42.6023 42.4699 42.5523V30.5323C42.4699 29.7023 41.9899 29.1423 41.2799 29.1423C40.9799 29.1423 40.6699 29.2723 40.4499 29.4923C40.2199 29.7223 40.0899 30.0323 40.0899 30.3723L40.0599 42.5523C39.6799 42.5523 39.3199 42.5523 38.9699 42.5623C38.2499 42.5723 37.5699 42.5923 36.8799 42.5123V32.4123C36.8499 31.6323 36.3299 31.1223 35.6099 31.1323C35.0799 31.1523 34.4999 31.6323 34.4999 32.3123L34.4699 42.5423C33.3299 42.5823 32.3499 42.6023 31.2999 42.5423L31.2699 35.0423C31.2699 34.3823 30.6599 33.9423 30.0899 33.9423C29.5199 33.9423 28.9199 34.3223 28.9099 35.0323L28.8899 42.5323L25.6999 42.5623L25.6699 37.2523C25.6699 36.4223 25.2799 35.9123 24.6099 35.8323C24.2699 35.7923 23.8999 35.9123 23.6399 36.1323C23.4099 36.3423 23.2899 36.6123 23.2799 36.9223L23.2499 42.5323C22.4799 42.6123 21.8799 42.6123 21.2499 42.5323V22.9923C21.2499 22.2323 20.7799 21.6723 20.1099 21.6523C19.7699 21.6523 19.4399 21.7723 19.1999 21.9923C18.9799 22.2023 18.8599 22.4923 18.8599 22.8123L18.8399 42.5323L15.3999 42.5823C14.7199 42.5923 14.1899 43.0923 14.1699 43.7323C14.1699 44.0523 14.2799 44.3623 14.4899 44.5823C14.7099 44.8123 15.0199 44.9423 15.3699 44.9523L15.3799 44.9323Z" fill="#0DB14B"/>
<path d="M24.4602 32.4394C24.7802 32.4394 25.1102 32.3094 25.3602 32.0494L30.2502 27.0894L35.0202 30.3694C35.5002 30.6994 36.1802 30.5994 36.6002 30.1394L40.7402 25.7494C40.9002 26.3294 41.2702 26.6794 41.8102 26.7294C42.1402 26.7594 42.4902 26.6394 42.7502 26.3994C42.9802 26.1894 43.0902 25.9294 43.1002 25.6394V22.7994C43.1102 22.1394 42.5902 21.6294 41.9202 21.6194H39.3202V21.6094C38.9002 21.6094 38.5402 21.7594 38.3102 22.0194C38.0802 22.2794 37.9802 22.6494 38.0302 23.0594C38.0902 23.5194 38.4302 23.8294 39.0502 23.9994L35.5402 27.8094L30.7602 24.5394C30.3602 24.2694 29.7102 24.2394 29.3102 24.6594L23.6202 30.4794C23.4102 30.6994 23.3002 30.9894 23.3102 31.2994C23.3202 31.6294 23.4702 31.9494 23.7002 32.1594C23.9302 32.3594 24.2102 32.4594 24.4902 32.4594L24.4602 32.4394Z" fill="#0DB14B"/>
</svg>
