<svg width="59" height="60" viewBox="0 0 59 60" fill="none" xmlns="http://www.w3.org/2000/svg">
<path d="M57.8015 7.76856L46.7997 7.74595L46.7319 1.15341C46.7319 0.508858 46.1778 0.0339239 45.3864 0H13.6023C12.7995 0.0226159 12.2455 0.565398 12.2455 1.30041L12.2229 7.73464L1.19854 7.77987C0.520123 7.76856 0 8.32265 0 9.02375V50.784C0 51.5077 0.565351 52.0957 1.26639 52.0957L17.2093 52.1297V57.5236L5.52913 57.5688C5.25776 57.5688 5.03162 57.6819 4.85071 57.8967C4.57934 58.2246 4.52281 58.6996 4.57934 59.0049C4.6698 59.5024 5.08816 60 5.78919 60H54.7033C55.0312 60 55.3139 59.8643 55.5287 59.6381C55.8001 59.3441 55.9019 58.9257 55.868 58.6317C55.8114 57.9985 55.2574 57.5236 54.5676 57.5236H41.8246V52.1184L57.5866 52.0844C58.2877 52.0844 59 51.6321 59 50.7727V9.02375C59 8.32265 58.4799 7.76856 57.8128 7.76856H57.8015ZM39.2693 52.0957V57.5349H19.7194V52.0957H39.2693ZM44.3009 21.96V34.0256H14.6991V21.96H44.3009ZM44.3009 2.45383V19.4836H14.6991V2.45383H44.3009ZM2.49885 10.2337L12.2342 10.2563V35.3374C12.4038 36.3211 13.0483 36.536 13.5571 36.536H45.4542C45.9856 36.536 46.6527 36.3098 46.7771 35.2469V10.2563L56.5125 10.2337V40.1206H2.51016V10.2337H2.49885ZM56.5012 42.5744V49.608H2.48754V42.5744H56.5012Z" fill="#0DB14B"/>
<path d="M24.717 17.0642C24.8753 17.1546 25.1354 17.2338 25.4068 17.2338C25.565 17.2338 25.7233 17.1999 25.859 17.132L34.1245 12.6314C34.769 12.2809 34.882 11.772 34.8707 11.3989C34.8481 10.9466 34.588 10.5508 34.1697 10.3133L25.9156 5.82406C25.4859 5.58659 24.9432 5.69967 24.6266 5.91452C24.3778 6.08414 24.1064 6.47992 24.1064 6.89831V16.0578C24.1064 16.5101 24.423 16.9172 24.7283 17.0755L24.717 17.0642ZM26.5601 8.99028L31.049 11.4441L26.5714 13.9205V8.99028H26.5601Z" fill="#0DB14B"/>
<path d="M17.6047 26.4947L25.5987 26.4721L25.6213 26.212C25.6892 25.4318 25.6892 24.9003 25.6213 24.2332L25.5987 23.9844L17.5368 24.007L17.5142 24.2558C17.4464 24.9456 17.3785 25.6127 17.5594 26.2799L17.616 26.4834L17.6047 26.4947Z" fill="#0DB14B"/>
<path d="M32.869 26.4947L40.9535 26.4608L40.9762 26.2007C41.044 25.3979 41.0327 24.889 40.9649 24.2558L40.9309 24.007L32.869 23.9844L32.8351 24.2218C32.7333 24.9342 32.7333 25.5223 32.8351 26.246L32.869 26.4947Z" fill="#0DB14B"/>
<path d="M25.6552 29.2422H17.4463V31.7186H25.6552V29.2422Z" fill="#0DB14B"/>
<path d="M41.0104 29.2422H32.7676V31.7186H41.0104V29.2422Z" fill="#0DB14B"/>
</svg>
