<svg width="63" height="63" viewBox="0 0 63 63" fill="none" xmlns="http://www.w3.org/2000/svg">
<path d="M24.5127 54.8901C24.9027 54.2901 24.4227 53.4201 24.2427 52.8101C21.7727 52.2001 19.5927 51.2801 17.4127 49.9601L13.7727 52.3901C12.5027 53.2401 10.8827 53.0901 9.80267 52.0101L7.72267 49.9401C6.55267 48.7701 6.38267 47.0801 7.30267 45.7101L9.63267 42.2301C8.36267 40.0501 7.37267 37.8401 6.79267 35.3501L2.40267 34.4401C1.25267 34.2001 0.142669 33.1801 0.0726688 31.9301C-0.00733116 30.4801 -0.0473312 29.0501 0.0926688 27.6201C0.212669 26.3801 1.36267 25.4401 2.49267 25.2101L6.76267 24.3501C7.37267 21.8801 8.30267 19.6401 9.62267 17.4601L7.18267 13.7701C6.35267 12.5101 6.56267 10.8901 7.62267 9.83007L9.76267 7.69007C10.8627 6.59007 12.5227 6.44007 13.8227 7.30007L17.4127 9.69007C19.5827 8.38007 21.8227 7.45007 24.3027 6.83007L25.1427 2.59007C25.4427 1.09007 26.7027 0.0100715 28.2427 7.14859e-05H31.1527C32.7627 -0.00992851 34.1127 1.03007 34.4327 2.59007L35.2827 6.82007C37.7627 7.41007 39.9927 8.37007 42.1727 9.67007L45.7727 7.26007C47.0527 6.41007 48.7227 6.57007 49.8127 7.66007L51.9627 9.81007C52.9927 10.8401 53.2227 12.4501 52.4127 13.6901L49.9427 17.4401C51.2527 19.6401 52.1927 21.8901 52.8127 24.3401L57.0727 25.1701C58.5627 25.4601 59.6127 26.7501 59.6127 28.2801V31.1901C59.6127 32.7101 58.6827 34.0801 57.1827 34.3901L52.8127 35.2801C52.3227 37.1501 51.6927 38.8401 50.7827 40.6301L61.7227 56.5001C62.5527 57.7101 62.5527 59.1501 61.8127 60.4401C61.2527 61.4201 60.0927 62.3501 58.6327 62.3501H26.4627C25.0827 62.3501 23.9727 61.4301 23.4127 60.5401C22.6727 59.3601 22.5527 57.9201 23.2627 56.8301L24.5127 54.8801V54.8901ZM18.0427 48.0201C20.3327 49.5301 22.7927 50.4901 25.4127 51.0601C26.0127 51.1901 26.0827 51.7901 26.3027 52.4101L31.3727 44.9801C22.2427 45.9501 14.5227 38.7601 14.5127 29.8501C14.5027 20.9401 22.1827 13.8701 31.0927 14.6501C39.8927 15.4201 46.3427 23.6101 44.7627 32.4501C45.1727 32.7401 45.4727 33.0601 45.7527 33.4501L49.4427 38.7301C50.1727 37.3001 50.5927 35.8701 50.9327 34.3701C51.0627 33.7901 51.4427 33.5101 52.0027 33.4101L56.7027 32.5001C57.2127 32.4001 57.5827 31.9101 57.5827 31.4001V28.3001C57.5827 27.8101 57.2327 27.2901 56.7327 27.1901L51.7527 26.2001C51.4127 26.1301 51.0727 25.8601 50.9927 25.4901C50.4127 22.8301 49.4227 20.3601 47.9227 18.0801C47.6727 17.7001 47.6627 17.2201 47.9127 16.8501L50.6927 12.7301C51.0227 12.2301 50.8827 11.5901 50.4727 11.1901L48.3827 9.11007C48.0027 8.73007 47.3727 8.63007 46.9027 8.95007L42.9927 11.5901C42.6527 11.8201 42.1327 12.0801 41.7127 11.8001C39.4027 10.2901 36.9227 9.22007 34.2127 8.66007C33.7027 8.55007 33.4527 8.13007 33.3627 7.66007L32.4427 2.95007C32.3227 2.35007 31.7627 2.01007 31.1627 2.01007H28.4327C27.6627 2.01007 27.1727 2.48007 27.0327 3.21007L26.1227 7.91007C26.0527 8.27007 25.7427 8.57007 25.3727 8.65007C22.6627 9.22007 20.1827 10.2801 17.8727 11.7701C17.4427 12.0501 16.9427 11.8401 16.5827 11.6001L12.6927 8.97007C12.1727 8.61007 11.5127 8.75007 11.0827 9.18007L9.08267 11.1801C8.65267 11.6101 8.52267 12.2601 8.87267 12.7901L11.5027 16.6701C11.8427 17.1701 11.8927 17.6701 11.5527 18.1901C10.0827 20.4101 9.11267 22.8501 8.55267 25.4601C8.47267 25.8201 8.17267 26.1401 7.81267 26.2101L3.10267 27.1201C2.38267 27.2601 1.91267 27.7401 1.91267 28.5101V31.2401C1.91267 31.8401 2.26267 32.4201 2.87267 32.5401L7.57267 33.4501C8.03267 33.5401 8.43267 33.7801 8.54267 34.2801C9.10267 36.8901 10.0927 39.3401 11.5527 41.5701C11.8927 42.0801 11.8127 42.5901 11.4827 43.0801L8.91267 46.8501C8.55267 47.3701 8.55267 48.0401 9.00267 48.4901L11.0827 50.5701C11.4527 50.9401 12.0727 51.1401 12.5527 50.8201L16.6327 48.0701C17.0527 47.7801 17.5227 47.7301 18.0227 48.0501L18.0427 48.0201ZM39.6627 33.1401C40.4327 32.0401 41.6527 31.7301 42.8827 31.7301C44.1127 23.6701 37.7727 16.5901 29.8127 16.5801C21.8527 16.5701 15.6727 23.5301 16.6527 31.4501C17.6327 39.3701 25.2227 44.6801 33.0327 42.6601L39.6727 33.1401H39.6627ZM58.5327 60.4101C59.4427 60.4101 59.9227 59.8301 60.1527 59.3701C60.5027 58.6901 60.3527 58.0601 59.9227 57.4301L44.1127 34.5601C43.6927 33.9501 43.1027 33.7401 42.4727 33.7701C41.9227 33.8001 41.4227 34.0501 41.0327 34.6101L25.1527 57.5701C24.7327 58.1801 24.7527 58.8801 25.0627 59.4701C25.3227 59.9701 25.8727 60.4101 26.6527 60.4101H58.5327Z" fill="#0DB14B"/>
<path d="M43.6023 41.1016H41.6123V52.1916H43.6023V41.1016Z" fill="#0DB14B"/>
<path d="M43.6023 54.9688H41.6123V56.9587H43.6023V54.9688Z" fill="#0DB14B"/>
<path d="M30.7627 38.8886C30.0927 38.9586 29.5027 38.9386 28.8527 38.8886L28.7327 37.4186C26.6227 37.0786 25.1127 35.3486 25.0527 33.2586C25.7027 33.1286 26.2927 33.1886 27.0027 33.2086C27.1727 34.8286 28.3627 35.5286 29.8827 35.5186C31.4027 35.5086 32.5627 34.5686 32.5127 33.0986C32.4627 31.6286 31.1927 30.7686 29.7027 30.8786C27.3327 31.0486 25.3527 29.3486 25.0827 27.0686C24.8127 24.7886 26.4327 22.7186 28.7827 22.3486L28.8427 20.7286C29.4927 20.6686 30.0927 20.6686 30.7427 20.7286L30.8027 22.3486C32.9027 22.6986 34.4727 24.3786 34.4927 26.5286C33.8427 26.6586 33.2727 26.5786 32.5627 26.5786C32.3927 24.9886 31.2227 24.2186 29.7027 24.2386C28.1827 24.2586 27.0627 25.1486 27.0427 26.5686C27.0227 27.9886 28.2427 29.0186 29.7027 28.8986C32.1027 28.6986 34.1527 30.2986 34.4627 32.6386C34.7727 34.9786 33.2027 37.0186 30.8427 37.3886C30.7127 37.8686 30.8227 38.2486 30.7527 38.8586L30.7627 38.8886Z" fill="#0DB14B"/>
</svg>
