<svg width="75" height="51" viewBox="0 0 75 51" fill="none" xmlns="http://www.w3.org/2000/svg">
<path d="M69.2637 43.8704C70.905 42.9965 72.8017 43.2661 73.9688 44.5211C75.2545 45.9155 75.3184 47.9886 74.2697 49.4388C73.139 50.9913 71.1512 51.4189 69.5463 50.573C67.9415 49.727 67.1391 47.8306 67.6953 45.9341L64.6315 43.3777H55.2941C45.5009 53.5199 29.4979 53.5199 19.7138 43.3777L10.4676 43.3591L7.3035 45.9341C7.83237 47.7655 7.14848 49.5783 5.60746 50.48C4.06643 51.3817 2.04212 51.0564 0.838483 49.5504C-0.255736 48.1745 -0.283092 46.0922 0.938787 44.642C2.0786 43.294 4.05731 42.9593 5.71688 43.8704L9.59224 40.9328L17.4341 40.7282C15.7928 38.367 14.5162 35.9686 13.6773 33.1983H7.29438C6.58314 34.9925 4.8415 35.9686 3.13634 35.6525C1.43119 35.3364 0.099885 33.784 0.0178185 32.092C-0.0824849 30.1956 1.15763 28.6245 2.75337 28.2062C4.69561 27.6949 6.49195 28.6431 7.28526 30.5396L12.9752 30.5675C12.4099 27.1836 12.2913 23.9485 13.0208 20.4625H7.29438C6.52843 22.2938 4.82327 23.2513 2.93574 22.8516C1.31265 22.5076 -0.000418473 20.9737 0.00870002 19.1145C0.00870002 17.3761 1.1941 15.7957 2.96309 15.3867C4.73208 14.9777 6.55578 15.9538 7.29438 17.8223L13.65 17.8502C14.5071 15.145 15.7563 12.6815 17.4341 10.2924L9.60136 10.0693L5.726 7.12236C4.13026 7.9962 2.21538 7.73591 1.04821 6.47162C-0.246618 5.07719 -0.328684 3.00413 0.729061 1.56321C1.86887 0.0200345 3.84759 -0.426185 5.46156 0.429069C7.07553 1.28432 7.85061 3.17146 7.3035 5.05859L10.3673 7.62435H19.7047C29.4979 -2.51784 45.5009 -2.51784 55.2941 7.62435L64.5312 7.64295L67.6862 5.11437C67.1938 3.27372 67.8321 1.41447 69.4096 0.512735C70.9871 -0.389 73.0023 -0.0357429 74.1785 1.45165C75.2819 2.84609 75.2819 4.92845 74.0691 6.35077C72.8564 7.77309 70.9415 8.02409 69.291 7.12236L65.4157 10.0693L57.592 10.2645C59.1969 12.6536 60.5099 15.0985 61.3579 17.8502L67.7135 17.8223C68.4248 16.0189 70.1664 15.052 71.8716 15.3588C73.5767 15.6656 74.8989 17.2181 74.981 18.9193C75.0722 20.8064 73.832 22.3961 72.2454 22.8144C70.3032 23.3257 68.5068 22.3682 67.7135 20.4717H61.9962C62.6619 23.9021 62.6619 27.1186 61.9962 30.5396L67.6497 30.5953C68.4521 28.8384 70.0023 27.8065 71.8898 28.1225C73.6223 28.42 74.9901 29.9725 74.9901 31.8968C74.9901 33.6445 73.7956 35.2156 72.0357 35.6153C70.2758 36.0151 68.443 35.0389 67.7135 33.1797L61.3488 33.1518C60.5008 35.8942 59.1877 38.3484 57.5829 40.7375L65.4066 40.9235C66.8199 41.5835 67.8594 42.9965 69.2637 43.8704ZM4.9874 3.84079C4.9874 3.14357 4.43117 2.58579 3.7564 2.58579C3.08163 2.58579 2.5254 3.15287 2.5254 3.84079C2.5254 4.52871 3.08163 5.09578 3.7564 5.09578C4.43117 5.09578 4.9874 4.52871 4.9874 3.84079ZM59.9902 25.501C59.9902 12.8395 49.9234 2.5765 37.504 2.5765C25.0846 2.5765 15.0177 12.8395 15.0177 25.501C15.0177 38.1625 25.0846 48.4255 37.504 48.4255C49.9234 48.4255 59.9902 38.1625 59.9902 25.501ZM72.4825 3.84079C72.4825 3.14357 71.9263 2.5765 71.2424 2.5765C70.5585 2.5765 70.0023 3.14357 70.0023 3.84079C70.0023 4.538 70.5585 5.10507 71.2424 5.10507C71.9263 5.10507 72.4825 4.538 72.4825 3.84079ZM4.9874 19.1331C4.9874 18.4359 4.43117 17.8781 3.7564 17.8781C3.08163 17.8781 2.5254 18.4452 2.5254 19.1331C2.5254 19.821 3.08163 20.3881 3.7564 20.3881C4.43117 20.3881 4.9874 19.821 4.9874 19.1331ZM72.4825 19.1331C72.4825 18.4359 71.9263 17.8781 71.2515 17.8781C70.5767 17.8781 70.0205 18.4452 70.0205 19.1331C70.0205 19.821 70.5767 20.3881 71.2515 20.3881C71.9263 20.3881 72.4825 19.821 72.4825 19.1331ZM4.9874 31.8689C4.9874 31.1717 4.43117 30.6139 3.7564 30.6139C3.08163 30.6139 2.5254 31.181 2.5254 31.8689C2.5254 32.5569 3.08163 33.1239 3.7564 33.1239C4.43117 33.1239 4.9874 32.5569 4.9874 31.8689ZM72.4825 31.8689C72.4825 31.1717 71.9263 30.6139 71.2515 30.6139C70.5767 30.6139 70.0205 31.181 70.0205 31.8689C70.0205 32.5569 70.5767 33.1239 71.2515 33.1239C71.9263 33.1239 72.4825 32.5569 72.4825 31.8689ZM4.9874 47.1612C4.9874 46.464 4.43117 45.9062 3.7564 45.9062C3.08163 45.9062 2.5254 46.4733 2.5254 47.1612C2.5254 47.8492 3.08163 48.4162 3.7564 48.4162C4.43117 48.4162 4.9874 47.8492 4.9874 47.1612ZM72.4825 47.1612C72.4825 46.464 71.9263 45.9062 71.2515 45.9062C70.5767 45.9062 70.0205 46.4733 70.0205 47.1612C70.0205 47.8492 70.5767 48.4162 71.2515 48.4162C71.9263 48.4162 72.4825 47.8492 72.4825 47.1612Z" fill="#0DB14B"/>
<path d="M33.638 28.0775L33.6836 34.5849C34.5134 34.6964 35.3067 34.6871 36.2277 34.5477L36.2459 26.8597C36.2459 26.0881 36.7748 25.5954 37.4131 25.5582C38.1334 25.5117 38.7626 26.023 38.7626 26.8597L38.7808 34.5849C39.7109 34.6871 40.4951 34.6964 41.334 34.5849L41.3614 24.1917C41.3614 23.4201 41.9997 22.9181 42.6197 22.9274C43.2398 22.9367 43.8781 23.4201 43.8781 24.1917L43.9054 34.5942C44.7352 34.6964 45.5376 34.6871 46.4039 34.5942L46.4677 22.6671C46.4677 21.9699 47.3705 21.598 47.799 21.6445C48.5194 21.7096 48.9936 22.3045 48.9936 23.0947L49.0118 34.5849C49.8507 34.8359 50.3066 35.3936 50.2428 36.0723C50.179 36.7509 49.5954 37.2901 48.7838 37.2808L25.787 37.2436C25.0301 37.2436 24.7201 36.379 24.6836 35.9235C24.6289 35.1984 25.3402 34.9102 25.8143 34.557C26.3797 33.1718 25.0849 29.6207 27.1183 29.4812C27.8934 29.4255 28.5225 29.9646 28.5316 30.8571L28.5499 34.6035C29.4253 34.6685 30.2095 34.6871 31.0484 34.5942L31.0757 28.1891C31.0757 27.464 31.5863 26.9527 32.1426 26.8597C32.8082 26.7481 33.5924 27.1572 33.6015 28.0868L33.638 28.0775Z" fill="#0DB14B"/>
<path d="M34.8598 22.0517L25.4496 29.1726C24.8204 29.6467 24.0453 29.3771 23.6806 28.8379C23.3158 28.2988 23.3888 27.5179 24.0088 27.0438L34.3127 19.1791C35.489 18.2774 36.7018 20.4806 37.6045 21.0756L44.2245 15.1725C43.3674 15.0702 42.6653 14.6612 42.6379 13.8152C42.6106 13.0994 43.2215 12.4766 44.0604 12.4766L47.7443 12.4952C48.4282 12.4952 48.9935 13.0436 49.0117 13.7687C49.0482 15.0981 49.0573 16.381 49.0117 17.701C48.9844 18.6214 48.1637 19.0862 47.5163 18.956C46.5406 18.7608 46.413 17.8591 46.413 16.7714L38.3431 23.8923C37.796 24.3757 37.0756 24.3014 36.5832 23.7994L34.8598 22.061V22.0517Z" fill="#0DB14B"/>
</svg>
