<svg width="61" height="61" viewBox="0 0 61 61" fill="none" xmlns="http://www.w3.org/2000/svg">
<path d="M33.5611 25.0345C33.1711 25.3145 33.9011 27.1445 32.6511 27.2845C32.2111 27.3345 31.7311 27.0945 31.7011 26.5845L31.6111 24.9745C30.6511 24.9145 29.7211 24.9145 28.7611 24.9745C28.6011 25.7445 29.0211 27.2145 27.8711 27.2845C27.4111 27.3145 26.9811 26.9545 26.9411 26.4045C26.9011 25.9045 27.0111 25.4445 26.8611 24.9745C25.8911 24.9145 24.4711 25.0945 24.3611 23.6445C24.3211 23.1945 24.4011 22.7845 24.3111 22.3745C23.4911 22.2745 22.0811 22.6345 22.0111 21.5145C21.9811 20.9845 22.3611 20.5545 22.9811 20.5645C23.4511 20.5645 23.8511 20.6045 24.3311 20.5345V17.6745C23.5911 17.4445 22.1311 17.9845 22.0111 16.8445C21.9511 16.2545 22.3311 15.9045 22.9711 15.8545C23.3611 15.8245 23.7611 15.9645 24.1411 15.8545C24.6411 15.7045 23.9611 14.4345 24.7211 13.6845C25.4811 12.9345 26.6311 13.5245 26.8411 13.1545C27.1111 12.6645 26.5111 11.0545 27.6911 10.9445C28.2411 10.8945 28.6311 11.2245 28.6811 11.8245C28.7211 12.3245 28.6211 12.7945 28.7611 13.2545H31.5611C31.8011 12.6045 31.2511 10.9845 32.4711 10.9345C32.9811 10.9145 33.3611 11.2445 33.4211 11.8445C33.4611 12.2745 33.2911 12.7745 33.5011 13.1545C33.6411 13.3845 34.1711 13.2845 34.4411 13.2745C35.3611 13.2345 36.0311 13.8245 36.0211 14.7645C36.0211 15.0845 35.9111 15.6145 36.1311 15.8145C36.6511 16.0745 38.3211 15.4645 38.3511 16.7245C38.3611 17.1445 38.0811 17.5845 37.5311 17.6245C37.0211 17.6545 36.5611 17.5745 36.0311 17.6945V20.5645C36.8511 20.7145 38.2511 20.2445 38.3511 21.4045C38.3911 21.9445 38.0011 22.3545 37.3811 22.3645C36.9211 22.3745 36.5111 22.3545 36.0511 22.3945C35.9611 22.8145 36.0411 23.2245 36.0011 23.6845C35.8511 25.3645 33.8911 24.8045 33.5511 25.0545L33.5611 25.0345ZM34.2511 15.0245H26.1311V23.1545H34.2511V15.0245Z" fill="#0DB14B"/>
<path d="M53.4911 40.8644H31.1411C30.9711 41.5944 31.3611 42.8444 30.2611 42.9344C29.7411 42.9744 29.3111 42.6344 29.2811 42.0144C29.2611 41.6144 29.3211 41.2644 29.2111 40.8644H6.88112C6.70112 41.3244 6.84112 41.7444 6.75112 42.2044C6.66112 42.7044 6.22112 42.9844 5.81112 42.9444C5.33112 42.8944 5.02112 42.5344 5.02112 42.0044V39.9644C5.03112 39.5344 5.33112 39.0844 5.85112 39.0844H29.2611V34.4644L10.3211 34.3644C4.46112 34.3344 0.0311231 29.1944 0.0011231 23.5744C-0.0288769 17.9544 4.55112 12.8944 10.4511 12.6244C11.5611 12.5744 12.5311 12.6844 13.5911 12.5744C14.5111 9.40436 16.2111 6.61436 18.6511 4.44436C19.0111 4.12436 19.5811 4.31436 19.8211 4.59436C20.1111 4.93436 20.1111 5.47436 19.7211 5.84436C17.6411 7.78436 16.1311 10.1744 15.3411 12.9244C15.1011 13.7744 14.4611 14.3644 13.5511 14.3744L10.2711 14.4044C5.35112 14.4544 1.63112 18.9144 1.77112 23.7444C1.91112 28.5744 5.83112 32.6244 10.8211 32.6244H41.3111C41.8911 32.6344 42.2211 32.9244 42.3111 33.3844C42.4011 33.8444 42.0411 34.4144 41.4811 34.4144L31.1011 34.4544V39.0744H54.3511C54.9411 39.0744 55.3411 39.4044 55.3411 39.9644V41.9944C55.3411 42.5344 55.0111 42.8344 54.6011 42.8844C54.0711 42.9444 53.6811 42.6344 53.6011 42.0644C53.5511 41.6944 53.6711 41.3644 53.4911 40.8444V40.8644Z" fill="#0DB14B"/>
<path d="M49.3415 32.6547C54.3715 32.6547 58.3615 28.7747 58.5915 23.9147C58.8215 19.0547 55.1715 14.8347 50.2615 14.4347C47.9515 14.2447 45.6015 15.0147 45.0315 12.9647C43.8015 8.52474 40.5115 5.00474 36.8015 3.26474C31.9915 1.01474 26.9615 1.38474 22.6215 3.73474C22.1515 3.98474 21.6315 3.72474 21.4415 3.39474C21.2915 3.13474 21.2215 2.50474 21.6815 2.24474C26.4715 -0.415258 32.1615 -0.835258 37.5215 1.65474C41.7215 3.60474 45.4115 7.59474 46.7515 12.5947L49.9015 12.6347C55.8115 12.7047 60.3815 17.7647 60.3515 23.5647C60.3215 29.3647 55.7915 34.1647 49.8915 34.4147C48.3215 34.4847 46.8515 34.4447 45.2915 34.4247C44.7715 34.4247 44.4115 33.9447 44.4215 33.5247C44.4315 33.1047 44.7715 32.6547 45.2915 32.6547H49.3315H49.3415Z" fill="#0DB14B"/>
<path d="M34.0012 60.2943C31.4912 60.4143 28.8912 60.3843 26.4612 60.3143C24.7212 60.2643 24.3512 58.6643 24.3112 57.2843C24.2312 54.7043 25.0112 52.3343 27.4812 51.0143C26.0012 49.3843 26.0112 47.0843 27.4812 45.5843C28.9512 44.0843 31.3112 44.0643 32.8112 45.4743C34.3912 46.9643 34.4312 49.3443 32.9312 51.0143C35.3812 52.3443 36.1812 54.7143 36.0812 57.2943C36.0312 58.5943 35.7612 60.2143 34.0112 60.3043L34.0012 60.2943ZM32.2512 48.2743C32.2512 47.1343 31.3312 46.2143 30.1912 46.2143C29.0512 46.2143 28.1312 47.1343 28.1312 48.2743C28.1312 49.4143 29.0512 50.3343 30.1912 50.3343C31.3312 50.3343 32.2512 49.4143 32.2512 48.2743ZM33.6812 58.6043C34.5112 58.6043 34.2812 56.4643 34.2112 55.7843C34.0012 53.4243 31.8812 51.8443 29.6112 52.1543C27.3412 52.4643 25.9012 54.4343 26.1312 56.7543C26.1912 57.3643 25.9612 57.9843 26.3412 58.5643L33.6812 58.6043Z" fill="#0DB14B"/>
<path d="M58.2319 60.3261L50.9419 60.3461C49.7019 60.3461 48.7719 59.3461 48.7119 58.1461V56.2361C48.7119 54.0061 49.8819 52.0761 51.8219 50.9961C50.3219 49.3961 50.3519 47.0861 51.8119 45.5961C53.2719 44.1061 55.6319 44.0461 57.1619 45.4861C58.6919 46.9261 58.8319 49.3161 57.2619 50.9861C59.1519 52.0561 60.3719 53.8861 60.3719 56.0561V58.1361C60.3119 59.2361 59.5019 60.3161 58.2419 60.3161L58.2319 60.3261ZM56.5919 48.2761C56.5919 47.1361 55.6719 46.2161 54.5319 46.2161C53.3919 46.2161 52.4719 47.1361 52.4719 48.2761C52.4719 49.4161 53.3919 50.3361 54.5319 50.3361C55.6719 50.3361 56.5919 49.4161 56.5919 48.2761ZM58.0319 58.6061C58.8719 58.6061 58.6519 56.6461 58.5919 55.9161C58.3919 53.5361 56.3719 51.9161 54.1119 52.1461C51.8519 52.3761 50.2619 54.3961 50.4519 56.7661C50.5019 57.3861 50.2919 58.0161 50.7019 58.5661L58.0319 58.5961V58.6061Z" fill="#0DB14B"/>
<path d="M9.2615 58.6137C10.9115 58.6237 8.9015 54.6137 10.5915 54.4337C12.0015 54.2737 11.6415 56.4937 11.6715 57.9837C11.7015 59.2537 10.7515 60.3637 9.4415 60.3637H2.2315C1.0015 60.3637 0.0614982 59.3537 0.0214982 58.1537C-0.0885018 54.9137 0.121498 52.8737 3.1315 51.0037C1.5615 49.3337 1.7015 46.9537 3.2215 45.5037C4.7415 44.0537 7.1015 44.1137 8.5615 45.5937C10.0215 47.0737 10.0115 49.4337 8.5715 51.0037C8.8715 51.1937 9.0515 51.3037 9.2415 51.4537C9.6315 51.7737 9.6715 52.2437 9.4415 52.6137C9.2515 52.9337 8.7015 53.1737 8.2915 52.8937C6.9115 51.9837 5.2115 51.8337 3.7415 52.6937C2.4115 53.4737 1.6215 55.0537 1.7515 56.7637C1.8015 57.3837 1.6015 58.0037 1.9915 58.5637L9.2515 58.6037L9.2615 58.6137ZM7.9015 48.2737C7.9015 47.1337 6.9815 46.2137 5.8415 46.2137C4.7015 46.2137 3.7815 47.1337 3.7815 48.2737C3.7815 49.4137 4.7015 50.3337 5.8415 50.3337C6.9815 50.3337 7.9015 49.4137 7.9015 48.2737Z" fill="#0DB14B"/>
</svg>
