<svg width="24" height="24" viewBox="0 0 24 24" fill="none" xmlns="http://www.w3.org/2000/svg">
<g clip-path="url(#clip0_56084_1764)">
<path d="M5.62659 0H18.3589C21.4767 0 24 2.52326 24 5.62659V18.3589C24 21.4622 21.4767 23.9855 18.3734 23.9855H5.62659C2.52326 23.9855 0 21.4622 0 18.3589V5.62659C0 2.52326 2.52326 0 5.62659 0Z" fill="#0072BC"/>
<path d="M6.74328 18.4318L11.0212 13.4578L14.5016 18.5623H18.388L13.1529 10.9636L17.8949 5.43848H16.8073L12.6599 10.2385L9.38255 5.48198H5.59766L10.5137 12.7182L5.59766 18.4173C5.9892 18.4463 6.35173 18.4318 6.72877 18.4173L6.74328 18.4318Z" fill="white"/>
<path d="M15.0527 17.6918L11.6013 12.7758L12.5729 11.6592L16.8074 17.6773L15.0527 17.6918Z" fill="#0072BC"/>
<path d="M12.0654 10.9347L11.0938 12.0658L7.0769 6.33774L8.81709 6.32324L12.0654 10.9347Z" fill="#0072BC"/>
</g>
<defs>
<clipPath id="clip0_56084_1764">
<rect width="24" height="24" fill="white"/>
</clipPath>
</defs>
</svg>
