<svg width="83" height="80" viewBox="0 0 83 80" fill="none" xmlns="http://www.w3.org/2000/svg">
<rect width="82.039" height="79.962" rx="39.981" fill="url(#paint0_linear_55_5008)" fill-opacity="0.05"/>
<rect x="10" y="10" width="59" height="57" rx="28.5" fill="url(#paint1_linear_55_5008)" fill-opacity="0.1"/>
<rect x="10.5" y="10.5" width="58" height="56" rx="28" stroke="url(#paint2_linear_55_5008)" stroke-opacity="0.2"/>
<g clip-path="url(#clip0_55_5008)">
<path d="M45.4186 52.982L33.7402 53.0011C33.1845 53.0011 32.8062 52.6825 32.7361 52.1947C32.666 51.7068 32.9825 51.1798 33.5351 51.1724L36.1691 51.1343L36.166 47.7753L25.5856 47.7806C24.7649 47.7806 24.0031 47.2345 24.0031 46.3064L24 25.4901C24 24.7217 24.6165 24.0074 25.4031 24.0063L53.5062 24C54.334 24 55.001 24.6561 55.001 25.4985L54.9907 46.3942C54.9907 47.2176 54.2474 47.7668 53.5258 47.7668L42.8402 47.7763V51.1343L45.4742 51.1681C45.9433 51.1745 46.2381 51.6073 46.2711 52.0042C46.3082 52.4476 46.0237 52.9809 45.4196 52.982H45.4186ZM48.1443 41.3536L48.1804 38.4317C48.5753 38.3312 49.5546 38.6328 49.5536 37.9619L49.5392 29.6216C49.099 29.3464 48.6588 29.4575 48.199 29.4438C48.0526 28.8903 48.4856 27.2277 47.3938 27.3262C47.1113 27.3516 46.7505 27.5833 46.7402 27.9527L46.7031 29.4046C46.399 29.4988 45.6289 29.3115 45.432 29.6046C45.3608 29.7115 45.3278 29.8533 45.3278 30.0311L45.3155 37.856C45.3144 38.6624 46.1856 38.3217 46.6979 38.4307L46.7433 41.3886C46.7495 41.7939 47.1546 42.0775 47.4866 42.0426C47.7732 42.013 48.1381 41.7643 48.1433 41.3515L48.1443 41.3536ZM32.2309 41.1991L32.2526 37.9428C32.6959 37.8232 33.6443 38.1449 33.6454 37.4348L33.6485 32.1466C33.6485 31.3042 32.7258 31.8556 32.2412 31.5942L32.2268 29.8152C32.2237 29.3739 31.8979 29.0787 31.5144 29.0893C31.1567 29.0988 30.8227 29.3803 30.8175 29.8174L30.799 31.59L29.7856 31.6334C29.5876 31.6418 29.4289 31.8133 29.4289 32.0397L29.4258 37.438C29.4258 37.692 29.5691 37.8984 29.8082 37.9047L30.7928 37.9322L30.8351 41.3409C30.8402 41.7505 31.2856 42.0193 31.5794 41.9759C31.9433 41.923 32.2278 41.6542 32.2309 41.1991ZM40.1959 43.6289L40.199 40.1705L41.1546 40.1419C41.4144 40.1345 41.599 39.9345 41.599 39.6604L41.5959 34.2653C41.5959 34.0304 41.3928 33.8674 41.1969 33.86L40.2144 33.8229C40.068 33.0536 40.5825 31.2683 39.4557 31.3233C39.1299 31.3392 38.7773 31.6143 38.7722 32.0471L38.7505 33.7986C38.2732 33.9266 37.3732 33.5795 37.3732 34.3658L37.3711 39.6583C37.3711 40.4118 38.3546 40.0403 38.7526 40.1779L38.7814 43.7686C38.7856 44.2163 39.2041 44.5031 39.5495 44.4565C39.9206 44.4068 40.1948 44.1136 40.1948 43.6289H40.1959Z" fill="#0DB14B"/>
</g>
<defs>
<linearGradient id="paint0_linear_55_5008" x1="41.0195" y1="0" x2="41.0195" y2="79.962" gradientUnits="userSpaceOnUse">
<stop stop-color="#0DB14B"/>
<stop offset="1" stop-color="#CAFF33" stop-opacity="0"/>
</linearGradient>
<linearGradient id="paint1_linear_55_5008" x1="39.5" y1="-27.7432" x2="39.5" y2="157.122" gradientUnits="userSpaceOnUse">
<stop stop-color="#00C795"/>
<stop offset="0.467671" stop-color="#CAFF33" stop-opacity="0"/>
</linearGradient>
<linearGradient id="paint2_linear_55_5008" x1="39.5" y1="-88.9797" x2="39.5" y2="118.608" gradientUnits="userSpaceOnUse">
<stop stop-color="#00C795"/>
<stop offset="0.716291" stop-color="#CAFF33" stop-opacity="0"/>
</linearGradient>
<clipPath id="clip0_55_5008">
<rect width="31" height="29" fill="white" transform="translate(24 24)"/>
</clipPath>
</defs>
</svg>
