<svg width="48" height="36" viewBox="0 0 48 36" fill="none" xmlns="http://www.w3.org/2000/svg">
<path d="M8.35645 36C7.37917 35.9994 6.19633 34.2391 7.75684 32.6523C10.65 31.0458 14.9499 26.946 13.9492 22.6289H4.42871C1.98278 22.6288 0 20.6452 0 18.1992V4.42871C0.000148943 1.98287 1.98287 0.000145671 4.42871 0H17.5713C20.0171 0.000145139 21.9999 1.98287 22 4.42871L22 24.6357C21.6097 27.6691 18.346 34.0934 8.35645 36Z" fill="#214478"/>
<path d="M34.3564 36C33.3792 35.9994 32.1963 34.2391 33.7568 32.6523C36.65 31.0458 40.9499 26.946 39.9492 22.6289H30.4287C27.9828 22.6288 26 20.6452 26 18.1992V4.42871C26.0001 1.98287 27.9829 0.000145671 30.4287 0H43.5713C46.0171 0.000145139 47.9999 1.98287 48 4.42871L48 24.6357C47.6097 27.6691 44.346 34.0934 34.3564 36Z" fill="#214478"/>
</svg>
