<svg width="62" height="58" viewBox="0 0 62 58" fill="none" xmlns="http://www.w3.org/2000/svg">
<g clip-path="url(#clip0_56137_11805)">
<path d="M57.6577 57.9892H4.59358C3.03763 58 1.81665 57.3544 0.99546 56.3644C-1.54375 53.2976 1.46008 49.8004 2.10839 46.1525C1.40606 44.7967 0.649695 43.3978 0.649695 41.6653L0.692916 6.17662C0.703721 2.85158 3.40501 0 6.76541 0H55.259C58.5113 0 61.2882 2.73321 61.2882 5.98293L61.3639 41.0627C61.3639 43.0211 60.7912 44.6137 59.8728 46.1525C60.5427 49.6605 63.3844 53.1792 61.1694 56.1384C60.4563 57.0853 59.2893 57.9892 57.6577 57.9892ZM54.038 46.7551C57.0094 46.7551 59.2245 44.4954 59.2137 41.6545V6.1551C59.2137 4.16438 57.5713 2.11985 55.4751 2.11985H6.53851C4.44231 2.11985 2.79992 4.16438 2.79992 6.1551V41.8698C2.81073 44.4738 5.03659 46.7336 7.68385 46.7336L54.038 46.7551ZM59.7647 52.5551L58.0683 47.702C56.7285 48.466 55.4643 48.8534 53.8975 48.8534H8.10525C6.53851 48.8534 5.2743 48.466 3.93446 47.6913L2.19483 52.6627C1.74102 53.9647 2.5514 55.8586 4.20459 55.8586L57.6037 55.8801C58.5329 55.8801 59.1704 55.3421 59.5378 54.7933C59.97 54.1369 60.0457 53.3837 59.7539 52.5551H59.7647Z" fill="#0DB14B"/>
<path d="M20.6699 36.5641L9.84316 36.6179C9.17324 36.6179 8.75184 36.2628 8.68701 35.714C8.62218 35.1652 8.98956 34.541 9.7135 34.541L20.2053 34.5195C20.778 34.5195 21.2102 34.7993 21.3399 35.1975C21.4803 35.6171 21.3615 36.5533 20.6591 36.5533L20.6699 36.5641Z" fill="#0DB14B"/>
<path d="M17.7644 10.6422H9.83338C9.20668 10.6637 8.76367 10.2441 8.69883 9.73832C8.64481 9.29714 8.88252 8.57617 9.50922 8.57617H18.0021C18.5315 8.57617 18.8017 9.20029 18.8125 9.55539C18.8125 10.0181 18.4775 10.6315 17.7752 10.6315L17.7644 10.6422Z" fill="#0DB14B"/>
<path d="M17.7881 31.4L9.83546 31.4216C9.13313 31.4216 8.73334 31.0342 8.70092 30.4423C8.66851 29.8505 9.10071 29.334 9.84627 29.334H17.68C18.3283 29.334 18.7605 29.7536 18.8037 30.2809C18.847 30.8082 18.566 31.4108 17.7881 31.4108V31.4Z" fill="#0DB14B"/>
<path d="M16.3808 26.2136L9.82204 26.2458C9.1089 26.2458 8.6875 25.7724 8.6875 25.1805C8.6875 24.5887 9.11971 24.1152 9.82204 24.1152H16.2943C16.8778 24.126 17.2668 24.5672 17.3316 24.9976C17.4181 25.4926 17.1155 26.2028 16.3808 26.2028V26.2136Z" fill="#0DB14B"/>
<path d="M16.4995 15.7974L9.84355 15.8512C9.22766 15.8512 8.78465 15.4531 8.70901 14.9796C8.62257 14.4093 8.94673 13.7637 9.63826 13.7637H16.305C16.9209 13.7637 17.2775 14.1726 17.3531 14.646C17.4072 15.0442 17.1478 15.7867 16.4995 15.7974Z" fill="#0DB14B"/>
<path d="M15.4332 21.0057L9.8361 21.038C9.18779 21.038 8.75559 20.6506 8.69076 20.1018C8.62593 19.553 9.00411 18.9504 9.70644 18.9397H15.2387C15.8114 18.9289 16.2328 19.2948 16.3192 19.7252C16.4273 20.2417 16.1895 20.995 15.4224 21.0057H15.4332Z" fill="#0DB14B"/>
<path d="M53.5954 39.8674C54.7408 40.1364 57.0099 39.3401 56.945 40.9973C56.9234 41.4815 56.5452 42.0195 55.8429 42.0195H6.17159C5.53409 42.0195 5.16671 41.5784 5.09108 41.1694C4.99383 40.6852 5.23154 39.932 5.94468 39.932L46.7233 39.8889L43.9248 36.9728C43.0928 37.5754 42.0447 37.7583 41.31 37.0589L38.4466 34.2934C31.9635 36.5424 24.8969 34.0136 21.2664 28.3858C17.571 22.6503 18.3814 15.0425 23.2005 10.2218C28.0196 5.40099 35.5832 4.50785 41.4072 8.1342C47.1339 11.7067 49.7272 18.755 47.4689 25.319L50.3215 28.2782C51.013 28.9991 50.5484 30.0106 50.2134 30.7639C51.4452 32.152 52.9471 33.5294 54.2762 34.8637C55.5295 36.1335 55.4647 37.995 54.1573 39.1895C53.9304 39.3939 53.7143 39.5984 53.5738 39.8674H53.5954ZM46.2047 20.509C46.2047 13.6006 40.5752 7.99431 33.6383 7.99431C26.7014 7.99431 21.0719 13.6006 21.0719 20.509C21.0719 27.4173 26.7014 33.0236 33.6383 33.0236C40.5752 33.0236 46.2047 27.4173 46.2047 20.509ZM42.5958 35.2726L48.5062 29.3865C47.8579 28.6548 47.242 28.0522 46.5505 27.4496C45.135 29.9784 43.2009 31.9153 40.64 33.3464C41.2127 34.0674 41.8178 34.713 42.5958 35.2726ZM48.6467 32.2058L45.3835 35.4555L50.1594 40.2117L53.4225 36.962L48.6467 32.2058Z" fill="#0DB14B"/>
<path d="M35.2603 29.3221C34.8389 29.7203 34.6876 30.409 34.0501 30.3874C33.4126 30.3659 33.1533 29.7956 32.8832 29.2899C32.1592 29.0208 31.1976 29.3114 30.4412 29.1823C28.6692 28.8702 27.9344 27.3422 28.0857 25.6635C28.1505 24.9533 28.1829 24.2754 29.0149 24.157C29.5984 24.0817 30.1495 24.5229 30.2143 25.2977C30.2467 25.7173 30.0306 26.5889 30.4304 26.8687C31.1003 27.3529 32.1484 27.0516 32.9588 27.0301C33.1533 25.9756 32.5266 24.0171 34.0609 24.0279C34.6228 24.0279 35.0982 24.4045 35.109 25.0824L35.1523 27.0301C36.0383 27.1377 36.9135 27.2023 37.8103 26.9225C37.9508 26.0186 38.0048 22.0802 37.7455 21.5852C37.6591 21.4346 37.3889 21.3808 37.1188 21.37L30.8302 21.3377C29.4147 21.3377 28.1505 20.2186 28.1397 18.8197L28.1073 14.3218C28.0965 12.7184 29.2094 11.4379 30.8302 11.3841C31.5541 11.3626 32.2349 11.4379 32.948 11.3195C33.0993 10.6309 33.4883 10.2758 34.0609 10.222C34.7201 10.1682 34.9037 10.803 35.2279 11.255C35.8762 11.5455 36.7838 11.298 37.5078 11.3841C39.3339 11.6101 40.2199 13.1596 40.0146 14.9244C39.9606 15.3871 40.0578 15.8605 39.6472 16.1618C39.3663 16.3771 38.9341 16.4847 38.5343 16.3125C37.4213 15.839 38.2317 14.0635 37.7023 13.6869C37.0107 13.2027 35.9843 13.4824 35.1631 13.504L35.1198 15.4732C35.109 16.065 34.7092 16.4416 34.1906 16.5385C33.7044 16.6246 33.0453 16.2479 33.0236 15.6453L32.9696 13.5362C32.0944 13.3748 31.1976 13.3318 30.3115 13.6331C30.1062 15.2364 30.2575 16.786 30.2143 18.4108C30.2035 18.9381 30.5276 19.2179 31.0247 19.2179L37.497 19.2502C38.9233 19.2502 39.993 20.5414 40.0038 21.908V26.2123C40.0254 27.7296 39.0421 28.9455 37.5186 29.15C36.8379 29.2361 35.9734 28.9348 35.2927 29.2683L35.2603 29.3221Z" fill="#0DB14B"/>
</g>
<defs>
<clipPath id="clip0_56137_11805">
<rect width="62" height="58" fill="white"/>
</clipPath>
</defs>
</svg>
