<svg width="67" height="67" viewBox="0 0 67 67" fill="none" xmlns="http://www.w3.org/2000/svg">
<g clip-path="url(#clip0_56137_11818)">
<path d="M5.05657 66.0444L0.0214885 42.0516C-0.116775 41.3717 0.436278 40.8762 0.98933 40.7609L9.52708 38.9402C10.1262 38.8134 10.7138 39.1822 10.8406 39.7238L11.5895 43.0542C15.9794 40.0695 21.5099 39.5855 26.1878 42.0631L32.3751 45.3474C33.4927 45.9467 34.6564 45.9697 35.7971 45.3935L44.4961 40.9223C47.2729 39.4933 50.499 40.1847 52.4463 42.7315L59.6129 39.113C61.9518 37.926 64.7286 38.606 66.2726 40.6918C67.4478 42.3167 67.1252 44.4716 65.4199 45.6125L43.1365 60.5705C40.5211 62.3337 37.606 62.7716 34.4951 62.4259L21.3371 60.9623C19.194 60.7203 17.6155 61.1698 15.5185 61.7114C15.4724 62.5987 16.6822 64.7998 14.9885 65.157L6.46225 66.9893C5.86311 67.1161 5.21788 66.8511 5.05657 66.0674V66.0444ZM36.4884 47.5139C34.9214 48.3091 33.1585 48.2399 31.7068 47.4678L25.4504 44.1605C21.1066 41.8672 15.9563 42.3512 12.0849 45.4857L15.0346 59.4181L17.9842 58.7958C19.1709 58.623 20.3116 58.5769 21.5444 58.7152L34.8984 60.1902C37.4793 60.4783 39.8413 60.0865 42.0189 58.623L64.2101 43.7226C64.7401 43.3653 64.9015 42.7085 64.5788 42.1553C63.9106 41.0145 62.286 40.3115 60.984 40.9568L53.3219 44.8058C53.2067 46.108 52.6882 47.2028 51.5475 47.8712L38.7928 55.3848C36.4077 56.7907 33.5388 57.2862 30.8542 56.6639L19.1709 53.9097C19.2861 53.1146 19.4244 52.4462 19.6548 51.7432L31.3842 54.4974C33.7231 55.0506 36.1082 54.4168 38.1706 53.1952L50.3838 45.9582C50.9599 45.6125 51.2134 44.9326 50.8562 44.3449C49.7847 42.5356 47.5494 41.8787 45.6714 42.8352L36.4769 47.5255L36.4884 47.5139ZM8.93946 41.3141L2.40653 42.6854L7.00378 64.5809L13.5367 63.2095L8.93946 41.3141Z" fill="#0DB14B"/>
<path d="M7.65923 46.119C7.07161 46.2343 6.32269 46.6722 5.66594 46.4763C5.14745 46.1997 5.22811 45.1049 5.08984 44.5287C5.78116 44.2406 6.36878 44.16 7.15227 44.0332C7.45184 44.6555 7.44032 45.2663 7.64771 46.1306L7.65923 46.119Z" fill="#0DB14B"/>
<path d="M21.2318 11.6507L6.43768 26.4013C5.8155 26.0325 5.38919 25.5024 4.84766 24.8686L20.4138 9.28827C20.9553 8.81579 21.6351 8.88493 22.119 9.38046L29.0437 16.3063L41.7409 3.59546C42.2478 3.28431 42.8124 3.28431 43.2272 3.69917L52.5023 12.9413L63.091 2.32783L60.3027 2.23564V0H65.7871C66.5015 0 66.9969 0.495528 66.9969 1.21001V6.68387H64.7732L64.681 3.89508L53.2743 15.2807C52.8826 15.6264 52.1913 15.7762 51.788 15.3729L42.4322 6.03853L29.8387 18.6457C29.3433 19.0836 28.7211 19.0721 28.2487 18.6457L21.2434 11.6391L21.2318 11.6507Z" fill="#0DB14B"/>
<path d="M55.8342 37.9588H51.3637C50.7185 37.9588 50.2461 37.4517 50.2461 36.7949V20.2004C50.2461 19.4975 50.7531 19.002 51.4329 19.002H55.7536C56.4334 19.002 56.9519 19.4975 56.9519 20.212V36.8064C56.9519 37.4748 56.4679 37.9703 55.8342 37.9703V37.9588ZM54.7051 21.2261H52.4813V35.7347H54.7051V21.2261Z" fill="#0DB14B"/>
<path d="M35.7405 37.9593H31.27C30.6247 37.9593 30.1523 37.4522 30.1523 36.7954V22.425C30.1523 21.7221 30.6593 21.2266 31.3391 21.2266H35.6598C36.3396 21.2266 36.8581 21.7336 36.8581 22.425V36.7954C36.8581 37.4522 36.3857 37.9593 35.7405 37.9593ZM34.6113 23.4622H32.3876V35.7467H34.6113V23.4622Z" fill="#0DB14B"/>
<path d="M45.7874 37.9707H41.409C40.6947 37.9707 40.1992 37.4751 40.1992 36.7491V25.7784C40.1992 25.0524 40.6947 24.5684 41.409 24.5684H45.6837C46.398 24.5684 46.8935 25.0524 46.8935 25.7784V36.7491C46.8935 37.3945 46.5132 37.89 45.7874 37.9707ZM44.6697 26.804H42.4345V35.735H44.6697V26.804Z" fill="#0DB14B"/>
<path d="M25.6936 37.9701H21.3153C20.6009 37.9701 20.1055 37.4746 20.1055 36.7601V30.2491C20.1055 29.5346 20.6009 29.0391 21.3153 29.0391H25.5899C26.3043 29.0391 26.7997 29.5346 26.7997 30.2491V36.7601C26.7997 37.3939 26.4195 37.8894 25.6936 37.9701ZM24.5645 31.2747H22.3292V35.746H24.5645V31.2747Z" fill="#0DB14B"/>
</g>
<defs>
<clipPath id="clip0_56137_11818">
<rect width="67" height="67" fill="white"/>
</clipPath>
</defs>
</svg>
