<svg width="65" height="71" viewBox="0 0 65 71" fill="none" xmlns="http://www.w3.org/2000/svg">
<g clip-path="url(#clip0_56137_11830)">
<path d="M56.8991 27.4844C52.4398 27.4844 48.8086 31.159 48.8086 35.6717C48.8086 40.1844 52.4398 43.8698 56.8991 43.8698C61.3584 43.8698 65.0002 40.1952 65.0002 35.6717C65.0002 31.1483 61.369 27.4844 56.8991 27.4844ZM63.0041 35.6717C63.0041 39.0777 60.2648 41.8498 56.8991 41.8498C53.5334 41.8498 50.7941 39.0777 50.7941 35.6717C50.7941 32.2657 53.5334 29.4936 56.8991 29.4936C60.2648 29.4936 63.0041 32.2657 63.0041 35.6717Z" fill="#0DB14B"/>
<path d="M54.2872 26.9799L54.3722 27.1948L54.5951 27.141C55.264 26.9691 55.6038 26.8617 56.0179 26.4534L56.1453 26.3245L56.0816 26.1633C53.4591 19.6843 48.4901 14.6559 42.0772 12.0127L41.886 11.9375L41.7586 12.0987C41.3658 12.6144 41.1853 13.0549 41.1641 13.5922V13.7856L41.3233 13.8608C47.2479 16.332 51.8452 20.9952 54.2872 26.9906V26.9799Z" fill="#0DB14B"/>
<path d="M26.3103 8.12288H26.512C27.0429 8.1766 27.5632 8.19809 28.094 8.19809C28.6249 8.19809 29.1452 8.1766 29.7079 8.14437H29.7928L29.8565 8.09065C30.2069 7.81129 30.483 7.43523 30.759 7.06991C31.1412 6.56492 31.4916 6.09216 31.9163 6.05993L34.1247 5.86653C35.0591 5.78057 35.7598 4.95324 36.45 4.15814C36.7048 3.85729 36.9702 3.5457 37.2463 3.27709L37.3737 4.28708L37.5436 4.33005C37.7453 4.38378 38.5841 4.5342 38.9769 4.28708C39.1362 4.19038 39.1893 4.06144 39.1999 3.95399C39.3379 3.11592 39.2954 2.31008 39.2636 1.53647C39.2423 1.12818 39.2317 0.70914 39.2317 0.279358V0L34.9741 0.0429782L34.9529 0.290103C34.9529 0.386804 34.9317 0.483505 34.921 0.580206C34.868 0.956265 34.8149 1.3753 35.0378 1.74062C35.1759 1.96625 35.3882 2.00923 35.5793 2.03072C35.3988 2.20263 35.2183 2.3638 35.0485 2.52497C34.5282 3.01922 34.0398 3.48123 33.4665 3.85729C33.2223 4.01846 32.8613 3.97548 32.479 3.94325C32.0543 3.90027 31.5659 3.85729 31.1625 4.08293C30.6953 4.3408 30.3449 4.74909 29.9946 5.1359C29.6442 5.53344 29.315 5.92025 28.8903 6.10291C28.593 6.23184 28.2321 6.19961 27.8498 6.16737C27.372 6.12439 26.873 6.07067 26.4059 6.37152C26.0236 6.69386 26.1617 7.36002 26.2572 7.84352L26.3103 8.13363V8.12288Z" fill="#0DB14B"/>
<path d="M36.5022 6.69336H34.5273V16.2023H36.5022V6.69336Z" fill="#0DB14B"/>
<path d="M33.5217 8.99414H31.5469V16.2037H33.5217V8.99414Z" fill="#0DB14B"/>
<path d="M30.5351 11.0234H28.5391V16.2023H30.5351V11.0234Z" fill="#0DB14B"/>
<path d="M54.6054 44.5371L54.3931 44.5049L54.3081 44.6983C52.8854 48.1473 50.8787 51.0483 48.3518 53.3369C48.3518 53.2832 48.3305 53.2187 48.3305 53.1543C48.2881 52.8427 48.235 52.4666 47.874 52.3162L40.325 49.3507C39.9003 49.0821 36.5664 46.0521 36.5664 44.9562C36.5664 44.8487 36.6089 44.8057 36.6301 44.7843C39.465 43.4412 41.4823 40.8518 42.045 37.8325C43.2448 37.4242 44.0623 36.5002 44.2534 35.3291C44.4445 34.1149 43.9774 33.019 42.9262 32.2024C43.6589 30.6014 44.3171 28.6997 43.9137 26.6582C43.4677 24.4448 41.7796 22.7042 39.2738 21.8769C38.3926 20.2867 36.8743 19.2337 34.7614 18.7287C31.47 17.9551 28.4547 18.3312 25.7791 19.8462C21.9143 22.0488 20.6402 26.583 22.3496 32.009C21.0649 32.8148 20.4597 34.0397 20.7039 35.415C20.9163 36.6077 21.84 37.5639 23.1035 37.9077C23.783 41.6361 26.3843 43.742 28.4759 44.8595C28.5396 44.8917 28.5608 44.9239 28.5608 44.9777C28.6564 45.9017 25.3544 48.9746 24.8872 49.3399L17.1683 52.3807C16.8392 52.5418 16.8073 52.8856 16.7755 53.165C16.7755 53.2295 16.7649 53.3047 16.7542 53.3692C14.2485 51.1235 12.2312 48.2118 10.7554 44.6876L10.6704 44.4942L10.4581 44.5371C9.94846 44.6338 9.47068 44.7198 9.01413 45.1496L8.88672 45.2785L8.95042 45.4504C10.5112 49.4152 12.9957 52.8534 16.3295 55.7007L13.569 71.0332H51.537L48.7977 55.6792C52.0891 52.8856 54.5523 49.4689 56.1343 45.5041L56.1981 45.3322L56.06 45.2033C55.6566 44.8165 55.1894 44.6768 54.6161 44.5801L54.6054 44.5371ZM22.838 35.501C22.6151 35.2753 22.6045 34.8993 22.6151 34.8133C22.6151 34.7596 22.6363 34.362 22.838 34.1364C22.8805 34.6414 22.8805 35.0497 22.838 35.501ZM15.9261 68.9917L18.6548 53.8527L24.5899 51.7252L24.9403 63.5657L31.4806 68.938L15.9367 68.9917H15.9261ZM33.5829 68.9702L40.1445 63.598L40.4099 51.693L46.4194 53.8956L49.1375 68.9595L33.5723 68.981L33.5829 68.9702ZM42.3211 34.8133C42.3211 34.996 42.2786 35.1679 42.1724 35.3291C42.1512 34.9745 42.1512 34.6521 42.1724 34.3191C42.2573 34.4695 42.3104 34.6414 42.3104 34.8133H42.3211ZM26.9045 58.9026L27.0425 59.2142L29.251 57.5058C29.7818 59.9878 29.6544 60.482 29.2934 61.8144C29.1448 62.3731 28.9643 63.0392 28.7838 64.0385C28.3485 63.7484 27.9663 63.4261 27.5628 63.093C27.3505 62.9103 27.1275 62.7384 26.9045 62.5557L26.8196 58.6662C26.8514 58.7414 26.8727 58.8166 26.9045 58.8919V58.9026ZM28.1468 55.7007L26.6816 50.4359L28.6776 48.3729L31.2683 53.0683L28.1468 55.7115V55.7007ZM33.8059 53.0683L36.3965 48.3407L38.3926 50.4574L36.9699 55.7222C36.1948 55.1742 35.5047 54.5618 34.7827 53.9171C34.4641 53.6378 34.1456 53.3477 33.8059 53.0683ZM33.413 49.6515C33.137 50.1028 32.8397 50.5863 32.5318 51.1665C32.3831 50.8979 32.2345 50.64 32.0752 50.3822C31.47 49.3399 30.9073 48.3622 30.4401 47.277C30.2915 46.9332 30.334 46.5034 30.387 46.0521C30.4083 45.848 30.4295 45.6331 30.4295 45.4289C31.916 45.7298 33.1794 45.7298 34.6446 45.4289C34.857 47.2555 34.273 48.2333 33.3918 49.673L33.413 49.6515ZM33.6041 58.8489C32.8291 58.9563 32.1814 58.9241 31.5443 58.8596C31.2789 57.9034 31.1303 57.0223 30.9498 56.0016C31.3745 55.5718 31.8204 55.2172 32.33 54.8089L32.5211 54.6478C33.0096 54.9593 33.4236 55.3569 33.8696 55.7652L34.135 56.0123L33.6041 58.8489ZM31.332 61.5995C32.0646 61.5565 32.8078 61.5565 33.6891 61.5995L34.5703 65.3816C34.1669 65.8006 33.7528 66.1122 33.3175 66.4453C33.0626 66.6387 32.8078 66.8321 32.553 67.047C31.8204 66.5097 31.1727 65.994 30.5463 65.4353L31.3426 61.5995H31.332ZM38.2227 58.6447L38.1909 62.4805C37.5751 63.0822 37.0017 63.555 36.3116 64.017C36.1629 63.3508 36.0249 62.8029 35.8975 62.3086C35.4516 60.6217 35.2392 59.7944 35.8656 57.5273L37.8299 59.1067L37.9998 58.9456C38.0953 58.8489 38.1696 58.7522 38.2227 58.6555V58.6447ZM24.9934 32.514C25.0996 31.8801 25.8215 31.3643 27.1593 30.9775C28.3379 30.6337 29.3678 30.5585 30.3446 30.5585C30.7162 30.5585 31.0772 30.5585 31.4382 30.58C33.5935 30.6444 35.4516 30.6982 37.7449 28.3881C38.9447 30.0427 39.7304 31.6866 40.1551 33.4058C40.3037 34.0182 40.2613 34.6521 40.2188 35.3291C40.1869 35.8448 40.1551 36.3713 40.2188 36.8225C39.7092 40.8088 36.577 43.6131 32.6167 43.6346H32.5742C28.9431 43.6346 25.8852 41.26 25.1314 37.8433C24.7598 36.1671 24.7173 34.3191 25.0146 32.514H24.9934ZM37.0867 25.8738L36.9911 26.035C35.9824 27.7864 34.2518 28.7104 32.2451 28.56C29.389 28.3451 25.8109 28.7319 23.9847 30.408C23.2946 27.7004 22.9973 23.3166 27.3186 21.2537C29.5376 20.19 32.0646 20.0503 34.8464 20.8132C36.2373 21.2 37.2353 22.081 37.7343 23.3596L37.7874 23.4886L37.9148 23.5208C39.9534 24.0688 41.2593 25.0573 41.7689 26.4433C42.3635 28.0335 41.8433 29.6774 41.3442 30.7304C41.2487 30.5477 41.1531 30.3436 41.0576 30.1394C40.2188 28.3988 39.1783 26.2284 37.2671 25.8953L37.0867 25.8631V25.8738Z" fill="#0DB14B"/>
<path d="M45.583 64.8438H39.2656V66.81H45.583V64.8438Z" fill="#0DB14B"/>
<path d="M56.1686 30.5258L55.9775 30.5795L55.9244 35.5328L52.8984 37.6495L52.9834 37.8536C53.1639 38.2941 53.3868 38.7561 53.8859 39.143L54.0345 39.2611L57.9523 36.5857V30.5688L57.7612 30.5151C57.1773 30.3647 56.6889 30.3754 56.1686 30.5151V30.5258Z" fill="#0DB14B"/>
<path d="M16.1927 35.6717C16.1927 31.159 12.5615 27.4844 8.10221 27.4844C3.64289 27.4844 0.0117188 31.159 0.0117188 35.6717C0.0117188 40.1844 3.64289 43.8591 8.10221 43.8591C12.5615 43.8591 16.1927 40.1844 16.1927 35.6717ZM14.1966 35.6717C14.1966 39.0777 11.4573 41.8498 8.09159 41.8498C4.72586 41.8498 1.98656 39.0777 1.98656 35.6717C1.98656 32.2657 4.72586 29.4936 8.09159 29.4936C11.4573 29.4936 14.1966 32.2657 14.1966 35.6717Z" fill="#0DB14B"/>
<path d="M10.2893 27.1303C10.3955 27.1303 10.5017 27.1303 10.6185 27.0981L10.7565 27.0658L10.8096 26.9369C13.2091 20.9952 17.7959 16.3428 23.7204 13.85L23.9009 13.7748L23.8797 13.5814C23.8266 13.0012 23.6992 12.5177 23.2745 12.0664L23.147 11.9375L22.9772 12.002C16.5642 14.6666 11.5847 19.7058 8.95152 26.1955L8.89844 26.3245L8.98338 26.4426C9.28067 26.8832 9.75845 27.1303 10.2787 27.1303H10.2893Z" fill="#0DB14B"/>
<path d="M8.36936 34.8882C7.70046 34.6733 7.53058 34.5766 7.56243 34.2005C7.58367 33.8782 7.70046 33.7492 8.00836 33.6955C8.30565 33.6525 8.32689 33.6955 8.43306 33.9104C8.66664 34.3724 8.99579 34.7592 10.323 34.4369L10.5247 34.3832V34.1683C10.5141 32.9649 9.8558 32.3847 9.08073 31.8152C9.04887 31.7723 9.05949 31.5788 9.07011 31.4821C9.08073 31.2243 9.10196 30.9342 8.88961 30.7515C8.52862 30.4292 7.61552 30.4292 7.26514 30.7515C7.07403 30.9342 7.08465 31.2135 7.09526 31.4607C7.09526 31.5681 7.10588 31.74 7.09526 31.783C6.47945 32.202 5.87426 32.707 5.64067 33.5129C5.03548 35.651 6.57501 36.2742 7.59428 36.6933C8.36936 37.0156 8.6985 37.1875 8.64541 37.5313C8.60294 37.7999 8.42244 37.9826 8.13577 38.0148C7.93404 38.0471 7.91281 38.0041 7.79601 37.8107C7.53058 37.4024 7.1802 37.0156 5.93796 37.2627L5.74685 37.2949L5.72561 37.4884C5.58759 38.6165 6.30957 39.2505 7.05279 39.8092C7.10588 39.8522 7.09526 40.067 7.09526 40.2067C7.08465 40.4646 7.06341 40.7439 7.26514 40.9374C7.44564 41.12 7.79601 41.206 8.12516 41.206C8.26318 41.206 8.39059 41.1952 8.50738 41.163C8.84714 41.077 8.97455 40.8836 9.02764 40.7439C9.10196 40.5183 9.09134 40.2819 9.09134 40.0993C9.09134 40.0026 9.09134 39.8629 9.09134 39.8307C9.89827 39.3901 10.3867 38.8099 10.5778 38.0578C10.8008 37.166 10.5884 36.3494 9.99383 35.737C9.47357 35.2105 8.86838 35.0171 8.37997 34.8667L8.36936 34.8882Z" fill="#0DB14B"/>
</g>
<defs>
<clipPath id="clip0_56137_11830">
<rect width="65" height="71" fill="white"/>
</clipPath>
</defs>
</svg>
