<svg width="60" height="63" viewBox="0 0 60 63" fill="none" xmlns="http://www.w3.org/2000/svg">
<g clip-path="url(#clip0_56137_12021)">
<path d="M30.0041 47.1038C38.7259 47.1038 45.8169 40.1061 45.8169 31.4992C45.8169 22.8922 38.7259 15.8945 30.0041 15.8945C21.2824 15.8945 14.1914 22.8922 14.1914 31.4992C14.1914 40.1061 21.2824 47.1038 30.0041 47.1038ZM29.0467 39.369V45.0377C27.3003 44.5394 25.7117 41.5285 25.1961 39.722C26.4376 39.4624 27.679 39.3378 29.0467 39.369ZM22.0189 32.4336C22.1241 34.4581 22.3134 36.2543 22.7974 38.2581C21.3666 38.6734 20.1146 39.099 18.81 39.6805C17.1688 37.4483 16.243 34.9565 16.1378 32.4232H22.0189V32.4336ZM20.1356 21.8332C21.7664 20.2343 23.5759 19.1234 25.5118 18.5213C24.5333 19.9021 23.7969 21.1999 23.3129 22.8507C22.1451 22.7053 21.1246 22.2797 20.1356 21.8228V21.8332ZM23.9442 30.5648C23.9757 28.7063 24.2072 26.9517 24.6491 25.0933C26.0483 25.3425 27.3845 25.4255 28.8048 25.5086H29.0467L29.0678 30.5336L23.9547 30.5648H23.9442ZM23.9547 32.4336H29.0467L29.0678 37.4483C28.647 37.4898 28.2366 37.5209 27.8263 37.5521C26.7427 37.6351 25.7222 37.7182 24.6491 37.9051C24.2072 36.0259 23.9863 34.2816 23.9547 32.444V32.4336ZM23.2603 40.1061C23.839 41.7777 24.5544 43.1585 25.5118 44.4875C23.5023 43.8334 21.7348 42.7432 20.1356 41.1651C21.0404 40.7395 21.9873 40.4176 23.2603 40.1061ZM25.1961 23.266C25.7643 21.3141 27.2687 18.5732 29.0362 17.9502L29.0678 23.6086C27.679 23.6917 26.4166 23.4944 25.1961 23.266ZM16.1378 30.5752C16.243 28.0419 17.1583 25.5397 18.7995 23.3075C20.1777 23.8889 21.3876 24.3561 22.7658 24.6884C22.3134 26.8064 22.082 28.5714 22.0294 30.5129L16.1378 30.5648V30.5752ZM37.1898 24.7195C38.547 24.3354 39.799 23.9408 41.1456 23.2971C42.7448 25.384 43.6601 27.8031 43.8705 30.5129L37.9684 30.5648C37.8526 28.2807 37.6107 26.5053 37.1898 24.7195ZM43.8495 32.4232C43.7443 34.915 42.85 37.3548 41.1982 39.6701C40.9247 39.5662 40.6512 39.4624 40.3881 39.3586C39.3466 38.9537 38.3576 38.5592 37.2109 38.2892C37.6422 36.3166 37.8842 34.4478 37.9684 32.4336H43.8495V32.4232ZM39.8621 41.1547C38.2524 42.7432 36.4744 43.8334 34.4755 44.4771C35.5486 42.9613 36.2324 41.6012 36.6954 40.1061C37.7264 40.293 38.7048 40.6149 39.8621 41.1444V41.1547ZM30.951 30.5648V25.519L31.3508 25.4982C32.708 25.4151 34.002 25.3321 35.3382 25.0933C35.759 26.8271 35.9799 28.4779 36.0536 30.5232L30.9405 30.5648H30.951ZM36.0431 32.4336C36.001 34.2505 35.7906 35.9117 35.3487 37.8843C33.9389 37.6663 32.5922 37.5521 30.951 37.4586V32.444H36.0431V32.4336ZM34.4755 18.5005C36.4639 19.1338 38.2314 20.224 39.8411 21.8125C38.9152 22.2797 37.9263 22.6119 36.6954 22.8715C36.2219 21.3556 35.5381 20.0059 34.4755 18.5005ZM30.9405 23.6294V17.9502C31.7085 18.2098 32.224 18.7497 32.7501 19.3103C33.6548 20.4939 34.3177 21.7502 34.8016 23.266C33.5707 23.5255 32.3082 23.6294 30.9405 23.6294ZM34.7806 39.7012C34.4123 41.0509 33.7285 42.3695 32.7185 43.7192L32.6449 43.7919C32.1083 44.3317 31.6243 44.8197 30.9405 45.0377V39.3586C32.2345 39.3378 33.4444 39.452 34.77 39.7012H34.7806Z" fill="#0DB14B"/>
<path d="M56.506 43.5641C60.9668 33.9293 59.7675 22.7164 53.3603 14.2548C47.2477 6.18772 37.2425 1.83752 27.1215 2.83422C27.2267 2.69925 27.3424 2.5539 27.4581 2.40855C27.9737 1.77523 28.5102 1.12114 28.3524 0.581258C28.3103 0.415141 28.1736 0.197112 27.8158 0.0621413C27.3845 -0.0935938 26.9321 0.0309943 26.6691 0.383994L24.2388 3.49869C23.9337 3.89322 23.9968 4.46425 24.3966 4.76534L27.5633 7.17404C27.9842 7.49589 28.5207 7.39207 28.7943 7.11175C29.0047 6.89372 29.0889 6.66531 29.0678 6.41613C29.0152 5.85548 28.3629 5.39866 27.7317 4.9626C27.6054 4.87954 27.4792 4.7861 27.374 4.70304C36.7795 3.77902 46.101 7.80736 51.8243 15.3138C57.8211 23.194 58.9994 33.5867 54.9068 42.5051C51.6244 40.7505 48.0789 40.7505 44.8911 42.5259C42.0294 44.1248 40.1041 47.1149 39.8727 50.3334C39.6833 52.9809 40.5776 55.535 42.3871 57.5284C44.2072 59.5425 46.8164 60.7573 49.5202 60.8611C49.657 60.8611 49.7938 60.8611 49.941 60.8611C52.5081 60.8611 54.9489 59.9163 56.8427 58.1617C58.8206 56.3344 59.9463 53.8738 60.0094 51.2055C60.0831 48.3504 58.8837 45.7029 56.5271 43.5537L56.506 43.5641ZM46.6586 54.2579C45.3435 54.4656 44.2493 55.0677 43.4076 56.0541C40.8406 52.8148 41.1878 48.1427 44.2493 45.2772C45.8379 43.7925 47.8895 43.045 49.941 43.045C51.9926 43.045 53.9284 43.751 55.496 45.1734C58.6312 48.0285 59.0205 52.7421 56.4429 56.0437C54.1914 53.2197 47.9421 54.0503 46.6691 54.2579H46.6586ZM46.3114 56.3136C48.4576 55.7737 53.8969 55.3792 55.0647 57.4661C52.0768 59.8644 47.7212 59.8644 44.7648 57.4661C45.1225 56.8743 45.6486 56.4797 46.3114 56.3136Z" fill="#0DB14B"/>
<path d="M49.9109 44.873C47.4701 44.873 45.4922 46.8353 45.4922 49.2336C45.4922 51.6319 47.4701 53.5942 49.9109 53.5942C52.3517 53.5942 54.3296 51.6423 54.3296 49.2336C54.3296 46.8249 52.3517 44.873 49.9109 44.873ZM52.236 49.4932C52.215 50.8844 51.3417 51.7669 49.953 51.7773H49.9109C48.5748 51.7773 47.6805 50.9882 47.5648 49.7216C47.4596 48.4965 47.7226 47.6347 48.3433 47.1572C48.7641 46.8353 49.3217 46.6796 49.8899 46.6796C50.458 46.6796 50.9946 46.8353 51.4364 47.1364C52.1518 47.6451 52.2465 48.5692 52.2255 49.4932H52.236Z" fill="#0DB14B"/>
<path d="M32.3304 55.7629C32.1515 55.6279 31.9306 55.576 31.6886 55.6072C31.4361 55.6383 31.2047 55.7733 31.0784 55.9498C30.8259 56.2924 30.7838 56.8634 31.1836 57.1749L32.5829 58.2858C23.2299 59.241 13.9295 55.2334 8.18519 47.6958C2.20939 39.8572 1.03106 29.4541 5.07104 20.4733C9.66862 23.0066 15.455 21.6466 18.3588 17.286C21.3151 12.8527 20.2104 6.95555 15.8443 3.872C11.4887 0.798826 5.31302 1.68132 2.0621 5.86541C-1.1783 10.0287 -0.536537 15.9466 3.49292 19.4247C-0.97841 29.0388 0.220959 40.2621 6.63863 48.7341C12.7407 56.8011 22.7565 61.1306 32.888 60.1546C32.7828 60.3 32.6565 60.4557 32.5303 60.6218C32.0358 61.2344 31.5308 61.8573 31.6781 62.3972C31.7412 62.6464 31.9306 62.8229 32.2252 62.9371C32.3199 62.9786 32.4356 62.9994 32.5618 62.9994C32.8459 62.9994 33.151 62.8852 33.3614 62.6152L35.7707 59.4902C36.0863 59.0749 36.0021 58.5142 35.5708 58.1924L32.3409 55.7629H32.3304ZM1.87272 11.8456C1.87272 7.37084 5.55499 3.73703 10.0894 3.73703C14.6239 3.73703 18.3062 7.37084 18.3062 11.8456C18.3062 16.3204 14.6239 19.9542 10.0894 19.9542C5.55499 19.9542 1.87272 16.31 1.87272 11.8456Z" fill="#0DB14B"/>
<path d="M10.9011 17.0273C10.9327 16.9442 10.9748 16.7988 11.0169 16.7781C12.6265 15.906 13.3209 14.6808 13.0158 13.2377C12.7317 11.9191 11.5324 10.9536 10.0805 10.9017C9.76488 10.8913 9.49134 10.7771 9.29145 10.5591C9.09155 10.3514 8.99686 10.0607 9.00739 9.75962C9.02843 9.16782 9.49134 8.73177 10.1015 8.73177C10.8485 8.73177 11.0063 9.11591 11.1852 9.73885C11.3114 10.1749 11.4798 10.7148 12.1005 10.7356C12.5634 10.7667 13.0158 10.3722 13.0579 9.88421C13.1947 8.4203 12.1531 7.68315 11.2483 7.02906L11.0274 6.86295C11.0274 6.86295 10.9537 6.71759 10.9222 6.62415C10.8485 6.38536 10.6907 5.93892 10.1121 5.95968C9.51238 5.98045 9.35457 6.44765 9.24936 6.75912C9.22832 6.81104 9.2178 6.86295 9.19676 6.91486C7.70281 7.67277 6.97687 8.80444 7.12417 10.1022C7.2925 11.5454 8.44978 12.6459 9.87009 12.729C10.5224 12.7705 11.2062 13.082 11.2167 13.8503C11.2167 14.4213 10.7118 14.93 10.1331 14.9404H10.1015C9.32301 14.9404 9.20728 14.5147 9.04947 13.9852C8.92322 13.5388 8.73384 12.9055 7.98687 12.9574C7.50291 12.9781 7.15573 13.3519 7.13469 13.871C7.07156 15.2103 7.96583 15.8852 8.75489 16.4874C8.9127 16.6016 9.05999 16.7262 9.2178 16.8404C9.29145 16.9027 9.33353 17.0065 9.38613 17.1207C9.48082 17.3491 9.62811 17.7125 10.1121 17.7125C10.1752 17.7125 10.2488 17.7125 10.333 17.6917C10.7433 17.619 10.859 17.2557 10.9432 17.0065L10.9011 17.0273Z" fill="#0DB14B"/>
</g>
<defs>
<clipPath id="clip0_56137_12021">
<rect width="60" height="63" fill="white"/>
</clipPath>
</defs>
</svg>
