<svg width="64" height="64" viewBox="0 0 64 64" fill="none" xmlns="http://www.w3.org/2000/svg">
<g clip-path="url(#clip0_56137_12029)">
<path d="M2.95095 13.2479C4.47874 13.1537 5.96468 13.0177 6.02747 14.0746C6.05886 14.6187 5.71354 15.0687 5.07521 15.0687H3.24395C2.4068 15.0687 1.83126 15.6861 1.83126 16.5337V31.7802C1.83126 32.5965 2.46959 33.1092 3.24395 33.1092H10.8934C11.605 33.1092 12.2224 33.308 12.777 33.7057L18.2917 37.6717C18.4277 36.8764 18.3336 36.2799 18.3545 35.6102C18.3963 34.2498 19.3486 33.1406 20.7194 33.1302L22.5402 33.1092C23.3146 33.1092 23.8797 32.6069 23.8797 31.7907V16.3558C23.8797 15.6024 23.2623 15.0791 22.5298 15.0791H9.44931C8.84238 15.0687 8.52845 14.5245 8.55984 14.085C8.65402 12.5991 11.4375 13.4781 12.8398 13.1851C18.5742 7.34598 26.2969 4.18574 34.6161 4.2276C34.2603 2.09287 35.4323 0.0104644 37.6298 0.0104644L57.2714 0C58.9876 0 60.3689 1.3813 60.3689 3.07652L60.3898 18.7103C60.3898 18.9614 60.1387 19.4114 60.2538 19.5997C65.7371 29.5723 65.1929 41.8365 58.6318 51.1916C58.2969 51.6625 57.7319 51.7462 57.3237 51.4951C56.9366 51.2544 56.7482 50.6266 57.0726 50.1661C63.0059 41.6586 63.7803 30.5978 59.019 21.3054C58.0458 21.7449 57.397 21.881 55.9634 21.7973C58.7783 25.8784 57.261 30.2106 55.3041 33.9464C54.5298 39.2518 55.4088 44.8921 54.9902 50.3231C54.8646 51.9765 53.5984 53.1694 51.9451 53.1799L43.8038 53.2217C43.6364 53.2217 43.5003 53.3473 43.4585 53.3996C43.1445 53.7449 46.9222 58.0458 47.4245 58.7574C50.1243 57.3447 52.3636 55.5029 54.467 53.3891C54.7704 53.0857 55.4088 53.2113 55.6704 53.4519C55.9111 53.6717 56.1517 54.2891 55.7541 54.7077C47.2884 63.6024 34.2917 66.4696 22.739 61.7397C12.0445 57.3656 4.56246 46.8803 4.26946 34.9405C2.1138 35.4009 0.0209287 34.1452 0.0209287 31.9791L0 16.3558C0 14.692 1.27665 13.3525 2.95095 13.2479ZM36.4787 15.1838V18.5324C36.4892 19.2963 36.9601 19.8823 37.7345 19.8927L39.639 19.9137C41.0726 19.9346 42.0353 21.1066 42.0144 22.5193C42.0144 23.1472 41.9516 23.7227 42.0876 24.4238L47.707 20.4055C48.2302 20.0288 48.7953 19.8927 49.4545 19.8927H57.1982C57.9516 19.8927 58.5271 19.3067 58.5271 18.5114V3.26488C58.5271 2.41727 57.8993 1.84173 57.0621 1.84173H37.8286C36.9915 1.84173 36.4892 2.46959 36.4787 3.24395V10.6736C36.4787 11.2387 35.9974 11.6468 35.537 11.6468C35.0451 11.6468 34.6056 11.291 34.5952 10.705L34.5428 6.15304C31.1315 6.07979 27.8666 6.61347 24.7168 7.76455C26.7783 10.4225 27.7724 14.242 25.7946 17.0778V25.5749C27.1027 26.6423 28.6409 27.2387 30.3362 27.1864C33.5487 27.1027 35.9974 24.4761 36.0706 21.3054C35.2544 20.6985 34.6161 19.8823 34.6161 18.8463V15.0896C34.6056 14.5245 35.0765 14.1687 35.537 14.1687C35.9974 14.1687 36.4787 14.5245 36.4787 15.1733V15.1838ZM22.9065 13.2479C23.7227 13.2479 24.2564 13.7292 24.968 14.106C25.0935 11.9294 24.2773 10.0353 22.8332 8.51799C20.2067 9.67953 17.8313 11.1655 15.6233 13.1746L22.9065 13.2583V13.2479ZM41.7737 54.5821L37.3787 57.7214C36.8555 58.0981 36.1648 58.0144 35.6521 57.7528C34.1975 56.9784 35.1812 54.6658 34.6579 53.4729C34.4382 53.0334 33.4232 53.2112 32.8999 53.2322C31.1629 53.2845 29.3525 52.2276 29.3421 50.3545L29.2793 37.0857C26.7574 38.4251 27.3224 41.6272 26.0876 41.847C25.5958 41.9307 25.261 41.7319 25.0307 41.3761C24.654 40.8005 25.3237 40.2459 25.3133 39.7018C25.3028 37.6508 27.9189 36.2485 28.9339 34.7207C29.949 33.1929 30.1269 31.3303 32.8162 31.3512L42.9562 31.4245C43.2596 27.7724 46.3885 27.7829 46.5873 23.6076L42.9039 26.2132C42.3702 26.5899 41.7737 26.726 41.1249 26.4434C39.4088 25.7109 40.5703 23.2518 39.9948 22.017C39.5029 21.6403 38.5507 21.8182 37.9333 21.9124C37.7135 24.7063 36.0183 27.0399 33.7999 28.2119C31.1942 29.5932 28.3898 29.3421 25.847 27.9398L25.7842 32.0209C25.7528 34.0196 23.9634 35.2544 21.9961 35.0556C21.5566 35.0137 20.6252 34.9405 20.395 35.2858C19.8509 36.6985 20.9601 38.7914 19.3381 39.6494C18.7417 39.9634 18.1661 39.8587 17.5906 39.5029C15.4349 38.1321 13.5304 36.3427 11.291 35.1393C9.64814 34.8149 7.84827 35.1812 6.16351 35.0661C6.27861 38.9588 7.17855 42.5167 8.79006 46.0536C9.9516 45.1956 11.1236 44.3165 12.4735 43.8666C14.4303 43.2178 15.9058 44.0445 17.172 45.4258C18.8777 47.2884 21.9647 46.6292 23.2937 44.6305C23.6599 44.0759 24.361 44.0235 24.8005 44.4212C25.1563 44.7351 25.1145 45.3211 24.7901 45.7816C22.6972 48.743 18.2812 49.3813 15.7384 46.6815C14.8385 45.7292 14.0013 45.1118 12.6305 45.8025C11.6468 46.3048 10.569 46.964 9.72139 47.8221C16.8581 60.5572 32.5651 65.6743 45.7188 59.6364C44.2642 57.8574 42.998 56.3296 41.7842 54.6135L41.7737 54.5821ZM52.2904 31.4245C53.0229 31.4245 53.4624 31.8326 53.9961 32.1674C56.1936 29.0177 56.2354 24.8319 53.7345 21.8391C52.1648 21.7763 50.6789 21.8077 49.0988 21.8182C47.9163 21.8182 49.6743 25.6691 45.7188 29.5095C45.2374 29.9699 44.9235 30.5664 44.9339 31.3512L52.2904 31.4245ZM42.7678 51.5893C43.1027 51.3591 43.5213 51.3381 43.8247 51.3381H51.83C52.6148 51.3172 53.2113 50.7417 53.2008 49.9464V34.5847C53.2008 33.7685 52.5834 33.2871 51.809 33.2871H32.5441C31.7802 33.2871 31.1524 33.7789 31.1524 34.5847V49.9464C31.1524 50.7521 31.7593 51.3277 32.5232 51.3277H34.187C35.4637 51.3277 36.5206 52.2067 36.6566 53.4729C36.7508 54.2891 36.5311 55.0634 36.7822 55.8378L42.7574 51.5893H42.7678Z" fill="#0DB14B"/>
<path d="M15.6547 27.9493H10.1714C9.5435 28.933 9.51211 31.0049 8.17267 30.6177C7.68084 30.4712 7.37738 29.9376 7.58666 29.362L11.7096 18.4163C11.9189 17.8722 12.327 17.5792 12.8188 17.5687C13.3107 17.5582 13.7816 17.7989 13.9908 18.343L18.1975 29.4248C18.3963 29.9376 18.051 30.4712 17.6429 30.6073C17.1929 30.7538 16.6488 30.6073 16.4395 30.0527L15.6442 27.9493H15.6547ZM14.8699 25.9297L12.8502 20.8022L10.9248 26.0239C12.4317 26.0239 13.6141 26.1809 14.8699 25.9297Z" fill="#0DB14B"/>
<path d="M47.4995 14.8692C45.9508 16.2923 44.3288 17.1923 42.4767 17.9248C41.8906 18.1655 41.2837 17.9352 41.1058 17.3074C40.9698 16.8051 41.3465 16.3447 41.922 16.1144C43.5126 15.4761 44.9776 14.6913 46.2229 13.4565C44.9567 11.8345 44.13 10.0974 43.6696 8.16153C42.7278 7.89993 40.8128 8.53825 40.7814 7.15696C40.771 6.61281 41.2209 6.18377 41.8174 6.18377L46.5054 6.16284C46.7043 5.32569 46.1706 3.80836 47.3949 3.70372C47.9809 3.6514 48.4204 4.05951 48.4309 4.7083L48.4518 6.16284L53.2654 6.2047C53.7991 6.2047 54.1339 6.59188 54.1967 7.02092C54.2595 7.51274 53.9561 7.9941 53.391 8.07782C52.7003 8.18246 52.0411 7.99411 51.3295 8.18246C50.8481 10.1288 50.0424 11.8241 48.7971 13.4565C50.0215 14.7436 51.5283 15.497 53.1084 16.1354C53.684 16.3761 53.977 16.8051 53.8409 17.3492C53.6944 17.9771 53.0247 18.155 52.4178 17.8934C50.6284 17.14 49.0169 16.3028 47.4995 14.8692ZM49.3413 8.13014C47.8449 8.08828 46.8403 8.04643 45.6264 8.15107C45.9822 9.58469 46.5682 10.8299 47.51 12.002C48.3681 10.809 49.0692 9.55329 49.3308 8.13014H49.3413Z" fill="#0DB14B"/>
<path d="M46.2124 43.3543H42.5603C43.0417 44.5577 42.9161 45.8134 42.1627 46.8075C39.871 49.8317 33.0901 47.0063 34.2098 45.2065C34.44 44.8402 35.0574 44.5263 35.455 44.8925C36.5329 45.8867 37.8095 46.2529 39.2955 46.2634C40.2058 46.2634 40.9384 45.7611 40.9802 44.8298C41.0116 44.0449 40.3837 43.3334 39.4524 43.3229H36.5433C35.9678 43.3229 35.6329 42.9043 35.6015 42.4543C35.5597 41.8997 35.905 41.4498 36.5433 41.4393H39.4629C40.3 41.4393 40.9174 40.801 40.9698 40.0789C41.0221 39.315 40.4989 38.5407 39.6512 38.5302L36.7526 38.4884C36.2085 38.4884 35.8631 37.9756 35.8736 37.5361C35.8841 37.0757 36.2399 36.6257 36.7945 36.6257H39.4524C40.6349 36.6048 41.6604 37.2012 42.2569 38.0593C42.9475 39.0639 43.0312 40.2254 42.5499 41.4184C43.8161 41.4602 44.9253 41.4812 46.2019 41.3974C46.2333 40.487 46.3066 39.6394 46.1915 38.7081C46.1287 38.2058 44.2556 39.043 44.0881 37.6721C44.0253 37.128 44.4544 36.6152 45.1241 36.6152H49.2471C49.854 36.6152 50.2726 37.0233 50.283 37.5466C50.2935 38.0698 49.8854 38.4988 49.2784 38.5197C48.9122 38.5302 48.5983 38.4674 48.1588 38.6035L48.1378 47.0901C48.1378 47.697 47.6983 48.126 47.1856 48.126C46.6728 48.126 46.2438 47.7074 46.2333 47.1005L46.2124 43.3647V43.3543Z" fill="#0DB14B"/>
</g>
<defs>
<clipPath id="clip0_56137_12029">
<rect width="64" height="64" fill="white"/>
</clipPath>
</defs>
</svg>
