<svg width="61" height="61" viewBox="0 0 61 61" fill="none" xmlns="http://www.w3.org/2000/svg">
<g clip-path="url(#clip0_56137_12036)">
<path d="M57.7904 38.1223C61.9021 23.1059 53.305 7.80922 38.6961 3.40608C24.0042 -1.0282 8.47127 7.03036 3.6328 21.5898C-1.20567 36.1492 6.4362 52.0171 21.097 57.2302C21.6473 57.4275 21.9172 58.0506 21.7199 58.6218C21.5227 59.1929 20.8789 59.4629 20.3079 59.2656C4.61918 53.6475 -3.59376 36.6684 1.50429 21.0498C6.60233 5.43111 23.2359 -3.39592 39.0699 1.23567C54.8832 5.85688 64.2798 22.3167 59.9397 38.4858C59.8047 38.9738 59.3686 39.3269 58.8702 39.3269C58.4653 39.3269 57.5828 38.8908 57.7904 38.1223Z" fill="#0DB14B"/>
<path d="M14.3082 31.5897C13.5607 31.5897 13.1453 31.1535 13.1038 30.5824C13.0727 30.1254 13.3634 29.4401 14.0279 29.4401L26.3006 29.3777C26.799 27.82 27.8165 26.8023 29.3843 26.2935L29.4259 8.64979C29.4259 7.97479 30.0696 7.61132 30.5888 7.64247C31.1391 7.68401 31.5855 8.13056 31.5959 8.80557L31.6167 26.3039C33.8282 26.9685 35.0223 28.9 34.8146 30.977C34.607 33.0539 32.9976 34.6324 30.9625 34.8297C28.9275 35.027 26.9651 33.8328 26.2902 31.6312L14.2979 31.6001L14.3082 31.5897ZM32.6757 30.4993C32.6757 29.3051 31.7101 28.3289 30.5057 28.3289C29.3013 28.3289 28.3356 29.2947 28.3356 30.4993C28.3356 31.7039 29.3013 32.6697 30.5057 32.6697C31.7101 32.6697 32.6757 31.7039 32.6757 30.4993Z" fill="#0DB14B"/>
<path d="M57.9133 60.9795H27.1485C25.3834 60.9899 23.9921 59.5361 23.9817 57.8434L23.9609 44.769C23.9609 42.8374 25.3834 41.4043 27.3458 41.4043H57.6226C59.4603 41.4043 60.9763 42.7232 60.9763 44.582V57.8537C60.9763 59.4218 59.6991 60.9899 57.9133 60.9899V60.9795ZM57.6952 58.8403C58.4843 58.7572 58.8166 58.2795 58.8166 57.646V44.7793C58.8166 44.0732 58.3598 43.5851 57.6122 43.5851H27.3562C26.6086 43.5851 26.1517 44.0628 26.1517 44.7793V57.6564C26.1517 58.3626 26.619 58.8403 27.3562 58.8403H57.6952Z" fill="#0DB14B"/>
<path d="M51.2049 52.2988C51.0492 52.8492 51.1114 53.3061 51.1841 53.8462H54.8701C55.6073 53.8565 56.0745 54.3135 56.0641 54.9573C56.0537 55.6012 55.5865 56.0477 54.8597 56.0477H50.0939C49.3983 56.0477 48.9414 55.57 48.9414 54.8742V47.5322C48.9414 46.8365 49.3879 46.3691 50.0939 46.3691H54.8597C55.5969 46.3691 56.0641 46.8261 56.0641 47.4492C56.0641 48.0722 55.5969 48.5499 54.8701 48.5499H51.1841C51.0907 49.1003 51.0803 49.5469 51.1841 50.0869L54.8701 50.118C55.6177 50.118 56.0745 50.5542 56.0745 51.2084C56.0745 51.8627 55.6073 52.2988 54.8701 52.2988H51.2153H51.2049Z" fill="#0DB14B"/>
<path d="M47.7071 47.707L45.2048 55.2671C45.0491 55.7345 44.6441 55.9941 44.26 56.0252C43.8031 56.0564 43.3151 55.8175 43.1386 55.2775L40.6467 47.7174C40.4702 47.1774 40.844 46.6374 41.2074 46.4816C41.6954 46.2739 42.4014 46.3674 42.6091 46.949L44.1665 51.269C45.2152 49.5555 45.1633 45.9209 47.0114 46.4401C47.4371 46.5543 47.9044 47.1255 47.7175 47.7174L47.7071 47.707Z" fill="#0DB14B"/>
<path d="M34.8634 56.0474H29.9107C29.267 56.0266 28.8828 55.4866 28.8828 54.8843V47.5422C28.8828 46.8984 29.2566 46.4622 29.8173 46.3895C30.326 46.3272 31.0217 46.7011 31.0321 47.3761L31.0944 53.8354L34.8634 53.8666C35.5798 53.8666 36.0159 54.3339 36.0055 54.9673C36.0055 55.5385 35.5798 56.0474 34.8634 56.0474Z" fill="#0DB14B"/>
<path d="M39.4109 54.7803C39.4109 55.58 38.8917 56.0369 38.3207 56.0369C37.7496 56.0369 37.2305 55.5904 37.2305 54.8842V47.5214C37.2305 46.8152 37.7185 46.3687 38.3207 46.3791C38.9229 46.3895 39.4005 46.8256 39.4005 47.5318V54.77L39.4109 54.7803Z" fill="#0DB14B"/>
</g>
<defs>
<clipPath id="clip0_56137_12036">
<rect width="61" height="61" fill="white"/>
</clipPath>
</defs>
</svg>
