<svg width="48" height="36" viewBox="0 0 48 36" fill="none" xmlns="http://www.w3.org/2000/svg">
<path d="M39.6436 0C40.6208 0.000570228 41.8037 1.76092 40.2432 3.34766C37.35 4.95415 33.0501 9.05403 34.0508 13.3711H43.5713C46.0172 13.3712 48 15.3548 48 17.8008V31.5713C47.9999 34.0171 46.0171 35.9999 43.5713 36H30.4287C27.9829 35.9999 26.0001 34.0171 26 31.5713V11.3643C26.3903 8.33092 29.654 1.90662 39.6436 0Z" fill="#214478"/>
<path d="M13.6436 0C14.6208 0.000570228 15.8037 1.76092 14.2432 3.34766C11.35 4.95415 7.05013 9.05403 8.05078 13.3711H17.5713C20.0172 13.3712 22 15.3548 22 17.8008V31.5713C21.9999 34.0171 20.0171 35.9999 17.5713 36H4.42871C1.98287 35.9999 0.000146028 34.0171 0 31.5713V11.3643C0.390288 8.33092 3.65396 1.90662 13.6436 0Z" fill="#214478"/>
</svg>
