<svg width="69" height="70" viewBox="0 0 69 70" fill="none" xmlns="http://www.w3.org/2000/svg">
<g clip-path="url(#clip0_87_3772)">
<path d="M54.4272 70C46.3911 70 39.8428 63.5402 39.8428 55.5879C39.8428 47.6357 46.3799 41.1758 54.4272 41.1758C62.4746 41.1758 69.0117 47.6357 69.0117 55.5879C69.0117 63.5402 62.4746 70 54.4272 70ZM54.4272 42.6906C47.2252 42.6906 41.3643 48.4821 41.3643 55.5991C41.3643 62.716 47.2252 68.5076 54.4272 68.5076C61.6293 68.5076 67.4901 62.716 67.4901 55.5991C67.4901 48.4821 61.6293 42.6906 54.4272 42.6906Z" fill="#0DB14B"/>
<path d="M57.7406 49.8632C58.0787 49.6293 58.1463 49.2395 57.9547 48.9165L56.8389 46.9897C56.6586 46.6779 56.3881 46.5219 56.0838 46.5442C55.7569 46.5665 55.5315 46.7558 55.4526 47.0231C55.3624 47.3573 55.5428 47.5911 55.6555 48.0367C52.7025 47.6023 50.0088 48.7717 48.3069 50.899C46.5261 53.1488 46.1767 56.156 47.3602 58.7622C47.5518 59.1854 48.0589 59.2634 48.3407 59.1186C48.6225 58.9738 48.8479 58.5728 48.7014 58.2053C47.7772 56.0223 47.9913 53.6055 49.5129 51.7232C50.8316 50.0971 53.0519 49.0836 55.3174 49.5068C55.0018 49.8409 54.6298 49.9746 54.5848 50.2308C54.5284 50.5538 54.5848 50.899 54.7876 51.0104C55.4752 51.4002 56.9291 50.409 57.7406 49.8521V49.8632Z" fill="#0DB14B"/>
<path d="M50.9561 62.4042L52.0268 64.2308C52.2861 64.6651 52.8271 64.7765 53.199 64.4647C53.5259 64.1974 53.4695 63.7407 53.1539 63.1504C56.0167 63.5848 58.7668 62.4822 60.48 60.3437C62.2946 58.0828 62.6665 55.0645 61.4831 52.436C61.2915 52.0017 60.773 51.9348 60.4462 52.1019C60.1531 52.2578 59.9953 52.6588 60.1531 53.0374C61.066 55.2093 60.8181 57.615 59.2965 59.4861C57.9778 61.1011 55.6786 62.148 53.4921 61.6803C54.0331 61.2793 54.3824 61.0565 54.281 60.5665C53.988 59.23 52.3086 60.7001 51.2717 61.2125C50.8209 61.4352 50.6743 61.9253 50.9674 62.4153L50.9561 62.4042Z" fill="#0DB14B"/>
<path d="M3.26854 54.2737L37.0923 54.5187L37.2614 57.1472H0V4.86715C0.946749 4.71123 1.48775 4.52189 2.49085 4.59985L2.36687 53.3938C2.36687 53.9284 2.77262 54.2737 3.27981 54.2737H3.26854Z" fill="#0DB14B"/>
<path d="M28.8985 22.7876H25.4834V47.1345H28.8985V22.7876Z" fill="#0DB14B"/>
<path d="M55.0919 38.5919C53.142 38.681 53.6492 38.3246 51.6543 38.9149V15.782L55.0806 15.7598V38.5919H55.0919Z" fill="#0DB14B"/>
<path d="M13.8858 24.9594C13.48 25.4829 12.8827 25.3938 12.5558 25.1487C12.2515 24.926 12.0937 24.3023 12.4206 23.8902L24.6607 8.40888C25.0777 8.00793 25.5173 7.99679 26.0019 8.2975L39.1212 16.6173L53.6493 1.97133C52.804 1.65948 51.5642 2.21636 51.4177 1.08032C51.35 0.545714 51.7671 0.111347 52.3982 0.0890717L55.926 -2.93651e-05C56.5121 -0.011167 56.8953 0.412063 56.9291 0.99122C57.0193 2.96258 57.4475 5.45741 56.0725 5.424C54.6975 5.39058 55.4301 3.7088 54.9905 3.22988L39.9214 18.3771C39.6171 18.6221 39.1775 18.778 38.8056 18.5441L25.5962 10.1686L13.9083 24.9483L13.8858 24.9594Z" fill="#0DB14B"/>
<path d="M42.0065 43.8377C41.0485 44.9738 40.2595 45.965 39.5382 47.1122L38.5576 47.0788V27.7884H41.9839L42.0065 43.8489V43.8377Z" fill="#0DB14B"/>
<path d="M15.8242 34.0032H12.4092V47.1233H15.8242V34.0032Z" fill="#0DB14B"/>
</g>
<defs>
<clipPath id="clip0_87_3772">
<rect width="69" height="70" fill="white"/>
</clipPath>
</defs>
</svg>
