<svg width="62" height="62" viewBox="0 0 62 62" fill="none" xmlns="http://www.w3.org/2000/svg">
<g clip-path="url(#clip0_87_3786)">
<path d="M60.4878 21.4508C64.2521 33.0331 60.8015 45.6795 51.9955 53.7782C43.1896 61.8768 30.0479 64.3299 18.6876 59.4349C13.9822 63.1762 7.42814 62.7057 3.31646 58.5612C-0.795209 54.4167 -1.14252 47.875 2.52102 43.3272C6.18455 38.7794 12.6714 37.6033 17.881 40.9413C17.5225 37.8833 17.2424 35.195 17.2312 32.1594H2.33056C2.42019 34.8253 2.92434 37.2561 3.66377 39.6868C3.85423 40.314 3.48452 40.9077 3.02517 41.0757C2.35297 41.311 1.71437 41.0533 1.46789 40.3588C-2.22925 28.799 1.26623 16.1637 10.1282 8.09869C19.0909 -0.0783662 32.0198 -2.30745 43.3128 2.54277C48.0295 -1.18731 54.5835 -0.716848 58.684 3.42769C62.7845 7.57222 63.143 14.1251 59.4795 18.6616C55.8159 23.1982 49.3291 24.3968 44.1195 21.0476C44.478 24.1056 44.7581 26.7939 44.7693 29.8407H59.6811C59.5803 27.1747 59.0985 24.744 58.3479 22.3133C58.1687 21.742 58.4599 21.182 58.8521 20.9803C59.4458 20.6779 60.0732 20.7787 60.499 21.4732L60.4878 21.4508ZM39.8958 15.8837C39.2236 13.9794 38.9547 12.6017 39.0667 10.9327C38.0136 8.1547 36.5908 5.54476 34.3613 3.66292C32.4343 2.02751 30.0143 1.85948 28.0089 3.36048C24.5582 5.94801 22.2951 11.6159 21.4549 15.7157C27.6504 17.6311 33.9467 17.6871 39.907 15.8837H39.8958ZM59.7035 11.4815C59.7035 6.41847 55.5919 2.30754 50.5279 2.30754C45.4639 2.30754 41.3522 6.41847 41.3522 11.4815C41.3522 16.5446 45.4639 20.6555 50.5279 20.6555C55.5919 20.6555 59.7035 16.5446 59.7035 11.4815ZM19.1582 14.7972C19.864 12.5233 20.4242 10.6414 21.3428 8.74837C22.1159 6.70971 23.4267 5.13031 24.6591 3.09164C19.5727 4.14458 15.1361 6.6313 11.3718 10.0813C13.8029 12.12 16.2677 13.6994 19.1582 14.786V14.7972ZM41.5203 4.3126C40.0526 3.81974 38.9099 3.27087 37.3526 3.17005C38.2153 4.49182 39.0107 5.45515 39.795 6.91134C40.5568 6.07123 40.8033 5.17511 41.5203 4.3014V4.3126ZM17.2536 29.8295C17.276 25.4497 17.7577 21.4172 18.598 17.1607C15.3378 15.7829 12.4921 14.0579 9.71364 11.784C5.17624 16.847 2.66666 23.075 2.31936 29.8407H17.2536V29.8295ZM42.4838 29.8071C42.3269 25.5505 42.0581 21.7533 41.117 17.9448C34.4285 20.0282 27.572 20.0394 20.8611 17.9336C19.9872 21.8093 19.6623 25.6962 19.5391 29.8295L42.4838 29.8071ZM41.1506 44.0553C42.0244 40.0116 42.3606 36.2367 42.4726 32.1594H19.5279C19.6735 36.2815 19.9424 40.1684 20.8947 44.0441C27.5944 41.9607 34.4173 41.9495 41.1506 44.0553ZM52.3316 50.1937C56.9139 45.0075 59.3338 38.8579 59.6923 32.1594H44.7581C44.7469 36.5504 44.2091 40.5605 43.3913 44.8394C46.6963 46.1724 49.486 47.9646 52.3316 50.1937ZM20.6594 50.5074C20.6594 45.4443 16.5478 41.3334 11.4838 41.3334C6.41983 41.3334 2.30815 45.4443 2.30815 50.5074C2.30815 55.5704 6.41983 59.6813 11.4838 59.6813C16.5478 59.6813 20.6594 55.5704 20.6594 50.5074ZM34.1596 58.4716C37.5207 55.8616 39.5709 50.5186 40.624 46.3292C34.5293 44.3466 28.1546 44.313 22.1047 46.094C22.7321 47.8414 23.0906 49.3424 22.9337 51.0674C23.9869 53.7894 25.3761 56.3545 27.5272 58.2476C29.499 59.995 32.0646 60.2302 34.1596 58.4716ZM37.4758 58.9084C42.5958 57.7771 46.9316 55.324 50.6399 51.9075C48.1976 49.8689 45.7328 48.3007 42.8535 47.1693C42.002 49.9025 41.2402 52.4116 39.9294 54.7975L37.4758 58.9084ZM24.6143 58.7516L22.1159 55.0551C21.4549 56.1529 21.0964 56.8026 20.4914 57.6875C21.959 58.1355 23.0906 58.8524 24.6143 58.7516Z" fill="#0DB14B"/>
<path d="M51.8614 17.127C51.29 17.5639 51.3909 18.4488 50.5058 18.4152C49.6207 18.3816 49.7103 17.6199 49.195 17.1494C48.1867 16.2309 47.0103 15.4916 47.0775 13.845C47.1111 13.1729 47.5257 12.6353 48.2091 12.6465C49.8784 12.6465 48.8477 14.9203 50.5058 14.9091C51.066 14.9091 51.5365 14.4947 51.6261 13.9346C51.9958 11.7391 48.0746 13.6658 47.1559 9.98051C46.6854 8.10987 47.8057 6.86651 49.2062 5.80237C49.7103 5.41032 49.6207 4.5142 50.517 4.53661C51.4133 4.55901 51.3236 5.34311 51.8278 5.80237C52.8361 6.72089 54.0125 7.46018 53.9452 9.1068C53.9116 9.77888 53.4971 10.3054 52.8137 10.3054C51.1444 10.3054 52.1751 8.04266 50.517 8.04266C49.9568 8.04266 49.4863 8.45711 49.3966 9.01718C49.0381 11.2127 52.9929 9.27482 53.8668 12.9825C54.2926 14.7859 53.3066 16.0293 51.8614 17.1158V17.127Z" fill="#0DB14B"/>
<path d="M11.6856 53.9014C10.6213 54.0806 9.69137 53.7894 8.63824 54.047C10.6101 55.7272 13.523 55.324 15.1251 53.2965C15.5508 52.7588 16.2006 52.658 16.7047 52.9828C18.5421 54.1366 15.0354 57.497 11.3047 57.3962C9.09758 57.3402 6.96892 56.1641 5.69173 54.2262C5.29961 53.6325 3.51825 54.4054 3.47344 52.8148C3.45103 52.21 3.91038 51.7843 4.6274 51.5939V49.432C3.91038 49.2416 3.45103 48.8159 3.47344 48.211C3.49585 47.5389 3.94399 47.0909 4.71703 47.0797C4.92989 47.0797 5.45645 47.1245 5.5909 46.9117C6.86809 44.9514 8.89592 43.7417 11.1254 43.6408C13.3549 43.54 15.7636 44.593 17.0857 46.5756C17.433 47.1021 17.1193 47.8078 16.6935 48.0766C16.2006 48.3791 15.5508 48.267 15.1251 47.7294C13.523 45.7019 10.6213 45.2987 8.64944 46.9789C9.88183 47.3933 12.6155 46.3964 12.6043 48.2334C12.6043 48.8607 12.1225 49.376 11.3831 49.376L7.01374 49.3984C6.84569 50.1937 6.84569 50.877 7.01374 51.6723L11.3831 51.6947C12.0441 51.6947 12.5034 52.0979 12.5931 52.6468C12.6715 53.1621 12.4138 53.8118 11.6744 53.935L11.6856 53.9014Z" fill="#0DB14B"/>
</g>
<defs>
<clipPath id="clip0_87_3786">
<rect width="62" height="62" fill="white"/>
</clipPath>
</defs>
</svg>
