<svg width="70" height="62" viewBox="0 0 70 62" fill="none" xmlns="http://www.w3.org/2000/svg">
<g clip-path="url(#clip0_87_3792)">
<path d="M20.8536 32.025L13.3599 32.0478C12.7622 32.0478 12.3748 31.5467 12.3305 31.1139C12.2862 30.5331 12.6847 29.9636 13.3488 29.9636H20.765C21.3517 29.9636 21.717 30.4419 21.7502 30.9089C21.7834 31.3075 21.5288 32.0136 20.8536 32.0136V32.025Z" fill="#0DB14B"/>
<path d="M12.1204 44.2336H4.69314C4.06221 44.2336 3.74121 43.6642 3.74121 43.2087C3.74121 42.5709 4.21718 42.1951 4.90345 42.1951H12.1315C12.8067 42.1951 13.172 42.6506 13.172 43.2087C13.172 43.7667 12.7956 44.2336 12.1315 44.2336H12.1204Z" fill="#0DB14B"/>
<path d="M24.5947 44.2108L17.0568 44.2336C16.4037 44.2336 16.0605 43.7211 16.0605 43.2086C16.0605 42.6961 16.3926 42.2064 17.0678 42.2064H24.4951C25.0485 42.2064 25.4138 42.5936 25.4913 43.0492C25.5577 43.4478 25.3253 44.2108 24.6058 44.2222L24.5947 44.2108Z" fill="#0DB14B"/>
<path d="M24.3851 19.8049H17.0685C16.3822 19.8049 16.0059 19.3608 16.0059 18.8141C16.0059 18.2219 16.4043 17.7664 17.0685 17.7664L24.4957 17.7891C25.0935 17.7891 25.4145 18.3586 25.4255 18.8141C25.4255 19.3038 25.0824 19.8049 24.3851 19.8049Z" fill="#0DB14B"/>
<path d="M29.0445 46.6253C37.1138 53.2193 48.6255 52.2513 55.5214 44.6095C62.4174 36.9677 62.4395 25.1804 55.6211 17.5044C48.8026 9.82843 37.1359 8.74651 29.0777 15.3519C28.6571 15.6936 27.9598 15.3178 27.7716 15.0103C27.4617 14.5092 27.6166 13.9397 28.1037 13.5525C36.981 6.45738 49.5442 7.68736 57.0379 16.0694C64.5758 24.4971 64.5758 37.4915 57.0379 45.9192C49.4999 54.3468 36.8813 55.554 28.004 48.3336C27.6166 48.0147 27.5724 47.5364 27.7052 47.1264C27.8159 46.7847 28.5464 46.2039 29.0445 46.6139V46.6253Z" fill="#0DB14B"/>
<path d="M39.5384 48.6297C39.2506 49.1877 38.7747 49.256 38.4426 49.1991C38.0884 49.1421 37.546 48.7208 37.6567 48.1627L40.1361 34.9177L33.5501 34.8835C33.1959 34.8835 32.8528 34.7013 32.7199 34.5077C32.5982 34.3255 32.3436 33.8585 32.5207 33.5169L42.9809 13.3361C43.2465 12.835 43.7003 12.6984 44.132 12.8008C44.5637 12.9033 44.9511 13.3817 44.8404 13.9853L42.3721 27.0481L49.0356 27.105C49.4562 27.105 49.7661 27.367 49.91 27.6517C50.0539 27.9364 50.0871 28.2895 49.8768 28.6881L39.5384 48.6183V48.6297ZM41.077 41.2612L47.3531 29.2006L41.1877 29.1436C40.5789 29.1436 40.114 28.6881 40.1915 28.0389C40.4793 25.6473 41.243 23.472 41.3648 20.9096L35.144 32.8108L41.1988 32.8563C41.6194 32.8563 41.9404 33.0044 42.1507 33.2549C42.7595 34.018 41.0881 39.2226 41.0881 41.2612H41.077Z" fill="#0DB14B"/>
<path d="M61.0007 17.5385C60.403 17.3905 60.1706 16.7641 60.2702 16.3541C60.724 14.5547 63.8787 16.5363 65.5943 16.4338C61.0561 8.38202 53.2303 3.22295 44.4305 2.22074C33.7047 1.00215 23.3663 6.05873 17.5662 15.3747C17.2341 15.8986 16.6475 15.8872 16.3154 15.7277C15.8173 15.4772 15.5517 14.8394 15.8837 14.2927C21.5178 5.19319 31.2806 -0.148106 41.6854 -5.26535e-05C52.0128 0.148 61.6759 5.73984 67.1108 15.0786C67.8856 13.5183 67.4318 10.1473 69.3135 10.6256C69.7673 10.7395 70.0551 11.3089 69.9112 11.9581L68.5276 18.2105C68.3948 18.8254 67.8524 19.1785 67.2547 19.0304L61.0007 17.5385Z" fill="#0DB14B"/>
<path d="M18.12 50.8276C18.0868 50.076 18.4964 49.5065 19.1273 49.4838L25.3149 49.2446C26.0122 49.2218 26.5324 49.5407 26.5656 50.1785C26.6874 52.069 22.9793 50.9757 21.3965 51.4996C28.5913 58.8794 38.8854 61.7266 48.9913 58.8225C57.7358 56.3056 65.2295 49.1763 68.0853 39.7009C68.2402 39.1884 68.8601 39.0176 69.2918 39.1201C69.8341 39.2453 70.1219 39.8262 69.9559 40.3842C66.9562 50.3721 59.053 57.9114 49.9322 60.6675C39.1068 63.9474 28.2039 60.9294 20.3117 53.299C19.9686 54.939 21.0755 58.0481 19.4262 58.1506C18.9834 58.1733 18.43 57.8089 18.4078 57.2053L18.12 50.8049V50.8276Z" fill="#0DB14B"/>
<path d="M8.48997 32.0251H0.996296C0.43178 32.0251 0.0443668 31.4898 0.01116 31.0798C-0.0331158 30.5559 0.365366 29.9637 0.996296 29.9637H8.40142C9.03235 29.9523 9.39762 30.3851 9.4419 30.8862C9.48617 31.3418 9.20945 32.0137 8.48997 32.0251Z" fill="#0DB14B"/>
<path d="M12.2207 19.7822L4.6938 19.8049C4.04073 19.8049 3.65332 19.3152 3.65332 18.8027C3.65332 18.2902 4.0518 17.7664 4.6938 17.7664H12.1321C12.6856 17.7664 13.0287 18.1877 13.0951 18.6319C13.1615 19.0761 12.9623 19.7708 12.2207 19.7708V19.7822Z" fill="#0DB14B"/>
</g>
<defs>
<clipPath id="clip0_87_3792">
<rect width="70" height="62" fill="white"/>
</clipPath>
</defs>
</svg>
