<svg width="69" height="70" viewBox="0 0 69 70" fill="none" xmlns="http://www.w3.org/2000/svg">
<g clip-path="url(#clip0_87_3807)">
<path d="M54.3201 61.407C53.8477 61.5404 54.6913 63.6191 53.1278 63.7081C52.4078 63.7525 51.9129 63.2078 51.9916 62.3296C52.0141 62.074 52.0366 61.6404 51.9016 61.4514C51.6654 61.1179 48.5383 62.1184 48.1895 59.5505C48.0883 58.828 48.527 58.5167 48.9995 58.2944C49.7419 57.9498 49.9668 58.9391 50.4056 59.0725C52.1154 59.5283 53.9827 59.0725 55.8387 59.2615L55.8162 55.2374L50.4056 55.3041C49.2132 55.3152 48.2008 54.537 48.1895 53.3031C48.167 51.858 48.122 50.4351 48.212 48.9899C48.3695 46.5666 51.4067 47.2447 51.8116 47.0557C52.2953 46.8222 51.6429 45.6661 52.3853 45.0214C52.734 44.7324 53.229 44.6879 53.6115 44.8991C54.5114 45.3993 53.9377 46.8334 54.2976 47.0335C54.8263 47.3336 57.3011 46.4665 57.9197 48.6676C58.1335 49.4235 57.751 49.9015 57.2111 50.2016C56.4236 50.6352 56.1762 49.4791 55.7262 49.3457C53.9602 48.9232 52.0141 49.3457 50.2481 49.2901L50.4168 53.2698L55.8387 53.1697C57.0311 53.1475 57.976 54.0257 57.9872 55.2374V59.1059C57.9985 59.8618 57.6835 60.5065 57.2786 60.8512C56.3337 61.6515 54.9613 61.2069 54.3314 61.3959L54.3201 61.407Z" fill="#0DB14B"/>
<path d="M37.6495 58.2832C25.5796 61.4069 13.0934 56.927 5.82672 47.189C-1.56372 37.2843 -1.96868 23.7779 4.84808 13.473C9.76379 6.05832 17.6492 1.26715 26.1195 0.233325C35.591 -0.922781 44.6687 2.20093 51.2155 8.74849C59.2922 16.819 62.0256 28.5802 58.2573 39.3408C65.5352 41.8976 69.911 48.9676 68.8311 56.5157C67.7512 64.0637 61.7106 69.4329 54.2415 69.9665C46.8285 70.489 39.753 65.8979 37.6495 58.2943V58.2832ZM28.898 16.7301L28.8755 2.23428C26.0183 2.59 23.8023 4.06848 21.8675 5.95827C19.7415 8.15932 18.1441 10.7383 16.9855 13.6064C20.7651 15.5295 24.6797 16.6078 28.898 16.719V16.7301ZM42.9589 13.5952C41.6316 10.4604 39.8993 7.6702 37.4695 5.40245C35.636 3.75723 33.5662 2.51219 31.0015 2.23428L31.024 16.7523C35.231 16.5856 39.2018 15.5628 42.9589 13.5952ZM15.1182 12.4391C16.5581 8.97082 18.5378 6.25842 21.0126 3.70164C17.188 4.8911 13.9596 6.91428 11.1474 9.49329C12.4635 10.6605 13.6109 11.6832 15.1182 12.4391ZM48.7521 9.40436C45.7261 6.83647 42.7227 4.81328 38.9994 3.76834C41.5753 6.4474 43.4426 9.20426 44.8712 12.5058C46.3223 11.4942 47.6834 10.705 48.7521 9.40436ZM11.7323 28.5023C11.8786 23.5222 12.6772 19.0312 14.2296 14.5624C12.5985 13.4618 11.1136 12.428 9.57257 11.0162C5.02806 15.7629 2.44084 21.9659 2.17087 28.569L11.7211 28.5023H11.7323ZM48.2234 28.569L57.7511 28.5468C57.4474 21.9214 54.8826 15.7407 50.3606 11.0162C48.8083 12.4169 47.3797 13.4507 45.7036 14.5513C47.3235 19.1312 48.0434 23.7112 48.2234 28.569ZM28.7967 20.4763C28.9542 19.8538 28.943 19.4314 28.7967 18.8867C24.3422 18.7644 20.1689 17.5971 16.1643 15.6518C14.702 19.9427 13.9933 24.1669 13.9708 28.569L20.6751 28.5468C21.2488 24.2781 24.5109 21.0543 28.7967 20.4763ZM39.2806 28.5802L45.9961 28.5579C45.8949 24.1447 45.2424 19.9094 43.7576 15.6407C39.753 17.6305 35.546 18.7533 31.114 18.8978C30.9677 19.4869 30.9565 19.9761 31.114 20.4874C35.4223 21.0544 38.6282 24.2781 39.2806 28.5802ZM37.1321 29.6362C37.1321 25.7232 33.9262 22.5551 29.9666 22.5551C26.007 22.5551 22.8011 25.7232 22.8011 29.6362C22.8011 33.5492 26.007 36.7174 29.9666 36.7174C33.9262 36.7174 37.1321 33.5492 37.1321 29.6362ZM14.2633 44.7323C12.6547 40.119 11.8673 35.5613 11.7436 30.7256L2.18212 30.7034C2.47459 37.2954 5.03931 43.4761 9.58381 48.2451C11.1249 46.8666 12.5085 45.8328 14.2633 44.7323ZM28.6505 38.8184C24.331 38.0625 21.2375 34.8609 20.6639 30.6923L13.9596 30.7145C14.0158 35.1611 14.7133 39.4187 16.1981 43.6651C20.1352 41.6308 24.4097 40.5748 28.7405 40.3524C28.9655 40.0856 29.0779 38.8962 28.6505 38.8184ZM42.1378 42.8314C43.0152 41.9198 43.7576 41.4752 44.6013 40.8749C45.4899 37.5177 45.9624 34.1272 45.9849 30.7034H39.2581C38.6844 34.961 35.411 38.2403 31.1477 38.785C30.934 39.3075 30.979 39.7855 31.114 40.3747C34.9273 40.4525 38.5157 41.364 42.149 42.8314H42.1378ZM56.1762 38.7406C57.1211 36.0393 57.6273 33.4825 57.7398 30.7256H48.1896C48.1784 33.7826 47.7059 36.5951 47.211 39.5743C50.2369 38.4293 53.0491 38.2848 56.1875 38.7406H56.1762ZM66.8401 54.2479C66.8401 46.7332 60.6758 40.6415 53.0716 40.6415C45.4674 40.6415 39.3031 46.7332 39.3031 54.2479C39.3031 61.7626 45.4674 67.8544 53.0716 67.8544C60.6758 67.8544 66.8401 61.7626 66.8401 54.2479ZM28.8867 56.9715V42.4979C24.6234 42.7091 20.6301 43.7207 16.9968 45.6994C18.3016 48.7564 19.9214 51.391 22.1937 53.6032C24.0722 55.3262 26.2208 56.7491 28.8867 56.9715ZM37.1321 54.0812C37.1546 50.4461 38.3694 47.3558 40.4842 44.5322C37.3683 43.2649 34.2974 42.6535 31.0127 42.509L31.0352 57.027C33.3525 56.7269 35.4672 55.7264 37.1321 54.0923V54.0812ZM20.9563 55.5152C18.2904 52.7917 16.5131 50.0126 15.062 46.7888C13.5659 47.7337 12.306 48.623 11.1474 49.8014C14.0721 52.3915 17.3005 54.448 20.9563 55.5152Z" fill="#0DB14B"/>
<path d="M29.7079 31.7373C28.6842 32.4599 27.6718 30.7591 27.0644 29.8364C26.7045 29.2806 26.8844 28.5914 27.3569 28.3023C28.6842 27.5131 29.0217 29.5363 29.6179 29.1361L31.6989 27.7354C32.1826 27.4019 32.9025 27.6576 33.1275 28.0689C33.3862 28.5358 33.3412 29.1694 32.8463 29.514L29.7079 31.7373Z" fill="#0DB14B"/>
</g>
<defs>
<clipPath id="clip0_87_3807">
<rect width="69" height="70" fill="white"/>
</clipPath>
</defs>
</svg>
