<svg width="74" height="60" viewBox="0 0 74 60" fill="none" xmlns="http://www.w3.org/2000/svg">
<g clip-path="url(#clip0_87_3814)">
<path d="M67.726 26.7314C67.299 26.2085 67.3701 25.5429 67.8446 25.1625C68.1648 24.901 68.8646 24.794 69.2797 25.2338C70.4777 26.5294 71.5096 27.92 72.6008 29.2869C74.5697 31.7473 74.4155 34.8971 72.494 37.3337C65.7452 45.9034 57.3596 54.176 47.005 58.1221C35.3458 62.5674 24.6473 58.6332 15.2535 51.3471C10.0228 47.294 5.62243 42.5159 1.54229 37.3337C-0.39103 34.8852 -0.533361 31.7711 1.42368 29.275C3.73655 26.3273 6.08501 23.5104 8.76556 20.8717C9.19256 20.4438 9.8449 20.3725 10.2838 20.8123C10.6514 21.1807 10.7819 21.882 10.2838 22.3931C7.65064 25.0912 5.21916 27.8487 2.9656 30.8559C1.82695 32.3891 1.92184 34.2671 3.09607 35.7647C6.98643 40.7806 11.2208 45.3804 16.2142 49.3265C25.3115 56.5294 35.6779 60.428 47.005 55.7806C56.6242 51.8345 65.1403 43.5143 71.2605 35.2655C72.1738 34.0294 72.0196 32.2822 71.2249 31.1055C70.1574 29.5365 68.9714 28.2291 67.7497 26.7077L67.726 26.7314Z" fill="#0DB14B"/>
<path d="M38.9157 17.508C29.7116 16.4264 21.6581 23.4153 21.2311 32.4604C20.8041 41.5056 28.3713 49.3503 37.5398 49.0294C46.7201 48.7085 53.7655 40.5904 52.6743 31.3313C52.6031 30.7727 52.9945 30.2972 53.3503 30.1902C53.9434 30.0238 54.6906 30.2378 54.7737 30.8796C56.2088 41.3749 48.2264 50.6815 37.8956 51.1926C27.4936 51.7156 18.8115 43.2172 19.0487 32.817C19.2859 22.3456 28.4781 14.1086 39.058 15.3685C39.6629 15.4398 40.0069 15.8559 40.0187 16.4145C40.0187 16.9256 39.6036 17.5793 38.9157 17.508Z" fill="#0DB14B"/>
<path d="M62.9105 4.33837C57.7629 0.796376 50.9547 1.72348 47.0169 6.39463C43.0791 11.0658 43.3282 17.9953 47.6574 22.3812C51.8917 26.672 58.7355 27.0999 63.4561 23.3083C68.1767 19.5167 69.3391 12.5991 65.8757 7.40493C65.5317 6.89384 65.6385 6.27577 66.0536 5.9192C66.4332 5.58639 67.2041 5.53885 67.5837 6.0856C71.7587 12.1236 70.5252 20.2298 64.9861 24.8534C59.4708 29.4533 51.2987 29.0729 46.2104 24.0333C41.0746 18.9461 40.6476 10.7924 45.1785 5.20604C49.7449 -0.415985 57.8578 -1.67589 63.9187 2.43663C64.4524 2.79321 64.6422 3.35184 64.3931 3.88671C64.2271 4.24329 63.5035 4.76626 62.8986 4.35026L62.9105 4.33837Z" fill="#0DB14B"/>
<path d="M42.9841 33.6252C43.0908 30.5705 41.1456 28.0507 38.4058 27.4089C35.5236 26.7314 32.6533 28.1933 31.5265 30.7963C30.3997 33.3994 31.2774 36.6323 33.7089 38.2369C36.1403 39.8415 39.4258 39.4493 41.454 37.2147C41.8573 36.775 42.4148 36.7393 42.7824 36.9532C43.2687 37.2266 43.6008 37.9992 43.1738 38.5103C40.5882 41.6244 36.1048 42.29 32.677 40.1505C29.3796 38.0824 27.9089 33.9105 29.4271 30.1664C30.9453 26.4223 34.7882 24.3661 38.8209 25.2694C42.4978 26.0895 45.3088 29.5483 45.119 33.5776C45.0834 34.2195 44.7276 34.5761 44.2057 34.6711C43.7194 34.7544 42.9485 34.3859 42.9722 33.6252H42.9841Z" fill="#0DB14B"/>
<path d="M39.7222 8.79555C29.7828 7.69016 20.9701 12.8724 13.7469 19.1482C13.2013 19.6236 12.5252 19.6593 12.0508 19.1006C11.6712 18.6371 11.7661 17.9715 12.3236 17.496C20.045 10.8162 29.3321 5.45561 39.9238 6.62043C40.6711 6.70363 41.0387 7.14341 41.015 7.79713C40.9913 8.45086 40.4576 8.87875 39.7222 8.79555Z" fill="#0DB14B"/>
<path d="M51.7846 19.6355L48.4754 14.3819C48.1789 13.9065 48.3568 13.3122 48.7008 13.0388C48.9736 12.8249 49.7089 12.6347 50.0173 13.0864L52.9707 17.5436L61.2852 9.8534C61.7359 9.4374 62.4238 9.61569 62.7085 10.0079C62.9813 10.3645 63.0762 11.0063 62.6136 11.4342L53.4689 19.9445C52.9233 20.4556 52.1286 20.1941 51.7727 19.6355H51.7846Z" fill="#0DB14B"/>
</g>
<defs>
<clipPath id="clip0_87_3814">
<rect width="74" height="60" fill="white"/>
</clipPath>
</defs>
</svg>
