<svg width="64" height="70" viewBox="0 0 64 70" fill="none" xmlns="http://www.w3.org/2000/svg">
<g clip-path="url(#clip0_87_3824)">
<path d="M48.2863 70H15.607C14.8863 70 14.8863 69.0105 14.8626 68.5882C14.6618 65.125 17.1665 62.4823 20.5219 62.5547C22.1168 62.5909 23.6173 62.5789 25.2477 62.5185L25.2241 57.3298L3.11888 57.3056C1.54753 57.3056 0.0234375 56.0266 0.0234375 54.3493V14.0217C0.0234375 12.2841 1.51208 10.9809 3.11888 10.9809L18.7497 10.9085C19.3877 10.9085 20.4037 10.5947 20.8409 10.2689C21.4198 9.81039 21.4907 8.84504 21.7506 8.18136C21.1599 7.43321 20.4628 6.45579 21.0535 5.57491C21.727 4.56129 22.7312 3.81314 23.5464 2.89606C24.1135 2.25652 25.1296 2.28065 25.7085 2.83573C26.3938 3.48734 26.9727 3.27014 27.7288 2.93226C28.3904 2.64266 28.7921 2.46165 28.8158 1.5687C28.8276 0.941226 29.3592 0.108611 30.0445 0.0482767C31.3205 -0.0603253 32.5137 9.15583e-06 33.8015 0.012076C34.5695 0.012076 35.172 0.844691 35.1957 1.5687C35.2193 2.44959 35.621 2.64266 36.2944 2.9202C37.0506 3.23393 37.6413 3.48734 38.3147 2.82366C38.8937 2.25652 39.9097 2.24445 40.4886 2.88399C41.3039 3.78901 42.2963 4.56129 42.9815 5.55078C43.6668 6.54026 42.7334 7.36081 42.3672 8.18136C42.3672 8.73643 42.7216 9.87072 43.1824 10.2327C43.6432 10.5947 44.6238 10.8843 45.2736 10.8843L60.9044 10.9567C62.523 10.9567 63.9998 12.26 63.9998 13.9976V54.1562C63.9998 55.918 62.5939 57.2815 60.8926 57.2936L38.7637 57.3419V62.5185L43.8676 62.5668C47.0694 62.603 49.3378 65.306 49.1488 68.5761C49.1252 69.0347 49.1488 69.9879 48.2981 69.9879L48.2863 70ZM36.7316 22.5047C38.232 21.6721 38.9291 23.5304 39.4608 23.0719C40.0869 22.5289 40.6304 21.9617 41.1266 21.3222C40.784 20.6706 40.4059 20.2603 40.146 19.6087C40.6304 18.3658 40.9967 17.0023 41.7292 15.8559C42.0954 15.2767 43.017 15.506 43.5841 15.1802C43.6077 14.3717 43.844 13.2615 43.4896 12.5616C43.076 12.1876 41.9655 12.453 41.6465 11.8256C41.0439 10.643 40.6068 9.40011 40.146 8.18136L41.1148 6.33512C40.465 5.70765 39.957 4.94743 39.2127 4.54922C38.6574 4.76643 38.1375 5.59904 37.5232 5.44217C36.2826 5.1405 35.0539 4.56129 33.9197 3.93381C33.3644 3.63214 33.5534 2.63059 33.3526 2.03931C32.5137 1.81004 31.5922 1.95484 30.6825 1.95484C30.4698 2.64266 30.4934 3.246 30.1981 3.90968C28.9339 4.53716 27.6461 5.1405 26.2992 5.53871L24.657 4.53716C24.019 5.1043 23.4519 5.69558 22.8612 6.34719L23.83 8.18136C23.2983 9.41218 22.9675 10.7878 22.235 11.91C21.8806 12.453 20.9826 12.2479 20.4037 12.5375C20.3801 13.3339 20.0729 14.5285 20.5337 15.1922C20.9118 15.5542 21.9514 15.2888 22.2586 15.8438C22.9321 17.0264 23.3692 18.3417 23.8182 19.6087L22.8612 21.4067C23.5228 22.0341 24.0308 22.8064 24.7633 23.2046C25.3304 22.8788 25.9212 22.0945 26.6182 22.3117C27.8233 22.7099 29.0048 23.1805 30.0681 23.808C30.6234 24.1338 30.3044 25.2319 30.6707 25.618C31.4032 26.0162 32.5137 25.7869 33.3171 25.7025C33.6243 22.8909 34.3686 23.7959 36.7079 22.4927L36.7316 22.5047ZM59.3921 14.8181C59.9592 14.8181 60.2546 15.3974 60.2546 15.8559V50.3069C60.2546 50.9102 59.9119 51.3567 59.2739 51.3567H4.72567C4.08768 51.3567 3.74505 50.9223 3.74505 50.3069V15.868C3.74505 15.2767 4.13494 14.8181 4.69023 14.8181H18.2889C18.4661 14.1665 18.4661 13.6235 18.2889 12.9478H3.30791C2.56359 12.9478 1.89015 13.346 1.89015 14.2269V53.9873C1.89015 54.7837 2.38637 55.3749 3.17795 55.3749H60.8335C61.6251 55.3749 62.1213 54.7837 62.1213 53.9873V14.2269C62.1213 13.4787 61.566 12.9478 60.8926 12.9478H45.6989C45.5335 13.6235 45.5335 14.1665 45.7107 14.794L59.3921 14.8181ZM35.1602 26.2455C35.0539 28.2365 32.5374 27.6814 30.5998 27.7538C29.6782 27.79 28.8394 27.1143 28.8158 26.149C28.7921 25.2319 28.3195 25.0509 27.587 24.7371C26.8545 24.4234 26.3819 24.2182 25.7439 24.8457C25.1414 25.437 24.1372 25.4732 23.5346 24.8457L21.1835 22.4203C20.5928 21.8169 20.7582 20.8637 21.2426 20.212C22.0341 19.1502 21.5734 19.0416 20.8527 17.316L18.726 16.7488L5.64721 16.773L5.68266 49.438H58.3288V16.773H45.0727C44.4111 17.0626 43.8086 17.1471 43.1233 17.316C42.5798 18.6433 41.93 19.1984 42.6507 20.0914C43.1824 20.7551 43.4305 21.7566 42.7925 22.4082L40.4414 24.8337C39.8388 25.4611 38.8346 25.4249 38.232 24.8337C37.594 24.2062 37.0978 24.4596 36.389 24.7371C35.6446 25.0388 35.1957 25.2198 35.1366 26.2455H35.1602ZM36.8615 57.3298H27.1263V62.5668H36.8615V57.3298ZM47.223 68.0814C47.1403 65.9455 45.8052 64.7268 44.0567 64.5458H20.3328C18.3007 64.5337 16.7175 66.0662 16.8239 68.1176L47.223 68.0814Z" fill="#0DB14B"/>
<path d="M19.3639 39.507C20.2855 41.3291 19.7775 43.2598 18.4188 44.3337C16.9183 45.5283 14.8389 45.3353 13.5511 44.032C12.2633 42.7288 12.1452 40.6895 13.1258 39.2536C14.2127 37.6487 16.1976 37.1539 17.9934 38.0951L22.802 33.196C21.9986 31.579 22.2467 29.9138 23.3573 28.7071C24.4679 27.5004 26.2755 27.2108 27.7051 27.9831C29.1347 28.7554 29.9617 30.3603 29.56 32.2789L35.6327 35.7662C36.9205 35.0181 38.5509 34.2337 40.1223 35.3077L44.6355 30.6619C43.7376 28.9122 44.1984 26.9574 45.5334 25.8714C47.0575 24.6406 49.1014 24.7854 50.4483 26.161C51.677 27.4159 51.8661 29.4794 50.85 30.9515C49.7749 32.4961 47.8018 33.0632 46.006 32.0858L41.5164 36.6592C42.2489 38.2641 42.0717 40.0741 40.8312 41.2687C39.6733 42.3789 37.913 42.7047 36.4007 41.7755C35.1011 40.9791 34.3213 39.3501 34.7348 37.6004L28.6384 33.9924C27.3506 35.2111 25.6848 35.3801 24.1489 34.6078L19.3639 39.5311V39.507ZM49.6095 28.8036C49.6095 27.8021 48.8179 27.0057 47.8491 27.0057C46.8803 27.0057 46.0887 27.8141 46.0887 28.8036C46.0887 29.7931 46.8803 30.6016 47.8491 30.6016C48.8179 30.6016 49.6095 29.7931 49.6095 28.8036ZM27.7878 31.3015C27.7878 30.2999 26.9962 29.5035 26.0274 29.5035C25.0586 29.5035 24.267 30.312 24.267 31.3015C24.267 32.291 25.0586 33.0994 26.0274 33.0994C26.9962 33.0994 27.7878 32.291 27.7878 31.3015ZM40.0514 38.5537C40.0514 37.5521 39.2598 36.7557 38.291 36.7557C37.3222 36.7557 36.5306 37.5642 36.5306 38.5537C36.5306 39.5432 37.3222 40.3516 38.291 40.3516C39.2598 40.3516 40.0514 39.5432 40.0514 38.5537ZM17.9226 41.3773C17.9226 40.3758 17.131 39.5673 16.1504 39.5673C15.1697 39.5673 14.3782 40.3758 14.3782 41.3773C14.3782 42.3789 15.1697 43.1874 16.1504 43.1874C17.131 43.1874 17.9226 42.3789 17.9226 41.3773Z" fill="#0DB14B"/>
<path d="M39.4251 13.8649C39.4251 18.0521 36.1052 21.4429 32.0055 21.4429C27.9059 21.4429 24.5859 18.0521 24.5859 13.8649C24.5859 9.67766 27.9059 6.28687 32.0055 6.28687C36.1052 6.28687 39.4251 9.67766 39.4251 13.8649ZM37.5112 13.8649C37.5112 10.7516 35.0419 8.22963 31.9937 8.22963C28.9455 8.22963 26.4763 10.7516 26.4763 13.8649C26.4763 16.9781 28.9455 19.5001 31.9937 19.5001C35.0419 19.5001 37.5112 16.9781 37.5112 13.8649Z" fill="#0DB14B"/>
</g>
<defs>
<clipPath id="clip0_87_3824">
<rect width="64" height="70" fill="white"/>
</clipPath>
</defs>
</svg>
