<svg width="66" height="66" viewBox="0 0 66 66" fill="none" xmlns="http://www.w3.org/2000/svg">
<g clip-path="url(#clip0_87_3830)">
<path d="M20.9276 5.71199C21.1436 5.80799 21.3596 5.80799 21.5636 5.71199C32.0636 1.33199 44.3036 3.40799 52.7516 11.016C61.1276 18.552 64.4756 29.904 61.5356 40.728C61.4996 40.596 61.4636 40.44 61.4396 40.296C61.4036 40.092 61.3676 39.876 61.2836 39.66C61.1036 39.168 60.5996 39.036 60.2036 39.132C59.7356 39.24 59.4476 39.72 59.5556 40.236L60.4196 44.64C60.4796 44.928 60.6956 45.168 61.0076 45.276C61.1156 45.312 61.2236 45.336 61.3316 45.336C61.5236 45.336 61.7036 45.276 61.8356 45.156C63.1916 43.98 64.2356 43.056 65.3156 42.024C65.4716 41.868 65.5556 41.652 65.5436 41.4C65.5316 41.124 65.3996 40.848 65.2076 40.692C64.6076 40.224 64.1396 40.62 63.7196 40.98C63.5996 41.076 63.4796 41.184 63.3596 41.268C66.4436 29.676 62.8676 17.568 53.9876 9.58799C45.0476 1.55999 32.0756 -0.648007 20.9276 3.97199C20.4476 4.17599 20.2316 4.66799 20.4116 5.18399C20.4836 5.39999 20.6996 5.61599 20.9276 5.71199Z" fill="#0DB14B"/>
<path d="M44.3161 60.324C33.6721 64.704 21.7681 62.652 13.2361 54.972C4.86009 47.436 1.51209 36.072 4.46409 25.236C4.51209 25.38 4.53609 25.548 4.56009 25.716C4.58409 25.872 4.60809 26.016 4.64409 26.172C4.80009 26.784 5.34009 26.964 5.78409 26.868C6.25209 26.772 6.54009 26.28 6.43209 25.764L5.60409 21.444C5.53209 21.072 5.24409 20.808 5.00409 20.748C4.78809 20.7 4.39209 20.64 4.15209 20.856L0.696087 23.988C0.540087 24.132 0.444087 24.348 0.456087 24.588C0.456087 24.876 0.600087 25.164 0.792087 25.308C1.40409 25.788 1.92009 25.332 2.30409 24.996C2.42409 24.888 2.54409 24.78 2.66409 24.708C-0.455913 36.348 3.15609 48.516 12.1201 56.496C17.9521 61.692 25.4521 64.416 33.0241 64.416C37.1881 64.416 41.3761 63.588 45.3121 61.908C45.4561 61.848 45.5641 61.704 45.6121 61.512C45.6961 61.2 45.6121 60.804 45.4921 60.636C45.1801 60.228 44.7721 60.108 44.3041 60.312L44.3161 60.324Z" fill="#0DB14B"/>
<path d="M48.5276 37.5001C48.5276 37.5001 48.6116 37.3681 49.3316 37.4401C49.9916 37.4881 50.6276 37.2841 51.0956 36.8641C51.5276 36.4681 51.7676 35.9161 51.7676 35.3041V30.7081C51.7676 30.1081 51.5396 29.5561 51.0956 29.1481C50.6276 28.7161 49.9916 28.5001 49.3196 28.5721C48.6116 28.6321 48.5276 28.5481 48.5156 28.5121C48.1316 27.4081 47.7236 26.2681 47.0996 25.1881C47.2436 25.0081 47.3996 24.8521 47.5676 24.6961C47.7236 24.5521 47.8916 24.3961 48.0356 24.2041C48.7076 23.3881 48.6716 22.1881 47.9636 21.4681L44.5316 18.0361C43.7636 17.2681 42.4916 17.2681 41.7116 18.0361L40.8356 18.8881C39.8156 18.3721 38.7116 17.8441 37.4756 17.5201C37.3916 17.2321 37.4036 16.9561 37.4276 16.6081V16.5001C37.4636 15.8881 37.2476 15.3001 36.8396 14.8681C36.4676 14.4721 35.9636 14.2561 35.4356 14.2561H30.5756C30.0236 14.2561 29.5076 14.4841 29.1356 14.8921C28.7156 15.3601 28.5116 16.0081 28.5716 16.6681C28.5836 16.8361 28.6316 17.2801 28.5236 17.4961C27.2156 17.9041 26.1476 18.3481 25.1756 18.8881C24.9596 18.7201 24.7796 18.5401 24.5996 18.3481C24.5276 18.2761 24.4436 18.1921 24.3596 18.1081C23.5316 17.2921 22.2356 17.2561 21.4556 18.0361L18.0236 21.4681C17.2676 22.2241 17.2676 23.5201 18.0236 24.2881L18.8756 25.1641C18.4196 26.0521 17.8676 27.2041 17.4956 28.5241C17.1476 28.5961 16.8836 28.5841 16.5236 28.5721C15.8996 28.5361 15.2996 28.7521 14.8556 29.1601C14.4596 29.5321 14.2436 30.0361 14.2436 30.5761V35.3041C14.2316 35.9161 14.4716 36.4801 14.9036 36.8761C15.3596 37.2961 16.0076 37.5001 16.6916 37.4401C17.4116 37.3681 17.4716 37.4881 17.4716 37.5001C17.8796 38.6641 18.2636 39.7561 18.8876 40.8241C18.7436 41.0041 18.5876 41.1601 18.4196 41.3161C18.2636 41.4601 18.1076 41.6161 17.9516 41.8081C17.2796 42.6241 17.3156 43.8241 18.0356 44.5441L21.4676 47.9761C22.1876 48.6961 23.3876 48.7321 24.2036 48.0481C24.3836 47.9041 24.5396 47.7361 24.6836 47.5921C24.8516 47.4241 25.0076 47.2561 25.1876 47.1241C26.2436 47.7001 27.3476 48.1681 28.5596 48.5281C28.5956 48.8761 28.5956 49.1521 28.5836 49.5121C28.5476 50.1241 28.7636 50.7121 29.1716 51.1441C29.5436 51.5401 30.0476 51.7561 30.5876 51.7561H35.3876C35.9756 51.7561 36.4916 51.5401 36.8756 51.1201C37.2956 50.6641 37.4996 50.0161 37.4516 49.3441C37.4276 49.1401 37.3916 48.7201 37.4996 48.5281C38.7716 48.1321 39.8636 47.6761 40.8476 47.1241C41.0636 47.2921 41.2436 47.4721 41.4356 47.6761C41.5076 47.7481 41.5796 47.8201 41.6516 47.9041C42.0596 48.3121 42.5876 48.5401 43.1276 48.5401C43.7156 48.5401 44.2796 48.2881 44.7236 47.8441L47.9876 44.5561C48.7076 43.8361 48.7436 42.6361 48.0596 41.8201C47.9036 41.6401 47.7476 41.4841 47.5916 41.3281C47.4236 41.1721 47.2676 41.0161 47.1236 40.8361C47.7236 39.7921 48.1076 38.7241 48.5156 37.5841L48.5396 37.5121L48.5276 37.5001ZM47.1236 36.4921C46.7516 37.9681 46.1996 39.2761 45.4556 40.5121C45.2516 40.8481 45.3116 41.2921 45.5996 41.5801L46.7636 42.7441C46.8836 42.8641 46.9436 42.9961 46.9436 43.1401C46.9436 43.2841 46.8836 43.4161 46.7636 43.5241L43.5116 46.7761C43.2836 47.0041 42.9596 47.0041 42.7316 46.7761L41.5676 45.6121C41.2796 45.3241 40.8356 45.2641 40.4996 45.4681C39.2756 46.2121 37.9676 46.7641 36.4796 47.1361C36.0836 47.2321 35.8196 47.5681 35.8196 47.9521V49.5841C35.8196 49.9441 35.6276 50.1721 35.3156 50.1721H30.6476C30.3476 50.1721 30.1556 49.9681 30.1556 49.6561V47.9521C30.1436 47.5681 29.8796 47.2321 29.4836 47.1361C27.9956 46.7641 26.6876 46.2121 25.4636 45.4681C25.3316 45.3841 25.1756 45.3481 25.0196 45.3481C24.7916 45.3481 24.5636 45.4441 24.3956 45.6121L23.2316 46.7761C22.9916 47.0161 22.6796 47.0161 22.4516 46.7761L19.2116 43.5241C19.0916 43.4041 19.0316 43.2721 19.0316 43.1401C19.0316 42.9961 19.0916 42.8641 19.2116 42.7441L20.3756 41.5801C20.6876 41.2681 20.7236 40.8001 20.4716 40.4161C19.7036 39.2401 19.2956 37.9681 18.8516 36.6121L18.7436 36.2641C18.5876 35.7841 17.9156 35.8081 17.1956 35.8201C16.6916 35.8321 16.1276 35.8441 15.8636 35.6641L15.8156 30.6601C15.8156 30.5161 15.8636 30.3841 15.9356 30.3001C16.0196 30.2161 16.1396 30.1681 16.2836 30.1681H18.0116C18.3956 30.1561 18.7196 29.8921 18.8276 29.5081C19.2116 28.0321 19.7516 26.7121 20.5076 25.4881C20.7116 25.1521 20.6516 24.7081 20.3636 24.4201L19.1996 23.2561C19.0796 23.1481 19.0196 23.0041 19.0196 22.8721C19.0196 22.7281 19.0796 22.5961 19.1996 22.4761L22.4396 19.2361C22.6676 18.9961 22.9916 19.0081 23.2196 19.2361L24.4676 20.4721C24.7076 20.7121 25.1276 20.7361 25.4396 20.5441C26.6996 19.7761 28.0196 19.2361 29.4596 18.8761C29.8556 18.7801 30.1196 18.4561 30.1196 18.0601V16.3561C30.1196 16.2001 30.1796 16.0681 30.2636 15.9841C30.3476 15.9001 30.4676 15.8641 30.6116 15.8641L35.6156 15.9121C35.7956 16.1761 35.7836 16.7401 35.7716 17.2441C35.7476 17.9641 35.7356 18.6361 36.2156 18.7921L36.4556 18.8761C37.8356 19.3201 39.1436 19.7401 40.3556 20.5201C40.6676 20.7241 41.1476 20.7841 41.4356 20.4961L42.6716 19.2721C42.9116 19.0321 43.2236 19.0321 43.4516 19.2721L46.7036 22.5241C46.9436 22.7641 46.9316 23.0641 46.7036 23.3041L45.4676 24.5521C45.2276 24.7921 45.2036 25.2121 45.3956 25.5361C46.1396 26.7601 46.6916 28.0801 47.0636 29.5561C47.1596 29.9521 47.4956 30.2161 47.8796 30.2161H49.6076C49.9076 30.2281 50.0996 30.4201 50.0996 30.7201V35.3881C50.0996 35.6881 49.9076 35.8801 49.6076 35.8801H47.8796C47.4836 35.8921 47.1596 36.1561 47.0636 36.5521L47.1236 36.4921Z" fill="#0DB14B"/>
<path d="M33.7082 24.8881C33.3002 24.4921 32.7002 24.4921 32.2922 24.8881L26.8802 30.3001C26.5802 30.6001 26.5802 31.0561 26.7122 31.3561C26.8562 31.6801 27.2522 31.8961 27.6842 31.8961H38.3882C38.9282 31.8961 39.2762 31.5241 39.3482 31.1881C39.3842 30.9841 39.4082 30.5881 39.1202 30.3001L33.7082 24.8881ZM36.0962 29.9881L29.8442 30.0241L33.0002 26.8441L36.1082 30.0001L36.0962 29.9881Z" fill="#0DB14B"/>
<path d="M38.3035 34.104H27.6835C27.2275 34.104 26.8435 34.308 26.6995 34.644C26.5675 34.944 26.5675 35.4 26.8675 35.7L32.2795 41.112C32.4715 41.304 32.7235 41.412 32.9755 41.412C33.2515 41.412 33.5275 41.292 33.7555 41.064L39.1075 35.7C39.4075 35.4 39.4075 34.944 39.2875 34.644C39.1435 34.32 38.7595 34.104 38.3035 34.104ZM36.0835 36.012L32.9995 39.168L29.8555 35.988L36.0955 36.012H36.0835Z" fill="#0DB14B"/>
<path d="M56.7242 47.448C51.6122 47.448 47.4482 51.612 47.4482 56.724C47.4482 61.836 51.6122 66 56.7242 66C61.8362 66 66.0002 61.836 66.0002 56.724C66.0002 51.612 61.8362 47.448 56.7242 47.448ZM64.1282 56.724C64.1282 60.804 60.8042 64.128 56.7242 64.128C52.6442 64.128 49.3202 60.804 49.3202 56.724C49.3202 52.644 52.6442 49.32 56.7242 49.32C60.8042 49.32 64.1282 52.644 64.1282 56.724Z" fill="#0DB14B"/>
<path d="M59.52 59.6761C57.996 60.6241 56.148 60.3601 55.032 59.0761L58.224 58.9921C58.536 58.9921 58.8 58.8721 58.968 58.6801C59.124 58.4881 59.196 58.2241 59.16 57.9481C59.04 57.0361 57.588 57.1081 56.184 57.1681C55.404 57.2161 54.588 57.2521 54.156 57.0961C54.132 57.0721 54.084 56.9401 54.084 56.7241C54.084 56.5321 54.132 56.4001 54.156 56.3521L58.392 56.2561C58.596 56.2561 58.776 56.1721 58.92 56.0161C59.124 55.7881 59.184 55.4761 59.16 55.2721C59.076 54.3001 57.804 54.3481 56.568 54.4081C56.004 54.4321 55.428 54.4561 54.996 54.3841C56.316 52.8601 58.308 53.0041 59.64 53.8201C59.856 53.9521 60.096 53.9761 60.348 53.9161C60.576 53.8561 60.768 53.7121 60.864 53.5321C61.116 53.0521 60.996 52.5001 60.576 52.2361C59.232 51.3721 57.672 51.1201 56.16 51.5401C54.684 51.9481 53.436 52.9801 52.728 54.3721C52.536 54.4201 52.296 54.4201 52.068 54.4201C51.96 54.4201 51.84 54.4201 51.744 54.4201C51.432 54.4441 51.18 54.5521 51.012 54.7321C50.856 54.9121 50.772 55.1641 50.796 55.4641C50.856 56.1961 51.348 56.2201 51.684 56.2321C51.876 56.2321 52.044 56.2441 52.128 56.3521C52.212 56.4481 52.236 56.6641 52.212 56.9641C52.188 57.1321 52.068 57.1561 51.684 57.1801H51.576C50.988 57.2281 50.784 57.7201 50.796 58.1281C50.82 58.9681 51.552 58.9921 52.08 59.0041C52.332 59.0041 52.596 59.0161 52.728 59.1001C53.496 60.5641 54.828 61.6201 56.412 61.9801C56.808 62.0761 57.204 62.1121 57.588 62.1121C58.716 62.1121 59.808 61.7401 60.744 61.0321C60.912 60.9121 60.996 60.7081 60.984 60.4561C60.984 60.1441 60.828 59.8081 60.636 59.6641C60.288 59.4241 59.88 59.4241 59.484 59.6641L59.52 59.6761Z" fill="#0DB14B"/>
<path d="M9.276 18.54C14.388 18.54 18.552 14.376 18.552 9.264C18.552 4.152 14.388 0 9.276 0C4.164 0 0 4.164 0 9.276C0 14.388 4.164 18.552 9.276 18.552V18.54ZM1.872 9.276C1.872 5.196 5.196 1.872 9.276 1.872C13.356 1.872 16.68 5.196 16.68 9.276C16.68 13.356 13.356 16.68 9.276 16.68C5.196 16.68 1.872 13.356 1.872 9.276Z" fill="#0DB14B"/>
<path d="M7.65591 13.7279C8.11191 13.9799 8.38791 14.1479 8.37591 14.4119C8.37591 14.7479 8.47191 15.0359 8.67591 15.2279C8.83191 15.3719 9.03591 15.4439 9.26391 15.4439C9.29991 15.4439 9.33591 15.4439 9.37191 15.4439C10.0439 15.3719 10.1039 14.9399 10.1399 14.5919C10.1759 14.2679 10.2119 14.0159 10.5959 13.8839C11.5799 13.5479 12.3599 12.6839 12.5519 11.7359C12.7799 10.5839 12.4679 9.57593 11.6999 8.96393C11.1359 8.51993 10.3199 8.30393 9.58791 8.11193C8.87991 7.93193 8.20791 7.75193 8.06391 7.41593C8.00391 7.27193 8.03991 7.07993 8.17191 6.83993C8.42391 6.39593 8.90391 6.19193 9.49191 6.27593C10.1999 6.37193 10.3319 6.79193 10.4759 7.23593C10.6079 7.65593 10.7639 8.12393 11.4839 8.05193C11.9999 8.00393 12.3359 7.55993 12.2999 6.99593C12.2279 5.87993 11.4839 4.96793 10.3079 4.55993C10.1879 4.52393 10.1759 4.23593 10.1639 4.07993V3.99593C10.1159 3.40793 9.74391 3.07193 9.17991 3.09593C8.47191 3.14393 8.42391 3.59993 8.38791 3.97193C8.35191 4.33193 8.30391 4.55993 7.96791 4.67993C7.12791 4.97993 6.44391 5.75993 6.28791 6.56393C6.07191 7.69193 6.38391 8.61593 7.15191 9.16793C7.76391 9.61193 8.50791 9.77993 9.16791 9.93593C10.2119 10.1759 10.7879 10.3559 10.7519 11.0879C10.7279 11.6039 10.3319 12.0599 9.79191 12.1919C9.23991 12.3239 8.75991 12.2759 8.31591 12.0359C7.95591 11.8319 7.84791 11.4599 7.73991 11.0999C7.60791 10.6439 7.43991 10.1159 6.71991 10.1879C6.21591 10.2359 5.87991 10.6439 5.89191 11.2079C5.91591 12.7679 6.91191 13.3199 7.63191 13.7279H7.65591Z" fill="#0DB14B"/>
</g>
<defs>
<clipPath id="clip0_87_3830">
<rect width="66" height="66" fill="white"/>
</clipPath>
</defs>
</svg>
