<svg width="63" height="63" viewBox="0 0 63 63" fill="none" xmlns="http://www.w3.org/2000/svg">
<g clip-path="url(#clip0_87_3842)">
<path d="M0 33.4861V29.5016L0.31011 27.0918C1.1808 20.2681 4.37732 14.0648 9.24366 9.22135C9.67304 8.80382 10.2694 8.83961 10.663 9.23328L16.8175 15.3054C16.8175 14.4346 16.9487 13.8023 17.6643 13.7188C18.1891 13.6591 18.7497 13.9932 18.8213 14.6612L19.191 18.0731C19.2507 18.6696 18.7259 19.1945 18.1295 19.1348L14.7183 18.7769C13.9907 18.7054 13.6568 18.0612 13.7999 17.4766C13.9669 16.8086 14.6467 16.8086 15.3862 16.7608L9.98315 11.321C0.322037 21.6162 -0.703711 37.22 7.50227 48.6485C7.81238 49.078 7.57384 49.7818 7.18023 50.0085C6.84627 50.1994 6.22605 50.2471 5.91594 49.8296C2.34968 44.9981 0.57251 39.3435 0 33.4861Z" fill="#0DB14B"/>
<path d="M43.8444 44.9863C43.7729 44.2944 44.2977 43.7814 44.906 43.8411L48.1502 44.1751C48.6154 44.2228 49.0209 44.4614 49.1521 44.7358C49.3549 45.1772 49.2594 45.5947 49.0328 45.8691C48.7227 46.2389 48.2814 46.1077 47.685 46.215L53.0643 51.643C62.7015 41.3597 63.7392 25.7678 55.5213 14.3393C55.2112 13.9098 55.4497 13.2179 55.8195 13.0031C56.225 12.7646 56.8571 12.7884 57.1553 13.206C66.065 25.7201 64.6695 42.839 53.8276 53.7187C53.4936 54.0528 52.8734 54.2436 52.4679 53.838L46.218 47.6704C46.1941 48.4697 46.1464 49.0662 45.5143 49.2332C44.9298 49.4002 44.2977 49.0543 44.2142 48.3146L43.8564 44.9863H43.8444Z" fill="#0DB14B"/>
<path d="M48.5801 55.5677C49.1288 55.174 49.7609 55.4245 49.9995 55.8063C50.238 56.188 50.2142 56.8441 49.7967 57.1424C37.2492 66.0895 20.0739 64.6461 9.19618 53.7186C8.89799 53.4203 8.82643 52.8 9.17232 52.4541L15.3507 46.203C14.5396 46.1672 13.9552 46.1314 13.7882 45.4991C13.6331 44.9265 13.9671 44.2704 14.7066 44.1988L18.1059 43.8409C18.8096 43.7693 19.2509 44.4135 19.1674 45.0697L18.7619 48.4457C18.6784 49.1257 17.9985 49.3524 17.4976 49.2211C16.8654 49.0422 16.8296 48.4576 16.7939 47.6584L11.355 53.0505C21.5886 62.6538 37.118 63.7394 48.5682 55.5677H48.5801Z" fill="#0DB14B"/>
<path d="M43.8568 18.1925L44.1788 14.8522C44.2265 14.3989 44.477 13.9813 44.7394 13.8501C45.1926 13.6473 45.6101 13.7428 45.8725 13.9694C46.2542 14.2915 46.111 14.7329 46.2303 15.3413L51.6572 9.94915C41.3878 0.29814 25.7869 -0.727801 14.3606 7.47973C13.9789 7.75411 13.3468 7.5871 13.0963 7.28886C12.8458 6.99062 12.7265 6.20327 13.1321 5.91696C25.6557 -3.10178 42.9384 -1.6941 53.8161 9.25724C54.2455 9.6867 54.0904 10.319 53.673 10.7246L47.6735 16.7729C48.4846 16.8086 49.069 16.8444 49.236 17.4767C49.3911 18.0493 49.0452 18.7054 48.3176 18.777L44.9064 19.1468C44.4054 19.1946 43.7971 18.789 43.8568 18.1686V18.1925Z" fill="#0DB14B"/>
<path d="M42.2941 36.6236C43.3795 41.3596 41.5427 45.869 37.8333 48.4458C34.0166 51.0941 29.0071 51.0941 25.2023 48.4458C21.3975 45.7974 19.6561 41.2284 20.7534 36.552L17.4138 36.5043C16.8771 36.5043 16.4835 36.051 16.4954 35.4903L16.5431 29.5016C16.5908 23.7516 21.1351 19.1348 26.8125 17.8465C23.7233 15.0907 23.5563 10.4382 26.3115 7.51546C29.0668 4.59271 33.8138 4.52114 36.6525 7.42002C39.4912 10.3189 39.3719 15.0549 36.2351 17.8465C41.9005 19.1348 46.4568 23.7635 46.5045 29.5016L46.5522 35.4903C46.5641 37.2678 43.7135 36.1583 42.3061 36.6236H42.2941ZM36.6764 12.4185C36.6764 9.56734 34.3625 7.25301 31.5119 7.25301C28.6612 7.25301 26.3473 9.56734 26.3473 12.4185C26.3473 15.2697 28.6612 17.584 31.5119 17.584C34.3625 17.584 36.6764 15.2697 36.6764 12.4185ZM21.5287 34.4763C22.8168 31.8279 24.9161 30.0265 27.5281 28.929L28.9236 19.612C23.4251 19.8625 19.0598 24.1095 18.4992 29.5016V34.5001C19.5488 34.5001 20.4672 34.5717 21.5168 34.4643L21.5287 34.4763ZM33.3844 28.3206L32.0486 19.6836C31.7981 19.5524 31.0109 19.4927 30.9751 19.7433L29.6393 28.3206C30.9155 28.1894 32.0486 28.1655 33.3844 28.3206ZM44.5603 34.4285L44.5126 29.6686C44.453 24.1811 39.5628 19.8148 34.1001 19.6359L35.5075 28.929C38.1792 30.0265 40.2665 31.9114 41.5308 34.5001C42.6042 34.5001 43.5465 34.6313 44.5722 34.4285H44.5603ZM40.6124 39.3197C40.6124 34.2854 36.5332 30.2055 31.4999 30.2055C26.4666 30.2055 22.3875 34.2854 22.3875 39.3197C22.3875 44.3539 26.4666 48.4338 31.4999 48.4338C36.5332 48.4338 40.6124 44.3539 40.6124 39.3197Z" fill="#0DB14B"/>
<path d="M30.5098 45.6542C30.5098 45.3679 30.5217 45.177 30.486 45.01C30.3786 44.5447 28.4702 44.6521 27.4803 42.97C27.1582 42.4213 27.361 41.7652 27.8739 41.5266C28.4702 41.2522 28.8758 41.5981 29.3171 42.0753C30.4263 43.2921 33.599 43.2563 33.7063 41.7413C33.8495 39.7491 27.7069 40.8704 27.3849 37.0888C27.2537 35.5976 28.4106 34.3569 29.818 33.999C31.2254 33.6411 29.9731 32.7345 30.9273 32.0426C31.2851 31.7801 31.7145 31.8159 32.0126 31.9829C32.7164 32.3647 32.4063 33.2355 32.5494 33.6769C32.6687 34.0467 34.422 33.9632 35.3642 35.5856C35.6863 36.1344 35.4477 36.7547 34.9706 37.0053C34.3981 37.3035 33.9926 36.9695 33.5513 36.5042C32.275 35.1204 29.2097 35.7646 29.3886 36.9933C29.4364 37.3274 29.7465 37.6852 30.1281 37.8045L33.5513 38.8543C34.9229 39.2838 35.8175 40.5125 35.7101 41.9083C35.5073 44.4851 32.7998 44.7475 32.6567 44.9026C32.3585 45.2128 32.8237 46.7159 31.5833 46.8114C31.0346 46.8471 30.4979 46.4057 30.5217 45.6661L30.5098 45.6542Z" fill="#0DB14B"/>
</g>
<defs>
<clipPath id="clip0_87_3842">
<rect width="63" height="63" fill="white"/>
</clipPath>
</defs>
</svg>
