<svg width="69" height="71" viewBox="0 0 69 71" fill="none" xmlns="http://www.w3.org/2000/svg">
<g clip-path="url(#clip0_87_3929)">
<path d="M37.6545 3.42906C35.8396 1.63243 33.1706 1.63243 31.3983 3.34142C30.9286 3.79058 30.3948 3.84536 29.9677 3.45097C29.5407 3.05659 29.3912 2.46501 29.861 1.97204C32.3485 -0.602413 36.3414 -0.646233 38.925 1.80771C39.3627 2.224 39.5229 2.77176 39.1172 3.30856C38.8503 3.65912 38.1777 3.97682 37.6439 3.44002L37.6545 3.42906Z" fill="#0DB14B"/>
<path d="M37.3452 6.94569C36.4164 8.74233 35.1246 5.43389 33.1815 7.19766C32.7972 7.54822 32.1993 7.53727 31.815 7.19766C31.4734 6.90187 31.3239 6.16788 31.7403 5.74063C33.2136 4.20692 35.6264 4.18501 37.1317 5.65299C37.5588 6.06929 37.5267 6.57322 37.3452 6.93474V6.94569Z" fill="#0DB14B"/>
<path d="M34.484 11.2183C35.0383 11.2183 35.4876 10.7572 35.4876 10.1885C35.4876 9.61974 35.0383 9.15869 34.484 9.15869C33.9298 9.15869 33.4805 9.61974 33.4805 10.1885C33.4805 10.7572 33.9298 11.2183 34.484 11.2183Z" fill="#0DB14B"/>
<path d="M66.9395 54.3156C67.0569 53.1543 66.9715 52.1465 66.9609 50.9305H2.04982C1.91103 51.9055 1.98577 52.8257 1.98577 53.8883C1.98577 55.7617 3.34164 57.5473 5.33808 57.5473L49.6868 57.5692C50.3167 57.5692 50.6263 57.9855 50.6904 58.4237C50.7651 58.9058 50.5516 59.6507 49.911 59.6507L40.3238 59.7055L40.3025 68.8968L46.7829 68.9626C47.4235 68.9626 47.6797 69.5432 47.6263 70.1019C47.5836 70.5949 47.2633 71.0112 46.5801 71.0112H22.4306C21.8221 71.0112 21.4164 70.7263 21.3096 70.2552C21.2028 69.7842 21.3843 69.0064 22.0142 68.9954L28.5907 68.8968L28.5694 59.6945L5.48754 59.6726C2.7331 59.6726 0 57.4378 0 54.458L0 17.7584C0 14.68 2.70107 12.4123 5.47687 12.4123H10.2491C10.8577 12.4123 11.2206 12.8505 11.2313 13.3983C11.242 13.8255 11.0178 14.439 10.4199 14.439L5.48754 14.4609C3.6726 14.5595 1.99644 15.9289 1.99644 17.9556L1.97509 48.849H66.9609V17.9994C66.9609 15.9837 65.3701 14.5924 63.4804 14.4609H16.5801C15.9502 14.45 15.7794 13.7269 15.79 13.3654C15.8007 12.8505 16.2278 12.4014 16.9537 12.4014L63.4911 12.4233C66.4911 12.4233 68.9786 14.8553 68.9786 17.9556L69.0107 53.8336C69.0107 57.0653 66.6406 59.6507 63.5231 59.6617L56.4448 59.6836C55.7936 59.6836 55.4199 59.1358 55.4306 58.5881C55.4413 58.0403 55.8363 57.5802 56.4769 57.5692L63.7367 57.5364C65.4235 57.5364 66.7794 56.0684 66.9609 54.3156H66.9395ZM38.306 59.6836H30.6726V68.9406H38.306V59.6836Z" fill="#0DB14B"/>
<path d="M26.1353 40.7861C30.363 37.0614 31.2065 30.8389 28.1637 26.1501C25.121 21.4613 19.3452 19.8728 14.4449 22.3597C9.54453 24.8465 7.2278 30.4993 8.97869 35.8235C10.7296 41.1477 15.8328 44.2041 21.2456 43.1634C21.8968 43.0429 22.452 43.3058 22.5588 43.8974C22.6762 44.5437 22.42 45.0477 21.6513 45.212C15.299 46.4937 9.05343 42.6375 7.04631 36.4589C5.03919 30.2802 7.80431 23.4333 13.4627 20.5411C19.121 17.649 26.2634 19.5113 29.8399 24.967C33.4378 30.4664 32.5089 37.8392 27.5979 42.2322C27.1709 42.6156 26.6157 42.5718 26.2954 42.3199C25.9431 42.035 25.6442 41.2463 26.146 40.7971L26.1353 40.7861Z" fill="#0DB14B"/>
<path d="M53.7971 36.1847L42.0853 36.1628C41.4768 36.1628 41.0391 35.7355 41.0391 35.1111V29.4363C41.0391 28.8229 41.4768 28.4285 42.0747 28.4285L53.7864 28.3956L53.8184 24.5942C53.8184 24.0683 54.0747 23.7068 54.5017 23.5206C54.8433 23.3782 55.2811 23.4439 55.6334 23.8054L63.0747 31.463C63.491 31.8903 63.4163 32.7448 63.0213 33.1501L55.548 40.8187C55.2384 41.1364 54.8006 41.1145 54.459 41.0049C54.064 40.8844 53.8291 40.4353 53.8291 39.9204L53.7971 36.1628V36.1847ZM54.9287 34.0923C56.3914 34.0923 55.6013 36.7544 55.9216 37.4883L61.0142 32.2956L55.943 27.1139C55.5586 28.056 56.4768 30.4552 54.8433 30.4661L43.0782 30.488V34.0594L54.9287 34.1032V34.0923Z" fill="#0DB14B"/>
<path d="M21.8652 38.8031C21.3634 39.0003 22.0681 40.7422 20.7335 40.9174C20.0823 41.0051 19.5805 40.4464 19.6019 39.7452C19.6125 39.2523 19.5592 39.1098 19.1855 39.0879C18.7905 39.077 18.641 39.2742 18.673 39.7343C18.7157 40.4464 18.2246 40.9065 17.6268 40.8846C16.1748 40.8407 17.093 39.1208 16.1428 39.066C15.5876 39.0332 15.0645 38.6826 15.0645 38.0362V26.6429C15.0538 25.1092 16.73 26.0075 16.6446 25.0216C16.5698 24.2438 16.9755 23.6851 17.6268 23.6741C18.3207 23.6632 18.7691 24.2109 18.6837 24.9887C18.641 25.4269 18.8118 25.5693 19.1962 25.5584C19.4524 25.5584 19.6339 25.4269 19.6019 24.9887C19.5592 24.2766 19.8795 23.696 20.5627 23.6522C21.1179 23.6193 21.641 24.0356 21.6517 24.7915C21.6517 25.0873 21.5663 25.7008 21.7478 25.9199C22.8688 26.5334 23.456 27.5522 23.7656 28.4067C24.2994 29.8528 23.3812 31.0359 23.1037 32.0767C23.5627 33.2598 24.6624 34.3444 24.2033 35.9548C23.8937 37.0284 23.2211 38.2663 21.8759 38.7812L21.8652 38.8031ZM20.3812 31.2222C21.3848 31.1236 21.8652 30.1376 21.8118 29.3489C21.6624 27.0264 18.7585 27.7385 17.0609 27.7385C17.0609 29.0202 16.9862 30.0609 17.1037 31.255C18.2033 31.2331 19.2069 31.3427 20.3812 31.2222ZM22.1962 35.1879C22.1962 32.6354 19.0574 33.5227 17.093 33.4241C17.0396 34.7059 17.0182 35.8014 17.1143 36.9846C18.8866 36.886 22.2175 37.7076 22.2069 35.177L22.1962 35.1879Z" fill="#0DB14B"/>
<path d="M44.0499 25.2408H32.8506C32.2421 25.2408 31.8044 24.9998 31.6976 24.4411C31.6122 24.0139 31.8257 23.2251 32.477 23.2251H44.4449C45.0855 23.2251 45.2563 23.8934 45.2456 24.2987C45.2243 24.967 44.7332 25.2408 44.0499 25.2408Z" fill="#0DB14B"/>
<path d="M38.4552 41.1915H32.6367C32.0282 41.1915 31.6866 40.7424 31.6438 40.2494C31.6011 39.7016 31.9855 39.1758 32.6367 39.1758H38.5406C39.0958 39.1758 39.3947 39.6578 39.4268 40.0741C39.4695 40.6109 39.1812 41.1915 38.4552 41.1915Z" fill="#0DB14B"/>
<path d="M37.7613 33.1611H35.4019C34.6973 33.1611 34.2062 32.8543 34.1955 32.1861C34.1848 31.5178 34.6119 31.0796 35.4019 31.0796H37.7613C38.4766 31.0796 38.9037 31.4192 38.9571 31.9889C39.0211 32.7557 38.5514 33.1611 37.772 33.1611H37.7613Z" fill="#0DB14B"/>
<path d="M46.612 40.238C46.7294 41.7937 44.5942 41.3336 43.0675 41.3883C42.4589 41.4102 41.9785 41.1364 41.8931 40.6215C41.8077 40.1614 41.8931 39.4164 42.5123 39.3507C43.6226 39.2411 44.7116 39.2959 45.8326 39.3288C46.3771 39.3397 46.5906 39.8765 46.612 40.238Z" fill="#0DB14B"/>
</g>
<defs>
<clipPath id="clip0_87_3929">
<rect width="69" height="71" fill="white"/>
</clipPath>
</defs>
</svg>
