<svg width="79" height="53" viewBox="0 0 79 53" fill="none" xmlns="http://www.w3.org/2000/svg">
<g clip-path="url(#clip0_87_3945)">
<path d="M50.1686 49.1887C53.3648 43.6443 52.0558 36.9265 47.3106 32.9862C42.5653 29.0459 35.4965 29.0136 30.7077 32.9862C25.9188 36.9588 24.6534 43.6659 27.8169 49.1133C28.526 50.3299 28.1114 51.7402 27.1297 52.4723C26.0061 53.3012 24.2934 53.1613 23.4753 51.9878C22.4717 50.5452 21.9263 48.9949 21.3917 47.2186L1.02541 47.197C0.425435 47.197 0.0545429 46.8202 0 46.2712C0.0763601 44.6025 -0.0872687 43.0307 0.0763601 41.3727C0.567247 36.3666 3.81801 32.2326 8.53052 30.2732C4.75615 27.1511 4.51616 21.8221 7.71237 18.4954C10.8977 15.1688 16.2756 15.1365 19.4827 18.4954C22.6899 21.8544 22.4826 27.0865 18.6755 30.2624C20.4972 31.1022 22.0135 32.0388 23.4317 33.4383C24.1298 32.5125 24.6643 31.7051 25.3407 30.9299C25.2861 28.9167 25.1334 26.9681 25.4061 24.9226C26.0279 20.078 29.2677 16.2131 33.7948 14.2752C30.0423 11.1962 29.8132 5.91021 32.9112 2.58358C36.0093 -0.743047 41.4854 -0.850705 44.7034 2.46516C47.9214 5.78102 47.7687 11.0993 43.9398 14.2968C49.2414 16.4822 52.5249 21.3807 52.503 27.0004V30.7146C53.4521 31.7589 54.1502 32.8247 54.9902 34.0951C56.5719 32.3187 58.2628 31.1883 60.3572 30.2624C56.5392 27.0973 56.3756 21.8005 59.55 18.4954C62.7244 15.1903 68.135 15.158 71.3204 18.4954C74.5057 21.8328 74.2766 27.1511 70.5022 30.284C75.3674 32.2972 78.9564 36.6358 79 41.8141L79.0327 46.2819C78.9782 46.831 78.5964 47.2078 78.0073 47.2078L56.6592 47.2293C56.1574 48.898 55.6229 50.2976 54.7829 51.7187C54.063 52.946 52.4921 53.3981 51.1831 52.6768C50.1468 52.1062 49.4159 50.5883 50.2013 49.221L50.1686 49.1887ZM45.1507 7.99878C45.1507 4.56449 42.3362 1.78691 38.8564 1.78691C35.3766 1.78691 32.5621 4.56449 32.5621 7.99878C32.5621 11.4331 35.3766 14.2106 38.8564 14.2106C42.3362 14.2106 45.1507 11.4331 45.1507 7.99878ZM50.5613 28.8844C51.4558 22.8556 47.8887 17.0097 41.7581 15.5025C39.8273 16.1377 37.9183 16.1592 35.9874 15.5025C29.8241 16.999 26.1043 22.974 27.2497 29.0459C34.1984 23.4046 43.7653 23.4692 50.5613 28.8952V28.8844ZM19.8973 23.9752C19.8973 20.5409 17.0829 17.7634 13.603 17.7634C10.1232 17.7634 7.30875 20.5409 7.30875 23.9752C7.30875 27.4095 10.1232 30.1871 13.603 30.1871C17.0829 30.1871 19.8973 27.4095 19.8973 23.9752ZM71.7022 23.9752C71.7022 20.5409 68.8877 17.7634 65.4079 17.7634C61.9281 17.7634 59.1136 20.5409 59.1136 23.9752C59.1136 27.4095 61.9281 30.1871 65.4079 30.1871C68.8877 30.1871 71.7022 27.4095 71.7022 23.9752ZM51.7613 50.0607C51.4667 50.5775 51.9467 51.105 52.1976 51.1696C52.4703 51.2342 52.9394 51.245 53.1576 50.8574C57.1937 43.9242 55.5465 35.2685 49.3723 30.2624C43.2853 25.3317 34.3293 25.4178 28.3732 30.4778C22.3735 35.57 20.8463 44.1718 24.9479 50.9758C25.1443 51.3096 25.8206 51.2342 26.0279 51.062C26.2352 50.8897 26.4533 50.3729 26.2242 49.9746C22.668 43.752 24.1407 36.076 29.595 31.5866C35.0493 27.0973 43.0453 27.1296 48.4669 31.6189C53.8775 36.1083 55.3502 43.7735 51.7613 50.0607ZM21.0209 45.313C20.5081 41.5127 21.1081 38.3045 22.5153 35.1393C20.9227 33.2769 18.8391 32.0819 16.4829 31.4897C14.5521 32.1357 12.6867 32.1465 10.7231 31.4897C4.26526 33.1369 0.970864 38.9504 1.909 45.3884L21.0209 45.3238V45.313ZM77.1783 45.3453V41.8464C76.7637 36.8403 73.2294 32.6524 68.2878 31.479C66.3351 32.1249 64.4589 32.1142 62.528 31.479C59.8118 32.1572 57.4774 33.6752 55.8411 35.936C56.9865 38.9181 57.4883 41.9756 56.9756 45.3561H77.1674L77.1783 45.3453Z" fill="#0DB14B"/>
<path d="M35.1475 50.7069C35.1475 51.2236 34.7766 51.482 34.4275 51.4928C33.9912 51.5035 33.6421 51.2775 33.6312 50.793L33.5876 47.5417C32.8894 47.3587 31.1768 47.897 31.1768 46.7558V40.3179C31.1768 39.1552 32.8894 39.7688 33.5876 39.5427L33.6312 36.2915C33.6312 35.8501 33.9257 35.624 34.2857 35.6025C34.6457 35.5809 35.1038 35.7424 35.1148 36.2053L35.1911 39.575C35.9002 39.7365 37.5692 39.209 37.5692 40.3071V46.6482C37.591 47.9078 36.0638 47.3802 35.1911 47.531L35.1475 50.7069ZM36.042 41.1253H32.7149V46.0022H36.042V41.1253Z" fill="#0DB14B"/>
<path d="M44.376 50.7069C44.376 51.2236 44.0051 51.482 43.656 51.4928C43.2197 51.5035 42.8706 51.2775 42.8597 50.793L42.8161 47.5417C42.1179 47.3587 40.4053 47.897 40.4053 46.7558V40.3179C40.4053 39.1552 42.1179 39.7688 42.8161 39.5427L42.8597 36.2915C42.8597 35.8501 43.1542 35.624 43.5142 35.6025C43.8742 35.5809 44.3324 35.7424 44.3433 36.2053L44.4196 39.575C45.1287 39.7365 46.7977 39.209 46.7977 40.3071V46.6482C46.8195 47.9078 45.2923 47.3802 44.4196 47.531L44.376 50.7069ZM45.2705 41.1253H41.9434V46.0022H45.2705V41.1253Z" fill="#0DB14B"/>
</g>
<defs>
<clipPath id="clip0_87_3945">
<rect width="79" height="53" fill="white"/>
</clipPath>
</defs>
</svg>
