<svg width="79" height="79" viewBox="0 0 79 79" fill="none" xmlns="http://www.w3.org/2000/svg">
<g clip-path="url(#clip0_79_3785)">
<path d="M40.4781 78.5757C39.8352 79.2187 39.028 79.0819 38.4809 78.521L30.8613 70.8604C30.4783 70.4774 30.574 69.8344 30.7929 69.4103C31.3538 68.357 33.3236 69.0547 34.418 68.7264V62.4474L20.2869 62.42C18.1255 62.42 16.5797 60.628 16.5797 58.5077V44.5955H10.2871C9.98615 45.7035 10.6565 47.6597 9.60312 48.2206C9.19273 48.4394 8.5361 48.5352 8.15307 48.1522L0.369351 40.3958C-0.123117 39.9033 -0.123117 39.0826 0.369351 38.5901L8.0026 30.9432C8.38563 30.5601 8.91913 30.5054 9.4116 30.6832C10.6838 31.1347 9.94511 33.2687 10.2597 34.3904H16.5524V20.4782C16.5524 18.3716 18.0982 16.5795 20.2596 16.5658L34.3906 16.5385V10.2458C33.2826 9.93121 31.3264 10.6152 30.7655 9.56186C30.5467 9.13779 30.4509 8.49485 30.8339 8.11182L38.4809 0.478572C39.0144 -0.0549343 39.8352 -0.205411 40.4097 0.369135L48.0566 8.00238C48.4397 8.38541 48.4944 8.91892 48.3165 9.41139C47.8651 10.6836 45.7311 9.94489 44.6094 10.2595V16.5522H58.5216C60.7787 16.5522 62.4613 18.2348 62.4613 20.4919V34.3904H68.7539C69.0686 33.255 68.3299 31.1347 69.6021 30.6832C70.0945 30.5054 70.6281 30.5601 71.0111 30.9432L78.658 38.5901C79.1505 39.0826 79.1505 39.9033 78.658 40.3958L71.0248 48.0427C70.6281 48.4394 70.1082 48.4805 69.6021 48.3026C68.3299 47.8512 69.0822 45.7172 68.7539 44.5955H62.4613L62.4339 58.7402C62.4339 60.7648 60.7787 62.42 58.7541 62.42L44.6094 62.4474V68.74C45.7311 69.0684 47.8651 68.3023 48.3165 69.5882C48.4944 70.0807 48.4397 70.6142 48.0566 70.9972L40.4918 78.5757H40.4781ZM42.0649 16.5248V9.12411C42.0513 8.1255 42.6395 7.63303 43.8706 7.50991L39.5068 3.03667L35.1567 7.49623C36.2237 7.64671 36.9351 7.97502 36.9487 8.89156V16.5385L42.0649 16.5111V16.5248ZM59.9032 19.1103H19.1105V59.903H59.9032V19.1103ZM16.5661 42.0237V36.9485H9.13801C7.87948 36.9485 7.81108 36.3193 7.49645 35.1565L3.06424 39.5066L7.52381 43.8841C7.70164 42.9539 7.87948 42.1194 8.71394 42.1058L16.5661 42.0374V42.0237ZM69.8757 42.051C71.3394 42.051 71.1889 42.9539 71.5446 43.8978L75.9494 39.4929L71.4899 35.1291C71.312 36.0457 71.1342 36.8938 70.3134 36.8938L62.4613 36.9485V42.0374H69.8894L69.8757 42.051ZM43.8022 71.5307C42.4616 71.2571 42.0376 70.8057 42.0513 69.8618V62.4474H36.9487V69.8755C36.9487 71.3118 36.0596 71.2161 35.1293 71.5444L39.5068 75.9629L43.8022 71.5444V71.5307Z" fill="#0DB14B"/>
<path d="M30.7379 37.1129L22.3249 41.846C21.8461 41.1621 21.4631 40.5465 21.0938 39.6436L29.4794 34.8147C30.0676 34.3906 30.7516 34.3359 31.4082 34.6095L39.4382 38.0841L49.5611 33.5562C49.0686 32.2156 47.7144 31.3537 48.371 30.2047C48.6446 29.7122 49.0823 29.548 49.6842 29.5754L55.9085 29.8353C56.3873 29.849 56.825 30.0815 57.0165 30.4099C57.208 30.7382 57.3038 31.2033 57.126 31.6547L54.6363 37.7148C54.4584 38.1662 54.0344 38.3988 53.6924 38.4535C53.282 38.5219 52.8032 38.4261 52.5296 38.0294L50.9975 35.7449L39.5066 40.8337L30.7242 37.0855L30.7379 37.1129ZM54.0754 32.3797C53.3367 32.2566 52.7485 32.1608 51.9961 32.3524C52.3107 33.1047 52.7211 33.6793 53.2409 34.3496C53.5829 33.7066 53.8155 33.1047 54.0754 32.3797Z" fill="#0DB14B"/>
<path d="M50.9841 57.3451H45.9774C45.1566 57.3451 44.5957 56.7843 44.5957 55.9498V43.4329C44.5957 42.5985 45.1566 42.0513 45.9774 42.0513H50.861C51.6681 42.0513 52.2426 42.6121 52.2426 43.4329V55.9498C52.2426 56.6885 51.8049 57.2494 50.9841 57.3451ZM49.6982 44.5957H47.1538V54.787H49.6982V44.5957Z" fill="#0DB14B"/>
<path d="M33.1462 57.3451H28.1395C27.3324 57.3451 26.7578 56.7843 26.7578 55.9498V44.5957C26.7578 43.8707 27.346 43.3235 28.0437 43.3235H33.1052C33.8028 43.3235 34.3774 43.8707 34.3774 44.5957V55.9498C34.3774 56.6748 33.9396 57.2494 33.1189 57.3451H33.1462ZM31.8603 45.8816H29.3159V54.8007H31.8603V45.8816Z" fill="#0DB14B"/>
<path d="M42.0515 57.3315H36.949C36.2103 57.3315 35.6768 56.7432 35.6768 56.0045V47.2359C35.6768 46.4561 36.2513 45.8679 37.031 45.8679H41.9694C42.7491 45.8679 43.3374 46.4561 43.3374 47.2359V56.0045C43.3374 56.7432 42.8039 57.3315 42.0652 57.3315H42.0515ZM40.7656 48.426H38.2349V54.7871H40.7656V48.426Z" fill="#0DB14B"/>
<path d="M40.5736 34.2264C40.1495 34.7462 38.9867 34.2264 38.3711 34.4179C38.1523 34.0622 38.2754 33.7613 38.1523 33.433C36.5928 32.8858 35.5668 31.5452 35.7036 29.8079C36.4697 29.7668 37.482 29.4796 38.1659 29.9036C38.4122 30.0541 38.3301 30.7518 38.59 30.8475C38.973 30.998 39.3014 31.039 39.7528 31.0254C40.3957 30.998 40.7788 30.6697 40.7788 30.1225C40.7788 29.5343 40.2179 29.2333 39.5339 29.3017C37.7556 29.4522 36.2371 28.3441 35.8267 26.8257C35.3343 25.0063 36.3055 23.3374 38.0565 22.6671C38.2891 22.4345 38.1933 21.9284 38.3848 21.6822C39.1919 21.6274 39.8759 21.6274 40.6693 21.6822C40.8745 21.9284 40.7924 22.4756 41.0524 22.6808C42.5161 23.3237 43.4737 24.5686 43.3369 26.2648C42.5845 26.2922 41.5585 26.5931 40.8745 26.1554C40.6146 25.9912 40.7104 25.3073 40.4504 25.2115C40.0811 25.061 39.7391 25.0063 39.3014 25.0337C38.6721 25.061 38.2891 25.362 38.2754 25.9365C38.2754 27.6191 41.8047 25.5945 43.1043 28.8777C43.6925 30.3551 43.2001 32.2976 41.6543 32.9952C40.9976 33.2962 40.984 33.7476 40.5872 34.2264H40.5736Z" fill="#0DB14B"/>
</g>
<defs>
<clipPath id="clip0_79_3785">
<rect width="79" height="79" fill="white"/>
</clipPath>
</defs>
</svg>
