<svg width="69" height="73" viewBox="0 0 69 73" fill="none" xmlns="http://www.w3.org/2000/svg">
<g clip-path="url(#clip0_79_3794)">
<path d="M10.981 48.7757C10.1722 49.6068 9.93912 51.6096 8.3214 51.6096C6.70367 51.6096 6.48432 49.6613 5.66175 48.7757C4.83918 47.8901 2.63195 47.7266 2.78275 45.9418C2.94727 43.9254 5.41498 44.8246 6.49803 42.0316C6.82706 41.1869 7.49883 40.5874 8.3214 40.5874C9.14397 40.5874 9.81573 41.2005 10.1448 42.0316C11.2004 44.7292 13.5173 43.939 13.8326 45.7511C14.1754 47.713 11.8585 47.9038 10.9948 48.7893L10.981 48.7757ZM11.1867 46.1871L9.44558 45.0154C8.78752 44.5794 8.70526 43.7483 8.26656 43.0534C7.82785 44.6339 6.92303 45.4241 5.36014 46.1053C6.92303 46.6912 7.70447 47.5631 8.33511 49.0482C8.93832 47.5223 9.69235 46.6912 11.1867 46.1871Z" fill="#0DB14B"/>
<path d="M63.3519 48.7757C62.5431 49.5931 62.2963 51.6096 60.6923 51.6096C59.0883 51.6096 58.8689 49.6749 58.0326 48.7757C57.1964 47.8765 55.0165 47.7675 55.1536 45.9282C55.3044 43.9254 57.7722 44.8109 58.8689 42.0179C59.1979 41.1868 59.8697 40.5737 60.6923 40.5737C61.5149 40.5737 62.2003 41.1732 62.5157 42.0179C63.5576 44.7156 65.8745 43.9254 66.2035 45.7374C66.56 47.6585 64.2019 47.9037 63.3519 48.762V48.7757ZM63.5576 46.187L61.8165 45.0289C61.1584 44.593 61.0762 43.7482 60.6237 43.0534C60.185 44.6338 59.2802 45.424 57.7173 46.1053C59.2802 46.6911 60.0617 47.5631 60.6923 49.0482C61.2955 47.5222 62.0495 46.6911 63.5439 46.187H63.5576Z" fill="#0DB14B"/>
<path d="M66.148 12.3712C65.3803 13.0796 65.1335 15.1369 63.5843 15.2459C61.8706 15.3549 61.6513 13.3113 60.8013 12.412C60.0199 11.5809 57.9909 11.3902 57.9223 9.82338C57.84 8.0522 59.9102 7.9432 60.7876 7.05761C61.665 6.17202 61.7747 4.27822 63.4198 4.22372C65.1472 4.16922 65.2843 6.22652 66.1891 7.08486C67.0391 7.90233 68.9585 8.06582 69.0133 9.63264C69.0819 11.3493 67.0391 11.5537 66.1617 12.3712H66.148ZM63.5295 12.5619C64.0367 11.2131 64.8867 10.3139 66.3537 9.78251C63.6803 8.07945 65.0238 9.18303 63.3924 6.86687C62.8714 8.17482 62.1585 9.12853 60.6916 9.55089C61.1029 10.2866 61.8981 10.273 62.3916 10.818C62.8577 11.3357 62.9948 12.0169 63.5432 12.5483L63.5295 12.5619Z" fill="#0DB14B"/>
<path d="M9.72014 9.41455C6.90969 10.5318 7.66371 12.6163 6.14196 13.0387C3.96214 13.6654 3.81134 11.2675 2.85167 10.3001C2.01539 9.4418 -0.0547459 9.29193 9.2148e-05 7.57525C0.0549302 6.00843 1.91942 5.84494 2.82425 5.01384C3.67424 4.23725 3.9073 2.08458 5.57987 2.11183C7.25243 2.13908 7.40323 4.12825 8.2258 4.97297C9.04837 5.81769 11.2008 5.98118 11.0911 7.76599C11.05 8.46084 10.4879 9.11481 9.73385 9.41455H9.72014ZM6.66292 8.7197L8.40403 7.58887C7.04678 7.07114 6.14196 6.2673 5.56616 4.71411C4.93552 6.14468 4.1952 7.00302 2.59119 7.65699C4.12666 8.29735 4.96294 9.06032 5.45648 10.5045L6.66292 8.73333V8.7197Z" fill="#0DB14B"/>
<path d="M25.3767 72.8094L20.88 69.3761C20.5098 69.2943 19.9614 69.6213 19.5913 69.7439C18.8784 70.0028 18.2066 69.7439 18.0284 69.1036C17.6034 67.6458 20.03 67.2915 21.3187 67.0054L25.5549 70.1935L33.2871 54.2938L31.8476 51.2419C27.0355 50.6696 22.5937 48.9802 18.6042 45.9283L11.7494 70.0982C13.1341 70.0709 15.5195 68.1362 16.0405 69.8665C16.1913 70.357 15.972 70.9837 15.3825 71.1881L10.447 72.9184C10.0632 73.0547 9.65187 72.8776 9.43252 72.7004C9.13091 72.4416 8.9664 72.0465 9.10349 71.5424L16.7945 44.3751C15.3139 42.8901 13.9841 41.4731 12.901 39.7156C12.5857 39.2114 12.8462 38.5983 13.2849 38.3259C13.7236 38.0534 14.4091 38.1215 14.7655 38.6528C21.7985 49.2254 35.9193 52.291 46.7087 45.8329C57.4981 39.3749 61.4053 25.4371 55.2634 14.3331C49.1216 3.22918 35.4669 -1.00803 24.1154 4.52351C12.7639 10.055 7.66399 23.5433 12.8462 35.2603C13.0793 35.7917 12.5994 36.4457 12.2018 36.5683C11.8043 36.6909 11.1325 36.6364 10.8994 36.1051C5.49789 24.1155 10.1454 10.1777 21.3324 3.58342C32.6564 -3.07896 47.1337 -0.217815 55.0715 10.1504C63.0093 20.5187 61.8714 35.2876 52.2062 44.3479L54.4957 52.4953C54.6739 53.122 54.2626 53.6534 53.7143 53.7896C53.2344 53.9123 52.686 53.667 52.4393 53.0812L50.3554 45.9147C45.7079 49.4571 40.3201 51.3236 34.3153 51.3509L43.4321 70.1799L47.2845 67.237C47.6684 66.9509 48.0659 66.9781 48.5046 67.128L57.2376 70.1527L53.5772 57.1413C53.4127 56.5418 53.8377 56.0104 54.3038 55.8878C54.8796 55.7243 55.4828 55.9968 55.6747 56.678L59.9247 71.7195C60.0343 72.1282 59.7464 72.5233 59.5545 72.6868C59.3352 72.8775 58.9239 73.041 58.54 72.9048L48.1345 69.2807L43.6789 72.7822C43.0483 73.0955 42.3902 72.9321 42.0612 72.2781L34.4798 56.7189L26.8984 72.2781C26.638 72.8094 25.9388 73.2318 25.363 72.7958L25.3767 72.8094Z" fill="#0DB14B"/>
<path d="M55.0985 25.6688C55.0985 36.9771 45.872 46.1464 34.4931 46.1464C23.1142 46.1464 13.8877 36.9771 13.8877 25.6688C13.8877 14.3604 23.1142 5.19116 34.4931 5.19116C45.872 5.19116 55.0985 14.3604 55.0985 25.6688ZM52.9461 25.6688C52.9461 15.5458 44.6793 7.33021 34.4931 7.33021C24.3069 7.33021 16.0401 15.5458 16.0401 25.6688C16.0401 35.7918 24.3069 44.0073 34.4931 44.0073C44.6793 44.0073 52.9461 35.7918 52.9461 25.6688Z" fill="#0DB14B"/>
<path d="M22.621 62.1414C22.3331 62.8226 21.6339 62.9452 21.1541 62.7409C20.592 62.5092 20.3864 61.8825 20.6468 61.283L22.7855 56.1875C23.0186 55.6289 23.5807 55.3428 24.0742 55.4926C24.6363 55.6561 25.0476 56.2829 24.7871 56.9096L22.621 62.1414Z" fill="#0DB14B"/>
<path d="M48.3261 61.2013C48.614 61.8689 48.3946 62.5365 47.8599 62.7545C47.3664 62.9589 46.6672 62.8226 46.4204 62.2231L44.2132 56.9096C43.9801 56.3374 44.3092 55.7651 44.8027 55.5335C45.2277 55.3428 45.9132 55.4926 46.1462 56.0512L48.3398 61.1877L48.3261 61.2013Z" fill="#0DB14B"/>
<path d="M36.3304 25.6006C35.1102 25.5734 36.1521 27.2356 34.6167 27.2764C33.0812 27.3173 33.986 25.5461 32.8756 25.6006C31.7651 25.6551 30.5724 24.8785 30.545 23.6523C30.5038 21.5405 30.4901 19.4968 30.545 17.385C30.5861 15.9272 32.0667 15.3277 33.4377 15.4095C33.7119 14.1424 32.9441 11.7581 34.411 11.6083C34.9731 11.5401 35.5626 11.8535 35.6449 12.5211C35.7546 13.4612 35.5626 14.4013 35.7409 15.3959C36.536 15.4776 37.2489 15.464 37.8247 15.9136C38.3457 16.3087 38.7021 17.0308 38.7021 17.8347L38.6747 23.4479C38.6747 24.7559 37.5916 25.6551 36.3304 25.6142V25.6006ZM36.536 17.603H32.6288V23.4479H36.536V17.603Z" fill="#0DB14B"/>
<path d="M26.953 33.5982C26.7611 34.0887 26.8433 34.7563 26.4458 35.0288C26.0208 35.3285 25.6506 35.274 25.1708 35.1106C24.6361 34.9334 24.8829 33.9525 24.5401 33.7345C23.9643 33.353 23.0732 33.68 22.5248 33.135C22.0724 32.6854 21.6611 32.1404 21.6611 31.2957L21.6886 25.478C21.6886 23.9385 23.1692 23.1755 24.6361 23.448C24.8829 22.0855 24.0877 19.6876 25.6369 19.5378C27.5014 19.3606 26.5691 22.3717 26.8982 23.4344C27.7756 23.3662 28.4611 23.4071 29.0506 23.9112C29.503 24.2927 29.8457 24.9058 29.832 25.696V31.4592C29.8046 32.9851 28.3514 33.7209 26.9256 33.5846L26.953 33.5982ZM27.707 25.5462H23.7998V31.4319H27.707V25.5462Z" fill="#0DB14B"/>
<path d="M44.46 33.1621C44.1583 33.312 44.3503 34.2112 43.9938 34.4156C43.5551 34.6608 43.1164 34.7835 42.6366 34.511C42.239 34.2793 42.1568 33.6662 42.1019 33.0259C40.7447 33.1894 39.1955 32.5218 39.1818 31.0776L39.127 25.3008C39.127 24.5378 39.36 23.8702 39.8398 23.4479C40.4019 22.9302 41.156 22.8212 42.0608 22.8757C42.4447 21.8266 41.5124 19.0608 43.1575 18.9791C44.9398 18.8837 44.1035 21.5541 44.3503 22.8212C45.1591 22.8757 45.872 22.8484 46.4478 23.2844C47.0236 23.7204 47.3252 24.4425 47.3252 25.3008V30.6825C47.3252 31.4591 47.0236 32.0177 46.6123 32.4537C46.0914 33.0123 45.2277 32.8897 44.46 33.1621ZM45.2003 24.9738H41.2931V30.846H45.2003V24.9738Z" fill="#0DB14B"/>
</g>
<defs>
<clipPath id="clip0_79_3794">
<rect width="69" height="73" fill="white"/>
</clipPath>
</defs>
</svg>
