<svg width="67" height="67" viewBox="0 0 67 67" fill="none" xmlns="http://www.w3.org/2000/svg">
<g clip-path="url(#clip0_79_3809)">
<path d="M54.3622 57.6153C53.951 58.3046 54.7975 60.288 53.3584 60.4452C52.7658 60.5057 52.3183 60.0461 52.2578 59.3931C52.2215 58.9214 52.3909 58.353 52.1853 57.9902C52.0522 57.7604 51.2419 57.7725 51.0605 57.9539C50.7945 58.3893 51.0243 59.0303 50.9517 59.5503C50.8791 60.1187 50.4558 60.4573 49.96 60.4452C48.6055 60.4452 49.1618 58.5586 48.9199 57.8813C48.2548 57.8692 47.6863 57.6516 47.5654 57.1799C47.384 56.4785 47.771 55.8859 48.5329 55.8859L53.0439 55.8617C53.9752 55.8617 54.604 54.9909 54.5678 54.1685C54.471 51.9795 51.8466 52.7294 49.8511 52.56C48.1701 52.4149 46.9728 51.012 46.7551 49.464C46.5374 47.916 47.4324 46.4164 48.9078 45.6303C49.2585 44.9409 48.5571 42.9817 49.7907 42.8487C50.3107 42.7882 50.8428 42.9696 50.9396 43.6227C51.0242 44.1185 50.8549 44.8079 51.0363 45.2674C53.5035 46.3317 51.1936 42.9454 53.2011 42.8366C53.83 42.8003 54.2654 43.2357 54.2533 43.9734C54.2533 44.4572 54.2049 44.9288 54.3017 45.4126C54.991 45.3642 55.5957 45.5577 55.7288 46.1866C55.8618 46.8155 55.378 47.3839 54.6403 47.396L50.0688 47.4322C49.1739 47.4322 48.7143 48.2667 48.7143 49.0165C48.7143 49.7664 49.1739 50.5887 50.0688 50.6008L53.1165 50.6371C54.8459 50.6613 56.14 51.9554 56.4544 53.4792C56.8172 55.2328 55.9465 56.7687 54.3742 57.6032L54.3622 57.6153Z" fill="#0DB14B"/>
<path d="M33.3428 60.5661L26.6307 64.4845C26.0381 64.8231 25.5543 64.7747 24.9738 64.4361L16.9435 59.7316C6.61534 53.6967 0.0483754 42.6671 0.0362816 30.6338L0 7.82473C0 6.313 2.9509 7.11119 6.45812 4.76498C10.437 2.10433 8.80433 0 10.691 0H41.0829C42.7881 0 41.3368 2.11643 45.1585 4.71661C48.9801 7.31679 51.6892 6.1074 51.6892 8.01823V29.2913C51.6892 31.6496 51.5319 33.7782 51.1328 36.2332C58.9092 36.0639 65.4278 41.5424 66.7339 48.9076C68.0401 56.2727 63.517 63.9765 56.2244 66.2744C48.9318 68.5722 40.8773 65.065 37.5514 57.9054C36.0397 58.9455 34.7336 59.7437 33.3186 60.5661H33.3428ZM12.3841 5.34549C12.6744 4.9343 12.9525 4.57148 13.5451 4.57148H38.0594C38.7366 4.57148 39.0148 4.9222 39.3534 5.39386C41.0466 7.74007 43.4774 9.32437 46.1865 10.3161C46.767 10.5338 47.1298 10.8361 47.1298 11.5013V29.63C47.1298 32.2301 46.8516 34.6247 46.2953 37.1403C47.4079 36.8742 48.1215 36.5839 49.0769 36.4751C49.5486 34.3103 49.7179 32.2906 49.7179 30.0412V8.62292C45.5939 7.6917 42.0746 5.81715 40.3935 1.94711H11.2836C9.71137 5.86552 5.88971 7.76426 1.93502 8.64711L1.99549 30.8273C2.03177 42.1229 8.32058 52.4511 18.0199 58.0868L25.8688 62.6462L34.0563 57.857C35.0601 57.2644 35.9551 56.6476 36.8379 55.9462L36.2453 53.1283C34.8061 54.2652 33.3186 55.281 31.6859 56.2244L26.413 59.2841C26.0018 59.526 25.506 59.4292 25.131 59.2115L19.4832 55.9099C10.5338 50.6854 4.64404 41.2764 4.61986 30.8152L4.55939 11.4287C4.55939 9.74765 8.82852 10.2556 12.3841 5.33339V5.34549ZM36.3179 50.3588C36.7653 45.1827 39.5953 40.9256 43.8765 38.3375C44.7473 35.6164 45.1464 32.9558 45.1222 30.0532V12.0213C42.1471 10.8361 39.6437 9.11877 37.7449 6.54278H13.9684C12.0576 9.10668 9.50578 10.8845 6.53069 12.0455V30.9966C6.91769 40.72 12.1543 49.4276 20.5475 54.2652L25.8567 57.3249L31.2143 54.2168C33.0767 53.1283 34.7819 51.9431 36.3058 50.3588H36.3179ZM65.0287 51.6166C65.0287 44.2152 59.0301 38.2045 51.6166 38.2045C44.2031 38.2045 38.2045 44.2031 38.2045 51.6166C38.2045 59.0301 44.2031 65.0287 51.6166 65.0287C59.0301 65.0287 65.0287 59.0301 65.0287 51.6166Z" fill="#0DB14B"/>
<path d="M16.4112 34.0562C16.1331 35.2656 16.9313 37.7932 15.5042 37.9142C14.9842 37.9626 14.4399 37.6965 14.4278 37.1039L14.3674 34.0683C12.9524 33.9111 11.5011 32.9315 11.489 31.3593L11.4648 17.8867C11.4648 16.2541 12.8073 15.1535 14.3674 15.0084C14.6213 13.6176 13.799 11.223 15.3349 11.1263C15.8549 11.09 16.3508 11.5496 16.3508 12.1784L16.375 15.0326C17.9351 15.1293 19.2654 16.2541 19.2654 17.8867V31.2021C19.2654 32.8227 17.923 33.899 16.3991 34.0441L16.4112 34.0562ZM16.4717 32.0366C17.0522 31.9277 17.3425 31.5286 17.3425 31.0086V18.0802C17.3425 16.6895 15.7703 16.9918 14.4762 17.0039C13.8836 17.0039 13.5329 17.3788 13.4241 17.9593V31.0812C13.5208 31.6617 13.8715 32.0487 14.4641 32.0487H16.4717V32.0366Z" fill="#0DB14B"/>
<path d="M37.3458 34.0562C37.0676 35.2656 37.8658 37.7932 36.4388 37.9142C35.9187 37.9626 35.3745 37.6965 35.3624 37.1039L35.3019 34.0683C33.887 33.9111 32.4357 32.9315 32.4236 31.3593L32.3994 17.8867C32.3994 16.2541 33.7418 15.1535 35.3019 15.0084C35.5559 13.6176 34.7335 11.223 36.2694 11.1263C36.7895 11.09 37.2853 11.5496 37.2853 12.1784L37.3095 15.0326C38.8696 15.1293 40.2 16.2541 40.2 17.8867V31.2021C40.2 32.8227 38.8575 33.899 37.3337 34.0441L37.3458 34.0562ZM37.4063 32.0366C37.9868 31.9277 38.277 31.5286 38.277 31.0086V18.0802C38.277 16.6895 36.7048 16.9918 35.4108 17.0039C34.8182 17.0039 34.4675 17.3788 34.3586 17.9593V31.0812C34.4554 31.6617 34.8061 32.0487 35.3987 32.0487H37.4063V32.0366Z" fill="#0DB14B"/>
<path d="M26.8364 36.8259C26.8364 37.5152 26.4132 37.878 25.9778 37.9143C25.4819 37.9627 24.9135 37.6966 24.9014 37.104L24.841 31.4441C23.3776 31.3232 21.9868 30.2831 21.9626 28.7351C21.9263 25.8567 21.878 23.0752 21.9868 20.221C22.0473 18.7335 23.4381 17.7297 24.853 17.6692L24.8772 12.1786C24.8772 11.586 25.2521 11.1627 25.8206 11.1264C26.2197 11.1022 26.8002 11.453 26.8123 12.0214L26.8848 17.6813C28.3845 17.7418 29.7269 18.8302 29.7269 20.3661L29.7632 28.3602C29.7632 30.0533 28.5538 31.3353 26.8364 31.4078V36.8259ZM26.8969 29.4486C27.5016 29.3277 27.816 28.9165 27.816 28.3602V20.741C27.816 19.3261 26.2559 19.58 24.9377 19.6163C24.3814 19.6284 23.8976 20.0517 23.8976 20.6322V28.4811C24.0911 29.884 25.6029 29.3761 26.8969 29.4486Z" fill="#0DB14B"/>
<path d="M22.6156 50.1654C23.2324 50.5282 23.3291 51.1571 23.0147 51.6046C22.7003 52.0521 22.1681 52.1972 21.6239 51.8706C16.4961 48.8109 12.614 44.1548 10.6185 38.519C10.4129 37.9506 10.6911 37.4427 11.0781 37.2492C11.5981 36.9831 12.2391 37.2129 12.4568 37.8297C14.3071 43.0058 17.8143 47.3354 22.6277 50.1654H22.6156Z" fill="#0DB14B"/>
<path d="M24.5744 51.8948C25.3363 51.4715 26.715 52.427 26.7997 53.0437C26.8601 53.4791 26.6183 53.8782 26.2071 54.0838C25.6024 54.3983 24.2116 53.5033 24.1269 52.9833C24.0423 52.5116 24.2116 52.0883 24.5744 51.8948Z" fill="#0DB14B"/>
</g>
<defs>
<clipPath id="clip0_79_3809">
<rect width="67" height="67" fill="white"/>
</clipPath>
</defs>
</svg>
