<svg width="76" height="68" viewBox="0 0 76 68" fill="none" xmlns="http://www.w3.org/2000/svg">
<g clip-path="url(#clip0_79_3820)">
<path d="M54.8911 67.0309L54.8403 63.4818C52.5526 63.2049 48.8035 63.3559 47.6851 61.0024C47.2275 60.0459 47.6342 59.2404 47.8757 58.2839C48.1172 57.3274 47.6215 56.2702 47.3546 55.3137C47.253 54.9487 47.5199 54.2188 47.1386 54.0426C45.677 53.3504 45.0797 51.8904 45.9058 50.4683C46.5921 49.2978 47.3165 48.1903 47.952 46.9191C47.1386 44.5153 47.3165 41.9982 48.8289 39.8712C54.2938 32.1562 65.859 29.6643 72.3787 36.4731C74.5774 38.7762 75.9881 41.8849 76.0008 45.0816C76.0008 47.2464 75.0857 49.2726 74.1199 51.085L71.6416 55.7416C69.0235 60.6878 73.1158 66.9428 72.9125 67.3707C72.76 67.698 72.4296 68 71.9212 68H55.8951C55.374 68 54.9038 67.6476 54.8911 67.0309ZM55.6536 61.5436C56.3272 61.5436 56.7847 61.9463 56.7974 62.6008L56.8229 66.087H70.2817C68.8202 62.563 68.4008 58.7622 69.8115 55.2005C70.4978 53.4636 71.6035 52.0415 72.3787 50.3424C73.0269 48.7566 74.0309 47.1708 74.0563 45.3711C74.1199 38.8392 68.6041 34.0063 62.0336 34.409C57.2804 34.6985 52.9593 37.2156 50.2777 41.1046C49.172 42.703 49.1212 44.6915 49.7948 46.3905C50.57 48.3413 45.9439 51.7898 48.0791 52.419C49.3245 52.784 49.4389 53.7783 49.35 54.9236C49.2991 55.5654 50.57 57.7428 49.5152 59.3034C47.9774 61.5939 54.7513 61.5688 55.6409 61.5562L55.6536 61.5436Z" fill="#0DB14B"/>
<path d="M26.5623 62.5883C24.8975 63.2679 23.0546 63.3183 21.1864 63.4567C20.7162 64.7027 21.86 68.0001 20.0807 68.0001H4.05464C3.59712 68.0001 3.31752 67.761 3.12689 67.4715C2.89812 67.1191 2.99979 66.8171 3.2921 66.3514C5.28742 63.205 6.02454 58.9385 4.2707 55.5781L1.51284 50.3173C0.686751 48.7567 -0.0376634 46.957 0.000463701 45.1195C0.17839 37.3542 6.83792 31.8039 14.654 32.5716C19.6359 33.0625 24.1476 35.7055 27.0707 39.7329C28.6339 41.885 28.8754 44.465 28.0239 46.9192L30.1463 50.632C30.9342 52.0038 30.1717 53.5267 28.6975 54.0679C28.8245 55.5152 27.7189 57.3653 28.1128 58.2714C28.85 59.9957 28.5577 61.7451 26.5623 62.5757V62.5883ZM26.1429 56.8619C26.2192 56.2577 26.664 55.4523 26.6132 54.9111C26.5115 53.7532 26.664 52.759 27.8841 52.4066C30.0319 51.7773 25.4058 48.3414 26.1811 46.378C26.8546 44.679 26.7911 42.6905 25.6981 41.1047C22.9657 37.1528 18.5556 34.6105 13.7135 34.4091C7.29545 34.1323 2.03391 38.8015 1.89411 45.1447C1.85598 46.6801 2.61852 48.0645 3.16501 49.4364L6.1008 55.0495C7.89277 58.4854 7.18107 62.5254 5.70682 66.0997H19.1657L19.1911 62.8274C19.1657 60.5117 21.6948 62.3492 25.7363 60.9144C26.1684 60.7634 26.4988 60.4739 26.5496 60.197C26.8292 58.7371 25.7744 59.7062 26.1556 56.8744L26.1429 56.8619Z" fill="#0DB14B"/>
<path d="M55.6787 27.3109C49.0064 32.1689 39.7034 30.4824 35.2044 23.4471C30.8961 27.9779 24.3509 29.2994 18.6319 26.6187L14.1074 28.4813C13.561 28.6198 13.078 28.5443 12.6713 28.1919C12.4044 27.9653 12.0486 27.4997 12.1503 26.9711L13.167 22.0123C8.5663 15.4301 10.4091 6.60756 17.0178 2.30328C23.5248 -1.93807 32.4339 -0.188667 36.7804 6.64531C41.5717 1.54815 49.1589 0.654568 54.9161 4.37991C60.6733 8.10524 62.9737 15.4175 60.1141 21.8235L62.0078 26.3544C62.2111 26.8578 62.084 27.3612 61.8553 27.6884C61.5375 28.1667 61.0419 28.3932 60.4192 28.3681L55.6787 27.336V27.3109ZM19.28 24.9951C24.5034 27.5248 30.7181 26.153 34.3148 21.7858C32.3068 17.2046 32.8151 12.1704 35.6238 8.09266C32.0272 1.72434 23.779 -0.176082 17.8185 3.85131C11.8579 7.8787 10.5362 15.8957 15.0479 21.6096L14.0439 26.5809C15.1496 26.4173 18.5175 24.3155 19.28 24.9951ZM60.1523 26.4676L58.2205 21.7732C61.2071 16.009 59.2626 9.17502 53.9121 5.76432C48.5616 2.35362 41.4954 3.53667 37.5302 8.47023C33.565 13.4038 34.0479 20.565 38.6613 24.9322C43.2747 29.2994 50.2519 29.5134 55.2212 25.4985L60.1523 26.4676Z" fill="#0DB14B"/>
<path d="M53.8236 11.8054L39.8945 13.1017C39.3735 13.1521 39.0176 12.6738 38.9795 12.3214C38.9414 11.9313 39.1828 11.4404 39.7293 11.3901L53.722 10.0686C54.2176 10.0183 54.5989 10.4336 54.637 10.8363C54.6624 11.151 54.4464 11.7299 53.8363 11.7928L53.8236 11.8054Z" fill="#0DB14B"/>
<path d="M54.357 16.286L40.2881 17.5823C39.7035 17.6326 39.3857 17.1166 39.3857 16.7265C39.3857 16.2356 39.7289 15.9462 40.3135 15.8958L54.0011 14.6121C54.573 14.5617 54.9416 14.8009 55.0306 15.2665C55.1068 15.6944 54.9035 16.0972 54.357 16.286Z" fill="#0DB14B"/>
<path d="M50.1503 21.1943L40.7329 22.0753C40.2245 22.1257 39.9449 21.7481 39.856 21.446C39.7416 21.0181 39.9958 20.4644 40.555 20.4014L49.8071 19.5079C50.4045 19.4449 50.862 19.6841 50.9128 20.2378C50.951 20.628 50.7476 21.1314 50.1503 21.1818V21.1943Z" fill="#0DB14B"/>
<path d="M32.5224 12.4309L16.8711 13.896L17.0314 15.575L32.6827 14.1099L32.5224 12.4309Z" fill="#0DB14B"/>
<path d="M31.4939 9.69092L17.5775 11.025C17.031 11.0753 16.637 10.7104 16.5481 10.3328C16.421 9.81677 16.7768 9.33852 17.3996 9.28818L31.2905 8.00445C31.7989 7.9541 32.1293 8.3946 32.1675 8.72183C32.2056 8.99871 32.0658 9.62799 31.4939 9.69092Z" fill="#0DB14B"/>
<path d="M27.6675 19.105L18.4154 19.986C17.8435 20.0363 17.4876 19.7468 17.3986 19.3567C17.2716 18.8281 17.6274 18.3498 18.2502 18.2995L27.515 17.4437C28.0488 17.3933 28.4047 17.7331 28.4682 18.1485C28.5318 18.5638 28.2649 19.0672 27.6803 19.1176L27.6675 19.105Z" fill="#0DB14B"/>
</g>
<defs>
<clipPath id="clip0_79_3820">
<rect width="76" height="68" fill="white"/>
</clipPath>
</defs>
</svg>
