<svg width="65" height="60" viewBox="0 0 65 60" fill="none" xmlns="http://www.w3.org/2000/svg">
<path d="M64.35 6.03C64.35 2.77 61.67 0.02 58.49 0.02L6.05 0C4.44 0 2.92 0.63 1.78 1.77C0.64 2.91 0 4.43 0 6.03V42.87C0 46.18 2.62 48.89 5.84 48.89L23.4 48.93L22.13 57.51L18.54 57.54C17.86 57.61 17.4 58.12 17.41 58.77C17.41 59.27 17.79 59.98 18.59 59.98H45.68C46.18 59.98 46.48 59.77 46.64 59.59C46.87 59.33 46.98 58.94 46.94 58.57C46.86 57.96 46.34 57.54 45.68 57.54C45.66 57.54 45.65 57.54 45.63 57.54L42.24 57.52L40.97 48.94L58.34 48.92C61.66 48.92 64.36 46.2 64.36 42.87V6.03H64.35ZM2.46 6.04C2.46 5.08 2.82 4.19 3.48 3.53C4.19 2.83 5.16 2.44 6.21 2.44H58.11C59.17 2.42 60.14 2.82 60.85 3.53C61.51 4.19 61.88 5.08 61.88 6.04V37.6H2.44V6.04H2.46ZM24.62 57.55L25.9 48.94H38.44L39.74 57.49L24.62 57.55ZM61.89 42.93C61.83 44.62 60.55 46.45 58.58 46.45H5.87C3.82 46.46 2.51 44.62 2.46 42.92C2.43 41.89 2.42 41.02 2.48 40.08H61.87C61.94 41.03 61.93 41.86 61.89 42.93Z" fill="#0DB14B"/>
<path d="M26.7498 9.22054C26.6998 8.89054 26.7098 8.57053 26.7198 8.23053C26.7298 7.88053 26.7398 7.52053 26.6798 7.14053C26.5598 6.46053 25.9098 6.13054 25.3498 6.19054C24.1998 6.34054 24.2298 7.49054 24.2598 8.42054C24.2598 8.70054 24.2798 8.97054 24.2598 9.21054C23.5898 9.21054 22.9598 9.46054 22.4998 9.89054C22.0198 10.3405 21.7598 10.9605 21.7598 11.6305L21.7898 21.8205C21.7898 22.4005 22.0198 22.9305 22.4598 23.3405C22.9198 23.7805 23.5798 24.0405 24.2498 24.0605C24.2698 24.2705 24.2598 24.5305 24.2498 24.8005C24.2398 25.5205 24.2198 26.3405 24.6598 26.7805C24.8598 26.9805 25.1398 27.0905 25.4898 27.0905H25.5298C26.7598 27.0605 26.7298 25.8405 26.7098 24.9405C26.7098 24.6205 26.6998 24.2905 26.7398 24.0605C27.4098 24.0505 28.0498 23.8005 28.5198 23.3605C28.9698 22.9405 29.2098 22.3605 29.2098 21.7505V11.5605C29.2098 10.9305 28.9598 10.3505 28.5098 9.92054C28.0498 9.48054 27.4098 9.24053 26.7398 9.23053L26.7498 9.22054ZM24.7898 21.5805C24.6098 21.5805 24.4298 21.5705 24.2398 21.5605V11.7205H26.7598L26.7898 21.5405C26.1098 21.6305 25.4598 21.6105 24.7798 21.5905L24.7898 21.5805Z" fill="#0DB14B"/>
<path d="M13.4004 15.9881C13.3704 15.7381 13.3804 15.4381 13.3904 15.1281C13.4104 14.2381 13.4404 13.1381 12.3204 13.0081C11.9404 12.9681 11.5504 13.0781 11.2904 13.2981C11.0804 13.4781 10.9604 13.7281 10.9504 14.0181L10.8804 15.9981C10.1804 16.0381 9.53039 16.3081 9.08039 16.7481C8.64039 17.1881 8.40039 17.7581 8.40039 18.4081V28.4981C8.40039 29.1581 8.66039 29.7581 9.13039 30.1881C9.59039 30.6181 10.2204 30.8481 10.8904 30.8481H10.9004C10.9304 31.0981 10.9204 31.4081 10.9104 31.7281C10.8904 32.4181 10.8604 33.1281 11.2604 33.5481C11.4604 33.7581 11.7404 33.8781 12.1004 33.8881C12.1204 33.8881 12.1404 33.8881 12.1504 33.8881C12.4904 33.8881 12.7604 33.7881 12.9604 33.5881C13.4004 33.1481 13.3904 32.3481 13.3804 31.6281C13.3804 31.3381 13.3704 31.0581 13.4004 30.8481C14.0704 30.8281 14.7104 30.5781 15.1704 30.1381C15.6204 29.7081 15.8504 29.1581 15.8504 28.5381L15.8304 18.1981C15.8304 16.8881 14.6204 16.0781 13.3904 15.9881H13.4004ZM13.4204 28.3781H10.8604V18.4781H13.4204V28.3781Z" fill="#0DB14B"/>
<path d="M53.4403 16.0017C53.4003 15.7317 53.4203 15.4017 53.4303 15.0917C53.4503 14.4217 53.4803 13.7317 53.0903 13.3317C52.8903 13.1217 52.6003 13.0117 52.2403 13.0117C51.8603 13.0117 51.5603 13.1117 51.3503 13.3317C50.9403 13.7517 50.9503 14.4817 50.9703 15.1817C50.9703 15.4717 50.9803 15.7617 50.9703 16.0017C50.2603 16.0417 49.6103 16.3217 49.1503 16.7817C48.7203 17.2117 48.4903 17.7617 48.5003 18.3717L48.5303 28.7217C48.5303 29.2617 48.7503 29.7517 49.1503 30.1417C49.6103 30.5817 50.2803 30.8517 50.9603 30.8717C50.9903 31.0917 50.9903 31.3917 50.9803 31.7017C50.9703 32.3917 50.9503 33.1717 51.3803 33.6017C51.5803 33.8017 51.8603 33.9017 52.2003 33.9017C52.2203 33.9017 52.2403 33.9017 52.2503 33.9017C52.6003 33.8917 52.8803 33.7817 53.0803 33.5717C53.4803 33.1517 53.4503 32.4417 53.4303 31.7517C53.4203 31.4317 53.4103 31.1217 53.4403 30.8717C54.1203 30.8717 54.7703 30.6217 55.2303 30.1817C55.6903 29.7517 55.9403 29.1617 55.9403 28.5117V18.4217C55.9403 17.7717 55.7103 17.1917 55.2703 16.7517C54.8103 16.3017 54.1603 16.0317 53.4503 16.0017H53.4403ZM53.5003 28.3817H50.9403V18.4817H53.5003V28.3817Z" fill="#0DB14B"/>
<path d="M40.1309 13.531L40.0809 11.651C40.0809 11.331 39.9409 11.031 39.7109 10.811C39.4709 10.591 39.1609 10.471 38.8109 10.481C37.5809 10.531 37.6209 11.781 37.6409 12.691C37.6409 13.001 37.6609 13.301 37.6309 13.541C36.9609 13.541 36.3509 13.771 35.9009 14.191C35.4109 14.651 35.1309 15.301 35.1309 16.031V25.961C35.1409 26.611 35.3809 27.191 35.8209 27.631C36.2809 28.091 36.9209 28.351 37.6309 28.391C37.6809 28.751 37.6709 29.081 37.6609 29.441C37.6609 29.681 37.6509 29.921 37.6609 30.161C37.6809 30.551 37.8309 30.881 38.0909 31.101C38.3009 31.281 38.5809 31.381 38.8809 31.381C38.9409 31.381 38.9909 31.381 39.0509 31.371C40.1709 31.231 40.1409 30.161 40.1209 29.291C40.1209 28.981 40.1009 28.661 40.1409 28.391C41.3709 28.311 42.5809 27.501 42.5809 26.181L42.6209 16.011C42.6209 15.301 42.3609 14.661 41.8809 14.211C41.4309 13.781 40.8209 13.541 40.1509 13.531H40.1309ZM40.1309 25.911H37.5709V16.011H40.1309V25.911Z" fill="#0DB14B"/>
</svg>
