<svg width="58" height="58" viewBox="0 0 58 58" fill="none" xmlns="http://www.w3.org/2000/svg">
<path d="M38.9306 18.1196C38.3306 9.31957 31.8006 2.08956 23.3706 0.389565C14.5306 -1.38044 5.77061 2.99957 1.88061 11.1196C1.50061 11.9196 1.86061 12.7996 2.54061 13.0896C3.29061 13.4096 4.11061 13.1496 4.48061 12.3696C7.80061 5.49957 15.1606 1.75956 22.6906 3.21956C29.7706 4.57956 35.4006 10.5596 36.0406 18.1196C29.7006 18.5996 24.1706 22.0796 20.8506 27.4996C19.3106 26.7996 18.1906 25.6696 17.6906 24.1996L21.6106 24.1596C22.4906 24.1596 23.0906 23.5096 23.0906 22.6996C23.0906 21.9496 22.4806 21.2796 21.6106 21.2796L16.8106 21.2596C16.6206 20.0696 16.6206 18.9096 16.8106 17.7496L21.7706 17.6996C22.5706 17.6996 23.0806 16.9696 23.0806 16.2596C23.0806 15.5696 22.5806 14.8696 21.7806 14.8596L17.6506 14.7996C18.2106 12.9896 19.7606 11.6096 21.6806 11.3296C22.8506 11.1596 24.0206 11.8196 24.7906 12.6496C25.4306 13.3496 26.4206 13.3696 27.0106 12.7496C27.6106 12.1196 27.4606 11.2096 26.8806 10.5996C24.2606 7.79957 20.1206 7.62956 17.3406 10.2796C16.0206 11.5396 15.1306 13.0496 14.5306 14.7896C14.1006 14.8596 13.7406 14.8596 13.2706 14.8396C12.2606 14.7796 11.6306 15.4496 11.6206 16.2696C11.6206 17.1096 12.2806 17.7496 13.2106 17.7296C13.3406 17.7296 13.8106 17.7196 13.8106 17.8696C13.7906 18.9596 13.7206 20.0296 13.8406 21.1496C13.7806 21.2996 13.3906 21.2896 13.2006 21.2796C12.2806 21.2496 11.6306 21.8796 11.6206 22.6896C11.6106 23.4696 12.1606 24.1096 13.0306 24.1596C13.5506 24.1896 14.0306 24.1096 14.5306 24.2296C15.3206 26.8096 17.0306 28.8696 19.5106 30.0796C18.7506 31.9996 18.2906 33.8696 18.1406 36.0196C9.61061 35.3296 2.98061 28.1896 2.92061 19.6396C2.92061 18.6996 2.26061 18.0196 1.42061 18.0496C0.450612 18.0996 -0.0193878 18.8196 0.00061216 19.7796C0.180612 29.8796 8.02061 38.1896 18.1206 38.9296C18.7106 47.7396 25.2406 54.9696 33.7106 56.6596C42.4806 58.4196 51.2706 54.0096 55.1406 45.9496C55.5206 45.1596 55.2806 44.3296 54.5606 43.9396C53.9606 43.6096 52.9706 43.7396 52.6006 44.5296C49.1606 51.8496 41.0206 55.6696 33.1806 53.5496C25.6406 51.5096 20.4806 44.4096 20.9706 36.4496C21.4406 28.7896 27.3106 22.2396 35.0906 21.1196C45.2306 19.6596 54.2006 27.4996 54.1406 37.7396C54.1406 38.5596 55.1306 39.0496 55.7706 38.9596C56.5106 38.8596 57.0306 38.2896 57.0206 37.4596C56.9506 27.2796 49.0806 18.8496 38.9106 18.1196H38.9306Z" fill="#0DB14B"/>
<path d="M36.1113 32.5576L42.3813 32.5376C43.2213 32.5376 43.8413 31.8476 43.8413 31.0976C43.8413 30.3376 43.2413 29.6676 42.3913 29.6676L39.0713 29.6476C38.9213 29.0276 39.0413 28.4276 38.9913 27.8076C38.9213 26.9576 38.2913 26.4276 37.5313 26.4376C36.7613 26.4576 36.1613 27.0176 36.1013 27.8776C36.0613 28.4876 36.1813 29.0576 36.0313 29.6876C33.6013 29.7576 31.4313 31.5976 31.3213 34.1476C31.2113 36.6776 33.3113 38.9376 35.7513 38.9576L38.9213 38.9776C39.8813 38.9776 40.8713 39.6776 40.8913 40.7376C40.9113 41.6776 40.0213 42.5176 39.0913 42.5176L32.6413 42.5476C31.7813 42.5476 31.2013 43.3376 31.2713 44.0876C31.4513 46.1876 34.5213 45.1476 36.0613 45.4676C36.1213 46.0776 36.0613 46.5876 36.0913 47.1476C36.1213 48.0076 36.7513 48.6176 37.5013 48.6376C38.3113 48.6576 38.9313 48.0676 38.9913 47.2076C39.0413 46.5876 38.8913 46.0176 39.0913 45.3976C41.7313 45.3076 43.9913 43.0976 43.7813 40.4376C43.5813 37.9576 41.4913 36.1576 39.1013 36.0776C38.0913 36.0376 37.2513 36.0676 36.2513 36.0776C35.2513 36.0876 34.2113 35.3776 34.2113 34.2876C34.2113 33.2976 35.1613 32.5476 36.1113 32.5376V32.5576Z" fill="#0DB14B"/>
<path d="M15.0999 47.7384C14.5099 47.1584 13.4899 47.3984 13.0399 48.0284C12.1599 49.2584 13.4699 49.9984 13.9499 50.7584C12.9399 50.8084 11.9799 50.8284 10.9599 50.7184C6.28991 50.1984 2.88991 46.2884 2.88991 41.6284C2.88991 40.7684 1.94991 40.2484 1.31991 40.3284C0.519907 40.4384 -9.26545e-05 41.0384 0.00990735 41.8884C0.0999073 48.2884 5.15991 53.4284 11.5499 53.6684C12.3599 53.6984 13.0599 53.6184 13.8799 53.7484C13.6899 54.1084 13.4299 54.2984 13.1799 54.5484C12.5399 55.1684 12.5799 56.1184 13.1699 56.6784C13.7399 57.2184 14.6399 57.1884 15.2299 56.5984L18.5299 53.2984C19.1699 52.6584 19.1499 51.6984 18.4699 51.0184L15.1199 47.7284L15.0999 47.7384Z" fill="#0DB14B"/>
<path d="M41.7908 9.19039C42.3608 9.76039 43.2908 9.74039 43.8408 9.20039C44.3308 8.72039 44.4508 7.94039 43.9708 7.31039C43.7108 6.96039 43.3708 6.77039 43.1008 6.33039C44.0608 6.30039 44.9908 6.22039 46.0908 6.34039C50.8408 6.87039 54.1708 10.8204 54.1708 15.4604C54.1708 16.3104 55.1408 16.8304 55.7808 16.7204C56.5108 16.6104 57.0508 16.0304 57.0408 15.2004C56.9808 8.83039 51.9908 3.70039 45.6408 3.39039C44.7908 3.35039 44.0308 3.44039 43.1608 3.33039C43.3408 2.93039 43.6708 2.75039 43.9208 2.44039C44.4508 1.79039 44.3608 0.970388 43.8308 0.450388C43.2808 -0.0796115 42.3908 -0.119612 41.8108 0.460388L38.4308 3.84039C37.8208 4.45039 37.9808 5.39039 38.5608 5.97039L41.7908 9.18039V9.19039Z" fill="#0DB14B"/>
</svg>
