<svg width="57" height="66" viewBox="0 0 57 66" fill="none" xmlns="http://www.w3.org/2000/svg">
<path d="M10.1831 38.5599L42.3531 38.5799C49.9731 38.5799 56.3431 32.3099 56.5531 24.5999C56.7531 16.9599 50.9731 10.5299 43.3531 9.88993C41.3831 4.48993 36.4431 0.64993 30.7431 0.0799301C24.7131 -0.52007 19.1031 2.28993 16.0431 7.42993C12.8631 6.88993 9.67313 7.94993 7.50313 10.2999C5.35313 12.6299 4.53313 15.7399 5.25313 18.8799C1.09313 21.3799 -0.86687 26.1399 0.36313 30.7699C1.39313 34.6399 5.09313 38.5599 10.1731 38.5599H10.1831ZM8.10313 19.1499C7.20313 16.6699 7.68313 14.0599 9.39313 12.1599C10.6831 10.7199 12.5031 9.93993 14.4131 9.93993C15.0431 9.93993 15.6831 10.0299 16.3131 10.1999C16.9531 10.3799 17.6131 10.0999 17.9031 9.52993C20.2631 4.89993 25.1431 2.21993 30.3531 2.70993C35.4231 3.18993 39.6331 6.63993 41.0931 11.5099C41.2631 12.0899 41.7631 12.4699 42.3731 12.4799C48.7431 12.6299 53.9131 17.8999 53.9131 24.2199C53.9131 30.6899 48.6331 35.9499 42.1631 35.9499H10.5631C6.86313 35.9499 3.69313 33.4299 2.86313 29.8099C2.00313 26.0799 3.85313 22.3699 7.37313 20.7799C7.92313 20.5299 8.36313 19.8399 8.11313 19.1499H8.10313Z" fill="#0DB14B"/>
<path d="M29.6123 55.7995V41.4995C29.6123 41.0895 29.4623 40.7195 29.1923 40.4695C28.9223 40.2195 28.5523 40.0995 28.1723 40.1295C27.4523 40.1795 26.9523 40.7395 26.9523 41.4995L26.9323 55.8295C24.6023 56.6195 23.2223 58.8295 23.6323 61.1495C24.0323 63.4295 25.9823 65.0695 28.2823 65.0695C28.3123 65.0695 28.3423 65.0695 28.3723 65.0695C30.6723 65.0295 32.6323 63.2695 32.9523 60.9895C33.2623 58.6995 31.9323 56.6395 29.6123 55.8095V55.7995ZM30.3423 60.3495C30.3423 61.4795 29.4223 62.4095 28.2823 62.4095C27.1423 62.4095 26.2223 61.4895 26.2223 60.3495C26.2223 59.2095 27.1423 58.2895 28.2823 58.2895C29.4223 58.2895 30.3423 59.2095 30.3423 60.3495Z" fill="#0DB14B"/>
<path d="M39.3522 53.2509L35.5022 49.3209L35.4622 41.4109C35.4622 41.0409 35.3322 40.7209 35.0822 40.4909C34.8222 40.2409 34.4522 40.1109 34.0622 40.1309C33.3522 40.1609 32.8222 40.7509 32.8322 41.5009L32.8722 50.4309L37.4522 55.0809C36.3022 57.1709 36.7422 59.7009 38.5322 61.1609C39.4122 61.8809 40.4622 62.2409 41.5122 62.2409C42.6922 62.2409 43.8722 61.7909 44.7922 60.8909C46.4922 59.2409 46.7022 56.5709 45.2622 54.6709C43.9022 52.8709 41.5922 52.3309 39.3422 53.2609L39.3522 53.2509ZM39.4522 57.5009C39.4522 56.3709 40.3722 55.4409 41.5122 55.4409C42.6522 55.4409 43.5722 56.3609 43.5722 57.5009C43.5722 58.6409 42.6522 59.5609 41.5122 59.5609C40.3722 59.5609 39.4522 58.6409 39.4522 57.5009Z" fill="#0DB14B"/>
<path d="M23.7022 50.4308L23.7422 41.5008C23.7422 40.7508 23.2122 40.1608 22.5122 40.1308C22.1222 40.1108 21.7522 40.2508 21.4922 40.4908C21.2422 40.7208 21.1122 41.0408 21.1122 41.4108L21.0822 49.3308L17.1122 53.2708C14.9622 52.2308 12.4622 52.9108 11.1322 54.9108C9.86216 56.8208 10.1822 59.4308 11.8822 60.9808C12.7822 61.8008 13.9222 62.2108 15.0622 62.2108C16.1622 62.2108 17.2622 61.8308 18.1422 61.0608C19.8622 59.5708 20.2422 57.1708 19.1222 55.0408L23.7022 50.4308ZM15.0522 59.5608C13.9222 59.5608 12.9922 58.6408 12.9922 57.5008C12.9922 56.3608 13.9122 55.4408 15.0522 55.4408C16.1922 55.4408 17.1122 56.3608 17.1122 57.5008C17.1122 58.6408 16.1922 59.5608 15.0522 59.5608Z" fill="#0DB14B"/>
<path d="M11.7031 49.3989L16.7331 49.3789C17.4631 49.3789 18.0131 48.7789 18.0131 47.9989V41.6089C18.0131 41.1289 17.8731 40.7389 17.6031 40.4789C17.3631 40.2489 17.0531 40.1289 16.6431 40.1289C15.8631 40.1389 15.3431 40.7389 15.3431 41.6089V46.7289H11.6831C10.9631 44.4489 8.79313 43.0689 6.44313 43.4289C4.17313 43.7789 2.45312 45.7789 2.45312 48.0889C2.45312 50.3889 4.16313 52.3889 6.42313 52.7389C6.68313 52.7789 6.93312 52.7989 7.18312 52.7989C9.23312 52.7989 11.0031 51.4889 11.6931 49.4089L11.7031 49.3989ZM9.24312 48.0689C9.24312 49.2089 8.32312 50.1289 7.18312 50.1289C6.04312 50.1289 5.12312 49.2089 5.12312 48.0689C5.12312 46.9289 6.04312 46.0089 7.18312 46.0089C8.32312 46.0089 9.24312 46.9289 9.24312 48.0689Z" fill="#0DB14B"/>
<path d="M49.9228 43.3911C47.6128 43.1311 45.5728 44.4911 44.8728 46.7211H41.2328L41.2228 41.6011C41.2228 40.7311 40.7028 40.1411 39.9228 40.1211C39.5328 40.1211 39.1828 40.2511 38.9328 40.4911C38.6928 40.7211 38.5728 41.0411 38.5728 41.4111V47.9811C38.5528 48.8211 39.1428 49.4011 40.0128 49.4111C40.6228 49.4111 41.2228 49.4111 41.8128 49.4111C42.8528 49.4011 43.8328 49.3911 44.8828 49.4511C45.5628 51.5211 47.3028 52.8011 49.3428 52.8011C49.6528 52.8011 49.9828 52.7711 50.3028 52.7111C52.5528 52.2811 54.1828 50.2211 54.1028 47.9211C54.0128 45.6011 52.2228 43.6611 49.9328 43.4011L49.9228 43.3911ZM47.3128 48.0711C47.3128 46.9411 48.2328 46.0111 49.3728 46.0111C50.5128 46.0111 51.4328 46.9311 51.4328 48.0711C51.4328 49.2111 50.5128 50.1311 49.3728 50.1311C48.2328 50.1311 47.3128 49.2111 47.3128 48.0711Z" fill="#0DB14B"/>
<path d="M18.9636 30.6695C19.4736 30.8295 20.1837 30.6395 20.5137 29.9695L22.0137 26.9395L28.6537 26.9595L30.1237 29.9895C30.2737 30.2995 30.5437 30.5395 30.8737 30.6495C31.0137 30.6995 31.1636 30.7195 31.3036 30.7195C31.4936 30.7195 31.6737 30.6795 31.8237 30.5995C32.5337 30.2495 32.8137 29.4895 32.4737 28.8095L26.5237 16.5495C26.2737 16.0395 25.7836 15.7495 25.2236 15.7795C24.7336 15.7995 24.3137 16.0895 24.0837 16.5695L18.0937 28.8995C17.9437 29.2095 17.9336 29.5595 18.0736 29.8695C18.2336 30.2395 18.5637 30.5395 18.9537 30.6595L18.9636 30.6695ZM23.3437 24.2395L25.3036 20.2195L27.2837 24.2295H23.3437V24.2395Z" fill="#0DB14B"/>
<path d="M34.8337 30.721H34.8437C35.1137 30.721 35.5137 30.621 35.8037 30.331C36.0237 30.111 36.1437 29.821 36.1437 29.501L36.1237 16.901C36.1237 16.591 35.9837 16.311 35.7337 16.101C35.4337 15.851 34.9837 15.731 34.6137 15.801C34.0737 15.901 33.5137 16.411 33.5137 17.081V29.381C33.5137 30.161 34.2037 30.711 34.8337 30.721Z" fill="#0DB14B"/>
</svg>
