<svg width="59" height="61" viewBox="0 0 59 61" fill="none" xmlns="http://www.w3.org/2000/svg">
<path d="M42.6707 25.629C43.8507 23.329 43.6007 20.679 42.0107 18.829C40.4507 17.009 38.0407 16.339 35.6807 17.059C35.1307 15.669 33.9807 14.709 32.2807 14.199C30.6107 13.709 29.2007 14.639 28.0707 15.389C27.9907 15.449 27.9007 15.499 27.8207 15.549L27.7007 15.469C26.5307 14.679 25.0607 13.689 23.3007 14.209C21.7107 14.679 20.5207 15.689 19.9307 17.069C17.5907 16.309 15.0307 17.069 13.4907 18.999C12.0307 20.829 11.8407 23.409 12.9707 25.629C10.2707 27.349 8.83073 30.329 9.12073 33.649C9.35073 36.309 10.7207 38.559 12.9707 40.019C11.8107 42.279 12.0407 44.899 13.5707 46.739C15.1107 48.599 17.6007 49.319 19.9607 48.599C20.6907 50.399 22.2207 51.149 23.4007 51.449C23.7107 51.529 24.0207 51.569 24.3107 51.569C25.6407 51.569 26.8007 50.829 27.8107 50.069C28.9807 51.009 30.5407 51.939 32.4507 51.399C33.9107 50.979 35.0807 49.969 35.6907 48.599C38.1107 49.339 40.5507 48.619 42.1107 46.689C43.6007 44.839 43.8107 42.259 42.6507 40.039C45.1107 38.429 46.5307 35.839 46.5507 32.899C46.5707 29.879 45.1507 27.249 42.6507 25.639L42.6707 25.629ZM39.6207 39.259C39.4307 39.929 39.8207 40.319 40.1307 40.629C41.0507 41.559 41.2907 43.039 40.7307 44.409C40.2507 45.599 38.9907 46.439 37.6007 46.499C36.6607 46.539 36.2507 46.209 35.8407 45.899C35.4707 45.599 35.0807 45.299 34.4007 45.489C33.9207 45.619 33.5807 46.139 33.6007 46.689C33.6507 47.989 32.7307 49.049 31.4707 49.149C30.8507 49.199 30.2307 48.969 29.7507 48.529C29.2807 48.089 29.0207 47.509 29.0207 46.879V40.099C29.5607 40.039 30.1207 40.059 30.6607 40.079C31.9807 40.119 33.3607 40.179 34.3407 39.079C35.0407 38.299 35.0807 37.349 35.0307 36.429C35.5107 36.339 36.2007 36.379 36.8607 36.409C38.3707 36.479 39.9207 36.559 40.0907 35.369C40.1407 35.029 40.0307 34.659 39.8207 34.399C39.6207 34.169 39.3507 34.039 39.0407 34.039L35.0607 33.979C35.0107 33.139 35.0207 32.369 35.0607 31.659L39.0707 31.589C39.3607 31.589 39.6107 31.479 39.8007 31.279C40.0107 31.059 40.1307 30.729 40.1207 30.399C40.1007 29.859 39.6907 29.279 39.0507 29.269L35.0507 29.199C35.1807 28.199 34.9407 27.219 34.4007 26.539C33.9407 25.959 33.2907 25.639 32.5307 25.619L29.0407 25.519V18.719C29.0407 17.389 30.2207 16.499 31.3107 16.489H31.3207C32.5607 16.489 33.5907 17.479 33.6007 18.709C33.6007 19.449 33.8607 19.929 34.3507 20.129C34.9707 20.379 35.4107 20.069 35.8407 19.759L36.0107 19.639C37.4407 18.629 39.4107 19.299 40.3607 20.559C41.3907 21.919 41.2707 23.909 40.0907 25.079C39.8007 25.359 39.5707 25.629 39.5907 26.079C39.6107 26.499 39.8407 26.989 40.3107 27.159C42.6107 27.949 44.1007 30.029 44.1907 32.599C44.2807 35.299 42.8307 37.589 40.4807 38.429C40.0507 38.589 39.7407 38.899 39.6307 39.269L39.6207 39.259ZM32.6607 27.949V37.719H22.9907V27.949H32.6607ZM15.5707 40.569C15.8707 40.199 16.1307 39.869 16.0807 39.499C16.0407 39.209 15.8507 38.669 15.3707 38.509C12.8107 37.629 11.2807 35.209 11.4807 32.349C11.6507 29.889 13.0607 27.959 15.2607 27.189C15.7007 27.039 15.9807 26.619 16.0707 26.299C16.1907 25.849 15.8907 25.469 15.5507 25.039C14.9607 24.299 14.1607 23.289 14.9007 21.259C15.3207 20.119 16.5907 19.229 17.9407 19.149C18.9807 19.079 19.4407 19.449 19.8507 19.769C20.2307 20.069 20.6307 20.379 21.3407 20.109C21.8307 19.919 21.9507 19.349 22.0607 18.739C22.2507 17.779 22.4607 16.689 24.0907 16.509C24.7207 16.449 25.3907 16.659 25.8807 17.099C26.3507 17.519 26.6107 18.089 26.6107 18.709V25.549C26.0007 25.619 25.4007 25.599 24.8207 25.579C23.4907 25.529 22.2407 25.479 21.2607 26.589C20.6407 27.299 20.5407 28.149 20.6107 29.189C20.1007 29.309 19.3707 29.269 18.6607 29.229C17.5207 29.169 16.4307 29.119 15.8807 29.619C15.6707 29.809 15.5507 30.069 15.5407 30.389C15.5307 30.739 15.6307 31.029 15.8307 31.239C16.0707 31.479 16.4307 31.609 16.8807 31.609H20.5707C20.6007 32.419 20.6107 33.149 20.5707 33.979L16.8907 33.999C16.1607 33.999 15.6607 34.349 15.5607 34.909C15.4907 35.329 15.5607 35.669 15.7907 35.919C16.3207 36.519 17.5007 36.459 18.7507 36.389C19.4307 36.359 20.1207 36.319 20.6007 36.409C20.5507 37.319 20.5807 38.139 21.1407 38.889C21.6707 39.609 22.5807 40.059 23.5107 40.059H26.5807L26.6107 46.859C26.6107 47.469 26.3707 48.039 25.9207 48.469C25.4607 48.909 24.8707 49.159 24.2507 49.129C23.6207 49.109 23.0507 48.839 22.6307 48.389C22.2107 47.939 22.0007 47.329 22.0207 46.679C22.0407 46.089 21.6607 45.659 21.2807 45.489C21.1107 45.419 20.9507 45.379 20.8107 45.379C20.4207 45.379 20.1207 45.609 19.8307 45.829C19.3707 46.179 18.8307 46.579 17.7307 46.439C16.4207 46.279 15.2407 45.389 14.8607 44.289C14.1607 42.269 14.9707 41.259 15.5607 40.529L15.5707 40.569Z" fill="#0DB14B"/>
<path d="M1.22034 35.6593H1.25034C1.57034 35.6593 1.91034 35.4893 2.14034 35.2393C2.35034 35.0093 2.45034 34.7193 2.43034 34.4093C1.84034 25.3793 6.10034 16.7393 13.5703 11.7393C13.5103 12.0193 13.4003 12.2393 13.2803 12.4693C13.1503 12.7293 13.0203 12.9893 12.9703 13.2993C12.7803 13.9893 13.0703 14.6193 13.6603 14.8093C14.2003 14.9793 14.9103 14.8093 15.1703 14.1593L17.0603 9.4093C17.2303 8.9793 17.1303 8.4593 16.8003 8.1393C16.5803 7.9193 16.2503 7.7793 15.8503 7.7493L11.1203 7.2893C10.7203 7.2493 10.3503 7.3593 10.0803 7.5993C9.84034 7.8193 9.70034 8.1193 9.70034 8.4593C9.68034 9.5993 10.7503 9.6693 11.5303 9.7193C11.7503 9.7293 11.9803 9.7493 12.1703 9.7893C4.09034 15.3293 -0.539661 24.7393 0.0503385 34.4493C0.100339 35.1893 0.550339 35.6593 1.21034 35.6593H1.22034Z" fill="#0DB14B"/>
<path d="M41.8001 54.0981C34.2701 59.0381 24.7001 59.6281 16.6801 55.7081C16.8701 55.6781 17.0701 55.6481 17.2801 55.6281C18.0301 55.5381 18.8101 55.4481 19.1701 54.9481C19.3401 54.7081 19.3901 54.4081 19.3201 54.0481C19.2101 53.5281 18.6501 53.0381 17.9901 53.1381L12.9501 53.8581C12.5801 53.9081 12.2601 54.1281 12.0801 54.4581C11.9001 54.7981 11.8801 55.2081 12.0401 55.5681L14.1001 60.1181C14.3301 60.6281 14.7801 60.8381 15.2201 60.8381C15.3501 60.8381 15.4701 60.8181 15.5901 60.7881C15.9201 60.6981 16.1401 60.5281 16.2601 60.2781C16.5201 59.7281 16.1901 58.9781 15.9001 58.3081C15.8501 58.1981 15.7901 58.0581 15.7401 57.9281C24.7701 62.2281 35.0301 61.5081 43.3101 55.9781C43.5301 55.8281 43.6701 55.5981 43.7101 55.3081C43.7601 54.9481 43.6601 54.5181 43.4501 54.2681C43.0501 53.7781 42.4101 53.7181 41.8101 54.1181L41.8001 54.0981Z" fill="#0DB14B"/>
<path d="M39.1509 10.0203C47.2509 14.0703 52.5909 22.0803 53.2009 31.0403C53.0909 30.9103 52.9809 30.7503 52.8709 30.6103C52.4309 30.0103 51.9209 29.3303 51.3009 29.2703C51.0109 29.2403 50.7309 29.3503 50.4709 29.5903C50.0609 29.9703 49.8809 30.6603 50.3309 31.2303L53.5809 35.3103C53.7709 35.5503 54.0409 35.6703 54.3609 35.6703H54.3909C54.7709 35.6603 55.1509 35.4703 55.3509 35.1803L58.3609 30.9603C58.5409 30.7103 58.6009 30.3903 58.5309 30.0803C58.4609 29.7603 58.2609 29.4703 58.0109 29.3303C56.9809 28.7503 56.3809 29.6403 55.9409 30.2903C55.8209 30.4603 55.7009 30.6403 55.5809 30.7903C54.8209 20.9503 49.1609 12.4503 40.3409 7.97033C39.7109 7.65033 39.0609 7.76033 38.7209 8.25033C38.5109 8.56033 38.4309 8.94033 38.5209 9.28033C38.6009 9.60033 38.8209 9.86033 39.1309 10.0203H39.1509Z" fill="#0DB14B"/>
<path d="M54.9298 49.9802C54.8698 49.7302 54.6698 49.3202 54.2198 49.3202C54.1298 49.3202 54.0298 49.3402 53.9298 49.3802H53.9098C53.5298 49.5802 53.1198 49.6702 52.6998 49.6702C51.7698 49.6702 51.0298 49.2902 50.5898 48.6402H53.4198V47.6002H50.1998C50.1798 47.4502 50.1598 47.2902 50.1598 47.1302C50.1598 47.0902 50.1598 47.0502 50.1598 47.0102H53.4098V45.9702H50.3998C50.7898 45.1702 51.5998 44.6902 52.6898 44.6902C53.1098 44.6902 53.5198 44.7802 53.8898 44.9702H53.9098L53.9298 44.9802C53.9498 44.9802 54.0298 45.0102 54.1398 45.0102C54.2798 45.0102 54.7498 44.9602 54.8798 44.3002C54.9098 44.2102 54.9798 43.9702 54.8598 43.7102C54.7498 43.4702 54.5298 43.3002 54.1998 43.1902C53.7198 43.0102 53.2098 42.9102 52.6898 42.9102C50.7698 42.9102 49.1398 44.2102 48.6298 45.9702H47.8398V47.0102H48.4698C48.4698 47.0102 48.4698 47.0902 48.4698 47.1302C48.4698 47.2902 48.4698 47.4502 48.4998 47.6002H47.8398V48.6402H48.7498C49.3598 50.2202 50.8898 51.3502 52.6898 51.3502C53.2198 51.3502 53.7398 51.2502 54.2398 51.0602C54.3298 51.0302 54.6798 50.9102 54.8598 50.6002C54.9698 50.4202 54.9898 50.2002 54.9298 49.9802Z" fill="#0DB14B"/>
<path d="M4.75117 48.3703L6.79117 44.0703H5.15117L3.87117 46.6103L2.57117 44.0703H0.951172L3.15117 48.3703V48.8103H2.32117V49.4803H3.15117V49.9503H2.32117V50.6303H3.15117V51.8203L4.75117 51.8003V50.6303H5.61117V49.9503H4.75117V49.4803H5.61117V48.8103H4.75117V48.3703Z" fill="#0DB14B"/>
<path d="M29.4109 4.29V4.27C30.3009 3.94 30.7109 3.29 30.7109 2.59C30.7109 1.89 30.3109 1.34 29.7609 1.05C29.3009 0.78 28.7809 0.66 28.0209 0.62V0H27.4909V0.61H27.4309C26.5409 0.61 25.5909 0.68 25.1309 0.77V8.51C25.5309 8.57 26.1809 8.63 27.0609 8.63C27.2109 8.63 27.3509 8.63 27.4909 8.63V9.25H28.0209V8.6C29.0309 8.51 29.7109 8.28 30.1609 7.93C30.6509 7.53 30.9809 6.97 30.9809 6.26C30.9809 5.24 30.3109 4.56 29.4109 4.32V4.29ZM28.9209 2.8C28.9209 3.26 28.6109 3.6 28.0209 3.72V1.91C28.6009 2 28.9209 2.3 28.9209 2.8ZM26.9009 1.94C27.0309 1.92 27.2109 1.9 27.5009 1.9V3.78H26.9009V1.94ZM26.9009 7.27V5.05H27.5009V7.3C27.2509 7.3 27.0609 7.3 26.9009 7.28V7.27ZM28.0309 7.26V5.09C28.6609 5.2 29.1109 5.53 29.1109 6.16C29.1109 6.84 28.6409 7.16 28.0309 7.26Z" fill="#0DB14B"/>
</svg>
