<svg width="213" height="73" viewBox="0 0 213 73" fill="none" xmlns="http://www.w3.org/2000/svg">
<path d="M204.951 0H8.04933C3.60381 0 0 3.81458 0 8.5201V64.4799C0 69.1854 3.60381 73 8.04933 73H204.951C209.396 73 213 69.1854 213 64.4799V8.5201C213 3.81458 209.396 0 204.951 0Z" fill="#000204"/>
<path d="M18 19.5203V53.469C18 56.1235 20.8021 57.8209 23.1371 56.593L55.1275 39.6186C57.6242 38.3004 57.6242 34.7069 55.1275 33.3887L23.1371 16.4144C20.8021 15.1684 18 16.8839 18 19.5384V19.5203Z" fill="white"/>
<path d="M85.9945 42.24C85.6745 41.6533 85.2345 41.2067 84.6745 40.9C84.1145 40.5933 83.4612 40.44 82.7145 40.44C81.8879 40.44 81.1545 40.6267 80.5145 41C79.8745 41.3733 79.3745 41.9067 79.0145 42.6C78.6545 43.2933 78.4745 44.0933 78.4745 45C78.4745 45.9333 78.6545 46.7467 79.0145 47.44C79.3879 48.1333 79.9012 48.6667 80.5545 49.04C81.2079 49.4133 81.9679 49.6 82.8345 49.6C83.9012 49.6 84.7745 49.32 85.4545 48.76C86.1345 48.1867 86.5812 47.3933 86.7945 46.38H81.9945V44.24H89.5545V46.68C89.3679 47.6533 88.9679 48.5533 88.3545 49.38C87.7412 50.2067 86.9479 50.8733 85.9745 51.38C85.0145 51.8733 83.9345 52.12 82.7345 52.12C81.3879 52.12 80.1679 51.82 79.0745 51.22C77.9945 50.6067 77.1412 49.76 76.5145 48.68C75.9012 47.6 75.5945 46.3733 75.5945 45C75.5945 43.6267 75.9012 42.4 76.5145 41.32C77.1412 40.2267 77.9945 39.38 79.0745 38.78C80.1679 38.1667 81.3812 37.86 82.7145 37.86C84.2879 37.86 85.6545 38.2467 86.8145 39.02C87.9745 39.78 88.7745 40.8533 89.2145 42.24H85.9945ZM96.5461 52.18C95.4794 52.18 94.5194 51.9467 93.6661 51.48C92.8128 51 92.1394 50.3267 91.6461 49.46C91.1661 48.5933 90.9261 47.5933 90.9261 46.46C90.9261 45.3267 91.1728 44.3267 91.6661 43.46C92.1728 42.5933 92.8594 41.9267 93.7261 41.46C94.5928 40.98 95.5594 40.74 96.6261 40.74C97.6928 40.74 98.6594 40.98 99.5261 41.46C100.393 41.9267 101.073 42.5933 101.566 43.46C102.073 44.3267 102.326 45.3267 102.326 46.46C102.326 47.5933 102.066 48.5933 101.546 49.46C101.039 50.3267 100.346 51 99.4661 51.48C98.5994 51.9467 97.6261 52.18 96.5461 52.18ZM96.5461 49.74C97.0528 49.74 97.5261 49.62 97.9661 49.38C98.4194 49.1267 98.7794 48.7533 99.0461 48.26C99.3128 47.7667 99.4461 47.1667 99.4461 46.46C99.4461 45.4067 99.1661 44.6 98.6061 44.04C98.0594 43.4667 97.3861 43.18 96.5861 43.18C95.7861 43.18 95.1128 43.4667 94.5661 44.04C94.0328 44.6 93.7661 45.4067 93.7661 46.46C93.7661 47.5133 94.0261 48.3267 94.5461 48.9C95.0794 49.46 95.7461 49.74 96.5461 49.74ZM109.3 52.18C108.233 52.18 107.273 51.9467 106.42 51.48C105.567 51 104.893 50.3267 104.4 49.46C103.92 48.5933 103.68 47.5933 103.68 46.46C103.68 45.3267 103.927 44.3267 104.42 43.46C104.927 42.5933 105.613 41.9267 106.48 41.46C107.347 40.98 108.313 40.74 109.38 40.74C110.447 40.74 111.413 40.98 112.28 41.46C113.147 41.9267 113.827 42.5933 114.32 43.46C114.827 44.3267 115.08 45.3267 115.08 46.46C115.08 47.5933 114.82 48.5933 114.3 49.46C113.793 50.3267 113.1 51 112.22 51.48C111.353 51.9467 110.38 52.18 109.3 52.18ZM109.3 49.74C109.807 49.74 110.28 49.62 110.72 49.38C111.173 49.1267 111.533 48.7533 111.8 48.26C112.067 47.7667 112.2 47.1667 112.2 46.46C112.2 45.4067 111.92 44.6 111.36 44.04C110.813 43.4667 110.14 43.18 109.34 43.18C108.54 43.18 107.867 43.4667 107.32 44.04C106.787 44.6 106.52 45.4067 106.52 46.46C106.52 47.5133 106.78 48.3267 107.3 48.9C107.833 49.46 108.5 49.74 109.3 49.74ZM121.474 40.74C122.301 40.74 123.027 40.9067 123.654 41.24C124.281 41.56 124.774 41.98 125.134 42.5V40.92H127.954V52.08C127.954 53.1067 127.747 54.02 127.334 54.82C126.921 55.6333 126.301 56.2733 125.474 56.74C124.647 57.22 123.647 57.46 122.474 57.46C120.901 57.46 119.607 57.0933 118.594 56.36C117.594 55.6267 117.027 54.6267 116.894 53.36H119.674C119.821 53.8667 120.134 54.2667 120.614 54.56C121.107 54.8667 121.701 55.02 122.394 55.02C123.207 55.02 123.867 54.7733 124.374 54.28C124.881 53.8 125.134 53.0667 125.134 52.08V50.36C124.774 50.88 124.274 51.3133 123.634 51.66C123.007 52.0067 122.287 52.18 121.474 52.18C120.541 52.18 119.687 51.94 118.914 51.46C118.141 50.98 117.527 50.3067 117.074 49.44C116.634 48.56 116.414 47.5533 116.414 46.42C116.414 45.3 116.634 44.3067 117.074 43.44C117.527 42.5733 118.134 41.9067 118.894 41.44C119.667 40.9733 120.527 40.74 121.474 40.74ZM125.134 46.46C125.134 45.78 125.001 45.2 124.734 44.72C124.467 44.2267 124.107 43.8533 123.654 43.6C123.201 43.3333 122.714 43.2 122.194 43.2C121.674 43.2 121.194 43.3267 120.754 43.58C120.314 43.8333 119.954 44.2067 119.674 44.7C119.407 45.18 119.274 45.7533 119.274 46.42C119.274 47.0867 119.407 47.6733 119.674 48.18C119.954 48.6733 120.314 49.0533 120.754 49.32C121.207 49.5867 121.687 49.72 122.194 49.72C122.714 49.72 123.201 49.5933 123.654 49.34C124.107 49.0733 124.467 48.7 124.734 48.22C125.001 47.7267 125.134 47.14 125.134 46.46ZM133.489 37.2V52H130.689V37.2H133.489ZM146.555 46.22C146.555 46.62 146.528 46.98 146.475 47.3H138.375C138.442 48.1 138.722 48.7267 139.215 49.18C139.708 49.6333 140.315 49.86 141.035 49.86C142.075 49.86 142.815 49.4133 143.255 48.52H146.275C145.955 49.5867 145.342 50.4667 144.435 51.16C143.528 51.84 142.415 52.18 141.095 52.18C140.028 52.18 139.068 51.9467 138.215 51.48C137.375 51 136.715 50.3267 136.235 49.46C135.768 48.5933 135.535 47.5933 135.535 46.46C135.535 45.3133 135.768 44.3067 136.235 43.44C136.702 42.5733 137.355 41.9067 138.195 41.44C139.035 40.9733 140.002 40.74 141.095 40.74C142.148 40.74 143.088 40.9667 143.915 41.42C144.755 41.8733 145.402 42.52 145.855 43.36C146.322 44.1867 146.555 45.14 146.555 46.22ZM143.655 45.42C143.642 44.7 143.382 44.1267 142.875 43.7C142.368 43.26 141.748 43.04 141.015 43.04C140.322 43.04 139.735 43.2533 139.255 43.68C138.788 44.0933 138.502 44.6733 138.395 45.42H143.655ZM163.544 42.36C163.544 43.1067 163.364 43.8067 163.004 44.46C162.658 45.1133 162.104 45.64 161.344 46.04C160.598 46.44 159.651 46.64 158.504 46.64H156.164V52H153.364V38.04H158.504C159.584 38.04 160.504 38.2267 161.264 38.6C162.024 38.9733 162.591 39.4867 162.964 40.14C163.351 40.7933 163.544 41.5333 163.544 42.36ZM158.384 44.38C159.158 44.38 159.731 44.2067 160.104 43.86C160.478 43.5 160.664 43 160.664 42.36C160.664 41 159.904 40.32 158.384 40.32H156.164V44.38H158.384ZM168.332 37.2V52H165.532V37.2H168.332ZM170.379 46.42C170.379 45.3 170.599 44.3067 171.039 43.44C171.492 42.5733 172.099 41.9067 172.859 41.44C173.632 40.9733 174.492 40.74 175.439 40.74C176.265 40.74 176.985 40.9067 177.599 41.24C178.225 41.5733 178.725 41.9933 179.099 42.5V40.92H181.919V52H179.099V50.38C178.739 50.9 178.239 51.3333 177.599 51.68C176.972 52.0133 176.245 52.18 175.419 52.18C174.485 52.18 173.632 51.94 172.859 51.46C172.099 50.98 171.492 50.3067 171.039 49.44C170.599 48.56 170.379 47.5533 170.379 46.42ZM179.099 46.46C179.099 45.78 178.965 45.2 178.699 44.72C178.432 44.2267 178.072 43.8533 177.619 43.6C177.165 43.3333 176.679 43.2 176.159 43.2C175.639 43.2 175.159 43.3267 174.719 43.58C174.279 43.8333 173.919 44.2067 173.639 44.7C173.372 45.18 173.239 45.7533 173.239 46.42C173.239 47.0867 173.372 47.6733 173.639 48.18C173.919 48.6733 174.279 49.0533 174.719 49.32C175.172 49.5867 175.652 49.72 176.159 49.72C176.679 49.72 177.165 49.5933 177.619 49.34C178.072 49.0733 178.432 48.7 178.699 48.22C178.965 47.7267 179.099 47.14 179.099 46.46ZM195.253 40.92L188.393 57.24H185.413L187.813 51.72L183.373 40.92H186.513L189.373 48.66L192.273 40.92H195.253Z" fill="white"/>
<path d="M79.0105 17.242C80.0745 17.242 80.9939 17.4427 81.7685 17.844C82.5525 18.236 83.1499 18.8007 83.5605 19.538C83.9805 20.2753 84.1905 21.1433 84.1905 22.142C84.1905 23.1407 83.9805 24.0087 83.5605 24.746C83.1499 25.474 82.5525 26.034 81.7685 26.426C80.9939 26.8087 80.0745 27 79.0105 27H75.9725V17.242H79.0105ZM79.0105 25.95C80.2705 25.95 81.2319 25.6187 81.8945 24.956C82.5572 24.284 82.8885 23.346 82.8885 22.142C82.8885 20.9287 82.5525 19.9813 81.8805 19.3C81.2179 18.6187 80.2612 18.278 79.0105 18.278H77.2465V25.95H79.0105ZM89.217 27.126C88.4983 27.126 87.845 26.9627 87.257 26.636C86.6783 26.3093 86.221 25.8473 85.885 25.25C85.5583 24.6433 85.395 23.9433 85.395 23.15C85.395 22.366 85.563 21.6753 85.899 21.078C86.2443 20.4713 86.711 20.0093 87.299 19.692C87.887 19.3653 88.545 19.202 89.273 19.202C90.001 19.202 90.659 19.3653 91.247 19.692C91.835 20.0093 92.297 20.4667 92.633 21.064C92.9783 21.6613 93.151 22.3567 93.151 23.15C93.151 23.9433 92.9736 24.6433 92.619 25.25C92.2736 25.8473 91.8023 26.3093 91.205 26.636C90.6076 26.9627 89.945 27.126 89.217 27.126ZM89.217 26.006C89.6743 26.006 90.1036 25.8987 90.505 25.684C90.9063 25.4693 91.2283 25.1473 91.471 24.718C91.723 24.2887 91.849 23.766 91.849 23.15C91.849 22.534 91.7276 22.0113 91.485 21.582C91.2423 21.1527 90.925 20.8353 90.533 20.63C90.141 20.4153 89.7163 20.308 89.259 20.308C88.7923 20.308 88.363 20.4153 87.971 20.63C87.5883 20.8353 87.2803 21.1527 87.047 21.582C86.8136 22.0113 86.697 22.534 86.697 23.15C86.697 23.7753 86.809 24.3027 87.033 24.732C87.2663 25.1613 87.5743 25.4833 87.957 25.698C88.3396 25.9033 88.7596 26.006 89.217 26.006ZM105.046 19.328L102.652 27H101.336L99.488 20.91L97.64 27H96.324L93.916 19.328H95.218L96.982 25.768L98.886 19.328H100.188L102.05 25.782L103.786 19.328H105.046ZM110.048 19.188C110.982 19.188 111.738 19.4727 112.316 20.042C112.895 20.602 113.184 21.414 113.184 22.478V27H111.924V22.66C111.924 21.8947 111.733 21.3113 111.35 20.91C110.968 20.4993 110.445 20.294 109.782 20.294C109.11 20.294 108.574 20.504 108.172 20.924C107.78 21.344 107.584 21.9553 107.584 22.758V27H106.31V19.328H107.584V20.42C107.836 20.028 108.177 19.7247 108.606 19.51C109.045 19.2953 109.526 19.188 110.048 19.188ZM116.54 16.64V27H115.266V16.64H116.54ZM122.057 27.126C121.338 27.126 120.685 26.9627 120.097 26.636C119.518 26.3093 119.061 25.8473 118.725 25.25C118.398 24.6433 118.235 23.9433 118.235 23.15C118.235 22.366 118.403 21.6753 118.739 21.078C119.084 20.4713 119.551 20.0093 120.139 19.692C120.727 19.3653 121.385 19.202 122.113 19.202C122.841 19.202 123.499 19.3653 124.087 19.692C124.675 20.0093 125.137 20.4667 125.473 21.064C125.818 21.6613 125.991 22.3567 125.991 23.15C125.991 23.9433 125.813 24.6433 125.459 25.25C125.113 25.8473 124.642 26.3093 124.045 26.636C123.447 26.9627 122.785 27.126 122.057 27.126ZM122.057 26.006C122.514 26.006 122.943 25.8987 123.345 25.684C123.746 25.4693 124.068 25.1473 124.311 24.718C124.563 24.2887 124.689 23.766 124.689 23.15C124.689 22.534 124.567 22.0113 124.325 21.582C124.082 21.1527 123.765 20.8353 123.373 20.63C122.981 20.4153 122.556 20.308 122.099 20.308C121.632 20.308 121.203 20.4153 120.811 20.63C120.428 20.8353 120.12 21.1527 119.887 21.582C119.653 22.0113 119.537 22.534 119.537 23.15C119.537 23.7753 119.649 24.3027 119.873 24.732C120.106 25.1613 120.414 25.4833 120.797 25.698C121.179 25.9033 121.599 26.006 122.057 26.006ZM127.19 23.136C127.19 22.352 127.349 21.666 127.666 21.078C127.983 20.4807 128.417 20.0187 128.968 19.692C129.528 19.3653 130.149 19.202 130.83 19.202C131.502 19.202 132.085 19.3467 132.58 19.636C133.075 19.9253 133.443 20.2893 133.686 20.728V19.328H134.974V27H133.686V25.572C133.434 26.02 133.056 26.3933 132.552 26.692C132.057 26.9813 131.479 27.126 130.816 27.126C130.135 27.126 129.519 26.958 128.968 26.622C128.417 26.286 127.983 25.8147 127.666 25.208C127.349 24.6013 127.19 23.9107 127.19 23.136ZM133.686 23.15C133.686 22.5713 133.569 22.0673 133.336 21.638C133.103 21.2087 132.785 20.882 132.384 20.658C131.992 20.4247 131.558 20.308 131.082 20.308C130.606 20.308 130.172 20.42 129.78 20.644C129.388 20.868 129.075 21.1947 128.842 21.624C128.609 22.0533 128.492 22.5573 128.492 23.136C128.492 23.724 128.609 24.2373 128.842 24.676C129.075 25.1053 129.388 25.4367 129.78 25.67C130.172 25.894 130.606 26.006 131.082 26.006C131.558 26.006 131.992 25.894 132.384 25.67C132.785 25.4367 133.103 25.1053 133.336 24.676C133.569 24.2373 133.686 23.7287 133.686 23.15ZM136.651 23.136C136.651 22.352 136.809 21.666 137.127 21.078C137.444 20.4807 137.878 20.0187 138.429 19.692C138.989 19.3653 139.614 19.202 140.305 19.202C140.902 19.202 141.457 19.342 141.971 19.622C142.484 19.8927 142.876 20.252 143.147 20.7V16.64H144.435V27H143.147V25.558C142.895 26.0153 142.521 26.3933 142.027 26.692C141.532 26.9813 140.953 27.126 140.291 27.126C139.609 27.126 138.989 26.958 138.429 26.622C137.878 26.286 137.444 25.8147 137.127 25.208C136.809 24.6013 136.651 23.9107 136.651 23.136ZM143.147 23.15C143.147 22.5713 143.03 22.0673 142.797 21.638C142.563 21.2087 142.246 20.882 141.845 20.658C141.453 20.4247 141.019 20.308 140.543 20.308C140.067 20.308 139.633 20.42 139.241 20.644C138.849 20.868 138.536 21.1947 138.303 21.624C138.069 22.0533 137.953 22.5573 137.953 23.136C137.953 23.724 138.069 24.2373 138.303 24.676C138.536 25.1053 138.849 25.4367 139.241 25.67C139.633 25.894 140.067 26.006 140.543 26.006C141.019 26.006 141.453 25.894 141.845 25.67C142.246 25.4367 142.563 25.1053 142.797 24.676C143.03 24.2373 143.147 23.7287 143.147 23.15ZM153.666 27.126C152.948 27.126 152.294 26.9627 151.706 26.636C151.128 26.3093 150.67 25.8473 150.334 25.25C150.008 24.6433 149.844 23.9433 149.844 23.15C149.844 22.366 150.012 21.6753 150.348 21.078C150.694 20.4713 151.16 20.0093 151.748 19.692C152.336 19.3653 152.994 19.202 153.722 19.202C154.45 19.202 155.108 19.3653 155.696 19.692C156.284 20.0093 156.746 20.4667 157.082 21.064C157.428 21.6613 157.6 22.3567 157.6 23.15C157.6 23.9433 157.423 24.6433 157.068 25.25C156.723 25.8473 156.252 26.3093 155.654 26.636C155.057 26.9627 154.394 27.126 153.666 27.126ZM153.666 26.006C154.124 26.006 154.553 25.8987 154.954 25.684C155.356 25.4693 155.678 25.1473 155.92 24.718C156.172 24.2887 156.298 23.766 156.298 23.15C156.298 22.534 156.177 22.0113 155.934 21.582C155.692 21.1527 155.374 20.8353 154.982 20.63C154.59 20.4153 154.166 20.308 153.708 20.308C153.242 20.308 152.812 20.4153 152.42 20.63C152.038 20.8353 151.73 21.1527 151.496 21.582C151.263 22.0113 151.146 22.534 151.146 23.15C151.146 23.7753 151.258 24.3027 151.482 24.732C151.716 25.1613 152.024 25.4833 152.406 25.698C152.789 25.9033 153.209 26.006 153.666 26.006ZM163.013 19.188C163.947 19.188 164.703 19.4727 165.281 20.042C165.86 20.602 166.149 21.414 166.149 22.478V27H164.889V22.66C164.889 21.8947 164.698 21.3113 164.315 20.91C163.933 20.4993 163.41 20.294 162.747 20.294C162.075 20.294 161.539 20.504 161.137 20.924C160.745 21.344 160.549 21.9553 160.549 22.758V27H159.275V19.328H160.549V20.42C160.801 20.028 161.142 19.7247 161.571 19.51C162.01 19.2953 162.491 19.188 163.013 19.188ZM173.517 20.378V24.9C173.517 25.2733 173.596 25.5393 173.755 25.698C173.913 25.8473 174.189 25.922 174.581 25.922H175.519V27H174.371C173.661 27 173.129 26.8367 172.775 26.51C172.42 26.1833 172.243 25.6467 172.243 24.9V20.378H171.249V19.328H172.243V17.396H173.517V19.328H175.519V20.378H173.517ZM180.87 19.188C181.449 19.188 181.972 19.314 182.438 19.566C182.905 19.8087 183.269 20.1773 183.53 20.672C183.801 21.1667 183.936 21.7687 183.936 22.478V27H182.676V22.66C182.676 21.8947 182.485 21.3113 182.102 20.91C181.72 20.4993 181.197 20.294 180.534 20.294C179.862 20.294 179.326 20.504 178.924 20.924C178.532 21.344 178.336 21.9553 178.336 22.758V27H177.062V16.64H178.336V20.42C178.588 20.028 178.934 19.7247 179.372 19.51C179.82 19.2953 180.32 19.188 180.87 19.188ZM193.017 22.87C193.017 23.1127 193.003 23.3693 192.975 23.64H186.843C186.89 24.396 187.147 24.9887 187.613 25.418C188.089 25.838 188.663 26.048 189.335 26.048C189.886 26.048 190.343 25.922 190.707 25.67C191.081 25.4087 191.342 25.0633 191.491 24.634H192.863C192.658 25.3713 192.247 25.9733 191.631 26.44C191.015 26.8973 190.25 27.126 189.335 27.126C188.607 27.126 187.954 26.9627 187.375 26.636C186.806 26.3093 186.358 25.8473 186.031 25.25C185.705 24.6433 185.541 23.9433 185.541 23.15C185.541 22.3567 185.7 21.6613 186.017 21.064C186.335 20.4667 186.778 20.0093 187.347 19.692C187.926 19.3653 188.589 19.202 189.335 19.202C190.063 19.202 190.707 19.3607 191.267 19.678C191.827 19.9953 192.257 20.434 192.555 20.994C192.863 21.5447 193.017 22.17 193.017 22.87ZM191.701 22.604C191.701 22.1187 191.594 21.7033 191.379 21.358C191.165 21.0033 190.871 20.7373 190.497 20.56C190.133 20.3733 189.727 20.28 189.279 20.28C188.635 20.28 188.085 20.4853 187.627 20.896C187.179 21.3067 186.923 21.876 186.857 22.604H191.701Z" fill="white"/>
</svg>
