<svg width="39" height="38" viewBox="0 0 39 38" fill="none" xmlns="http://www.w3.org/2000/svg">
<path d="M38.4146 23.5966C35.8101 33.7752 25.2289 39.9692 14.7812 37.4315C4.33831 34.8938 -2.0193 24.584 0.58578 14.4059C3.18903 4.22607 13.7696 -1.96911 24.2143 0.568572C34.6614 3.10626 41.0184 13.4173 38.4139 23.5966H38.4146Z" fill="#262626"/>
<path d="M20.4473 10.583L19.8643 12.8604C20.2537 12.947 20.6462 13.0343 21.0273 13.127L21.6055 10.8643L23.0576 11.2168L22.4629 13.54C24.2954 14.1551 25.6348 15.077 25.3721 16.792C25.1815 18.0473 24.4677 18.6552 23.5195 18.8691C24.8217 19.5301 25.4838 20.5437 24.8525 22.2998C24.07 24.4805 22.2084 24.6644 19.7334 24.208L19.1328 26.5537L17.6816 26.2012L18.2744 23.8867C17.8983 23.7957 17.5137 23.6994 17.1182 23.5947L16.5225 25.9199L15.0732 25.5674L15.6738 23.2168C15.3354 23.1323 14.9909 23.0428 14.6396 22.957L12.75 22.498L13.4707 20.8789C13.4878 20.8833 14.5397 21.1551 14.5254 21.1348C14.9363 21.2339 15.1185 20.9728 15.1904 20.7988L16.1406 17.0918L16.293 17.1289C16.2353 17.1064 16.183 17.0921 16.1426 17.082L16.8193 14.4346C16.8375 14.1342 16.7309 13.7553 16.1436 13.6123C16.1575 13.5957 15.0922 13.3582 15.0889 13.3574L15.4746 11.8467L17.4766 12.333L17.4746 12.3408C17.7756 12.4137 18.0865 12.4826 18.4023 12.5527L18.9971 10.2305L20.4473 10.583ZM17.5889 21.8916C18.5733 22.1301 21.6077 23.0794 22.0566 21.3232C22.5241 19.4919 19.3698 19.0186 18.3857 18.7793L17.5889 21.8916ZM18.75 17.3535C19.5699 17.5525 22.0956 18.364 22.5049 16.7666C22.9309 15.1008 20.2926 14.7292 19.4727 14.5303L18.75 17.3535Z" fill="#0DB14B"/>
</svg>
