<svg width="39" height="38" viewBox="0 0 39 38" fill="none" xmlns="http://www.w3.org/2000/svg">
<path d="M38.8939 19.0013C38.8939 29.4395 30.2096 37.9013 19.4969 37.9013C8.784 37.9013 0.0996094 29.4395 0.0996094 19.0013C0.0996094 8.56328 8.784 0.101562 19.4969 0.101562C30.2095 0.101562 38.8939 8.56328 38.8939 19.0013Z" fill="#262626"/>
<g opacity="0.8">
<path d="M19.4343 10.2305L19.3145 10.6273V22.141L19.4343 22.2575L24.9194 19.0983L19.4343 10.2305Z" fill="#0DB14B"/>
<path d="M19.4344 10.2305L13.9492 19.0984L19.4344 22.2575V16.6691V10.2305Z" fill="#0DB14B"/>
<path d="M19.4347 23.9974L19.3672 24.0776V28.179L19.4347 28.3712L24.9232 20.8398L19.4347 23.9974Z" fill="#0DB14B"/>
<path d="M19.4344 28.3712V23.9974L13.9492 20.8398L19.4344 28.3712Z" fill="#0DB14B"/>
<path d="M19.4336 22.2563L24.9187 19.0972L19.4336 16.668V22.2563Z" fill="#0DB14B"/>
<path d="M13.9492 19.0972L19.4343 22.2563V16.668L13.9492 19.0972Z" fill="#0DB14B"/>
</g>
</svg>
