<svg width="39" height="38" viewBox="0 0 39 38" fill="none" xmlns="http://www.w3.org/2000/svg">
<path d="M38.8939 19.0013C38.8939 29.4395 30.2096 37.9013 19.4969 37.9013C8.784 37.9013 0.0996094 29.4395 0.0996094 19.0013C0.0996094 8.56328 8.784 0.101562 19.4969 0.101562C30.2095 0.101562 38.8939 8.56328 38.8939 19.0013Z" fill="#262626"/>
<path d="M24.948 26.8971L24.5004 24.9167C24.475 24.8003 24.4111 24.713 24.3086 24.6552C24.1977 24.5969 24.087 24.5888 23.9763 24.6304L23.9123 24.6552L23.7587 24.6925C23.6904 24.7089 23.6116 24.7277 23.5222 24.7484C23.4327 24.7692 23.3285 24.7898 23.209 24.8107C23.0901 24.8315 22.9638 24.8503 22.832 24.8668C22.6999 24.8831 22.5574 24.8979 22.4039 24.9104C22.2503 24.9227 22.0971 24.929 21.9435 24.929C20.8611 24.929 19.8873 24.6446 19.0224 24.0758C18.1573 23.5068 17.5202 22.7366 17.1112 21.7652H22.0583C22.1523 21.7652 22.2375 21.7342 22.3139 21.6717C22.3909 21.6096 22.4378 21.5329 22.4545 21.4412L22.7613 20.0461C22.787 19.9219 22.7613 19.8097 22.6848 19.7099C22.5996 19.6102 22.4928 19.5603 22.3652 19.5603H16.4977C16.4721 18.9956 16.4721 18.5597 16.4977 18.2524H22.7361C22.9665 18.2524 23.1027 18.1445 23.1452 17.9286L23.452 16.5086C23.4774 16.3924 23.4481 16.2846 23.3625 16.1848C23.2861 16.0852 23.1796 16.0351 23.0432 16.0351H17.0602C17.4863 15.1051 18.1255 14.3744 18.9778 13.8429C19.8301 13.3113 20.7932 13.0457 21.867 13.0457C21.9012 13.0291 22.0268 13.0333 22.2439 13.0581C22.4612 13.0829 22.585 13.0934 22.6147 13.0892C22.6442 13.0851 22.7554 13.0976 22.947 13.1265C23.1388 13.1556 23.2347 13.1701 23.2347 13.1701L23.4585 13.2137C23.5225 13.2262 23.5715 13.2364 23.6055 13.2449L23.6567 13.2572C23.7674 13.2906 23.8694 13.2802 23.9635 13.2262C24.0573 13.1721 24.1171 13.0912 24.1427 12.9833L24.6924 11.0028C24.7179 10.8948 24.705 10.7952 24.6542 10.7039C24.5774 10.6041 24.492 10.5418 24.3983 10.517C23.6143 10.326 22.7873 10.2305 21.9182 10.2305C20.0089 10.2305 18.3024 10.7621 16.7981 11.8249C15.2939 12.8877 14.2562 14.2912 13.6852 16.035H12.4325C12.3131 16.035 12.2152 16.0723 12.1384 16.147C12.0619 16.2217 12.0234 16.3172 12.0234 16.4335V17.8535C12.0234 17.9698 12.0618 18.0653 12.1384 18.1399C12.2152 18.2147 12.3133 18.2519 12.4325 18.2519H13.289C13.2633 18.6506 13.2592 19.0863 13.2761 19.5599H12.4325C12.3217 19.5599 12.2258 19.5993 12.1449 19.6782C12.064 19.757 12.0234 19.8505 12.0234 19.9583V21.3659C12.0234 21.474 12.064 21.5672 12.1449 21.6463C12.2259 21.7252 12.3217 21.7643 12.4325 21.7643H13.647C14.1839 23.5994 15.1982 25.0591 16.6896 26.1427C18.1811 27.2266 19.924 27.7683 21.9182 27.7683C22.0802 27.7683 22.2442 27.7644 22.4105 27.7558C22.577 27.7474 22.7323 27.7349 22.8772 27.7185C23.022 27.702 23.1649 27.6835 23.3055 27.6626C23.446 27.6417 23.5739 27.6213 23.6889 27.6002C23.8039 27.5796 23.9126 27.5589 24.0148 27.5382C24.1172 27.5172 24.2088 27.4946 24.2899 27.4696C24.3708 27.445 24.4386 27.4261 24.4943 27.4139C24.5497 27.4014 24.5945 27.3866 24.6283 27.3703L24.6924 27.3577C24.7862 27.3246 24.8586 27.2643 24.9097 27.1769C24.9609 27.0903 24.9734 26.9967 24.948 26.8971Z" fill="#0DB14B"/>
</svg>
