<svg width="39" height="38" viewBox="0 0 39 38" fill="none" xmlns="http://www.w3.org/2000/svg">
<path fill-rule="evenodd" clip-rule="evenodd" d="M19.5 38C30.2696 38 39 29.4934 39 19C39 8.50659 30.2696 0 19.5 0C8.73045 0 0 8.50659 0 19C0 29.4934 8.73045 38 19.5 38Z" fill="#262626"/>
<path fill-rule="evenodd" clip-rule="evenodd" d="M17.7916 10.2305C18.8626 10.2305 19.9296 10.2305 21.0005 10.2305C20.9375 10.9364 20.8706 11.6461 20.8116 12.352C22.0597 12.4402 23.2763 12.8315 24.3709 13.4108C23.8984 14.5694 23.422 15.7279 22.9456 16.8865C22.0242 16.1231 20.8116 15.7011 19.6028 15.7164C19.2996 15.7241 18.9846 15.7816 18.7327 15.9504C18.5673 16.0617 18.4452 16.2343 18.4098 16.4261C18.3822 16.5796 18.3901 16.7522 18.4767 16.8903C18.5752 17.0438 18.7484 17.1359 18.9217 17.1934C19.276 17.3162 19.6579 17.3239 20.028 17.3622C20.8982 17.4658 21.7722 17.6116 22.5951 17.9146C23.233 18.1525 23.8433 18.5093 24.2803 19.031C24.6937 19.5106 24.9339 20.1167 25.0245 20.7382C25.1308 21.4556 25.0993 22.1998 24.8709 22.898C24.6937 23.4582 24.3905 23.9799 23.9968 24.4211C23.1818 25.3418 21.9849 25.8942 20.7564 26.0362C20.7958 26.7919 20.843 27.5438 20.8864 28.2996C19.8705 28.2996 18.8587 28.2996 17.8468 28.2996C17.8861 27.5515 17.9373 26.8034 17.9728 26.0553C17.1577 26.0285 16.3506 25.852 15.5907 25.572C14.8544 25.2996 14.1536 24.939 13.5 24.517C13.9803 23.3124 14.4607 22.1078 14.945 20.8993C15.4923 21.3482 16.075 21.7663 16.7128 22.0847C17.3979 22.4262 18.1578 22.6448 18.9295 22.6525C19.2957 22.6564 19.6737 22.6372 20.0202 22.5144C20.2328 22.4377 20.4414 22.3034 20.5359 22.0924C20.6344 21.8699 20.6265 21.5899 20.4769 21.3904C20.3706 21.2561 20.221 21.164 20.0635 21.0988C19.8509 21.0144 19.6304 20.9684 19.4059 20.9338C18.5791 20.8034 17.7483 20.696 16.9491 20.4428C16.3073 20.2395 15.6813 19.9556 15.1694 19.5182C14.8466 19.2459 14.5788 18.9121 14.3898 18.5361C14.1063 17.976 14 17.343 14.0079 16.7215C14.0079 16.0272 14.1536 15.3213 14.5079 14.7113C14.8151 14.1665 15.2836 13.7215 15.8112 13.3801C16.449 12.9696 17.1617 12.6896 17.8861 12.4632C17.8546 11.719 17.8231 10.9747 17.7916 10.2305Z" fill="#0DB14B"/>
</svg>
