<svg width="81" height="61" viewBox="0 0 81 61" fill="none" xmlns="http://www.w3.org/2000/svg">
<path d="M79.85 11.5734L68.928 0.633762C68.1485 -0.154602 66.9349 -0.11917 66.0846 0.261725C65.3671 0.589472 64.6319 1.3867 64.623 2.4408L64.5964 7.7379L20.3417 7.77334C18.4727 7.77334 16.9491 9.1109 16.205 10.2447C15.0712 11.9986 14.9914 14.0714 16.0013 15.9316C16.8693 17.5526 18.5878 18.6333 20.4923 18.7573C21.0503 18.7927 21.6084 18.7839 22.1399 18.7662C22.6536 18.7573 23.1851 18.7396 23.7077 18.7662C18.7827 25.8171 18.7827 34.9586 23.6989 41.9831L15.8772 42.0096L15.8595 36.9517C15.8595 35.8887 15.3015 34.9586 14.3891 34.5423C13.3527 34.064 12.2012 34.2411 11.4571 34.9852L0.641435 45.8452C-0.23551 46.7221 -0.208936 48.414 0.694583 49.3175L11.4659 60.1066C11.9177 60.5672 12.5289 60.8064 13.1844 60.8064C13.5387 60.8064 13.9108 60.7355 14.2739 60.5849C15.0269 60.2749 15.8418 59.4511 15.8507 58.3704L15.8772 53.0556L59.7954 53.0379C62.6919 53.0379 65.1545 50.5399 65.1722 47.5902C65.1811 44.6227 62.8691 42.1779 59.9105 42.0362C59.3436 42.0096 58.7767 42.0185 58.2186 42.0273C57.7226 42.0273 57.2443 42.0451 56.7659 42.0273C61.6821 35.0029 61.6998 25.8703 56.8013 18.8193L64.6053 18.775L64.6407 24.0898C64.6407 25.2325 65.5177 26.0563 66.3149 26.3398C67.3424 26.7029 68.3699 26.4726 69.1229 25.7197L79.8588 14.9572C80.7092 14.1068 80.7092 12.4327 79.8588 11.5823L79.85 11.5734ZM67.2715 17.4197C67.2715 16.7908 66.8021 16.1176 66.0403 16.1176H54.5603L54.4185 15.9759C53.5505 15.2052 52.7355 14.47 51.7611 13.7968C49.1303 11.9809 46.1983 10.8559 43.2131 10.413H65.8543C66.7046 10.413 67.2804 9.85497 67.2804 9.01346V2.76855L77.7417 13.221C77.7595 13.2387 77.7683 13.2476 77.7772 13.2565L67.2893 23.7444V17.4197H67.2715ZM51.9117 46.8815C51.9737 46.8372 52.0446 46.7841 52.1066 46.731C52.2483 46.6158 52.3723 46.5184 52.5229 46.4741L52.6469 46.4386L52.7267 46.3323C52.8418 46.1818 53.0013 46.0489 53.1696 45.916C53.2759 45.8274 53.3822 45.7389 53.4796 45.6503L54.4805 44.7113H59.6182C61.1595 44.7113 62.4173 45.916 62.4882 47.4485C62.5236 48.1925 62.2136 48.9809 61.6644 49.5567C61.1507 50.097 60.4774 50.3982 59.7865 50.3982H43.222C46.2603 49.9464 49.2366 48.786 51.9029 46.8993L51.9117 46.8815ZM40.2368 47.9179C30.5727 47.9179 22.7156 40.0609 22.7156 30.3967C22.7156 20.7326 30.5727 12.8756 40.2368 12.8756C49.901 12.8756 57.758 20.7326 57.758 30.3967C57.758 40.0609 49.901 47.9179 40.2368 47.9179ZM25.9754 16.091C25.2933 16.0822 24.6201 16.091 23.9469 16.0999C22.7954 16.1176 21.6084 16.1353 20.4303 16.0379C19.1104 15.9227 18.0475 14.7357 17.9943 13.3362C17.9677 12.5832 18.2778 11.7949 18.8181 11.2368C19.3053 10.7319 19.9342 10.4485 20.5897 10.4485L37.3225 10.4042C33.1504 11.0154 29.1554 12.9287 25.9843 16.091H25.9754ZM13.211 51.7003V58.0338L2.70536 47.537C2.71421 47.5282 2.72307 47.5105 2.74079 47.5016L13.2021 37.0491V43.1877C13.2021 43.5864 13.2907 43.9318 13.4679 44.2507L13.5387 44.3747L13.6716 44.4279C14.0348 44.5873 14.3714 44.6936 14.7523 44.7025L25.9665 44.6759C29.1289 47.8471 33.1061 49.7693 37.2517 50.3893H14.5397C13.7513 50.3982 13.2198 50.9208 13.2198 51.6915L13.211 51.7003Z" fill="#0DB14B"/>
<path d="M46.933 30.3978L50.4585 25.5436C50.9634 24.8527 50.99 24.2149 50.5294 23.6037C50.2548 23.3203 49.7942 23.152 49.3778 23.1785C49.0324 23.2051 48.7401 23.3557 48.554 23.6126L45.2766 28.1036L42.1143 23.7277C41.8839 23.4266 41.5385 23.2228 41.1576 23.1874C40.7855 23.152 40.4224 23.2582 40.1478 23.5063C39.6074 23.9757 39.5366 24.7375 39.9795 25.3487L43.6201 30.389L39.9086 35.5532C39.7049 35.8278 39.6429 36.1821 39.7137 36.5364C39.7934 36.9173 40.0238 37.2451 40.3338 37.4311C40.5552 37.564 40.7855 37.6171 41.0247 37.6171C41.4676 37.6171 41.8839 37.3957 42.1497 37.0059L43.6821 34.9154C43.8859 34.632 44.0896 34.3485 44.2845 34.065C44.5945 33.6133 44.9223 33.1527 45.2854 32.6921L48.3946 36.9882C48.8552 37.626 49.617 37.7943 50.2548 37.4045C50.556 37.2185 50.7774 36.8996 50.8571 36.5364C50.928 36.1733 50.8571 35.8012 50.6268 35.5L46.9419 30.3978H46.933Z" fill="#0DB14B"/>
<path d="M38.2784 25.8361C38.9427 25.6766 39.3502 25.1717 39.3414 24.5162C39.3414 23.8873 38.8985 23.2141 38.1987 23.2052L30.8908 23.1875C30.5542 23.1875 30.253 23.3115 30.0227 23.5418C29.7658 23.7987 29.6152 24.1707 29.6152 24.5694V36.2177C29.6152 36.9706 30.1201 37.5552 30.8199 37.6084C30.8554 37.6084 30.8908 37.6084 30.9262 37.6084C31.2894 37.6084 31.6437 37.4755 31.8917 37.2452C32.1309 37.0237 32.2549 36.7314 32.2549 36.4037L32.2815 32.1695L38.2252 32.1253C38.4998 32.1253 38.7479 32.019 38.9427 31.8152C39.2351 31.514 39.3325 31.0711 39.3325 30.7523C39.3236 30.1233 38.8807 29.6184 38.2341 29.5033L32.2904 29.4856L32.2726 25.8449H38.181L38.2784 25.8272V25.8361Z" fill="#0DB14B"/>
</svg>
