<svg width="63" height="60" viewBox="0 0 63 60" fill="none" xmlns="http://www.w3.org/2000/svg">
<path d="M51.5831 49.8619C40.856 62.3075 21.6518 62.2986 10.9336 49.8619C6.16796 49.7291 2.04898 46.5579 0.587403 42.1643C-0.971611 37.4961 0.640551 32.385 4.61781 29.4442C5.6542 19.9749 11.7042 11.6838 20.5091 7.83057C22.015 3.16239 26.3377 0.017791 31.2362 7.48913e-05C36.1347 -0.0176412 40.5106 3.10924 42.0253 7.83057C50.7504 11.6307 56.8625 19.8864 57.9077 29.4442C61.8495 32.3407 63.4971 37.3987 61.9558 42.1023C60.512 46.5136 56.3664 49.7202 51.5831 49.8619ZM40.1562 11.3029C40.1562 6.39557 36.1701 2.40946 31.2628 2.40946C26.3554 2.40946 22.3693 6.39557 22.3693 11.3029C22.3693 16.2103 26.3554 20.1964 31.2628 20.1964C36.1701 20.1964 40.1562 16.2103 40.1562 11.3029ZM20.0928 13.0922C19.9599 12.2507 19.9688 11.5421 19.9333 10.7714C13.2544 14.2704 8.59506 20.6481 7.26636 27.9915C8.0813 27.7169 8.76337 27.5131 9.53401 27.398C10.9247 21.3834 14.716 16.2191 20.0928 13.0922ZM52.9915 27.4068C53.833 27.5131 54.5151 27.7434 55.2503 27.9826C53.895 20.595 49.2003 14.2349 42.5745 10.7714C42.5922 11.6041 42.5302 12.3216 42.4416 13.1011C47.8007 16.228 51.5919 21.3745 52.9915 27.4157V27.4068ZM50.4758 27.2651C49.094 22.2603 46.0114 18.1945 41.7595 15.5016C39.9968 19.8509 35.8335 22.6146 31.2185 22.6058C26.6034 22.5969 22.5022 19.8243 20.7571 15.5016C16.4787 18.2033 13.3873 22.3312 12.0408 27.274C16.647 27.584 20.5623 30.6666 21.9973 34.9007C23.5563 39.4892 22.077 44.4408 18.3035 47.4437C25.7088 53.8835 36.8788 53.8392 44.2221 47.4437C40.4131 44.4142 38.9604 39.436 40.546 34.8564C41.9987 30.64 45.8874 27.6017 50.4758 27.274V27.2651ZM20.2079 38.5591C20.2079 33.6429 16.2218 29.6568 11.3056 29.6568C6.38941 29.6568 2.4033 33.6429 2.4033 38.5591C2.4033 43.4753 6.38941 47.4614 11.3056 47.4614C16.2218 47.4614 20.2079 43.4753 20.2079 38.5591ZM60.1134 38.5591C60.1134 33.6429 56.1273 29.6656 51.2199 29.6656C46.3126 29.6656 42.3264 33.6517 42.3264 38.5591C42.3264 43.4664 46.3126 47.4525 51.2199 47.4525C56.1273 47.4525 60.1134 43.4664 60.1134 38.5591ZM13.963 49.5785C23.5031 59.2249 39.1376 59.154 48.5802 49.543C47.7298 49.3747 47.0744 49.0913 46.3569 48.7724C37.8797 56.6206 24.6812 56.6472 16.1687 48.7812C15.4157 49.109 14.7248 49.3482 13.963 49.5696V49.5785Z" fill="#0DB14B"/>
<path d="M32.4679 17.4493C32.5299 18.2288 31.9984 18.8134 31.2986 18.8311C30.5988 18.8489 30.0053 18.2377 30.0585 17.4759C30.0673 17.3164 30.1028 17.0153 30.0142 16.9001C29.2878 16.6078 28.6766 16.1649 28.2514 15.5005C27.8883 14.9248 28.0566 14.1984 28.5881 13.8441C29.155 13.4632 29.9168 13.6315 30.2977 14.2161C30.4925 14.5084 30.8203 14.6502 31.148 14.6324C31.4758 14.6147 31.7769 14.3933 31.9452 14.0744C32.1401 13.6935 32.087 13.3037 31.8832 12.9406C31.6795 12.5774 31.2986 12.5154 30.8557 12.4445C29.341 12.1876 28.278 10.9209 28.0831 9.48592C27.8794 7.95349 28.6501 6.49191 30.0408 5.83642C30.0762 5.55296 30.0673 5.31379 30.0585 5.04805C30.0231 4.31283 30.6077 3.7282 31.3075 3.75478C32.0073 3.78135 32.5387 4.3837 32.4767 5.12777C32.4679 5.28722 32.4324 5.57953 32.521 5.69469C33.2917 5.99586 33.956 6.46534 34.3458 7.20055C34.6558 7.78518 34.4166 8.46725 33.8763 8.77728C33.336 9.08731 32.6273 8.9633 32.273 8.40524C32.0338 8.04207 31.6441 7.89148 31.1835 8.00663C30.6431 8.13065 30.404 8.77728 30.5014 9.27333C30.6254 9.88454 31.1215 10.0528 31.7061 10.1414C33.1942 10.3717 34.2483 11.6561 34.4432 13.0469C34.6647 14.5882 33.9117 16.0497 32.5122 16.7229C32.4502 16.9444 32.4502 17.1658 32.4767 17.4316L32.4679 17.4493Z" fill="#0DB14B"/>
<path d="M52.4428 43.0171L52.4074 44.3015C52.3897 44.9481 51.7431 45.3644 51.1584 45.329C50.5029 45.2936 50.0069 44.771 50.0157 44.0889C50.0157 43.7346 50.0335 43.398 50.0157 43.0525C49.8563 42.9905 49.6969 42.9816 49.5197 42.9994C48.7756 43.0791 48.1556 42.5387 48.1378 41.8212C48.1201 41.1037 48.7402 40.528 49.5286 40.59C49.6526 40.5988 49.998 40.6343 50.0157 40.4925C50.0512 40.2711 49.7323 40.3419 49.5994 40.3242C48.8376 40.4482 48.1733 39.9256 48.1378 39.217C48.0936 38.4463 48.7048 37.8794 49.564 37.9237L47.1812 35.2486C46.7294 34.7437 46.7206 34.0527 47.1723 33.5744C47.6241 33.0961 48.4036 33.0252 48.8731 33.539L51.2293 36.1167L53.5058 33.5921C53.9664 33.0872 54.6928 33.0695 55.18 33.477C55.6672 33.8844 55.7735 34.6551 55.3128 35.1689L52.8592 37.9148C53.6564 37.8617 54.2676 38.3577 54.303 39.0752C54.3385 39.7927 53.7361 40.4128 52.9566 40.3331C52.8149 40.3685 52.4783 40.2622 52.434 40.404C52.3808 40.6431 52.7263 40.6077 52.8769 40.59C53.5855 40.5191 54.2056 40.9532 54.2942 41.6264C54.3828 42.2996 53.9487 42.9019 53.2489 42.9905C53.0009 43.0171 52.7617 42.9905 52.434 43.0082L52.4428 43.0171Z" fill="#0DB14B"/>
<path d="M12.0594 41.6165L10.1727 41.6519C10.8548 42.4757 11.8646 42.954 12.9364 42.9717C13.6539 42.9806 14.212 43.4944 14.212 44.1941C14.212 44.8939 13.6628 45.4077 12.9364 45.39C10.4916 45.3457 8.35679 43.893 7.36469 41.6696C7.27611 41.5722 7.00151 41.6165 6.8775 41.6253C6.14228 41.6519 5.57537 41.1204 5.56651 40.4295C5.55765 39.7386 6.10685 39.1894 6.85093 39.2071C6.88636 38.7553 6.8775 38.339 6.85978 37.8872C6.11571 37.9404 5.57537 37.3557 5.56651 36.6825C5.55765 35.9562 6.24858 35.4158 6.93065 35.4867C7.0458 35.4956 7.3204 35.5398 7.36469 35.4424C8.34793 33.219 10.4827 31.7752 12.9364 31.7309C13.6716 31.7132 14.1942 32.2535 14.2031 32.9356C14.212 33.6177 13.645 34.1403 12.9275 34.158C11.838 34.1757 10.8459 34.6452 10.1638 35.4778C10.7485 35.5133 11.2799 35.5044 11.8557 35.4956C12.5555 35.4778 13.0958 35.9739 13.1401 36.6294C13.1844 37.2849 12.6618 37.9049 11.9354 37.9049L9.29574 37.9227V39.2248L12.0152 39.2425C12.6441 39.2425 13.1136 39.8006 13.1401 40.3763C13.1667 40.9521 12.7415 41.6165 12.0506 41.6253L12.0594 41.6165Z" fill="#0DB14B"/>
</svg>
