<svg width="64" height="61" viewBox="0 0 64 61" fill="none" xmlns="http://www.w3.org/2000/svg">
<path d="M63.2016 26.9908C63.2016 24.5903 59.6495 22.5972 58.0373 22.0569L57.9045 22.0126L57.5413 22.4555C57.1781 22.8984 56.8415 23.3147 56.434 23.7399L56.2391 23.9702L56.5226 24.0854C57.8867 24.6346 59.1712 25.1572 60.181 26.1582C60.8896 26.858 60.9516 27.6906 60.3404 28.3727C58.6751 30.2417 54.9016 31.1541 53.3514 31.4641C48.4352 32.4385 43.4304 32.4562 38.4699 31.4996C36.8755 31.1895 32.9691 30.2772 31.2684 28.3815C30.6749 27.7172 30.728 26.8757 31.4012 26.1936C32.4199 25.1749 33.7752 24.6257 35.095 24.0943L35.3608 23.988L35.1747 23.7665C35.0419 23.6071 34.9179 23.4653 34.7938 23.3147C34.475 22.9516 34.1738 22.6061 33.8638 22.1632L33.7663 22.0303L33.6157 22.0835C30.0371 23.4033 28.2212 25.4052 28.3806 27.8943C28.3806 27.9918 28.3895 28.0804 28.3895 28.1689L20.0895 15.4488C19.4872 14.5276 18.5482 13.9961 17.5207 13.9961C16.4134 13.9961 15.4479 14.501 14.881 15.3779L2.71006 34.1215C-1.19633 40.1273 -0.850871 48.1084 3.56043 53.9901C6.67846 58.1445 11.4175 60.6691 16.5729 60.9348C16.8741 60.9525 17.1664 60.9614 17.4675 60.9614C22.4015 60.9614 27.0608 58.8886 30.4003 55.1859C32.8894 57.0993 36.654 57.9762 38.7002 58.3217C43.8202 59.1986 48.9401 59.1366 53.9183 58.1357C56.0354 57.7105 59.8887 56.6829 61.9083 54.5836C62.7941 53.6624 63.2281 52.7411 63.2281 51.7579L63.2104 26.9997L63.2016 26.9908ZM60.739 43.7591C60.6947 44.3083 60.243 44.7069 59.7646 45.1144C59.6672 45.1941 59.5786 45.2738 59.49 45.3535C57.9222 46.3368 56.2834 46.9834 54.1752 47.4617C48.5592 48.7284 42.6421 48.693 37.0526 47.3643C35.2722 46.9391 33.7397 46.3191 32.2516 45.4333C32.1542 45.3535 32.0567 45.2738 31.9593 45.1852C31.4632 44.7778 30.9406 44.3526 30.8963 43.7502C30.8166 42.7493 30.8343 41.7837 30.852 40.7562C30.852 40.2867 30.8697 39.8084 30.8609 39.3212C32.4553 40.3399 34.0586 41.0219 36.0074 41.518C42.3763 43.139 49.1261 43.1479 55.5394 41.5446C57.4616 41.0662 59.1446 40.3487 60.7833 39.3212C60.7833 39.8527 60.7833 40.3665 60.7833 40.8714C60.7922 41.8546 60.8099 42.7847 60.739 43.7414V43.7591ZM59.4812 37.2307C59.3572 37.3193 59.2332 37.4167 59.118 37.5053C57.4261 38.4531 55.7077 39.0732 53.564 39.5072C48.0898 40.6233 42.3763 40.5436 37.0526 39.2769C35.1925 38.834 33.6423 38.1962 32.1807 37.3016C32.0833 37.2219 31.9859 37.1333 31.8884 37.0536C31.4189 36.6549 30.9317 36.2475 30.8875 35.6717C30.8166 34.6707 30.8254 33.6964 30.8432 32.6688C30.8432 32.1994 30.852 31.721 30.852 31.2427C32.4553 32.2614 34.1295 32.97 36.096 33.466C42.3852 35.0516 49.073 35.0605 55.4419 33.4926C57.3995 33.0143 59.1003 32.2968 60.7745 31.2427C60.7656 31.8096 60.7745 32.3588 60.7833 32.8991C60.801 33.8824 60.8276 34.8125 60.7036 35.7514C60.6239 36.3803 60.0392 36.8144 59.4812 37.2307ZM30.8432 48.8525C30.8432 48.383 30.852 47.9046 30.852 47.4263C32.4376 48.445 34.0409 49.1359 35.9985 49.632C42.3675 51.253 49.1261 51.2618 55.5305 49.6585C57.435 49.1802 59.1091 48.4716 60.7656 47.4352C60.7656 47.9666 60.7656 48.4893 60.7656 48.9942C60.7745 49.9774 60.7922 50.8987 60.7213 51.8553C60.677 52.4134 60.2253 52.8031 59.7469 53.2195C59.6583 53.2992 59.5609 53.3789 59.4723 53.4586C57.931 54.4064 56.3366 55.0531 54.4587 55.496C48.701 56.8424 42.6421 56.8247 36.9375 55.4428C35.1482 55.0088 33.6157 54.3799 32.163 53.4941C32.0656 53.4055 31.9681 53.3258 31.8707 53.2372C31.4012 52.8386 30.914 52.4311 30.8786 51.8553C30.8077 50.8544 30.8166 49.88 30.8343 48.8525H30.8432ZM28.8058 53.2815C25.6081 57.0196 20.7804 58.9506 15.8642 58.4191C11.134 57.9142 6.88219 55.1417 4.50824 50.9961C1.7091 46.1065 1.78882 40.0299 4.72083 35.5211L16.9095 16.7509C17.0601 16.5206 17.3081 16.4763 17.441 16.4675C17.4587 16.4675 17.4675 16.4675 17.4853 16.4675C17.7333 16.4675 17.9193 16.5649 18.0522 16.7598L28.4072 32.6245V51.8642C28.4072 52.3425 28.5489 52.6525 28.7438 53.122L28.8147 53.2815H28.8058Z" fill="#0DB14B"/>
<path d="M17.6454 54.6437L17.6188 54.4666H17.4416C11.365 54.4046 6.59053 49.6035 6.56396 43.5446V43.332H4.11914V43.5446C4.128 50.8968 10.1249 56.8937 17.4859 56.9114H17.7074V56.6899C17.6985 56.4331 17.7074 56.185 17.7074 55.9459C17.7162 55.5295 17.7251 55.0955 17.6631 54.6437H17.6454Z" fill="#0DB14B"/>
<path d="M6.4567 41.8369L6.65157 41.8547L6.687 41.6598C6.80216 40.9688 6.90846 40.5437 7.09447 39.897L7.14762 39.7199L6.98818 39.6401C6.42126 39.3744 5.81892 39.1707 5.04827 38.9935L4.86225 38.9492L4.80024 39.1264C4.52564 39.8882 4.40163 40.5525 4.27762 41.27L4.24219 41.456L4.42821 41.5092C5.02169 41.6686 5.6329 41.7661 6.46555 41.8281L6.4567 41.8369Z" fill="#0DB14B"/>
<path d="M45.8136 26.3615C53.086 26.3615 58.9943 20.4443 58.9943 13.1808C58.9943 5.91717 53.086 0 45.8136 0C38.5411 0 32.6328 5.91717 32.6328 13.1808C32.6328 20.4443 38.55 26.3615 45.8136 26.3615ZM35.4142 13.1808C35.4142 7.4496 40.0824 2.78142 45.8136 2.78142C51.5447 2.78142 56.2129 7.4496 56.2129 13.1808C56.2129 18.9119 51.5447 23.5801 45.8136 23.5801C40.0824 23.5801 35.4142 18.9119 35.4142 13.1808Z" fill="#0DB14B"/>
<path d="M45.7593 16.4929C45.2721 16.4752 44.9089 16.1031 44.8292 15.5185L44.8026 15.3413H44.6255C44.404 15.3413 44.1914 15.3413 43.9788 15.3325C43.3765 15.3148 42.8096 15.3059 42.2427 15.3856L42.0566 15.4122V15.5982C42.1275 17.1307 42.969 18.3442 44.4306 19.0174V21.6483L47.212 21.6394L47.2474 18.9909C48.9128 18.2911 49.8517 16.5372 49.4885 14.7833C49.1342 13.056 47.6283 11.8336 45.8302 11.7981C45.5556 11.7981 45.2987 11.683 45.1215 11.497C44.9444 11.3109 44.8469 11.0452 44.8646 10.7795C44.8912 10.2568 45.3164 9.87594 45.8479 9.87594C45.8567 9.87594 45.8656 9.87594 45.8745 9.87594C46.3439 9.8848 46.716 10.2834 46.8045 10.8503L46.8311 11.0275L49.5683 11.0452V10.8326C49.5328 9.30017 48.647 7.99804 47.2386 7.39569L47.2032 4.73828H44.4394L44.3952 7.39569C42.7299 8.11319 41.7909 9.85822 42.1541 11.6121C42.5084 13.3306 44.0143 14.5618 45.8124 14.5973C46.087 14.5973 46.3439 14.7124 46.5211 14.8984C46.6982 15.0845 46.7868 15.3502 46.778 15.6071C46.7514 16.1386 46.3085 16.5283 45.7682 16.5106L45.7593 16.4929Z" fill="#0DB14B"/>
</svg>
