<svg width="53" height="59" viewBox="0 0 53 59" fill="none" xmlns="http://www.w3.org/2000/svg">
<path d="M44.8299 53.0423C40.2857 56.3552 34.3862 56.4792 29.8332 53.4586C25.2802 50.438 23.1897 45.1675 24.3412 39.7906L20.1691 39.8084C19.3187 39.8084 18.7695 39.2503 18.7695 38.4885C18.7695 37.7267 19.3187 37.213 20.1691 37.213H25.227C28.5222 30.1885 37.0525 27.602 43.6252 31.4907C50.1978 35.3793 52.0846 44.1222 47.4164 50.4469L52.9261 56.0008L50.3838 58.552L44.8476 53.0423H44.8299ZM46.8672 42.6518C46.8672 37.2041 42.4559 32.7928 37.0082 32.7928C31.5605 32.7928 27.1492 37.2041 27.1492 42.6518C27.1492 48.0995 31.5605 52.5108 37.0082 52.5108C42.4559 52.5108 46.8672 48.0995 46.8672 42.6518Z" fill="#0DB14B"/>
<path d="M2.61312 3.51664L2.63969 47.1602C2.63969 47.8422 3.68494 47.8334 4.10127 47.8334L20.1697 47.8068C21.0024 47.8068 21.5427 48.4003 21.5339 49.1266C21.525 49.8087 21.0113 50.4022 20.1609 50.3933L3.15346 50.3402C1.19583 50.3402 0 48.542 0 46.6818L0.0531482 3.18003C0.0531482 1.05411 2.04621 0 3.93297 0L39.9054 0.0708642C41.739 0.0708642 42.9969 1.82475 42.9969 3.54321V25.7946C43.0057 26.6538 42.43 27.1499 41.739 27.1676C40.9773 27.1942 40.4103 26.6538 40.4103 25.7946L40.3926 3.48121C40.3926 2.88772 39.87 2.5954 39.3119 2.5954H3.56093C3.10917 2.5954 2.61312 2.89658 2.61312 3.5255V3.51664Z" fill="#0DB14B"/>
<path d="M17.104 25.2092C17.104 27.9995 14.8452 30.2583 12.0549 30.2583C9.26466 30.2583 7.00586 27.9995 7.00586 25.2092C7.00586 22.419 9.26466 20.1602 12.0549 20.1602C14.8452 20.1602 17.104 22.419 17.104 25.2092ZM14.5086 25.2092C14.5086 23.854 13.4102 22.7556 12.0549 22.7556C10.6997 22.7556 9.60126 23.854 9.60126 25.2092C9.60126 26.5645 10.6997 27.6629 12.0549 27.6629C13.4102 27.6629 14.5086 26.5645 14.5086 25.2092Z" fill="#0DB14B"/>
<path d="M17.1138 38.4983C17.1138 41.2886 14.855 43.5474 12.0647 43.5474C9.27442 43.5474 7.01562 41.2886 7.01562 38.4983C7.01562 35.708 9.27442 33.4492 12.0647 33.4492C14.855 33.4492 17.1138 35.708 17.1138 38.4983ZM14.5095 38.4894C14.5095 37.1342 13.4111 36.0358 12.0558 36.0358C10.7006 36.0358 9.60217 37.1342 9.60217 38.4894C9.60217 39.8447 10.7006 40.9431 12.0558 40.9431C13.4111 40.9431 14.5095 39.8447 14.5095 38.4894Z" fill="#0DB14B"/>
<path d="M17.1138 11.9163C17.1138 14.7065 14.855 16.9653 12.0647 16.9653C9.27442 16.9653 7.01562 14.7065 7.01562 11.9163C7.01562 9.12599 9.27442 6.86719 12.0647 6.86719C14.855 6.86719 17.1138 9.12599 17.1138 11.9163ZM14.5095 11.9163C14.5095 10.561 13.4111 9.46259 12.0558 9.46259C10.7006 9.46259 9.60217 10.561 9.60217 11.9163C9.60217 13.2715 10.7006 14.3699 12.0558 14.3699C13.4111 14.3699 14.5095 13.2715 14.5095 11.9163Z" fill="#0DB14B"/>
<path d="M35.529 26.5048H20.1869C19.3631 26.5048 18.8139 26.0265 18.7608 25.3001C18.7165 24.6623 19.1683 23.9005 19.9921 23.9005L35.4582 23.8828C36.2908 23.8828 36.8223 24.4054 36.8666 25.1318C36.9109 25.8582 36.4503 26.5048 35.5202 26.5048H35.529Z" fill="#0DB14B"/>
<path d="M35.5472 13.1988H20.1785C19.3281 13.2076 18.7701 12.6673 18.7524 11.9409C18.7346 11.1526 19.3016 10.6211 20.1696 10.6211H35.4497C36.2647 10.6211 36.7962 11.0286 36.8759 11.7638C36.9468 12.4547 36.5216 13.2076 35.5472 13.2076V13.1988Z" fill="#0DB14B"/>
</svg>
