<svg width="89" height="79" viewBox="0 0 89 79" fill="none" xmlns="http://www.w3.org/2000/svg">
<path d="M44.5212 3.48385C45.48 3.48385 46.2573 2.70658 46.2573 1.74778C46.2573 0.788981 45.48 0.0117188 44.5212 0.0117188C43.5624 0.0117188 42.7852 0.788981 42.7852 1.74778C42.7852 2.70658 43.5624 3.48385 44.5212 3.48385Z" fill="#0DB14B"/>
<path d="M89 15.5232V20.2118C89 28.9175 80.5605 35.6717 71.4113 35.6843L41.518 35.735C41.404 37.1796 41.4547 38.2948 41.4927 39.8534C43.3555 39.0678 45.0155 39.9675 46.4601 40.6898C47.854 40.0182 49.3493 39.2325 51.1487 39.714C52.4413 40.0689 53.6705 41.146 54.5195 42.3498C56.3443 41.7922 58.2451 41.6655 59.8924 42.7933C61.2357 43.7184 62.2748 45.3024 62.2748 47.1905V57.2394C62.2621 62.8151 60.1459 68.0359 56.547 72.2684C56.509 73.2568 56.509 74.1692 56.5343 75.1449C56.5977 77.2105 55.0897 78.6931 53.0242 78.6931L34.295 78.6678C32.4956 78.6678 31.127 77.2231 31.1016 75.4998L31.0383 70.8365L22.1172 58.3926C20.3938 55.9849 21.2175 52.6775 23.3464 51.0048C25.4753 49.3321 28.6053 49.4208 30.8482 51.499L30.8862 35.7857L17.5173 35.7224C7.31631 35.6717 -1.2753 26.079 0.156635 15.6372C1.3478 6.88089 8.57084 0.06336 17.4286 0.038016L36.6773 0C37.7291 0 38.4261 0.82368 38.4514 1.71072C38.4768 2.59776 37.7544 3.47213 36.7027 3.47213H17.9608C13.4749 3.47213 9.38185 5.51232 6.72073 8.84505C3.8822 12.4059 2.81775 16.9805 4.02159 21.403C5.71964 27.6756 11.4094 32.2249 17.9481 32.1995L31.4058 32.1615C32.5843 30.5268 34.219 29.2216 36.2845 29.323C38.16 29.4244 39.934 30.3874 40.8971 32.2249H70.9044C75.479 32.2249 79.6101 30.2607 82.3345 26.8646C85.059 23.4685 86.2375 18.7419 85.0463 14.3067C83.399 8.18611 77.8613 3.54816 71.4746 3.53549L52.3653 3.47213C51.3008 3.47213 50.6165 2.69914 50.6165 1.69805C50.6039 0.874368 51.3262 0 52.3653 0L71.5633 0.06336C80.6238 0.088704 87.416 6.89357 89 15.5232ZM58.7646 47.0891C58.7646 45.936 57.6368 45.3531 56.8005 45.3911C55.8374 45.4418 55.0264 46.1007 55.0137 47.1398L54.9884 49.7249C54.9884 50.7387 54.19 51.4356 53.2903 51.461C52.3906 51.4863 51.5289 50.7767 51.5289 49.7503L51.5036 44.7195C51.5036 43.7311 50.7052 43.0468 49.8182 43.0721C48.9818 43.0975 48.2469 43.7691 48.2469 44.7068L48.2215 49.7376C48.2215 50.8147 47.3091 51.5117 46.3461 51.461C45.383 51.4103 44.7367 50.6246 44.7367 49.5855V44.7195C44.7367 43.7311 43.9257 43.0341 43.0513 43.0721C42.177 43.1101 41.48 43.7564 41.48 44.7068L41.4547 49.7376C41.4547 50.7513 40.6437 51.4483 39.744 51.461C38.8442 51.4736 37.9952 50.802 37.9952 49.7376L37.9699 34.6452C37.9699 33.5554 37.0702 32.8078 36.1071 32.8458C35.22 32.8838 34.3964 33.5935 34.3964 34.6579V55.6427C34.3837 56.4157 33.9655 56.986 33.3826 57.2521C32.8757 57.4928 32.0901 57.5435 31.6212 57.0873L28.3645 53.9447C27.5155 53.121 26.3623 52.9943 25.488 53.7419C24.7657 54.3502 24.4108 55.592 25.0825 56.5424L34.1049 69.0244C34.4344 69.4806 34.6118 69.848 34.6118 70.4436V75.183H53.0495L53.0749 71.6601C53.0749 71.0519 53.341 70.6591 53.7212 70.2155C56.6484 66.8828 58.7646 62.7897 58.7773 58.2785L58.8026 47.1145L58.7646 47.0891Z" fill="#0DB14B"/>
<path d="M44.0891 17.3205C43.4935 19.9056 45.2296 25.2658 42.3404 25.3672C41.3266 25.4052 40.5156 24.6322 40.5156 23.5171V11.5294C40.5156 10.693 41.0985 10.0594 41.7068 9.88204C42.5178 9.64127 43.2528 9.89471 43.7216 10.5663L48.9805 18.0935L49.0439 11.5167C49.0439 10.5156 49.8042 9.79333 50.7166 9.75532C51.629 9.7173 52.516 10.4523 52.516 11.5167V23.327C52.516 24.2014 51.9204 24.873 51.2868 25.1011C50.4251 25.4179 49.5761 25.1138 49.0566 24.3788L44.1018 17.3078L44.0891 17.3205Z" fill="#0DB14B"/>
<path d="M68.8882 11.4553L68.9136 19.6921C68.9136 21.6055 68.0265 23.2022 66.4806 24.254C64.2249 25.7746 61.3484 25.7746 59.1942 24.1273C57.8256 23.0755 56.9766 21.6309 56.9766 19.8695V11.544C56.9766 10.5175 57.7749 9.76989 58.7 9.76989C59.6757 9.76989 60.4233 10.4922 60.4614 11.5313C60.5754 14.4965 60.2966 17.3858 60.5754 20.3257C60.6768 21.3901 62.1594 21.9477 63.0084 21.897C63.8575 21.8463 65.3274 21.2887 65.3401 20.2116L65.4288 11.5313C65.4288 10.5429 66.1257 9.83325 67.0508 9.76989C67.9759 9.70653 68.8882 10.3528 68.8882 11.4553Z" fill="#0DB14B"/>
<path d="M74.0336 20.3139L74.0082 23.6973C74.0082 24.7238 73.3366 25.4841 72.3862 25.5474C71.4358 25.6108 70.5234 24.9138 70.5234 23.8494V11.7223C70.5234 10.7592 71.2457 9.97355 72.1961 9.96088C73.476 9.94821 74.7052 9.89752 75.9977 9.96088C78.7729 10.1256 80.8638 12.3939 80.8765 15.0804C80.8891 17.7668 78.8489 20.1745 76.0991 20.2505L74.0336 20.3139ZM76.1371 16.6897C76.9481 16.4743 77.379 15.752 77.379 15.0804C77.379 14.4088 76.8975 13.7245 76.1625 13.5217C75.4275 13.319 74.6799 13.357 74.0082 13.5217L74.0463 16.7404C74.7559 16.7911 75.4402 16.8671 76.1498 16.6897H76.1371Z" fill="#0DB14B"/>
<path d="M34.156 19.3158C33.0282 19.3158 32.2932 18.5047 32.3059 17.5417C32.3186 16.5786 33.0662 15.8183 34.1053 15.831H37.7169C38.6926 15.8436 39.4149 16.642 39.4149 17.605C39.4022 21.3053 37.4381 24.6633 33.6618 25.2843C30.1643 25.8545 26.8063 23.9664 25.3743 20.8871C23.9424 17.8078 24.7281 13.9175 27.3638 11.6492C29.9996 9.38091 33.8772 9.1148 36.8171 11.1043C37.6281 11.6492 37.7675 12.6883 37.3113 13.4613C36.8552 14.2343 35.7527 14.5511 34.9037 14.0062C33.2563 12.9544 31.2288 13.0051 29.7462 14.2089C28.2635 15.4128 27.706 17.3643 28.4283 19.151C29.1506 20.9378 30.8993 22.1036 32.9015 21.8755C34.3081 21.7108 35.3472 20.7097 35.702 19.3791C35.1698 19.2777 34.7643 19.3411 34.1814 19.3284L34.156 19.3158Z" fill="#0DB14B"/>
<path d="M15.2869 25.0796C12.6004 25.8906 9.73656 24.9655 7.91179 22.976C7.24018 22.241 7.41758 21.1639 8.0005 20.6063C8.7228 19.8967 9.81259 19.9474 10.5349 20.6824C11.612 21.7595 13.3227 22.279 14.6786 21.5567C15.0588 21.354 15.3122 20.9485 15.3376 20.6317C15.3756 20.2388 15.0461 19.8207 14.628 19.6433L10.1421 17.7171C8.64677 17.0835 8.03851 15.3475 8.20325 13.8015C8.36798 12.2555 9.30571 10.9629 10.7757 10.2913C13.0059 9.2649 15.4643 9.79712 17.4918 11.1404C18.4169 11.7486 18.7463 12.8637 18.1381 13.7381C17.5298 14.6125 16.3513 14.6758 15.4516 14.0042C14.3365 13.1805 12.3216 12.8384 11.7387 13.9535C11.6627 14.1056 11.5993 14.5491 11.8655 14.6632L16.0345 16.4372C17.6946 17.1469 18.8731 18.7182 18.8604 20.5683C18.8477 22.6592 17.4285 24.446 15.3122 25.0796H15.2869Z" fill="#0DB14B"/>
<path d="M23.6108 23.4318C23.6108 24.6103 22.8378 25.358 21.8493 25.358C20.8609 25.358 20.1133 24.5723 20.1133 23.4952V11.5202C20.1133 10.4811 20.9243 9.74609 21.862 9.74609C22.7997 9.74609 23.6108 10.4684 23.6108 11.5075V23.4192V23.4318Z" fill="#0DB14B"/>
</svg>
