<svg width="96" height="76" viewBox="0 0 96 76" fill="none" xmlns="http://www.w3.org/2000/svg">
<path d="M21.2389 46.8749C10.3051 51.7313 4.13282 60.983 4.09212 73.0427C4.09212 74.1822 3.38672 75.0504 2.34217 75.2268C1.36546 75.3896 0.0767343 74.7248 0.0224723 73.5446C-0.0996172 70.3839 0.280217 67.3316 1.05345 64.2658C2.99332 56.6013 7.65985 50.1577 14.2662 45.8439C18.3359 43.1986 22.7175 41.5029 27.7232 40.3227C16.3146 33.3908 13.7236 18.1974 22.0257 7.95547C29.6359 -1.44542 43.4999 -2.7477 52.6837 5.29664C57.9471 9.89534 60.6467 16.6917 59.9955 23.7864C59.3851 30.4335 55.6681 36.5108 49.7536 40.2007C51.1373 40.7704 52.3039 40.7568 53.4841 41.313L51.49 44.8943C46.6878 43.5513 41.8992 43.2258 36.9071 43.3885C31.4402 43.5649 26.2039 44.6637 21.2389 46.8613V46.8749ZM56.0887 21.6838C56.0887 12.0523 48.2749 4.23853 38.6434 4.23853C29.0119 4.23853 21.1982 12.0523 21.1982 21.6838C21.1982 31.3153 29.0119 39.129 38.6434 39.129C48.2749 39.129 56.0887 31.3153 56.0887 21.6838Z" fill="#0DB14B"/>
<path d="M95.0369 55.1923C95.0369 66.6823 85.7174 76.0018 74.2274 76.0018C62.7375 76.0018 53.418 66.6823 53.418 55.1923C53.418 43.7023 62.7375 34.3828 74.2274 34.3828C85.7174 34.3828 95.0369 43.7023 95.0369 55.1923ZM90.913 55.1923C90.913 45.9813 83.4384 38.5067 74.2274 38.5067C65.0165 38.5067 57.5419 45.9813 57.5419 55.1923C57.5419 64.4033 65.0165 71.8778 74.2274 71.8778C83.4384 71.8778 90.913 64.4033 90.913 55.1923Z" fill="#0DB14B"/>
<path d="M62.8174 56.235C61.9628 55.2311 61.9492 53.9967 62.8852 53.1692C63.7263 52.4231 65.0557 52.4502 65.8832 53.4269L72.2183 60.8744L81.2801 48.1635C82.0262 47.119 83.2878 46.8476 84.2916 47.5666C85.2954 48.2856 85.3768 49.5743 84.6172 50.6324L74.0903 65.351C73.6563 65.9614 73.1272 66.2463 72.5439 66.287C71.7571 66.3413 71.2009 66.0835 70.6854 65.4731L62.8174 56.2621V56.235Z" fill="#0DB14B"/>
</svg>
