<svg width="77" height="77" viewBox="0 0 77 77" fill="none" xmlns="http://www.w3.org/2000/svg">
<path d="M39.5833 12.6253C22.2137 9.60231 6.20684 21.9791 4.26174 39.0638C2.31664 56.1485 15.2881 71.7464 32.6206 72.7871C49.8415 73.8278 64.6838 60.113 64.7333 42.5699C64.7333 41.4425 65.5262 40.6124 66.5669 40.5009C67.6076 40.3894 68.797 41.1328 68.797 42.3097C68.8837 62.4545 51.8238 78.2384 32.0011 76.8384C12.166 75.4136 -2.46559 57.4369 0.346758 37.6514C3.1591 17.8659 21.9659 4.72098 41.5036 8.83418C46.6575 0.90511 56.5936 -2.09307 65.1669 1.51218C73.4925 5.01832 78.3986 14.0129 76.503 23.1313C74.719 31.7542 67.0749 38.4319 57.6839 38.4319C60.0626 52.4317 49.8044 65.1925 35.8665 66.0598C21.8296 66.9394 10.097 55.3184 10.828 41.2814C11.559 27.2445 24.3694 16.8252 38.4806 19.2287C38.4559 16.8624 38.8399 15.0164 39.5833 12.6253ZM72.8358 19.2287C72.8358 10.866 66.0466 4.07674 57.6839 4.07674C49.3212 4.07674 42.5319 10.866 42.5319 19.2287C42.5319 27.5914 49.3212 34.3807 57.6839 34.3807C66.0466 34.3807 72.8358 27.5914 72.8358 19.2287ZM38.9019 23.4658C26.872 20.7402 15.7093 29.3754 14.9164 41.1823C14.1235 52.9892 24.0844 62.9006 35.9409 61.9838C47.7601 61.067 56.2096 49.768 53.422 37.9735C46.1619 36.301 40.6735 30.7382 38.9019 23.4658Z" fill="#0DB14B"/>
<path d="M36.4602 52.8029C36.5593 54.3267 35.6549 55.3055 34.416 55.3055C33.1771 55.3055 32.3098 54.302 32.3594 52.902C32.3594 52.5923 32.4833 51.787 32.1735 51.6011C30.8727 50.833 29.7081 49.9905 29.2001 48.4914C28.8285 47.4136 29.5347 46.3233 30.4143 46.0012C33.2019 44.9605 32.4213 48.7516 35.3204 47.7357C35.9646 47.5003 36.7204 46.695 36.3239 45.8154C35.4939 43.9818 31.1824 44.9234 29.101 41.4792C27.2674 38.4314 28.8656 34.6403 32.1116 33.4014C32.4833 33.2404 32.3718 32.3855 32.3594 32.0386C32.2974 30.7501 33.1647 29.6475 34.416 29.6723C35.6673 29.6971 36.5222 30.6634 36.4726 32.0882C36.3859 34.6032 37.8354 32.9802 39.4336 35.966C40.0159 37.0562 39.6814 38.2704 38.7398 38.8279C37.5628 39.5217 36.3239 38.9394 35.7292 37.75C35.3576 37.0067 34.4284 37.0191 33.7222 37.2049C33.078 37.3784 32.2231 37.9978 32.4461 38.9642C32.9417 41.0455 37.5381 39.9057 39.7309 43.4986C41.5274 46.4596 40.0283 50.2507 36.8567 51.4896C36.4106 51.6631 36.423 52.2825 36.4602 52.7905V52.8029Z" fill="#0DB14B"/>
<path d="M55.0945 27.0226C55.6272 28.3483 55.7759 29.4138 54.8839 30.1819C53.9918 30.95 52.8025 30.8013 51.8609 29.9217L48.1813 26.5147C47.2397 25.6474 47.1406 24.1979 48.1813 23.405L52.2078 20.3697C52.9883 19.7874 53.9051 19.7626 54.6361 20.221C55.4785 20.7413 55.6148 21.6705 55.5157 22.897L64.8324 22.9838C65.8731 22.9838 66.4677 23.9997 66.5049 24.8545C66.5421 25.7713 65.8978 26.9111 64.8324 26.9235L55.0821 27.0103L55.0945 27.0226Z" fill="#0DB14B"/>
<path d="M63.2609 18.174C62.4556 18.7811 61.4892 18.5581 60.8698 18.1121C60.1016 17.5546 60.0893 16.6997 60.1636 15.5228H50.4629C49.2239 15.5228 48.3195 14.8785 48.1709 13.7139C48.047 12.698 48.716 11.5087 49.9673 11.4963L60.8078 11.4096C60.0521 10.5299 59.9158 9.51401 60.4114 8.67155C60.9069 7.82908 62.3441 7.38307 63.2237 8.10164C64.7228 9.32817 65.9741 10.7901 67.3989 12.1405C68.2166 12.9086 68.0679 14.2715 67.2254 14.9652C65.9122 16.0555 64.6733 17.0962 63.2485 18.1493L63.2609 18.174Z" fill="#0DB14B"/>
</svg>
