<svg width="73" height="79" viewBox="0 0 73 79" fill="none" xmlns="http://www.w3.org/2000/svg">
<path d="M10.855 23.6048C10.8297 25.7455 10.4243 28.0129 8.41026 28.9756C6.21887 30.0269 3.82481 29.4822 2.45677 27.6709C1.08873 25.8595 1.27874 23.3768 2.63411 21.844C4.25548 20.0073 6.71288 19.6907 8.92961 21.0587L21.85 12.1158C21.2166 9.1137 23.1673 6.4663 25.9921 6.23829C28.8168 6.01029 31.3755 8.37902 31.0589 11.5964L43.4599 18.1833C45.0559 17.3093 47.032 16.4226 48.9447 17.7399L62.4477 6.31429C61.713 3.86956 62.6504 1.61484 64.6771 0.53814C66.5771 -0.47522 69.0219 -0.0318751 70.4279 1.65284C71.834 3.33755 71.91 5.83295 70.4406 7.619C69.0725 9.27837 66.7165 9.82305 64.5124 8.70836L51.0221 20.096C51.6427 22.0594 51.1361 23.9594 49.7807 25.2008C48.2987 26.5562 46.3733 26.7335 44.5619 25.9608C42.7505 25.1881 42.0792 23.1867 41.8892 21.1094L29.6022 14.4845C27.7401 15.3839 25.6754 16.2199 23.6613 14.6492L10.8677 23.6301L10.855 23.6048ZM68.3885 4.62958C68.3885 3.78089 67.7045 3.09688 66.8558 3.09688C66.0071 3.09688 65.3231 3.78089 65.3231 4.62958C65.3231 5.47827 66.0071 6.16229 66.8558 6.16229C67.7045 6.16229 68.3885 5.47827 68.3885 4.62958ZM27.9428 10.8491C27.9428 10.0004 27.2588 9.31637 26.4101 9.31637C25.5614 9.31637 24.8774 10.0004 24.8774 10.8491C24.8774 11.6978 25.5614 12.3818 26.4101 12.3818C27.2588 12.3818 27.9428 11.6978 27.9428 10.8491ZM48.172 21.7427C48.172 20.894 47.488 20.21 46.6393 20.21C45.7906 20.21 45.1066 20.894 45.1066 21.7427C45.1066 22.5914 45.7906 23.2754 46.6393 23.2754C47.488 23.2754 48.172 22.5914 48.172 21.7427ZM7.71358 24.8588C7.71358 24.0101 7.02956 23.3261 6.18087 23.3261C5.33218 23.3261 4.64816 24.0101 4.64816 24.8588C4.64816 25.7075 5.33218 26.3915 6.18087 26.3915C7.02956 26.3915 7.71358 25.7075 7.71358 24.8588Z" fill="#0DB14B"/>
<path d="M7.87888 72.3095C7.20753 74.0069 8.74023 78.263 6.43484 78.5924C3.44543 79.0104 5.15547 73.9183 4.48412 72.3222C2.4574 72.8036 0 71.8029 0 69.5988V46.3295C0 44.1255 2.4574 43.1374 4.48412 43.6188C5.16814 41.8834 3.52143 37.3359 6.1815 37.3359C8.84157 37.3359 7.19486 41.9087 7.89154 43.6314C9.88026 43.1374 12.363 44.1255 12.363 46.3042V69.6368C12.363 71.8282 9.89293 72.7909 7.89154 72.3095H7.87888ZM9.29758 46.6335H3.07808V69.3075H9.29758V46.6335Z" fill="#0DB14B"/>
<path d="M48.3359 69.1914C47.6646 70.8888 49.1973 75.1449 46.8919 75.4742C43.9025 75.8922 45.6125 70.8001 44.9411 69.2041C42.9144 69.6981 40.457 68.6847 40.457 66.4933V43.224C40.457 41.02 42.9144 40.032 44.9411 40.5133C45.6252 38.7779 43.9785 34.2305 46.6385 34.2305C49.2986 34.2305 47.6519 38.8033 48.3486 40.526C50.35 40.032 52.82 41.02 52.82 43.1987V66.5313C52.82 68.7227 50.35 69.6854 48.3486 69.2041L48.3359 69.1914ZM49.7546 43.5154H43.5351V66.1893H49.7546V43.5154Z" fill="#0DB14B"/>
<path d="M68.5654 52.1675C67.9447 54.1942 69.4141 58.2223 66.9947 58.387C66.2854 58.4376 65.4113 58.0196 65.3733 57.1709L65.158 52.1801C63.3086 52.4841 60.6992 51.7115 60.6992 49.4947V26.0101C60.6992 23.7807 63.2833 23.0207 65.1453 23.3374C65.7787 21.2473 64.284 17.2952 66.716 17.1052C69.4901 16.8899 67.9321 21.336 68.5528 23.3247C70.4021 23.0207 72.9989 23.7681 72.9989 26.0101V49.4821C72.9989 51.7115 70.4021 52.4715 68.5528 52.1675H68.5654ZM69.9715 26.4155H63.752V49.0767H69.9715V26.4155Z" fill="#0DB14B"/>
<path d="M28.1084 58.3872C27.4877 60.4139 28.9571 64.442 26.5377 64.6067C25.8283 64.6573 24.9543 64.2393 24.9163 63.3906L24.701 58.3872C22.8516 58.6912 20.2422 57.9185 20.2422 55.7018V32.2171C20.2422 29.9878 22.8263 29.2277 24.6883 29.5444C25.3217 27.4543 23.8269 23.5022 26.259 23.3122C29.0331 23.0969 27.475 27.543 28.0957 29.5317C29.9451 29.2277 32.5419 29.9751 32.5419 32.2171V55.6891C32.5419 57.9185 29.9451 58.6785 28.0957 58.3745L28.1084 58.3872ZM29.5144 32.6352H23.2949V55.2964H29.5144V32.6352Z" fill="#0DB14B"/>
</svg>
