<svg width="24" height="24" viewBox="0 0 24 24" fill="none" xmlns="http://www.w3.org/2000/svg">
<g clip-path="url(#clip0_200_10731)">
<path d="M5.62659 0H18.3589C21.4767 0 24 2.52479 24 5.62999V18.37C24 21.4752 21.4767 24 18.3734 24H5.62659C2.52326 24 0 21.4752 0 18.37V5.62999C0 2.52479 2.52326 0 5.62659 0Z" fill="#0072BC"/>
<path d="M15.7486 16.4979C13.3994 16.6285 11.0936 16.6285 8.77338 16.5414C8.19332 16.5124 7.64227 16.4834 7.07671 16.4109C6.43864 16.3238 5.91659 15.9175 5.74257 15.2936C5.33653 13.9296 5.29302 9.59102 5.97459 8.34314C6.19212 7.93685 6.62716 7.66116 7.09121 7.5886C7.65677 7.51605 8.17882 7.48703 8.75888 7.47252C10.9631 7.38546 13.1528 7.38546 15.3571 7.47252C15.9371 7.50154 16.4737 7.51605 17.0392 7.60311C17.6483 7.69018 18.1269 8.12549 18.3009 8.72041C18.7214 10.1279 18.6924 13.9151 18.2429 15.3371C18.0979 15.8014 17.7353 16.2222 17.2568 16.3383C16.7782 16.4544 16.2997 16.4834 15.7776 16.5124L15.7486 16.4979ZM14.458 11.8691L10.4121 9.73613L10.3686 13.9876L14.458 11.8691Z" fill="white"/>
</g>
<defs>
<clipPath id="clip0_200_10731">
<rect width="24" height="24" fill="white"/>
</clipPath>
</defs>
</svg>
